<?xml version="1.0" standalone="no"?>
<!DOCTYPE svg PUBLIC "-//W3C//DTD SVG 1.1//EN" "http://www.w3.org/Graphics/SVG/1.1/DTD/svg11.dtd">
<!--Generator: Xara Designer (www.xara.com), SVG filter version: 6.0.0.4-->
<svg stroke-width="0.501" stroke-linejoin="bevel" fill-rule="evenodd" xmlns:xlink="http://www.w3.org/1999/xlink" xmlns="http://www.w3.org/2000/svg" version="1.1" overflow="visible" width="75pt" height="75pt" viewBox="0 0 75 75">
 <defs>
	</defs>
 <g id="Document" fill="none" stroke="black" font-family="Times New Roman" font-size="16" transform="scale(1 -1)">
  <g id="Spread" transform="translate(0 -75)">
   <g id="Layer 1">
    <path d="M 74.314,49.054 C 73.615,49.351 71.581,49.336 70.505,49.24 C 70.46,49.545 70.408,49.848 70.352,50.146 C 71.437,50.6 72.379,50.79 73.143,50.675 C 73.413,50.641 73.658,50.819 73.697,51.087 C 73.736,51.352 73.552,51.599 73.287,51.639 C 72.371,51.775 71.338,51.605 70.141,51.125 C 69.501,53.784 68.357,56.242 66.652,58.665 C 65.503,60.301 60.384,65.077 59.202,64.674 C 58.544,64.447 58.532,63.887 58.665,62.566 C 58.737,61.833 58.821,61.003 58.601,60.261 C 58.55,60.085 58.404,59.955 58.224,59.921 C 57.65,59.813 56.571,59.402 55.53,59.005 C 53.544,58.248 52.291,57.798 51.669,57.922 C 51.628,57.93 51.59,57.942 51.552,57.96 C 48.533,59.408 43.887,61.008 43.181,60.323 C 43.088,60.233 43.128,59.955 43.285,59.595 C 44.659,56.486 46.004,52.448 44.191,48.811 C 43.146,46.711 40.811,42.687 38.698,40.913 C 38.224,40.517 37.737,40.094 37.237,39.656 C 35.382,38.038 33.279,36.203 30.947,35.111 C 27.093,33.316 22.491,32.246 18.634,32.246 C 16.941,32.246 13.591,32.96 11.814,34.875 C 10.98,35.774 10.601,36.81 10.686,37.958 C 10.926,41.139 13.578,43.609 18.569,45.299 C 20.073,45.809 23.7,47.265 24.908,49.793 C 25.392,50.806 25.424,51.899 25.003,53.042 C 24.909,53.293 24.626,53.548 24.247,53.719 C 23.966,53.846 23.666,53.913 23.402,53.913 C 23.253,53.913 23.113,53.891 22.997,53.847 C 22.427,53.632 22.124,52.238 22.008,51.715 C 21.972,51.55 21.943,51.419 21.919,51.34 C 21.47,49.866 18.9,48.8 16.077,47.746 C 13.739,46.889 12.025,45.629 9.855,43.743 C 6.633,40.953 6.655,35.69 8.825,32.846 C 9.734,31.664 11.644,30.662 13.178,29.855 C 13.597,29.635 13.989,29.429 14.322,29.24 C 14.472,29.156 14.564,28.999 14.568,28.827 C 14.572,28.657 14.487,28.496 14.343,28.405 C 13.807,28.066 13.129,27.696 12.411,27.305 C 11.271,26.683 9.979,25.978 9.198,25.347 L 8.667,24.919 C 6.214,22.954 -0.301,17.736 0.45,14.549 C 0.796,13.092 2.282,12.096 3.516,11.79 C 4.596,11.521 5.552,11.712 6.073,12.304 C 6.243,12.498 6.274,12.899 6.144,13.254 C 6.104,13.364 5.95,13.726 5.636,13.775 C 5.444,13.803 5.286,13.946 5.238,14.134 C 4.914,15.399 6.856,16.84 7.248,17.115 C 8.573,18.038 10.571,18.396 12.03,18.656 C 12.548,18.748 12.998,18.829 13.318,18.915 C 15.69,19.559 20.043,19.699 22.633,19.216 L 22.735,19.195 C 25.764,18.606 28.682,18.26 31.406,18.165 C 34.968,18.031 38.379,18.324 41.547,19.019 C 41.63,19.08 41.726,19.122 41.837,19.122 C 41.868,19.122 41.893,19.109 41.921,19.105 C 44.06,19.599 46.136,20.276 48.253,21.179 C 48.536,21.299 48.85,21.452 49.187,21.634 C 49.187,21.635 49.189,21.635 49.189,21.635 C 50.807,22.496 52.699,23.837 53.83,24.637 C 54.326,24.989 54.571,25.162 54.703,25.238 C 56.409,26.232 58.504,26.427 60.166,25.745 C 61.374,25.249 62.205,24.36 62.507,23.242 C 62.764,22.295 62.714,21.352 62.669,20.519 C 62.626,19.718 62.589,19.026 62.833,18.591 C 63.092,18.133 63.436,17.853 63.881,17.737 C 64.874,17.477 66.015,18.113 66.342,18.314 C 67.394,18.961 67.993,20.194 68.125,21.98 C 68.237,23.495 67.842,25.279 67.117,26.525 C 66.551,27.503 65.441,28.48 64.127,29.169 C 64.073,29.18 64.018,29.199 63.97,29.231 C 62.912,29.91 61.822,29.942 60.668,29.975 C 59.994,29.994 59.295,30.014 58.58,30.164 C 58.317,30.22 58.148,30.477 58.203,30.742 C 58.259,31.004 58.518,31.173 58.78,31.118 C 59.41,30.987 60.035,30.967 60.696,30.95 C 61.793,30.917 62.923,30.882 64.061,30.299 C 65.181,31.082 67.733,34.191 68.516,35.939 C 69.431,37.767 70.595,41.517 70.663,43.311 C 70.8,45.067 70.786,46.709 70.625,48.275 C 71.641,48.366 73.474,48.352 73.934,48.157 C 73.996,48.13 74.061,48.118 74.124,48.118 C 74.313,48.118 74.494,48.23 74.572,48.415 C 74.677,48.662 74.561,48.95 74.314,49.054 M 50.778,40.161 C 50.682,40.042 50.541,39.98 50.399,39.98 C 50.292,39.98 50.183,40.017 50.093,40.089 C 49.884,40.258 49.851,40.565 50.021,40.774 C 50.652,41.554 52.807,43.256 53.734,43.492 C 53.996,43.557 54.26,43.402 54.326,43.14 C 54.393,42.879 54.235,42.615 53.974,42.549 C 53.317,42.381 51.343,40.861 50.778,40.161 M 55.421,40.989 C 54.801,40.518 54.426,40.039 54.03,39.533 C 53.705,39.117 53.369,38.688 52.901,38.281 C 52.808,38.202 52.695,38.163 52.583,38.163 C 52.445,38.163 52.309,38.219 52.213,38.329 C 52.038,38.534 52.06,38.841 52.262,39.017 C 52.66,39.361 52.953,39.735 53.262,40.133 C 53.679,40.666 54.111,41.217 54.833,41.764 C 55.047,41.927 55.353,41.886 55.516,41.671 C 55.678,41.457 55.636,41.151 55.421,40.989 M 58.608,49.004 C 58.544,48.742 58.282,48.581 58.02,48.644 C 56.488,49.016 55.356,48.958 54.559,48.468 C 53.91,48.069 53.477,47.381 53.237,46.363 C 53.184,46.14 52.986,45.988 52.763,45.988 C 52.727,45.988 52.689,45.992 52.652,46.001 C 52.39,46.063 52.227,46.325 52.289,46.587 C 52.589,47.851 53.179,48.763 54.048,49.297 C 55.079,49.931 56.454,50.028 58.249,49.592 C 58.512,49.528 58.671,49.265 58.608,49.004 M 65.353,47.124 C 64.847,46.747 64.039,46.681 63.36,46.917 C 63.045,46.312 62.569,45.604 61.798,45.422 C 61.678,45.393 61.555,45.379 61.432,45.379 C 60.954,45.379 60.449,45.588 59.924,46.002 C 59.713,46.168 59.677,46.475 59.843,46.685 C 60.01,46.898 60.316,46.933 60.527,46.766 C 60.944,46.438 61.297,46.304 61.575,46.37 C 62.09,46.492 62.484,47.326 62.695,47.774 C 62.755,47.903 62.868,47.998 63.005,48.036 C 63.142,48.075 63.29,48.05 63.407,47.971 C 63.792,47.712 64.467,47.679 64.77,47.905 C 64.831,47.951 64.971,48.056 64.859,48.423 C 64.779,48.68 64.923,48.953 65.18,49.033 C 65.439,49.11 65.71,48.967 65.789,48.711 C 65.99,48.059 65.832,47.48 65.353,47.124 M 68.831,52.119 C 68.631,51.941 68.323,51.957 68.143,52.156 C 67.587,52.777 66.918,52.831 66.453,52.764 C 65.568,52.638 64.706,52.003 64.308,51.179 C 64.224,51.006 64.049,50.904 63.869,50.904 C 63.797,50.904 63.725,50.921 63.656,50.954 C 63.415,51.071 63.313,51.362 63.431,51.604 C 63.965,52.707 65.124,53.561 66.318,53.728 C 67.306,53.867 68.212,53.541 68.869,52.808 C 69.048,52.607 69.031,52.299 68.831,52.119 M 30.792,17.224 C 28.62,17.326 26.337,17.582 23.977,17.987 C 24.86,16.997 25.481,15.974 26.086,14.976 C 26.586,14.151 27.057,13.373 27.653,12.658 C 27.761,12.529 28.454,11.846 28.607,11.705 C 30.068,10.686 31.082,10.077 32.807,10.88 C 32.86,10.904 32.986,10.968 33.003,11.036 C 33.075,11.313 32.516,12.084 32.106,12.647 C 31.196,13.901 29.971,15.59 30.792,17.224 M 42.271,18.189 C 41.927,15.383 41.76,12.202 43.089,10.917 C 43.656,10.367 44.473,10.188 45.586,10.371 C 46.153,10.464 46.87,10.671 47.07,11.138 C 47.364,11.822 46.597,12.951 46.227,13.494 C 46.021,13.799 45.926,13.939 45.908,14.114 C 45.78,15.35 47.11,18.298 48.198,20.107 C 46.222,19.291 44.272,18.66 42.271,18.189 Z" fill="#000000" stroke="none" stroke-width="0.65" stroke-linejoin="miter" marker-start="none" marker-end="none" stroke-miterlimit="79.8403193612775"/>
   </g>
  </g>
 </g>
</svg>
