<?xml version="1.0" standalone="no"?>
<!DOCTYPE svg PUBLIC "-//W3C//DTD SVG 1.1//EN" "http://www.w3.org/Graphics/SVG/1.1/DTD/svg11.dtd">
<!--Generator: Xara Designer (www.xara.com), SVG filter version: 6.0.0.4-->
<svg stroke-width="0.501" stroke-linejoin="bevel" fill-rule="evenodd" xmlns:xlink="http://www.w3.org/1999/xlink" xmlns="http://www.w3.org/2000/svg" version="1.1" overflow="visible" width="75pt" height="75pt" viewBox="0 0 75 75">
 <defs>
	</defs>
 <g id="Document" fill="none" stroke="black" font-family="Times New Roman" font-size="16" transform="scale(1 -1)">
  <g id="Spread" transform="translate(0 -75)">
   <g id="Layer 1">
    <path d="M 59.59,2.127 C 59.262,2.05 58.939,1.984 58.603,1.934 C 58.473,1.913 58.346,1.883 58.216,1.863 C 57.899,1.819 57.566,1.798 57.236,1.768 C 58.723,4.516 62.042,7.501 65.066,8.083 C 65.137,6.712 65.009,5.41 64.674,4.204 C 64.623,4.173 64.573,4.142 64.531,4.113 C 64.372,4.018 64.202,3.921 64.038,3.834 C 63.733,3.657 63.423,3.497 63.102,3.345 C 62.946,3.27 62.781,3.193 62.617,3.115 C 62.309,2.986 61.993,2.853 61.673,2.74 C 61.521,2.685 61.37,2.631 61.22,2.577 C 60.826,2.446 60.441,2.327 60.04,2.222 C 59.894,2.189 59.738,2.152 59.59,2.127 Z M 54.704,1.763 C 54.537,1.773 54.356,1.798 54.179,1.814 C 53.923,1.84 53.668,1.858 53.418,1.897 L 53.416,1.906 C 54.647,5.375 58.888,11.34 64.071,12.381 L 64.181,12.407 C 64.515,11.433 64.753,10.449 64.908,9.501 C 61.137,8.813 57.125,5.039 55.637,1.723 C 55.327,1.726 55.017,1.74 54.704,1.763 Z M 62.46,18.682 C 58.497,24.162 52.812,27.121 47.623,26.397 C 47.381,26.358 47.179,26.196 47.081,25.991 C 46.998,26.963 46.989,27.954 47.071,28.917 C 47.092,28.913 47.119,28.919 47.137,28.923 C 53.156,29.89 59.512,27.65 63.723,23.082 C 67.669,18.822 69.149,13.164 67.8,7.567 C 67.74,7.322 67.818,7.081 67.983,6.908 C 67.977,6.895 67.967,6.893 67.959,6.883 C 67.675,6.575 67.369,6.282 67.059,5.996 C 66.938,5.892 66.819,5.786 66.699,5.682 C 66.586,5.588 66.472,5.502 66.359,5.408 C 66.926,9.532 65.553,14.406 62.46,18.682 Z M 51.487,2.322 C 51.23,2.396 50.971,2.47 50.719,2.555 C 50.478,2.635 50.237,2.722 50.002,2.821 C 49.928,2.851 49.843,2.88 49.769,2.911 C 49.726,8.279 55.261,14.607 61.823,16.586 C 61.922,16.618 62.005,16.667 62.077,16.732 C 62.712,15.753 63.239,14.739 63.667,13.733 C 57.884,12.542 53.304,6.005 52.022,2.177 L 52.013,2.175 C 51.83,2.218 51.662,2.276 51.487,2.322 Z M 47.86,3.823 C 47.681,3.926 47.505,4.019 47.327,4.123 C 46.898,4.389 46.465,4.672 46.055,4.981 C 46.044,4.988 46.042,4.997 46.033,4.995 C 46.494,10.355 51.84,18.759 58.826,19.96 C 59.022,19.987 59.186,20.112 59.292,20.272 C 60,19.552 60.667,18.764 61.294,17.897 C 54.385,15.751 48.726,9.384 48.374,3.558 C 48.201,3.642 48.027,3.727 47.86,3.823 Z M 64.76,24.04 C 60.307,28.857 53.644,31.267 47.263,30.359 C 47.35,30.853 47.469,31.335 47.624,31.785 C 47.735,31.762 47.85,31.76 47.967,31.798 C 53.095,33.317 58.621,32.314 63.127,29.045 C 68.119,25.424 71.078,19.661 71.257,13.215 C 71.261,12.994 71.362,12.807 71.526,12.681 C 71.37,12.24 71.184,11.802 70.986,11.37 C 70.934,11.261 70.883,11.152 70.83,11.044 C 70.657,10.676 70.46,10.32 70.255,9.964 C 70.208,9.876 70.164,9.779 70.107,9.689 C 69.904,9.361 69.688,9.05 69.463,8.737 C 70.346,14.302 68.674,19.8 64.76,24.04 Z M 44.639,6.172 C 44.304,6.489 43.976,6.825 43.665,7.167 C 43.588,7.247 43.519,7.336 43.44,7.424 C 43.27,7.616 43.117,7.819 42.952,8.022 C 43.484,14.681 49.652,21.07 55.27,23.291 C 55.306,23.299 55.332,23.316 55.358,23.331 C 56.353,22.784 57.315,22.093 58.229,21.277 C 51.103,19.848 45.724,11.871 44.751,6.064 C 44.716,6.094 44.678,6.132 44.639,6.172 Z M 63.958,30.183 C 60.059,33.01 55.447,34.262 50.92,33.799 C 51.279,33.914 51.642,34.008 52.017,34.095 C 58.597,35.635 65.184,33.04 69.045,27.999 C 67.835,32.292 65.318,37.941 60.107,40.315 C 56.957,41.751 53.746,41.994 49.848,41.318 C 42.827,40.094 36.638,35.405 29.9,38.846 C 27.676,40.071 26.093,42.129 25.144,44.323 L 25.133,44.32 L 25.113,44.366 C 23.102,43.979 19.707,43.651 15.934,44.906 C 9.374,47.083 6.284,52.499 4.998,54.748 C 0.36,62.839 1.873,71.14 2.427,73.632 C 2.512,74.012 2.888,74.252 3.268,74.167 C 3.647,74.084 3.886,73.707 3.802,73.327 C 3.268,70.926 1.851,63.069 6.218,55.448 C 7.501,53.208 10.366,48.237 16.377,46.242 C 19.712,45.133 22.736,45.369 24.627,45.708 C 23.931,47.923 23.823,50.217 24.414,51.909 C 25.123,53.945 26.862,55.071 29.381,54.157 C 32.214,53.138 32.458,48.136 29.213,46.067 C 28.348,45.515 27.439,45.077 26.498,44.742 C 27.357,42.821 28.731,41.096 30.56,40.092 C 36.636,36.986 42.377,41.445 49.609,42.703 C 53.713,43.419 57.223,43.175 60.69,41.595 C 68.895,37.858 70.9,27.003 71.38,23.811 C 71.641,23.123 71.86,22.41 72.031,21.676 C 72.295,20.552 72.439,19.438 72.469,18.327 C 72.473,18.193 72.476,18.05 72.473,17.905 C 72.475,17.894 72.469,17.874 72.474,17.856 C 72.467,17.759 72.471,17.664 72.465,17.565 C 72.466,17.518 72.467,17.47 72.459,17.42 C 72.449,17.061 72.4,16.692 72.358,16.336 C 71.454,21.964 68.489,26.888 63.958,30.183 Z M 41.735,9.77 C 41.603,10.001 41.488,10.243 41.357,10.473 C 41.22,10.73 41.084,10.988 40.955,11.245 C 40.878,11.41 40.817,11.59 40.737,11.763 C 40.604,12.089 40.461,12.412 40.344,12.742 C 40.285,12.911 40.243,13.093 40.193,13.265 C 40.085,13.606 39.966,13.944 39.886,14.292 C 39.85,14.447 39.831,14.607 39.793,14.771 C 39.69,15.248 39.604,15.739 39.549,16.226 C 40.385,14.957 41.421,13.745 42.622,12.484 C 42.247,11.577 41.961,10.654 41.788,9.706 C 41.773,9.732 41.747,9.756 41.735,9.77 Z M 39.447,19.287 C 39.458,19.367 39.469,19.447 39.47,19.524 C 39.51,19.966 39.551,20.41 39.622,20.852 C 39.654,21.08 39.708,21.305 39.75,21.536 C 39.813,21.841 39.877,22.144 39.959,22.453 C 40.023,22.718 40.106,22.979 40.192,23.231 C 40.279,23.51 40.371,23.783 40.47,24.057 C 40.567,24.301 40.664,24.545 40.771,24.791 C 40.896,25.081 41.029,25.372 41.174,25.657 C 41.219,25.755 41.277,25.845 41.323,25.934 C 41.436,22.403 42.821,18.709 44.829,16.519 C 44.236,15.668 43.701,14.791 43.251,13.875 C 41.554,15.685 40.25,17.383 39.447,19.287 Z M 42.875,28.359 C 42.932,28.44 42.999,28.522 43.069,28.598 C 43.936,29.629 44.924,30.554 46.028,31.352 C 45.051,27.539 45.797,22.789 47.126,19.832 C 47.184,19.711 47.264,19.615 47.368,19.544 C 46.774,18.951 46.219,18.32 45.69,17.654 C 43.519,20.174 42.243,24.721 42.875,28.359 Z M 47.138,25.299 C 47.294,25.086 47.545,24.961 47.816,24.996 C 49.747,25.265 51.767,24.958 53.721,24.142 C 51.898,23.283 50.06,22.043 48.375,20.512 C 47.797,21.821 47.353,23.52 47.138,25.299 Z M 46.06,31.505 L 46.062,31.495 C 45.932,31.397 45.802,31.291 45.673,31.183 C 45.802,31.291 45.932,31.397 46.06,31.505 Z M 25.999,46.065 L 26.165,46.118 C 26.961,46.412 27.727,46.788 28.457,47.252 C 30.837,48.769 30.497,52.261 28.903,52.834 C 27.159,53.466 26.209,52.782 25.742,51.447 C 25.292,50.153 25.334,48.24 25.928,46.273 L 25.999,46.065 Z" stroke="none" fill="#000000" stroke-width="0.469" marker-start="none" marker-end="none" stroke-miterlimit="79.8403193612775"/>
   </g>
  </g>
 </g>
</svg>
