<?xml version="1.0" encoding="utf-8"?>
<!-- Generator: Adobe Illustrator 21.1.0, SVG Export Plug-In . SVG Version: 6.00 Build 0)  -->
<svg version="1.1" xmlns="http://www.w3.org/2000/svg" xmlns:xlink="http://www.w3.org/1999/xlink" x="0px" y="0px"
	 viewBox="0 0 600 600" style="enable-background:new 0 0 600 600;" xml:space="preserve">
<style type="text/css">
	.st0{fill-rule:evenodd;clip-rule:evenodd;}
</style>
<g id="Layer_1">
</g>
<g id="Imported_Layer_1">
</g>
<g id="Layer_4">
	<g>
		<path class="st0" d="M204.1,228.9c4.3,2.2,6.6-0.2,6.9-3.5c0,0,0.1,0.1,0.1,0.1c1.6,0.4,2.8,2.8,4.1,4.6c1.3,1.7,3,4.7,5.4,5.8
			c1.9,0.9,3.5,0.6,4.3-0.9c0.6-1.2,0.5-3.1,0.2-4.9c-0.4-2.2-1.1-4.7-1.9-6.6c0.2,0.1,0.4,0.3,0.6,0.4c3.5,2.4,9.6,7.2,14.7,6.5
			c4.7-0.6,3.5-5.2,1.7-9.1c-0.9-2-2.2-4.1-3.3-5.8c1,0.5,2.2,0.9,3.2,1.2c2.2,0.5,5.4,0.4,5.1-3.1c-0.7-7.6-13-9.6-17.2-10.6
			c-0.1,0-0.2,0-0.3,0c-0.7-0.8-1.5-1.6-2.3-2.3c2.8,0.5,6.1,0.1,8.1-2.4c3.1-3.9-1.4-7.5-3.9-8.6c-7.6-3.5-16.5-2-24.1-1.3
			c-2.4-2-7.8-1.9-9.7-2.1c-4.2-0.6-8.5-0.6-12.7-0.4c-7.8,0.4-15.8,1.8-23.1,4.6c-12.5,4.8-22.4,14.8-28.1,26.8
			c-6.2,13.2-5.5,26.9-1.6,40.5c3.7,13.3,13.4,25.3,24.7,33c3.9,2.7,10.8,6.9,16.4,5.9c4-0.7,2.8-4.5,0.5-6.2
			c-2.6-2-5.7-3.7-8.3-5.4c1.2-0.7,2.2-1.6,3.1-2.6c0,0,0,0,0,0c2.2,1.5,4.6,2.8,6.9,4c2,1,6.5,3.6,9.5,2.4c2.7-1.1,2.2-3.3,1.1-4.9
			c-1-1.5-2.7-3-3.5-3.6c-4.1-3.3-8.5-5.1-11.9-8.7c1-1.3,1.7-2.8,2.2-4.3c1-3.3,1.9-10.6-3.4-12.3c-0.6-0.2-1.2,0.3-1.1,0.9
			c0.5,2.9-0.8,6.9-3,9.6c0-0.2-0.1-0.3-0.2-0.5c-3.9-4.1-4.1-10.5-3.9-16.2c0.2-7.2,1.3-14.3,4.3-20.8c2.7-6,6.9-11.6,12.6-14.9
			c3-1.8,6.4-2.6,9.9-3.3c3.5-0.6,6.9-1.6,9.8-0.3c0.3,0.1,0.5,0.1,0.8-0.1C195.5,216.7,197.2,225.4,204.1,228.9z M220.5,221.9
			c0.8,0.8,2.4,4.8,3,8.4c0.3,1.8,0.3,3.2-0.1,3.9c-0.2,0.4-0.6,0.8-2.1,0.2c-1.9-0.9-3.3-3.3-4.8-5.3c-0.9-1.2-2.7-4.6-5.1-5.2
			c-0.2,0-0.4,0-0.6,0.1c-0.1-0.5-0.1-1-0.3-1.5c-1.2-4.4-3.5-7.7-4.8-11.4c2.8-0.1,5.4,2.9,8,5c2.1,1.7,4.3,3.5,6.5,5.2
			C220.3,221.4,220.3,221.7,220.5,221.9z M243.6,213.7c0.1,1.5-0.8,1.9-3,1.3c-2.2-0.5-4.6-1.8-5.4-2.5c-0.1-0.1-0.2-0.1-0.3-0.2
			c0,0-0.1-0.1-0.1-0.1c-1.6-2.5-3.3-4.9-5.2-7.2C235.2,206.3,243.1,208.2,243.6,213.7z M196.7,208c-3.5-1.6-7.7-0.4-10.8,0.2
			c-3.6,0.6-7.2,1.5-10.5,3.5c-6,3.6-10.4,9.4-13.3,15.6c-3.1,6.8-4.2,14.1-4.5,21.5c-0.2,5.6-0.1,12.8,4.4,17.4
			c0.2,0.2,0.3,0.2,0.5,0.2c-1.9,1.9-4.4,2.9-6.9,1.9c-0.4-0.2-0.9,0-1.1,0.5c-0.2,0.4,0,0.9,0.5,1.1c7.1,2.8,12.6-5.5,13.1-11.8
			l0-1l0,0c2.3,1.9,2.1,6.4,1.1,9.6c-1.4,4.9-6.2,8.8-11.3,7.7c-0.5-0.1-0.9,0.2-1,0.6c-0.1,0.4,0.2,0.9,0.6,1
			c3.8,0.8,7.4-0.7,9.9-3.3c3.4,3.6,8.3,6,11.9,8.8c0.8,0.6,2.3,1.9,3.1,3.2c0.8,1.3,0.8,2-0.4,2.4c-2.2,0.8-5.7-1.1-8.1-2.4
			c-2.3-1.1-4.5-2.4-6.6-3.8c0.5-0.6,0.9-1.3,1.2-2c0.2-0.4,0-0.9-0.4-1.1c-0.4-0.2-0.9,0-1.1,0.4c-1.8,3.6-5.3,6.2-9.2,6.9
			c-0.5,0.1-0.8,0.5-0.7,0.9c0.1,0.5,0.5,0.8,1,0.7c1.2-0.2,2.4-0.6,3.5-1.1c0.1,0.1,0.1,0.2,0.3,0.3c3,1.9,6,3.5,8.7,5.6
			c1.2,0.9,2.4,2.8,0.2,3.2c-4.8,0.9-11.1-2.8-15.2-5.6c-11-7.5-20.4-19.2-24-32.1c-3.7-13.3-4.4-26.6,1.6-39.3
			c5.5-11.7,15.1-21.3,27.2-25.9c7.2-2.7,15-4.1,22.6-4.5c4.2-0.2,8.3-0.1,12.4,0.4c2.9,0.4,7.5,0.2,9.1,1.9c0,0,0,0,0,0
			c0,0,0,0,0,0c0.3,0.3,0.8,0.4,1.2,0.1c0,0,0,0,0,0c7.8-0.7,16-2,23,1.1c2.8,1.3,5.1,3.8,3.3,6.1c-1.9,2.4-6.1,2.3-9,1
			c-0.1-0.1-0.3-0.1-0.4,0c-1-0.9-2.1-1.7-3.2-2.5c-2.2-1.5-4.1-2.1-5.7-3.7c-0.3-0.3-0.9-0.3-1.2,0c-0.3,0.3-0.3,0.9,0,1.2
			c1.7,1.6,4.3,2.8,5.9,3.9c1.9,1.3,3.6,2.9,5.4,4.5c3.7,3.4,6.7,7.3,9.4,11.5c2.2,3.4,4.5,7.1,5.8,10c-2.1-0.5-5.1,2.3-4.9,5
			c-3.3-1.2-6.8-3.8-9.5-5.6c-3.4-2.4-6.6-5.1-9.8-7.7c-2.1-1.6-5.7-5.8-9.5-5.3c-0.3-1.2-0.5-2.4-0.5-3.8c0-0.5-0.4-0.8-0.8-0.8
			c-0.5,0-0.8,0.4-0.8,0.8c0.1,6.4,4.4,11.9,5.9,17.2c1.2,4.1-0.6,6.4-4.2,4.6c-7.4-3.8-8.2-15.1-5.1-22.3c0.2-0.4,0-0.9-0.4-1.1
			c-0.4-0.2-0.9,0-1.1,0.4c-0.5,1.2-0.9,2.5-1.2,3.8C196.9,208.2,196.8,208.1,196.7,208z"/>
		<path class="st0" d="M214.2,212.8c2.5,0.7,5.7-1,3.9-4.3c-0.2-0.4-0.7-0.5-1.1-0.3c-0.4,0.2-0.5,0.7-0.3,1.1
			c0.8,1.3-0.3,2.3-2,1.8c-0.4-0.1-0.9,0.1-1,0.6C213.5,212.2,213.8,212.7,214.2,212.8z"/>
		<path class="st0" d="M225.4,204.1c0-0.4-0.3-0.8-0.8-0.8c-0.5,0-0.8,0.3-0.8,0.8c0,1.2-1.5,1.8-2.2,1.1c-0.3-0.3-0.9-0.3-1.2,0
			c-0.3,0.3-0.3,0.9,0,1.2C222.5,208.4,225.4,206.3,225.4,204.1z"/>
		<path class="st0" d="M90.5,131.2c-0.4-0.1-0.9,0.1-1,0.6c-0.1,0.4,0.2,0.9,0.6,1c1.6,0.4,2.5,2.4,1.7,3.4
			c-0.3,0.4-0.2,0.9,0.2,1.2c0.4,0.3,0.9,0.2,1.2-0.2C95,134.8,92.7,131.8,90.5,131.2z"/>
		<path class="st0" d="M110.7,112.1c-2.9,4.4-1.1,10.4,1.1,14.3c0,0,0,0,0.1,0.1c-2.3,1.9-4.7,3.8-7,5.7c-6.1-7.5-8.3-16.6-13.7-25
			c-2.3-3.6-5.3-7.7-9.6-9.7c-4.1-1.9-10.7,0.4-8.2,6.2c0.3,0.6,0.6,1.2,0.9,1.8c0,0.1,0.1,0.1,0.1,0.2c0.7,1.2,1.5,2.3,2,3.2
			c1.2,2.3,2.1,4.8,2.8,7.3c1.5,5,2.3,10.2,3,15.5c0.6,4.1,0.6,9.6,2.8,13.7c2.1,4,6.1,4.1,9.5,4.6c0.1,0.1,0.1,0.2,0.2,0.2
			c0.2,0.1,0.4,0.2,0.6,0.3h0.1l0.5,0.2c0.8,0.6,1.5,1.6,2.7,2.5c1.8,1.4,3.9,2.7,5.8,3.8c4.2,2.5,8.6,4.6,13.2,6.2
			c4.9,1.7,10,2.8,15.2,3.1c2.8,0.1,6.6,0.1,9.2-2c3-2.5,2-6.7-0.2-9c-2.3-2.4-5.7-3.4-8.6-4.1c3.8-1.5,8.2-1.8,12.5-2.4
			c5.3-0.8,10.7-1.1,16.1-1.5c9.4-0.7,18.4-1.6,27.7-0.3c7.8,1.1,13.9,4.8,21.7,7.1c4.2,1.2,8.7,1.9,13.1,1.1
			c0.4-0.1,6.5-0.6,6.6-3.7c0.1-4.7-9-1.9-10.2-2c-2-0.1-3.9-0.6-5.8-1.3l-5-2.2l0.8-1.8c2.1-6.1,1.4-13-3.5-17.9
			c0-0.1-0.1-0.1-0.1-0.2c-1.3-1.3-2-3.5-1.6-5.3c0.4-1.8,1.8-2.6,3.6-3.9c1.6-1.2,4.3-3.5,2.2-6.4c-1.1-1.5-4.1-3.1-6.2-2.2
			c-1.6-1.6-4.7-1.9-6.2-1.7c-4.3,0.8-7.9,5.8-9.7,9c-0.9,1.6-1.2,2.9-1.1,4.2c-8.5-4.1-17.9-6.7-27.4-6.8c-9.9-0.1-19.7,2-29.2,4.1
			c0.7-1.2,1.5-2.5,2.1-3.6c2.1-3.8,1.2-8.5-4.5-7.9c-2.5,0.3-5,1.3-7,3C118.2,105.1,112.6,109.2,110.7,112.1z M112.1,113
			c1.9-2.8,6.2-5.3,8.7-3.3c-1.4,1.5-2.3,3.3-2.7,5.4c-0.3,2.1-0.1,4.1,0.5,6c0,0,0,0,0,0c-1.8,1.4-3.6,2.8-5.5,4.2
			C111.1,121.6,109.8,116.5,112.1,113z M75.4,104c0.1,0,0.2,0,0.2,0c0,0,0,0,0,0c-0.1,0-0.1,0-0.2,0.1C75.5,104,75.4,104,75.4,104z
			 M209.7,111.5c1.1,1.5,0.1,2.7-1.8,4.1c-1.6,1.1-3.6,2.3-4.2,4.9c-0.2,0.9-0.2,1.9,0,2.9c-1.9-1.7-3.5-3.3-3.6-5.8
			c0-1.9,0.8-2.6,2.6-3.6c0.9-0.4,3-1.1,3.1-3.2c0-0.3,0-0.6-0.1-0.9C206.8,109.5,208.9,110.4,209.7,111.5z M129.1,107.2
			c3.9-0.4,4.7,2.2,2.9,5.5c-2.4,4.3-5.4,8.3-1.8,11c0.4,0.3,0.9,0.2,1.2-0.2c0.3-0.4,0.2-0.9-0.2-1.2c-1.1-0.8-1.2-2-0.7-3.3
			c9.9-2.2,19.9-4.4,30-4.3c9.5,0.1,18.8,2.8,27.3,6.9c0.2,0.1,0.4,0.1,0.6,0c0.6,1.7,1.6,3.2,2.4,4.8c1.3,2.8-4.5,5.4-1.4,9.8
			c0.3,0.4,0.8,0.5,1.2,0.2c0.4-0.3,0.5-0.8,0.2-1.1c-2.6-3.6,3.6-5.4,1.6-9.6c-1.9-3.9-3.9-5.6-1.8-9.2c1.8-3.2,5.1-7.5,8.6-8.2
			c1.9-0.3,5.2,0.7,5.1,2.4c0,0.9-0.7,1.1-2.1,1.8c-2,1-3.6,2.2-3.5,5.1c0.1,4.7,5,7.5,7.4,9.9c5.1,5,5.3,12.4,2.2,18.6
			c-0.2,0.4,0,0.9,0.4,1.1c3.7,1.6,7.7,3.9,12.2,4c0.8,0,3.4-0.6,5.4-0.7c2.5-0.2,3.2,0.2,3.2,1c0,1.2-2.7,1.7-5.2,2.1
			c-4.1,0.7-8.3,0.1-12.4-1.1c-7.2-2.1-14.1-6-21.9-7.2c-9.5-1.4-18.7-0.4-28,0.3c-5.4,0.4-10.8,0.7-16.2,1.5
			c-4.7,0.7-10.1,1-14.7,3.4c-0.1,0-0.2,0.1-0.2,0.2c-7.8-1.2-15.6,0-22.2-3.8c-0.4-0.2-0.9-0.1-1.1,0.3c-0.2,0.4-0.1,0.9,0.3,1.1
			c7.4,4.3,17.3,2.7,24.7,4.4c3.1,0.7,6.4,1.6,8.4,3.7c1.9,2,2.3,4.9,0.3,6.5c-2,1.7-5.2,1.8-8,1.6c-5-0.2-10-1.3-14.7-3
			c-4.5-1.5-8.8-3.6-12.9-6c-2-1.2-3.9-2.3-5.6-3.7c-0.6-0.5-1.6-1.7-2.8-2.6c0-0.4-0.3-0.7-0.6-0.8c-4.3-0.9-7.7-0.4-9.7-4
			c-2-3.8-2-8.6-2.6-13.2c-0.8-5.2-1.6-10.6-3.1-15.7c-0.8-2.6-1.7-5.2-3-7.6c-0.5-1-1-1.8-1.6-2.6c2.6-1.1,4.5-3.6,4.9-6.3
			c3.6,1.8,6.2,5.4,8.5,8.9c0.1,0.1,0.2,0.3,0.3,0.4c0,0.1,0,0.1,0,0.2c0.4,2.3-0.7,4.8-2.6,6.2c-0.4,0.3-0.5,0.8-0.2,1.2
			c0.3,0.4,0.8,0.5,1.2,0.2c1.7-1.2,2.8-3.1,3.2-5.1c4,7.4,7,16.2,12.6,22.8c0.3,0.3,0.8,0.4,1.2,0.1c4.6-3.8,9.3-7.6,13.9-11.1
			c1.1,3,3,5.7,4.7,8c0.3,0.4,0.8,0.4,1.2,0.2c0.4-0.3,0.4-0.8,0.2-1.2c-3.2-4.2-6.2-9.3-5.4-14.4
			C120.5,111,124.7,107.7,129.1,107.2z"/>
		<path class="st0" d="M417.1,234.1c4,0.4,2.8-5.3-0.7-4.3c-1.1,0.3-2,1.7-1.5,2.9C415.2,233.7,416.1,233.9,417.1,234.1z"/>
		<path class="st0" d="M396.2,341.8c5.5,1.4,11.3,2.8,17.2,2c7.8,1.8,17.1,2.4,24.8-0.2c3.4-1.1,5.9-4.2,1.8-7
			c-2.3-1.6-5.4-2.1-8.2-1.6l-1.1,0.3l0.2-0.5c0.6-3-0.1-6.2-1.5-9.1c1.5-9.7,1.6-19.7,1.7-29.4c0-7.3,0-14.5-0.3-21.8
			c0.1,0,0.2-0.1,0.3-0.2c1.3-1.5,3.2-3.4,4.5-3c1.2,0.4,2,1.8,4.2,1.7c4-0.3,6.3-5.3,4-8.5c0,0-0.1-0.1-0.1-0.1
			c0.4-0.6,0.6-1.3,0.8-2c0.7-4.7-4.6-7.1-7.8-7.4c-2.2-0.3-4.4,0.1-6.5,0.8c-0.2-2.4-0.3-4.8-0.5-7.2c-0.2-2.2-0.7-4.4-0.3-6.1
			c0.6-2.5,3.6-4.2,6.1-6.1c0,0,0.1,0,0.1,0c0.2-0.1,0.4-0.3,0.5-0.5c0.1-0.1,0.3-0.2,0.4-0.3c3.2-2.8,6.2-6,8-10
			c1.3-2.8,4-10.9-1.6-12.8c-4.1-1.3-8.7,5.3-11.1,6.9c-4,2.7-8.6,4.5-13.4,5.4c-3.4,0.6-9-0.7-12.2,1.8c-3.2,2.4-3.1,7.7-3.2,10.7
			c0,0.1,0,0.2,0.1,0.3c-1.2,8.4-1.6,17.2-4.3,25c-1.3,3.7-6.7,11.3-3.2,16.3c1.6,2.3,3.8,2.7,5.9,2.1c0,13.1-0.3,26.2-4.3,38.7
			c-2.6,8.3-8.1,16.9-17.6,15.2c-3.6-0.7-5.3-2.8-6.3-6.4c-0.4-1.5-0.3-4.2-1.1-5.8c-0.2-0.4-0.5-0.8-0.9-1
			c-0.3-0.2-0.7-0.2-1.1-0.2c-1,0.2-1.8,1.3-2.2,2c-3.1,4.9-1.1,11.6,2.7,15.2c3.3,3.1,7.8,4.3,12.1,4.1
			C387.9,343,391.6,340.6,396.2,341.8z M439.7,271.4c-1.5,0.1-1.5-0.9-3.6-1.6c-2-0.6-4,1.1-5.3,2.4c-0.1-1.9-0.1-3.8-0.2-5.8
			c0,0,0,0,0-0.1c1.3-1.2,2.7-2.1,4.2-2.2c1.7-0.1,2.1,1.7,4.4,2.2c1.3,0.3,2.4-0.1,3.3-0.7C443.9,267.9,442.3,271.2,439.7,271.4z
			 M382.8,341.5c-4,0.1-8.1-1-10.9-3.7c-3.4-3.3-5-9.1-2.4-13.1c0.3-0.4,0.5-0.7,0.7-1l0.4-0.3l0,0c0,0,0.1,0.1,0.2,0.3
			c0.7,1.3,0.5,3.5,1,5.5c1.1,3.9,3.2,6.7,7.5,7.6c11,2,16.8-8,19.4-16.3c4.1-13,4.4-26.6,4.3-39.9c0.8-0.5,1.6-1.1,2.2-1.7
			c2.8-3,3.6-7.3,4.2-10.9c1.4-9.2,1.3-18.8,0.2-28c0-0.5-0.5-0.8-0.9-0.7c-0.5,0-0.8,0.5-0.7,0.9c1.1,9.1,1.1,18.5-0.2,27.6
			c-0.5,3.7-1.4,7.4-3.8,10c-2.2,2.4-5.3,3-7.1,0.5c-2.9-4.1,1.7-9.9,3.4-14.8c2.8-8.1,3.3-17.2,4.4-25.4c0-0.1,0-0.3-0.1-0.4
			c0.1-3.3,0.1-7.5,2.5-9.4c2.7-2.1,7.6-0.7,11.5-1.4c5-1,9.8-2.9,14-5.7c1.1-0.8,2.6-2.3,4.1-3.8c0.1,0.1,0.1,0.1,0.2,0.2l0.1,0
			c0.7,0.3,5.2,1.4,7.4,0.6c0.1,2.2-0.7,4.9-1.6,6.8c-1.7,3.7-4.5,6.7-7.6,9.4c-0.2,0.2-0.5,0.4-0.7,0.6c-1.8,0.4-3.9,0-5.4-1.2
			c-0.4-0.3-0.9-0.2-1.2,0.1c-0.3,0.3-0.2,0.9,0.1,1.2c1.1,0.9,2.6,1.5,4,1.7c-2,1.5-4,3.3-4.5,5.5c-0.5,2.1,0.1,4.9,0.3,6.7
			c0.2,2.5,0.3,5.2,0.5,7.7c-2,0.9-3.8,2.2-5.3,3.6c-0.3,0.3-0.3,0.8,0,1.2c0.3,0.3,0.9,0.3,1.2,0c3.2-3,7.8-5.1,12.1-4.6
			c3.2,0.4,6.8,2.5,6.4,5.5c-0.3,1.7-1.7,2.9-3.2,2.6c-1.3-0.3-2.6-2.5-4.9-2.3c-4.7,0.4-8.5,6.2-10,9.6c-0.2,0.4,0,0.9,0.4,1.1
			c0.4,0.2,0.9,0,1.1-0.4c0.7-1.4,1.7-3.1,2.9-4.6c0.3,9.4,0.5,18.8,0.5,28.2c-0.1,9-0.1,18.2-1.3,27.1c-0.6-0.8-1.2-1.6-1.8-2.3
			c-4.4-4.7-11.4-4.9-16.9-3c-0.4,0.1-0.7,0.6-0.5,1.1c0.1,0.4,0.6,0.7,1.1,0.5c5.2-1.8,11.3-1.5,15.1,2.5c3.3,3.5,5.6,9.5,3.6,13.8
			c-0.3,0.7,0.4,1.4,1.1,1.1c2.9-1.2,6.7-1.1,9.2,0.7c2.8,1.9,0.6,3.4-1.4,4.1c-7.1,2.4-15.9,1.9-23.5,0.2c-0.2-0.1-0.4-0.2-0.6-0.2
			c0,0-0.1,0-0.1,0c-0.5-0.1-1.1-0.3-1.6-0.4c-0.5-0.1-0.9,0.1-1,0.6c0,0,0,0,0,0c-4.8,0.2-9.5-0.9-14.3-2.2
			C391.5,338.9,387.2,341.3,382.8,341.5z"/>
		<path class="st0" d="M422.9,129.7c-0.1,0.1-0.3,0.2-0.3,0.3c-14.2,7.9-26.1,22.4-32.2,38.7c-2.5,0-5,0.4-7.4,1.9
			c-1.8,1.1-5.8,4.8-3.2,8.9c1.8,2.9,5.9,4,8.1,4.7c4,1.4,8.1,2.2,12.2,2.7c4.1,0.5,8.3,0.5,12.4,0c2-0.3,4.3-0.5,6.5-1.1
			c0,0,0,0,0,0c0,0,0,0,0.1,0c1.5-0.4,3.1-0.9,4.5-1.7c2.5-1.4,6.3-6,2.7-10.1c-1.4-1.6-3.3-2.2-5.2-2.5c0.5-1.5,1-3,1.7-4.5
			c2.1-4.3,5.8-10.4,10.3-11.5c4.6-1.1,7.9,2.9,9.6,7.2c0.8,2.1,1.4,5.2,3.4,7.1c1.4,1.3,4.8,3.5,7.3,1.6c2.7-2-0.7-5.7-0.9-7.1
			c-0.4-2.4-0.3-5.3-1-8c-0.4-1.6-1.1-3.2-2.1-4.6c-0.9-1.2-1.7-1.6-2-2.7c-0.4-1.1-0.1-2.3-0.2-4c-0.1-1.7-0.4-3.5-0.7-5.1
			c-1.3-5.7-4.2-11.4-9.2-14.9c-2.5-1.7-3.5-3-4-6c-0.4-2.5-0.8-4.9-1.8-7.4c-2-4.5-6-8.6-11.5-8.2c-3.2,0.3-9.5,2.4-8.2,7.6
			c0.2,0.6,0.8,0.8,1.3,0.5C422.2,104.8,432.3,125,422.9,129.7z M426.2,176.3c-0.1-0.2-0.2-0.3-0.3-0.5c0-0.1-0.1-0.1-0.2-0.2
			C426,175.9,426.1,176.1,426.2,176.3z M414.1,109.1l-0.9,0.5c0.3-2.6,3.8-4.1,6.8-4.4c4.6-0.4,8,3,9.9,7.2c1,2.2,1.3,4.4,1.7,6.9
			c0.6,3.5,1.9,5.2,4.7,7.1c4.6,3.2,7.3,8.4,8.6,13.9c0.4,1.6,0.6,3.2,0.7,4.9c0.1,1-0.2,3,0.3,4.4c0.5,1.3,1.8,2.4,2.3,3.1
			c0.9,1.2,1.5,2.6,1.9,4.1c0.7,2.6,0.6,4.9,1,7.8c0.3,2.2,2.9,4.5,1.5,5.5c-1.3,1-3.7-0.1-5.1-1.5c-1.7-1.6-2.1-4-3.1-6.6
			c-1.6-4.3-5.5-9.7-11.5-8.2c-5.4,1.3-9.3,8.3-11.4,12.4c-1,2.1-1.8,4.2-2.3,6.4c0,0,0,0,0,0c0,0.1,0,0.2-0.1,0.3c0,0,0,0,0,0
			c-0.9,3.7-1.1,7.5-0.9,11.3c-1.9,0.4-3.8,0.7-5.7,0.9c-4.1,0.5-8.2,0.5-12.2,0c-3.9-0.5-7.9-1.2-11.8-2.5
			c3.3-21.4,17.7-41.8,35.5-51.5c0.1-0.1,0.2-0.2,0.3-0.3C434.2,124.9,424.3,105.1,414.1,109.1z"/>
		<path class="st0" d="M353.5,420.3c-1.5,1.3-3.4,1-3.7-0.4c-0.1-0.4-0.5-0.7-1-0.6c-0.5,0.1-0.7,0.5-0.7,1c0.8,3.7,4.9,2.7,6.5,1.3
			c0.3-0.3,0.4-0.8,0.1-1.2C354.4,420,353.9,420,353.5,420.3z"/>
		<path class="st0" d="M383.4,410.4c1.9-8,1.7-15.6-1.8-23.2c-5.7-12.6-16.1-22.8-29-27.9c-14.3-5.6-31.7-5.7-45.5,1.5
			c-12.8,6.7-23.6,18.3-25.5,33.2c-1.9,14.8,4.9,33.2,18.7,40.9c-0.2,0.3-0.3,0.6-0.1,1c4.1,7,11.8,12.5,20,13.3
			c1.7,0.2,4.3,0.2,5.7-1.8c1.3-1.8,0.6-4.2-1.1-5.4c-1.9-1.3-4.3-0.3-5.6-0.9c-1.4-0.6-2.8-2.1-3.2-3.5c2.6-0.6,5.1-1.9,7.2-4
			c0.2-0.2,0.2-0.4,0.2-0.6c2.6,0.9,5.4,1.5,8.2,1.8c-1.6,3.4,3.7,6.8,6.6,7.4c0,0.1,0,0.3,0.1,0.4c0.9,3.5,5.2,5.2,8.2,3.1
			c1.8-1.3,1.7-3.4,2.2-4.3c0.4-1,1-1,2.7-1.3c3.9-0.6,8-1.8,11.2-4.4c0,1,0,2.1,0,3.2c0,2.9-0.2,7.2,2.6,9.8
			c2.9,2.7,7.2,1.5,9.5-0.9c4.4-4.7,2.8-12.5,1.4-17.5c-0.4-1.4-0.9-2.8-1.5-4.2C380.2,422.6,382.1,415.8,383.4,410.4z M333.6,434.9
			c2.7,0.2,5.4,0.1,8-0.2c-1.7,1.5-3.1,3.5-3.3,5.8C335.7,439.8,332,436.9,333.6,434.9z M374,424.3c-2.3-4.9-5.5-9.4-9.7-12.9
			c-0.4-0.3-0.9-0.2-1.2,0.1c-0.3,0.3-0.3,0.9,0.1,1.2c5.5,4.6,9.4,10.9,11.3,17.8c1.5,5.2,2.7,12-1,15.9c-2,2.1-5.2,2.7-7.2,0.9
			c-2.1-2-2-5.4-2.1-8.6c-0.1-4.2,0.1-8.6-0.3-13c-0.3-3.1-1.1-6.9-4.4-8.7c-0.4-0.2-0.9-0.1-1.1,0.3c-0.2,0.4-0.1,0.9,0.3,1.1
			c2.5,1.4,3.3,4.4,3.6,7.4c0.2,2.7,0.3,5.3,0.3,8c-0.3-0.1-0.5,0-0.7,0.2c-2.9,2.5-6.9,3.7-10.7,4.3c-1.3,0.2-3.1,0.2-3.9,2.2
			c-0.9,2.2-0.2,2.6-1.6,3.6c-2,1.4-5,0.3-5.7-2.1c0-0.1-0.1-0.3-0.1-0.4c0-0.1,0.1-0.2,0.1-0.3c0-0.1-0.1-0.3-0.1-0.4
			c0-2.4,2.1-4.9,4.3-6.2c0.2-0.1,0.4-0.4,0.4-0.6c0.9-0.2,1.7-0.4,2.5-0.6c0.1,0,0.2,0,0.3,0c4.2-1.2,8.4-2.6,12.4-4.4
			c0.4-0.2,0.6-0.7,0.4-1.1s-0.7-0.6-1.1-0.4c-3.8,1.6-7.8,3-11.8,4.2c-0.1,0-0.2,0-0.3,0c-9.1,2.7-22.7,2.1-30.4-4.5
			c1.7-1,2.8-4.7,3.1-6.5c1.7,0.2,3.5,0.3,5.3,0.3c3.8,0,7.5-0.4,11.2-0.8c2.9-0.3,6.5-0.5,9.2-2.6c0.2-0.2,0.3-0.4,0.3-0.6
			c0.1-0.1,0.2-0.3,0.2-0.4c0.7-5.5,6.5-11.9,12-11.2c0.5,0,0.9-0.3,0.9-0.7c0-0.4-0.3-0.9-0.7-0.9c-6.8-0.8-13.1,6.7-13.9,12.7
			c0,0,0,0,0,0c-0.8,0.6-1.8,1-2.7,1.3c-2.1-7.9,6.6-14.4,4.5-23.3c-1.6-6.5-7.4-10.5-13.6-11.5c-5.8-0.9-12.3,0.7-17,4.4
			c-6,4.6-6.1,11.7-2.2,17.7c0.2,0.3,0.6,0.4,0.9,0.3c0.1,0.2,0.2,0.3,0.4,0.4c6.6,3,13.3,7.2,16.2,13.4c-1.7,0.1-3.4,0.3-5.2,0.3
			c0.5-3.3-1.7-5.3-3.6-7.3c-0.3-0.3-0.9-0.3-1.2,0c-0.3,0.3-0.3,0.8,0,1.2c2.1,2.2,3.6,3.6,3.1,6.1c-3.3-0.1-6.5-0.4-9.7-1.3
			c-1.6-0.4-3.2-0.4-3.8,1c-0.5,1.1,0,2.6,0.6,3.9c2.3,4.5,6.2,7.5,10.8,9.4c-2.4,2.4-5.5,3.6-8.8,3.9c-0.5,0-0.8,0.4-0.8,0.9
			c0,0.5,0.4,0.8,0.9,0.7c0.3,0,0.7-0.1,1-0.1c0.5,2.1,2.4,4,4.1,4.7c2.4,1.1,3.9-0.2,5.3,0.8c1.1,0.7,1.4,2.1,0.7,3.1
			c-0.8,1.2-2.4,1.3-4.1,1.1c-7.3-0.8-14.2-5.5-18.2-11.7c0.5,0.2,1,0.5,1.6,0.7c0.4,0.2,0.9,0,1.1-0.5c0.2-0.4,0-0.9-0.5-1.1
			c-15.2-6-23.1-25.2-21.1-40.7c1.8-14.2,12.1-25.4,24.6-32c13.3-7,30.2-7,44.1-1.5c12.5,4.9,22.6,14.8,28.1,27
			c3.2,7.2,3.5,14.4,1.7,22.1C380.5,415.5,378.7,421.4,374,424.3z M316.1,425.7c-0.2,0.2-0.3,0.2-0.5,0.2
			C315.8,425.9,316,425.8,316.1,425.7z M332.7,419.1c-3.1-7.1-10.5-11.7-17.3-14.7c-0.2-0.1-0.4-0.1-0.6,0c0,0,0-0.1,0-0.1
			c-3.5-5.4-3.3-11.5,1.8-15.4c4.3-3.3,10.4-4.8,15.8-4c5.8,0.9,10.9,4.5,12.2,10.2c1.9,7.8-6.6,14.9-4.5,23.3
			c-1.3,0.2-2.6,0.4-3.9,0.5C334.9,418.8,333.8,418.9,332.7,419.1C332.7,419.1,332.7,419.1,332.7,419.1z"/>
		<path class="st0" d="M418.5,546.3c0.2,0.1,0.5,0.1,0.7,0l-0.2,0c1.7,0.1,1.9-2,0.8-2.8C417.6,541.6,415.8,545.6,418.5,546.3z"/>
		<path class="st0" d="M447.9,569c-0.3-4.6-2.1-9.6-3.4-13.8c0,0,0,0,0-0.1c-0.1-0.3-0.2-0.7-0.4-1c-0.1-0.1-0.1-0.2-0.2-0.3
			c0-0.1-0.1-0.2-0.1-0.3c-4.2-5.6-10.2-8.2-12.1-14.6c0-0.1-0.1-0.2-0.1-0.3c-0.7-4-1.9-8.5-5-11.4c-4.1-3.9-10.4-2.4-14.6-0.8
			c0,0,0,0-0.1,0c-8.4-4.5-15.8-10.1-22.3-17c-10.4-11.1-20.9-24.7-37.7-26.3c-2.2-0.2-4.4-0.3-6.6-0.2c-1,0-2,0.1-3,0.3
			c-0.7,0.1-0.9,0.2-1.3,0.2l-0.5,0l-0.4-0.3c-1.3-1.2-1.4-2.4-3-4.2c-1-1.2-2.2-2.3-3.6-3.2c-3-2-6.9-2.4-9.8-3.4
			c-3.2-1.2-6-3.1-8-5.9c-0.4-0.6-1.4-0.4-1.5,0.3c-0.9,4.2,1,8.2,4.4,10.6c2.9,2.1,6.8,2.6,9.4,4.4c2.1,1.4,3.8,3.8,3.4,6.1
			c-0.3,1.7-2.1,3-3.1,5.2c-0.7,1.6-1.2,3.3-1.5,5c-1.3,7-0.3,14.5,2.6,20.9c1.4,3.1,3.3,6,5.8,8.5c2.1,2,6,5.7,9.9,4.9
			c2.1-0.4,3.8-2.2,3.4-4.6c-0.3-1.8-1.7-2.5-2.7-3.2c-2.5-1.7-1.9-3.4-1.6-6.5c3.1,2.5,6.4,4.8,9.8,6.9c-0.3,3.5,3.3,6.3,5.9,3.5
			c1.8,1,3.5,2,5.2,2.9c8.1,4.4,16.5,8.3,25,11.9c1,3.2,2.4,6.3,3.9,9.2c-0.4,0.4-0.8,0.9-1.3,1.3c-2.6,2.6-10.1,8.2-7.9,13.8
			c1.3,3.2,5,4.8,8.2,3.9c3.3-0.9,5.7-3.9,7.5-6.3c1.3-1.8,2.4-3.7,3.4-5.7c-0.8,2.5-1.6,5-2.2,7.5c-0.3,1.4-1.2,3.7,0.5,5.4
			c2.8,2.8,8.9,3,11.9,3.3c5.8,0.6,11.6,0.6,17.3,0.1c4.3-0.3,9.8-0.7,13.8-3.1C447.1,572.1,448.1,571,447.9,569z M439,553.6
			c0.6,0.1,1.2,0.1,1.7,0.3c-0.4,0-0.9-0.1-1.5-0.2C439.2,553.6,439.1,553.6,439,553.6z M435.2,554.1c-0.1-0.2-0.1-0.4-0.2-0.6
			c0.2,0,0.4,0,0.5,0C435.4,553.7,435.3,553.9,435.2,554.1z M441.8,557c0.1-0.1,0.3-0.2,0.5-0.3c-0.2,0.2-0.6,0.5-0.9,0.7
			C441.5,557.2,441.7,557.1,441.8,557z M440.3,552.1c-2.2-0.4-4.7-0.3-5.8-0.2c-0.8-2.6-1.5-5.2-2-7.9
			C434.7,547.1,437.8,549.6,440.3,552.1z M355.8,526.1c0.9,0.6,1.8,1.1,2.8,1.6C357.4,528.6,356,527.9,355.8,526.1z M392.4,544.2
			c2,0.9,4.1,1.7,6.1,2.5c0.1,0.1,0.3,0.1,0.4,0c-1.1,1.5-2.2,3-3.5,4.5C394.3,549,393.3,546.6,392.4,544.2z M399.4,564.4
			c-1.7,2.4-3.9,4.9-6.6,5.6c-2.4,0.7-5.2-0.6-6.2-2.9c-1.7-4.3,4.2-8.7,7.5-12c0.5-0.5,1-1,1.5-1.5c0,0,0.1,0,0.1,0
			c0.2-0.1,0.3-0.3,0.4-0.5c2-2.3,3.9-4.7,5.5-7.3c2.1-3.2,4.6-7.1,4.1-11.4c0-0.5-0.5-0.8-0.9-0.7c-0.5,0-0.8,0.4-0.8,0.9
			c0.4,3.7-1.7,7.1-3.9,10.4c-0.2,0.3-0.4,0.6-0.6,0.9c-0.1-0.2-0.2-0.4-0.5-0.5c-11.2-4.6-22.4-9.4-33-15.2
			c-9.5-5.2-20.1-11-27-19.2c-0.3-0.3-0.8-0.4-1.2-0.1c-0.3,0.3-0.4,0.8-0.1,1.2c1.5,1.8,3.2,3.4,4.9,5c-0.2,3.1-1.6,6.5,2.2,9.2
			c1.2,0.8,1.8,1.1,2,2.1c0.2,1.3-0.7,2.4-2.1,2.7c-2.8,0.6-6.1-2.3-8.4-4.5c-2.3-2.3-4.1-5-5.4-8c-2.8-6.1-3.8-13.3-2.5-19.9
			c0.3-1.6,0.7-3.1,1.4-4.6c0.8-1.6,2.8-3.5,3.2-5.6c0.6-3.3-1.8-6.3-4.1-7.8c-3.1-2.1-6.5-2.3-9.3-4.3c-2.2-1.6-3.6-3.9-3.9-6.4
			l0-0.6l0.4,0.5c2,2,4.4,3.4,7,4.3c3.5,1.3,6.6,1.4,9.4,3.2c1.2,0.8,2.3,1.8,3.2,2.9c0.6,0.7,2,3.4,3.1,4.3
			c0.3,0.3,0.4,0.4,0.5,0.5c0.1,0.1,0.2,0.2,0.3,0.2l0.1,0h0.5c0,0,0.1,0,0.4,0c0.5,0,1.4-0.2,1.6-0.2c1-0.1,1.9-0.2,2.9-0.3
			c2.1-0.1,4.2,0,6.3,0.2c16.1,1.6,26,14.5,36.6,25.8c6.8,7.2,14.4,12.9,23.1,17.5c0.3,0.2,0.7,0.1,0.9-0.1c0.1,0,0.1,0,0.2,0
			c4.3-1.6,9.6-2.7,12.9,0.5c3.3,3.2,4.2,8.7,5,13.5c1,6.1,2.7,12.1,5.2,17.8c-1.2,0.3-2.3,0.6-3.1,0.7c-2.9,0.4-5.9,0.6-8.9,0.5
			c-0.1-0.1-0.2-0.3-0.3-0.3c-4-2.1-7.4-5.3-9.5-9.3c-0.2-0.4-0.7-0.5-1.1-0.3c-0.4,0.2-0.6,0.7-0.3,1.1c0.2,0.3,0.3,0.5,0.5,0.8
			c-1.9-0.4-4.9,0.6-6.2,2c-0.2,0.3-0.4,0.5-0.5,0.7c0,0,0,0-0.1-0.1c2-4.6,3.5-9.5,5.1-14.1c0.2-0.4-0.1-0.9-0.5-1
			c-0.4-0.1-0.9,0.1-1,0.5C406.9,549,404.3,557.5,399.4,564.4z M444.7,571.6c-3.7,2.1-8.7,2.5-13.1,2.8c-5.7,0.5-11.4,0.4-17-0.1
			c-3.5-0.4-8.7-0.6-10.9-2.8c-0.9-0.9-0.5-2,0-3.9c0.7-2.9,1.6-5.9,2.6-8.8c2.6,2.6,7.7,3.1,10.2,3.3c5.3,0.6,11,0.7,16.3-0.1
			c0.6-0.1,8.1-1.5,10.8-4.3c1.2,3.8,2.4,7.7,2.7,11.4C446.4,570.3,445.9,570.8,444.7,571.6z"/>
		<path class="st0" d="M288.2,521c-0.2,2.3,3.4,2.7,3.4,0.3C291.8,518.9,288.4,518.6,288.2,521z"/>
		<path class="st0" d="M278.8,521.4c-0.1,2.3,3.4,2.4,3.4,0.1C282.3,519.3,278.9,519.2,278.8,521.4z"/>
		<path class="st0" d="M295.5,505.7c-1.5-5.9-8.4-10.9-14.6-9.1c-5.5,1.6-8.2,7.8-9.3,12.5c-2.1,1.6-4,3.4-5.5,5.5
			c-0.1,0-0.2,0-0.3,0.1c-13.1,7.1-28.5,5.7-43,3.9c-8.3-1-16.4-2.7-24.6-4.2c-7.7-1.4-16.1-2.2-23.8,0.6
			c-6.2-8.5-2.6-21.1,7.3-24.9c0.8-0.3,0.7-1.4-0.1-1.6c-6.5-1.4-13.8,3.5-16.9,8.7c-4.4,7.4-0.6,16,2.4,22.5
			c-2.5,4.7-2.1,10.2-1.3,14.9c0.9,5.3,2.3,10.6,4.1,15.7c1.4,3.8,2.9,8.8,6.4,11.7c3.2,2.7,9,1.8,7.7-3.5c-0.5-1.8-2.5-3.6-3.1-4.6
			c-0.8-1.3-0.7-2.7-0.1-4.3c0.4-1.3,1.1-2.6,1.9-3.8c1.1,4.9,3.3,12.7,8.4,14.2c1.3,0.4,3.9,0.3,4.6-1.7c0.7-1.9-1.2-4.5-1.6-5.4
			c-1.9-3.9,0.2-8.2,2.4-12.1c1.5,0.3,3.1,0.6,4.4,0.8c4.8,0.9,9.6,2.1,14.4,3.5c9.4,2.6,19.5,6.6,29.7,5.3c1.1,1.8,0.6,4,0.9,6.6
			c0.3,2.3,0.8,4.7,1.7,6.9c1,2.7,3.5,7.4,7.9,6.2c3.2-0.8,3-3.4,2.3-5.5c-0.8-2.4-2-4.1-2.2-5.5c-0.5-3,0.3-6.6,2.9-8
			c1,1.2,2.6,1.9,4.5,1.3c0.6,4.7,2.9,9.4,5.8,13c1.2,1.5,3,3.3,5.5,3.1c1.9-0.1,3.8-1.2,3.6-3.6c-0.1-1.7-1.4-3.2-2.2-4.2
			c-1.4-1.8-2-3.3-2-5.6c0-2.2,0-4.6,1-6.3c0.9-1.5,1.9-3,3-4.4c0.2,0.9,0.3,1.8,0.6,2.7c1.2,4.8,3.5,10,8.1,7.3
			c2.2-1.3,3.3-4.2,4.1-6c1.3-3.1,2.3-6.3,3-9.6c1.3-5.4,2-11,2.2-16.5c1,2.9,1.6,5.9,1.8,9c0.4,4.1,0.2,8.8,1.9,13
			c1.3,3.3,3.8,6.5,7.6,7.4c3.7,0.9,7.1-0.9,8.3-4.5c2.7-8-1.9-16.6-5.2-23C306.3,517.4,301.8,510.6,295.5,505.7z M192.5,553.8
			c0.8,1.6,1.9,3.1,1.5,4.1c-0.3,0.7-1.5,1-2.6,0.7c-4.5-1.3-6.5-9.5-7.5-14.4c1.1-1.3,2.4-2.4,3.8-3c1.9-0.8,4.4-0.8,7-0.4
			C192.6,544.4,190.3,549.2,192.5,553.8z M253.9,559.5c0.2,1.4,1.7,4.1,2.3,5.8c0.7,2,0.5,3-1.1,3.4c-2.9,0.7-4.8-2.3-6-5.2
			c-0.8-2.1-1.3-4.3-1.6-6.5c-0.2-1.8,0.2-5.2-1.2-7.4c0-0.1-0.1-0.1-0.2-0.2c-0.1-0.4-0.5-0.6-0.9-0.5c-10,1.5-19.8-2.4-29.6-5.2
			c-4.8-1.3-9.6-2.6-14.5-3.5c-3.8-0.7-10-2.4-14.1-0.6c-1.7,0.7-3.2,2-4.4,3.5c-0.2,0.1-0.4,0.3-0.5,0.6c-1.3,1.8-2.4,3.8-3,5.6
			c-0.7,1.9-0.9,3.8,0.3,5.7c1.2,2,2.5,2.4,2.9,4.1c0.5,1.9-0.3,2.6-1.2,2.8c-1.1,0.3-2.7-0.1-3.8-1c-3.1-2.5-4.4-7-5.9-11
			c-1.8-5-3.2-10.2-4.1-15.4c-0.8-4.7-1.1-9.8,1.1-14c0.1-0.2,0.1-0.3,0.1-0.5c0.1-0.2,0.1-0.5,0-0.7c-3.2-6.7-6.5-14.6-2.6-21.2
			c2.2-3.6,6.5-6.9,10.8-7.8l1.2-0.1l-0.9,0.5c-8.1,5.7-10.3,17.7-3.9,25.9c0.2,0.2,0.4,0.3,0.7,0.3c0,0,0.1,0,0.1,0
			c0,0,0.1,0,0.1,0c0.1,0,0.1,0,0.1,0c7.4-2.9,15.6-2.1,23.4-0.7c8.2,1.4,16.4,3.2,24.7,4.2c13.6,1.7,28.6,3.1,41.7-2.9
			c-1.7,2.8-3,5.8-4,8.9c-1.2,3.8-1.9,7.7-2.5,11.5c-0.5,3.3-1.5,7.4-0.6,11.1c0.1,0.4,0.2,0.7,0.4,1.1
			C254.1,551.7,253.4,556.3,253.9,559.5z M281.9,552.3c0.5,0.5,1.3,1,2,1.3C283.2,553.5,282.5,553.1,281.9,552.3z M313.5,546.9
			c-0.9,2.8-3.4,4.2-6.3,3.5c-3-0.8-5.2-3.4-6.4-6.4c-1.5-3.9-1.3-8.1-1.8-12.6c-0.4-4.6-1.5-9.1-3.5-13.3c0,0,0,0-0.1-0.1
			c0-0.4,0-0.9,0-1.3c0-0.5-0.4-0.8-0.9-0.8c-0.5,0-0.8,0.4-0.8,0.9c0.3,7.4-0.4,14.7-2.1,21.9c-0.8,3.2-1.7,6.3-2.9,9.3
			c-0.1,0.1-0.1,0.3-0.2,0.4c-2.4-1.8-5.9-1.9-8.5-0.2c-1.3-4.6-1.8-10.9-1.9-13.5c0-0.5-0.4-0.8-0.8-0.8c-0.5,0-0.8,0.4-0.8,0.8
			c0,1.2,0.2,4.3,0.7,7.7c0,0,0,0,0,0c-1.4,1.8-2.9,3.7-4.1,5.8c-1.2,2.1-1.2,5-1.2,7.1c0,2.7,0.8,4.5,2.4,6.6
			c0.9,1.1,1.7,2.2,1.8,3.3c0.1,1.1-0.6,1.7-2,1.8c-1.6,0.1-3-1-4.1-2.5c-2.8-3.5-5-8-5.4-12.3c0-0.1,0-0.2-0.1-0.3
			c2.8-1.6,4.6-4.7,5.7-7.2c3.2-7.1,4.3-15,6.1-22.3c0.1-0.4-0.2-0.9-0.6-1c-0.5-0.1-0.9,0.2-1,0.6c-1.9,7.5-2.9,15.1-6,22
			c-1.2,2.8-3,5.7-5.7,6.8c-2.1,0.8-3.6-0.2-4.2-2.5c-0.8-3.2,0-6.9,0.6-10.4c0.6-3.8,1.3-7.6,2.4-11.3c2.1-6.5,5.6-12.6,11.1-16.5
			c0.3-0.2,0.4-0.6,0.3-0.9c1.1-4.6,3.6-9.8,8.1-11.1c5.1-1.5,11.1,2.7,12.5,7.8c0,0.3,0.1,0.6,0.3,0.8c6.3,4.7,10.6,11.4,14.2,18.4
			C311.7,531.8,315.9,539.8,313.5,546.9z"/>
		<path class="st0" d="M250.1,367.2c-2-0.9-3.2,2.5-1,2.7c0.1,0,0.3,0,0.5,0C251.1,369.7,251.2,367.8,250.1,367.2z"/>
		<path class="st0" d="M243.4,361.8c-1.6,0.4-1.4,2.4,0.3,2.4C245.4,364.2,245.7,361.2,243.4,361.8z"/>
		<path class="st0" d="M236,463.5c0.3,0.2,1,0.5,1.8,0.9c-0.5,0.4-1,0.7-1.4,0.7c-0.4,0-0.8,0.5-0.7,0.9c0,0.5,0.5,0.8,0.9,0.7
			c0.7-0.1,1.5-0.5,2.2-1.1c0.1,0.7,0.3,1.3,0.3,1.7c0.1,0.4,0.5,0.7,1,0.6c0.5-0.1,0.7-0.5,0.7-1c-0.1-0.5-0.2-1.1-0.4-1.8
			c1.1,0.3,2.2,0.5,2.8,0.2c0.4-0.1,0.7-0.6,0.5-1c-0.1-0.4-0.6-0.7-1.1-0.5c-0.3,0.1-1.1,0-1.9-0.3c0.6-0.7,1.1-1.3,1.4-1.6
			c0.3-0.3,0.3-0.9-0.1-1.2c-0.3-0.3-0.9-0.3-1.2,0.1c-0.3,0.4-0.7,0.8-1.1,1.3c-0.1-0.4-0.1-0.8-0.1-1.1c0-0.5-0.4-0.8-0.8-0.8
			c-0.5,0-0.8,0.4-0.8,0.8c0,0.4,0.1,1,0.2,1.6c-0.6-0.3-1.1-0.5-1.5-0.7c-0.4-0.2-0.9-0.1-1.1,0.3
			C235.5,462.7,235.6,463.2,236,463.5z"/>
		<path class="st0" d="M264.8,360.2c1.5-3.1,5-10,2.7-14.2c-1.7-3-4.7-2.3-7.3-0.8c-0.4,0.1-0.8,0.3-1,0.6c-0.1,0.1-0.1,0.1-0.1,0.1
			c-0.3,0.2-0.6,0.4-0.9,0.6c-3.2,2.3-6.5,5.7-7.7,6.7c-1.8,1.4-3.4,2.9-5.3,3.9c-1.8,0.9-3.6,0.9-5.8,1.5c-4.6,1.1-7.2,4.5-9.4,8.1
			c-4.9-1.7-9.3-4.6-12.8-8.4c-1.5-1.6-3.3-4.1-6.1-4.7c-3.2-0.6-6.3,1-7.8,3.7c-3.6,6,1.8,12.2,6.2,14.9c3.5,2.1,8.5,3.1,13.1,3.1
			c-5.1,4.7-10.2,9.8-13.6,16c-3.9,7.1-5.5,15.2-5.8,23.2c-0.3,8.7,0.8,17.5,2.3,26c1.3,7.3,3.2,14.9,7.5,21.3
			c-0.4,5,0.3,10.5,2.6,15.1c1.1,2.3,2.3,3.7,1.7,5.7c-0.4,1.4-1.5,3.5-0.2,5.5c2,3.3,6.4,1.4,7.7-0.9c1.4-2.3,0.1-4.9,0-6.5
			c-0.2-2,0.6-4,2.3-5.1c0,0,0,0,0,0c5.7,1.9,12.1,1.6,17.7-0.8c1.8,2.8-0.5,6,0.5,10c0.4,1.5,1.9,3.4,3.6,4.4
			c1.7,1.1,4.1,1.4,5.2-1.4c0.6-1.6-0.8-3.2-0.6-3.9c0.2-1.4,1.7-2.5,2.4-4.2c1.2-3.2,1.6-8,0.1-11.4c4.2-5.5,3.7-13.5-1.2-18.3
			c3.7-6.4,4.6-14.7-0.5-20.7c-1.7-2-4.9-3.6-6.1,0.2c-1.1,3.4-0.2,7.7-0.6,10.7c-0.2,1.3-0.5,2.7-1,4c-0.2-0.1-0.3-0.1-0.5,0
			l-0.1,0.1l-1.7-1.6c-6.1-6.8-8.1-16.8-9.3-25.9c2.9,1.5,7.3-0.8,7.1-4.3c-0.1-1.5-1.1-2.1-1.9-2.7c-1.4-1-2.1-1.3-2.7-2.7
			c-1.5-3.2-2-7.1-1.5-10.6c0-0.1,0-0.3-0.1-0.4c1.2-4.2,3.2-8,6.3-11.2c2.4,4.5,3.7,9.6,3.2,14.5c-0.3,2.6-1.7,7.9,2.2,10.2
			c3,1.8,6.6,0.3,8.6-1.9c3.9-4.3,3.8-11.5,2.9-16.5c-0.9-5.1-3.6-10.2-8-13.2C257.2,373.7,261.7,366.9,264.8,360.2z M235.7,408
			c0.9,1.9,2,2.5,3.3,3.4c0.8,0.6,1.1,0.8,1.2,1.4c0.2,2.9-4.7,4.1-5.8,1.4c-0.4-3.5-0.4-7.1-0.1-10.6
			C234.6,405.2,235.1,406.7,235.7,408z M249.9,376.9c-0.2,0.1-0.2,0.3-0.3,0.4c-1-0.6-2.1-1-3.2-1.3c-0.4-0.1-0.9,0.1-1,0.6
			c-0.1,0.4,0.1,0.9,0.6,1c6.2,1.7,10.3,7.7,11.4,14.1c0.9,5,0.8,11.4-2.5,15.2c-1.7,1.9-4.5,2.8-6.5,1.6c-2.7-1.5-1.7-5.2-1.4-8.6
			c0.8-7.5-2.3-15.5-7.3-21c-0.3-0.3-0.8-0.4-1.2-0.1c-0.3,0.3-0.4,0.8-0.1,1.2c1,1.1,1.9,2.4,2.7,3.7c0,0,0,0,0,0
			c-8.6,8.7-9.6,21.8-8.1,33c1.4,10.3,3.6,22.6,12.4,29.9c-1.3,2.3-3.1,4.1-5.7,4.7c-0.5,0.1-0.7,0.5-0.6,1c0.1,0.4,0.5,0.7,1,0.6
			c3.3-0.8,5.5-3.1,7-5.9c0.1-0.1,0.2-0.2,0.2-0.4c0,0,0-0.1,0-0.1c0.9-1.9,1.4-3.9,1.6-5.8c0.5-3.6-0.5-7.3,0.5-10.4
			c0.6-1.9,1.7-1.5,3.3,0.3c4.5,5.4,3.8,13.1,0.2,19.1c0,0-0.1,0.1-0.1,0.1c-0.1,0.1-0.2,0.3-0.2,0.4c-1.4,2.3-3.3,4.3-5.4,5.8
			c-0.4,0.3-0.5,0.8-0.2,1.2c0.3,0.4,0.8,0.5,1.2,0.2c2.1-1.5,3.9-3.4,5.4-5.7c4.2,4.4,4.5,11.6,0.5,16.3c-0.3,0.3-0.3,0.9,0.1,1.2
			c0,0,0,0,0,0c0,0,0,0,0,0c1.3,2.8,0.9,7.1-0.2,10.2c-0.4,1.1-2.1,2.7-2.4,4.5c-0.3,1.9,1.2,2.5,0.7,3.6c-0.5,1.3-1.5,1.4-2.8,0.6
			c-1.4-0.9-2.6-2.5-2.8-3.4c-0.7-2.9,1.4-7.1-0.6-10.4c0.2-0.2,0.3-0.6,0.1-0.9c-0.2-0.4-0.7-0.6-1.1-0.4c-5.9,2.9-13,3.2-19.1,0.7
			c-0.4-0.2-0.9,0-1.1,0.4c-0.1,0.3,0,0.7,0.2,0.9c-1.7,1.5-2.4,3.8-2.2,6c0.3,2.5,1.3,3.7,0.3,5.4c-1.1,1.9-3.9,2.4-4.9,0.8
			c-0.8-1.2-0.1-2.3,0.4-4.2c0.8-2.8-0.9-5-1.8-6.9c-2-4.2-2.7-9.1-2.4-13.8c0.2-0.3,0.3-0.7,0.1-1c0,0,0,0,0,0c0,0,0,0,0,0
			c0-0.4-0.2-0.7-0.6-0.8c-3.9-6-5.7-13.1-7-20.2c-1.5-8.5-2.6-17.1-2.3-25.6c0.3-7.8,1.8-15.6,5.6-22.5c3.6-6.6,9.1-11.8,14.7-16.9
			c1.5-0.1,3-0.4,4.3-0.7c0.4-0.1,0.7-0.6,0.6-1c-0.1-0.4-0.6-0.7-1-0.6c-1.2,0.3-2.6,0.5-4,0.7c-0.2,0-0.3,0-0.5,0
			c-4.9,0.3-10.5-0.6-14.2-2.8c-4.4-2.7-8.4-8-5.6-12.6c1.3-2.1,3.7-3.4,6.1-2.9c2.2,0.4,3.4,2.3,5.2,4.2c4.3,4.6,9.8,8,15.9,9.6
			c0.5,0.1,0.9-0.1,1-0.6c0.1-0.4-0.1-0.9-0.6-1c-0.2-0.1-0.5-0.1-0.7-0.2c2.2-3.3,4.4-6.1,8.2-7c1.8-0.4,4.2-0.6,6.2-1.6
			c2.1-1,3.9-2.7,5.6-4.1c1.5-1.2,4.3-4.3,7.6-6.6c0.2-0.2,0.4-0.3,0.6-0.4c0.2,0,0.5,0.1,0.7,0.1c1.2,0.1,2.1,0.3,3,1.1
			c0.6,0.5,1,1.2,1.4,1.9c0.2,0.5,0.6,1.9,1.1,2.4c-0.7,2.4-1.9,4.8-2.7,6.6C260.2,366.1,255.8,372.7,249.9,376.9z"/>
		<path class="st0" d="M156.7,408.6c-0.4-3.8-4.8-2.2-4,1.3C153.4,412.9,156.9,411,156.7,408.6z"/>
		<path class="st0" d="M167.5,407.3c0.1-2.8-4-2.9-4.1-0.1C163.1,410.1,167.4,410.1,167.5,407.3z"/>
		<path class="st0" d="M133.9,432.3c1.1,5,4,9.7,8,12.8c3.2,2.6,8.8,5.5,13.4,3.2c1.4-0.7,2.5-1.8,3.4-3.1c1.8,2.9,6.1,3.7,8.9,2.9
			c4.5-1.4,7.4-6.2,8.3-10.5c1.8,0.2,3.7,0.2,5.5-0.1c3.4-0.7,7.8-3.3,7.9-7.6c0.1-4.8-5.2-7.9-7.6-10.2c-0.2-0.2-0.4-0.4-0.6-0.6
			c0-0.2,0-0.4,0-0.5c-1.5-3.4-1.5-7.9-3.5-11.6c-1.9-3.4-4.4-6.5-7.1-9.2c-0.1-0.1-0.3-0.2-0.5-0.2c-1.3-4.7-4.7-7.3-8.6-8.1
			c0-0.1,0-0.1-0.1-0.2c-6.3-10.5-10.4-22.3-11.9-34.4c4.2,1.2,8.1,1,12.3,0.8c3-0.1,4.4,1.2,7.2,2.9c2.1,1.3,6.1,2.4,7.3-1.6
			c1.2-4-2.1-7.9-5.1-9.3c-3.2-1.5-7.3-1.2-10.4-2.4c-2.8-1.1-4.9-3.2-6.7-5.7c-3-4.1-6.6-11.3-13.6-10.8c-0.1,0-0.1,0-0.2,0
			c1.4-4.2,5.5-7.9,9.6-8.8c2.9-0.6,5.5-0.7,8.1,0.3c1.9,0.7,3.6,0.5,3.8-1.3c0.1-1.2-0.6-2.7-1.5-3.9c-5-6.4-13.3-6.1-19.6-2.3
			c-5.7,3.4-9.6,9.5-10.7,16c-0.1-0.1-0.3-0.1-0.4-0.1c-7.6,1.1-15.6,5.5-19.9,12c-2.1,3.2-2.9,6.7-5.7,8.4
			c-2.6,1.5-6.7,1.2-9.5,2.9c-2.9,1.8-6.2,5.7-4.2,9.7c1.6,3.2,5.8,4.3,8.8,2.2c1.6-1.2,2.2-3.4,3-4.2c0.9-1,2.1-1,3.9-0.9
			c3.6,0.2,7.6,0.2,10.8-2.2c1.1,18.4,1.5,38.1,9.7,55.1c-3,3.3-5.6,6.9-7.6,10.9c-1.9,3.8-3.3,8.2-2.9,12.7c0.2,2.5,1.3,7.8,5,8.8
			c5.8,1.5,11.2-8.1,12.8-11.1C133.6,432.8,133.8,432.6,133.9,432.3z M154.6,446.8c-3.6,1.8-8.4-0.4-11.7-3
			c-4.2-3.3-7.1-8.4-7.7-13.8c0-0.1,0-0.2-0.1-0.3c2.7-5.8,4.8-11.6,9.2-15.8l1.3-1l0.7,2.2c0.6,1.4,1.2,2.7,2,3.9
			c-3.5,0-7.9,2.6-7.5,6.8c0.3,3.5,4.6,7.9,8.4,7.7c0.5,0,0.8-0.4,0.8-0.9c0-0.5-0.4-0.8-0.9-0.8c-2.7,0.1-6.4-3.4-6.7-6.2
			c-0.3-3,3.6-5.5,6.7-4.9c0.1,0,0.2,0,0.3,0c2.1,2.9,4.7,5.5,7.5,7.7c0,0,0,0,0,0.1C160.2,433.7,160.2,444,154.6,446.8z
			 M167.1,446.5c-2.9,0.9-6.7-0.4-7.5-3.1c1.6-3.9,1.4-9,0.1-12.8c0.3,0.2,0.6,0.4,0.9,0.6c3.8,2.4,8.6,5.1,13.6,6.1
			C173.5,441.2,170.8,445.4,167.1,446.5z M178.5,416.5c-1.9-2.1-3.5-4.4-4.8-6.9c-1.5-2.9-2.3-5.9-3.1-9.1c2.1,2.2,3.9,4.7,5.4,7.3
			C177.5,410.6,177.7,413.5,178.5,416.5z M117.9,353.5c0-0.5-0.4-0.8-0.9-0.8c-0.5,0-0.8,0.4-0.8,0.9c0,0.4,0,0.7,0.1,1.1
			c0,0,0,0-0.1,0c-2.8,2.6-6.6,2.8-10.5,2.5c-1.6-0.1-3.7-0.3-5.3,1.4c-1.4,1.5-1.4,3.1-2.7,4c-2.1,1.5-5.2,0.7-6.3-1.6
			c-1.4-2.8,0.8-5.9,3.6-7.6c2.9-1.7,6.2-0.9,9.5-2.9c3.3-1.9,4.7-6.5,6.3-8.9c4-6.1,11.5-10.3,18.7-11.3c-0.1,1-0.1,2-0.1,3
			c0,0.5,0.4,0.8,0.9,0.8c0.5,0,0.8-0.4,0.8-0.9c-0.3-7.5,3.8-15.1,10.2-19c5.9-3.5,13.1-3.6,17.4,1.9c0.8,1,1.2,2.1,1.2,2.7
			c0,0.1,0,0.5-1.6-0.1c-3-1.2-6-1-9-0.3c-6.2,1.3-12.8,8.5-11.1,15.4c0.1,0.4,0.6,0.7,1,0.6c0.4-0.1,0.7-0.5,0.6-1
			c-0.3-1.1-0.3-2.2-0.1-3.3c0.2,0.2,0.4,0.3,0.6,0.2c5.8-0.4,8.8,5.5,12.1,10.1c1.9,2.7,4.2,5.1,7.5,6.3c3.7,1.4,7.1,0.9,10.3,2.4
			c2.8,1.3,5.1,4.5,4.3,7.4c-0.6,2.1-2.6,2-4.9,0.7c-2.5-1.5-4.6-3.3-8.2-3.2c-4.5,0.2-8.3,0.4-12.4-1c-0.1-1-0.2-2.1-0.3-3.1
			c0-0.4-0.4-0.8-0.9-0.8c-0.5,0-0.8,0.4-0.8,0.9c1,13.7,5.2,27.2,12.2,39.1c-3.4-0.2-7,0.8-9.9,2.8c-1.6,1.1-3.2,2.3-4.5,3.7
			c-0.8,0.9-1.4,2.6-2,3.3c-0.7,0.8-1.9,1-3.3,1.8c-1.7,1-3.3,2.1-4.8,3.3c-2.6,2-5.1,4.1-7.4,6.5
			C119.1,393,119.2,372.7,117.9,353.5z M121.1,442.6c-2.5-0.6-3.5-4.5-3.8-7.3c-0.4-4,0.9-8.1,2.7-11.8c3.6-7.2,9.3-13.3,15.8-18.2
			c1.5-1.1,3-2.2,4.6-3.1c0.7-0.4,2.7-1.1,3.7-2.1c1.3-1.4,1-2.3,2-3.3c1.3-1.3,2.7-2.5,4.3-3.5c6.7-4.4,16-3.3,18.1,4.9
			c1.1,4.1,1.8,8.2,3.9,12.1c2.1,4,4.9,7.5,8.2,10.6c1.6,1.5,3.5,2.9,4.9,4.4c-2.1-0.5-4.5,0.6-5.5,2.6c-1.3,2.5-0.7,5.4,1.1,7.5
			c0.2,0.2,0.3,0.3,0.5,0.5c-0.1,0-0.3,0.1-0.4,0.1c-6.6,1.3-13.8-2.5-19.5-6.1c-5.9-3.7-11.1-8.9-13.7-15.2l-0.9-2.7l0.2-0.3
			c0-0.2,0-0.4-0.1-0.6c-0.3-0.4-0.8-0.5-1.2-0.2c-7.7,5-10.1,14.5-13.9,21.6C130,436.2,125.3,443.7,121.1,442.6z"/>
		<path class="st0" d="M364.7,64.7c2.1-1.4,5.3-4.3,4.9-7.6c-0.3-3-3.5-4.7-6-5c-5.3-0.5-9.2,4.6-11.5,8c-2.5,3.7-4.5,7.8-5.9,12.1
			c-2.9-0.1-5.9,0.4-8.7,1.4c0,0,0,0,0-0.1c-4.2-6-9.5-12-16.4-15.3c-3.8-1.8-9.9-3.4-14-0.6c-17.8-3.9-34.6,3.2-49.1,12.7
			c-6.2,4.1-12.3,8.4-18.8,11.7c-5,2.5-11,4.9-16.1,2.9c-0.7-0.3-1.4,0.4-1.1,1.1c3.7,7.6,15.8,4.9,22.1,1.1l1.2-0.8L246,89
			c1.2,4,3.4,7.8,6.4,10.5c2.1,1.9,4.2,2.6,6,4.4c1.9,1.9,2.2,4.3,2.5,7.3c0.2,2.3,1,6,4.8,5.9c3.3-0.1,4.5-3.3,3.7-5.8
			c-0.6-1.7-1-1.6-0.7-2.8c0.3-1.4,1-3.1,1.2-4.8c0.1-1.3,0.1-2.6,0-3.8c3.6-1.7,7.8-1.6,10.8,1.1c1.3,1.2,2.7,3.2,5.2,3.6
			c1.9,0.3,4.8-0.4,5.8-2.6c1.3-2.8-0.9-4.4-3.1-4.7c-2.1-0.2-2.1-0.1-2.8-1.8c-1.4-3.6-4.3-6.5-8.2-7.4c6.7-3.6,14.4-4.7,22-1.9
			c6.2,2.3,11.9,5.9,17.3,9.8c4.8,3.4,9.1,7.5,11.2,12.9c0.2,4.5-1.8,9.1-5.1,12.2c-2,1.9-8.6,4.1-6.4,8.5c1.9,3.9,7.1,2.8,9.5,1.4
			c4.2-2.4,7.5-6.8,9.3-11.1c0.3-0.7,0.4-2,0.6-2.8l0.2-0.5l0.8,0.1c0.4,0.1,0.8,0.1,1.3,0.2c1.3,0,2.6-0.1,3.8-0.4
			c2.1-0.5,4-1.5,5.7-2.9c1-0.8,1.4-1.8,2.2-2.3l0.3-0.2l0.5,0.3c2.6,1.8,6.1,4,6.4,6.8c0.1,1-0.4,2.7-0.4,4.5
			c0,1.8,0.9,3.7,3.9,3.2c5.6-1.1,5.4-8.6,3.8-12c-1.8-3.8-5.3-6.1-8.9-7.8l-2.8-1.2l0.3-0.7c0.4-1.5,0.5-3.1,0.3-4.6
			c1.4,0,2.6-0.1,3.8-0.2c5-0.3,9.8-1.6,14.4-3.6c3.9-1.8,8.5-4.3,11.3-8.1c0.7-0.9,1.3-2.3,1.6-3.7c0,0,0-0.1,0-0.1
			c0.1-0.6,0.2-1.1,0.2-1.7c0-2-1.2-3.9-4-3.7c-3,0.2-6.9,2-9.4,2.5c-3.3,0.6-7,1-9.8-0.3c-1.7-0.8-2.4-2.1-3.8-3.8
			c-1.5-1.7-3.2-2.7-5.3-3.4C353.6,68.3,360,67.7,364.7,64.7z M275.5,89.2c4.1,0.1,7.2,2.9,8.7,6.6c1,2.6,1.7,2.5,4.1,2.8
			c1.6,0.2,2.4,1.1,1.8,2.4c-0.6,1.3-2.5,1.9-4.1,1.7c-1.9-0.3-2.6-1.6-4.3-3.2c-3.4-3.1-8.2-3.2-12.1-1.5c-0.2-1.1-0.5-2.1-0.9-3.1
			c2-2.2,4.3-4.1,6.7-5.7C275.4,89.2,275.4,89.2,275.5,89.2z M362.8,114.3c1.6,3.3,1.1,8.9-2.6,9.6c-1.5,0.3-1.8-0.3-1.9-1.6
			c0-1.3,0.5-3.5,0.4-4.5c-0.3-3.8-4.9-6.5-7.1-8c-0.2-0.2-0.4-0.3-0.6-0.5c0.5-1.2,0.8-2.1,1.2-3.3
			C356.5,107.9,360.9,110.1,362.8,114.3z M360.3,81.9c3.4,1.6,7.6,1.1,10.9,0.5c2.4-0.5,4.3-1.3,6.3-1.9c0.6,1.5,2.8,4.1,4.7,4.4
			c-0.2,0.6-0.5,1.1-0.8,1.6c-2.5,3.3-6.7,5.8-10.6,7.5c-2.7,1.2-5.5,2.1-8.3,2.7c0-0.1-0.1-0.1-0.1-0.2c-0.6-0.6-4.5-5.2-7.3-2.6
			c0,0-0.1,0.1-0.1,0.1l-0.1,0.1l0,0.1c-0.4,0.6-0.7,2.4-0.7,3.5c-3.6,0.1-7.6-0.1-10.1-2.1c-0.4-0.3-0.9-0.2-1.2,0.1
			c-0.3,0.4-0.2,0.9,0.1,1.2c2.3,1.9,5.6,2.4,8.7,2.5c0,0,0,0.1,0,0.1c0.3,1.7,0.1,3.6-0.7,5.2c0,0.1,0,0.1-0.1,0.2
			c-0.7,2-0.8,3-1.8,4.8c0,0,0,0,0,0c-0.9,0.6-1.9,2.1-2.4,2.4c-1.5,1.2-3.2,2.1-5,2.6c-1.1,0.3-2.2,0.4-3.3,0.4
			c-0.1,0-1.8-0.4-2.6-0.2c0,0-0.1,0-0.2,0.1l-0.2,0.1c-0.1,0-0.1,0.1-0.2,0.1l-0.1,0.1c-0.8,0.9-1,3.4-1.2,3.9
			c-1.6,4-4.8,8.1-8.6,10.2c-2.4,1.4-6.1,1.6-7.2-0.7c-1.4-2.8,3.9-4.5,6.1-6.6c3.5-3.3,5.6-8.1,5.6-13c0.1-0.2,0.1-0.4,0-0.6
			c0,0,0-0.1,0-0.1c0,0,0-0.1,0-0.1c0-0.2-0.1-0.4-0.3-0.6c-2.3-5.6-6.9-9.8-11.6-13.2c-5.5-3.9-11.3-7.6-17.7-10
			c-11.8-4.4-24,0.1-32.2,8.9c-0.2-0.2-0.6-0.3-0.9-0.1c-0.4,0.2-0.6,0.7-0.4,1.1c1.3,2.8,1.9,5.9,1.6,9c-0.1,1.6-0.7,2.8-1.1,4.6
			c-0.5,1.9,0.4,2.7,0.7,3.7c0.6,1.8-0.4,3.6-2.1,3.6c-2.1,0.1-2.9-1.9-3.1-4.4c-0.3-2.9-0.6-5.9-3-8.3c-1.7-1.7-4.4-2.9-6.1-4.4
			c-3.6-3.3-6.1-8.5-6.7-13.4c-0.1-0.7-0.9-1-1.4-0.5c-4.2,3.9-15.2,7-20.1,3.2l-0.3-0.3l2.1,0.2c4.6,0.1,9.3-2,12.9-3.8
			c6.7-3.4,12.8-7.7,19-11.8c14-9.2,29.9-15.9,46.6-12.7c-0.3,0.4-0.6,0.7-0.9,1.2c-2,3.3-0.8,7.1,2.8,8.5c3.1,1.2,7,0.5,9.8,0.6
			c6.1,0.3,12.4,2.4,15.6,7.6c-1.2,1.5-2.1,3.3-2.4,5.2c-0.1,0.4,0.2,0.9,0.7,0.9c0.4,0.1,0.9-0.2,0.9-0.7c0.3-1.7,1.1-3.4,2.3-4.8
			c0.3-0.3,0.3-0.7,0.1-1c0-0.1,0-0.2-0.1-0.3c-3.5-6.1-10.7-8.3-17.1-8.6c-3.5-0.2-6.4,0.6-9.2-0.5c-2.7-1-3.5-3.7-2-6.1
			c2.9-4.7,9.5-3.6,14.3-1.3c6.5,3.1,11.6,8.8,15.7,14.8c0.1,0.2,0.3,0.3,0.4,0.3c0,0,0,0,0,0c0.2,0.4,0.7,0.6,1.1,0.5
			c4.2-1.6,9-1.9,13.3-0.6c1.9,0.6,3.5,1.5,4.8,3C357.1,79,358.2,80.8,360.3,81.9z M350.3,72.7c-0.7-0.2-1.5-0.3-2.2-0.4
			c1.3-3.9,3.2-7.8,5.5-11.3c2.4-3.5,5.8-7.7,9.9-7.3c2.1,0.2,4.3,1.6,4.5,3.5c0.2,2.3-2,4.6-4.2,6C360.2,65.6,352.2,67,350.3,72.7z
			"/>
		<path class="st0" d="M348.6,85.4c0.3,0.4,0.8,0.8,1.4,0.8h-0.1c1.7,0.4,2.3-1.9,1.2-2.9C349.6,82.1,347.6,83.7,348.6,85.4z"/>
		<path class="st0" d="M387.7,224.1c2.2-0.2,6-0.6,7.9-2.6c3.5-3.5-1.9-6.3-4-7c-3.8-1.4-6.8-3.1-9.8-5.9c-3.2-2.8-6.3-6.2-10-8.7
			c-3.7-2.5-8.8-3.9-13.3-3.1c3.8-8-5.6-19.5-12.5-21.6c-2.2-0.7-5.7-0.7-6.7,2.6c-1,3.2,1.7,6.1,3.3,7.8c4.2,4.4,8.4,8.4,9.6,14.2
			c-0.6,0.5-1.1,1.1-1.5,1.7c-17.8-6.6-32.4-18.7-43.1-34.2c3.5-3.4,4.1-8,3.8-12.5c-0.1-2.1,0.2-3.5,1.1-5.4c0.8-1.8,2-4.5,0.3-6.8
			c-3.5-4.8-8.8,0.8-9.8,4.2c-1.2,3.9-0.6,7.6-3.5,9.8c-2.8-2.8-6.1-4.9-9.9-5.1c-0.1-0.1-0.2-0.2-0.3-0.3c-3.4-1.9-2.2-7-0.8-10.7
			c1.7-4.7,5.6-10.7,3.1-16.5c-0.3-0.7-1.4-0.6-1.6,0.2c-1,4.8-5.2,7.7-7.6,12.5c-2.5,5.2-2.5,11.5-0.1,16.7
			c-7.2,4.3-8.1,14.5-5,21.4c-5.9,4.3-12.9,3.7-20.2,3.9c-3,0.1-6.9,0.5-9,3.6c-1.9,2.8-1.1,6.8,2.4,8c3.6,1.3,6.5-1.7,8.8-2
			c2.7-0.3,4.2,1.8,7.3,2.9c6.4,2.3,14.3,1,19.7-3.2c14,13.1,29.4,26.6,48.7,31.1c-1.7,0.4-3.4,0.6-5.1,0.6c-3.4,0-7.9-1.2-11.7,0.3
			c-3.9,1.5-5.7,5.5-2.8,9.1c4.9,6.2,14.6,4.1,20.4,2.3c3.9-1.2,7.7-2.9,11.1-5.2c0,0,0,0,0,0c4,1.9,9,7,8.3,11.4
			c-0.2,1.5-2.5,3.3-1.4,5.7c1.2,2.6,4.6,2.3,6.3,1.6c5.1-2.2,5-8.4,3.6-12.4c-0.9-2.6-1.4-3.9,0.1-5.9c1.3-1.7,3.5-3.6,4.5-6.1
			c1.2,0.4,2.4,0.7,3.6,1.1c0,0.1,0.1,0.2,0.2,0.3c1.9,1.7-4.2,9.2,2.8,10.2c5,0.7,6-4.7,4.7-8.5C382.3,224.1,385,224.3,387.7,224.1
			z M391.7,216.3c-0.2,0-0.4,0.1-0.6,0.1c0,0,0.1-0.1,0.1-0.1c0,0,0.1-0.1,0.1-0.2C391.4,216.2,391.6,216.3,391.7,216.3z
			 M340.9,178.2c0.5-1.7,2.5-2.1,4.6-1.4c6.8,2.1,15.2,13.4,11.1,20c-0.1,0.2-0.1,0.3-0.1,0.5c-1,0.3-2,0.8-2.9,1.3
			c-1.5-5.9-6-10.1-9.9-14.3C342,182.5,340.2,180.3,340.9,178.2z M304.6,147.1c0.8-2.6,4.7-6.7,6.8-3.7c1,1.4,0.4,3.2-0.5,5.2
			c-1,2.1-1.3,3.8-1.2,6.2c0.2,4.2-0.4,8.1-3.1,11c-0.3-0.5-0.7-1-1-1.5c-1.4-2.1-3-4.5-5-6.7C303.9,155,303.7,150.1,304.6,147.1z
			 M283.9,137.2c1.6-3.2,4.5-6,6.3-9.3l0.4-0.8l0.1,1.2c-0.1,3.8-2.4,7.5-3.8,11.5c-1.1,2.9-2.8,8.6,0.2,11.7c-1,0.2-2,0.4-3,0.9
			c-0.1,0-0.2,0.1-0.3,0.1C281.6,147.7,281.6,141.9,283.9,137.2z M378.4,228c-0.3,1.6-1.3,2.6-3.2,2.4c-2.4-0.3-2.4-1.5-1.9-3.4
			c0.3-1.2,1.1-3.2,0.8-4.8c1.2,0.3,2.3,0.7,3.5,0.9C378.4,224.4,378.8,226.4,378.4,228z M361.8,217.2c-0.5-0.1-0.9,0.3-0.9,0.7
			c-0.1,0.4,0.3,0.9,0.7,0.9c1.7,0.2,3.5,0.6,5.2,1.1c-0.8,2.1-2.6,3.4-4.2,5.6c-2.1,2.8-1.2,4.9-0.3,7.4c1.4,3.8,1,8.7-2.7,10.3
			c-1.6,0.7-3.6,0.5-4.1-0.7c-0.7-1.5,1.2-2.2,1.6-4.8c0.8-5.3-4.5-10.5-8.5-12.8c2.7-2.1,5.1-4.7,6.9-7.7c0.2-0.4,0.1-0.9-0.3-1.1
			c-0.4-0.2-0.9-0.1-1.1,0.3c-3.9,6.8-11.1,11-18.6,13.3c-6.1,1.9-14.5,3.4-18.6-1.7c-2-2.5-1-5.3,2.1-6.5c3.4-1.3,7-0.2,11-0.1
			c8,0,15.8-4.4,19.6-11.6c0.2-0.4,0.1-0.9-0.3-1.1c-0.4-0.2-0.9,0-1.1,0.3c-2.2,4.1-5.8,7.2-10,9c-0.1,0-0.1-0.1-0.2-0.1
			c-20-3.7-35.8-17.5-50.4-31.2c0-0.2,0-0.4-0.2-0.6c-0.2-0.2-0.5-0.3-0.7-0.3c0,0,0,0-0.1-0.1c-0.3-0.3-0.9-0.3-1.2,0
			c-0.2,0.3-0.3,0.6-0.1,0.9c-5,3.7-12.1,5-17.9,2.8c-2-0.7-5-3.4-8.1-3c-3.4,0.4-5.2,3.1-8.1,2.1c-2.3-0.8-3-3.5-1.6-5.6
			c1.6-2.3,4.6-2.8,7.7-2.9c7.1-0.2,14.9,0.5,21.4-4.4c0.2-0.1,0.3-0.3,0.3-0.5c0.3-0.2,0.4-0.6,0.2-1c-3.4-7.1-2-17.4,5.7-20.6
			c8.6-3.5,14.9,4.4,19.4,11.4c11.1,17.1,26.7,30.6,45.9,37.8c0.1,0.1,0.1,0.2,0.3,0.3c0.4,0.3,0.9,0.1,1.2-0.2
			c4.3-6.4,13.4-5.8,19.4-1.7c3.6,2.4,6.5,5.5,9.8,8.5c2.8,2.6,5.6,4.3,9,5.7c-1.4,1.6-2.9,4.6-1.1,6.8c-0.4,0-0.7,0.1-1.1,0.1
			C378.5,223.3,371.1,218.5,361.8,217.2z"/>
		<path class="st0" d="M362.1,209c-1.2,0.9-0.5,3,1.1,2.7C365.5,211.3,364.1,207.6,362.1,209z"/>
		<path class="st0" d="M590.2,560.8c-1.1,3.7-0.8,7.6,0.9,11.1c1,2,2.8,5.1,5.6,5.8c0,0.1,0.1,0.1,0.1,0.1c-1.7,6-0.7,12.8,2.8,18
			l0.5,0.6v-3.1l-0.3-0.4c-2.4-4.9-2.9-10.8-1-15.9c0.1-0.2,0-0.3,0-0.5c0.3-0.5,0.6-0.9,1-1.3l0.2-0.2v-0.8v-1.6v-0.3l-0.5-0.4
			c-2.4-2.1-3.5-5.9-3.2-9.1c0.2-2.2,1.1-4,2.1-5.8l1.5-2.4v-4.6l-0.8,0C594.5,550.7,591.2,557.6,590.2,560.8z M599.7,551.6
			l-0.9,1.6c-1.8,2.8-3.8,5.8-4.2,9.4c-0.3,3.8,1,8.5,4.3,11l-0.5,0.6c-0.5,0.6-0.9,1.2-1.4,1.9c-2-0.5-3.5-2.8-4.5-4.9
			c-1.5-3.1-1.8-6.6-0.8-9.9c1.1-3.5,4.1-9,7.6-9.7H599.7z"/>
		<path class="st0" d="M0.9,594.9L0,593.4v3.1l0.8,1.1c0.4,0.5,0.9,1,1.3,1.5l0.8,0.9H5l-0.2-0.3C3.5,598.1,1.9,596.5,0.9,594.9z"/>
		<path class="st0" d="M18.7,593.3c-0.2,0-0.3,0-0.5,0.1c-2.3,0.4-4.6,1.1-6.9,2.1c-0.4,0.2-0.6,0.7-0.4,1.2c0.5,0.9,1,1.9,1.5,2.9
			l0.2,0.5h1.8l-0.5-1.2l-1.1-2.2l1.5-0.6c1.3-0.5,2.7-0.8,4.1-1c1.1,0.8,1.9,1.9,2.5,3.3l0.5,1.7h1.7l-0.3-1.1
			c-0.5-1.5-1.2-3-2.3-4.2c1.9-0.2,3.8-0.1,5.7,0.1c0,0.1,0.1,0.2,0.2,0.3c1.2,1.2,2.2,2.6,2.8,4.2l0.2,0.6h1.8l-0.5-1.3
			c-0.5-1.3-1.2-2.5-2.1-3.6c4.1,0.8,8.1,2.3,11.8,4.4l0.7,0.4h3.1l-1.3-0.8C35.7,594.6,27.1,592,18.7,593.3z"/>
		<path class="st0" d="M84.7,595.2c-10.9-13.8-23.7-25.7-41.4-30c-12.4-3-32.1-3.4-42.8,6.7l-0.4,0.5L0,572.2v0.3v1.7v0.7l1.8-1.9
			c10-9.3,28.8-9.3,41.2-6.2c17.1,4.2,29.7,15.8,40.5,29.5c0.7,0.9,1.4,1.9,2.1,2.9l0.5,0.8h2l-1.1-1.8
			C86.2,597.2,85.5,596.2,84.7,595.2z"/>
		<path class="st0" d="M1.9,551.1c0.2-0.5,0-1.1-0.6-1.2c-0.4-0.1-0.7-0.1-1.1-0.1l-0.2,0v4.6l0.2-0.3
			C0.8,553.2,1.3,552.2,1.9,551.1z"/>
		<path class="st0" d="M48,5.1c10.7,9.3,17.2,22,25.9,33.3c0,0,0,0,0.1,0c-4.6,8.2-6.4,18.4-0.4,26.4c1.5,1.9,4.6,5.2,8,3.8
			c2-0.8,2.6-2.7,2.8-4.8c0.8,0.6,1.7,1,2.2,1.5c0.9,0.9,0.9,1.8,1.3,3.4c0.7,2.6,3.2,6.2,6.6,3.5c3.4-2.6,0.8-7.1-0.2-9.1
			c-1.6-3.3-3.4-6.5-3.8-9.9c0.9,0.2,1.9,0.3,2.8,0.1c1.7,2.1,3.5,4,5.6,5.7c0,0,0,0,0,0.1c-0.6,2.7-1,6.7,1.9,9
			c1.1,0.8,2.9,1.7,4.5,0.3c1.2-1.1,1.1-2.9,1-4.1c1.2,0.7,2.4,1.3,3.6,1.8c3.3,1.3,8.3,0.2,6.6-4.9c-0.5-1.6-1.3-3.2-2-4.8
			c3.2-0.3,4.1-2.9,4-5.6c-0.1-2.9-1.2-6.2-1.9-7.8c-2.3-5.4-5.1-11.4-10.1-15.3c-0.1-0.1-0.2-0.1-0.3-0.1c-0.3-0.8-0.7-1.7-1.2-2.5
			c-1.4-2.1-3.8-4.2-6.5-4.7c-2.8-3.7-4.3-8-6.1-12.4c-1-2.3-2-4.4-3.3-6.6L88,0.2h-2l1.3,2.2c1.2,2,2.2,4.2,3.2,6.4
			c1.7,3.9,3.1,8.1,5.6,11.7c-0.5,0.1-1,0.2-1.5,0.4c-0.4,0.2-0.6,0.6-0.5,1.1s0.6,0.6,1.1,0.5c3-1.1,6.3,0.9,8.1,3.7
			c2.1,3.2,2.2,7.2,2.9,11.3c0.8,4.3,1.9,8.6,3.3,12.7c1.3,3.7,3,6.6,4.4,9.9c-2.5-0.1-5,1.4-5.8,3.8c-2.9-1.5-5.7-3.5-8.1-5.6
			c-5.9-5.1-10.6-11.7-13.2-19.1c0,0,0-0.1-0.1-0.1c0.3-0.4,0.6-0.8,1.1-1.1c0.4-0.3,0.4-0.8,0.2-1.2c-0.3-0.4-0.8-0.4-1.2-0.2
			c-3.3,2.4-3.6,6.8-3.7,10c-0.3,4.2-0.2,8.4-0.4,12.6c0,0.7,0,1.4,0,2c-0.1,0.2-0.1,0.4-0.1,0.7c0,0.1,0.1,0.1,0.1,0.2
			c0,2.3-0.1,4.5-1.8,5.2c-2.1,0.9-4.5-1.1-6.1-3.2c-7.5-10.1-1.6-24.6,6.7-32.8c0.3-0.3,0.3-0.8,0-1.2c-0.3-0.3-0.8-0.3-1.2,0
			c-2,2-3.9,4.4-5.5,7.1C66.6,26,59.7,13.2,49.1,3.9c-1.3-1.1-2.6-2.1-4-3.1l-0.9-0.6h-3.1L42.5,1C44.4,2.2,46.3,3.6,48,5.1z
			 M103.9,67.3c-0.6,0.5-1.4,0.4-2.3-0.4c-1.8-1.4-1.9-4.1-1.4-6.6c1.3,1.1,2.8,2.1,4.2,3.1C104.1,65.1,104.7,66.6,103.9,67.3z
			 M107.9,37.1c-0.4-2-0.6-4.3-1.1-6.6c3.6,3.5,6,8.5,8,13.2c0.7,1.6,1.7,4.7,1.8,7.3c0.1,2.4-0.7,3.9-3.1,3.9
			c-0.9-1.8-1.7-3.6-2.3-5.4C109.7,45.5,108.6,41.3,107.9,37.1z M114.7,61.9c-0.1-0.1-0.1-0.1-0.2-0.2c0.1,0,0.1,0,0.2,0
			C114.6,61.8,114.7,61.9,114.7,61.9z M84.4,59.2c0.1-4.2,0.1-8.4,0.4-12.5c0.1-2,0.3-4.1,1-5.8c1.6,4,3.7,7.7,6.2,11.1
			c-1,0-2.2-0.4-3.5-0.9c-0.4-0.2-0.9,0-1.1,0.4c-0.2,0.4,0,0.9,0.4,1.1c0.3,0.1,0.6,0.3,0.9,0.4c0.3,4.1,2.4,7.8,4,11.2
			c1.3,2.7,2.7,5.5,0.7,7c-1.9,1.4-3.4-0.2-4-2.7c-0.3-1.2-0.4-2.8-1.7-4.2c-1.2-1.2-2.7-1.5-3.3-2.6C84.4,60.8,84.3,59.9,84.4,59.2
			z"/>
		<path class="st0" d="M4.7,2.5C6.3,5,5.7,7,6.2,10.4c1.1,7.2,8.9,4.8,9.8-1c0.4-2.6-0.1-5.3-1-7.9l-0.5-1.3h-1.8L13,1.3
			c1,2.6,1.6,5.4,1.2,7.9c-0.6,4.2-5.7,6.1-6.5,1C7.4,7.5,8,4.5,6.1,1.6L5,0.2H2.9l0.6,0.6C3.9,1.3,4.3,1.9,4.7,2.5z"/>
		<path class="st0" d="M22,3.1c0.3,2.4,0.8,6.9,4.7,7.5c4.2,0.7,5.3-3.5,5.3-6.1c0-1.4-0.2-2.9-0.6-4.3l0-0.1h-1.8l0.2,0.6
			c0.4,1.2,0.6,2.5,0.6,3.8c0,2.7-1,4.8-3.3,4.4c-2.5-0.4-3-3.2-3.4-6.1c-0.1-0.8-0.2-1.7-0.4-2.5l0-0.2h-1.7l0.2,0.5
			C21.7,1.5,21.9,2.3,22,3.1z"/>
		<path class="st0" d="M97.7,38.4c-0.7-0.9-2.5-0.7-3,0.4c-0.4,1,0.4,2,1.4,2.3C97.5,41.4,98.5,39.4,97.7,38.4z"/>
		<path class="st0" d="M178.7,45.2c4.7-5.6,8.2-12.4,10.5-19.4c0.1-0.4-0.1-0.9-0.5-1c-0.4-0.1-0.9,0.1-1.1,0.5
			c-2.3,6.8-5.7,13.4-10.2,18.8c-2.8,3.3-9.6,8.4-12.3,2.5c-1.6-3.6,2.8-8.1,5.6-11c4-4.1,10.2-7.9,12.5-14c0.2-0.4-0.1-0.9-0.5-1.1
			c-0.4-0.2-0.9,0.1-1.1,0.5c-2.1,5.7-7.7,8.9-12.1,13.5c-2.4,2.5-8.2,8-6,12.9C167.1,55,175.5,49,178.7,45.2z"/>
		<path class="st0" d="M157.7,50.6c-2,5.1-3.5,10.7-2.3,16.4c0.6,3,2.4,8.6,6.8,9.1c3,0.3,4.2-1,4.2-3.1c0-1.6-0.9-3.7-1.3-4.9
			c-1.4-4.1,1.8-9.1,5.6-11.2c2,0.4,4.2,0.7,6.4,0.8c-2.3,5.7-0.6,15,5.6,17.8c1.3,0.6,4.2,1.2,5.3-1.2c1-2.1-0.9-4.5-1.1-5.6
			c-0.6-4,1.5-8,2.3-12.4c7.3-2.2,13.3-6.9,14-15.2c2.8,0.2,5.7,0.2,8.5-0.3c0.1,0.1,0.2,0.2,0.3,0.2l0.2,0l0.2,0.5l0,0.1
			c0.6,1,1.2,2.2,1.9,3.3c-1.9,4.5-0.5,9.4,1.2,13.5c0.7,1.6,1.6,2.7,1.7,4c0.1,1-1.8,1.8-1.2,3.9c0.6,2.3,2.8,2.9,4.6,2.4
			c2.3-0.7,3.3-2.7,3.8-4.5c1.4-4.9,0-8.5,2.8-12.1c0,0,0,0,0,0c2.3-0.1,4.6-0.7,6.7-1.8c2.2,3.6,1.6,7.6,0.5,11.9
			c-0.4,1.6-1.1,4.2,1.4,5.6c2,1.1,4.3,0.2,5.5-1.3c1.7-2,1.2-4.7,1.4-6.4c0.2-2.2,1.5-3.4,2.3-6c1.5-4.4,0.5-9.5-2.3-13.2
			c1.5-4.2,0.9-8.8,0.3-12.9c5.4-0.9,11.3-2.5,14.3-7.7c3.3-5.6,2.7-14.4-2.5-18.9c-0.1-0.1-0.3-0.3-0.6-0.5l-1-0.8h-3.7l-0.1,0.2
			c-0.1,0.2-0.1,0.3-0.1,0.5c-0.2,1.6,1.5,4.3,1.7,5.2c0.4,1.8,0.8,3.5,0.6,5.1c-0.4,2.9-1.9,5.4-4.4,6.8c-2.2,1.3-5.7,2.3-7.9,1.4
			c-1.2-6.5-3.4-13.1-6.7-19l-0.1-0.2h-1.9l0.6,1c3.1,5.6,5.2,11.9,6.4,18.1c0,0,0,0,0,0c-0.2,0.4-0.1,0.9,0.3,1.1
			c3.1,1.9,7.8,0.4,10.3-1.1c2.9-1.7,4.7-4.7,5.2-8.1c0.3-2-0.2-3.9-0.6-5.6c-0.3-1.5-1.8-3.6-1.6-4.6l0.1-0.2l0.4,0.1
			c0.6,0.3,1.5,1,2.4,1.7c4.5,3.8,5.1,11.7,2.1,16.8c-3.4,5.7-10.9,6.5-17.4,7.5c-0.5,0.1-0.8,0.5-0.7,0.9c0.1,0.4,0.5,0.8,0.9,0.7
			c0.9-0.1,1.7-0.3,2.7-0.4c0.6,4.2,1.2,8.6-0.4,12.4c-0.1,0.3,0,0.6,0.1,0.9c0,0,0,0.1,0.1,0.1c2.6,3.3,3.6,7.9,2.2,11.9
			c-0.6,1.7-2.2,4-2.4,6.3c-0.3,2.5,0.3,4-1,5.5c-0.9,1.1-2.3,1.5-3.4,0.9c-1.2-0.7-1.1-1.9-0.6-3.7c1.1-4.3,1.9-8.9-0.7-13.1
			c0.6-0.4,1.2-0.8,1.7-1.2c0.4-0.3,0.4-0.8,0.1-1.2c-0.3-0.4-0.8-0.4-1.2-0.1c-3.6,2.8-7.8,4.2-12.2,3.1c-0.4-0.1-0.9,0.1-1,0.6
			c-0.1,0.4,0.2,0.9,0.6,1c0.6,0.2,1.2,0.3,1.9,0.4c-2.2,3.7-1.5,8.4-2.4,11.8c-0.5,1.7-1.2,2.9-2.7,3.3c-1.3,0.4-2.3-0.1-2.6-1.2
			c-0.4-1.5,1.4-1.4,1.3-3.6c-0.1-1.6-1.4-3.5-1.9-4.5c-1.6-3.8-2.7-7.9-1.4-11.6c0.1,0,0.3-0.1,0.4-0.2c0.4-0.3,0.4-0.8,0.2-1.2
			c-0.9-1.2-1.5-2.5-2.4-4c0,0,0-0.1-0.1-0.3c2.8-0.6,5.4-1.5,7.8-2.8c2-1.1,8.4-4.9,7.5-8.9c-0.7-2.9-5.1-2.5-6.1-2.4
			c-3.5,0.1-6.7,0.3-10.1-0.3c-0.8-0.1-1.7-0.3-2.6-0.6c0-0.1,0-0.1-0.1-0.2c-1.1-1.9-1.6-4.7-3.4-6.9c-1.4-1.5-3.6-4.1-6.4-4
			c0,0-0.1,0-0.1,0c-0.6-1-1.4-1.9-2.3-2.6c-2.5-2-5.8-2.7-8.9-2.8c-9.9-0.1-13.2,8-16.2,15.4c-0.2,0.4,0,0.9,0.5,1.1
			c0.4,0.2,0.9,0,1.1-0.5c3.1-7.6,6-14.5,14.7-14.4c2.8,0,5.7,0.7,7.8,2.4c1,0.8,1.8,1.8,2.3,3c0.7,1.7,0.1,3.2,0.7,5.1
			c1.5,4.2,9.6,5.8,12.6,6.4c3,0.6,5.8,0.5,8.6,0.4c-0.2,2,0.9,5,2.7,6.2c-1.1,0.8-2.2,1.5-3.1,2c-7.4,4-17.4,4.2-25.3,1.7
			c-0.4-0.1-0.9,0.1-1,0.5c-0.1,0.4,0.1,0.9,0.5,1c2.1,0.7,4.3,1.2,6.6,1.4c-1.3,14.7-21.7,17.6-33.9,13.5c-0.4-0.1-0.9,0.1-1.1,0.5
			c-0.1,0.4,0.1,0.9,0.5,1c0.4,0.1,0.8,0.3,1.2,0.4c-3.6,2.7-6.6,7.7-5,12.3c0.5,1.4,1.2,3.1,1.2,4.4c0,0.9-0.2,1.7-2.4,1.4
			c-3.1-0.3-4.7-4.5-5.4-7.8c-1.1-5.2,0.3-10.5,2.3-15.6c0.1-0.2,0.1-0.5-0.1-0.7c0.1-0.3,0-0.7-0.3-0.9c-15.5-12-16.5-33-6.9-48.5
			l0.6-0.8h-2L149.6,2C140.9,17.7,142.2,38.4,157.7,50.6z M201.8,20.6c-0.4-1.1-0.1-2.9-0.6-4.5c1.7,0.3,3.2,1.9,4.5,3.4
			c1.5,1.8,1.7,3.3,2.6,5.4C205.4,23.9,202.5,22.5,201.8,20.6z M187.7,56.7c-0.8,3.6-2.8,8.2-2.1,12.2c0.3,1.8,1.8,3.5,1.2,4.7
			c-0.4,0.9-1.8,1-3.2,0.4c-5.3-2.4-7-11-4.6-16.1c0,0,0-0.1,0-0.1C181.9,57.7,184.9,57.4,187.7,56.7z"/>
		<path class="st0" d="M194.3,21.3c-2.4-0.3-2.4,3-0.5,3.5C195.9,25.3,196.6,21.6,194.3,21.3z"/>
		<path class="st0" d="M219.5,584.9c-17.9-12.6-44.3-8.5-60.3,5.1c-3.4,2.9-6.2,6.3-8.5,10l0,0h2l1.8-2.6c1.7-2.2,3.7-4.3,5.8-6.2
			c15.5-13.3,41.1-17.2,58.2-5c4.8,3.3,8.6,7.7,11.6,12.7l0.7,1.1h1.9l-1.2-2C228.4,592.9,224.4,588.4,219.5,584.9z"/>
		<path class="st0" d="M250,599.7l-0.1,0.3h3.7c-0.8-0.5-1.8-1-2.5-0.9C250.6,599.2,250.2,599.4,250,599.7z"/>
		<path class="st0" d="M358.4,595.1c-2.5,0.2-4.3,1.7-5.5,3.6l-0.7,1.3h1.9l0.2-0.4c1-1.6,2.4-2.7,4.2-2.9c2-0.2,4.1,1.2,4.3,3.1
			v0.2h1.7v-0.4C364.1,596.6,361,594.9,358.4,595.1z"/>
		<path class="st0" d="M378.9,589c-3.7-2.3-7.5,1.5-9,3.7c-1.4,2-2.3,4.4-2.6,6.8l0,0.5h1.7l0-0.3c0.2-2.1,1-4.2,2.3-6.1
			c1.7-2.4,4.5-4.6,6.7-3.2c0.7,0.4,1.1,1.2,1,1.9c-0.2,1.4-1,0.8-2.6,2.3c-1.2,1.1-1.8,2.6-1.9,4.2l-0.1,1.2h1.7l0-0.5
			c0.1-1.4,0.5-2.8,1.5-3.7c0.5-0.5,2.8-1.2,3.1-3.3C380.9,591,380.1,589.7,378.9,589z"/>
		<path class="st0" d="M326.2,575.4c-1.1,4.4-0.8,8.6-1.9,13c-0.8,3.2-1.9,6.3-3.3,9.2l-1.3,2.4h1.9l0.9-1.7c1.5-3,2.6-6.2,3.5-9.5
			c1.1-4.3,0.9-9.1,1.9-13.1c1-4,4.6,0,5,0.5c5.5,6,7.8,15.4,5.1,23.1l-0.3,0.7h1.8l0.1-0.2c2.9-8.3,0.4-18.4-5.5-24.7
			C330.8,571.5,327.3,570.8,326.2,575.4z"/>
		<path class="st0" d="M308,596.1c-3.2-0.8-8.2-2.3-11.8-0.1c-1.3,0.8-2.2,2-2.5,3.5l0,0.6h1.7l0-0.2c0.2-0.9,0.8-1.8,1.7-2.4
			c2.8-1.8,7-0.6,10.5,0.3c1.6,0.4,3,0.9,4.3,1.7l1,0.6h2.6l-0.2-0.2C313.4,598,310.9,596.8,308,596.1z"/>
		<path class="st0" d="M333.5,590.8c-0.3,0.3-0.3,0.8,0,1.2c1.1,1.2-0.3,3.7-2.1,3.1c-0.4-0.1-0.9,0.1-1,0.5c-0.1,0.4,0.1,0.9,0.5,1
			c3.5,1.1,6.2-3.3,3.8-5.8C334.4,590.5,333.9,590.5,333.5,590.8z"/>
		<path class="st0" d="M364.1,17.1c0.4,0.2,0.9,0,1.1-0.4c0.2-0.4,0-0.9-0.4-1.1c-3.2-1.6-7.5-7.8-4.4-10.2c0.8-0.6,2-1.2,2.9-2.2
			c0,0,0,0,0.1,0c1.4,0.5,2.9,0.9,4.4,1.2c0,0,0,0,0,0c0.2,0.2,0.5,0.3,0.8,0.2c0.4-0.1,0.7-0.6,0.6-1C369.1,2.8,369,2,369,1.1
			l0.1-0.9h-1.7l0,0.9c0,0.5,0,1,0.1,1.5c-1.1-0.2-2.1-0.5-3.2-0.9c0.1-0.3,0.2-0.5,0.2-0.9V0.2h-1.6l0,0.5c-0.2,1.5-1.6,2-3.4,3.4
			C354.4,8.1,360.9,15.5,364.1,17.1z"/>
		<path class="st0" d="M337.9,6.1c1.7,1.1,5.5,0.1,6.7-0.1c2.1-0.3,4.2-0.9,6.2-1.4c0,0.1,0,0.2-0.1,0.3c-0.9,5.7,0.8,11.7,4.5,16.1
			c0.3,0.4,0.8,0.4,1.2,0.1c0.4-0.3,0.4-0.8,0.1-1.2c-3.3-4-4.9-9.7-4.1-14.8c0.2-1.4,0.6-2.8,1.3-4.2l0.5-0.9h-1.9l-0.1,0.2
			c-0.4,0.8-0.7,1.7-0.9,2.5c-0.1,0-0.1,0-0.2,0c-2.3,0.5-4.5,1.1-6.7,1.5c-1.7,0.3-4.5,0.9-5.5,0.3c-1.3-0.8-0.1-2.8,0.5-4.2
			l0.1-0.3h-1.8l-0.4,1C336.5,3,335.9,4.8,337.9,6.1z"/>
		<path class="st0" d="M279.5,27.8c6.8,3.8,15.5-3.4,21.3-4c5.4-0.5,13.8,1.1,18.3-4.3c5.3,6.3,13,8.7,20.8,9.3
			c4.6,0.3,9,0.3,13.4,0.9c4.2,0.6,8.3,1.6,12.4,2.8c15.8,4.6,31.5,12.7,41.9,25.6c-5.4,1.2-14.4,4.1-13.4,11.7
			c0.9,7.1,9.4,10,15.6,10.6l1.5,0.1l-0.2,1.2c-0.2,2.4,0.7,5.2,3,6.5c2.1,1.2,3.7,0.6,4.6-1c0.7-1.3,0.7-3.2,0.5-4.5
			c-0.3-1.9-0.7-3.4-0.4-5.1c0.2-0.8,1.4-2.8,0.2-4.5c-1.3-1.8-4.6-2.1-4.4-3.6c0.1-0.8,0.5-1.3,4.8-2c2.7-0.4,5.7-0.8,8.4-2
			c0.4-0.2,0.7-0.3,1-0.5c5,3.1,9.7,13.8,12.4,18.4c0.5,0.8,1.7,0.4,1.5-0.5c-0.6-4.5-1.7-9-3.7-13.2c-1.2-2.4-3.3-6.8-6-8.6
			c1.5-2.5,2-5.5,1.9-8.7c0.2-0.2,0.3-0.4,0.3-0.7c-0.1-0.6,0.6-1.4,1.4-1.4c1-0.1,1.4,0.6,2.7,1.6c2.9,2.3,6.2,1.7,8.8-0.6
			c1-0.9,4.7-5.5,1.1-7.3c-1.4-0.7-2.9,0.1-4.5,1.1l-0.7,0.5l-1-2.5c-1.3-3.6-2.5-7.6-6.1-10c-2.5-1.7-6.1-2.5-9.2-1.5
			c-2.3,0.8-3,2.7-3.3,4.5c-6.4-6.4-13.1-12.4-20.1-18.1c-8.2-6.6-17.2-13.2-27.9-15.3V2.4c0-0.2-0.1-0.4-0.3-0.6l-0.1-0.7l0-0.9
			h-1.7l0.1,1.1c0.1,0.8,0.2,1.5,0.4,2.1c0.1,0.3,0.3,0.5,0.5,0.6c0.1,0.2,0.3,0.3,0.5,0.4c10.4,2,19.2,8.4,27.4,15.1
			c9,7.3,17.5,15.2,25.5,23.6c0.3,0.3,0.8,0.3,1.2,0c0.3-0.3,0.3-0.8,0-1.2c-1.3-1.4-2.7-2.8-4.1-4.2c0.3-2.3,0.6-3.8,2.4-4.4
			c2.4-0.8,5.5-0.2,7.7,1.3c4.2,2.9,4.5,7.8,6.9,12.7c0.2,0.4,0.8,0.6,1.2,0.3c1.6-1.1,3.4-2.5,4.3-2.1c1.3,0.7-0.1,3.3-1.5,4.6
			c-2.1,1.9-4.5,2.2-6.7,0.6c-0.7-0.6-1.9-2.2-3.8-2c-1.2,0.1-2.4,0.9-2.8,2.2c-0.3,0.2-0.4,0.4-0.4,0.8c0.3,5.1-0.8,9.2-4.9,11.6
			c-0.1,0-0.1,0-0.1,0.1c-0.4,0.2-0.7,0.4-1.2,0.6c-2.5,1.1-5.2,1.4-8,1.8c-1.1,0.2-5.7,0.4-6.2,3.4c-0.4,2.9,4.1,4.1,4.7,4.8
			c0.7,1,0,1.2-0.4,3.2c-0.4,2,0.1,4,0.4,5.7c0.2,1.2,0.1,2.6-0.4,3.5c-0.3,0.6-0.8,1.1-2.3,0.3c-2.1-1.2-2.6-4.4-1.8-6.8
			c0.2-0.5-0.2-1.1-0.8-1.1c-6.3,0.1-15.6-2.6-16.5-9.2c-0.8-6.4,7.4-9,13.2-10.1c0.4-0.1,0.8-0.5,0.7-1c0-0.1-0.1-0.3-0.2-0.4
			c0-0.2,0-0.4-0.2-0.6c-10.7-13.5-27-21.9-43.2-26.6c-4.1-1.2-8.3-2.2-12.6-2.9c-4.5-0.7-9.1-0.6-13.5-0.9
			c-7.9-0.6-15.2-3-20.1-9.2c-0.1-0.2-0.2-0.3-0.3-0.5c-0.4-0.3-0.9-0.2-1.2,0.2c-3.8,5.6-11.2,3.8-17.9,4.4
			c-6.6,0.6-14.4,7.5-20.3,4.2c-2.7-1.5-2-4.5,0.4-6.8c2.7-2.5,6-3.1,9.8-2.8c8.4,0.7,17.5,2,25.4-3.1c0.2-0.1,0.3-0.3,0.3-0.4
			c0,0,0.1,0,0.1,0c0.5-0.1,0.7-0.5,0.6-1c-0.9-3.9,1.7-7.1,3.9-10.7l0.7-1.3h-1.9l-0.2,0.4c-0.5,0.8-1.1,1.7-1.7,2.7
			c-0.4-0.8-0.9-1.5-1.4-2.1l-0.9-1H313l0.2,0.1c1.5,1.1,2.8,2.6,3.7,4.6c0,0,0.1,0.1,0.1,0.1c-0.6,1.1-1.1,2.2-1.4,3.4
			c-4.2-3.5-9.5-4.2-14.5-4.4c-2.4-0.1-4.6-0.3-5.4-2.2c-0.2-0.4-0.2-0.8-0.2-1.1l0.1-0.3h-1.7l0,0.3c0,0.6,0.1,1.2,0.4,1.8
			c1.3,3,4.7,3.2,6.8,3.3c5.2,0.2,10.2,1,14,4.5c0.1,0.1,0.2,0.1,0.3,0.2c0,0.6,0,1.3,0.1,2c-0.1,0-0.2,0.1-0.3,0.1
			c-7.4,4.7-15.8,3.6-24.4,2.9c-4-0.3-7.9,0.2-11,3.2C277.2,20.6,275.1,25.3,279.5,27.8z M432,62.5c2.3,1.4,4.2,5.4,5.5,8
			c1,2,1.7,4.1,2.3,6.2l0.3,1.2l-1.3-2.4c-2.4-4.3-5.3-9.1-8.5-11.4C430.9,63.5,431.5,63,432,62.5z"/>
		<path class="st0" d="M324.5,5.4c2.3,0.1,2.2-3.5,0-3.4C322.8,2.2,322.4,5.3,324.5,5.4z"/>
		<path class="st0" d="M14.8,356.7c-1.7,8.5,1.2,20.4,9.8,24.7c1.6,0.8,5.4,2.1,7.1-0.7c1.4-2.2-0.2-5.2-1.2-6.6
			c-2.5-3.9-6.8-6.6-5.4-10.7c3.8,0.7,7.8,0.2,11.2-1.5c0.7,3.1,2.2,6.2,4.9,8.2c1.8,1.3,5.4,3.1,8,1.2c3.3-2.4,0.5-6.5-0.6-8.1
			c-2-2.9-4.1-5.5-5-8.6c0-0.1-0.1-0.1-0.1-0.2c2.3-0.8,4.4-2.1,6-4.1c2.4-2.8,3.7-6.8,2.8-10.5c-0.6-2.5-2.6-6.2-6.2-5.9
			c-0.4,0-0.8,0.4-0.8,0.9c0.2,4.1-0.1,8.7-3.3,11c-0.5,0.4-1.1,0.7-1.7,1c-4.1-10.7-9-21.3-15.8-30.7c-5.7-7.9-13.8-17.1-23.6-20.7
			c3.6-1.6,6.6-4.4,5.5-9.2c-0.8-3.3-3.4-4.4-6.3-4.6H0v1.6h0.1c2.3,0.2,4.3,1.1,4.8,3.4c0.8,3.7-1.5,6-4.8,7.4L0,294v1.1v0.7v1.1
			l0.4,0.1c9.3,3.3,17.1,12.2,22.9,20.1c6.7,9.2,11.5,19.6,15.6,30.3c-3.1,0.9-6.7,0.6-8.9-1.4c-0.3-0.3-0.9-0.3-1.2,0
			c-0.3,0.3-0.3,0.9,0,1.2c3.8,3.5,10.6,2.8,14.3-0.1c2.9-2.2,3.8-5.8,3.9-9.2l0-2.3h0c1.8,0.4,3.1,2.4,3.6,4.6
			c0.7,3.1-0.3,6.6-2.4,9.1c-3.9,4.6-10.8,5.4-16.5,3.7c-0.4-0.1-0.9,0.1-1,0.6c-0.1,0.4,0.1,0.9,0.6,1c3.3,1,7.2,1.2,10.7,0.3
			c0,0.1,0,0.1,0,0.2c0.9,3.5,3.4,6.4,5.2,9.1c1.5,2.2,2.8,4.5,1,5.8c-1.6,1.1-4.2,0.1-6-1.2c-2.4-1.8-3.8-4.7-4.3-7.7
			c0.8-0.5,1.6-1.1,2.4-1.8c0.3-0.3,0.4-0.8,0-1.2c-0.3-0.3-0.8-0.4-1.2,0c-3.7,3.4-9.2,4.8-14.1,3.7c-0.4-0.1-0.9,0.2-1,0.6
			c0,0,0,0,0,0c-0.2,0.1-0.3,0.3-0.4,0.5c-1.8,5.2,3.7,9.3,5.6,12.2c1.1,1.6,1.9,3.6,1.1,4.8c-0.9,1.3-3.1,1-5,0.1
			c-7.7-3.8-10.6-14.9-8.9-23c0-0.1,0-0.2,0-0.3c0.2-0.4,0-0.9-0.4-1.1c-6.1-2.5-10.1-8.1-14-13.6l-2-2.8v2.9l0.5,0.8
			C4.4,348.2,8.6,353.9,14.8,356.7z"/>
		<path class="st0" d="M558.4,281.3c0.5,2.5,5,0.9,3.8-1.6C561.2,277.6,557.3,278.9,558.4,281.3z"/>
		<path class="st0" d="M592.5,282.5c-4.3,1-8.6,2.7-12.8,3.6c-0.1-0.2-0.2-0.5-0.4-0.6c-1.8-0.8-1.7-3.1-1.1-5.4
			c0.9-3.5,1.9-6.4,2.9-10c0.2-0.6,0.6-2.3,0.6-3.8c0-0.9-0.2-2.1-1-2.7c1.6-7.8-7.8-11.8-13.2-7.6c-0.4-2.4-1.2-5.6-3.3-7.1
			c-3.8-2.8-6.7,1.7-7.3,4.3c-0.5,2.2-0.3,4.9-0.6,6.9c-0.3,2.6-1.2,5.2-2.1,7.7c-2.7,7.3-6.6,16.3-4.2,24.1
			c-5.2,2.2-10,5.7-12.8,10.8c-2.4,4.3-4.8,12.9,1,16.7c3,2,5.4,0.6,6.9-1.6c1.5-2.1,2.4-5,2.8-6.9c0.9-4.8,1.5-9.9,5.7-12.1
			c0.2-0.1,0.3-0.3,0.4-0.5c0.4,0.4,0.7,0.7,1.2,1.1c0.1,0.1,0.2,0.1,0.4,0.2l8.7,5.8l-1.8,0.4c-4.4,1.1-9.1,3.8-9,8.9
			c0,2.1,1.1,5.8,4.4,5.9c3.9,0.1,2.7-4.3,4.2-5.5c1.8-1.5,4.9-2.2,7.6-2.3c0,0,0,0,0,0c-0.7,2.6,0.5,5.8,2.9,7.1
			c3.3,1.8,5.5-1,6.6-3.1c0.6,0.6,1.3,1.3,1.9,1.9c5.6,5.8,10.8,12.2,15.8,18.6c0.6,0.8,1.3,1.7,1.9,2.6l1.4,1.9V339l-2-2.6
			c-5-6.4-10.2-12.9-15.9-18.8c-2.8-2.8-5.8-5.9-10.3-6.4c-3.2-0.3-8.2,0.4-10.9,2.6c-2.3,1.8-0.8,5.2-3.1,5.2
			c-1.8-0.1-2.8-2.1-2.8-4.3c-0.1-5,6.6-7.6,11.5-7.8c0.8,0,1.1-1.1,0.4-1.5c-3.6-2.4-7.5-5-11.1-7.5c0,0,0,0,0,0
			c-8.8-8.1-3.9-19.3-0.1-29.4c1-2.6,1.9-5.3,2.2-8.1c0.3-2.6,0-4.5,0.5-6.7c0-0.1,0.1-0.3,0.1-0.4c0.8,0.4,2,0.2,2.8,0.2
			c0.9,0,2.6-0.3,3.2-1.2c0.8,1.6,1.1,3.7,1.4,5.5c0.6,3.3,0.8,6.8,0.8,10.2c0,1,0,2.1,0,3.1c-0.1,1.8-1.1,5.6-0.1,7.9
			c0.7,1.6,2,1.9,3.3,1.1c1-0.6,2-1.9,2.9-3.2c1.8-2.7,3.3-6.1,3.6-6.9c0.7-1.8,1.4-5,2.6-5.1c0.5-0.1,0.9,0.2,0.9,1.5
			c0,1.2-0.4,2.7-0.5,3.4c-0.8,3.1-2.1,6.8-2.8,10c-0.4,1.8-1,5,1.1,6.7c-3.2,0.4-6.3,0.2-9.4-1.3c-0.4-0.2-0.9,0-1.1,0.4
			c-0.2,0.4,0,0.9,0.4,1.1c8.5,4.2,17.7-0.6,25.4-2.5c1.6-0.4,3.6-0.8,5.4-0.9l1.7,0v-1.6l-1.9,0
			C595.9,281.7,593.8,282.2,592.5,282.5z M577.8,315.7c-0.1,0.1-0.2,0.2-0.2,0.3c-1.1,2.2-2.6,3.5-4.4,2.5c-1.7-0.9-2.7-3.3-2.1-5.2
			c0-0.2,0-0.3,0-0.5c0.2,0,0.4,0,0.6,0C574.1,313.1,576,314.2,577.8,315.7z M552.7,297.4c-5,2.7-5.7,8.9-6.5,13.3
			c-0.5,2.6-2.8,10.3-7.2,7.4c-4.4-2.9-2.9-10.1-0.4-14.5c2.6-4.7,7-7.9,11.9-10.1c0.6,1.3,1.4,2.6,2.4,3.8
			C552.9,297.4,552.8,297.4,552.7,297.4z M571.4,276c-0.9,1.3-1.7,2.3-2.3,2.7c-0.4,0.2-0.6,0.3-0.9-0.4c-0.8-1.9,0.2-4.5,0.2-7.2
			c0-0.3,0-0.7,0-1c1.6,1,3.8,1.6,5.6,1.3C573.4,272.6,572.5,274.4,571.4,276z M574.9,269.4c0,0.1-0.1,0.2-0.1,0.3
			c-0.2-0.1-0.4-0.1-0.6-0.1c-1.8,0.5-4.3-0.3-5.7-1.6c0,0,0-0.1,0-0.1c-0.1-3.3-0.3-6.6-0.8-9.9c0,0,0.1,0,0.1-0.1
			c4.4-4.5,12.3-0.7,11.2,5.3c0,0-0.1,0-0.1,0C576.4,263.5,575.7,267.3,574.9,269.4z"/>
		<path class="st0" d="M593.9,295.5c-8.4,0.9-17.1-1.3-24.1-6.1c-0.4-0.3-0.9-0.2-1.2,0.2c-0.3,0.4-0.2,0.9,0.2,1.2
			c7.3,5.1,16.4,7.3,25.2,6.4c1.2-0.1,2.8-0.4,4.3-0.8l0,0c0,0,0.1,0,0.1,0.1l1.5,0.5v-1.1v-0.7v-1.1l-1.9,0.7
			C596.7,295.1,595.3,295.4,593.9,295.5z"/>
		<path class="st0" d="M56.2,410.5c2.2,1.6,4.6-2.4,2-3.6C55.9,405.9,53.9,409.2,56.2,410.5z"/>
		<path class="st0" d="M26.1,452.6c0.1,0,0.1,0,0.2-0.1c3.2,0.9,5,4.4,6,7.9c0.3,1.1,0.7,2.1,0.7,2.9c0,1.1-0.8,1.3-1.2,3.1
			c-0.6,2.8,1.4,5.1,4.1,5.3c4.7,0.4,6.9-5,7.4-8.2c0.8-5.2-1.6-10.2-5-13.8c1.8-0.8,3.5-1.8,5-2.9c0,0,0,0,0,0
			c2.1,0.7,4.6-0.3,6.2,0.2c1.7,0.5,2.6,1.6,3.3,3.3c1,2.5,2.6,7.1,7.3,4.4c3.8-2.1,2.6-7,1.5-9.6c-1.6-3.7-5.1-6.7-9.4-6.7
			c2.6-3.3,4.9-6.8,7-10.5c1.9-3.4,4.9-3.4,9.1-3.8c4.9-0.6,10-1,14.7-2.9c3.1-1.2,6.2-3,8.5-5.5c2.1-2.3,3-7-2.2-7.2
			c-2.3-0.1-5,0.8-6.9,0.9c-2.1,0.1-4.2-0.1-6.3-0.6c-4.1-0.9-7.7-3-11-5.8c-3-2.6-6.2-6-10.5-7.2c-3.5-0.9-8.1-0.1-10,3.6
			c-5.4,3.4-11.1,7.2-15.3,12.3c-0.2-0.1-0.4-0.1-0.6,0c-8.7,3.6-19.2,5.3-28.5,3L0,414.9v1.7l2.2,0.5c8.5,1.6,17.7,0.1,25.6-2.9
			c-0.2,0.2-0.3,0.5-0.5,0.7c-3.1,4.7-6.4,13.1-0.8,18.1c2.9,2.6,7,2.4,9.9,0c2.7-2.2,3.9-5.7,4.9-8.5c1.4-3.9,2.8-7.7,4.2-11.6
			c1.1-3,2.1-6.2,4.8-7.1c0.4-0.1,0.7-0.6,0.5-1c-0.2-0.4-0.6-0.7-1.1-0.5c-3.6,1.2-4.9,5.4-5.9,8.1c-1.4,3.8-2.8,7.7-4.2,11.6
			c-1.1,3-2.1,5.9-4.4,7.8c-2.4,1.9-5.5,2-7.7,0c-4.5-4-2.1-11.2,1.1-16c4.1-6.3,10.6-10.7,17.1-14.8c0,0,0,0,0.1-0.1
			c0.1-0.1,0.3-0.2,0.3-0.4c1.3-2.9,5-3.7,8.2-2.9c3.9,1,6.6,4.1,9.8,6.8c3.4,2.9,7.2,5.1,11.7,6.1c2.2,0.5,4.5,0.7,6.7,0.6
			c1.4-0.1,2.7-0.4,3.9-0.6c-0.2,1.4,1.4,2.9,2.1,3.9c0.3,0.7,0.6,1,1,1c-2,1.9-4.6,3.3-7.1,4.3c-4.5,1.7-9.4,2.2-14.3,2.8
			c-1.9,0.2-3.9,0.3-5.7,0.9c-0.1-0.1-0.3-0.2-0.5-0.2c-2.5,0-4.9-1.8-5.7-4.2c-0.1-0.4-0.6-0.7-1.1-0.5c-0.4,0.1-0.7,0.6-0.5,1
			c0.8,2.4,2.9,4.3,5.4,5c-0.9,0.6-1.6,1.5-2.3,2.6c-5,9-11.2,17.1-20.7,21.3c0,0,0,0,0,0c-0.3-0.2-0.7-0.2-1,0.1
			c-0.3,0.3-0.3,0.9,0,1.2c3.7,3.5,6.4,8.4,5.6,13.4c-0.5,3.3-2.5,7-5.6,6.8c-1.8-0.1-2.9-1.6-2.6-3.3c0.2-0.9,1.2-2,1.2-3.5
			c0-1.2-0.5-2.5-0.7-3.4c-1.1-3.9-3.5-9-8.7-9.3c-0.3,0-0.6,0.2-0.8,0.4c-7.9,0.7-15.9-0.2-23.5-2.4l-1-0.3v1.7l0.5,0.2
			C8.8,452.7,17.5,453.6,26.1,452.6z M51,440.2c0.2,0.1,0.4,0.2,0.6,0.2c3.8-0.4,7,2.1,8.6,5.6c1.2,2.8,1.6,6.1-0.8,7.5
			c-2.9,1.7-3.7-0.4-4.9-3.5c-0.8-2-2.1-3.6-4.4-4.3c-1.8-0.6-3.4,0-4.9,0C47.3,444,49.3,442.2,51,440.2z"/>
		<path class="st0" d="M2.6,382.6c-0.3-1.6-1-2.8-1.9-3.8L0,378.1v2.5l0.4,0.6c0.3,0.5,0.5,1.1,0.6,1.7c0.3,1.4,0,3-0.7,4L0,387.3
			v2.1l0,0C2.5,388.2,3,384.5,2.6,382.6z"/>
		<path class="st0" d="M589.2,375c-3.9,0.1-7.9,1.2-11.3,3.2c-0.2,0.1-3.1,2.2-4,3.5c-4.6-0.8-10.3,2.4-12.7,5.1
			c-0.2,0.2-0.4,0.5-0.6,0.8c-0.1,0-0.1,0-0.2,0c-2,0.7-4.9-3.7-5.4-6c-0.2-0.9,1.8-2.5,1.2-4.6c-1.1-3.6-4.6-2-6-0.7
			c-7.1,6.7-0.3,17.4,6.9,19.9c-0.5,3.7,0.2,7.5,2,10.8c-3.1,2.6-6.5-0.3-10.1-2.8c-1.5-1.1-3.9-2.3-6.1-0.6c-1.9,1.4-2.1,4-1.3,5.9
			c1.8,4.3,7.3,6,11,6.7c3.4,0.7,7,0.6,10.3-0.2c0.6,12.7,13.7,22.9,23.3,28.4c3,1.7,6.1,3.2,9.4,4.4l4.4,1.5v-1.7l-3.8-1.3
			c-3.2-1.2-6.2-2.6-9.1-4.3c-9.8-5.6-22.2-15.5-22.5-27.4c1.2-0.4,2.4-0.8,3.5-1.4c0.4-0.2,0.6-0.7,0.4-1.1
			c-0.2-0.4-0.7-0.6-1.1-0.4c-4.4,2.2-9.6,2.8-14.4,1.9c-3.8-0.7-8.3-2.3-9.7-5.7c-0.6-1.4-0.3-3.1,0.8-3.9c1.2-0.9,2.6-0.4,4.2,0.7
			c3,2.1,7.9,6.4,12.2,2.5c0.1,0,0.2-0.1,0.3-0.1c0.4-0.2,0.5-0.7,0.3-1.1c-3.5-5.7-2.9-13.8,1.5-18.9c3.3-3.9,12.3-7.2,15-1.5
			c0.1,0.2,0.2,0.3,0.4,0.4c0,0.1-0.1,0.3,0,0.4c-0.2,0.1-0.3,0.4-0.3,0.6c-0.4,10.9,6.2,21.7,15.9,26.6c2.1,1,4.3,1.8,6.5,2.4l0,0
			V415l-1.8-0.5c-1.4-0.5-2.8-1-4.1-1.7c-9.2-4.6-15.4-14.7-15-25c0,0,0-0.1,0-0.1c0.1-0.1,0.2-0.2,0.2-0.3c1.6-3.9,8.2-4.7,12-2.9
			c2,0.9,4.3,5.7,7.5,5.4l1.2-0.3v-2.1l-0.1,0.2c-0.3,0.3-0.8,0.5-1.2,0.6c-2.1,0.2-4-4-6.6-5.2c-3.7-1.7-10.4-1.5-13.3,2.3
			c-0.8-1.5-1.9-2.4-3.1-3c0.9-0.9,2.9-2.4,3.2-2.6c3.1-1.8,6.8-2.9,10.4-2.9c3.9-0.1,8.6,0.9,10.7,3.9l0,0.1v-2.5l-0.1-0.1
			C597,375.6,592.5,374.9,589.2,375z M551.4,377.5c1.5-1.4,2.8-1.5,3.3,0c0.4,1.4-1.7,2-1.3,4.4c0.4,1.9,2.9,7,6,7.4
			c-0.9,1.6-1.6,3.4-2,5.2C550.9,392.1,545.9,382.8,551.4,377.5z"/>
		<path class="st0" d="M111.4,514.1c2.5-3,4.8-6.2,6.5-9.8c0.2-0.5,0.5-1.1,0.7-1.6c0.8,0.3,1.6,0.6,2.4,1c0.4,0.2,0.9,0,1.1-0.4
			c0.2-0.4,0-0.9-0.4-1.1c-0.8-0.4-1.7-0.7-2.5-1c2.1-7,1.8-15.7-3.9-21c5-6.3,4.1-14.3-0.9-20.4c-3.6-4.4-11.9-8.9-17.2-3.4
			c-0.4,0.4-0.2,1.1,0.3,1.3c4.7,1.8,9.7,4,11.8,8.4c1.7,3.5,1,8.2-2.5,9.9c-3.9-0.3-7.7,1-11.1,2.8c-5.3-1.7-9.7-6.2-11.8-11.3
			c-0.5-1.2-1.3-3.9-2.5-5.9c-1.1-2-3-4.1-5.7-3.2c-3.2,1.1-3.8,4.8-3.3,7.3c0.8,3.4,3.1,5.4,5.1,7.5c3.2,3.3,1,9.9,4.1,14.1
			c-2.7,1.7-5.5,3.5-8.4,5.2c-9.5,5.6-20.1,10.5-31.1,11.2c-5.2,0.3-10.5-0.5-15.2-2.8c-2.4-1.2-4-2.2-5.2-4.3
			c-1.3-2.1-3.1-4.7-6-5.3c-3-0.7-6.7,0.9-9.1,1.4c-1.7,0.3-3.4,0.6-5.1,0.7L0,493.4v1.7l1.7-0.1c1.8-0.2,3.5-0.4,5.2-0.7
			c3.1-0.6,5.8-2,8.4-1.4c2.2,0.5,3.6,2.4,4.9,4.6c1.5,2.5,3.4,3.7,5.9,4.9c5,2.4,10.5,3.3,16,3c11.4-0.7,22.2-5.8,31.8-11.4
			c5.4-3.2,11.2-7,16.5-10.2c1.8-1.1,3.7-2.2,5.5-3.2c0.1,0,0.2-0.1,0.3-0.1c3.7-2,7.6-3.3,11.6-2.5c0.5,0.1,0.9-0.2,1-0.6
			c0-0.2,0-0.3-0.1-0.5c3.4-2.6,3.6-7.8,1.9-11.3c-1.9-3.8-5.5-6.1-9.1-7.8l-2.3-0.9l0.6-0.5c4.2-2.2,10,0.7,13.1,4.5
			c4.7,5.7,5.3,13.1,0.5,18.7c-0.1,0.1-0.1,0.2-0.2,0.4c-0.2,0.3-0.1,0.7,0.2,1c6.4,5.3,6.1,15.5,2.8,22.7c-1.6,3.5-3.8,6.5-6.2,9.5
			c-2.7,3.3-4.5,7.6-6,11.5c-1.9,5.1-2,12.9-6.5,15.4c-1.6,0.9-4,0.6-4.3-0.6c-0.3-1.4,1.2-3.2,2.3-4.9c1.7-2.9,1.5-3.8-0.1-6.7
			c-0.6-1.1-1-2.2-1.4-3.4c0,0,0,0,0,0c0-0.1,0-0.2-0.1-0.3c-0.8-2.8-0.9-5.8-0.6-8.7c0-0.5-0.3-0.9-0.7-0.9c-0.5,0-0.9,0.3-0.9,0.7
			c-0.3,2.8-0.2,5.7,0.4,8.6c-4.8,0.5-9.4,2.2-13.8,3.5c-4.6,1.3-9.2,2.3-13.9,3c-9.9,1.4-20,1.3-30,1c0.3-1.7,0.5-3.3,0.8-5
			c0.1-0.4-0.3-0.9-0.7-0.9c-0.5-0.1-0.9,0.2-0.9,0.7c-0.3,1.9-0.5,3.7-0.9,5.6c-0.1,0.1-0.1,0.2-0.1,0.4c0,0,0,0.1,0,0.1
			c-0.4,1.8-0.9,3.6-1.6,5.3c-1.2,3-4,6.8-7,5.8c-1.1-0.4-1.6-1.6-1.3-3.2c0.3-2.2,2.5-2.8,3.4-5.3c0.8-2.3-1.7-4.6-2.3-5.5
			c-1.5-2.3-2.3-4.8-3.1-7.6c1.4-8.7,0.5-17.9-2.6-25.8c-0.2-0.4-0.6-0.6-1.1-0.5c-0.4,0.2-0.6,0.6-0.5,1.1c3,7.5,3.9,16.4,2.6,24.7
			c-0.1,0.2-0.2,0.4-0.1,0.7c-0.7,3.9-1.9,7.8-3.6,11.3c-1,2-4.8,7.2-7.3,2.8c-1.3-2.2-0.8-5.5-0.4-8.3c0.7-4.5,2.3-8.8,3.8-13.2
			c0.3-0.9,1.9-5,2.9-8.9c0.9-3.3,1.9-8.4-0.6-9.5c-0.4-0.2-0.9,0-1.1,0.4c-0.2,0.4,0,0.9,0.4,1.1c0.9,0.4,0.8,3.1-0.3,7.5
			c-0.5,2.1-1.2,4.1-1.8,5.8c-1.8-0.4-3.6-0.6-5.4-0.8L0,509.2v1.7l2.7,0.2c0,0.1-0.1,0.1-0.1,0.2c-0.7,2.1-5.5,22.7,3.2,21.3
			c0.1,1.4,0.3,2.7,1,3.9c3.2,5.6,8.3,1,10.2-2.9c1.4-2.8,2.4-5.7,3.1-8.7c0.6,1.7,1.3,3.5,2.4,5.1c1.2,1.9,2.6,2.8,2.2,4
			c-0.6,1.6-3.1,2.9-3.5,5.6c-0.3,1.7,0.1,4.2,2.5,5c4.6,1.5,8-4.1,9.1-6.7c0.7-1.7,1.2-3.4,1.6-5.2c10.2,0.3,20.4,0.4,30.6-1
			c4.8-0.7,9.5-1.7,14.1-3c4.7-1.3,9.1-3,13.8-3.4c0.4,1.1,0.8,2.2,1.4,3.3c1.3,2.5,1.5,2.8,0.1,5.1c-0.7,1.1-2.9,3.9-2.5,6.1
			c0.7,3.3,5.1,2.6,6.7,1.8c5.2-2.8,5.8-12.3,7.3-16.2C107.2,521.3,108.9,517.2,111.4,514.1z M89.6,482.3c-2.3,1.4-4.5,2.7-6.7,4.1
			c-3-3.7-0.3-10.2-4.3-14.3c-2.2-2.2-4.1-3.8-4.7-6.7c-0.5-2.2,0.2-4.7,2.2-5.3c1.4-0.5,2.6,0.4,3.7,2.4c1.1,1.9,1.8,4.3,2.4,5.7
			c2.1,5,6.2,9.6,11.4,11.7C92.3,480.7,90.9,481.6,89.6,482.3z M4.2,511.8c0.1-0.2,0-0.4-0.1-0.6c2.2,0.2,4.4,0.4,6.5,0.9
			c-0.2,0.7-0.4,1.2-0.5,1.4c-1.5,4.3-3.2,8.8-3.9,13.5c-0.2,1.1-0.4,2.5-0.4,3.9C0,532,2.9,515.9,4.2,511.8z"/>
		<path class="st0" d="M6.1,501.3c2-0.4,1.6-3.7-0.6-3.3C3.4,498.3,4.1,501.6,6.1,501.3z"/>
		<path class="st0" d="M135.5,511.7c-0.3-0.3-0.8-0.4-1.2-0.1c-0.3,0.3-0.4,0.8-0.1,1.2c0.7,0.8,1.4,1.7,2,2.5
			c0.3,0.4,0.8,0.5,1.2,0.2c0.4-0.3,0.5-0.8,0.2-1.2C137,513.5,136.2,512.6,135.5,511.7z"/>
		<path class="st0" d="M124.7,503.6c-0.4-0.2-0.9-0.1-1.1,0.3c-0.2,0.4-0.1,0.9,0.4,1.1c1,0.5,1.9,1,2.8,1.6
			c0.4,0.2,0.9,0.1,1.1-0.3c0.3-0.4,0.1-0.9-0.3-1.1C126.7,504.6,125.7,504.1,124.7,503.6z"/>
		<path class="st0" d="M142.7,529.4c-0.5,0.1-0.8,0.5-0.7,0.9c0.1,0.6,0.2,1.3,0.3,1.9c0,0.5,0.5,0.8,0.9,0.7c0.5,0,0.8-0.5,0.7-0.9
			c-0.1-0.7-0.2-1.4-0.3-2C143.6,529.7,143.2,529.4,142.7,529.4z"/>
		<path class="st0" d="M129.3,507.3c-0.3,0.4-0.2,0.9,0.2,1.2c0.9,0.7,1.7,1.4,2.5,2.1c0.3,0.3,0.9,0.3,1.2-0.1
			c0.3-0.3,0.3-0.9-0.1-1.2c-0.8-0.7-1.7-1.5-2.6-2.2C130.1,506.9,129.5,506.9,129.3,507.3z"/>
		<path class="st0" d="M140.9,520.3c-0.5-1-1-2.1-1.5-3.1c-0.2-0.4-0.7-0.5-1.1-0.3c-0.4,0.2-0.5,0.7-0.3,1.1c0.5,0.9,1,1.9,1.4,2.9
			c0.2,0.4,0.7,0.6,1.1,0.4C140.9,521.3,141.1,520.8,140.9,520.3z"/>
		<path class="st0" d="M142.4,527.8c0.4-0.1,0.7-0.5,0.6-1c-0.3-1.1-0.6-2.2-0.9-3.3c-0.1-0.4-0.6-0.7-1-0.5c-0.4,0.1-0.7,0.6-0.5,1
			c0.3,1,0.6,2.1,0.9,3.1C141.5,527.6,142,527.9,142.4,527.8z"/>
		<path class="st0" d="M596.5,493.6c-3.1,0-6.2-0.3-9.2-0.9c-1.7-0.3-6.5-2.4-8.7,0.2c-4.4,5,4.5,12.5,7.3,14.1
			c1.3,0.7,2.7,1.3,4.1,1.8c2.6,0.9,2.5,0.1,4.1-0.6c1.5-0.7,1.7-0.1,1.2,1c-0.2,0.5,0.1,1,0.6,1.2c1.3,0.3,2.6,0.4,3.9,0.5l0.2,0
			v-1.7l-0.1,0l-2.8-0.4l0-0.9c-0.2-1.6-1.9-2.2-3.8-1.3c-1.1,0.5-1.1,0.7-1.5,0.9c0,0-0.2,0.1-1.3-0.3c-1.3-0.5-2.6-1-3.8-1.7
			c-2-1.1-5.1-3.9-6.7-6.6c2.8-0.4,4.4-2.7,5.2-5.1c0.6,0.1,1.1,0.3,1.7,0.4c3.1,0.6,6.3,0.9,9.5,0.9c0.9,0,1.8,0,2.6,0l0.9-0.1
			v-1.7l-1,0.1C598.2,493.6,597.3,493.6,596.5,493.6z M581.6,496.6c-0.3,0.3-0.7,0.4-1.2,0.6C580.8,496.9,581.2,496.7,581.6,496.6z
			 M579.3,497.1c0.1,0.1,0.1,0.1,0.2,0.2c0,0-0.1,0-0.1,0C579.3,497.3,579.3,497.2,579.3,497.1z"/>
		<path class="st0" d="M64.9,303.9c1.3-0.7,1.8-2.2,2.3-2.5l0.2-0.1l0.2,0c0.1,0,0.3,0.1,0.6,0.1c2.4,0.6,4.7,1.1,7.1,1.5
			c2.2,0.4,4.5,0.5,6.2,1.3c0.3,0.1,0.4,0.2,0.5,0.2l0.1,0l0,0.1c0,0.1,0.1,0.3,0.2,0.7c0.6,1.7,1.9,3.1,3.6,3.9
			c5.6,2.3,8-3.9,5.3-7.8l-0.1,0l-0.7-0.9c0.2,0.2,0.5,0.5,0.6,0.7c0,0.1,0.1,0.1,0.1,0.2l0,0l0.3-0.2c3.2-2.1,4.6-7.2,0.2-9.6
			c-2.1-1.2-6.8,0.3-8.2,3l-0.4,1.4l-2.7-0.8c-2.8-0.7-5.6-1.4-8.4-1.8l-3.4-0.3l0-0.5c-0.1-3.4-2.5-7.7-7-6.3
			c-3.6,1-5.3,6.6-2.4,9.1l0.1,0l-0.8,0.7C54.5,300,59.1,307,64.9,303.9z M61.3,296.2c0.7-0.3,0.7-1.4-0.1-1.6
			c-2.7-0.9-2.2-5.8,0.7-6.7c3.1-0.9,5.3,2.5,4.7,5.8c-0.1,0.5,0.3,1,0.8,1c5.5,0.2,11,1.6,16.4,3.3c0.7,0.2,1.4-0.5,1.1-1.2
			c-0.9-2,3.8-4.9,5.8-3.7c3,1.7,2,6.1-1.4,7.2c-0.6,0.2-0.8,1-0.4,1.4c2.6,2.5,1.5,7.5-2.7,5.8c-1.2-0.5-2.2-1.6-2.6-2.8
			c-0.2-0.4-0.3-0.9-0.4-1.1c-0.1-0.3-0.3-0.5-0.6-0.6c-0.1,0-0.5-0.2-0.7-0.3c-1.9-0.9-4.9-1-6.6-1.4c-2.4-0.5-4.7-0.9-7-1.5
			c-0.3-0.1-0.8-0.2-1.2-0.2c0,0-0.1,0-0.1,0l-0.2,0c0,0-0.1,0-0.1,0c-0.3,0.1-0.5,0.2-0.7,0.4c-1.3,0.9-1.1,1.8-2.1,2.4
			C59.7,304.7,55.9,298.6,61.3,296.2z"/>
		<path class="st0" d="M131.7,561.5c-2.3,0.4-2.9,2.6-4,2.7c-1.3,0.1-3.2-0.9-5-1.4c-2.1-0.5-4.1-1-6.2-1.6
			c-1.2-0.3-1.4-0.3-1.5-0.4c-0.1-0.1-0.1-0.2-0.6-1.3c-2.9-7.2-12.3-2.3-8.6,3.5l0.2,0.2l-0.2,0.1c-3,1.7-4.4,5.8-1.2,8.6
			c1.9,1.7,6.7,0.5,8.3-1.9l0.5-1.3l6.2,1.9c1.3,0.3,2.6,0.6,3.9,0.9l3.1,0.4l0,0.3c-0.1,3.1,1.7,6.9,5.8,6.3
			c3.6-0.5,5.9-5.9,3.2-8.5l-0.1-0.1l0.4-0.3C139.3,566.7,137.5,560.6,131.7,561.5z M133.4,569.1c-0.7,0.3-0.7,1.3,0,1.6
			c2.7,1,1.7,5.7-1.3,6.1c-2.7,0.4-4.3-2.6-3.7-5.5c0.1-0.5-0.3-1-0.8-1c-5.1-0.4-10.1-2-15-3.7c-0.7-0.2-1.4,0.4-1.1,1.1
			c0.8,2-3.9,4.5-5.8,2.8c-2.2-1.9-1.1-5.4,1.9-6.1c0.6-0.2,0.9-1,0.4-1.4c-4.1-4.4,2.8-7.9,4.8-2.8c0.3,0.8,0.6,1.6,1.1,2
			c0.5,0.4,1.3,0.5,2.1,0.7c2.1,0.5,4.2,1,6.2,1.6c1.1,0.3,3.9,1.6,5.6,1.4c1.9-0.1,2.7-2.4,4.1-2.7
			C136.2,562.5,137.7,567.5,133.4,569.1z"/>
		<path class="st0" d="M501.4,476c-2.6-4.6-8.9-4.3-10.9,0.6c-1.6,3.9-1.8,6.8-5,9.2c-0.8,0.6-1.5,1.2-2.1,1.3l-0.3,0.1l-0.3-0.3
			c-0.9-0.7-1.4-1.9-2.7-3.1c-1.9-1.8-4.2-3.2-6.6-4.2c0.9-5.9,4.8-10.6,9.9-14.7c3-2.4,6.1-4.7,8.6-8c1.7-2.2,4.8-6.6,3.5-10.2
			c-0.3-0.7-1.2-0.8-1.6-0.1c-1.3,2.3-1.5,3.9-3.2,5.3c-1.5,1.2-3.2,2.1-4.9,3.2c-3.7,2.3-7.5,4.7-11.1,7.4c-3.4,2.6-7,5.7-9.1,9.6
			c-0.8,1.4-1.5,3.7-1.7,6.1c-5.1-0.4-10.2,1-14.3,4c-2.1,1.5-2.2,2.4-3.9,1.9c-1.4-0.5-2.6-1.5-3.7-2.7c-1.9-2.2-2.4-4.1-1-6.4
			c1.9-3.1,3.4-6.4,1.6-10.4c-2.8-6.3-9.9-3.6-12.8,0.1c-4.2,5.3-2.8,14.2-1,19.8c1.1,3.2,2.8,6.2,5.5,8.4c1.5,1.2,3.1,2,4.9,2.6
			c0.3,0.1,0.5,0.2,0.8,0.2l-0.2,1c-0.2,1.4-0.2,2.9,0.1,4.1c0,0,0,0,0,0c-0.1,0.1-0.2,0.3-0.2,0.5c0,0.4,0.2,0.7,0.3,0.9
			c1.1,1.2,5.5,2.1,6.6,2.4c2.4,0.6,4.9,1.3,7.4,1.6c4.2,0.4,8.6,0.2,12.7-0.1c4-0.3,8.1-0.7,12.1-1.5c1.4-0.3,5.9-0.7,7.3-2.9
			c0.7-1.2,0.4-3.2,0.4-3.9c0-0.8-0.5-2.5-0.8-3.6l-0.1-0.6l0.5-0.2c0.8-0.2,2.2-0.4,2.6-0.5c3.3-0.6,7.3-1.1,10.3-3.6
			C502.7,486.1,503.6,480.2,501.4,476z M497.9,487.8c-2.5,2.1-6,2.5-9.5,3.2c-0.3,0.1-3.1,0.3-4,1.2l-0.1,0.1l-0.1,0.1
			c-0.1,0.1-0.1,0.2-0.2,0.3l0,0.2c0,0,0,0.1,0,0.1c-0.1,0.9,0.8,4.3,0.9,4.6c0,1.2,0.2,2.4-0.1,2.9c-0.8,1.3-4,1.7-6.1,2.1
			c-3.9,0.8-7.9,1.2-11.9,1.5c-4.2,0.3-8.4,0.5-12.4,0.1c-2.4-0.2-4.7-0.9-7.1-1.5c-0.9-0.2-4.9-1.1-5.7-1.8
			c0.2-0.2,0.2-0.5,0.2-0.7c-0.3-1.5-0.2-3.6,0.3-5.2l0.6-1.4l0-0.1c0.5-1-1-1.8-1.5-0.8l0,0c-0.2,0.4-0.3,0.6-0.4,0.8l-0.1,0.2
			l-0.2,0c-0.1,0-0.3-0.1-0.6-0.2c-1.6-0.5-3-1.2-4.3-2.3c-2.4-1.9-4-4.6-5-7.6c-1.9-5.5-2.9-13.6,0.7-18.1c2.9-3.6,8-4.6,9.9-0.5
			c1.4,3.1,0.3,5.8-1.6,8.8c-2,3.2-1,5.9,1.2,8.4c1.1,1.3,2.6,2.6,4.4,3.2c2.8,0.9,4.1-1.2,5.4-2.1c3.8-2.8,8.6-4.1,13.3-3.7
			c0,0,0,0,0,0c0.1,1.8,0.7,3.5,2.1,4.6c0.4,0.3,0.9,0.3,1.2-0.1c0.3-0.4,0.3-0.9-0.1-1.2c-2.4-2-1.6-7.4,0-10.2
			c2-3.6,5.3-6.5,8.7-9.1c3.5-2.7,7.2-5,11-7.4c1.6-1,3.5-2,5.1-3.3c0.5-0.4,0.9-0.9,1.3-1.4l0.3-0.6l-0.1,0.4
			c-0.7,1.5-1.7,3-2.7,4.2c-2.3,3.1-5.2,5.1-8.3,7.7c-5.3,4.3-9.6,9.5-10.5,16.2c0,0-0.1,0.1-0.1,0.1c-0.1,0.2-0.1,0.4,0,0.5
			c-0.2,1.5-0.2,3.1,0.1,4.7c0.1,0.5,0.5,0.8,1,0.7c0.5-0.1,0.8-0.5,0.8-1c-0.2-1.2-0.2-2.3-0.1-3.4c2.1,0.9,4,2.2,5.6,3.7
			c0.8,0.7,1.8,2.5,2.8,3.2c0.4,0.3,0.4,0.4,0.4,0.4c0.1,0.2,0.3,0.3,0.5,0.3l0,0l0.6-0.2l0,0l0.1,0l0.3-0.1
			c1.1-0.2,2.3-1.2,2.8-1.6c3.7-2.7,4.1-6.5,5.6-9.9c1.5-3.6,5.9-3.8,7.8-0.4C501.7,480.3,500.9,485.3,497.9,487.8z"/>
		<path class="st0" d="M433.6,501.2c0.4-0.2,0.5-0.8,0.3-1.2c-0.2-0.4-0.8-0.5-1.2-0.3c-1.6,1-3.5,3.7-2.2,5.9
			c0.9,1.5,3.4,2.6,4.5,3.1c3.9,1.9,8.3,2.8,12.5,3.4c8.2,1.2,16.9,1.5,25.1,0.5c0.5-0.1,0.8-0.5,0.8-1c-0.1-0.5-0.5-0.8-1-0.7
			c-8.1,1.1-16.6,0.7-24.6-0.5c-4.1-0.6-8.3-1.5-12-3.2c-1.4-0.6-3.2-1.5-3.7-2.4C431.4,503.9,432.2,502,433.6,501.2z"/>
		<path class="st0" d="M494.6,505.5c-3.2,1.6-7.1,2.4-10.8,2.8c-0.5,0-0.8,0.5-0.8,1c0,0.5,0.5,0.8,1,0.8c3.8-0.4,7.9-1.2,11.4-3
			c1.4-0.7,3.2-1.8,4-3.6c1-2.4-0.1-5.9-3.4-6.1c-0.5,0-0.9,0.3-0.9,0.8c0,0.5,0.3,0.9,0.8,0.9c1.6,0.1,2.6,2,1.9,3.7
			C497.2,504,495.9,504.8,494.6,505.5z"/>
		<path class="st0" d="M499.9,510.3c-0.2-0.4-0.7-0.6-1.1-0.4c-12.4,5.4-27.2,7.1-40.7,6.4c-0.5,0-0.9,0.3-0.9,0.8
			c0,0.5,0.3,0.9,0.8,0.9c13.7,0.7,28.8-1,41.5-6.6C499.9,511.3,500.1,510.8,499.9,510.3z"/>
		<path class="st0" d="M537,544.1c-3-0.2-3.3,4.4-0.3,4.6C539.7,549,540,544.3,537,544.1z"/>
		<path class="st0" d="M536.2,587.2c0-0.5-0.3-0.9-0.8-0.9c-9.3-0.5-18.7-1-27.5-3.4c-4.2-1.1-10.4-3.3-9-5.4
			c2.1-3,6.5-3.1,10.6-3.4c-0.1,0.3-0.1,0.6,0.1,0.8c0.3,0.4,0.8,0.5,1.2,0.2c8.4-5.6,11.9-14.9,15.1-23.1c0-0.1,0.1-0.3,0-0.4
			c0.3-0.3,0.6-0.7,0.9-1c0.3-0.4,0.2-0.9-0.2-1.2c-0.4-0.3-0.9-0.2-1.2,0.2c-2.5,3.3-7.8,4.9-12,6.2c-3.7,1.2-7.5,1.9-11.4,2
			c-6,0.1-13.2-1.4-15-7.2c-0.8-2.5-1-6.3,0.9-7.4c1.8-1.1,4.8-0.4,7.2,0.1c5.1,1.1,10.5,4.5,15.9,4.8c3.6,0.2,7.3-0.3,10.8-1.1
			c1.7-0.4,4.8-1.1,6.8-2.7c0.3,0,0.5-0.2,0.6-0.5c0.1-0.1,0.1-0.3,0.2-0.4c0.2-0.3,0.4-0.5,0.5-0.8c0.1-0.1,0.1-0.2,0.1-0.3
			c2.8-5,7.1-9.2,12.9-7.7c1.1,0.3,2.1,0.8,3,1.6c1,0.9,1.5,2.3,4,1.9c3-0.4,5.5-2.3,7.5-4.1c2.3-2.1,4.1-4.6,5.8-7.1
			c0.1-0.1,0.2-0.3,0.3-0.5c0.5,0.5,1.2,0.8,1.8,1.1c1,0.4,1.8,0.3,2.3-0.1c0,0,0,0.1,0,0.1c-0.1,3.2-0.7,6.1-2.3,8.9
			c-3.6,6.3-10.1,10.6-16.4,14.3c-0.6,0.4-0.5,1.3,0.1,1.6c3.4,1.2,7.1-0.9,9.5-2.2c2.2-1.2,5.1-3.8,6.8-3.6c0.3,0,0.5,0,0.3,0.8
			c-0.3,0.8-0.9,1.8-1.3,2.3c-1.8,2.2-4.2,3.9-6.6,5.6c-1.3,0.9-3.9,2-5.1,3.8c-1.3,2.1-1.5,5.1-1.8,7.2c-0.3,2.6-0.5,5.8-0.9,8.5
			c-0.2,1.8-0.3,3.9-1.2,5.1c-3,1.2-12,1.1-19.4,0.5c2.3-1.9,6.4-0.1,9.7-2.4c3.2-2.2,4.3-7.4,0.3-10c-3.2-2.1-8-0.3-10.6,0.9
			c-4.4,2.1-7,6.1-9.6,9.4c-0.2,0.2-0.2,0.5-0.1,0.8c0,0,0,0,0,0c-0.2,0.4,0,0.9,0.5,1.1c5,2,23.7,3.1,29.5,1.4
			c0.3,0.1,0.6,0,0.8-0.2c0.7-0.6,1.1-1.6,1.3-2.5c0,0,0,0,0,0.1c0.4,0.3,0.9,0.3,1.2-0.1c2.8-3.3,10.2,2.3,13.2-2.5
			c2.7-4.3-2.4-7.8-5.4-8.5c-1.9-0.4-5.7,0.1-7.9,1.9c0.1-1.1,0.2-2.2,0.3-3.3c0.3-2.3,0.5-4.8,1.5-6.4c0.9-1.4,2.7-2.1,4.6-3.3
			c2.4-1.6,5-3.5,7-5.9c0.5-0.6,1.3-1.8,1.6-2.9c0.3-1.1,0.3-2.8-1.8-3c-2.5-0.2-6.2,3-7.8,3.8c-1.3,0.7-2.7,1.4-4.1,1.9l-1.6,0.3
			l2.5-1.5c4.8-3.1,9.4-7,12.2-12c1.8-3.1,2.4-6.2,2.5-9.7c0-0.7,0.1-2.6-0.1-4.2c-0.2-1.3-0.7-3.7-2.8-3.5l0,0l-0.1,0l0,0
			c-2,0.4-3.8,5-4.5,6.1c-1.6,2.4-3.4,4.8-5.5,6.8c-1.9,1.8-4.1,3.3-6.5,3.7c-0.9,0.1-1.1,0.1-1.5-0.4c2.9-2.3,3.2-7.7,3.2-10.3
			c0.1-3,0.2-8.6-2.4-11.4c-1.8-1.9-4.8-1.5-6.2,0.5c-1.3,1.9-0.8,4.4-0.5,6c0.4,2.1,1.1,3.7,1.5,5.7c0.4,2.2-0.1,4.1-0.8,6.3
			c-7.3-1.6-12.3,4.3-15,9.7c-1.3,1.5-4.3,2.2-6.5,2.8c-3.3,0.8-6.9,1.3-10.3,1.1c-5.2-0.3-10.1-3.5-15.6-4.7
			c-2.2-0.5-5.9-1.4-8.5,0.1c-3.2,1.9-2.4,7.2-1.7,9.4c2.3,7.1,10.8,8.5,16.7,8.4c4.1-0.1,8.1-0.8,11.9-2.1c2.7-0.9,6.4-2,9.4-3.8
			c-2.7,6.8-5.7,13.6-11.4,18.4c0,0,0,0-0.1,0c-3.7,0.6-11.4,0-14.5,4.5c-1.9,2.7,1.2,4.7,3.3,5.7c2.5,1.2,5.5,2,6.7,2.3
			c9.1,2.4,18.7,3,27.9,3.4C535.7,588,536.2,587.7,536.2,587.2z M529.5,570.2c2.8-1.3,6.7-2.5,9-1c2.6,1.7,2.2,5.3-0.4,7.1
			c-2.6,1.8-8.1-0.3-10.8,3.6c-2.7-0.3-5-0.7-6.4-1.2C523.5,575.2,525.7,571.9,529.5,570.2z M552.1,572.6c0.4-2.3,5.1-3.8,7.6-3.3
			c2.8,0.6,5.8,3.4,4.3,5.8c-2.3,3.7-8.7-1.9-12.6,1.9c0.1-0.9,0.2-1.8,0.3-2.4c0.1-0.5,0.1-1.1,0.2-1.6
			C552,573,552.1,572.8,552.1,572.6z M544.2,515.7c0.8-1.2,2.6-1.3,3.5-0.3c2,2.1,2.1,6.9,2,10.1c-0.1,3.1-0.5,7.6-2.8,9.2
			c-0.7-0.6-1.4-1-2.2-1.4c0.7-2.2,1.3-4.6,0.8-7.2c-0.4-1.9-1.2-4.1-1.5-5.8C543.6,518.6,543.3,516.8,544.2,515.7z"/>
		<path class="st0" d="M571.9,583.1c-0.5,0-0.9,0.3-0.9,0.8c-0.2,2.9-8.8,5.5-19.9,6.8c-10.6,1.2-21.7,1-24.8-0.4
			c-0.4-0.2-1,0-1.2,0.4c-0.2,0.4,0,1,0.4,1.2c3.6,1.6,15.2,1.7,25.8,0.5c9.8-1.1,21.1-3.6,21.5-8.4
			C572.7,583.6,572.3,583.2,571.9,583.1z"/>
		<path class="st0" d="M505,590.7c-4.1-0.8-8.1-1.6-12-2.7c-4.6-1.2-9.7-2.5-13.2-5.4c-2.9-2.5-0.9-4.8,2.7-6.2
			c5.8-2.2,11.7-2.1,18-3.6c0.5-0.1,0.8-0.6,0.6-1c-0.1-0.5-0.6-0.8-1-0.6c-5.7,1.3-12.4,1.4-18.3,3.7c-3.8,1.5-7.9,5.2-3.3,9.2
			c3.8,3.2,9.5,4.6,13.9,5.8c4,1.1,8.1,1.9,12.1,2.7c0.5,0.1,0.9-0.2,1-0.7C505.8,591.2,505.5,590.8,505,590.7z"/>
		<path class="st0" d="M542.4,454.8c0.3-1.3,1.1-2.7,0.4-4.6c-1.7-5.3-7.4-3.6-8.7,0.4l-0.1,0.7l-0.3-0.1c-3.5-0.7-7.7,1.7-6.5,6.2
			c0.6,2.2,4.7,4.4,7.4,3.5l1.2-0.7l3.3,5.6c0.7,1.1,1.5,2.2,2.3,3.3l2,2.4l-0.3,0.3c-2.2,2.3-3.4,6.6,0.4,8.8c3,1.7,8-0.8,7.7-4.5
			l0,0l-0.5-1.6c0.1,0.3,0.3,0.5,0.3,0.8c0.1,0.3,0.1,0.5,0.1,0.8l0.8,0.1c5,0,6.8-7,1.4-9.3c-1.5-0.6-2.7,0.1-3.4,0
			c-0.2,0-0.3,0-0.3-0.1l-0.1,0l-0.1-0.1c-0.1-0.1-0.1-0.2-0.3-0.5c-1.1-1.9-2.4-3.7-3.6-5.5c-1.1-1.7-2.8-3.3-3.2-4.8
			c0-0.1-0.1-0.2-0.1-0.3l0-0.1l0,0C542.3,455.2,542.4,455.1,542.4,454.8z M544.1,461.6c1.2,1.8,2.4,3.6,3.5,5.5
			c0.2,0.3,0.4,0.7,0.6,0.9c0.1,0.2,0.3,0.3,0.6,0.4c0.2,0.1,0.5,0.1,0.8,0.2c1.7,0.3,2.1-0.5,3-0.1c4.3,1.8,2.1,7.3-2.4,5.6
			c-0.7-0.3-1.5,0.5-1.1,1.2c1.1,2.2-2.4,5.2-4.8,3.8c-2.5-1.4-1.7-4.9,0.8-6.7c0.4-0.3,0.5-0.9,0.1-1.3c-3.5-3.7-6.2-8.2-8.6-12.8
			c-0.3-0.6-1.3-0.6-1.6,0.1c-0.7,1.8-5.6,0.7-6.1-1.4c-0.8-3,2.6-5.2,5.5-3.7c0.6,0.3,1.3-0.1,1.3-0.8c-0.1-3.6,4.3-5.6,5.6-1.7
			c0.4,1.3,0,1.9-0.5,3.7c-0.1,0.4-0.1,0.5-0.2,0.6c0,0.1,0,0.2,0,0.3v0.2c0,0.1,0,0.2,0,0.2c0,0.1,0.2,0.5,0.2,0.6
			C541.2,458.1,543.3,460.4,544.1,461.6z"/>
		<path class="st0" d="M543,231.2c-0.6-2.8-2.7-2.8-2.5-5.3c0.2-2.9,0.9-6.2,0.7-9.4c-0.3-4.6-0.6-10.9-4.2-14.8
			c-0.1-0.1-0.2-0.1-0.2-0.2c-0.5-2.8-2.1-7.7-4.7-9.7c1.1-0.4,2-0.9,2.9-1.5c5.4-3.4,9.1-10.9,5.5-17.1c-1.6-2.8-5-5.5-8.5-2.9
			c-2.3,1.6-3.9,4.5-5.4,6.4c-0.8,1-1.7,2.1-2.7,3.1c-3.1-2.3-5.7-4.8-10-5.5c-3.5-0.6-7.2-0.5-10.7,0.3c-5.3,1.1-9.9,4.3-12.4,9
			c-3.1-0.3-6.7,2.8-8.5,3.9c-3.3,2.1-6.2,4.4-8.8,7.5c-4.2,4.9-11,13.4-6.8,20.9c1.5,2.7,5.1,5.6,8.7,5c3.2-0.5,4.6-3.9,5.3-6
			c2.2-6.6,3.6-12.7,8.3-17.5c0.3,0.9,0.7,1.8,1.1,2.7l0.7,1.5l1.1,3.5l0.2,0.9l0.2,1.3l0.2,4.1c0,1,0,2.4,0,4l0.2,1.7l0,0.6
			l0.1,0.7l0.2,2.1c0.4,2,1,4.1,2.3,5.6c-2.5,2.5-4.2,6-6.1,8.5c-2.5,3.3-4.7,6.8-6.6,10.6c-3.7,7.4-6.5,16.3-4.3,24.9
			c0,0,0,0-0.1,0.1c-3,4.7-2.4,10.5-0.7,15.3c0.8,2.3,2.2,3.8,1.8,5.4c-0.5,1.9-3.3,3.8-1.7,6.7c2.8,5.1,9.1,1,10.2-2.4
			c1-2.9,0-5.9-0.2-8.3c-0.1-1.7,0.5-2.9,1.2-4.5c0.6,0.3,1.2,0.5,1.9,0.7c0.6,4.4,0.2,9.4,1.8,14c1.6,4.3,3.9,8.3,6.6,11.9
			c2.3,3.1,5.3,6.7,9.2,8.4c0.7,0.3,3.9,1.7,5.4,0.7c2.5-1.5,0-4.1-0.6-4.6c-3.1-3-6.1-5.4-8.6-8.8c-2.4-3.3-4-6.8-5.1-10.7
			c-0.9-3.2-2.8-9-0.7-10.9c0.8-0.8,2.1-0.6,3.8-1.1c0.4-0.1,0.8-0.3,1.3-0.4c0.1,0.1,0.1,0.1,0.2,0.2c3.7,2.1,2.4,6.9,2.5,11.4
			c0.1,3.3,2.9,10.5,8.2,8.4c3.2-1.2,3.6-5.4,2.9-7.8c-0.4-1.5-1.7-2.7-2.1-3.7c-0.3-0.9,0-2,0.4-3.3c1.4-4.2,5.6-10.6,2.1-15.8
			c2.9-3.4,5.2-7.4,6.4-11.8c1.4-5.1,1.6-10.8,2.5-15.7c1.1-6,3.6-11.5,5.8-17.1c-0.2,1.2-0.6,2.6-0.7,4.1c-0.2,2.6-0.1,5.9,2.4,7.9
			C539,241.9,543.9,235.6,543,231.2z M535.3,236.7c-1.8-1.5-2-3.9-1.8-6.4c0.1-1.7,1.5-5.3,0.4-7.9c0.8-2.2,1.5-4.4,2.1-6.7
			c0.1-0.5-0.2-0.9-0.6-1.1c-0.5-0.1-0.9,0.2-1.1,0.6c-0.5,2-1.2,4.1-1.9,6.1c0,0-0.1,0-0.1,0c-0.3,0.2-0.4,0.7-0.3,1
			c-2.5,6.6-5.7,13.2-7.1,20.3c-1,5.4-1.1,10.5-2.5,15.6c-1.2,4.3-3.5,8.2-6.4,11.6c-0.2,0.3-0.3,0.7-0.1,1c0,0.1,0.1,0.2,0.2,0.3
			c3.3,4.3-0.3,9.4-2.1,14.6c-0.4,1.1-1,2.8-0.4,4.4c0.6,1.6,1.6,2.2,2,3.6c0.6,2.2,0,4.9-1.8,5.7c-3.1,1.2-5.8-3.6-5.9-6.8
			c-0.1-3.2,1.3-9.3-2.5-12.3c1-0.5,1.9-1,2.8-1.5c0.4-0.3,0.5-0.8,0.3-1.2c-0.3-0.4-0.8-0.5-1.2-0.3c-1.8,1.1-3.6,2-5.5,2.5
			c-0.9,0.2-3.3,0.4-4.5,1.5c-3.1,2.9-0.4,10.7,0.2,12.7c1.2,4.1,2.9,7.7,5.4,11.2c2.6,3.6,5.8,6.2,8.8,9c1.2,1.2,1.3,1.6,0.9,1.9
			c-0.6,0.4-2.5-0.3-3.8-0.8c-3.4-1.5-6.2-4.8-8.5-7.9c-2.6-3.5-4.9-7.3-6.4-11.4c-1.7-4.7-1-8.9-1.8-14.2c-0.1-0.4-0.4-0.7-0.7-0.7
			c-0.1-0.1-0.2-0.1-0.3-0.1c-0.8-0.3-1.5-0.6-2.3-0.9c-0.1-0.1-0.2-0.3-0.4-0.3c-0.1-0.1-0.3-0.1-0.4,0c-1-0.5-1.9-1.1-2.6-1.7
			c-0.4-0.3-0.9-0.2-1.2,0.2c-0.3,0.4-0.2,0.9,0.2,1.2c0.8,0.6,1.7,1.2,2.6,1.7c-0.7,1.6-1.6,3.3-1.4,5.4c0.2,3,1.1,5.2,0.3,7.6
			c-1,2.9-5.3,5.3-7.1,2.1c-1-1.8,1.1-2.8,1.8-5.4c0.7-2.3-1.3-5.1-1.8-6.4c-1.6-4.5-2-9.6,0.5-13.6c0.4-0.2,0.7-0.6,0.5-1
			c-2.3-8.1,0.2-16.7,4-24.2c1.8-3.6,4-7,6.5-10.3c2.2-2.9,3.7-6,6-8.4c0.5,0.3,1.2,0.6,1.9,0.7c7.4,1.3,9.7-8.3,10.6-12.6
			c0.8-3.9,1.4-6.5,4.1-9.2c1.6-1.6,4.6-5.4,4.4-8.7l-0.2-1.1v0l-0.1-0.2c-0.4-0.9-1.8-0.6-1.7,0.4c0.3,2.9-1.6,6.2-3.7,8.3
			c-2.8,2.8-3.7,5.7-4.4,9.4c-0.7,3.8-1.7,8.1-4.3,10.4l-0.4,0.3l-0.1-0.7c-0.4-1.3-1.7-2.6-3.4-2.8c-1-0.1-2.4,0.1-3.3,0.7
			l-0.3,0.2l-0.5-1.1c-0.2-0.6-0.3-1.2-0.5-1.8l-0.2-1.7l0-0.3l-0.1-3.8c0-1.3,0-2.7,0-4.1c0-1.6-0.2-3.1-0.5-4.6l-0.1-0.3l-0.1-0.4
			l-0.3-1l-0.1-0.5l-0.1-0.3l-0.2-0.6l-0.3-0.7l-0.2-0.6c-1.3-2.9-2.1-5.3-1.6-8.3c0.2-1-1.3-1.4-1.7-0.5l0,0.2l-0.4,1.3
			c-0.1,0.7-0.1,1.5,0,2.2c-5.7,5.3-7.2,12.3-9.5,19c-0.8,2.3-1.9,4.5-3.9,4.9c-2.6,0.4-5.6-1.7-6.9-4.1c-3.5-6.3,2.1-13.7,6.6-18.9
			c2.4-2.8,5.2-5.1,8.4-7.1c2.2-1.4,4.6-3.5,6.7-3.7c-0.2,0.5-0.4,1-0.6,1.6c-0.1,0.5,0.1,0.9,0.6,1.1c0.5,0.1,1-0.1,1.1-0.6
			c1.7-5.8,6.5-9.8,12.4-11.1c3.2-0.7,6.8-0.8,10-0.2c3.8,0.6,5.9,2.6,9,5c-2.6,2.2-5.6,3.5-8.4,1.6c-0.4-0.3-0.9-0.1-1.2,0.2
			c-0.3,0.4-0.1,0.9,0.3,1.2c6.1,3.9,11.9-2.7,14.7-6.2c1.8-2.2,3-4.6,5.1-6.1c2.2-1.6,4.5-0.2,6,2.4c3,5.2,0,11.7-4.9,14.8
			c-4.9,3.1-13.3,4.5-17.5,0.1c-0.3-0.3-0.9-0.3-1.2,0c-0.4,0.3-0.4,0.9,0,1.2c3.9,4,10.1,3.9,15.1,2.2c0,0.2,0.2,0.4,0.4,0.6
			c2.3,1.4,3.9,6.4,4.4,9.3c0.1,0.4,0.4,0.7,0.7,0.7c3,3.4,3.4,8.8,3.6,13.5c0.2,3.2-0.5,5.8-0.7,9.2c-0.2,3.1,2.2,3.9,2.6,5.8
			C542,235,538.1,239,535.3,236.7z"/>
		<path class="st0" d="M507.4,197.6c-2.4-0.2-2.7,3.5-0.3,3.7C509.4,201.5,509.8,197.8,507.4,197.6z"/>
		<path class="st0" d="M496.3,197.2c-2.4-0.2-2.8,3.5-0.3,3.7C498.3,201.2,498.7,197.5,496.3,197.2z"/>
		<polygon class="st0" points="493.5,135.6 494,135 493.6,135.5 		"/>
		<polygon class="st0" points="493.5,135.8 493.5,135.6 493.3,135.9 		"/>
		<path class="st0" d="M484.1,89.2c-14.2,0.5-25.8,34.8-16.1,44.8c2.7,2.8,5.2,3.6,7,1.6c1.4-1.6,2-4.8,2.4-8
			c0.4-3.3,0.5-7.1,0.8-10.1c0.3-3.3,0.7-5,1.1-5.3l0.5-0.1c0.1-0.1,0.2-0.2,0.3-0.3c0.6,1,1.3,1.9,1.9,2.8l0.2,0.3l0.7,1.7
			c0.5,1.4,0.8,2.8,1.1,4.2l0.2,1.7l0.1,4.7c0.1,2.6,0.4,5.2,1.6,7.2l1.4,1.8c0.6,0.6,1.3,1,1.9,1.2l0.3,0l0.1,0l0.4,0l0.2,0l0.3,0
			c1.1,0,2.1-0.6,2.9-1.6l0.1-0.1l-0.3,0.2l0.9-1.1c0.8-1.2,1.4-2.7,2-4.5l0.5-1.8l0.3-0.9c0.3-1,0.6-2,0.8-3
			c1.3-5.3,2.1-11.2,2.5-15.2c0.1,0.5,0.3,1,0.4,1.6c0.9,3.8,1.5,8.4,2.3,12.8c0.8,4.3,1.7,8.3,3.2,10.9c1.6,2.8,4.1,3.9,7.4,1.7
			c0.4-0.3,0.8-0.6,1.1-0.8c0,0,0,0,0,0c4.2,1.6,6.3-1.4,7.1-5.6c0.8-4.2,0.4-10.3-0.3-16.6c-1.5-12.4-4.8-26.6-5.1-28.2
			c-1.1-7.6-2.7-20.5,4.6-24.8c6.8-4,9.9,3.1,10.3,9.2c0.6,7.9-2.7,16.3-4.2,24.4c-2.2,11.2-1,15.7,3.9,25.6c1.2,2.5,2.3,3.6,2.9,5
			l0.4,1.6l-0.2,0.3c-0.8,0.9-3.8,2.5-3.2,5.2c1.4,6.1,5.5,4.9,8.5,2c2.9-2.8,5.7-7.5,6.1-9.9c0.6-4,0.5-7.9,0.4-11.7
			c2.2,4.2,5.6,7.8,9.9,8.6c2.7,0.5,6.7-1.5,9-3.9c2.3-2.4,3.8-6.1-0.3-8.2c-0.3-0.1-0.6-0.1-0.8,0l-0.4,0.5
			c-0.5,0.8-4.8,4.2-6.6,3.9c-6.5-0.8-9.5-14.6-8.9-20c0-0.3-0.1-0.6-0.3-0.8c2.3-8.8,5.5-18,6.4-27.1c1.7-16.7-2.7-35.1-18.6-43.3
			c-16.4-8.4-33.7-3-42.6,13.1c-4.8,8.7-6.9,18.6-7.1,28.4C485.3,72.3,488.1,81.8,484.1,89.2z M556.3,115c2.1,0.3,5.4-1.9,7.1-3.5
			l0.7-0.7l0.1,0.1c1.6,1.3,1,3-0.9,4.9c-2.2,2.2-5.6,3.7-7.5,3.4c-4.9-1-8.8-6.6-10.4-12c-0.1-3,0-6,0.5-9.1
			C546.9,104.8,550,114.2,556.3,115z M494.1,36c8.5-15.3,24.8-20.4,40.3-12.4c15,7.7,19.4,25.1,17.7,41.6c-1,10.3-4.9,20.2-7.3,30.5
			c-0.5,2.3-0.8,4.6-0.9,6.9c-0.4,0.1-0.8,0.4-0.8,0.9c0.1,1.3,0.3,2.6,0.7,4c0.1,5.5,0.6,11-0.2,16.3c-0.3,1.8-2.8,6.2-5.6,8.9
			c-2.8,2.6-4.7,3-5.6-1.1c-0.5-2,3.1-2.7,3.4-4.9c0,0,0-0.1,0-0.1v-0.2c0,0,0-0.1,0-0.1c-0.3-2.8-2.2-4.6-3.5-7.2
			c-4.8-9.6-5.9-13.8-3.8-24.5c1.5-7.6,4.9-16.6,4.3-24.8c-0.5-6.5-4.1-15.8-12.9-10.6c-8.6,5-6.4,19.5-5.4,26.5
			c0.3,2.3,3.5,15.4,5.1,28.2c0.8,6.3,1,12.1,0.3,16.1c-0.6,3.6-1.8,5-3.9,4.6c10.4-11.7-8.7-37.9-14.8-44.4c-0.3-0.3-0.9-0.4-1.2,0
			c-0.3,0.3-0.4,0.9,0,1.2c7.1,7.7,26.2,35.2,12.5,44c-2.3,1.5-3.7,0.9-4.9-1.1c-1.3-2.2-2.2-6-2.9-10.3c-1.1-6.4-2-14.4-4.4-18.7
			c0,0,0-0.1-0.1-0.1c-0.6-1.2-1.4-2.1-2.3-2.6c-0.4-0.2-1-0.1-1.2,0.3c-0.3,0.4-0.1,0.9,0.3,1.2c0.6,0.3,1.1,0.9,1.5,1.8
			c-0.2,2.4-1,11.3-2.7,19c-0.2,1-0.5,2-0.7,2.9l-0.3,0.8l-0.6,1.8c-0.3,0.8-0.6,1.6-0.9,2.3l-0.1,0.2l-0.2-0.3
			c-0.8-0.8-2.7-1.5-4.2-1.6c-0.4,0-0.8,0-1.2,0.1L487,131l-0.3-1.8c-0.2-1.4-0.4-2.9-0.5-4.4l-0.2-1.7l0-1.1
			c-0.1-1.6-0.2-3.2-0.7-4.6c-0.2-0.7-0.5-1.3-0.8-1.9l-0.9-1.7l-0.4-1c-1.5-3-3.2-5.6-4.1-9.3c-0.2-1-1.7-0.8-1.7,0.2
			c0,2.7,0.9,4.9,2,6.9c-0.4,0-0.7,0.1-1,0.3c-2.1,1.5-1.8,9.3-2.6,16.6c-0.4,3.3-1,5.9-2,7c-0.6,0.7-1.7,1.1-4.4-1.6
			c-8.8-9.1,2.5-41.4,14.8-41.9c0,0,0,0,0,0c0.3,0.2,0.7,0.1,1-0.1c0.3-0.1,0.6-0.4,0.6-0.8c0-0.1,0-0.1,0-0.2
			c4.2-8,1.4-18.5,1.5-26.3C487.4,54,489.4,44.4,494.1,36z"/>
		<path class="st0" d="M491.9,110.5l0.5-0.1h0l0,0l0.5-0.3c1.1-0.7,1-1.5-0.1-2.5C491.1,107.1,490,110.1,491.9,110.5z"/>
		<polygon class="st0" points="492.4,110.4 492.4,110.4 492.4,110.4 		"/>
		<path class="st0" d="M483.7,108.7c-2,0.3-0.9,3.1,0.8,3C486.6,111.6,485.3,108.4,483.7,108.7z"/>
		<path class="st0" d="M446.8,599.8l-0.2,0.2h1.6h2.9h1.7l-0.8-0.6C450.2,598.4,448.2,598.8,446.8,599.8z"/>
		<path class="st0" d="M452.4,13.1l0.5-1.3l6.1,2.3c1.3,0.4,2.5,0.8,3.8,1.1l3,0.6l-0.3,1.4c-0.2,2.2,0.2,3.7,1.4,4.6
			c1.5,1.2,3.5,0.8,5.2,0.1c2.9-1.3,5.7-5,2.9-7.4l-0.2-0.1l0.3-0.2c3.5-2.6,2.6-8.6-3.1-8.4c-1.6,0-2.6,0.6-3.6,1.7
			c-0.3,0.3-0.5,0.5-0.5,0.6l-0.2,0.2l-0.2,0c-1.3,0-3.2-1.2-5-1.8c-2.1-0.7-4.2-1.3-6.3-2c-0.4-0.1-0.6-0.2-0.9-0.2L455,4.2
			l-0.3-0.7c0-0.3-0.1-0.8-0.5-1.5c-0.4-0.8-0.9-1.4-1.4-1.9L452.7,0h-6l-0.5,0.4c-1.2,1.3-1.6,3.3-0.4,5.4l0.1,0.1L445.7,6
			c-3.1,1.5-4.8,5.5-1.8,8.5C445.8,16.4,450.7,15.5,452.4,13.1z M447.5,7.3c0.6-0.1,0.9-0.9,0.5-1.4c-3.6-4.4,2.5-7.6,4.7-3.1
			c0.3,0.7,0.2,2,1.2,2.8l0,0l0.1,0l0,0c0.5,0.3,1.7,0.6,1.8,0.6c2.1,0.7,4.2,1.3,6.3,2c1,0.3,4,1.9,5.6,1.8c0.3,0,0.5,0,0.8-0.2
			l0.1,0l0.1-0.1l0.1,0c0.4-0.2,0.8-0.9,1-1c0.8-0.8,1.3-1.1,2.4-1.2c4.1-0.1,4.9,4.7,0.7,6c-0.8,0.2-0.8,1.3-0.1,1.6
			c3.3,1.5,1.3,4.1-1.4,5.3c-1.4,0.6-2.7,0.6-3.3,0.1c-0.6-0.5-1.2-1.9-0.3-5.2c0.1-0.5-0.2-1-0.7-1.1c-5-0.7-10-2.6-14.7-4.6
			c-0.7-0.3-1.4,0.4-1.2,1.1c0.7,2-4.2,4.2-6,2.5C443.1,11.2,444.5,7.9,447.5,7.3z"/>
		<path class="st0" d="M5.4,167.5c2.8,2.9,7.1,2.2,9.6-0.5c2.2-2.4,2.6-5.3,2.2-8.2c0.1,0,0.2-0.1,0.2-0.1c1.5-1.2,2.9-2.5,4.2-3.9
			c3.4,2.9,7.7,4.3,12.1,4.4c2.9,0.1,7.8-0.4,9.2-4.3c0.8-2.1,0.1-5-2.3-6c-2.5-1-4.3,0.7-5.5,1.9c-0.9,0.8-0.8,0.9-1,0.8
			c-0.5-0.1-1.4-1.1-2.1-1.8c-1.6-1.7-2.8-3.8-3.2-6.1c0-0.1,0-0.1-0.1-0.1c4.1-10.1,4.2-21.4,4.5-31.9c0.4-10.8,0.3-21.6-0.7-32.4
			c1.7,1,3.7,1.2,5.6,1.2c2-0.1,2.4,0.1,4.1,1.2c4.6,3.2,7.7-2.1,6.4-6c-1.4-4.3-6-6.3-9.4-7.8c-3.9-1.7-7.5-3.5-9.9-6.8
			c-0.1-0.2-0.3-0.3-0.6-0.3c-3.3-7.9-9.5-15.5-19-13.9C9,40.3,6.4,33.1,0.8,28.7L0,28.2v2l1.6,1.4c4,4.1,6,10,6.7,15.7
			c0,0.1,0.1,0.2,0.1,0.3c0,0.1,0,0.2,0,0.4c0.1,0.4,0.5,0.7,1,0.6c11.5-2.6,18.3,10.2,20.2,20.1c0.1,0.4,0.5,0.7,1,0.7
			c0.5-0.1,0.8-0.5,0.7-1c-0.3-1.3-0.6-2.7-1-4.1c2.5,2.3,5.5,3.7,8.5,5c3.5,1.6,7.3,3.3,8.5,6.8c1.1,3.2-1.3,5.9-3.9,4.1
			c-2-1.4-2.7-1.6-5.1-1.5c-2.2,0.1-4.3-0.4-5.9-1.7c-0.4-0.3-0.9-0.2-1.2,0.1c0,0,0,0.1,0,0.1c-0.2,0.2-0.3,0.4-0.2,0.6
			c1.1,11.2,1.2,22.5,0.8,33.8c-0.3,10.6-0.4,21.8-4.5,31.5c-0.1,0.2-0.1,0.5,0.1,0.7c0,0.1,0,0.1,0,0.2c0.5,2.6,1.8,5,3.7,6.9
			c0.3,0.4,1.8,2.1,3,2.3c1.3,0.2,2.1-0.9,2.5-1.3c1.4-1.3,2.4-2.1,3.7-1.6c1.4,0.6,1.9,2.3,1.4,3.9c-1,2.6-4.6,3.3-7.6,3.2
			c-4.2-0.1-8.4-1.5-11.4-4.4c-0.3-0.2-0.6-0.3-0.9-0.1c-0.2,0-0.5,0.1-0.6,0.3c-1.2,1.3-2.5,2.5-3.9,3.7c-0.8-2.9-2.3-5.6-3.6-7.7
			c-2.5-3.9-6.8-9.3-12.1-11.1L0,137.9v1.7l0.6,0.2c4.6,1.6,8.6,6.4,11.2,10.4c3,4.7,5.9,11.4,2,15.6c-2,2.1-5.2,2.5-7.2,0.5
			c-1.9-1.9-2.3-5.1-3.1-8.1c-0.7-2.6-1.5-5.6-2.9-8.4l-0.6-1v3.9l0.7,1.9c0.4,1.4,0.8,2.8,1.2,4.1L0,159.2v1.7l2.2-0.7
			C2.8,162.7,3.5,165.5,5.4,167.5z"/>
		<path class="st0" d="M3,117.7c3.2-11.2,4.4-23,3.4-34.7c0-0.4-0.4-0.8-0.9-0.7c-0.5,0-0.8,0.4-0.8,0.9c0.1,0.7,0.1,1.4,0.1,2.1
			c-1.2,0-3.3-0.3-4.9,0.1l0,0v1.8l0.1-0.1C1.4,86.5,3,87,5,87c0.4,10.2-0.8,20.4-3.5,30.2c-0.3,0.9-0.5,1.9-0.8,2.9L0,122.2v5.1
			l0.2-0.6C1.5,123.5,2.3,120.3,3,117.7z"/>
		<path class="st0" d="M3.7,75.1c0.2,1,0.4,2.1,0.5,3.2c0.1,0.4,0.5,0.8,0.9,0.7c0.5-0.1,0.8-0.5,0.7-0.9c-0.4-2.6-0.9-5.2-1.6-7.7
			c0-0.1,0-0.2-0.1-0.3c-0.5-2.1-1.1-4.2-1.5-6.2c-1-4.4-1.4-9.1,1.3-12.6c0.2-0.2,0.2-0.5,0.1-0.8c1.1-4.2-0.8-8.1-3.6-11.1L0,38.9
			v2.5l0.7,0.9c1.7,2.4,2.5,5.2,1.7,8.1c0,0.1,0,0.2,0,0.3c-2.8,4.1-2.2,9.3-1.3,13.5c0.4,2,0.9,3.9,1.4,5.8c0,0,0,0,0,0.1
			c0.7,2.4-0.1,4.3-1.5,6.1l-1,1.1v2.4l1-1C2.1,77.5,3,76.3,3.7,75.1z"/>
		<path class="st0" d="M597.3,137.6c-0.5,0-0.8,0.4-0.8,0.8c0,0.5,0.4,0.8,0.8,0.8c0.7,0,1.5,0.1,2.2,0.2l0.4,0.1v-1.7l-0.1,0
			C599.1,137.7,598.2,137.6,597.3,137.6z"/>
		<path class="st0" d="M594.5,143.2c-0.4-0.2-0.9,0-1.1,0.4c-0.2,0.4,0,0.9,0.4,1.1c3.1,1.5,4.9,4.5,6.2,7.8l0.1,0.2v-3.9l-0.5-1
			C598.2,145.9,596.6,144.3,594.5,143.2z"/>
		<path class="st0" d="M589.9,137.5c-0.1,0-0.1,0-0.2,0c-0.1,0-0.1,0-0.2,0c-7.2,0.2-14.1,6.1-13.5,13.8c-2.2,0.8-4.6,1.4-6.9,1.9
			c-3.4,0.7-9.9,0.5-13.3,2.9c-2.3,1.6-2.1,3.5-0.9,5c1,1.3,2.9,2.4,4.1,2.9c4.1,1.7,8.6,2.7,13,3c9.1,0.7,18.3-1.3,26.3-5.4
			c0.1,0,0.1-0.1,0.2-0.2l1.5-0.4v-1.7l-2.3,0.7c-0.2,0.1-0.3,0.2-0.4,0.3c-1,0.5-1.9,0.9-2.9,1.3c0.2-0.7,0.4-1.3,0.8-2
			c0.5-1,0.9-1.2,1.4-1.1c0.5,0.1,0.9-0.2,1-0.6c0.1-0.4-0.2-0.9-0.6-1c-2.9-0.7-3.6,3-4.5,5c-0.1,0.1-0.1,0.3,0,0.4
			c-6.5,2.4-13.5,3.5-20.3,3c-3.5-0.3-6.9-0.9-10.2-2.1c1.4-2.1,0.2-6.6-0.1-7.5c2.5-0.4,5.2-0.4,7.6-0.9c2.9-0.6,6.2-1.4,9-2.7
			c1.2-0.6,2.7-1.3,3.6-2.7c0.9-1.3,1.1-3.4,1.5-4.3c1.2-2.7,3.7-4.4,6.5-5.9c4.1-1.5,6.9-5.1,8.8-9.2l1.1-2.6v-5.1l-0.3,1
			C597.8,129.2,595.1,135.3,589.9,137.5z M560.2,156.1c0,0.1,0,0.2,0.1,0.3c-0.1-0.1-0.3-0.2-0.5-0.3
			C560,156.1,560.1,156,560.2,156.1C560.2,156,560.2,156.1,560.2,156.1z M582.1,144.3c-0.7,1.6-0.7,3-1.4,4.1
			c-0.6,0.9-1.7,1.5-2.9,2.1c0,0-0.1,0-0.2,0.1c-0.1-5.1,3.6-9.3,8.4-10.9C584.4,140.9,583,142.4,582.1,144.3z"/>
		<path class="st0" d="M583,28.9c4.6-3.9,12.1-2.4,16.7,1.1l0.3,0.2v-2l-1.3-0.8c-5-2.8-12.1-3.9-16.8,0.2c-0.5,0.5-2.8,2.6-1.6,4.5
			c0.9,1.3,3.4,1,3.8,1.1c3.5,0.3,7,1.4,10,3.2c1.9,1.1,3.7,2.6,5.3,4.2l0.7,0.9v-2.5l-1.3-1.3c-1.2-1.1-2.6-2-3.8-2.8
			c-3.3-1.9-6.9-3-10.7-3.4c-1.4-0.1-2.3,0.1-2.5-0.3C581.4,30.8,582.1,29.7,583,28.9z"/>
		<path class="st0" d="M593.2,85.3c-0.5,1.3-0.1,3.7,0.7,5.3c0.8,1.6,2.7,3.1,4.6,0.9c1.3-1.5,0.5-3.1,1.2-4l0.3-0.2v-1.8l-0.7,0.3
			c-2.2,1.1-1.3,3.7-2.1,4.7c-0.8,0.9-1.2,0.7-1.9-0.5c-0.7-1.4-0.9-3.2-0.6-4c0.7-1.9,2.5-3.6,4.4-5.4l0.9-0.8v-2.4l-0.6,0.6
			C597.1,80.1,594.2,82.4,593.2,85.3z"/>
		<path class="st0" d="M592.9,149.7c0,1.6-1.8,2-3.1,0.6c-0.3-0.3-0.8-0.4-1.2-0.1c-0.3,0.3-0.4,0.8-0.1,1.2c1.8,2,6,1.9,5.9-1.7
			c0-0.4-0.4-0.8-0.9-0.8C593.2,148.9,592.9,149.3,592.9,149.7z"/>
		<path class="st0" d="M510.2,376.8c1.4,2,4.6-1,2.6-2.8C511,372.4,508.9,374.9,510.2,376.8z"/>
		<path class="st0" d="M523,371.1c-2.6-1.3-3.4,2.9-1,3.4C524.1,375.1,524.7,371.9,523,371.1z"/>
		<path class="st0" d="M554.2,345.8c-4.6-5-11.2-0.3-14.8,1.6c-5.5,2.9-12.4,7.2-18.2,5.1c-0.2-0.1-0.3-0.1-0.5,0
			c-5.2-5.4-12.9-8.1-20.1-9c-18.8-2.4-38.2,5.1-52,17.7c-14,12.8-22.2,31.6-22.1,50.6c-6,0.1-10.4-6.9-14.1-12
			c-0.3-0.4-0.8-0.5-1.2-0.2c-5.5,3.9,1.9,14.6,4.2,16.8c3,3,7.1,4.8,11.2,5.4c-0.1,0.1-0.2,0.3-0.2,0.4c-0.2,5.2,1.4,9.7,4.1,14
			c1.1,1.8,1.6,2.8,1.3,4.6c-0.2,1.1-1,2.9,1,4.3c2.1,1.4,6.3,0.5,7-2.4c0.5-2-1.3-3.6-1.7-4.7c-0.6-1.5-0.2-3.5,0.8-4.8
			c0-0.1,0.1-0.1,0.1-0.2c4,2.2,8.9,2.7,12.3-1.2c1.2,2.1,1,5,0.7,8.1c-0.2,1.6-0.3,4.3,1.9,5.6c2.7,1.6,5.5-0.7,6-3.1
			c0.6-2.6-0.7-3.7,0.3-5.7c1.1-2.2,2.2-4.3,2.4-7c0.3-4.9-2.1-9.7-6.1-12.5c0,0-0.1,0-0.1,0c0.9-15.2,8.7-31.4,21.1-40.5
			c1,1.5,1.4,3.9,1.4,5.9c0,1.6-0.7,4.5,0,6.6c0.8,2.7,4.6,5,6.8,1.6c1.4-2.1,0.2-4.2-0.4-5.6c-0.6-1.3,0.1-1.4,1-3.5
			c0.9-2.2,2.7-7.1,1.6-10.5c2.2-0.9,4.7-1.8,7.2-2.3c-2.6,2.9-4.7,6.4-5.8,10.3c-2,6.7-2.2,16.6,3.4,22.2c2.2,2.2,6.6,3.9,9.1,0.3
			c2.3-3.4,1.8-8.4,1.8-11.8c0-4.8,0-9.5,0.4-14.2c0.1-1.4,0.3-2.8,0.5-4.1c2.5,8,6.6,16,10.9,23c1.7,2.9,4.7,8.3,8.8,9.5
			c3.8,1.1,5.1-1.9,5.4-4.7c0.3-2.9-0.3-6.3-0.4-7.7c-0.6-6-1.2-12-1.9-18c-0.4-3.3-0.2-7.8-1.2-11.8c7.7,2.8,18.8,5.3,26.2-0.8
			C556.2,357.9,558.5,350.5,554.2,345.8z M527.7,399.2c0-0.1,0-0.1-0.1-0.1C527.6,399,527.7,399.1,527.7,399.2
			C527.7,399.1,527.7,399.1,527.7,399.2z M526.4,402.6c0.2-0.1,0.3-0.3,0.5-0.5C526.8,402.4,526.6,402.5,526.4,402.6z M527.2,392.1
			c0.1,1.1,0.4,3,0.5,5c-2.7-1.3-5.8,0.7-7,3c-1.6-1.8-2.9-4.2-4.1-6.1c-4.6-7.5-9-16.2-11.3-24.6c0.4-0.5,0.9-1,1.5-1.3
			c0.4-0.2,0.6-0.7,0.4-1.1c-0.2-0.4-0.7-0.6-1.1-0.4c-3.6,1.7-3.8,6.5-4,9.2c-0.5,4.8-0.5,9.6-0.4,14.4c0,3.7,0.5,8-1.5,10.9
			c-1.5,2.2-4.5,1.5-6.5-0.6c-4.9-4.9-5-14-3-20.5c2.2-7.3,7.8-13.4,14.9-16.3c0.4-0.2,0.6-0.6,0.5-1.1c-0.2-0.4-0.7-0.6-1.1-0.4
			c-2.9,1.2-5.6,2.9-8,5c0,0-0.1,0-0.1,0c-3.4,0.5-7,1.7-9.8,2.8c-0.1-0.2-0.3-0.4-0.4-0.5c-0.3-0.3-0.9-0.3-1.2,0
			c-0.3,0.3-0.3,0.8,0,1.2c2.2,2.2,0.5,7.6-0.8,10.7c-0.5,1.3-1.9,2.7-0.9,4.8c0.7,1.7,1.3,2.8,0.5,4c-1.1,1.7-3.2,0.9-3.8-1.2
			c-0.6-1.9,0.2-3.6,0.1-6.1c-0.1-2.6-0.6-8.6-5.2-8.9c-0.5,0-0.9,0.3-0.9,0.8c0,0.4,0.3,0.8,0.8,0.9c0.4,0,0.7,0.1,1,0.2
			c-12.7,9.4-20.6,26.2-21.5,41.7c0,0.4,0.2,0.7,0.5,0.8c0,0.2,0.2,0.4,0.3,0.5c3.5,2.4,5.6,6.7,5.4,11c-0.1,2.3-1.1,4.2-2.2,6.4
			c-1.2,2.3,0,4.2-0.5,6.1c-0.4,1.8-2.2,2.8-3.5,2c-1.1-0.7-1.3-2.2-1.1-4c0.5-4.5,1-9.8-4.6-12.5c-0.4-0.2-0.9,0-1.1,0.4
			c-0.2,0.4,0,0.9,0.4,1.1c0.8,0.4,1.5,0.8,2,1.3c-4,5-11.6,1.9-15.2-3c-0.3-0.4-0.8-0.5-1.2-0.2c-0.4,0.3-0.5,0.8-0.2,1.2
			c1,1.3,2.3,2.6,3.9,3.7c-1.4,1.7-1.9,4.3-1.1,6.4c0.6,1.5,1.9,2.6,1.6,3.8c-0.3,1.4-3,2.3-4.4,1.4c-0.9-0.6-0.6-1-0.3-2.7
			c0.4-2.4-0.4-3.9-1.5-5.8c-2.5-4.1-4-8.3-3.9-13.1c0-0.1,0-0.3-0.1-0.4c2.1,0.1,4.3-0.1,6.3-0.7c0.4-0.1,0.7-0.6,0.6-1
			c-0.1-0.4-0.6-0.7-1-0.6c-6,1.7-12.9,0-17.4-4.4c-2.4-2.4-6.9-9.5-5.4-13l0.4-0.7l1,1.4c3.8,5.4,9.4,12.7,17.3,9.9
			c0.4-0.2,0.7-0.6,0.5-1.1c-0.2-0.4-0.6-0.7-1.1-0.5c-0.4,0.1-0.8,0.2-1.2,0.3c0-18.5,8-36.7,21.6-49.2
			c13.5-12.3,32.4-19.6,50.7-17.3c8.8,1.1,17.9,5,22.3,12.7c-0.2,0.3-0.2,0.6,0,0.9c2.6,4,2.1,10.2,2.7,15.3
			C526,380.1,526.6,386.1,527.2,392.1z M550.8,360c-6.7,5.5-16.9,3.2-24.8,0.4c-0.3-0.1-0.5,0-0.8,0.1c-0.2-0.7-0.5-1.4-0.9-2
			c0.2-0.2,0.2-0.5,0-0.8c-0.6-1.1-1.2-2.1-1.9-3c6.2,1,13.1-3.3,17.7-5.7c4.4-2.3,9.3-5.7,12.7-2
			C556.2,350.7,554.6,356.9,550.8,360z"/>
		<path class="st0" d="M237.9,273.7c-1.8,0.3-4-2-3.3-3.1c0.2-0.4,0.1-0.9-0.3-1.1c-0.4-0.2-0.9-0.1-1.1,0.3c-1.7,3,2.4,6.1,5.1,5.6
			c0.4-0.1,0.8-0.5,0.7-1S238.3,273.7,237.9,273.7z"/>
		<path class="st0" d="M297.8,317.8c8.1-0.6,17.5-1.9,25.5-5.6c0.7,2.2,0.6,4.7-0.2,6.9c-0.4,1-0.6,1-1.8,1.7
			c-0.6,0.4-1.8,1.1-2,2.3c-0.7,4.5,6.4,4.2,8.6,2.9c6.4-4.1,7.1-14.5,5.6-20.7c0,0,0-0.1-0.1-0.1c0.2-0.2,0.4-0.4,0.6-0.6l1.4-1.7
			l1.1,1.2c5.4,4.6,14.5,5.7,20.2,1.2c2.6-2.1,6.5-7.7,2.9-11.5c-2.1-2.2-3.9-0.9-5.2,0.4c-1.4,1.5-2.2,2.8-3.1,3.1
			c-3,0.9-7.3-3.1-8.9-6c-1.8-3.3-0.8-6.8-2.8-10.6c-1.5-2.7-4.1-4.4-6.7-5.4c-4-1.5-4.7-4.7-6.9-8.7c-2.5-4.6-6.9-9-12-10.8
			c-2.5-0.9-5.5-1.1-8,0.6c-2.1,1.5-3.8,4.5-2.5,7.2c0.2,0.4,0.7,0.6,1.2,0.4c5.8-3.3,12.3,2.7,13.1,8.8c0.9,6.7-2.9,12.6-8.8,15.7
			c-6,3.1-13.2,3.6-20.1,3.2c-5.2-0.3-10.6-1.3-15.5-3.3c-0.2-0.2-0.4-0.2-0.6-0.2c-2.3-1-4.5-2.2-6.5-3.7
			c-4.2-3.2-5.6-7.6-7.8-12.1c6.6,1.4,13.4-3.3,16.7-8.3c2.9-4.3,4-11-1-14.8c-3.4-2.7-6.2,0.6-7.7,2.5c-4.4,5.7-8.4,14.7-15.7,10.9
			c-0.3-0.2-0.7-0.1-1,0.1c-1.4-0.5-2.9-0.8-4.6-0.6c-4.2,0.5-8.2,3.1-11.8,4c-8,1.9-14.4-4.8-20.7-9.6c-1.6-1.2-4.6-3.9-7.4-3.7
			c-3.8,0.2-3.7,5.1-3.6,6.8c0.7,16.3,18.8,25.1,32.3,27.7l0.4-0.1l1,4c1.3,4.2,3.3,8.3,6,11.8c-5.3,0.4-10.9,2.3-14.2,6.9
			c-2.3,3.3-5,11.1,0.8,13.9c3.1,1.5,6.2-0.4,6.6-3.7c0.4-3.2-0.2-4.6,2-6.3c3.5-2.7,9.3-3.2,13.8-2.6c0.2,0,0.4,0,0.5-0.1
			c1.2,0.6,2.4,1.2,3.6,1.8c1.1,3.9,2.5,8.2,5.5,11.4c2.1,2.3,6.4,5.6,10.3,3.5c2.5-1.3,4.2-5.8,0.4-7.4c-2.2-1-3.6,0.4-4.6-0.9
			c-0.5-0.7-0.7-2-0.5-3.1C276.3,318.6,287.6,318.5,297.8,317.8z M327,324.5c-1.5,0.9-6.4,1-6.1-1.2c0.1-0.4,0.5-0.8,1.2-1.2
			c1.1-0.7,1.9-0.9,2.5-2.6c0.9-2.5,1-5.4,0.2-7.9c0-0.1-0.1-0.1-0.1-0.2c2.7-1.4,5.1-3,7.3-5C333.3,312.6,332.3,321.2,327,324.5z
			 M268.1,252.5c1.8-2.3,3.4-3.7,5.2-2.2c3.9,3,3.3,8.5,0.6,12.5c-3.3,5-10,9.2-15.9,7.3c-0.1,0-0.3,0-0.4,0c-0.6-1.1-1.2-2.1-2-3.1
			c-0.5-0.7-1.1-1.4-1.8-2C260.7,265.4,265,256.5,268.1,252.5z M235.8,312.3c-2.9,2.3-2.3,4.8-2.7,7.4c-0.3,2.2-2.2,3.3-4.2,2.4
			c-4-1.9-2.6-7.9-0.1-11.4c3.3-4.7,9.5-6.3,15.2-6.3c0.5,0,0.8-0.4,0.8-0.8c0-0.5-0.4-0.8-0.8-0.8c-0.1,0-0.2,0-0.4,0
			c-3.9-4.8-6.5-10.7-7.7-16.8c-0.1-0.4-0.5-0.7-1-0.6l-0.4,0.3l-0.1-0.1c-5.6-1.1-11.9-3.3-17.3-6.5c0.8-0.8,2-1.3,3.2-1.3
			c0.5,0,0.8-0.4,0.8-0.8c0-0.4-0.4-0.8-0.8-0.8c-1.5,0-3.4,0.7-4.6,2.1c-6.6-4.4-11.7-10.5-12.2-18.4c2.7,0.8,5.8-0.6,7.1-3
			c0.4,0.3,0.8,0.6,1.2,0.9c5.9,4.5,13.1,12,22.1,9.9c4.3-1,7.6-3.5,11.6-3.9c3.6-0.4,6.5,1.5,8.7,4.4c3.7,5,5.4,13.2,11.2,17.6
			c2.1,1.6,4.4,2.9,6.8,3.9c1,3.1-0.7,6.6-3.7,8.1c-3.8,1.8-7.8-0.1-10.9-3c-6.3-5.9-9.8-14.9-10.5-23.5c0-0.5-0.4-0.8-0.9-0.8
			c-0.5,0-0.8,0.4-0.8,0.9c0.7,8.9,4.4,18.3,11,24.5c3.2,3,8,5.5,12.7,3.3c3.3-1.6,5.4-5.2,4.9-8.8c4.8,1.8,9.9,2.6,14.8,2.9
			c6.9,0.4,14.5,0,20.9-3.4c6.5-3.4,10.7-9.9,9.7-17.4c-0.8-6-7.2-13.2-14.1-10.7l-0.4,0.2l-0.1-0.5c0-1.4,0.9-2.9,2.2-3.8
			c1.8-1.3,4.2-1.2,6.4-0.4c4.6,1.6,8.7,5.7,11.1,10c1.9,3.6,3,7.8,7.8,9.5c2.4,0.9,4.6,2.4,5.8,4.6c1.6,3,1,7.4,2.8,10.6
			c1.6,2.8,6.5,8.2,10.9,6.8c1.5-0.5,2.9-2.6,3.8-3.6c1.1-1.2,1.8-1.4,2.8-0.4c2.4,2.5,0.1,6.9-2.7,9.1c-5.6,4.4-15.6,2.6-19.9-3.1
			c-0.3-0.4-0.8-0.4-1.2-0.1c-0.2,0.1-0.3,0.3-0.3,0.5l0.1,0.3c-8.2,10.9-23.6,13.8-36.8,14.7c-15.5,1.1-33,0.7-46.5-7.1
			c-0.4-0.2-0.8-0.1-1.1,0.2C245.5,308.8,239.7,309.4,235.8,312.3z M265,320.4c1.6,2,4.3,1,5.3,1.4c1.7,0.7,1.6,3.3-0.5,4.4
			c-2.7,1.4-6.1-0.8-8.3-3.2c-2.4-2.6-3.7-6-4.8-9.4c2.4,1,4.9,1.7,7.5,2.4C264,317.2,264,319.2,265,320.4z"/>
		<path class="st0" d="M70,188.7c-0.9,0.8-0.6,2.2,0.6,2.4C73.3,191.5,72.2,186.7,70,188.7z"/>
		<path class="st0" d="M5.6,213.3c2,2.5,3.7,6.2,2.7,9c-1.2,3.4-3.7,6.4-1.8,10.9c-1.8,3.4-2.7,7.3-1.9,11.2c0.7,3.4,2.4,6.3,1.3,9
			c-0.9,2.1-3.5,3.6-3.2,6.8c0.2,2,3,6.7,6.2,4.3c1.7-1.3,1.2-4.9,1.6-5.5c1.1-2,3.2-1.3,6-2.4c1.6-0.6,2.8-1.7,3.8-2.9
			c26.1,21.9,70.6,22.6,82.7-5.9c0.4,1.7,1.5,3.3,3.4,3.6c4.3,0.8,5.8-4.2,5-6.9c-0.4-1.5-2-2.7-2.3-3.9c-0.4-1.5,0.2-2.8,0.2-4.8
			c0.1-4.7-1.6-9.4-3.2-13.6c-0.1-0.1-0.1-0.2-0.3-0.3c-1.4-6.1-4.6-11.6-8.9-16.1c-3.2-3.3-6.7-6.2-9.1-9.8
			c5.4,2.2,13.3-0.5,17.1-3c3.2-2.1,5.9-5.1,7.6-8.6c0.8-1.6,3.5-7.6-0.8-9.1c-4.1-1.5-8.5,3.9-10.5,5.4c-3,2.5-6.6,4.6-10.3,5.4
			c-4.3,0.9-7.1-0.9-11.6-2.2c-4.8-1.4-8.7-0.6-13.1,0.9c-8,2.6-17.7,0-25.7-2.9c-0.4-0.1-0.9,0.1-1.1,0.5c-0.1,0.2-0.1,0.4,0,0.6
			c-0.1,6.1,4.8,9.4,9.7,10.9c3.2,1,6.5,1.9,9.8,2.7l3.6,0.8l-0.8,0.7c-2.1,1.6-4.6,2.8-7.2,3.9c-0.5,0.2-5.5,1.6-6.2,3.5
			c0,0,0,0.1,0,0.1l0,0.2c0,0.1,0,0.2,0,0.2l0,0.2c0,0,0,0.1,0,0.1c0,0.1,0.1,0.1,0.1,0.2c0,0.2,0,0.4,0.1,0.6
			c3.2,4.5,9.6,2.7,13.3,1.7c2.8-0.7,5.6-1.7,8.3-2.6c2.1-0.7,3.8-1.2,4.5,0.2c0.1,0.2,0.4,0.4,0.6,0.4c-0.2,2.6-0.6,5.3-0.8,8
			c-0.1,0-0.1,0-0.2,0c-3.7,1-8.2,4.6-7.1,9.3c0.9,3.6,5.7,6.3,7.5,2.4c0.2,0.8,0.4,1.6,0.8,2.4c-0.3,0.2-0.4,0.4-0.4,0.7
			c0.1,3.4-4,6.3-7.3,7.5c-3.8,1.4-7.9,1.5-11.6-0.1c-5.4-2.4-10.9-5.2-15.9-8.4c-3.3-2.1-4.8-4.7-8.2-7.3
			c-3.5-2.7-7.7-3.3-11.7-3.7c-0.3,0-0.5,0-0.6-0.1l0-0.1c0-0.1,0-0.3,0-0.7c-0.1-0.9-0.2-1.8-0.5-2.8c-0.5-2-1.7-3.5-3-4.8
			c-3.1-3.1-7.5-4.9-11.8-5.3c-0.7-0.1-1.5-0.1-2.3-0.1L0,204v1.7l1.9-0.1c0.7,0,1.5,0,2.1,0.1c4,0.4,7.9,2,10.7,4.8
			c1.2,1.2,2.1,2.5,2.6,4.1c0.2,0.8,0.3,1.6,0.4,2.5c0,0.4,0,0.9,0.1,1.2c0.1,0.4,0.4,0.8,0.8,0.9c0.3,0.1,0.8,0.2,1.3,0.2
			c4,0.4,7.7,1,10.8,3.4c2.5,1.9,5.3,5.4,8.3,7.4c5.1,3.2,10.7,6.1,16.2,8.5c4.1,1.8,8.7,1.7,12.9,0.2c2.9-1.1,7.4-3.8,8.2-7.8
			c1.2,1.6,3,2.5,5.5,2.1c4.2-0.7,4.4-6.4,4.4-8.8c0.1-5.1-0.9-10.3-2-15.3c-0.9-4-1.8-8.2-3.4-12.1c-0.2-0.4-0.7-0.6-1.1-0.4
			c-0.4,0.2-0.6,0.7-0.5,1.1c1.5,3.7,2.4,7.8,3.3,11.8c1.1,4.9,2,9.9,1.9,14.9c0,3-0.4,6.7-3.1,7.2c-4.9,0.8-6.1-6-6.1-10.5
			c0-7.7,2.7-16.6,0.3-24.6c-0.1-0.4-0.6-0.7-1-0.6s-0.7,0.6-0.6,1c0.8,2.6,1,5.2,0.9,7.9c-1.7-1.5-4.5-0.4-5.7,0
			c-2.8,0.9-5.4,1.9-8.2,2.6c-3.4,0.9-7.4,1.9-10.1,0.3c0.8-0.1,1.5-0.3,2.2-0.5c1.6-0.5,3.2-1.1,3.6-1.3c4.7-1.6,8.8-4.3,12.5-7.4
			c0.5-0.4,0.3-1.3-0.4-1.5c-6.6-1.3-13.2-2.7-19.5-4.8c-2.6-0.8-5-2.1-6.6-4c1.5-0.3,2.8-1.4,3.5-2.8c6.6,1.8,13.8,2.8,20.2,0.8
			c4.3-1.4,7.9-2.1,12.2-0.9c4,1.1,7.6,3.3,12.4,2.2c4.1-0.9,7.9-3.1,11.1-5.7c2.7-2.2,5.9-6.2,8.8-5.2c2.2,0.8,1,4.3-0.2,6.8
			c-1.5,3.2-4,6-7,7.9c-4.6,3-13.7,5.4-17.8,1.4c0-0.1-0.1-0.2-0.1-0.3c-0.2-0.4-0.6-0.6-1-0.5c-0.2,0-0.4,0-0.6,0.2
			c-0.3,0.3-0.4,0.8-0.1,1.2c0.1,0.2,0.3,0.3,0.4,0.4c2.4,5.4,7.2,9.1,10.9,13c4.2,4.3,7.3,9.6,8.6,15.5c0,0.2,0.2,0.4,0.3,0.5
			c1.6,4.1,3.1,8.5,3,12.8c0,1.2-0.7,3.6-0.1,5.3c0.6,1.9,1.9,2.5,2.3,3.9c0.7,2.4-0.9,5.2-3.1,4.8c-1.9-0.3-2.7-3.2-2.3-5.5
			c0-0.2,0-0.3-0.1-0.5c0.4-1.4,0.8-2.9,1-4.4c0.1-0.4-0.2-0.9-0.7-1c-0.5-0.1-0.9,0.2-1,0.7c-6,34.6-54.1,37-82.5,13.2
			c0,0-0.1-0.1-0.1-0.1c1.6-3.2,1.3-7.4-0.6-10.5c-0.2-0.4-0.8-0.5-1.1-0.3c-0.4,0.2-0.5,0.7-0.3,1.1c2.6,4.3,1.5,10.5-3.2,12.4
			c-1.5,0.6-5.4,0.5-6.8,3.2c-1,1.9-0.1,4.2-1.1,5c-1.3,1-3.4-1.2-3.5-3.1c-0.2-2.4,1.9-3.3,3.1-6c1.5-3.3-0.6-7.4-1.1-10
			c-0.7-3.5,0-7,1.7-10.1c0,0,0-0.1,0-0.1c0.3-0.2,0.4-0.6,0.2-1c-1.8-3.8,0.2-5.7,1.7-9.9c1.3-3.7-1-8.1-3-10.6
			c-1.6-2-3.7-3.4-6.1-3.9L0,208.2v1.7l0.5,0.1C2.5,210.4,4.2,211.6,5.6,213.3z M73.1,225.4c-0.5,1.6-1.4,1.7-2.3,1.3
			c-1.1-0.4-2.1-1.6-2.4-2.9c-0.8-3.3,2.2-6.2,5.5-7.2c-0.1,1.4-0.2,2.9-0.2,4.4c0,1,0.1,2.4,0.3,3.9
			C73.7,224.8,73.3,225,73.1,225.4z"/>
		<path class="st0" d="M587.7,213.8c0,0.4,0.3,0.8,0.7,0.8l0.2,0c0,0,0.1,0,0.1,0c1.3,0,3.2-1.6,3.8-2c1.5-1,2.8-1.9,4.4-2.4
			c0.8-0.3,1.7-0.4,2.5-0.4l0.6,0.1v-1.7l-0.6-0.1c-1,0-2,0.1-3.1,0.4c-1.8,0.6-3.4,1.7-4.8,2.6c-0.5,0.3-1.1,0.7-1.6,1.1l-0.5,0.3
			c0.7-4.1,5.5-6.3,10.2-6.9l0.4,0V204l-0.8,0.1C593.7,204.8,587.5,207.6,587.7,213.8z"/>
	</g>
</g>
<g id="Imported_Guides">
</g>
<g id="Guides">
</g>
</svg>
