<?xml version="1.0" encoding="utf-8"?>
<!-- Generator: Adobe Illustrator 21.1.0, SVG Export Plug-In . SVG Version: 6.00 Build 0)  -->
<svg version="1.1" id="Layer_1" xmlns="http://www.w3.org/2000/svg" xmlns:xlink="http://www.w3.org/1999/xlink" x="0px" y="0px"
	 viewBox="0 0 600 600" style="enable-background:new 0 0 600 600;" xml:space="preserve">
<style type="text/css">
	.st0{fill:#E89963;}
	.st1{fill:#211F1F;}
	.st2{fill:#94D4EB;}
	.st3{fill:#F06E82;}
	.st4{fill:#F5D6BF;}
	
		.st5{fill-rule:evenodd;clip-rule:evenodd;fill:none;stroke:#000000;stroke-width:0;stroke-linecap:round;stroke-linejoin:round;stroke-miterlimit:10;}
	.st6{fill:#F0C2A1;}
</style>
<g>
	<path class="st0" d="M599.3,577.5L599.3,577.5c0,0.1-0.1,0.2-0.1,0.3c-1.7,4.9-1.3,10.4,0.8,15.1v-16.8c-0.3,0.3-0.5,0.7-0.7,1
		C599.3,577.2,599.3,577.4,599.3,577.5z"/>
	<path class="st0" d="M589.9,213.1c0.5-0.3,1.2-0.8,1.5-1.1c0.2-0.2,0.5-0.3,0.6-0.4l0.6-0.4c1.3-0.8,2.6-1.7,4.2-2.2
		c1-0.3,2.1-0.5,3.1-0.4v-2.4c-3.1,0.4-6.2,1.5-8.1,3.3C590.8,210.5,590.1,211.7,589.9,213.1z"/>
	<path class="st0" d="M578,388.1c0-0.2,0.1-0.4,0.3-0.6c0-0.1,0-0.3,0-0.4c-0.1-0.1-0.3-0.2-0.3-0.4c-0.7-1.4-1.7-2.4-3.1-2.8
		c-4-1.2-9.6,1.7-11.9,4.3c-0.3,0.3-0.6,0.7-0.9,1.1c-1.4,1.9-2.3,4.2-2.7,6.7c-0.7,3.9,0.1,7.8,2,11l0.1,0.2c0.2,0.4,0,0.9-0.4,1.1
		c-0.1,0-0.1,0-0.2,0.1c-3.9,3.5-8.2,0.4-11.4-1.9c-0.3-0.2-0.6-0.4-0.9-0.6c-1.8-1.3-3.1-1.5-4.1-0.7c-1.2,0.9-1.3,2.7-0.8,3.9
		c1.4,3.4,6.1,5,9.7,5.7c3.5,0.7,7.2,0.5,10.5-0.4c1.4-0.4,2.7-0.9,4-1.5c0.4-0.2,0.9,0,1.1,0.4c0.2,0.4,0,0.9-0.4,1.1
		c-1.1,0.6-2.3,1-3.5,1.4c0.4,13.4,15.9,23.6,22.5,27.4c4,2.3,8.1,4.1,12.4,5.4V417c-2.2-0.6-4.2-1.3-6.1-2.3
		C584.1,409.8,577.6,398.9,578,388.1z"/>
	<path class="st0" d="M558.9,281.8c-1.1-2.4,2.8-3.7,3.8-1.6C564,282.7,559.4,284.2,558.9,281.8z M593.3,284.5
		c-1.8,0.4-3.6,1-5.5,1.6c-2.7,0.8-5.4,1.7-8.2,2.2c-4.6,0.8-8.3,0.4-11.7-1.3c-0.4-0.2-0.6-0.7-0.4-1.1c0.2-0.4,0.7-0.6,1.1-0.4
		c2.8,1.4,5.8,1.8,9.4,1.3c-1.5-1.3-1.9-3.5-1.1-6.7c0.4-1.8,1-3.5,1.5-5.3c0.5-1.5,1-3.1,1.3-4.7c0.9-3.2,0.5-4.3,0.3-4.7
		c-0.1-0.2-0.2-0.2-0.3-0.2c-0.1,0-0.2,0-0.4,0c-1.1,0.1-2,3.1-2.3,4.3c-0.1,0.4-0.2,0.6-0.3,0.9c0,0.1-0.1,0.3-0.2,0.6
		c-0.4,1-4.3,9.9-7.5,9.9h0c-0.6,0-1.4-0.3-2-1.6c-0.7-1.6-0.4-3.8-0.2-5.7c0.1-0.8,0.2-1.6,0.3-2.2c0-0.8,0-1.6,0-2.5v-0.6
		c-0.1-4-0.4-7.3-0.8-10.2l-0.1-0.4c-0.3-1.5-0.6-3.5-1.3-5.1c-0.6,0.9-2.3,1.2-3.2,1.2c-0.8,0-2,0.2-2.8-0.2c0,0.1-0.1,0.3-0.1,0.4
		c-0.3,1.3-0.3,2.6-0.4,4c0,0.9-0.1,1.8-0.2,2.8c-0.3,2.9-1.3,5.7-2.2,8.1l-0.7,1.9c-2.7,7.1-5.7,15.1-3.2,21.8
		c0.6,1.7,1.7,3.3,3,4.8c0.3,0.3,0.6,0.6,1,1c0,0,0,0,0,0c1.8,1.2,3.6,2.4,5.4,3.7c1.9,1.3,3.8,2.5,5.7,3.8c0.3,0.2,0.4,0.6,0.3,0.9
		c-0.1,0.3-0.4,0.6-0.8,0.6c-4.5,0.2-11.6,2.6-11.5,7.9c0,1.7,0.8,4.2,2.8,4.3c1,0,1.2-0.4,1.6-2c0.2-1.1,0.5-2.3,1.5-3.1
		c2.5-2,6.5-2.7,9.4-2.7c0.6,0,1.1,0,1.5,0.1c3.4,0.3,5.9,2.2,7.6,3.7c0.9,0.8,1.8,1.8,2.7,2.6c5.8,6,11,12.6,15.9,18.8
		c0.5,0.6,1,1.3,1.5,2v-41.7c-0.3-0.1-0.7-0.2-1-0.3c0,0-0.1,0-0.1,0c-1.7,0.5-3.3,0.7-4.4,0.8c-1.3,0.1-2.5,0.2-3.8,0.2
		c-7.6,0-15.2-2.3-21.4-6.6c-0.4-0.3-0.5-0.8-0.2-1.2c0.3-0.4,0.8-0.5,1.2-0.2c6.9,4.8,15.7,7,24.1,6.1c1.1-0.1,2.7-0.4,4.5-0.9
		c0.4-0.1,0.7-0.2,1.1-0.4v-11C597.4,283.6,594.5,284.2,593.3,284.5z"/>
	<path class="st0" d="M583.5,29.2c-0.9,0.7-1.6,1.9-1.3,2.3c0.2,0.3,1.2,0.3,1.7,0.3c0.3,0,0.5,0,0.8,0c3.8,0.3,7.5,1.5,10.7,3.4
		c1.6,1,3.2,2.1,4.6,3.5v-8.5C595.3,26.7,587.9,25.4,583.5,29.2z"/>
	<path class="st0" d="M595.2,86.3c-0.4,1.2,0.4,4.4,1.4,5c0.1,0.1,0.4,0.3,1.1-0.5c0.3-0.4,0.4-1,0.5-1.7c0.1-1,0.2-2.3,1.6-3
		c0.1,0,0.1,0,0.2-0.1v-5.6c-0.1,0.1-0.2,0.2-0.3,0.3C597.8,82.6,596,84.3,595.2,86.3z"/>
	<path class="st0" d="M594.2,149.3C594.2,149.3,594.2,149.3,594.2,149.3c0.5,0,0.8,0.4,0.9,0.8c0,1.4-0.6,2.4-1.7,2.8
		c-0.4,0.2-0.8,0.2-1.2,0.2c-1.1,0-2.2-0.5-3-1.3c-0.3-0.3-0.3-0.9,0.1-1.2c0.3-0.3,0.9-0.3,1.2,0.1c0.6,0.7,1.6,1,2.4,0.7
		c0.5-0.2,0.7-0.6,0.7-1.3C593.4,149.6,593.7,149.3,594.2,149.3z M590.5,139.6c-2.6,1.4-5.2,3.1-6.4,5.8c-0.2,0.5-0.4,1.1-0.5,1.7
		c-0.2,0.9-0.5,1.8-1,2.7c-0.9,1.3-2.3,2.1-3.6,2.7c-0.4,0.2-0.8,0.4-1.3,0.6c-2.5,1-5.2,1.6-7.8,2.2c-1.3,0.3-2.7,0.4-4.2,0.6
		c-1.1,0.1-2.3,0.2-3.4,0.4c1,3.7,1,6.2,0.1,7.5c3.2,1.1,6.6,1.8,10.2,2.1c6.8,0.5,13.8-0.5,20.4-3c0-0.1,0-0.3,0-0.4
		c0.1-0.3,0.3-0.6,0.4-1c0.6-1.7,1.6-4.6,4.1-4c0.4,0.1,0.7,0.6,0.6,1c-0.1,0.4-0.6,0.7-1,0.6c-0.9-0.2-1.5,1.2-2.1,3
		c0,0.1,0,0.1-0.1,0.2c1-0.4,1.9-0.9,2.9-1.3c0.1-0.1,0.2-0.3,0.4-0.3l0.2-0.1c0.5-0.2,1-0.3,1.6-0.5v-7.8c-1.3-2.9-3-5.5-5.8-6.8
		c-0.4-0.2-0.6-0.7-0.4-1.1c0.2-0.4,0.7-0.6,1.1-0.4c2.2,1.1,3.8,2.8,5,4.7v-8.4c-0.7-0.2-1.4-0.3-2.1-0.2c-0.4,0-0.8-0.4-0.8-0.8
		c0-0.5,0.3-0.8,0.8-0.8c0.7,0,1.4,0.1,2.2,0.2V129C598,133.7,595.1,137.9,590.5,139.6z"/>
	<path class="st0" d="M560.7,156.5C560.7,156.5,560.7,156.4,560.7,156.5c-0.1,0-0.2,0-0.4,0c0.2,0.1,0.3,0.1,0.4,0.3
		C560.8,156.7,560.7,156.6,560.7,156.5z"/>
	<path class="st0" d="M587.5,494.8c-0.5-0.1-1-0.2-1.6-0.4c0,0-0.1,0-0.1,0c-1.1,3-2.9,4.7-5.2,5.1c1.6,2.8,4.8,5.5,6.7,6.6
		c1.1,0.6,2.4,1.2,3.8,1.7c1.2,0.4,1.2,0.4,1.7,0.1c0.3-0.2,0.6-0.4,1.2-0.7c1.3-0.6,2.5-0.6,3.2,0.1c0.3,0.3,0.7,0.9,0.5,2.1
		c0.8,0.1,1.6,0.2,2.4,0.3v-14.1c-1,0.1-2,0.1-3,0.1C593.8,495.7,590.6,495.4,587.5,494.8z"/>
	<path class="st0" d="M579.7,497.5c0,0.1,0,0.2,0.1,0.3c0.1,0,0.1,0,0.2,0C579.9,497.7,579.8,497.6,579.7,497.5z"/>
	<path class="st0" d="M580.9,497.6c0.4-0.1,0.8-0.3,1.1-0.5C581.6,497.2,581.3,497.4,580.9,497.6z"/>
	<path class="st0" d="M589.7,377.1c-3.7,0.1-7.3,1.1-10.4,2.9c-0.7,0.4-2.5,1.9-3.3,2.7c1.3,0.6,2.4,1.6,3.1,2.9
		c3-3.8,9.7-4,13.3-2.3c1.1,0.5,2.1,1.6,3,2.7c1.2,1.3,2.4,2.7,3.6,2.6c0.3,0,0.6-0.1,0.9-0.3v-7.9
		C597.1,377.1,591.1,377.1,589.7,377.1z"/>
	<path class="st0" d="M592.3,561.8c-1,3.3-0.7,6.8,0.8,9.9c1.4,2.9,2.9,4.5,4.6,4.9c0.6-0.9,1.2-1.7,1.9-2.5
		c-3.4-2.6-4.6-7.4-4.3-11c0.3-3.3,2-6,3.6-8.5c0.4-0.6,0.8-1.3,1.2-2v-0.5C596.3,552.8,593.2,558.8,592.3,561.8z"/>
	<path class="st0" d="M580.7,144c-1.7,2-2.6,4.5-2.6,7c0,0,0.1,0,0.2-0.1c1.1-0.5,2.3-1.2,2.9-2.1c0.4-0.6,0.6-1.3,0.8-2.1
		c0.2-0.7,0.3-1.3,0.6-2c0.9-1.9,2.3-3.4,3.9-4.6C584.2,140.9,582.2,142.2,580.7,144z"/>
	<path class="st1" d="M580.3,494.4c-0.7,0.8-0.9,1.6-0.7,2.7c0,0.1,0.1,0.3,0.1,0.4c0.1,0.1,0.2,0.2,0.3,0.2c0.3,0,0.6-0.1,0.9-0.2
		c0.4-0.2,0.8-0.4,1.1-0.5c0.9-0.6,1.6-1.7,2.2-3.1c0,0,0,0,0,0c-0.2,0-0.3-0.1-0.5-0.3c-0.2,0.1-0.3,0.1-0.5,0.1
		C581.8,493.6,580.9,493.8,580.3,494.4z"/>
	<path class="st2" d="M576.5,257.3c-2.2-1.3-5.8-1.5-8.2,1c0,0-0.1,0-0.1,0.1c0.4,2.9,0.7,6,0.8,9.9v0.1c1.5,1.4,4,2.1,5.7,1.6
		c0.2,0,0.4,0,0.6,0.1c0-0.1,0.1-0.2,0.1-0.3c0.1-0.2,0.2-0.5,0.3-0.8c0.6-2.1,1.6-5.2,3.7-5.4c0,0,0.1,0,0.1,0
		C580,261,578.9,258.6,576.5,257.3z"/>
	<path class="st0" d="M571.5,313.7c-0.5,1.9,0.4,4.3,2.1,5.3c0.6,0.4,1.2,0.4,1.8,0.3c0.9-0.3,1.8-1.3,2.6-2.8
		c0.1-0.1,0.1-0.2,0.2-0.3c-2.1-1.8-4-2.7-6.2-2.9c-0.2,0-0.4,0-0.6,0C571.6,313.4,571.6,313.5,571.5,313.7z"/>
	<path class="st0" d="M537.5,544.6c3,0.2,2.7,4.9-0.3,4.7C534.2,549.1,534.5,544.4,537.5,544.6z M518,578.7c0.5,0.1,1,0.1,1.5,0.1
		c0-0.1,0.1-0.2,0.1-0.3c0.4-0.5,0.8-1.1,1.3-1.6c2.3-3,4.7-6.1,8.4-7.8c2.6-1.2,7.4-3,10.7-0.9c1.6,1,2.5,2.6,2.5,4.5
		c0,2.1-1.1,4.3-2.9,5.5c-1.6,1.1-3.5,1.2-5.4,1.3c-1.7,0.1-3.2,0.2-4.3,1c7.3,0.7,16.4,0.7,19.4-0.5c0.3-0.5,0.6-1.1,0.8-2
		c0.1-0.7,0.2-1.5,0.3-2.2c0-0.3,0.1-0.6,0.1-0.9c0.1-0.7,0.2-1.4,0.2-2.1c0.1-0.8,0.2-1.6,0.2-2.4c0.1-1.3,0.3-2.6,0.4-4l0.1-0.8
		c0.2-2.1,0.5-4.5,1.7-6.3c0.8-1.3,2.3-2.2,3.6-3c0.5-0.3,1-0.6,1.4-0.9c2.4-1.6,4.8-3.4,6.6-5.6c0.9-1.1,1.5-2.6,1.4-3.1
		c0,0-0.1-0.1-0.3-0.1c-1.2-0.1-3.4,1.4-4.9,2.4c-0.7,0.5-1.3,0.9-1.8,1.2c-2.5,1.3-6.2,3.4-9.5,2.2c-0.3-0.1-0.5-0.4-0.6-0.7
		c0-0.3,0.1-0.7,0.4-0.8c6.4-3.8,12.8-8.1,16.4-14.3c1.6-2.8,2.9-5.4,3.1-8.5c0-0.4,0-0.8,0-1.3c-0.5,1-1.5,1.6-3,1
		c-0.6-0.2-1.3-0.6-1.8-1.1c-0.1,0.2-0.2,0.4-0.3,0.5c-2,3-3.8,5.3-5.8,7.1c-2.6,2.4-5,3.8-7.5,4.2c-1.8,0.3-2.5-0.3-3.3-1.2
		c-0.2-0.2-0.4-0.5-0.7-0.7c-0.7-0.6-1.6-1.1-2.6-1.5l-0.4-0.1c-6-1.6-10.3,3.1-12.8,7.7c0,0.1,0,0.3-0.1,0.4
		c-0.2,0.3-0.3,0.6-0.5,0.8c0,0.1-0.1,0.2-0.1,0.3l0,0.1c-0.1,0.3-0.4,0.4-0.6,0.5c-1.8,1.5-4.7,2.2-6.6,2.7l-0.2,0
		c-3.9,0.9-7.5,1.3-10.8,1.1c-3.3-0.2-6.5-1.4-9.7-2.7c-2.1-0.8-4.2-1.6-6.3-2.1l-0.2,0c-2.2-0.5-5.2-1.2-7.1-0.1
		c-2,1.2-1.6,5.1-0.9,7.4c2.1,6.7,11.2,7.3,15,7.2c3.6-0.1,7.5-0.7,11.4-2l0.6-0.2c3.4-1.1,7.6-2.5,10.2-4.8
		c0.5-0.4,0.9-0.8,1.2-1.2c0.3-0.4,0.8-0.5,1.2-0.2c0.4,0.3,0.5,0.8,0.2,1.2c-0.3,0.4-0.6,0.7-0.9,1c0,0.1,0,0.3-0.1,0.4l0,0.1
		c-3.1,8-6.6,17.2-14.6,22.8C513.3,577,515.6,578.3,518,578.7z"/>
	<path class="st1" d="M568.9,526c-0.1-1.7-0.6-4-1.3-4.8c-0.2-0.2-0.3-0.2-0.4-0.2c0,0-0.2,0.1-0.5,0.4c-0.3,0.4-0.6,0.7-1.3,2.1
		c-0.4,0.8-0.5,1.1-1,2c-0.1,0.1-0.2,0.3-0.2,0.4c0.5,0.5,1.2,0.8,1.8,1.1C567.4,527.6,568.4,527,568.9,526z"/>
	<path class="st0" d="M558.9,576.6c2.8,0.5,4.5,0.7,5.6-1c0.5-0.8,0.6-1.7,0.2-2.5c-0.7-1.6-2.8-3-4.5-3.3c-1.5-0.3-4.4,0.1-6.2,1.3
		c-0.8,0.6-1.3,1.2-1.4,1.9c0,0.2-0.2,0.4-0.3,0.5c0,0.5-0.1,1-0.2,1.6c0,0.3-0.1,0.5-0.1,0.8c-0.1,0.5-0.1,1-0.2,1.6
		C553.8,575.7,556.5,576.2,558.9,576.6z"/>
	<path class="st1" d="M563.6,249.3c-0.5-0.3-0.9-0.5-1.4-0.5c-1.3,0-2.6,1.6-3.1,3.1c0,0.1-0.1,0.2-0.1,0.3c0.8,0.4,2,0.2,2.8,0.2
		c0.9,0,2.6-0.3,3.2-1.2C564.7,250.5,564.2,249.8,563.6,249.3z"/>
	<path class="st0" d="M556.4,119.6c2.8,0.5,8-2.8,9.1-5.8c0.4-1.1,0.1-2-0.8-2.6c-1.5,1.7-5.5,4.5-7.8,4.2
		c-6.4-0.8-9.4-10.3-10.2-17c-0.5,3.3-0.6,6.4-0.6,9.1C547.5,112.6,551.3,118.6,556.4,119.6z"/>
	<path class="st0" d="M553.9,382.3c-0.2-1.2,0.3-2,0.8-2.7c0.4-0.7,0.7-1.1,0.5-1.6c-0.3-0.9-0.7-1-0.8-1c-0.6-0.2-1.6,0.3-2.4,1
		c-2.7,2.6-2.6,5.6-2.1,7.8c1,4,4.4,7.8,8.2,9.2c0.4-1.9,1.1-3.6,2-5.2c-0.5-0.1-0.9-0.2-1.4-0.5C556.3,388,554.3,384.3,553.9,382.3
		z"/>
	<path class="st1" d="M560.8,156.8c-0.1-0.1-0.3-0.2-0.4-0.3c-1.2,0.3-2.3,0.7-3.1,1.3c-1.1,0.8-1.1,1.4-1,1.6
		c0.1,1.2,2.1,2.7,3.9,3.4c0.2,0.1,0.4,0.1,0.5,0.2c0,0,0.1-0.1,0.1-0.1C561.4,162.6,561.8,160.8,560.8,156.8z"/>
	<path class="st0" d="M539.1,304c-2.3,4.2-4.1,11.5,0.4,14.5c1,0.7,2,0.8,2.8,0.5c2.1-0.9,3.7-4.7,4.3-7.9c0.1-0.4,0.2-0.8,0.2-1.2
		c0.8-4.5,1.8-9.6,6.3-12c0.1,0,0.2-0.1,0.3-0.1c-1-1.2-1.8-2.5-2.4-3.8C547.1,295.7,542,298.8,539.1,304z"/>
	<path class="st0" d="M524.9,358.9c0.3,0.6,0.6,1.3,0.9,2c0.2-0.1,0.5-0.2,0.8-0.1c11.2,4.1,19.5,3.9,24.8-0.4
		c2.2-1.8,3.6-4.6,3.8-7.5c0.1-1.5-0.1-3.7-1.8-5.6c-2.8-3.1-6.6-1.4-11.2,1.1c-0.5,0.3-1,0.6-1.5,0.8c-0.5,0.3-1,0.6-1.6,0.8
		c-4.8,2.6-10.6,5.8-16.1,4.9c0.7,1,1.4,2,1.9,3C525.1,358.4,525.1,358.7,524.9,358.9z"/>
	<path class="st0" d="M484.2,109c1.6-0.2,2.9,3,0.8,3C483.3,112.1,482.2,109.3,484.2,109z M493.3,108c1.3,1.2,1.2,2.1-0.4,2.8l0,0
		c-0.1,0.1-0.3,0.1-0.5,0.1C490.5,110.5,491.6,107.5,493.3,108z M478.6,103.2c0.4-0.1,0.9,0.2,0.9,0.7c0.6,2.8,1.8,5,3,7.3
		c0.6,1.1,1.2,2.2,1.7,3.4c0.7,1.2,1.2,2.2,1.5,3.3c0.5,1.6,0.6,3.4,0.6,5c0.1,0.8,0.2,1.6,0.3,2.4c0.2,2,0.4,4,0.8,6
		c1.7-0.9,5,0.1,6.1,1.2c0.1,0.1,0.2,0.2,0.2,0.3c0.6-1.1,1.1-2.5,1.6-4.2l0,0c0,0,0,0,0,0c0,0,0,0,0,0c2.2-7.6,3.2-18.5,3.5-22
		l0.1-0.7c-0.5-0.8-1-1.4-1.5-1.8c-0.4-0.3-0.5-0.8-0.3-1.2c0.3-0.4,0.8-0.5,1.2-0.3c0.9,0.5,1.6,1.4,2.3,2.7
		c1.8,3.4,2.7,9.1,3.7,14.7c1.1,7,2.5,14.9,5.4,16.2c0.9,0.4,1.9,0.2,3.2-0.7c0.4-0.3,0.8-0.5,1.2-0.9c2.2-1.9,3.4-4.5,3.6-7.8
		c0.7-11.8-11.6-29.2-17.3-35.4c-0.3-0.4-0.3-0.9,0-1.2c0.4-0.3,0.9-0.3,1.2,0c5.9,6.3,18.5,24.3,17.8,36.7c-0.2,3.1-1.2,5.7-3,7.8
		c0.9,0.2,1.6,0,2.1-0.4c3.7-3.1,2.7-18.2-2.9-44.7c-0.4-1.9-0.7-3.1-0.7-3.7c-1-7.5-3-21.6,5.5-26.5c2.8-1.6,5.3-1.9,7.5-0.8
		c3.5,1.9,5.1,7.1,5.4,11.3c0.4,5.8-1.1,11.9-2.6,17.7c-0.6,2.5-1.2,4.8-1.7,7.2c-2,10.6-1,14.8,3.8,24.5c0.5,1,1,1.8,1.5,2.6
		c0.9,1.4,1.7,2.7,2,4.6c0.1,1.1-0.8,1.9-1.7,2.6c-1.2,1-2,1.7-1.7,2.7c0.5,2.1,1.2,3.1,2.3,3c3.2-0.1,8.5-8,8.9-10.8
		c0.6-4.1,0.5-8.1,0.3-12.3c0-1.3-0.1-2.7-0.1-4c-0.4-1.4-0.6-2.8-0.7-4c0-0.4,0.3-0.8,0.7-0.9c0.1-2.2,0.4-4.5,0.9-6.9
		c0.2-0.9,0.4-1.9,0.7-2.8c0.7-2.6,1.4-5.3,2.2-7.9c1.8-6.4,3.7-13.1,4.4-19.8c2-19.3-4.7-34.9-17.7-41.6c-15.6-8-31.7-3-40.3,12.4
		c-4.3,7.8-6.6,17.1-6.8,27.6c-0.1,2.4,0.1,5,0.4,7.7c0.5,6.4,1.1,13.1-1.9,18.8c0,0,0,0.1,0,0.1c0,0.4-0.2,0.7-0.6,0.8
		c-0.3,0.2-0.7,0.3-1,0.1c0,0,0,0,0,0c-4.9,0.2-10.2,5.6-14,14.1c-4.2,9.6-6,22.6-0.9,27.8c1.6,1.7,2.9,2.4,3.8,2.1
		c2.3-0.8,2.8-8.4,3.1-13.9c0.4-6.3,0.7-10.5,3-10.5c0,0,0.1,0,0.1,0c-1.1-1.8-2.1-4-2-6.9C477.8,103.6,478.1,103.2,478.6,103.2z"/>
	<path class="st0" d="M550.1,525.9c0.1-3.3,0-8-2-10.1c-0.5-0.5-1.1-0.7-1.8-0.7c-0.7,0.1-1.4,0.4-1.8,1c-0.8,1.2-0.5,2.9-0.2,4.6
		c0.2,0.9,0.4,1.7,0.7,2.6c0.3,1,0.6,2.1,0.8,3.2c0.5,2.6-0.1,4.8-0.8,7.1c0.8,0.4,1.6,0.8,2.2,1.4
		C549.9,533.4,550.1,528.2,550.1,525.9z"/>
	<path class="st0" d="M507.5,201.7c-2.4-0.2-2-3.9,0.4-3.7C510.3,198.2,509.9,201.9,507.5,201.7z M496.5,201.3
		c-2.4-0.2-2-3.9,0.3-3.7C499.2,197.9,498.8,201.6,496.5,201.3z M535.6,202.7c-0.4-2.7-2-7.5-4.2-9.2c-0.1,0-0.1-0.1-0.2-0.1
		c-0.2-0.1-0.3-0.3-0.4-0.6c-2,0.6-4.2,1.1-6.4,1.1c-3.2,0-6.4-0.9-8.8-3.3c-0.3-0.3-0.3-0.9,0-1.2c0.3-0.3,0.9-0.3,1.2,0
		c3.6,3.7,9.9,3.1,14.2,1.5c1.2-0.4,2.3-1,3.3-1.6c4.7-3,7.9-9.5,4.9-14.8c-0.9-1.6-2.2-2.7-3.4-3c-0.9-0.2-1.7,0-2.6,0.6
		c-1.4,1-2.5,2.6-3.6,4.1c-0.5,0.7-1,1.4-1.5,2c-0.8,1-2,2.4-3.3,3.7c-4.1,4-8,4.8-11.4,2.6c-0.4-0.3-0.5-0.8-0.3-1.2
		c0.3-0.4,0.8-0.5,1.2-0.3c2.5,1.6,5.3,1.1,8.4-1.6c-0.4-0.3-0.8-0.6-1.2-0.9c-2.5-1.9-4.6-3.6-7.8-4.1c-3.3-0.5-6.9-0.4-10,0.2
		c-5.2,1.1-9.4,4.3-11.5,8.7c-0.4,0.8-0.7,1.5-0.9,2.4c-0.1,0.4-0.5,0.6-0.8,0.6c-0.1,0-0.2,0-0.3,0c-0.5-0.1-0.7-0.6-0.6-1.1
		c0.2-0.6,0.4-1.1,0.5-1.6c-1.7,0.2-3.6,1.5-5.2,2.7c-0.5,0.4-1,0.7-1.5,1c-3.4,2.1-6,4.3-8.4,7.1c-5.1,6-9.9,13-6.6,18.9
		c1.3,2.4,4.3,4.6,6.9,4.1c2.1-0.4,3.2-2.7,3.9-4.9c0.4-1.1,0.7-2.1,1-3.2c1.9-5.8,3.6-11.4,8.4-15.8c-0.2-1.3,0-2.5,0.4-3.7
		c0.2-0.4,0.6-0.6,1.1-0.5c0.4,0.1,0.7,0.5,0.6,1c-0.5,3.1,0.4,5.6,1.5,8.3c0.1,0.3,0.2,0.5,0.3,0.8c0,0.1,0.1,0.2,0.1,0.3
		c0,0,0,0,0,0v0l0,0c0,0,0,0.1,0.1,0.1c0.4,1,0.7,1.9,0.9,3c0,0,0,0,0,0l0,0c0,0,0,0,0,0c0,0,0,0,0,0c0.3,1.5,0.5,3,0.6,4.7
		c0,0.9,0,1.9,0,2.9c0,3.4-0.1,7,1.2,9.9c1-0.8,2.6-1.1,3.6-0.9c1.8,0.2,3.3,1.6,3.4,3.2c0,0.1,0,0.3,0,0.4c2.8-2,3.8-6.2,4.7-10.8
		c0.7-3.9,1.7-6.6,4.5-9.4c2-2,4.1-5.3,3.7-8.3c0-0.4,0.2-0.8,0.7-1c0.4-0.1,0.9,0.1,1,0.5c1.3,3.3-2,7.9-4.1,10
		c-2.7,2.7-3.3,5.3-4.1,9.2c-0.7,3.2-2.6,12.7-9.2,12.7c-0.4,0-0.9,0-1.4-0.1c-0.7-0.1-1.3-0.4-1.9-0.7c-1.5,1.4-2.6,3.3-3.8,5
		c-0.7,1.1-1.5,2.3-2.3,3.3c-2.5,3.3-4.7,6.7-6.5,10.3c-4.6,9.2-6,17.4-4,24.2c0.1,0.4-0.1,0.9-0.5,1c-2.9,4.7-1.5,10.6-0.5,13.6
		c0.2,0.5,0.4,1,0.7,1.6c0.7,1.5,1.6,3.2,1.1,4.9c-0.2,0.8-0.7,1.5-1.1,2.2c-0.8,1.3-1.3,2.1-0.7,3.2c0.6,1.1,1.5,1.6,2.6,1.5
		c1.8-0.2,3.9-1.9,4.4-3.6c0.6-1.7,0.3-3.4,0-5.2c-0.1-0.8-0.3-1.6-0.3-2.4c-0.1-2,0.5-3.4,1.2-5c0.1-0.2,0.1-0.3,0.2-0.5
		c-0.9-0.5-1.8-1-2.6-1.6c-0.4-0.3-0.5-0.8-0.2-1.2c0.3-0.4,0.8-0.5,1.2-0.2c0.8,0.6,1.7,1.2,2.7,1.7c0.1,0,0.3,0,0.4,0.1
		c0.1,0.1,0.2,0.2,0.3,0.3c0.7,0.3,1.4,0.6,2.3,0.9c0.1,0,0.2,0.1,0.3,0.1c0.4,0.1,0.6,0.3,0.7,0.7c0.3,1.9,0.4,3.7,0.5,5.5
		c0.1,3,0.3,5.8,1.3,8.7c1.4,3.9,3.5,7.7,6.4,11.4c2.3,3.1,5.1,6.4,8.5,7.9c2.2,1,3.5,1,3.8,0.9c0.2-0.1,0.2-0.2,0.2-0.2
		c0-0.3-0.2-0.8-1.1-1.7c-0.8-0.8-1.6-1.5-2.4-2.3c-2.2-2-4.4-4.1-6.3-6.8c-2.4-3.3-4.2-7-5.4-11.2l-0.2-0.8c-1-3.5-2.8-9.3,0-11.9
		c0.9-0.9,2.2-1.1,3.4-1.3c0.4-0.1,0.8-0.1,1.2-0.2c0.6-0.2,1.2-0.4,1.8-0.6c1.2-0.5,2.4-1.1,3.7-1.9c0.4-0.3,0.9-0.1,1.2,0.3
		s0.1,0.9-0.3,1.2c-1,0.6-1.9,1.1-2.8,1.5c3,2.3,2.8,6.4,2.6,9.7c0,0.9-0.1,1.8-0.1,2.5c0,2.1,1.3,5.4,3.2,6.6
		c0.9,0.6,1.7,0.7,2.7,0.3c2.1-0.8,2.4-3.9,1.8-5.7c-0.2-0.6-0.5-1.1-1-1.7s-0.8-1.1-1.1-1.9c-0.5-1.5-0.1-3,0.4-4.3l0-0.1
		c0.3-1.1,0.8-2.2,1.3-3.3c1.7-3.9,3.3-8,0.8-11.4c-0.1-0.1-0.1-0.2-0.2-0.3c-0.2-0.3-0.2-0.7,0.1-1c3.1-3.6,5.3-7.5,6.4-11.6
		c0.8-3,1.2-6.2,1.6-9.4c0.3-2,0.5-4.1,0.9-6.2c1-5.3,3-10.3,5-15.2c0.7-1.7,1.4-3.4,2-5.1c-0.2-0.4,0-0.8,0.3-1.1c0,0,0.1,0,0.1,0
		c0.8-2.2,1.4-4.2,1.9-6.1c0.1-0.5,0.6-0.8,1.1-0.6c0.5,0.1,0.8,0.6,0.6,1.1c-0.5,2.1-1.2,4.3-2.1,6.6c0.8,1.8,0.4,3.9,0,5.8
		c-0.2,0.8-0.3,1.5-0.4,2.1c-0.2,2.2-0.1,4.9,1.8,6.4c1.4,1.1,2.6,0.8,3.4,0.3c1.7-1,2.9-3.5,2.5-5.4c-0.2-0.8-0.6-1.4-1.1-2
		c-0.7-0.9-1.6-1.9-1.4-3.8c0.1-1.2,0.2-2.4,0.4-3.5c0.2-1.9,0.5-3.7,0.4-5.7c-0.2-4.2-0.5-10-3.6-13.5
		C536,203.4,535.7,203.1,535.6,202.7z"/>
	<path class="st0" d="M534.1,577.8c1.7-0.1,3.2-0.2,4.4-1c1.3-0.9,2.2-2.5,2.1-4.1c0-0.9-0.3-2.1-1.7-3c-2.6-1.7-7.1,0.2-9,1
		c-3.3,1.6-5.5,4.3-7.7,7.3c-0.3,0.4-0.6,0.8-0.9,1.2c1.4,0.4,3.7,0.8,6.5,1.2C529.3,578,531.9,577.9,534.1,577.8z"/>
	<path class="st0" d="M523.5,371.5c1.7,0.9,1.1,4-1,3.4C520.1,374.4,520.9,370.2,523.5,371.5z M510.7,377.2
		c-1.3-1.9,0.8-4.4,2.6-2.8C515.3,376.2,512.1,379.2,510.7,377.2z M500.9,345.6c-17.5-2.2-36.5,4.3-50.7,17.3
		c-13.6,12.4-21.6,30.7-21.6,49.2c0.4-0.1,0.8-0.2,1.2-0.3c0.4-0.1,0.9,0.1,1.1,0.5s-0.1,0.9-0.5,1.1c-0.8,0.3-1.6,0.5-2.4,0.6
		c-7,0.7-11.9-6.3-15.5-11.4c-0.1-0.2-0.2-0.3-0.3-0.5c-0.4,0.5-0.6,1.1-0.7,1.8c-0.3,3.8,3.6,9.9,5.7,11.9c2.9,2.8,6.7,4.6,10.9,5
		c2.2,0.2,4.4,0,6.5-0.6c0.4-0.1,0.9,0.1,1,0.6c0.1,0.4-0.1,0.9-0.6,1c-1.7,0.5-3.4,0.7-5.2,0.7c-0.4,0-0.8,0-1.1,0
		c0.1,0.1,0.1,0.2,0.1,0.4c-0.1,4.4,1.1,8.6,3.9,13.1c1.2,1.9,1.9,3.4,1.5,5.8c0,0.2-0.1,0.4-0.1,0.6c-0.3,1.2-0.3,1.5,0.4,2
		c0.7,0.5,1.8,0.5,2.9,0.1c0.8-0.3,1.4-0.9,1.5-1.5c0.2-0.7-0.3-1.4-0.8-2.2c-0.3-0.5-0.6-1-0.8-1.5c-0.8-2.1-0.3-4.6,1.1-6.4
		c-1.5-1.1-2.9-2.3-3.9-3.7c-0.3-0.4-0.2-0.9,0.2-1.2c0.4-0.3,0.9-0.2,1.2,0.2c1.1,1.5,2.7,2.9,4.4,3.9c1.6,0.9,7.1,3.6,10.8-0.9
		c-0.5-0.5-1.2-1-2-1.4c-0.4-0.2-0.6-0.7-0.4-1.1c0.2-0.4,0.7-0.6,1.1-0.4c1.2,0.6,2.1,1.3,2.9,2.1c2.5,2.9,2.1,7,1.7,10.3
		c-0.2,2.1,0.1,3.4,1.1,4c0.7,0.4,1.4,0.3,1.8,0.1c0.8-0.4,1.5-1.2,1.7-2.1c0.2-0.8,0.1-1.5,0-2.2c-0.1-1.1-0.3-2.3,0.5-3.8
		c1.1-2.2,2-4,2.2-6.4c0.2-4.3-1.9-8.6-5.4-11c-0.2-0.1-0.3-0.3-0.3-0.5c-0.3-0.1-0.5-0.5-0.5-0.8c0.9-16.5,9.3-32.7,21.5-41.7
		c-0.3-0.1-0.6-0.2-1-0.2c-0.5,0-0.8-0.4-0.8-0.9c0-0.5,0.4-0.8,0.9-0.8c1.1,0.1,2.1,0.5,2.8,1.3c1.8,1.8,2.3,5.1,2.4,7.6
		c0,0.8-0.1,1.6-0.2,2.4c-0.1,1.3-0.3,2.6,0,3.7c0.3,1.1,1.3,1.9,2.2,2.1c0.6,0.1,1.2-0.2,1.6-0.9c0.7-1.1,0.3-2.1-0.3-3.6l-0.2-0.4
		c-0.7-1.6-0.1-2.7,0.4-3.7c0.2-0.3,0.4-0.7,0.5-1.1c0.9-2.1,2.8-7.4,1.3-10.1c-0.1-0.3-0.3-0.4-0.5-0.6c-0.3-0.3-0.3-0.9,0-1.2
		c0.3-0.3,0.8-0.3,1.2,0c0.2,0.2,0.3,0.4,0.5,0.6c2.8-1.1,6.3-2.4,9.8-2.8c0,0,0.1,0,0.1,0c2.4-2.1,5-3.9,8-5c0.4-0.2,0.9,0,1.1,0.5
		c0.2,0.4,0,0.9-0.5,1.1c-2.9,1.2-5.5,2.9-7.9,5.1c-3.3,3.1-5.7,7-7,11.2c-2,6.7-1.9,15.7,3,20.6c1.3,1.3,3,2,4.3,1.9
		c0.9-0.1,1.6-0.5,2.2-1.4c1.7-2.5,1.6-6.1,1.5-9.4c0-0.5,0-1,0-1.5c-0.1-4.6-0.1-9.6,0.4-14.4l0.1-0.7c0.2-1.9,0.4-4.2,1.4-6
		c0.6-1.1,1.4-2,2.6-2.5c0.4-0.2,0.9,0,1.1,0.4c0.2,0.4,0,0.9-0.4,1.1c-0.6,0.3-1.1,0.7-1.5,1.3c2,7.3,5.8,15.6,11.3,24.6l0.5,0.8
		c1,1.7,2.2,3.7,3.6,5.3c0.9-1.6,2.5-2.9,4.3-3.3c1-0.2,1.9-0.1,2.8,0.3c0-1.5-0.2-3-0.3-4c-0.1-0.4-0.1-0.8-0.1-1.1
		c-0.7-7.2-1.3-12.7-1.9-18c-0.1-1.2-0.2-2.5-0.3-3.9c-0.2-2.9-0.3-5.8-1.1-8.4c-0.3-1.2-0.8-2.2-1.3-3c-0.2-0.3-0.2-0.6,0-0.9
		c-0.7-1.3-1.6-2.5-2.7-3.7C514.6,348.2,505.7,346.2,500.9,345.6z"/>
	<path class="st1" d="M525.7,398.9c-1.3,0.3-2.7,1.4-3.3,2.7c0,0.1-0.1,0.1-0.1,0.2c0.8,0.7,1.6,1.2,2.5,1.5c0.9,0.3,1.6,0.2,2-0.1
		c0.1-0.1,0.2-0.1,0.3-0.2c0,0,0,0,0.1-0.1c0.1-0.1,0.1-0.1,0.1-0.2c0.5-0.7,0.7-1.8,0.8-3c0,0,0-0.1-0.1-0.1
		C527.4,398.9,526.6,398.7,525.7,398.9z"/>
	<path class="st1" d="M497.3,225.6C497.3,225.6,497.4,225.6,497.3,225.6c0.5,0.4,1.1,0.7,1.7,0.8c0.2,0,0.5,0.1,0.7,0.1
		c0.1-0.1,0.2-0.1,0.3-0.1c0.5-0.2,1.3-0.6,1.2-1.4c-0.1-0.7-0.8-1.5-1.9-1.6c-0.9-0.1-2.1,0.2-2.4,0.6c0,0.1-0.1,0.2,0.1,0.5
		c0,0.1,0.1,0.2,0.2,0.2C497.4,225,497.4,225.3,497.3,225.6z"/>
	<path class="st0" d="M482.8,464c0.5-0.4,1.1-0.9,1.6-1.3c2.5-2,4.8-3.8,6.7-6.4c0.7-0.9,2-2.7,2.8-4.6c-0.4,0.7-1,1.3-1.7,1.9
		c-1.2,1-2.5,1.8-3.8,2.5c-0.4,0.3-0.9,0.5-1.3,0.8l-0.2,0.1c-3.6,2.3-7.3,4.6-10.8,7.2c-3.2,2.4-6.6,5.4-8.6,9.1
		c-0.8,1.4-1.5,3.8-1.5,6.1c0,1.3,0.3,3.1,1.5,4.1c0.4,0.3,0.4,0.9,0.1,1.2c-0.3,0.4-0.9,0.4-1.2,0.1c-1.2-1-1.9-2.6-2.1-4.6
		c0,0,0,0,0,0c-4.8-0.4-9.5,0.9-13.3,3.7c-0.4,0.3-0.7,0.6-1,0.9c-1.1,1-2.2,2-4.4,1.3c-1.9-0.6-3.5-2.1-4.4-3.2
		c-1.6-1.9-3.5-4.8-1.2-8.4c2-3.2,2.9-5.8,1.5-8.8c-0.7-1.6-1.8-2.5-3.3-2.7c-2.2-0.3-4.9,1-6.6,3.1c-3.5,4.4-2.7,12.2-0.7,18.1
		c1.1,3.3,2.8,5.9,5,7.6c1.3,1,2.7,1.8,4.3,2.3c0.5,0.2,0.7,0.2,0.8,0.2c0,0,0-0.1,0.1-0.3c0.1-0.3,0.3-0.6,0.4-0.8
		c0.3-0.4,0.8-0.5,1.2-0.3c0.4,0.2,0.6,0.7,0.4,1.1c-0.1,0.2-0.2,0.4-0.3,0.6l-0.1,0.1c-0.7,1.7-1,4.2-0.6,5.9
		c0.1,0.3,0,0.5-0.2,0.7c0.3,0.2,1.3,0.8,5.2,1.7c0.2,0,0.4,0.1,0.5,0.1c2.2,0.6,4.7,1.3,7.1,1.5c4.1,0.4,8.2,0.2,12.4-0.1
		c4.7-0.3,8.5-0.8,11.9-1.5c0.3-0.1,0.6-0.1,0.9-0.2c1.7-0.3,4.5-0.8,5.2-1.9c0.3-0.5,0.2-1.7,0.2-2.4c0-0.2,0-0.4,0-0.5
		c0-0.3-0.2-1.1-0.4-1.7c-0.5-2.1-0.7-2.9-0.3-3.5c0.5-0.9,2-1.2,3.8-1.4c0.2,0,0.4-0.1,0.5-0.1c0.5-0.1,0.9-0.2,1.4-0.3
		c2.9-0.5,5.9-1.1,8.1-2.9c3-2.5,3.9-7.5,2-11c-0.9-1.6-2.4-2.5-4.1-2.4c-1.6,0.1-3,1.1-3.8,2.8c-0.4,0.9-0.6,1.7-0.9,2.5
		c-0.9,2.7-1.8,5.3-4.6,7.4l-0.2,0.2c-0.7,0.5-1.6,1.3-2.5,1.4c-0.2,0-0.3,0.1-0.3,0.1c-0.2,0.2-0.4,0.2-0.6,0.2
		c-0.3,0-0.5-0.2-0.6-0.4c0,0-0.1-0.1-0.4-0.4c-0.6-0.5-1.2-1.2-1.7-1.9c-0.4-0.5-0.7-1-1.1-1.3c-1.6-1.5-3.5-2.8-5.6-3.7
		c-0.1,1.1,0,2.2,0.1,3.4c0.1,0.5-0.3,0.9-0.8,1c0,0-0.1,0-0.1,0c-0.4,0-0.8-0.3-0.9-0.8c-0.2-1.6-0.2-3.1-0.1-4.7
		c-0.1-0.2-0.1-0.5,0.1-0.7c0,0,0,0,0,0C473,474.4,476.4,469.3,482.8,464z"/>
	<path class="st1" d="M488.5,134.5c0,0.1,0,0.1,0,0.2c0,0.1,0,0.2,0,0.3c0.1,0.1,0.2,0.2,0.3,0.3c0.1,0,0.2,0.1,0.3,0.1
		c0.8,0.5,1.9,0.5,2.7,0.2c0.3-0.3,0.6-0.6,1-1.1c0-0.3-0.2-0.6-0.5-0.9c-0.6-0.6-3.1-1.4-4-0.9c-0.1,0.1-0.4,0.2-0.1,1
		c0,0,0,0.1,0,0.1C488.3,134,488.5,134.3,488.5,134.5C488.5,134.5,488.5,134.5,488.5,134.5z"/>
	<path class="st0" d="M418.6,184.6L418.6,184.6L418.6,184.6c0-0.6-0.1-1.3-0.1-1.9c0-1,0-1.9,0-2.8c0.1-1.7,0.3-3.4,0.6-5.1
		c0.5-3,1.5-5.8,2.7-8.3c3.6-7.3,7.4-11.5,11.4-12.4c5.7-1.4,9.6,3.3,11.5,8.2c0.2,0.6,0.4,1.2,0.6,1.8c0.6,1.8,1.2,3.5,2.4,4.8
		c1.2,1.2,3.7,2.5,5.1,1.5c0.7-0.5,0.5-1.2-0.5-3.1c-0.4-0.8-0.9-1.7-1-2.5c-0.2-1-0.2-2.1-0.3-3.1c-0.1-1.6-0.3-3.1-0.7-4.7
		c-0.5-1.7-1-3-1.9-4.1c-0.2-0.3-0.5-0.6-0.7-0.8c-0.6-0.6-1.2-1.3-1.5-2.3c-0.4-1-0.3-2.1-0.3-3.1c0-0.5,0-0.9,0-1.3
		c-0.1-1.6-0.3-3.2-0.7-4.9c-1.4-6-4.4-11-8.6-13.9c-2.6-1.8-4.1-3.5-4.7-7.1l0-0.3c-0.4-2.3-0.7-4.5-1.7-6.7
		c-0.8-1.8-3.9-7.7-9.9-7.2c-2.1,0.2-5,1.1-6.2,2.8c-0.3,0.5-0.5,0.9-0.6,1.5c2.3-1.2,4.9-1.2,7.3,0c4.3,2.2,7.8,8.1,7.8,13.4
		c0,3.6-1.4,6.3-4.1,7.9c-0.1,0.1-0.2,0.3-0.3,0.3c-17.3,9.5-31.1,28.7-35,49c-0.2,0.9-0.4,1.9-0.5,3c0,0.1-0.1,0.1-0.1,0.2
		c3.3,0.7,6.8,1.2,10.7,1.6c5.8,0.6,11.5,0.7,17,0.4l0.9-0.1c0.5,0,0.9-0.1,1.4-0.1c0-0.1,0-0.1,0-0.1
		C418.6,185.1,418.6,184.9,418.6,184.6z"/>
	<path class="st0" d="M325.1,2.4c2.1-0.1,2.3,3.4,0,3.4C322.9,5.6,323.3,2.5,325.1,2.4z M320.5,3.3c-0.4,0.7-0.9,1.4-1.3,2.1
		c-1,1.8-1.5,3.1-1.7,4.4c-0.1,0.9-0.1,1.8,0.1,2.6c0.1,0.4-0.2,0.9-0.6,1c0,0-0.1,0-0.1,0c-0.1,0.2-0.2,0.3-0.3,0.4
		c-7.3,4.7-15.6,4-23.6,3.3l-1.9-0.2c-4.3-0.4-7.4,0.5-9.8,2.8c-1.5,1.4-2.3,3.2-2.2,4.5c0.1,0.9,0.7,1.7,1.7,2.3
		c3.7,2.1,8.2,0.1,12.6-1.7c2.7-1.1,5.3-2.2,7.7-2.5c1.5-0.1,3-0.1,4.7-0.2c5,0,10.2,0,13.1-4.2c0,0,0.1-0.1,0.1-0.2
		c0.3-0.4,0.8-0.5,1.2-0.2c0.1,0.1,0.2,0.3,0.3,0.4c4.4,5.5,10.9,8.5,20.1,9.2c1.6,0.1,3.2,0.2,4.8,0.3c2.9,0.1,5.8,0.3,8.7,0.7
		c3.9,0.6,8,1.5,12.6,2.9c13.1,3.9,31.3,11.6,43.2,26.6c0.1,0.2,0.2,0.4,0.2,0.6c0.1,0.1,0.2,0.3,0.2,0.5c0,0.4-0.3,0.8-0.7,0.8
		c0,0,0,0,0,0c-6.4,1.3-13.9,4-13.1,10.1c0.8,6.5,10.1,9.3,16.5,9.2c0.3,0,0.5,0.1,0.7,0.3c0.2,0.2,0.2,0.5,0.1,0.8
		c-0.8,2.3-0.3,5.6,1.8,6.8c0.8,0.5,1.4,0.5,1.8,0.3c0.8-0.6,1-2.5,0.8-4.1c-0.1-0.3-0.1-0.7-0.2-1c-0.3-1.5-0.6-3-0.2-4.7
		c0.1-0.5,0.3-0.9,0.4-1.3c0.3-0.9,0.5-1.4,0.1-1.9c-0.3-0.4-1-0.8-1.7-1.2c-1.4-0.7-3.3-1.7-2.9-3.7c0.4-2.5,3.7-3,5.6-3.3
		c0.2,0,0.4-0.1,0.6-0.1l1-0.2c2.4-0.4,4.8-0.7,7-1.7c0.4-0.2,0.9-0.4,1.3-0.7c1.1-0.6,2-1.4,2.8-2.4c1.7-2.2,2.4-5.2,2.1-9.2
		c0,0,0-0.1,0-0.1c0-0.3,0.2-0.6,0.4-0.7c0.4-1.2,1.5-2.1,2.8-2.2c1.5-0.1,2.4,0.8,3.2,1.5c0.2,0.2,0.4,0.4,0.6,0.5
		c2,1.6,4.5,1.4,6.7-0.5c0.8-0.7,2.2-2.7,2-3.9c0-0.3-0.2-0.5-0.5-0.7c-0.9-0.4-2.6,0.9-3.6,1.5c-0.3,0.2-0.5,0.4-0.7,0.5
		c-0.2,0.1-0.4,0.2-0.7,0.1c-0.2-0.1-0.4-0.2-0.5-0.4c-0.7-1.4-1.2-2.9-1.7-4.3c-1.1-3.3-2.3-6.4-5.2-8.4c-2.3-1.6-5.4-2.1-7.7-1.3
		c-1.8,0.6-2.1,2.1-2.4,4.4c1.2,1.2,2.5,2.6,4.1,4.2c0.3,0.3,0.3,0.9,0,1.2c-0.2,0.1-0.4,0.2-0.6,0.2c-0.2,0-0.5-0.1-0.6-0.3
		c-1.7-1.8-3.1-3.2-4.4-4.5c-6.6-6.7-13.7-13.1-21.1-19.1c-7.7-6.2-16.8-13-27.4-15.1c-0.2-0.1-0.4-0.2-0.6-0.4
		c-0.3-0.1-0.5-0.3-0.5-0.6c-0.3-1.1-0.5-2.4-0.4-3.8h-5.4c-0.1,1.2-0.1,2.5,0.2,3.7c0,0,0,0.1,0,0.1c0,0.1,0,0.1,0,0.2l-0.5,0.1
		c-0.1,0.4-0.4,0.7-0.8,0.7c0,0-0.1,0-0.1,0c-1.5-0.2-3-0.6-4.4-1.2c0,0,0,0-0.1,0c-0.5,0.6-1.2,1-1.8,1.4c-0.4,0.3-0.7,0.5-1.1,0.8
		c-0.9,0.7-1.3,1.6-1.1,2.8c0.3,3,3.5,6.4,5.5,7.4c0.4,0.2,0.6,0.7,0.4,1.1c-0.2,0.4-0.7,0.6-1.1,0.4c-2.4-1.2-6.1-5.1-6.4-8.8
		c-0.2-1.7,0.4-3.2,1.8-4.3c0.4-0.3,0.8-0.6,1.2-0.8c0.7-0.4,1.3-0.9,1.7-1.3c0.5-0.5,0.6-1.1,0.5-1.9c0-0.1-0.1-0.2-0.1-0.3h-8.3
		c-1.1,1.6-1.6,3.5-1.8,4.4c-0.1,0.4-0.2,0.8-0.2,1.2c-0.8,5.1,0.8,10.8,4.1,14.8c0.3,0.3,0.2,0.9-0.1,1.2c-0.2,0.1-0.3,0.2-0.5,0.2
		c-0.2,0-0.5-0.1-0.6-0.3c-3.7-4.5-5.4-10.5-4.5-16.1c0-0.1,0-0.2,0.1-0.3l-1,0.2c-1.7,0.4-3.5,0.8-5.3,1.1c-0.2,0-0.4,0.1-0.7,0.1
		c-1.8,0.3-4.5,0.8-5.9-0.1c-2.3-1.4-1.1-3.9-0.4-5.6c0.1-0.3,0.3-0.6,0.3-0.8h-16c-0.3,0.6-0.6,1.2-1,1.8
		C321.1,2.3,320.8,2.8,320.5,3.3z"/>
	<path class="st0" d="M378.2,594.2c0.8-0.5,1.2-0.7,1.3-1.4c0.1-0.9-0.4-1.5-1-1.9c-2.5-1.5-5.4,1.3-6.8,3.2c-1.3,1.8-2,3.8-2.3,5.9
		h5.4c0.1-1.8,0.6-3.6,2-4.9C377.4,594.7,377.8,594.5,378.2,594.2z"/>
	<path class="st0" d="M335.5,595.6c-0.7,1.1-1.8,1.8-3.1,1.8c-0.4,0-0.7,0-1.1-0.2c-0.4-0.1-0.7-0.6-0.5-1c0.1-0.4,0.6-0.7,1-0.5
		c1,0.3,1.8-0.3,2.2-0.9c0.4-0.6,0.6-1.5-0.1-2.2c-0.3-0.3-0.3-0.9,0-1.2c0.3-0.3,0.9-0.3,1.2,0
		C336.3,592.5,336.4,594.2,335.5,595.6z M333.3,576.7c-1.5-1.6-3-2.5-3.8-2.3c-0.7,0.2-1,1.1-1.2,1.8c-0.5,2-0.7,4-0.9,6.2
		c-0.2,2.3-0.4,4.6-1,6.9c-1,3.9-2.4,7.5-4.1,10.7h16c0-0.1,0.1-0.2,0.1-0.2C341,592.3,339,582.8,333.3,576.7z"/>
	<path class="st0" d="M359,597.3c-1.9,0.1-3.2,1.3-4.1,2.7h8.3C362.8,598.2,360.8,597.1,359,597.3z"/>
	<path class="st2" d="M433.2,562.5c-2.4,0.4-5.1,0.6-7.9,0.6c-2.6,0-5.4-0.2-8.4-0.5l-0.1,0c-2.9-0.3-7.6-0.9-10.1-3.3
		c-1.1,3-2,6-2.6,8.8c0,0.2-0.1,0.4-0.1,0.6c-0.4,1.5-0.6,2.5,0.2,3.3c2,2,6.6,2.5,9.7,2.7c0.4,0,0.9,0.1,1.2,0.1
		c5.5,0.6,11.3,0.6,17,0.1l0.5,0c4.2-0.3,9-0.7,12.6-2.8c1.3-0.8,1.6-1.3,1.6-2.5c-0.3-3.6-1.5-7.5-2.6-11.2c0-0.1,0-0.1-0.1-0.2
		C441.3,561.1,433.3,562.5,433.2,562.5z"/>
	<path class="st0" d="M416.9,230.2c3.5-1,4.7,4.7,0.7,4.3c-1-0.2-1.9-0.4-2.2-1.4C414.9,231.9,415.8,230.5,416.9,230.2z
		 M412.4,342.1c0.5,0.1,1.1,0.3,1.6,0.4l0.1,0c0.2,0,0.4,0,0.6,0.2c5.4,1.2,15,2.6,23.4-0.2c1.6-0.5,2.7-1.4,2.8-2.1
		c0.1-0.7-0.7-1.5-1.4-1.9c-2.4-1.7-6.2-2-9.2-0.7c-0.3,0.1-0.7,0.1-0.9-0.2c-0.2-0.3-0.3-0.6-0.1-0.9c1.3-2.7,0.9-6.3-0.9-9.9
		c-0.7-1.5-1.7-2.8-2.7-3.9c-4.1-4.4-10.7-4.1-15.1-2.5c-0.4,0.1-0.9-0.1-1.1-0.5c-0.1-0.4,0.1-0.9,0.5-1.1c4.9-1.7,12.2-2,16.9,3
		c0.6,0.7,1.2,1.4,1.8,2.3c1.2-8.8,1.3-17.8,1.3-26.6v-0.4c0.1-7.2,0-14.8-0.3-22.5c-0.1-1.9-0.1-3.8-0.2-5.7
		c-1.1,1.4-2.1,3-2.9,4.6c-0.1,0.3-0.4,0.5-0.8,0.5c-0.1,0-0.2,0-0.3-0.1c-0.4-0.2-0.6-0.7-0.4-1.1c0.5-1.1,1.9-3.9,4.2-6.2
		c1.9-2,3.9-3.2,5.9-3.3c1.5-0.1,2.4,0.6,3.3,1.3c0.5,0.4,1,0.8,1.6,1c0.7,0.2,1.5,0,2-0.5c0.6-0.5,1-1.2,1.1-2.1
		c0.1-1-0.1-1.9-0.7-2.7c-1.3-1.6-3.7-2.6-5.6-2.8c-2.1-0.3-4.5,0.1-6.7,1.1c-2,0.8-3.9,2-5.4,3.5c-0.3,0.3-0.9,0.3-1.2,0
		c-0.3-0.3-0.3-0.9,0-1.2c1.5-1.5,3.4-2.7,5.3-3.6c-0.1-1.5-0.2-3.1-0.3-4.6c-0.1-1.1-0.1-2.1-0.2-3.2c0-0.5-0.1-1.1-0.2-1.7
		c-0.2-1.6-0.5-3.4-0.1-5c0.6-2.3,2.6-4,4.5-5.4c-1.5-0.2-2.9-0.8-4-1.7c-0.4-0.3-0.4-0.8-0.1-1.2c0.3-0.4,0.8-0.4,1.2-0.1
		c1.5,1.2,3.5,1.7,5.4,1.2c0.3-0.2,0.5-0.4,0.7-0.6c3.8-3.4,6.1-6.3,7.6-9.4c0.7-1.5,1.7-4.3,1.6-6.8c-0.2,0.1-0.4,0.1-0.7,0.2
		c-0.4,0.1-0.8,0.1-1.2,0.1c-0.6,0-1.1,0-1.6-0.1c-1.5-0.1-3.5-0.5-4.1-0.8c-0.1,0-0.1-0.1-0.2-0.1c-0.4,0.4-0.8,0.8-1.3,1.2
		c-1,1-2,2-2.9,2.6c-4.1,2.7-9,4.7-14,5.7c-1.3,0.3-2.9,0.2-4.5,0.2c-2.6,0-5.4-0.1-7.1,1.2c-2.4,1.8-2.5,6.3-2.5,9.1l0,0.2
		c0.1,0.1,0.1,0.3,0.1,0.4c-0.3,2-0.5,4.1-0.8,6.2c-0.7,6.5-1.5,13.1-3.7,19.2c-0.4,1.1-1,2.3-1.6,3.6c-1.9,3.8-3.9,8.2-1.8,11.2
		c1.6,2.2,3.7,1.7,4.9,1.1c0.8-0.4,1.6-0.9,2.3-1.7c2.4-2.6,3.2-6.4,3.7-10.1c1.3-8.7,1.4-18,0.2-27.6c-0.1-0.4,0.3-0.9,0.7-0.9
		c0.5-0.1,0.9,0.3,0.9,0.7c1.1,9.7,1.1,19.1-0.2,28c-0.6,4-1.5,8-4.2,10.9c-0.7,0.7-1.4,1.3-2.2,1.7c0,13.7-0.3,27-4.3,39.9
		c-3.8,12-10.9,17.9-19.4,16.3c-3.9-0.7-6.3-3.1-7.5-7.6c-0.2-0.8-0.3-1.6-0.4-2.4c-0.1-1.1-0.2-2.3-0.6-3c-0.1-0.2-0.2-0.3-0.2-0.3
		c0,0-0.4,0.2-1.1,1.3c-2.6,4.2-0.8,10.1,2.4,13.2c2.6,2.5,6.6,3.8,10.9,3.7c1.8-0.1,3.5-0.5,5.1-0.9c2.7-0.6,5.5-1.3,8.7-0.5
		c4.8,1.3,9.6,2.3,14.3,2.2c0,0,0,0,0,0C411.5,342.3,412,342,412.4,342.1z"/>
	<path class="st1" d="M444.1,217c0.3,0,0.5-0.1,0.5-0.1c0-0.1,0-0.2,0-0.3c0,0,0-0.1,0-0.1c-0.4-0.8-1-1.4-1.9-1.7
		c-0.5-0.1-1-0.1-1.6,0.1c-0.7,0.3-1.5,0.8-2.5,1.6c0,0,0,0,0,0.1c0.6,0.2,1.8,0.4,3.1,0.5C442.7,217.1,443.5,217.1,444.1,217z"/>
	<path class="st0" d="M420.3,544c1.1,0.9,0.8,2.9-0.8,2.9c-0.2,0-0.4,0-0.6-0.1C416.3,546,418.1,542.1,420.3,544z M407.1,555.4
		c1.3-1.5,4.2-2.5,6.1-2c-0.2-0.3-0.3-0.5-0.5-0.8c-0.2-0.4-0.1-0.9,0.3-1.1c0.4-0.2,0.9-0.1,1.1,0.3c0.4,0.7,0.8,1.3,1.2,1.9
		c0.1,0.2,0.3,0.4,0.4,0.6c1.4,1.9,3.1,3.6,5,5c0,0,0.1,0,0.1,0c0.1,0,0.1,0.1,0.2,0.1l0.1,0.1c0.8,0.6,1.7,1.1,2.5,1.5
		c0.2,0.1,0.3,0.2,0.3,0.3c3.2,0.1,6.2-0.1,8.9-0.5c0.8-0.1,1.9-0.4,3.1-0.7c-0.3-0.7-0.6-1.5-0.9-2.3c-2-5-3.4-10.2-4.3-15.5
		c-0.1-0.8-0.3-1.7-0.4-2.6c-0.7-3.9-1.8-8.2-4.5-10.9c-2.6-2.5-7-2.7-12.9-0.5c-0.1,0-0.1,0-0.1,0c-0.3,0.2-0.6,0.3-1,0.1
		c-8.9-4.8-16.5-10.5-23-17.5c-1.2-1.3-2.4-2.6-3.6-3.9c-9.2-10.1-18.8-20.5-33-21.9c-2.2-0.2-4.3-0.3-6.3-0.2
		c-1,0.1-1.9,0.1-2.9,0.3c-0.1,0-0.3,0-0.4,0.1c-0.4,0.1-0.8,0.2-1.1,0.1c-0.3,0-0.4,0-0.4,0c-0.3,0.1-0.7,0.1-1.1-0.3
		c-0.1-0.1-0.2-0.2-0.5-0.5c-0.8-0.7-1.3-1.6-1.9-2.5c-0.4-0.7-0.8-1.3-1.2-1.8c-1.1-1.2-2.1-2.2-3.2-2.9c-1.8-1.2-3.8-1.7-5.9-2.2
		c-1.2-0.3-2.4-0.6-3.6-1c-3-1.1-5.5-2.7-7.4-4.8c0.1,2.7,1.5,5.3,3.9,7c1.4,1,3,1.6,4.7,2.2c1.6,0.6,3.2,1.2,4.7,2.1
		c2.4,1.6,4.7,4.5,4.1,7.8c-0.2,1.3-1.1,2.5-1.9,3.6c-0.5,0.7-1,1.4-1.3,2c-0.6,1.3-1.1,2.8-1.4,4.6c-1.2,6.5-0.3,13.6,2.5,19.9
		c1.4,3.2,3.2,5.8,5.4,8c1.3,1.3,5.2,5.1,8.4,4.5c1.2-0.2,2.3-1.2,2.1-2.7c-0.1-0.8-0.7-1.2-1.6-1.8l-0.4-0.2
		c-3.1-2.1-2.8-4.6-2.4-7.2c0.1-0.6,0.1-1.3,0.2-1.9c-1.9-1.7-3.5-3.3-4.9-5c-0.3-0.3-0.3-0.9,0.1-1.2c0.4-0.3,0.9-0.3,1.2,0.1
		c1.5,1.7,3.2,3.4,5.2,5.2c3,2.6,6.7,5.2,11.3,8c1.5,0.9,3.1,1.8,4.7,2.7c1.8,1,3.7,2,5.4,3l0.4,0.2c7.3,3.9,15.3,7.8,25.2,11.9
		c2.6,1.1,5.2,2.2,7.8,3.2c0.3,0.1,0.4,0.3,0.5,0.6l0.6-0.9c2.2-3.4,4.2-6.8,3.9-10.4c-0.1-0.4,0.3-0.9,0.8-0.9
		c0.4,0,0.9,0.3,0.9,0.8c0.4,4.1-1.7,7.8-4.1,11.5l-0.8,1.2c-1.6,2.4-3.2,4.4-4.9,6.3c-0.5,0.5-1,1.1-1.7,1.8c-0.5,0.5-1,1-1.6,1.5
		c-3.1,2.9-7.4,6.8-6,10.5c0.9,2.3,3.7,3.6,6.2,3c2.9-0.8,5.1-3.6,6.6-5.7c1.8-2.5,3.3-5.3,4.9-8.7c1.8-4.2,3.3-8.6,4.7-12.8
		l0.6-1.9c0.1-0.4,0.6-0.7,1-0.5c0.4,0.1,0.7,0.6,0.5,1l-0.6,1.9c-1.3,4-2.7,8.2-4.4,12.2c0,0,0,0,0.1,0.1
		C406.7,555.9,406.9,555.7,407.1,555.4z"/>
	<path class="st0" d="M440.8,552.6c-0.9-0.9-1.8-1.7-2.7-2.6c-1.8-1.7-3.7-3.4-5.2-5.4c0.5,2.7,1.2,5.3,2,7.8
		C437.3,552.3,439.3,552.3,440.8,552.6z"/>
	<path class="st0" d="M440.5,78.3c-0.7-2.7-1.5-5.2-2.6-7.5c-1-2.1-3.1-6.5-5.5-8c-0.5,0.6-1.1,1.1-1.7,1.6
		C434.5,67.2,437.9,73.2,440.5,78.3z"/>
	<path class="st1" d="M420.3,180.1c0,0.9-0.1,1.7,0,2.7c0,0.6,0,1.2,0.1,1.8c0,0,0,0,0,0h0c0,0.2,0,0.5,0,0.7c0,0.1,0,0.1,0,0.1
		c0.4,0,0.8-0.1,1.2-0.1c1.3-0.1,2.5-0.3,3.6-0.4c0.5-0.1,1-0.2,1.4-0.2c1.8-0.3,3.4-0.8,4.8-1.3c2.1-0.8,4.5-2.7,4.8-4.5
		c0.2-0.9-0.2-1.8-1.2-2.6c-0.3-0.3-0.6-0.4-0.9-0.7c-0.1-0.1-0.2-0.1-0.4-0.2c-2.7-1.5-6.5-1.6-9.9-1.8c-0.9,0-1.8-0.1-2.6-0.1
		c0,0-0.1,0-0.1,0c-0.1,0.6-0.3,1.2-0.4,1.8C420.5,176.8,420.3,178.4,420.3,180.1z"/>
	<path class="st0" d="M399,547.2c-2-0.8-4.1-1.7-6.1-2.5c0.9,2.4,1.9,4.8,3.1,7c1.2-1.3,2.3-2.8,3.5-4.5c0,0-0.1,0-0.1,0
		C399.2,547.3,399.1,547.3,399,547.2z"/>
	<path class="st1" d="M387.8,180.2c0.7-3.3,1.5-6.6,2.7-9.8c-4.9-0.3-9.4-0.4-13.5,1.3c-1.2,0.5-2.9,1.4-3.9,2.6
		c-1.4,1.7-0.8,2.8-0.3,3.5c1.8,2.2,6.2,3.4,9.2,4.2l1,0.3c1.1,0.3,2.2,0.6,3.3,0.8c0.3,0.1,0.7,0.1,1,0.2c0-0.1,0-0.1,0-0.1
		C387.4,182.1,387.6,181.1,387.8,180.2z"/>
	<path class="st0" d="M381.4,222.4c0.2-0.1,0.4-0.1,0.6-0.1c-0.1-0.1-0.2-0.1-0.3-0.2c0,0-0.1,0.1-0.1,0.1
		C381.4,222.3,381.4,222.3,381.4,222.4z"/>
	<path class="st0" d="M353.1,212.6c2.1-1.3,3.1,2.5,0.9,2.8C352.3,215.6,351.8,213.4,353.1,212.6z M278.3,183.3
		c0.3-0.3,0.9-0.3,1.2,0.1c0,0,0,0,0,0.1c0.3,0,0.6,0.1,0.7,0.4c0.1,0.2,0.1,0.4,0.1,0.6c14.2,15.6,28.5,29.9,47.8,35.1
		c0.1,0,0.1,0.1,0.2,0.1c4.5-1.5,8.3-4.4,10.7-8.2c0.3-0.4,0.8-0.5,1.1-0.3c0.4,0.3,0.5,0.8,0.3,1.1c-2.8,4.3-7.1,7.6-12.2,9.1
		c-2.7,0.8-5.5,1.1-8.2,0.9c-1.2-0.1-2.4-0.3-3.6-0.5c-2.6-0.5-5.1-0.9-7.5-0.2c-1.6,0.5-2.8,1.5-3.3,2.8c-0.4,1.1-0.2,2.4,0.6,3.6
		c2.9,4.3,8.9,5.3,18.4,3.2c4.4-1,8.3-2.5,11.7-4.5c3.3-2,6-4.4,7.9-7.3c0.3-0.4,0.8-0.5,1.2-0.2c0.4,0.3,0.5,0.8,0.2,1.2
		c-1.9,2.8-4.4,5.2-7.5,7.2c4,2.6,8.7,8.3,7.5,13.4c-0.2,0.8-0.7,1.5-1.1,2.2c-0.7,1-1.1,1.7-0.8,2.5c0.5,1.5,2.7,1.5,4.1,1.1
		c4.2-1.4,4.4-6.8,3.5-10l-0.1-0.2c-0.7-2.5-1.2-4.7,0.9-7.2c0.6-0.6,1.2-1.2,1.8-1.8c1.1-1.1,2.2-2.1,2.8-3.4
		c-1.9-0.7-3.6-1.2-5.1-1.5c-0.4-0.1-0.7-0.5-0.6-1c0.1-0.4,0.5-0.7,1-0.6c1.8,0.4,3.8,1,6.2,1.9c1.5,0.5,2.9,1.1,4.3,1.7l0.5,0.2
		c1.7,0.7,3.5,1.4,5.3,2c3.4,1.1,6.2,1.6,8.9,1.5c0.3,0,0.7,0,1.1,0c-0.4-0.7-0.6-1.4-0.6-2.3c0.1-1.7,1.1-3.3,2.3-4.4
		c-3.3-1.6-5.9-3.6-8.5-6.4c-0.9-0.9-1.8-1.9-2.6-2.9c-2-2.2-4.1-4.6-6.5-6.4c-3.8-3-8.8-4.4-13-3.7c-1.6,0.3-3,0.8-4.2,1.7
		c-0.8,0.6-1.6,1.3-2.3,2.1c-0.1,0.1-0.1,0.1-0.1,0.2c-0.3,0.4-0.8,0.4-1.2,0.1c-0.1-0.1-0.2-0.2-0.2-0.3
		c-17.1-8-31.4-21.4-41.4-38.8c-0.5-0.8-0.9-1.6-1.4-2.4c-1.2-2.2-2.8-5.1-4.8-7.6c-3-3.7-6.1-5.7-9.4-5.9c-1.4-0.1-2.8,0.1-4.2,0.6
		c-0.4,0.1-0.7,0.3-1.1,0.4c-7.1,3-8.9,12.6-6.3,19.6c0.1,0.4,0,0.7-0.3,0.9c-0.1,0.2-0.2,0.3-0.3,0.4c-5.8,3.7-12.3,3.3-18.6,2.9
		c-1-0.1-2-0.1-3.1-0.2c-2.9-0.1-6.1,0-7.9,2.3c-0.8,1-1.1,2.3-0.8,3.4c0.2,1,0.9,1.8,1.9,2.3c1.6,0.7,3,0.2,4.6-0.5
		c1.1-0.5,2.3-0.9,3.6-1c2.2-0.1,3.9,1.1,5.5,2.2c0.8,0.6,1.6,1.1,2.4,1.4c5.5,2.5,12.8,1.9,18.1-1.4
		C277.9,183.9,278,183.6,278.3,183.3z"/>
	<path class="st1" d="M381.4,222.4c-1,0.8-1.9,2.2-2,3.5c0,0.6,0.2,1.2,0.7,1.7c0.1,0.1,0.2,0.3,0.2,0.4c1.5-0.2,3.1-0.5,4.1-1.4
		c0.8-0.7,0.7-1.2,0.7-1.3c-0.1-1-1.6-2.1-3.1-2.9C381.7,222.3,381.5,222.3,381.4,222.4z"/>
	<path class="st0" d="M351.5,83.7c1.1,0.9,0.6,3.3-1.2,2.9h0.1c-0.7,0-1.2-0.4-1.4-0.8C348.1,84.1,350.1,82.5,351.5,83.7z
		 M275.4,87.9c8-5,16.9-6.1,25.2-3c6.8,2.5,13,6.7,17.7,10c5.9,4.2,9.6,8.4,11.6,13.2c0.1,0.1,0.3,0.3,0.3,0.5c0,0.1,0,0.1,0,0.2
		c0.1,0.2,0.1,0.4,0,0.7c0.1,4.8-2,9.7-5.6,13.1c-0.6,0.5-1.5,1.1-2.4,1.7c-2.8,1.7-4.6,3.1-3.7,4.9c0.4,0.8,1,1.3,1.9,1.5
		c1.7,0.5,4-0.1,5.3-0.8c3.5-2,6.8-5.9,8.6-10.3c0.1-0.2,0.2-0.7,0.3-1.2c0.2-1.2,0.4-2.2,1-2.8c0.6-0.6,1.6-0.4,2.4-0.2
		c0.3,0,0.5,0.1,0.7,0.1c1.1,0,2.2-0.1,3.3-0.4c1.8-0.5,3.6-1.3,5-2.6c0.3-0.2,0.6-0.6,0.9-1c0.4-0.5,0.9-1.1,1.5-1.5c0,0,0,0,0,0
		c0.7-1.3,1-2.2,1.4-3.4c0.1-0.5,0.3-0.9,0.5-1.5l0,0c0,0,0-0.1,0-0.1l0.1-0.1c0,0,0-0.1,0-0.1c0,0,0,0,0,0c0.7-1.5,0.9-3.2,0.6-4.9
		c0,0,0-0.1,0-0.1c-3.9-0.1-6.8-0.9-8.7-2.5c-0.4-0.3-0.4-0.8-0.1-1.2c0.3-0.3,0.8-0.4,1.2-0.1c1.8,1.4,4.5,2.1,8.5,2.2
		c0.6,0,1.1,0,1.6,0c-0.1-1.3,0.3-3.3,0.9-3.8c2.4-2.2,5.4,0.9,6.9,2.3l0.3,0.3c0.1,0.1,0.1,0.1,0.1,0.2c2.9-0.6,5.6-1.5,8.3-2.7
		c5.1-2.3,8.6-4.8,10.6-7.5c0.3-0.4,0.6-1,0.8-1.6c-0.1,0-0.1,0-0.2,0c-1.6-0.4-3.9-2.7-4.4-4.4c-0.7,0.2-1.5,0.5-2.2,0.7
		c-1.3,0.5-2.7,0.9-4,1.2c-1.7,0.3-3.6,0.6-5.5,0.6c-1.9,0-3.8-0.3-5.4-1.1c-1.6-0.8-2.5-2-3.5-3.1c-0.3-0.4-0.6-0.7-0.9-1.1
		c-1.2-1.4-2.8-2.4-4.8-3c-0.2,0-0.3-0.1-0.5-0.1c-1.2-0.3-2.5-0.5-3.8-0.6c-3-0.2-6.2,0.3-9.1,1.4c-0.4,0.2-0.9,0-1.1-0.5
		c0,0,0,0,0,0c-0.2,0-0.3-0.1-0.5-0.3c-3.3-4.7-8.6-11.4-15.7-14.8c-4-1.9-9.4-3-12.7-0.5c-0.6,0.5-1.2,1.1-1.7,1.8
		c-0.7,1.2-0.9,2.5-0.5,3.6c0.4,1.1,1.3,2,2.6,2.5c1.8,0.7,3.9,0.6,6,0.5c1,0,2.1-0.1,3.2,0c4.6,0.2,13,1.7,17.1,8.6
		c0,0.1,0.1,0.2,0.1,0.3c0.2,0.3,0.2,0.7-0.1,1c-1.2,1.4-2.1,3-2.3,4.8c-0.1,0.4-0.4,0.7-0.8,0.7c0,0-0.1,0-0.1,0
		c-0.4-0.1-0.8-0.5-0.7-1c0.3-1.9,1.1-3.7,2.4-5.2c-3.7-6.1-11.3-7.3-15.6-7.6c-1,0-2,0-3,0.1c-2.3,0.1-4.6,0.2-6.7-0.6
		c-1.8-0.7-3-2-3.5-3.6c-0.5-1.6-0.3-3.4,0.7-5c0.3-0.4,0.5-0.8,0.9-1.2c-14.2-2.7-29.5,1.5-46.6,12.7c-1.2,0.8-2.4,1.6-3.7,2.4
		c-4.9,3.3-10,6.7-15.3,9.4c-4.7,2.4-10,4.5-15,3.6c1,0.9,2.3,1.5,3.9,1.8c5.4,1,13.2-1.7,16.5-4.7c0.2-0.2,0.6-0.3,0.9-0.2
		c0.3,0.1,0.5,0.4,0.5,0.7c0.5,5,3.1,10.2,6.7,13.4c0.8,0.8,1.8,1.3,2.7,2c1.1,0.7,2.3,1.5,3.3,2.5c2.4,2.4,2.6,5.2,3,8.2l0,0.1
		c0.4,4,2,4.5,3.1,4.4c1,0,1.5-0.5,1.8-0.9c0.5-0.7,0.6-1.8,0.3-2.7c-0.1-0.4-0.3-0.6-0.4-0.9c-0.4-0.8-0.7-1.5-0.3-2.9
		c0.1-0.6,0.3-1.1,0.5-1.7c0.3-1,0.6-1.9,0.7-2.9c0.1-1.4,0.1-2.8-0.1-4.1c-0.2-1.6-0.6-3-1.3-4.4c-0.1-0.2-0.2-0.4-0.3-0.6
		c-0.2-0.4,0-0.9,0.4-1.1c0.3-0.2,0.6-0.1,0.9,0.1C270.5,91.4,272.9,89.5,275.4,87.9z"/>
	<path class="st1" d="M382.1,83.3c0.5,0.3,0.8,0.3,0.9,0.3c0.1-0.8,0.3-2.4-0.6-3c0,0,0,0,0-0.1c0,0,0,0-0.1,0c0,0,0,0,0,0
		c-0.1,0-0.1,0-0.2,0c-0.3-0.1-0.7-0.2-1.2-0.2c-0.4,0-0.9,0.1-1.4,0.2C379.8,81.1,380.9,82.5,382.1,83.3z"/>
	<path class="st0" d="M355.1,422c-0.9,0.8-2.1,1.3-3.3,1.3c-0.4,0-0.8-0.1-1.1-0.2c-1.1-0.4-1.8-1.2-2-2.4c-0.1-0.4,0.2-0.9,0.6-1
		c0.5-0.1,0.9,0.2,1,0.6c0.1,0.6,0.4,1,0.9,1.1c0.8,0.3,2-0.1,2.8-0.8c0.3-0.3,0.9-0.3,1.2,0.1S355.5,421.7,355.1,422z M321,448
		c2.1,0.2,3.5-0.1,4.1-1.1c0.7-1,0.4-2.4-0.7-3.1c-0.7-0.5-1.5-0.4-2.4-0.4c-0.9,0-1.9,0.1-2.9-0.4c-1.7-0.7-3.6-2.6-4.1-4.7
		c-0.3,0.1-0.7,0.1-1,0.1c0,0-0.1,0-0.1,0c-0.4,0-0.8-0.3-0.8-0.8c0-0.5,0.3-0.9,0.8-0.9c0.6,0,1.1-0.1,1.7-0.2
		c2.8-0.5,5.2-1.8,7.1-3.6c-3.8-1.5-6.8-3.7-9-6.5c-0.7-0.9-1.3-1.9-1.8-2.9c-0.5-1.1-0.8-1.9-0.8-2.7c-0.1-0.9,0.3-1.5,0.5-1.8
		c0.4-0.4,1-0.7,1.8-0.7c0.4,0,1,0.1,1.7,0.2c1.1,0.3,2,0.5,3,0.7c0.7,0.1,1.3,0.2,1.8,0.3c1.6,0.2,3.2,0.3,4.8,0.3
		c0.5-2.4-0.9-3.8-2.8-5.7l-0.4-0.4c-0.3-0.3-0.3-0.9,0-1.2c0.3-0.3,0.9-0.3,1.2,0l0.4,0.4c1.9,2,3.8,3.8,3.3,6.9
		c1.5,0,3.2-0.1,5.2-0.3c-2.5-5.1-7.9-9.7-16.2-13.4c-0.2-0.1-0.3-0.2-0.4-0.4c-0.3,0.1-0.7,0-0.9-0.3c-4.2-6.5-3.4-13.4,2.2-17.6
		c4.6-3.6,11.2-5.3,17-4.4c6.8,1,12.2,5.6,13.6,11.5c1.1,4.5-0.7,8.5-2.3,12.3c-1.6,3.7-3.1,7.2-2.2,10.9c1.1-0.3,2-0.7,2.7-1.3
		c0,0,0,0,0,0c0.8-6.4,7.4-13.4,13.9-12.7c0.5,0,0.8,0.5,0.7,0.9c-0.1,0.5-0.5,0.8-0.9,0.7c-5.5-0.6-11.3,5.7-12,11.2
		c0,0.2-0.1,0.3-0.2,0.4c0,0.2-0.1,0.5-0.3,0.6c-1.1,0.9-2.5,1.5-4.3,1.9c-1.4,0.3-2.8,0.5-4.2,0.6l-0.7,0.1
		c-1.4,0.2-2.8,0.3-4.2,0.5c-2.8,0.3-4.9,0.4-7,0.4c-1.8,0-3.5-0.1-5.2-0.3c-0.1,0.7-0.3,1.4-0.4,1.8c0,0,0,0,0,0.1l0,0.1
		c0,0.1,0,0.1-0.1,0.2c0,0,0,0.1,0,0.1c-0.5,1.6-1.4,3.5-2.6,4.2c1.8,1.5,3.9,2.8,6.4,3.8c3,1.1,6.3,1.9,10,2.1
		c3.5,0.3,7.1,0.1,10.4-0.5c1.3-0.2,2.5-0.5,3.6-0.9c0.1,0,0.2,0,0.3,0c4-1.1,8-2.5,11.8-4.2c0.4-0.2,0.9,0,1.1,0.4
		c0.2,0.4,0,0.9-0.4,1.1c-4,1.7-8.2,3.2-12.4,4.4c-0.1,0-0.2,0-0.2,0c0,0-0.1,0-0.1,0c-0.8,0.2-1.6,0.4-2.5,0.6
		c0,0.3-0.2,0.5-0.4,0.6c-2.2,1.2-4.3,3.7-4.3,6.2c0.1,0.1,0.1,0.2,0.1,0.4c0,0.1,0,0.2-0.1,0.3c0,0.1,0,0.3,0.1,0.4
		c0.3,1.2,1.2,2.1,2.4,2.5c1.1,0.4,2.4,0.3,3.3-0.4c0.8-0.6,0.9-1.1,1.1-2c0.1-0.5,0.2-1,0.5-1.6c0.8-1.7,2.1-1.9,3.5-2.1l0.5-0.1
		c4.7-0.8,8.2-2.2,10.7-4.3c0.2-0.2,0.5-0.2,0.7-0.2c0-2.6,0-5.4-0.3-8c-0.3-3.8-1.5-6.3-3.6-7.4c-0.4-0.2-0.5-0.7-0.3-1.1
		c0.2-0.4,0.7-0.5,1.1-0.3c2.6,1.5,4,4.3,4.4,8.8c0.3,3,0.3,6,0.3,9c0,1.3,0,2.7,0,4v0.7c0,2.8,0.1,6,2.1,7.9
		c2.1,1.9,5.4,1.1,7.2-0.9c2.9-3,3.2-8.2,1-15.9c-0.5-1.7-1-3.3-1.7-4.7c-2.2-5.1-5.5-9.6-9.6-13.1c-0.3-0.3-0.4-0.8-0.1-1.2
		c0.3-0.4,0.8-0.4,1.2-0.1c4.1,3.4,7.4,7.9,9.7,12.9c4.7-3,6.5-8.9,7.8-14.3c1.9-8.2,1.4-15.3-1.7-22.2c-5.5-12.3-15.7-22.1-28.1-27
		c-14.5-5.7-31.4-5.2-44.1,1.5c-14,7.3-23,19-24.6,31.9c-1.7,13.6,4.2,32.1,18.6,39.6c0.9,0.4,1.7,0.8,2.5,1.1
		c0.4,0.2,0.6,0.6,0.5,1.1c-0.1,0.3-0.4,0.5-0.8,0.5c-0.1,0-0.2,0-0.3-0.1c-0.5-0.2-1-0.4-1.6-0.7C306.8,442.7,313.9,447.3,321,448z
		"/>
	<path class="st0" d="M359.9,65.8c1.6-0.7,3.1-1.3,4.4-2.1c2.1-1.3,4.4-3.7,4.1-6c-0.2-1.9-2.4-3.3-4.5-3.5
		c-4.3-0.4-7.7,3.9-9.9,7.3c-2.3,3.5-4.2,7.4-5.5,11.3c0.8,0.1,1.5,0.2,2.2,0.4C352.1,69,356.3,67.3,359.9,65.8z"/>
	<path class="st3" d="M363.2,230.5c-0.5,1.3-1,2.7-0.6,3.5c0.3,0.5,0.9,0.8,1.8,1c1.2,0.3,2.1,0,2.8-0.8c1.2-1.5,1.1-4.5,0.2-6.2
		c-1.2-0.4-2.3-0.8-3.4-1.2C364.1,227.9,363.6,229.2,363.2,230.5z"/>
	<path class="st0" d="M351.5,109.7c0.1,0,0.1,0.1,0.2,0.1c0.1,0.1,0.3,0.2,0.4,0.3c0.3,0.2,0.5,0.4,0.8,0.6c2.5,1.7,6,4.1,6.3,7.4
		c0.1,0.6,0,1.3-0.2,2.1c-0.2,1.3-0.5,3.3,0.2,3.9c0.3,0.3,1,0.3,1.5,0.2c1.2-0.2,2.1-0.9,2.7-2.1c1.1-2.2,0.9-5.6-0.1-7.5
		c-1.9-4.1-6.1-6.2-10.7-8.2c-0.1,0.2-0.1,0.4-0.2,0.6C352.1,108,351.9,108.8,351.5,109.7z"/>
	<path class="st0" d="M238.6,275.8c-0.2,0-0.4,0.1-0.6,0.1c-1.6,0-3.2-1.1-4.1-2.2c-0.8-1.1-0.9-2.4-0.4-3.4
		c0.2-0.4,0.7-0.5,1.1-0.3c0.4,0.2,0.5,0.7,0.3,1.1c-0.3,0.6,0,1.3,0.3,1.6c0.7,1,2.1,1.7,3.1,1.5c0.5-0.1,0.9,0.2,1,0.7
		C239.4,275.3,239.1,275.7,238.6,275.8z M335.2,301c0.4-0.3,0.9-0.2,1.2,0.2c0.1,0.1,0.1,0.2,0.2,0.3c4.6,5.6,14.4,7,19.7,2.8
		c1.7-1.3,3.5-3.9,3.7-6.2c0.1-1.1-0.3-2.1-1-2.9c-0.4-0.5-0.8-0.7-1.2-0.7c-0.8,0-1.7,1.1-2.6,2.1c-0.9,1-1.8,2.1-2.9,2.5
		c-4.3,1.3-9.2-3.8-10.9-6.8c-1-1.8-1.3-3.8-1.5-5.7c-0.2-1.8-0.5-3.4-1.3-4.9c-1.4-2.6-3.9-3.9-5.8-4.6c-3.9-1.4-5.2-4.3-6.7-7.3
		c-0.4-0.7-0.7-1.5-1.1-2.2c-2.5-4.7-6.7-8.5-11-10c-1.5-0.5-4.2-1.2-6.5,0.4c-1.3,1-2.4,2.7-2.1,4.4c2.4-1,5-0.9,7.4,0.3
		c3.7,1.8,6.6,6,7.2,10.2c1,7.1-2.8,13.8-9.7,17.4c-5.4,2.8-12.1,3.9-20.9,3.4c-5.4-0.3-10.4-1.3-14.8-2.9c0.5,3.5-1.4,7.2-4.9,8.8
		c-1.2,0.6-2.5,0.9-3.8,0.9c-2.9,0-6.1-1.4-8.9-4.2c-6.2-5.9-10.2-14.8-11-24.5c0-0.4,0.3-0.8,0.8-0.9c0.4,0,0.9,0.3,0.9,0.8
		c0.8,9.2,4.7,18,10.5,23.5c1.7,1.6,6.2,5.2,10.9,3c3.1-1.5,4.7-5,3.7-8.1c-2.5-1.1-4.8-2.4-6.8-3.9c-3.7-2.8-5.5-6.7-7.3-10.6
		c-0.5-1.1-1.1-2.3-1.6-3.4c-0.7-1.4-1.5-2.6-2.2-3.6c-1.3-1.7-2.7-2.9-4.3-3.7c-1.4-0.7-2.9-0.9-4.4-0.7c-2.2,0.3-4.2,1.1-6.4,2
		c-1.7,0.7-3.4,1.5-5.2,1.9c-7.6,1.8-13.8-3.2-19.2-7.6c-1-0.8-1.9-1.6-2.9-2.3c-0.2-0.2-0.5-0.4-0.8-0.6c-0.1-0.1-0.3-0.2-0.4-0.3
		c0,0,0,0.1,0,0.1c0,0,0,0,0,0.1c-0.2,0.3-0.4,0.7-0.7,1c0,0,0,0,0,0c0,0,0,0,0,0c-0.8,0.9-2,1.6-3.2,1.9c0,0,0,0,0,0
		c-0.5,0.1-1,0.2-1.4,0.2c-0.6,0-1.1-0.1-1.6-0.2c0.5,8.2,5.7,14.2,12.2,18.4c1.2-1.4,3.1-2,4.6-2c0.4,0,0.8,0.4,0.9,0.8
		c0,0.5-0.4,0.8-0.8,0.9c-1.1,0-2.4,0.4-3.2,1.3c5.8,3.4,12.3,5.5,17.2,6.5c0.1,0,0.1,0,0.1,0.1c0.1-0.1,0.2-0.2,0.4-0.2
		c0.4-0.1,0.9,0.2,1,0.6c1.3,6.5,4,12.3,7.7,16.8c0.1,0,0.2,0,0.4,0c0.4,0,0.8,0.4,0.8,0.8c0,0.5-0.4,0.9-0.9,0.8
		c-0.3,0-0.5,0-0.8,0c-3.8,0.1-10.7,1.1-14.4,6.3c-1.6,2.3-2.9,5.9-2.2,8.6c0.3,1.3,1.1,2.2,2.3,2.8c1,0.5,1.9,0.5,2.7,0
		c0.8-0.4,1.4-1.3,1.5-2.4c0.1-0.6,0.1-1.2,0.1-1.7c0.1-2,0.2-3.9,2.5-5.7c4.6-3.6,11.5-3.4,14.3-3.1c0.2-0.3,0.6-0.5,1-0.3
		c0.1,0,0.2,0.1,0.3,0.1c1.4,0.8,3,1.6,4.5,2.2c2.9,1.3,6.1,2.3,9.4,3.1c8.8,2.1,19.1,2.6,32.3,1.7c10.8-0.8,19.2-2.6,25.6-5.8
		c3.3-1.6,6.1-3.6,8.5-5.9c1-0.9,1.8-1.9,2.7-3C334.8,301.5,335,301.2,335.2,301z"/>
	<path class="st0" d="M349.4,191.9c-1.5-5.3-6.2-11-10.4-12.8c-1.3-0.5-2.6-0.6-3.5-0.2c-0.6,0.3-1,0.7-1.2,1.3
		c-0.8,2,0.7,4.3,2.4,6.4l1,1.3c3.3,4.1,6.7,8.3,7.7,13.7c0.9-0.5,1.9-0.9,3-1.1c0-0.2,0-0.4,0.1-0.5
		C350.4,197.4,350.1,194.2,349.4,191.9z"/>
	<path class="st0" d="M325.1,320c-0.5,1.4-1.1,1.8-2.1,2.4l-0.4,0.2c-0.6,0.3-1.1,0.7-1.2,1.2c-0.1,0.6,0.1,1,0.5,1.3
		c1.3,0.9,4.5,0.6,5.5-0.1c5.4-3.4,6.2-12.3,5-18.1c-2.1,1.9-4.6,3.6-7.3,5c0,0.1,0.1,0.1,0.1,0.2
		C326.1,314.6,326.1,317.5,325.1,320z"/>
	<path class="st1" d="M316.1,426.4c0.2,0,0.3-0.1,0.5-0.2c0.4-0.4,1-1.4,1.6-3.1c0,0,0-0.1,0-0.1l0-0.2c0,0,0,0,0-0.1
		c0.2-0.7,0.3-1.2,0.4-1.6c-0.4-0.1-0.7-0.1-1.1-0.2c-1-0.2-2.1-0.4-3.2-0.7c-0.5-0.1-0.9-0.2-1.2-0.2c-0.3,0-0.5,0.1-0.6,0.2
		c-0.1,0.1-0.1,0.3-0.1,0.5c0,0.4,0.2,1,0.7,2c0.5,0.9,1,1.8,1.7,2.6c0.2,0.3,0.4,0.5,0.6,0.7C315.7,426.1,315.9,426.2,316.1,426.4
		C316.1,426.3,316.1,426.3,316.1,426.4z"/>
	<path class="st0" d="M296.1,2c0.8,1.9,2.9,2.1,5.4,2.3c4.8,0.2,10.2,0.9,14.5,4.4c0.3-1,0.7-2.1,1.4-3.4c0,0-0.1-0.1-0.1-0.1
		c-1-2.2-2.5-3.9-4.6-5.2H296C295.9,0.6,295.9,1.3,296.1,2z"/>
	<path class="st0" d="M307.7,598.1c-3.3-0.9-7.3-1.9-10.1-0.2c-0.8,0.5-1.4,1.2-1.7,2.1h16.7c-1.3-0.8-2.8-1.4-4.5-1.8L307.7,598.1z
		"/>
	<path class="st0" d="M286.7,525.5c0.2-2.4,3.6-2.1,3.4,0.3C290.1,528.2,286.5,527.8,286.7,525.5z M277.3,525.9
		c0.1-2.3,3.5-2.1,3.4,0.2C280.7,528.4,277.2,528.2,277.3,525.9z M287,503.8c-2.4-1.4-5-1.8-7.2-1.1c-5,1.4-7.2,7.4-8.1,11.1
		c0.1,0.3,0,0.7-0.3,0.9l0,0c0,0,0,0,0,0l0,0c-2.2,1.6-4.1,3.5-5.8,5.9c-2.2,3-3.9,6.5-5.2,10.6c-1.2,3.8-1.9,7.6-2.4,11.3
		c-0.1,0.5-0.2,1.1-0.3,1.6c-0.5,3-1.1,6.1-0.3,8.8c0.1,0.5,0.3,1,0.6,1.4c0.6,0.9,1.7,1.8,3.6,1c2.2-0.9,4-3.2,5.7-6.8
		c2.3-5,3.5-10.5,4.6-15.9c0.5-2,0.9-4.2,1.4-6.2c0.1-0.4,0.6-0.7,1-0.6c0.4,0.1,0.7,0.6,0.6,1c-0.5,2-1,4.1-1.4,6.2
		c-1.2,5.4-2.4,11-4.7,16.2c-1.6,3.7-3.5,6-5.7,7.3c0,0.1,0.1,0.2,0.1,0.3c0.5,4.1,2.4,8.6,5.4,12.4c1.4,1.8,2.7,2.6,4.1,2.5
		c0.8,0,1.4-0.3,1.7-0.7c0.3-0.3,0.4-0.7,0.3-1.2c-0.1-1.1-1-2.2-1.7-3.2l-0.1-0.1c-1.7-2.1-2.4-4-2.4-6.6c0-2.4,0-5.1,1.2-7.1
		c1.2-2,2.6-3.9,4.1-5.8c0,0,0,0,0.1-0.1c-0.5-3.4-0.7-6.5-0.7-7.7c0-0.5,0.4-0.8,0.8-0.8c0.5,0,0.8,0.4,0.9,0.8
		c0,1.3,0.2,4.6,0.8,8.1c0.3,2.1,0.7,3.9,1.1,5.4c0.5-0.3,0.9-0.5,1.4-0.7c0.5-0.2,1-0.3,1.6-0.4c1.2-0.2,2.5-0.1,3.6,0.3
		c0.7,0.2,1.3,0.6,1.9,1c0,0,0-0.1,0-0.1l0.1-0.3c1.1-2.7,2.1-5.6,3-9.3c1.6-6.6,2.3-13.5,2.2-20.2c0-0.6,0-1.1,0-1.7
		c0-0.5,0.3-0.8,0.8-0.9c0.5,0,0.9,0.3,0.9,0.8c0,0.5,0,0.9,0,1.4c0,0,0,0,0,0.1c1.9,4.1,3,8.6,3.4,13.3c0.1,1.1,0.2,2.2,0.2,3.2
		c0.2,3.1,0.4,6.4,1.5,9.3c1.3,3.4,3.7,5.7,6.4,6.4c2.8,0.7,5.4-0.7,6.3-3.5c2.4-7.1-1.7-15-4.9-21.3l-0.2-0.4
		c-4.3-8.5-8.9-14.4-14.2-18.5c-0.3-0.2-0.4-0.5-0.3-0.8C291.6,507.8,289.6,505.3,287,503.8z"/>
	<path class="st0" d="M305.1,154.4c0.1-2.3,0.5-3.9,1.7-6.1c1-1.7,1.8-3.6,0.9-5.1c-0.6-0.9-1.3-1.4-2.1-1.3c-1.9,0.2-4.3,2.6-5,4.4
		c-0.3,0.9-0.6,1.9-0.8,2.9c-0.7,2.6-1.4,5.5-4,7.2c1.8,2.4,3.3,5,4.4,7.1c0.3,0.5,0.6,1,0.9,1.5
		C303.7,162.8,304.9,159.5,305.1,154.4z"/>
	<path class="st0" d="M282.1,99.9c0.4,0.4,0.8,0.7,1.1,1.1c1,1,1.8,1.9,3.2,2.1c1.5,0.2,3.5-0.4,4.1-1.7c0.3-0.6,0.3-1.1,0.1-1.5
		c-0.3-0.5-1-0.8-1.8-0.9l-0.4-0.1c-2-0.2-2.7-0.4-3.7-2.7c-1.6-4-4.9-6.5-8.7-6.7c0,0-0.1,0-0.1,0c-2.4,1.6-4.7,3.5-6.7,5.7
		c0.4,1,0.7,2,0.9,3.1C274.4,96.6,279,97.2,282.1,99.9z"/>
	<path class="st0" d="M283.5,137.6c0.5-1,1-2.1,1.6-3.1c1.6-3,3.2-6.1,3.2-9.2c-1.1,1.9-2.5,3.5-3.9,5c-1.4,1.5-2.6,2.9-3.6,4.6
		c-2.6,4.5-3.1,10.2-1.3,15.1c0.1,0,0.2-0.1,0.3-0.1c1-0.3,2.1-0.5,3.1-0.6C279.9,145.7,282.6,139.7,283.5,137.6z"/>
	<path class="st1" d="M284.6,553.4c-0.9-0.3-1.9-0.4-2.8-0.3c-0.4,0.1-0.9,0.2-1.3,0.3c-0.5,0.2-1,0.4-1.4,0.8
		c0.4,1,0.8,1.8,1.2,2.4c0.6,0.5,1.4,1.1,2.2,1.4c0.4,0,0.9-0.1,1.3-0.4l0.1-0.1c0.3-0.2,0.5-0.3,0.7-0.5c0,0,0-0.1,0.1-0.1
		c0.7-0.7,1.2-1.6,1.7-2.6c0,0,0,0-0.1,0C285.8,554,285.3,553.6,284.6,553.4z"/>
	<path class="st0" d="M258.6,270.6c5.8,1.9,12.5-2.3,15.8-7.3c2.6-3.9,3.3-9.5-0.6-12.5c-0.6-0.5-1.2-0.7-1.8-0.6
		c-1.3,0.1-2.5,1.6-3.5,2.8c-0.7,0.9-1.4,1.9-2.1,3c-2.9,4.3-6.7,9.8-12.1,9.5c0.6,0.6,1.2,1.2,1.8,2c0.7,0.9,1.3,1.9,2,3.1
		C258.3,270.5,258.4,270.5,258.6,270.6z"/>
	<path class="st0" d="M262,323.4c2.2,2.3,5.6,4.6,8.3,3.2c1-0.5,1.7-1.7,1.7-2.8c0-0.8-0.4-1.3-1.2-1.6c-0.5-0.2-1.1-0.2-1.8-0.2
		c-1.1,0.1-2.4,0.1-3.5-1.2c-0.9-1.2-1-3.1-0.8-4.5c-2.6-0.6-5.1-1.4-7.4-2.4C258.2,317.2,259.5,320.7,262,323.4z"/>
	<path class="st1" d="M264.9,348c0.6,0.6,1,1.2,1.4,1.9c0.2,0.5,0.6,1.9,1.1,2.4c0-0.1,0.1-0.3,0.1-0.5c0,0,0-0.1,0-0.1
		c0.2-0.7,0.3-1.4,0.4-2c0.2-1.5,0-2.6-0.5-3.5c-0.6-1-1.4-1.4-2.7-1.1c-1,0.2-2.2,0.8-3.6,1.7c0.2,0,0.5,0.1,0.7,0.1
		C263.1,347,264,347.2,264.9,348z"/>
	<path class="st0" d="M243.9,362.3c2.3-0.6,2,2.4,0.3,2.4C242.5,364.7,242.3,362.7,243.9,362.3z M250.6,367.6
		c1.2,0.6,1.1,2.5-0.5,2.7C247.2,370.6,248.5,366.7,250.6,367.6z M236.2,462.8c0.2-0.4,0.7-0.5,1.1-0.3c0.3,0.2,0.8,0.4,1.5,0.7
		c-0.1-0.6-0.1-1.2-0.1-1.6c0-0.5,0.4-0.8,0.8-0.9h0c0.4,0,0.8,0.4,0.8,0.8c0,0.3,0,0.7,0.1,1.1c0.1-0.2,0.3-0.3,0.4-0.5
		c0.2-0.3,0.5-0.6,0.7-0.8c0.3-0.3,0.8-0.4,1.2-0.1c0.3,0.3,0.4,0.8,0.1,1.2c-0.2,0.2-0.4,0.5-0.6,0.8c-0.2,0.3-0.5,0.6-0.8,0.9
		c1.4,0.4,1.9,0.3,1.9,0.3c0.4-0.2,0.9,0.1,1,0.5c0.1,0.4-0.1,0.9-0.5,1c-0.1,0-0.3,0.1-0.8,0.1c-0.4,0-1.1-0.1-2.1-0.4
		c0.1,0.6,0.2,1.2,0.3,1.7l0,0.1c0.1,0.5-0.2,0.9-0.6,1c-0.1,0-0.1,0-0.2,0c-0.4,0-0.7-0.3-0.8-0.7l0-0.1c-0.1-0.4-0.2-1-0.3-1.6
		c-0.8,0.6-1.5,1-2.2,1.1c0,0-0.1,0-0.1,0c-0.4,0-0.8-0.3-0.8-0.7c0-0.5,0.3-0.9,0.8-0.9c0.3,0,0.7-0.2,1.4-0.7
		c-0.7-0.3-1.4-0.6-1.8-0.9C236.1,463.7,235.9,463.2,236.2,462.8z M233.4,368.8c-0.1,0.4-0.6,0.7-1,0.6c-0.6-0.2-1.1-0.3-1.7-0.5
		c-5.4-1.7-10.3-4.9-14.2-9.1c-0.3-0.3-0.6-0.6-0.8-0.9c-1.3-1.5-2.6-2.9-4.4-3.3c-2.3-0.5-4.8,0.7-6.1,2.9
		c-2.9,4.9,1.8,10.3,5.6,12.7c3.5,2.1,8.9,3.2,14.2,2.8c0.2-0.1,0.4-0.1,0.5,0c1.4-0.1,2.7-0.3,4-0.7c0.4-0.1,0.9,0.1,1,0.6
		c0.1,0.5-0.1,0.9-0.6,1c-1.4,0.4-2.8,0.6-4.3,0.7c-5.2,4.8-11,10.2-14.7,16.9c-3.4,6.2-5.2,13.8-5.6,22.5c-0.4,9.4,1,18.6,2.3,25.7
		c1.1,6.5,2.8,13.9,7,20.3c0.4,0.1,0.6,0.4,0.6,0.8c0,0,0,0,0,0.1l0,0l0,0c0,0.1,0,0.1,0,0.2c-0.5,5.4,0.4,10.5,2.4,14.6
		c0.2,0.4,0.4,0.8,0.6,1.1c0.9,1.7,1.8,3.5,1.2,5.7c-0.1,0.3-0.2,0.6-0.3,0.9c-0.5,1.4-0.7,2.3-0.1,3.3c0.4,0.7,1,1,1.8,1
		c1.2,0,2.5-0.8,3.1-1.8c0.7-1.1,0.4-2.2,0.1-3.6c-0.1-0.6-0.3-1.2-0.4-1.8c-0.3-2.3,0.5-4.6,2.2-6c-0.3-0.2-0.4-0.6-0.2-0.9
		c0.2-0.4,0.7-0.6,1.1-0.4c0.3,0.1,0.5,0.2,0.8,0.3c5.8,2.1,12.3,1.8,17.8-0.8c0.2-0.1,0.3-0.1,0.5-0.2c0.4-0.2,0.9-0.1,1.1,0.4
		c0.2,0.3,0.1,0.7-0.2,1c1.2,2,1,4.2,0.7,6.3c-0.2,1.5-0.3,2.8-0.1,4c0.3,1.3,2.6,3.8,4.2,3.9c0.4,0,1-0.1,1.4-1.1
		c0.2-0.4,0-0.7-0.3-1.3c-0.3-0.6-0.6-1.3-0.5-2.3c0.2-1,0.8-1.9,1.4-2.8c0.4-0.6,0.8-1.1,1-1.7c1-2.8,1.5-7.2,0.2-10.2l0,0
		c0,0,0,0,0,0c-0.4-0.3-0.4-0.8-0.1-1.2c4-4.7,3.7-11.9-0.5-16.3c-1.5,2.3-3.4,4.2-5.4,5.7c-0.1,0.1-0.3,0.1-0.5,0.1
		c-0.3,0-0.5-0.1-0.7-0.3c-0.3-0.4-0.2-0.9,0.2-1.2c2.1-1.5,4-3.5,5.4-5.9c0-0.1,0.1-0.3,0.2-0.4c0,0,0,0,0.1,0
		c3.1-5.1,4.9-13.1-0.1-19.1c-0.8-1-1.8-1.7-2.4-1.5c-0.4,0.1-0.8,0.7-0.9,1.2c-0.6,1.8-0.5,3.9-0.4,6c0.1,1.5,0.1,3-0.1,4.4
		c-0.3,2.1-0.8,4.1-1.6,5.7c0,0.1,0,0.1,0,0.2c0,0.1-0.1,0.2-0.2,0.3c-1.6,3.2-4,5.3-7,6c-0.4,0.1-0.9-0.2-1-0.6
		c-0.1-0.4,0.2-0.9,0.6-1c2.9-0.7,4.6-2.8,5.7-4.7c-8.7-7.2-11-19.2-12.4-29.9c-0.1-0.7-0.2-1.3-0.2-2c-0.7-6.8-0.3-13,1.1-18.3
		c1.4-5.1,3.8-9.4,7.2-12.7c-0.8-1.3-1.7-2.6-2.7-3.7c-0.3-0.4-0.3-0.9,0.1-1.2c0.3-0.3,0.9-0.3,1.2,0.1c1.2,1.4,2.4,3,3.3,4.6
		c3.1,5.2,4.5,11.1,3.9,16.4c0,0.4-0.1,0.9-0.2,1.3c-0.4,2.8-0.8,5.9,1.5,7.2c2.2,1.3,5,0.1,6.5-1.6c3.9-4.3,3-12,2.5-15.2
		c-1-5.9-4.5-11-9.2-13.2c-0.8-0.4-1.5-0.6-2.2-0.8c-0.4-0.1-0.7-0.6-0.6-1s0.6-0.7,1-0.6c0.8,0.2,1.7,0.5,2.5,1
		c0.3,0.1,0.5,0.3,0.7,0.4c0.1-0.2,0.2-0.3,0.3-0.4c5.2-3.6,9.7-9.5,13.4-17.4l0.3-0.6c0.8-1.6,1.8-3.8,2.4-6
		c-0.5-0.5-0.9-1.9-1.1-2.4c-0.4-0.8-0.8-1.4-1.4-1.9c-0.9-0.8-1.8-1-3-1.1c-0.2,0-0.5,0-0.7-0.1c-0.2,0.1-0.3,0.2-0.5,0.3
		c-2.2,1.6-4.4,3.6-6,5.1c-0.7,0.7-1.3,1.3-1.8,1.6c-0.3,0.2-0.6,0.5-0.9,0.7c-1.5,1.2-3,2.5-4.7,3.4c-1.4,0.7-2.9,1-4.4,1.3
		c-0.6,0.1-1.2,0.2-1.8,0.4c-3.9,0.9-6.1,3.8-8.2,7c0.2,0.1,0.4,0.1,0.7,0.2C233.3,367.9,233.6,368.4,233.4,368.8z"/>
	<path class="st0" d="M221,524.7c-6.1-0.7-12.2-1.9-18.1-3c-2.2-0.4-4.4-0.8-6.6-1.2c-7.3-1.3-15.8-2.2-23.4,0.7c-0.1,0-0.1,0-0.2,0
		c0,0,0,0-0.1,0c0,0-0.1,0-0.1,0c-0.3,0-0.5-0.1-0.7-0.3c-3.5-4.5-4.7-10.2-3.1-15.9c1.2-4.5,4-8.3,7.8-10.6c-4.7,0.5-9.7,4.1-12,8
		c-3.8,6.4-0.8,14,2.6,21.2c0.1,0.2,0.1,0.5,0,0.7c0,0.2,0,0.3-0.1,0.5c-2.4,4.4-1.8,9.8-1.1,14c0.9,5.3,2.3,10.5,4.1,15.4l0.4,1.2
		c1.2,3.5,2.6,7.5,5.4,9.8c1.3,1.1,3.3,1.4,4.4,0.8c0.7-0.4,0.9-1.3,0.6-2.6c-0.2-0.9-0.9-1.6-1.6-2.4c-0.5-0.5-0.9-1.1-1.3-1.7
		c-1.3-2.1-0.8-4.2-0.3-5.7c0.7-2,1.8-4,3-5.6c0-0.3,0.2-0.5,0.5-0.6c1.3-1.6,2.8-2.8,4.4-3.5c2.7-1.2,6.2-0.8,9-0.4
		c1.2,0.2,2.4,0.4,3.5,0.6c0.6,0.1,1.2,0.2,1.7,0.3c5.3,1,10.6,2.4,14.5,3.5c1.7,0.5,3.4,1,5.1,1.5c7.3,2.2,14.7,4.5,22.3,3.9
		c0.8,0,1.6-0.1,2.3-0.3c0.4-0.1,0.8,0.2,0.9,0.5c0.1,0,0.1,0.1,0.2,0.2c1,1.6,1,3.5,1.1,5.3c0,0.8,0,1.5,0.1,2.1
		c0.3,2.4,0.8,4.6,1.6,6.5c0.9,2.3,2.8,6,6,5.2c0.7-0.2,1.2-0.5,1.4-0.9c0.5-1.1-0.5-3.3-1.3-5c-0.6-1.2-1.1-2.3-1.2-3.3
		c-0.6-3.5,0.4-7.9,3.6-9.6c-0.2-0.3-0.3-0.7-0.4-1.1c-0.8-3.1-0.2-6.5,0.3-9.5c0.1-0.5,0.2-1.1,0.3-1.6c0.6-3.7,1.2-7.6,2.5-11.5
		c1.1-3.3,2.4-6.2,4-8.8c-7.1,3.3-14.7,4.3-22.6,4.3C233.9,526.2,227.5,525.5,221,524.7z"/>
	<path class="st0" d="M219,586.7c-17.9-12.7-43.7-7.4-58.2,5.1c-2.8,2.4-5.3,5.2-7.3,8.2H231C228.1,595.1,224.3,590.4,219,586.7z"/>
	<path class="st0" d="M169.8,35l0.2-0.2c1.2-1.3,2.6-2.5,4-3.6c3.3-2.9,6.6-5.8,8.1-9.8c0.2-0.4,0.6-0.6,1.1-0.5s0.6,0.6,0.5,1.1
		c-1.6,4.4-5.2,7.5-8.6,10.5c-1.4,1.2-2.7,2.3-3.9,3.5l-0.2,0.2c-2.6,2.7-7,7.2-5.4,10.8c0.7,1.6,1.8,2.5,3.1,2.7
		c3.2,0.4,7.3-2.9,9.2-5.2c4.3-5.2,7.9-11.7,10.2-18.8c0.1-0.4,0.6-0.7,1.1-0.5c0.4,0.1,0.7,0.6,0.5,1.1c-2.4,7.3-6.1,14-10.5,19.4
		c-2,2.4-6.2,5.8-9.9,5.8c-0.3,0-0.5,0-0.8-0.1c-1.9-0.3-3.4-1.5-4.4-3.7C162,43,166.9,38,169.8,35z M194.8,21.6
		c2.3,0.3,1.6,4-0.4,3.5C192.4,24.7,192.4,21.4,194.8,21.6z M159.5,49.8c0.3,0.2,0.4,0.5,0.3,0.8c0.1,0.2,0.1,0.5,0.1,0.7
		c-1.8,4.6-3.5,10.1-2.3,15.6c0.5,2.2,1.9,7.4,5.4,7.8c0.8,0.1,1.7,0.1,2.1-0.4c0.7-0.9-0.2-3.3-0.7-4.7l-0.2-0.7
		c-1.5-4.4,1.3-9.5,5-12.3c-0.4-0.1-0.8-0.3-1.2-0.4c-0.4-0.1-0.7-0.6-0.5-1c0.2-0.4,0.6-0.7,1.1-0.5c0.8,0.3,1.7,0.5,2.8,0.8
		c2.4,0.6,4.9,0.9,7.5,0.9c3.5,0.1,7.1-0.3,10.2-1.2c4.7-1.3,12.5-4.9,13.3-14c-2.3-0.3-4.5-0.8-6.6-1.4c-0.4-0.1-0.7-0.6-0.5-1
		c0.1-0.4,0.6-0.7,1-0.5c2.2,0.7,4.6,1.2,7,1.5c3.3,0.3,6.5,0.3,9.6-0.3c3.2-0.5,6.1-1.5,8.6-2.9c1.1-0.6,2.1-1.2,3.1-1.9
		c0,0,0,0,0,0c-0.1-0.1-0.2-0.2-0.3-0.3c-0.1,0-0.3-0.1-0.4-0.2c-1.4-1.4-2.2-3.9-2-5.7c-2.9,0.1-5.7,0.1-8.6-0.4
		c-1.2-0.2-2.3-0.5-3.4-0.8c-5.2-1.4-8.3-3.3-9.2-5.7c-0.3-0.9-0.4-1.8-0.4-2.7c0-0.9-0.1-1.7-0.4-2.4c0-0.1-0.1-0.2-0.1-0.3
		l-0.1-0.1c-0.4-0.9-1.2-1.8-2.1-2.6c-1.9-1.5-4.7-2.4-7.8-2.4c-0.1,0-0.1,0-0.1,0c-8.7,0-11.6,7.3-14.5,14.4
		c-0.2,0.4-0.7,0.6-1.1,0.5c-0.4-0.2-0.6-0.7-0.5-1.1c2.9-7.3,6.2-15.6,16.2-15.4c2.5,0,6,0.5,8.9,2.8c0.9,0.8,1.7,1.6,2.3,2.6
		c0,0,0.1,0,0.1,0c2.9-0.1,5.2,2.6,6.4,4c1.2,1.4,1.8,2.9,2.3,4.3c0.3,0.8,0.7,1.7,1.1,2.6c0,0.1,0,0.1,0.1,0.2
		c0.9,0.2,1.7,0.4,2.6,0.6c3.1,0.6,6.1,0.5,9.3,0.4l1,0c1.8-0.1,5.3-0.2,5.9,2.5c0.9,4.1-6.1,8.1-7.5,8.9c-2.4,1.3-5,2.2-7.9,2.8
		c0,0.1,0.1,0.1,0.1,0.2c0,0.1,0.1,0.1,0.1,0.2c0.2,0.4,0.4,0.8,0.7,1.2c0.5,0.9,0.9,1.7,1.5,2.5l0.2,0.3c0.3,0.4,0.2,0.9-0.2,1.2
		c-0.1,0.1-0.3,0.1-0.4,0.1c-1.4,4.1,0.1,8.5,1.4,11.6c0.2,0.4,0.4,0.8,0.6,1.3c0.5,1,1.1,2.1,1.2,3.3c0.1,1.1-0.4,1.8-0.8,2.3
		c-0.4,0.5-0.6,0.8-0.4,1.3c0.1,0.5,0.4,0.8,0.8,1c0.5,0.3,1.1,0.3,1.8,0.1c1.3-0.4,2.1-1.4,2.7-3.4c0.4-1.5,0.5-3,0.6-4.5
		c0.2-2.4,0.4-4.9,1.8-7.3c-0.6-0.1-1.3-0.2-1.9-0.3c-0.4-0.1-0.7-0.6-0.6-1c0.1-0.4,0.6-0.7,1-0.6c0.9,0.2,1.8,0.4,2.7,0.4
		c2.4,0.1,4.8-0.6,7.2-1.9c0.8-0.4,1.5-0.9,2.2-1.5c0.4-0.3,0.9-0.2,1.2,0.1c0.3,0.4,0.2,0.9-0.1,1.2c-0.6,0.4-1.1,0.8-1.7,1.2
		c2.7,4.4,1.8,9.1,0.7,13.2c-0.5,1.9-0.6,3.1,0.6,3.7c1.2,0.7,2.6,0.1,3.4-0.9c0.9-1.1,0.9-2.3,0.9-3.8c0-0.6,0-1.2,0.1-1.8
		c0.2-1.6,0.8-2.9,1.4-4.1c0.4-0.8,0.7-1.5,1-2.2c1.3-3.9,0.4-8.6-2.2-11.9c0,0,0-0.1-0.1-0.1c-0.2-0.2-0.3-0.6-0.1-0.9
		c1.6-3.9,0.9-8.6,0.4-12.4c-0.4,0.1-0.9,0.1-1.3,0.2l-1.3,0.2c0,0-0.1,0-0.1,0c-0.4,0-0.8-0.3-0.8-0.7c-0.1-0.5,0.2-0.9,0.7-0.9
		l1.4-0.2c0.7-0.1,1.4-0.2,2.1-0.3c5.6-0.9,11.2-2.4,14-7c3.2-5.3,2.2-13.1-2.1-16.8L254.4,3c-1.8-1.6-2.5-1.8-2.7-1.8l0,0
		c0,0,0,0.1,0,0.2c-0.1,0.5,0.5,1.7,0.9,2.6c0.3,0.7,0.6,1.4,0.8,2l0.1,0.4c0.4,1.7,0.8,3.5,0.5,5.3c-0.4,3.4-2.3,6.4-5.2,8.1
		c-2.8,1.7-7.2,2.8-10,1.2l-0.2-0.1c-0.4-0.2-0.5-0.7-0.3-1.1c0,0,0,0,0.1-0.1c-1-5.1-3.1-12.5-7.3-19.6h-77.6
		c-4.7,6.9-7.2,15.3-7,23.6C146.6,34.2,151.3,43.5,159.5,49.8z"/>
	<path class="st0" d="M243.6,215.4c0.2-0.1,0.6-0.3,0.5-1.4c-0.5-5.5-8.9-7.5-14.1-8.7c1.8,2.1,3.5,4.5,5.3,7.2l0.1,0.1
		c0.1,0,0.2,0.1,0.3,0.2C237,214,241.9,216.3,243.6,215.4z"/>
	<path class="st1" d="M236,228.9c0.2,0.1,0.3,0.1,0.4,0.2c0,0,0.1,0,0.1,0c0.9,0.3,1.8,0.4,2.5,0.4c0.2,0,0.4,0,0.6,0
		c1.2-0.2,1.7-0.8,1.6-2.2c0-0.5-0.2-1.1-0.4-1.8c-0.1-0.4-0.2-0.7-0.4-1.1C238.6,224,235.9,226.5,236,228.9z"/>
	<path class="st0" d="M214.2,212.2c0.1-0.4,0.6-0.7,1-0.6c0.8,0.2,1.7,0,2.1-0.5c0.3-0.3,0.2-0.8-0.1-1.4c-0.2-0.4-0.1-0.9,0.3-1.1
		c0.4-0.2,0.9-0.1,1.1,0.3c0.7,1.2,0.6,2.3,0,3.2c-0.6,0.8-1.6,1.2-2.7,1.2c-0.4,0-0.8-0.1-1.1-0.2
		C214.3,213.1,214,212.6,214.2,212.2z M220.9,205.7c0.3-0.3,0.8-0.4,1.2,0c0.5,0.4,1,0.3,1.3,0.2c0.6-0.2,1-0.8,1-1.3
		c0-0.5,0.4-0.8,0.8-0.8c0,0,0,0,0,0c0.5,0,0.8,0.4,0.8,0.8c0,1.2-0.8,2.4-2,2.8c-0.4,0.2-0.8,0.2-1.1,0.2c-0.7,0-1.3-0.3-1.9-0.8
		C220.6,206.5,220.6,206,220.9,205.7z M213.9,213.9c0.5,0.4,1,0.9,1.4,1.2c0.8,0.6,1.6,1.3,2.3,1.9c1.5,1.2,3.1,2.5,4.6,3.7
		c1,0.8,1.9,1.4,2.8,2.1l1,0.7c2.5,1.7,5.5,3.8,8.5,4.9c-0.2-2.7,2.9-5.5,5-5c-1.4-3.5-4.1-7.4-5.3-9.2l-0.5-0.8
		c-2.2-3.4-4.3-6.1-6.5-8.6c-1-1.1-2-2.1-2.9-3c-0.6-0.6-1.2-1.1-1.9-1.7c-1.3-1.2-2.4-2.1-3.5-2.8c-0.7-0.5-1.4-0.9-2.2-1.3
		c-1.3-0.7-2.6-1.5-3.7-2.6c-0.3-0.3-0.3-0.8,0-1.2c0.3-0.3,0.8-0.3,1.2,0c0.9,0.9,2.1,1.6,3.4,2.3c0.8,0.4,1.6,0.9,2.3,1.4
		c1,0.7,2,1.5,3.2,2.5c0.2,0,0.3,0,0.4,0c3,1.3,7.1,1.3,9-1c0.6-0.7,0.8-1.5,0.6-2.3c-0.4-1.6-2.2-3.1-3.9-3.8
		c-6.2-2.8-13.4-2.1-20.3-1.4c-0.9,0.1-1.8,0.2-2.7,0.3c0,0,0,0,0,0c-0.4,0.3-0.9,0.2-1.2-0.1c0,0-0.1-0.1-0.1-0.1
		c-1.3-1.3-4.6-1.6-7.1-1.7c-0.8-0.1-1.4-0.1-2-0.2c-3.9-0.5-7.9-0.6-12.4-0.4c-8.5,0.5-16.1,2-22.6,4.5
		c-11.5,4.4-21.5,13.8-27.2,25.9c-5.3,11.2-5.8,24.1-1.5,39.3c3.4,12.1,12.3,24.1,24,32.1c6.4,4.4,11.5,6.3,15.2,5.6
		c0.5-0.1,1.1-0.3,1.3-0.8c0.2-0.6-0.5-1.7-1.4-2.4c-1.7-1.3-3.6-2.5-5.5-3.6c-1.1-0.7-2.1-1.3-3.2-2c-0.1-0.1-0.2-0.2-0.3-0.3
		c-1.1,0.5-2.3,0.9-3.5,1.1c0,0-0.1,0-0.1,0c-0.4,0-0.8-0.3-0.8-0.7c-0.1-0.5,0.2-0.9,0.7-1c1.3-0.2,2.5-0.7,3.7-1.3
		c1.5-0.8,2.8-1.9,3.9-3.1c0.6-0.8,1.2-1.6,1.6-2.5c0.2-0.4,0.7-0.6,1.1-0.4c0.4,0.2,0.6,0.7,0.4,1.1c-0.3,0.7-0.8,1.4-1.2,2
		c2.1,1.4,4.3,2.7,6.6,3.8l0.7,0.4c2,1.1,5.5,2.8,7.4,2c0.8-0.3,0.9-0.7,0.9-0.8c0.2-1.1-1.7-3.3-3.7-4.8c-1.4-1.1-3-2.2-4.6-3.2
		c-2.6-1.6-5.2-3.3-7.3-5.6c-2.2,2.3-5,3.5-7.8,3.5c-0.7,0-1.4-0.1-2.1-0.2c-0.4-0.1-0.7-0.5-0.6-1c0.1-0.5,0.5-0.7,1-0.6
		c3.2,0.7,6.5-0.6,8.9-3.4c1.1-1.3,1.9-2.7,2.4-4.3c0.8-2.8,1.4-7.6-1.1-9.6c0,3.3-1.5,7.3-4.1,10.1c-2.7,2.9-6,3.9-9.1,2.6
		c-0.4-0.2-0.6-0.6-0.5-1.1c0.2-0.4,0.7-0.6,1.1-0.5c3.1,1.2,5.6-0.5,6.9-1.9c-0.2,0-0.4-0.1-0.6-0.3c-4.2-4.4-4.6-10.9-4.4-17.4
		c0.3-8.6,1.7-15.4,4.5-21.5c2.2-4.9,6.4-11.6,13.3-15.7c3.4-2,7-2.8,10.4-3.5c0.4-0.1,0.9-0.2,1.3-0.3c3-0.6,6.4-1.3,9.5,0.1
		c0.1,0.1,0.2,0.2,0.3,0.3c0.3-1.4,0.7-2.7,1.2-3.8c0.2-0.4,0.7-0.6,1.1-0.4c0.4,0.2,0.6,0.7,0.4,1.1c-0.6,1.3-1,2.6-1.3,4.1
		c-1.3,6.5,0.1,15,6.3,18.2c1.4,0.7,2.6,0.9,3.4,0.4c0.8-0.5,1.2-1.6,1.1-3.1c0-0.6-0.1-1.2-0.3-1.9c-0.6-2.2-1.6-4.2-2.6-6.3
		c-0.9-1.9-1.8-3.8-2.4-5.9c0,0,0-0.1,0-0.1c-0.5-1.7-0.8-3.4-0.8-5c0-0.5,0.4-0.8,0.8-0.9c0.4,0,0.8,0.4,0.9,0.8
		c0,1.2,0.2,2.5,0.6,3.8C208.9,209.4,211.7,211.9,213.9,213.9z"/>
	<path class="st0" d="M93.6,137.6c-0.2,0.2-0.4,0.3-0.7,0.3c-0.2,0-0.4-0.1-0.5-0.2c-0.4-0.3-0.4-0.8-0.2-1.2
		c0.4-0.5,0.3-1.1,0.2-1.5c-0.3-0.8-1.1-1.6-1.9-1.8c-0.4-0.1-0.7-0.6-0.6-1c0.1-0.4,0.6-0.7,1-0.6c1.4,0.3,2.6,1.5,3.1,2.9
		C94.4,135.6,94.3,136.7,93.6,137.6z M131.2,150.9c3.6-1.9,7.7-2.4,11.7-2.9c1-0.1,2-0.3,3-0.4c4.3-0.7,8.7-1,12.9-1.3
		c1.1-0.1,2.2-0.1,3.3-0.2l2.6-0.2c8.3-0.7,16.9-1.3,25.4-0.1c4.9,0.7,9.4,2.5,13.6,4.2c2.7,1.1,5.4,2.2,8.3,3
		c4.5,1.3,8.7,1.7,12.4,1.1l0.2,0c4.1-0.7,5-1.5,5-2.1c0-0.3-0.1-0.5-0.2-0.6c-1-0.9-4.5-0.3-6.3,0.1c-0.9,0.2-1.6,0.3-2,0.3
		c-3.7-0.1-6.9-1.6-10.1-3.1c-0.7-0.3-1.4-0.6-2.1-0.9c-0.2-0.1-0.4-0.3-0.5-0.5c-0.1-0.2-0.1-0.5,0-0.7c2.7-5.3,3.5-13-2.2-18.6
		l-0.1-0.1c-0.6-0.6-1.3-1.1-2-1.7c-2.4-2-5.2-4.4-5.3-8c-0.1-3,1.7-4.1,3.5-5.1c0.2-0.1,0.3-0.2,0.5-0.3c1.1-0.5,1.6-0.8,1.6-1.6
		c0-0.3-0.1-0.5-0.2-0.8c-0.7-1.3-3.5-1.9-4.9-1.6c-4,0.7-7.6,6.4-8.6,8.2c-0.8,1.4-1.1,2.7-0.7,4c0.3,1,0.8,2,1.5,3.2
		c0.4,0.7,0.7,1.3,1.1,2.1c1,2.1-0.1,3.7-1,5.1c-1.1,1.7-1.7,2.8-0.6,4.5c0.3,0.4,0.2,0.9-0.2,1.2c-0.4,0.3-0.9,0.2-1.2-0.2
		c-1.9-2.7-0.6-4.7,0.5-6.3c0.9-1.4,1.4-2.3,0.9-3.5c-0.3-0.7-0.7-1.3-1-2c-0.5-0.9-1-1.8-1.4-2.8c-0.1,0-0.1,0-0.2,0
		c-0.1,0-0.3,0-0.4-0.1c-9.2-4.5-18.4-6.8-27.3-6.9c-10.1-0.1-20.1,2.1-29.8,4.3l-0.2,0.1c-0.6,2,0.1,2.8,0.7,3.3
		c0.4,0.3,0.5,0.8,0.2,1.2c-0.3,0.4-0.8,0.5-1.2,0.2c-1.8-1.3-2.1-3.3-1.1-5.8c0.5-1.4,1.4-2.7,2.1-3.8c0.3-0.5,0.6-0.9,0.8-1.3
		c1-1.7,1.2-3.4,0.5-4.4c-0.7-1.1-2.2-1.1-3.3-1c-2.5,0.3-4.9,1.4-6.7,3.2c-1.4,1.4-2.4,3.2-2.7,5c-0.3,1.9-0.1,3.9,0.6,6
		c0.8,2.5,2.4,5.2,4.8,8.4c0.3,0.4,0.2,0.9-0.2,1.2c-0.2,0.1-0.3,0.2-0.5,0.2c-0.3,0-0.5-0.1-0.7-0.3c-2.3-3-3.8-5.5-4.7-8
		c-1.9,1.4-3.8,2.9-5.7,4.4c-2.7,2.1-5.4,4.4-8.2,6.7c-0.1,0.1-0.2,0.1-0.3,0.1c0,0-0.1,0-0.1,0c-0.1,0-0.1,0-0.2,0c0,0,0,0,0,0
		c-0.1,0-0.1,0-0.2-0.1c0,0-0.1,0-0.1,0c-0.1-0.1-0.2-0.1-0.3-0.2l0,0l0,0c-3.8-4.5-6.3-9.9-8.8-15.1c-1.2-2.6-2.4-5.2-3.8-7.7
		c-0.4,2-1.5,3.9-3.1,5.1c-0.2,0.1-0.3,0.2-0.5,0.2c-0.3,0-0.5-0.1-0.7-0.3c-0.3-0.4-0.2-0.9,0.2-1.2c1.9-1.4,2.9-3.9,2.6-6.2
		c0-0.1,0-0.1,0-0.2c-0.1-0.1-0.2-0.3-0.3-0.4c-2.3-3.6-4.9-7.1-8.5-8.9c-0.4,2.8-2.3,5.3-4.9,6.3c0.1,0.1,0.1,0.2,0.2,0.3
		c0.5,0.7,1,1.5,1.4,2.4c1.1,2.3,2.1,4.8,2.9,7.6c1.6,5.3,2.4,10.8,3.1,15.7c0.2,1.1,0.3,2.2,0.4,3.4c0.4,3.4,0.7,7,2.2,9.8
		c1.5,2.8,4.1,3.2,7.1,3.6c0.6,0.1,1.2,0.2,1.8,0.3c0.2,0,0.5,0.1,0.8,0.1c0.4,0.1,0.6,0.4,0.7,0.8c0.6,0.4,1.2,1,1.7,1.5
		c0.4,0.4,0.8,0.8,1.1,1.1c1.8,1.4,3.8,2.6,5.6,3.7c4.2,2.5,8.5,4.5,12.8,6.1c5.1,1.8,10,2.8,14.7,3c2.8,0.1,6,0,8-1.7
		c0.8-0.6,1.2-1.5,1.3-2.5c0.1-1.4-0.5-2.9-1.6-4c-2.1-2.2-5.4-3.1-8.4-3.7c-0.4-0.1-0.9-0.2-1.3-0.3c-2.5-0.4-5.2-0.6-7.8-0.8
		c-5.3-0.3-10.9-0.6-15.6-3.4c-0.4-0.2-0.5-0.7-0.3-1.1c0.2-0.4,0.7-0.5,1.1-0.3c4.4,2.6,9.7,2.9,14.9,3.1c2.4,0.1,4.9,0.3,7.3,0.7
		C131,151,131.1,150.9,131.2,150.9z"/>
	<path class="st1" d="M225.2,32.9c0.1,0.1,0.1,0.2,0.2,0.2c0.1,0,0.2,0,0.2,0.1c0.2,0.1,0.3,0.2,0.5,0.2c1.5-1.4,2.4-2.8,2.2-4
		c-0.3-1.3-2.8-1.2-4.2-1.2l-0.3,0C223.4,29.4,224,31.7,225.2,32.9z"/>
	<path class="st0" d="M212,224.3c1.9,0.5,3.3,2.6,4.4,4.3c0.2,0.4,0.5,0.7,0.7,1c0.3,0.3,0.5,0.7,0.8,1.1c1.1,1.6,2.4,3.4,4,4.2
		c1.5,0.7,1.9,0.2,2,0c1.6-2.1-1.5-11.1-2.8-12.5c-0.2-0.2-0.2-0.4-0.2-0.6c-1.4-1.1-2.8-2.2-4.1-3.3c-0.8-0.6-1.5-1.3-2.3-1.9
		c-0.5-0.4-1-0.8-1.5-1.3c-1.9-1.7-4.2-3.7-6.5-3.7c0.6,1.6,1.3,3.2,2.1,4.9c1,2.1,2,4.2,2.6,6.5c0.2,0.5,0.2,1.1,0.3,1.5
		C211.6,224.3,211.8,224.2,212,224.3z"/>
	<path class="st0" d="M204.2,120.8c0.5-2.3,2.1-3.4,3.7-4.5l0.5-0.3c2.7-2,2.5-3.1,1.8-4.1c-0.8-1.1-2.9-2-4.1-1.6
		c0.1,0.3,0.1,0.6,0.1,0.9c-0.1,1.8-1.5,2.5-2.6,3c-0.2,0.1-0.3,0.2-0.5,0.2c-1.8,0.9-2.7,1.7-2.6,3.6c0.1,2.4,1.7,4.2,3.6,5.8
		C203.9,122.8,203.9,121.8,204.2,120.8z"/>
	<path class="st1" d="M204.3,258.4c0.8,0.3,1.6,0.3,2.5,0.1c0,0,0,0,0,0c0.9-0.2,1.8-0.7,2.4-1.4c0,0,0,0,0,0
		c0.2-0.2,0.3-0.5,0.5-0.7c0,0,0,0,0,0c0.1-0.1,0.1-0.2,0.2-0.3l0,0c-0.3-0.2-0.6-0.4-0.9-0.6c-1.1-0.7-2.1-1-2.9-0.9
		c-0.7,0-1.2,0.4-1.6,1.2c-0.2,0.6-0.4,1.3-0.4,2.2c0,0.1,0,0.2,0,0.4C204.1,258.4,204.2,258.4,204.3,258.4
		C204.2,258.4,204.3,258.4,204.3,258.4z"/>
	<path class="st0" d="M179.4,68.8c0.7,1.8,2.1,4.3,4.7,5.5c0.3,0.1,2.5,1.1,3.2-0.4c0.3-0.7-0.1-1.7-0.5-2.7c-0.3-0.7-0.6-1.3-0.7-2
		c-0.5-3,0.4-6,1.3-9c0.3-1.1,0.6-2.2,0.9-3.2c-2.7,0.6-5.6,1-8.5,1c0,0-0.1,0-0.1,0c0,0,0,0.1,0,0.1
		C178.1,61.1,178.1,65.4,179.4,68.8z"/>
	<path class="st1" d="M182.2,429c-1.1,2.2-0.6,4.8,0.9,6.6c0.1,0.2,0.3,0.3,0.4,0.4c0.4-0.1,0.9-0.2,1.3-0.4c0.1,0,0.2-0.1,0.2-0.1
		c0,0,0.1,0,0.1-0.1c0,0,0,0,0,0c1-0.5,3.4-2,3.5-4.6v-0.2c0-0.9-0.3-1.7-0.8-2.6c0,0,0,0,0,0c-0.3-0.4-0.6-0.8-0.9-1.2
		C185,426.3,183,427.3,182.2,429z"/>
	<path class="st0" d="M157.1,409c0.2,2.4-3.2,4.3-3.9,1.3C152.3,406.9,156.8,405.3,157.1,409z M163.9,407.6c0.1-2.8,4.2-2.7,4.1,0.1
		C167.9,410.6,163.6,410.5,163.9,407.6z M117.8,435.8c0.3,3.1,1.4,6.7,3.8,7.3c3.1,0.8,7-2.9,11-10.3c0.4-0.8,0.9-1.7,1.3-2.7
		c0.5-1.1,1-2.2,1.5-3.3c2.6-5.7,5.2-11.6,10.6-15.4c0.1-0.1,0.3-0.2,0.4-0.3c0.4-0.3,0.9-0.1,1.2,0.3c0.2,0.3,0.2,0.7-0.1,1
		c1.6,5.8,5.5,11.1,11.3,15.6c1.1,0.8,2.2,1.6,3.3,2.3c3.4,2.2,8.5,5.2,13.8,6.1c2,0.4,3.9,0.4,5.7,0c0.1,0,0.3-0.1,0.4-0.1
		c-0.2-0.1-0.3-0.3-0.5-0.5c-1.7-2.1-2.3-5-1.1-7.5c1-2,3.4-3,5.5-2.6c-0.9-0.9-1.9-1.8-2.9-2.6c-0.7-0.6-1.4-1.1-2-1.7
		c-0.3-0.3-0.6-0.5-0.9-0.8l-0.3-0.3c-2.9-3-5.3-6.2-7.1-9.5c-1.7-3.2-2.5-6.4-3.3-9.7c-0.2-0.7-0.3-1.3-0.5-2
		c0-0.1-0.1-0.3-0.1-0.4c-1.4-5.6-5.7-7-8.1-7.3c-0.6-0.1-1.2-0.1-1.8-0.1c-2.8,0-5.7,0.9-8.2,2.5c-1.5,1-3,2.2-4.3,3.5
		c-0.4,0.4-0.6,1-0.9,1.5c-0.3,0.6-0.6,1.2-1.1,1.8c-0.6,0.7-1.6,1.1-2.5,1.5c-0.4,0.2-0.8,0.4-1.2,0.6c-1.4,0.8-2.9,1.8-4.6,3.1
		c-2.9,2.3-5.6,4.6-7.9,7.1c-3.3,3.5-5.9,7.2-7.8,11.1C118.4,428.3,117.5,432.2,117.8,435.8z"/>
	<path class="st0" d="M176.5,408.2c-1.3-2.4-3.1-4.8-5.4-7.3c0.8,3.2,1.5,6.2,3.1,9.1c1.3,2.4,2.9,4.7,4.8,6.9
		c-0.3-0.9-0.4-1.8-0.6-2.7C177.9,412.1,177.5,410.1,176.5,408.2z"/>
	<path class="st0" d="M147.6,350.5c0-0.4,0.3-0.9,0.8-0.9c0.4,0,0.8,0.3,0.9,0.8c0.1,0.9,0.2,1.9,0.3,3.1c4,1.3,7.7,1.2,12,1l0.4,0
		c2.9-0.1,4.8,1,6.8,2.3c0.4,0.3,0.9,0.6,1.4,0.8c1.4,0.9,2.8,1.2,3.7,0.8c0.6-0.2,0.9-0.7,1.2-1.5c0.9-2.9-1.5-6-4.3-7.4
		c-1.6-0.8-3.4-1-5.3-1.3c-1.6-0.2-3.4-0.5-5-1.1c-2.8-1.1-5.1-3-7.5-6.3c-0.4-0.6-0.9-1.3-1.3-2c-2.7-4-5.8-8.5-10.8-8.2
		c-0.2,0-0.5-0.1-0.6-0.3c-0.2,1.1-0.2,2.2,0.1,3.3c0.1,0.5-0.2,0.9-0.6,1c-0.1,0-0.1,0-0.2,0c-0.4,0-0.7-0.3-0.8-0.6
		c-0.3-1.4-0.3-3,0-4.5c1.1-5,6-9.8,11.1-10.9c3.7-0.8,6.4-0.7,9,0.3c1.1,0.4,1.5,0.3,1.5,0.3c0.2-0.2,0-1.4-1.1-2.8
		c-4.6-5.8-12-5.1-17.4-1.9c-5.3,3.2-9.2,9.2-10.1,15.5c-0.2,1.2-0.2,2.4-0.2,3.5c0,0.5-0.3,0.9-0.8,0.9c-0.5,0-0.8-0.3-0.9-0.8
		c0-1,0-2,0.1-3c-7.6,1.1-14.9,5.5-18.7,11.3c-0.6,0.9-1,1.8-1.6,2.8c-1.2,2.3-2.4,4.7-4.7,6.1c-1.6,0.9-3.3,1.2-5,1.5
		c-1.7,0.3-3.2,0.6-4.6,1.4c-2.7,1.7-5,4.7-3.6,7.6c0.5,1.1,1.6,1.9,2.8,2.3c1.2,0.3,2.5,0.1,3.5-0.6c0.7-0.5,1.1-1.2,1.5-2
		c0.3-0.7,0.7-1.4,1.3-2c1.5-1.7,3.5-1.5,5.3-1.4c3.8,0.2,7.7,0.1,10.5-2.5c0,0,0,0,0.1,0l-0.1-1.1c0-0.5,0.3-0.9,0.8-0.9
		c0.4,0,0.8,0.3,0.9,0.8l0.1,1.8c0.1,2.1,0.3,4.2,0.4,6.4c0.9,16.6,1.9,33.9,9,48.9c2.2-2.3,4.7-4.4,7.4-6.5
		c1.8-1.4,3.3-2.4,4.8-3.3c0.4-0.2,0.9-0.5,1.3-0.7c0.8-0.3,1.5-0.7,2-1.1c0.3-0.4,0.6-0.9,0.8-1.4c0.3-0.6,0.6-1.3,1.2-1.9
		c1.3-1.4,2.9-2.7,4.5-3.8c3-2,6.6-3,9.9-2.8c-6.3-10.8-10.3-22.9-11.8-35.3C147.8,352.8,147.7,351.6,147.6,350.5z"/>
	<path class="st0" d="M160.3,431c1.3,3.8,1.6,8.7-0.1,12.8c0.3,1.3,1.2,2.1,2,2.5c1.6,0.9,3.8,1.2,5.5,0.7c3.8-1.2,6.4-5.4,7.1-9.2
		c-5.2-1.1-10.2-4-13.6-6.1C160.9,431.5,160.6,431.2,160.3,431z"/>
	<path class="st0" d="M157.5,429.1C157.5,429.1,157.5,429,157.5,429.1c-3-2.4-5.5-5-7.5-7.8c-0.1,0-0.2,0-0.3,0
		c-1.7-0.3-3.9,0.4-5.3,1.7c-0.7,0.7-1.5,1.8-1.4,3.2c0.3,2.6,3.8,6.3,6.7,6.2c0.5,0,0.8,0.3,0.9,0.8c0,0.5-0.3,0.9-0.8,0.9
		c-0.1,0-0.2,0-0.2,0c-3.8,0-7.8-4.3-8.1-7.7c-0.2-1.7,0.5-3.3,1.9-4.6c1.5-1.4,3.7-2.2,5.6-2.2c-1.2-2-2.2-4-2.8-6.2
		c-4.5,3.5-6.9,8.9-9.2,14.1c-0.4,0.9-0.8,1.8-1.3,2.7c0.1,0.1,0.1,0.2,0.1,0.3c0.6,5.3,3.5,10.4,7.7,13.8c3.3,2.6,8.1,4.8,11.6,3
		c1.5-0.7,2.6-2,3.4-3.8c0-0.1,0-0.1,0.1-0.2C160.6,438.7,159.6,432.4,157.5,429.1z"/>
	<path class="st0" d="M118.6,115.5c0.3-2,1.2-3.8,2.7-5.4c-0.7-0.6-1.7-0.9-2.7-0.8c-2.4,0.3-4.8,2.3-6,4c-2.3,3.6-0.9,8.9,1,12.4
		c1.8-1.5,3.7-2.9,5.4-4.2c0,0,0,0,0,0C118.5,119.4,118.3,117.4,118.6,115.5z"/>
	<path class="st0" d="M21.3,521.9l0.1,0.2c0.8,2.6,1.5,5.1,3,7.3c0.2,0.3,0.5,0.7,0.8,1c1,1.2,2.2,2.8,1.6,4.5
		c-0.4,1.1-1.1,1.8-1.8,2.6c-0.8,0.8-1.5,1.6-1.6,2.7c-0.1,0.6-0.3,2.6,1.3,3.2c3.2,1,6-3.3,7-5.8c0.7-1.6,1.2-3.4,1.6-5.4
		c0,0,0,0,0,0c0-0.1,0-0.2,0.1-0.3c0.4-1.8,0.6-3.6,0.9-5.4l0-0.2c0.1-0.5,0.5-0.8,0.9-0.7c0.5,0.1,0.8,0.5,0.7,0.9l0,0.2
		c-0.2,1.5-0.5,3.1-0.8,4.7c9.8,0.3,20.1,0.4,30-1c4.4-0.6,9.1-1.6,13.9-3c1.1-0.3,2.2-0.6,3.2-1c3.4-1,6.9-2.1,10.5-2.5
		c-0.6-2.7-0.8-5.7-0.4-8.5c0.1-0.4,0.5-0.8,0.9-0.7c0.5,0.1,0.8,0.5,0.7,0.9c-0.4,3-0.2,6,0.6,8.8c0.3,1.3,0.8,2.5,1.4,3.6
		c1.5,2.8,1.9,3.7,0.1,6.7c-0.2,0.3-0.4,0.6-0.6,1c-0.8,1.2-1.9,2.9-1.7,4c0.1,0.4,0.3,0.7,0.7,0.9c1,0.5,2.7,0.2,3.6-0.2
		c3.1-1.7,4.3-6.5,5.2-10.7c0.4-1.7,0.8-3.4,1.3-4.7c1.4-3.8,3.2-8.2,6-11.5c2.1-2.6,4.6-5.7,6.2-9.5c3.2-7.2,3.7-17.3-2.8-22.7
		c-0.3-0.3-0.4-0.7-0.2-1c0-0.1,0.1-0.3,0.2-0.4c4.6-5.4,4.4-12.7-0.5-18.7c-2-2.4-5.9-5.1-9.6-5.3c-1.6-0.1-2.9,0.3-4.1,1.2
		c4.5,1.8,9.2,4.2,11.4,8.8c1.2,2.5,1.4,5.5,0.5,8c-0.5,1.4-1.3,2.5-2.4,3.4c0.1,0.1,0.1,0.3,0.1,0.5c-0.1,0.4-0.5,0.8-1,0.7
		c-0.3-0.1-0.7-0.1-1-0.1c-4-0.4-7.7,1.2-10.6,2.7c-0.1,0-0.1,0.1-0.2,0.1c-1.5,0.8-3,1.7-4.4,2.5l-1.2,0.7
		c-2.6,1.5-5.1,3.1-7.2,4.5l-0.4,0.3c-2.9,1.8-5.8,3.7-8.8,5.5c-8.4,4.9-19.7,10.7-31.8,11.4c-0.7,0.1-1.4,0.1-2.1,0.1
		c-5,0-9.8-1-13.9-3c-2.7-1.3-4.5-2.5-5.9-4.9c-0.5-0.9-1-1.7-1.5-2.2c0,0,0,0-0.1-0.1l-0.5,0.3c0,0,0.1,0.1,0.1,0.1
		C21.8,504,22.8,513.2,21.3,521.9z"/>
	<path class="st0" d="M116.4,54.3c1.3-1.9,0.4-6.5-1.2-10.2c-2-4.8-4.3-9.7-8-13.2c0.3,1.4,0.5,2.7,0.7,4.1c0.1,0.8,0.2,1.7,0.4,2.5
		c0.8,4.3,1.9,8.5,3.3,12.4c0.7,1.9,1.5,3.6,2.3,5.4C115.1,55.3,115.9,55,116.4,54.3z"/>
	<path class="st0" d="M8.1,7.9c0,0.8,0.1,1.7,0.2,2.6c0.3,2,1.2,3.1,2.6,3.1l0,0c1.6,0,3.5-1.5,3.9-4c0.4-2.7-0.3-5.9-1.9-9.5H5.2
		c0.5,0.6,1,1.3,1.4,1.9C7.9,4,8,6,8.1,7.9z"/>
	<path class="st0" d="M95.2,39.1c0.5-1,2.3-1.3,3-0.4c0.8,1.1-0.2,3-1.6,2.6C95.7,41.1,94.8,40.1,95.2,39.1z M67.9,26.8
		c2.4,3.5,4.8,7.1,7.4,10.5c1.6-2.6,3.5-5,5.5-7c0.3-0.3,0.8-0.3,1.2,0c0.3,0.3,0.3,0.9,0,1.2c-2.1,2.1-4,4.6-5.6,7.3
		c-5.6,9.4-6,18.9-1.1,25.5c1,1.3,3.6,4.3,6.1,3.2c1.6-0.7,1.8-2.9,1.8-5c0-0.1-0.1-0.2-0.1-0.3c-0.1-0.2,0-0.5,0.1-0.7
		c0-0.1,0-0.2,0-0.3c0-0.6,0-1.2,0-1.7c0-1.4,0.1-2.9,0.1-4.4c0-2.7,0.1-5.5,0.3-8.2c0.1-2.3,0.3-5.4,1.8-7.8
		c0.5-0.9,1.2-1.6,1.9-2.1c0.4-0.3,0.9-0.2,1.2,0.2c0.3,0.4,0.2,0.9-0.2,1.2c-0.4,0.3-0.7,0.7-1.1,1.1c0,0,0,0.1,0.1,0.1
		c1.7,4.6,4.1,9,7.2,12.9c1.8,2.3,3.8,4.4,6,6.2l0.3,0.2c1.8,1.6,3.7,2.9,5.5,4c0.8,0.5,1.6,1,2.4,1.4c0.1-0.2,0.3-0.5,0.5-0.8
		c0.6-0.7,1.2-1.2,1.5-1.4c1.4-1,3.3-1.6,3.7-1.7c-0.5-1.3-1.1-2.5-1.7-3.8c-0.9-1.9-1.9-4-2.7-6.1c-1.4-4-2.5-8.3-3.3-12.7
		c-0.2-0.8-0.3-1.7-0.4-2.6c-0.3-2-0.6-4.1-1.2-6c-0.3-1.1-0.8-2-1.3-2.7c-1.4-2.2-3.6-3.8-5.7-4c-0.8-0.1-1.6,0-2.4,0.3
		c-0.4,0.2-0.9,0-1.1-0.5c-0.2-0.4,0.1-0.9,0.5-1.1c0.5-0.2,1-0.3,1.5-0.4c-2-2.9-3.3-6.2-4.6-9.3c-0.3-0.8-0.7-1.6-1-2.4
		c-1.4-3.4-3-6.3-4.8-9.1H44c1.9,1.2,3.8,2.6,5.6,4.2C57,10.7,62.5,18.9,67.9,26.8z"/>
	<path class="st0" d="M115.2,62.3L115.2,62.3c0-0.1,0-0.1-0.1-0.2c-0.1,0-0.2,0-0.3-0.1C115,62.1,115.1,62.2,115.2,62.3z"/>
	<path class="st0" d="M43.5,567.3c-10.7-2.6-31.6-4-42.2,7.2c-0.5,0.5-0.9,1-1.3,1.5v16.9c0.4,0.9,0.9,1.7,1.4,2.5
		c0.7,1.1,1.6,2,2.5,3.1c0.4,0.5,0.9,1,1.3,1.5h7.7c-0.4-0.9-0.9-1.9-1.4-2.9c-0.1-0.2-0.1-0.4-0.1-0.7c0.1-0.2,0.2-0.4,0.4-0.5
		c2.2-1,4.5-1.7,6.9-2.1c0.1,0,0.3-0.1,0.4-0.1c2.8-0.4,5.7-0.5,8.6-0.1c5.5,0.7,11.1,2.9,16.3,6.3h42.2c-0.7-1.1-1.5-2.2-2.3-3.2
		C70.7,580,58.2,570.9,43.5,567.3z"/>
	<path class="st1" d="M111.3,62.8c-0.4,0.3-0.6,0.5-0.6,0.5c-0.2,0.3-0.3,0.5-0.7,0.8c-0.1,0.1-0.2,0.2-0.3,0.3
		c0.3,0.2,0.6,0.5,1.1,0.7c0.2,0.1,2.8,1.1,4.1-0.2c0.7-0.7,0.6-1.8,0.3-2.7c0,0-0.1-0.1-0.1-0.1c-0.2-0.3-0.3-0.6-0.3-0.7
		C113.1,61.9,111.8,62.4,111.3,62.8z"/>
	<path class="st0" d="M71.2,191.5c-1.3-0.2-1.5-1.5-0.7-2.4C72.7,187.1,73.8,191.9,71.2,191.5z M7.5,212.6c2.3,2.9,4.3,7.2,3,10.7
		c-0.3,0.9-0.7,1.8-1.1,2.6c-1.2,2.6-2,4.4-0.6,7.4c0.2,0.3,0.1,0.8-0.2,1c0,0,0,0.1,0,0.1c-1.8,3.3-2.4,6.8-1.7,10.2
		c0.2,0.8,0.4,1.6,0.7,2.4c0.7,2.4,1.6,5.1,0.5,7.5c-0.4,0.9-1,1.7-1.6,2.4c-0.9,1.1-1.7,2.1-1.5,3.6c0.1,1,1.2,2.8,2.3,3.3
		c0.5,0.2,0.9,0.2,1.3-0.2c0.5-0.4,0.6-1.3,0.6-2.4c0.1-0.9,0.1-1.9,0.5-2.6c1-2,3-2.4,4.8-2.7c0.7-0.1,1.4-0.3,2-0.5
		c1.4-0.6,2.6-1.6,3.5-3c1.6-2.8,1.5-6.6-0.2-9.4c-0.2-0.4-0.1-0.9,0.3-1.1c0.4-0.2,0.9-0.1,1.1,0.3c1.9,3.1,2.1,7.2,0.6,10.5
		c0.1,0,0.1,0,0.2,0.1c16.1,13.6,39.3,19.1,57.7,13.7c8.4-2.5,19.3-8.3,23.6-22.2c0.5-1.5,0.8-3.1,1.1-4.7c0.1-0.5,0.5-0.8,1-0.7
		c0.4,0.1,0.8,0.5,0.7,1c-0.3,1.5-0.6,2.9-1,4.4c0.1,0.1,0.1,0.3,0.1,0.5c-0.3,1.3-0.1,3.3,0.7,4.5c0.4,0.6,0.9,0.9,1.5,1
		c0.9,0.2,1.6-0.1,2.2-0.7c0.9-1,1.3-2.7,0.9-4.1c-0.2-0.6-0.6-1.1-1-1.7c-0.5-0.6-1-1.3-1.3-2.2c-0.4-1.2-0.2-2.5,0-3.7
		c0.1-0.6,0.2-1.1,0.2-1.6c0.1-4.3-1.4-8.7-3-12.8c-0.2-0.1-0.3-0.3-0.3-0.5c-1.2-5.6-4.2-11-8.6-15.5c-0.9-0.9-1.9-1.9-2.8-2.8
		c-3.1-3-6.3-6.1-8.1-10.2c-0.2-0.2-0.3-0.3-0.5-0.5c-0.3-0.4-0.2-0.9,0.1-1.2c0.2-0.1,0.4-0.2,0.6-0.2c0.4-0.1,0.8,0.1,1,0.5
		c0,0.1,0.1,0.3,0.2,0.4c4.1,3.9,13.1,1.6,17.8-1.4c3-2,5.5-4.8,7-7.9c1.2-2.6,1.7-4.7,1.2-5.9c-0.2-0.5-0.5-0.8-1-0.9
		c-2.3-0.8-5.2,1.8-7.3,3.8c-0.6,0.5-1.1,1-1.6,1.4c-3.7,3-7.4,5-11.1,5.7c-3.7,0.8-6.5-0.2-9.5-1.3c-0.9-0.3-1.9-0.7-3-1
		c-4.2-1.2-7.7-0.6-12.2,0.9c-6.6,2.2-14.1,0.9-20.2-0.8c-0.6,1.4-2,2.5-3.5,2.8c1.8,2.1,4.4,3.3,6.6,4c4.2,1.4,8.8,2.6,14.6,3.8
		c0.1,0,0.3,0,0.4,0.1l1,0.2c0.3,0.1,2.3,0.5,2.5,0.5l1,0.2c0.3,0.1,0.6,0.3,0.6,0.6c0.1,0.3,0,0.6-0.3,0.8
		c-4.3,3.5-8.4,5.9-12.5,7.4c-0.1,0-0.3,0.1-0.5,0.2c-1.2,0.4-3.5,1.3-5.3,1.6c2.7,1.7,6.8,0.6,10-0.2c2.5-0.7,5-1.5,7.4-2.3l1-0.4
		c1.5-0.5,4-1.3,5.6,0c0.1-3.1-0.2-5.6-0.9-7.9c-0.1-0.4,0.1-0.9,0.6-1c0.4-0.1,0.9,0.1,1,0.6c0.8,2.8,1.1,5.9,0.9,9.7
		c-0.1,2.2-0.4,4.4-0.6,6.6c-0.1,1.1-0.2,2.1-0.3,3.2c-0.2,1.9-0.3,3.6-0.3,5.1c0,0.8,0,2.5,0.4,4.2c0.3,1.5,0.7,2.8,1.2,3.8
		c1.1,2,2.5,2.8,4.5,2.5c2.6-0.4,3-4.3,3.1-7.2c0.1-5.1-0.9-10.1-1.9-14.9l-0.1-0.2c-0.8-3.9-1.7-7.9-3.2-11.6
		c-0.2-0.4,0-0.9,0.4-1.1c0.4-0.2,0.9,0,1.1,0.4c1.6,3.8,2.5,7.9,3.3,11.9l0.1,0.2c1.1,4.8,2,10,2,15.3c0,2.2-0.1,8.1-4.4,8.8
		c-0.4,0.1-0.8,0.1-1.1,0.1c-1.8,0-3.2-0.8-4.3-2.2c-0.8,4-5.4,6.8-8.3,7.8c-2.1,0.8-4.3,1.2-6.4,1.2c-2.3,0-4.5-0.4-6.5-1.3
		c-6-2.6-11.4-5.5-16.2-8.5c-1.9-1.2-3.4-2.7-4.9-4.2c-1.1-1.1-2.2-2.2-3.4-3.1c-3.1-2.4-6.9-3-10.8-3.4c-1.5-0.2-2.1-0.4-2.2-1.9
		c0-0.2,0-0.3,0-0.6c-0.1-0.8-0.2-1.7-0.4-2.5c-0.4-1.4-1.2-2.7-2.6-4.1c-2.6-2.7-6.6-4.4-10.7-4.8c-1.4-0.1-2.9-0.1-4.5,0.1v2.4
		C2.8,208.7,5.4,210.1,7.5,212.6z"/>
	<path class="st0" d="M102.1,67.3c0.5,0.4,1.6,1.1,2.3,0.4c0.5-0.4,0.5-1.1,0.4-2.2c0-0.5-0.1-1.1,0-1.7c-1.4-0.9-2.8-2-4.2-3.1
		C100,63.8,100.5,66.1,102.1,67.3z"/>
	<path class="st0" d="M85,55.1c0,1.5-0.1,2.9-0.1,4.4c0,0.5,0,1,0,1.6c0,0.3,0,0.6,0,0.9c0.3,0.6,1,1,1.6,1.3
		c0.6,0.3,1.2,0.7,1.7,1.2c1,1,1.3,2.2,1.5,3.3c0.1,0.3,0.1,0.6,0.2,0.9c0.3,1.3,1.2,2.8,2.2,3.1c0.6,0.2,1.2,0,1.8-0.5
		c1.9-1.4,0.8-3.9-0.5-6.7l-0.7-1.4c-1.6-3.2-3.3-6.5-3.5-10.1c-0.3-0.1-0.6-0.2-0.9-0.4c-0.4-0.2-0.6-0.7-0.4-1.1
		c0.2-0.4,0.7-0.6,1.1-0.4c0.5,0.2,1,0.4,1.4,0.5c0.8,0.3,1.5,0.4,2.1,0.4c-2.6-3.4-4.6-7.1-6.2-11.1c-0.7,1.9-0.9,4.1-1,5.8
		C85.1,49.7,85,52.4,85,55.1z"/>
	<path class="st1" d="M92.1,412c-0.1-0.5-0.4-0.8-0.9-1c0,0-0.1,0-0.1,0c-0.3-0.1-0.8-0.2-1.3-0.2c-0.8,0-1.6,0.1-2.3,0.2
		c-0.2,0-0.4,0.1-0.6,0.1c-0.2,1.4,1.4,2.9,2.1,3.9c0.3,0.7,0.6,1,1,1c0.3-0.2,0.5-0.5,0.7-0.8C91.8,414.2,92.3,412.9,92.1,412z"/>
	<path class="st0" d="M58.7,407.4c2.7,1.2,0.2,5.1-1.9,3.6C54.4,409.7,56.4,406.4,58.7,407.4z M25,451.6c0.1-0.3,0.4-0.5,0.8-0.4
		c0.3,0,0.6,0.1,1,0.1c4.5,0.9,6.6,5.5,7.7,9.2c0,0.2,0.1,0.4,0.2,0.7c0.3,0.8,0.5,1.8,0.5,2.7c0,0.9-0.4,1.6-0.7,2.3
		c-0.2,0.4-0.4,0.8-0.5,1.2c-0.2,0.8,0,1.6,0.5,2.2c0.5,0.6,1.3,1,2.1,1.1c3.6,0.3,5.2-4.3,5.6-6.8c0.7-4.3-1.2-9.1-5.2-13.1
		c-0.1-0.1-0.3-0.3-0.4-0.4c-0.3-0.3-0.3-0.8,0-1.2c0.3-0.3,0.7-0.3,1-0.1c0,0,0,0,0,0c2.1-0.9,4-2,5.9-3.4c2.6-1.8,5-4,7.3-6.8
		c2.6-3,5-6.6,7.5-11.2c0.7-1.2,1.4-2,2.3-2.6c-2.5-0.7-4.6-2.6-5.4-5c-0.1-0.4,0.1-0.9,0.5-1.1c0.4-0.1,0.9,0.1,1,0.5
		c0.8,2.4,3.2,4.1,5.7,4.2c0.2,0,0.4,0.1,0.5,0.2c1.4-0.4,2.9-0.6,4.4-0.8c0.4,0,0.8-0.1,1.3-0.1l1-0.1c4.4-0.5,9-1,13.3-2.6
		c2-0.8,4.9-2.2,7.1-4.3c-0.4,0-0.8-0.3-1-1c-0.6-1-2.2-2.5-2.1-3.9c-0.3,0-0.5,0.1-0.8,0.1c-1,0.2-2.1,0.4-3.1,0.5
		c-2.3,0.1-4.5-0.1-6.7-0.6c-4.1-0.9-8-3-11.7-6.1c-0.6-0.5-1.1-1-1.7-1.5c-2.5-2.2-5-4.5-8.2-5.4c-3-0.8-6.8,0-8.2,2.9
		c-0.1,0.2-0.2,0.3-0.3,0.4c0,0,0,0-0.1,0.1c-5.9,3.8-11.5,7.5-15.5,12.7c-0.6,0.7-1.1,1.4-1.6,2.2c-1.2,1.8-6.7,11-1.1,16
		c2.2,2,5.3,2,7.7,0c2.3-1.8,3.3-4.8,4.3-7.6l0.1-0.2c0.6-1.7,1.2-3.4,1.8-5.2c0.8-2.1,1.5-4.3,2.3-6.4l0.2-0.6
		c1-2.8,2.3-6.4,5.6-7.5c0.4-0.1,0.9,0.1,1,0.5c0.1,0.4-0.1,0.9-0.5,1.1c-2.6,0.9-3.7,3.9-4.6,6.5l-0.2,0.6
		c-0.8,2.1-1.5,4.3-2.3,6.4c-0.6,1.7-1.2,3.4-1.8,5.2l-0.1,0.2c-1,2.9-2.2,6.2-4.8,8.3c-1.5,1.2-3.3,1.9-5,1.9
		c-1.8,0-3.5-0.6-4.9-1.9c-5.1-4.6-3-12.4,0.8-18.1c0.2-0.3,0.3-0.5,0.5-0.8c-6.2,2.4-12.5,3.6-18.4,3.6c-3.5,0-6.8-0.4-10-1.3v31.8
		C8.1,451.3,16.6,452.3,25,451.6z"/>
	<g>
		<path class="st4" d="M542.5,463c-0.3-0.4-0.7-0.9-1.1-1.5c-0.9-1.2-2-2.6-2.4-3.9c0-0.2-0.1-0.3-0.1-0.4c-0.1-0.4-0.1-0.6,0-0.9
			c0-0.1,0.1-0.2,0.2-0.5c0.1-0.4,0.2-0.8,0.3-1.1c0.3-1,0.5-1.6,0.2-2.6c-0.5-1.5-1.5-2.3-2.7-2.1c-1.4,0.2-2.8,1.7-2.8,3.8
			c0,0.3-0.2,0.6-0.4,0.8c-0.3,0.2-0.6,0.2-0.9,0c-1.4-0.7-3.3-0.5-4.5,0.5c-0.6,0.5-1.5,1.5-1,3.3c0.3,1.1,2.3,2.2,4.1,2.3
			c0.7,0,1.7-0.1,2-0.9c0.1-0.3,0.4-0.5,0.8-0.6c0,0,0,0,0.1,0c0.3,0,0.6,0.2,0.8,0.5c2.1,3.9,4.9,8.8,8.6,12.8
			c0.2,0.2,0.3,0.4,0.2,0.7c0,0.2-0.2,0.5-0.4,0.6c-1.4,1-2.4,2.9-2.3,4.4c0.1,1,0.6,1.8,1.5,2.4c1.4,0.8,3.1,0.1,4.2-0.8
			c0.5-0.5,1.3-1.6,0.7-3c-0.2-0.3-0.1-0.7,0.1-1c0.3-0.3,0.6-0.4,1-0.2c2.3,0.9,3.9-0.1,4.4-1.4c0.5-1.3,0.1-3.2-2-4.1
			c-0.5-0.2-0.8-0.1-1.4,0c-0.5,0.1-1,0.2-1.7,0.1c-1-0.2-1.2-0.3-1.7-1.2l-0.2-0.3c-1-1.7-2.2-3.4-3.3-5.1L542.5,463z"/>
		<path class="st4" d="M448.3,6.4c0.2,0.2,0.3,0.6,0.2,0.8c-0.1,0.3-0.4,0.5-0.6,0.6c-1.5,0.3-2.8,1.4-3.2,2.8
			c-0.4,1.2,0,2.3,0.9,3.2c0.8,0.8,3.2,0.7,4.8-0.3c0.6-0.4,1.5-1.1,1.2-2.1c-0.1-0.3,0-0.7,0.2-0.9c0.2-0.2,0.4-0.2,0.6-0.2
			c0.1,0,0.2,0,0.3,0.1c4,1.7,9.3,3.8,14.7,4.6c0.3,0,0.5,0.2,0.6,0.4c0.1,0.2,0.2,0.5,0.1,0.7c-0.5,1.8-1,4.8,0.8,5.4
			c1.7,0.6,5-1.1,5.7-3.1c0.2-0.4,0.6-1.6-1.5-2.6c-0.3-0.2-0.5-0.5-0.5-0.8c0-0.4,0.3-0.7,0.6-0.8c2.1-0.7,2.9-2.4,2.7-3.7
			c-0.2-1.1-1.2-2.4-3.4-2.3c-1,0-1.5,0.3-2.4,1.2c-0.1,0.2-0.3,0.3-0.4,0.4c-0.3,0.4-0.7,0.9-1.7,0.9c-1.2,0-2.7-0.6-4-1.2
			c-0.6-0.3-1.1-0.5-1.6-0.6c-0.9-0.3-1.7-0.6-2.6-0.8c-1.2-0.4-2.5-0.8-3.7-1.2c-0.1,0-0.3-0.1-0.4-0.1c-0.5-0.1-1.1-0.3-1.5-0.6
			c-0.6-0.5-0.8-1.3-0.9-1.9c-0.1-0.3-0.1-0.7-0.3-0.9c-0.7-1.4-1.8-2.2-3-2.2c-1.1,0-2.1,0.7-2.6,1.6C447,3.8,447.3,5.1,448.3,6.4z
			"/>
		<path class="st4" d="M133.7,571.6c-0.3-0.1-0.6-0.5-0.6-0.8s0.2-0.7,0.6-0.8c2.2-0.8,2.8-2.5,2.4-3.9c-0.3-1.2-1.5-2.4-3.8-2
			c-0.7,0.1-1.2,0.7-1.8,1.2c-0.6,0.6-1.3,1.4-2.3,1.5c-1.2,0.1-2.7-0.5-4-0.9c-0.6-0.2-1.1-0.4-1.6-0.5c-0.8-0.2-1.7-0.4-2.5-0.6
			c-1.2-0.3-2.4-0.6-3.6-0.9l-0.6-0.1c-1.7-0.4-1.9-0.6-2.6-2.4l-0.1-0.3c-0.8-2.1-2.3-2.5-3.1-2.5c-1.2,0-2.4,0.7-2.8,1.7
			c-0.5,1.1-0.1,2.4,1.1,3.6c0.2,0.2,0.3,0.5,0.2,0.8c-0.1,0.3-0.3,0.5-0.6,0.6c-1.5,0.4-2.7,1.6-3,3c-0.3,1.2,0.1,2.3,1.1,3.2
			c0.9,0.8,3.2,0.5,4.7-0.6c0.6-0.4,1.4-1.2,1.1-2.2c-0.1-0.3-0.1-0.7,0.2-0.9c0.2-0.2,0.4-0.3,0.6-0.3c0.1,0,0.2,0,0.3,0
			c4.4,1.6,9.6,3.2,15,3.7c0.2,0,0.5,0.2,0.6,0.3c0.1,0.2,0.2,0.5,0.2,0.7c-0.3,1.7,0.1,3.6,1.1,4.7c0.7,0.7,1.6,1,2.6,0.9
			c1.6-0.2,2.6-1.8,2.8-3.3C135.3,573.7,135.3,572.2,133.7,571.6z"/>
		<path class="st4" d="M89.4,302.7c-0.2-0.2-0.3-0.5-0.2-0.8c0.1-0.3,0.3-0.5,0.6-0.6c1.7-0.5,3-2.1,3.2-3.9c0.1-0.8,0-2.3-1.8-3.3
			c-1.1-0.6-3.6,0.1-5,1.4c-0.6,0.5-1.2,1.4-0.8,2.3c0.1,0.3,0.1,0.7-0.1,0.9c-0.2,0.3-0.6,0.4-0.9,0.3c-4.8-1.5-10.6-3-16.4-3.3
			c-0.3,0-0.5-0.1-0.6-0.3c-0.2-0.2-0.2-0.5-0.2-0.7c0.3-1.9-0.4-4.1-1.7-5.2c-0.9-0.8-1.9-0.9-3.1-0.6c-1.6,0.5-2.5,2.3-2.5,3.9
			c0,0.7,0.1,2.3,1.8,2.8c0.3,0.1,0.6,0.4,0.6,0.8c0,0.4-0.2,0.7-0.5,0.8c-1.6,0.7-2.5,1.8-2.6,3c-0.1,1.2,0.5,2.4,1.6,3.1
			c1.1,0.7,2.4,0.7,3.8,0c0.4-0.2,0.6-0.6,0.9-1c0.3-0.5,0.6-1,1.2-1.4c0.5-0.3,0.8-0.4,1.2-0.4c0.3,0,0.6,0.1,0.9,0.2l0.3,0.1
			c2.1,0.5,4.4,1,6.5,1.4l0.5,0.1c0.6,0.1,1.3,0.2,2,0.3c1.6,0.2,3.3,0.4,4.6,1.1c0.2,0.1,0.3,0.1,0.4,0.2c0.7,0.3,0.8,0.5,1,1.2
			c0.1,0.2,0.1,0.4,0.2,0.6c0.5,1.3,1.5,2.4,2.6,2.8c1.6,0.6,2.8,0.4,3.5-0.7C91.1,306.6,91,304.2,89.4,302.7z"/>
	</g>
	<path class="st0" d="M82.8,468.7c-0.2-0.4-0.3-0.8-0.5-1.3c-1.4-3.8-3.1-7.7-5.6-6.8c-2.1,0.7-2.7,3.3-2.2,5.4
		c0.6,2.6,2.1,4.1,3.9,5.9c0.2,0.3,0.5,0.5,0.7,0.7c2.1,2.2,2.4,5.1,2.6,8c0.2,2.4,0.4,4.7,1.7,6.4c2-1.3,4.3-2.7,6.6-4.1l1.2-0.7
		c0.9-0.6,1.9-1.1,2.9-1.7C89.3,478.4,85,474,82.8,468.7z"/>
	<path class="st1" d="M75.9,99.8C75.8,99.8,75.8,99.9,75.9,99.8c-0.2,0.2-0.3,0.3-0.3,0.4c0,0,0,0.1-0.1,0.1c-0.6,0.8-0.6,1.9-0.1,3
		c0.2,0.4,0.3,0.7,0.5,1c0.1,0,0.1,0,0.2,0c2.2-0.9,3.9-3.1,4.1-5.5C78.6,98.6,76.9,98.9,75.9,99.8z"/>
	<path class="st0" d="M69,224.3c0.4,1.5,1.9,3,3.1,3c0.7,0,1.2-0.5,1.6-1.5c0.1-0.4,0.5-0.6,0.9-0.6c-0.2-1.5-0.3-2.9-0.3-3.8
		c0-1.3,0.1-2.8,0.2-4.4C71.6,218,68.1,220.7,69,224.3z"/>
	<path class="st0" d="M47.2,446c1.1-0.1,2.2-0.2,3.4,0.1c2.1,0.6,3.5,2,4.4,4.3l0.1,0.2c0.6,1.6,1.3,3.4,2.5,3.8
		c0.6,0.2,1.4,0,2.3-0.5c3-1.7,1.3-6.2,0.8-7.5c-1.7-3.8-5-6-8.6-5.7c-0.2,0-0.4,0-0.6-0.2c-1.8,2.1-3.8,3.9-5.8,5.5
		C46.2,446.1,46.7,446,47.2,446z"/>
	<path class="st0" d="M5.3,287c-0.3-1.1-0.8-1.9-1.7-2.5c-1-0.6-2.3-0.9-3.6-0.9v11C3.2,293.5,6.3,291.2,5.3,287z"/>
	<path class="st0" d="M16.5,355.9c0.4,0.2,0.6,0.6,0.5,1.1c0,0.1,0,0.2,0,0.4c-1.8,8.1,1.1,19.3,8.9,23c0.4,0.2,3.8,1.8,5,0
		c0.8-1.3-0.2-3.3-1.1-4.8c-0.5-0.8-1.3-1.7-2.1-2.6c-2.3-2.7-4.9-5.7-3.5-9.6c0.1-0.2,0.2-0.4,0.4-0.5c0,0,0,0,0,0
		c0.1-0.5,0.6-0.7,1-0.6c3.8,0.9,8,0.3,11.5-1.8c0.9-0.5,1.8-1.2,2.6-1.9c0.3-0.3,0.9-0.3,1.2,0c0.3,0.3,0.3,0.9,0,1.2
		c-0.7,0.7-1.5,1.3-2.4,1.8c0.4,2.1,1.4,5.6,4.3,7.7c1.4,1,4.3,2.5,6,1.2c1.4-1,1.1-2.8-1-5.8c-0.3-0.5-0.7-1-1.1-1.5
		c-1.7-2.3-3.4-4.8-4.2-7.7c0-0.1,0-0.1,0-0.2c-1.5,0.4-3,0.6-4.6,0.6c-2,0-4.1-0.3-6.1-0.9c-0.4-0.1-0.7-0.6-0.6-1
		c0.1-0.4,0.6-0.7,1-0.6c3.5,1.1,7.3,1.1,10.5,0.1c2.5-0.7,4.5-2,6-3.8c2.2-2.6,3.1-6.1,2.4-9.1c-0.3-1.5-1.5-4.2-3.6-4.6
		c0.1,4.1-0.4,8.8-4,11.5c-0.8,0.6-1.8,1.2-2.9,1.6c-3.5,1.3-8.4,1.3-11.4-1.5c-0.3-0.3-0.4-0.8,0-1.2c0.3-0.3,0.8-0.4,1.2,0
		c2.3,2.1,6.1,2.2,8.9,1.4c-4.8-12.6-9.8-22.3-15.6-30.3c-8.2-11.2-16-17.9-23.7-20.4v41.7c0.7,0.9,1.3,1.9,2,2.8
		C6.1,347.4,10.2,353.3,16.5,355.9z"/>
	<path class="st0" d="M3.9,158.6c0.1,0.3,0.1,0.5,0.2,0.8l0.2,0.8c0.6,2.4,1.2,4.8,2.7,6.4c0.9,0.9,2,1.4,3.3,1.4
		c1.4,0,2.9-0.7,3.9-1.8c1.7-1.9,2.3-4.4,1.6-7.5c-0.6-3.1-2.3-6.1-3.6-8.1c-1.9-3-6.6-9.4-12.3-10.7v8.4c2,3.1,3,6.9,3.9,10.3
		L3.9,158.6z"/>
	<path class="st0" d="M13.7,149.7c1.2,1.9,2.8,4.7,3.6,7.7c1.4-1.1,2.7-2.4,3.9-3.7c0.2-0.2,0.4-0.3,0.6-0.3
		c0.3-0.1,0.7-0.1,0.9,0.1c2.9,2.7,6.9,4.2,11.4,4.4c1.9,0.1,6.5-0.1,7.6-3.2c0.5-1.4,0.1-3.3-1.4-3.9c-1.3-0.6-2.4,0.3-3.7,1.6
		c-0.1,0.1-0.2,0.2-0.3,0.3c-0.5,0.5-1.1,1.2-2.2,1c-0.9-0.2-1.8-1.1-2.7-2.1l-0.2-0.3c-1.9-1.9-3.2-4.4-3.7-6.9c0-0.1,0-0.1,0-0.2
		c-0.1-0.2-0.1-0.5-0.1-0.7c3.8-9.1,4.1-19.4,4.4-29.4L32,112c0.4-13,0.2-23.7-0.8-33.8c0-0.3,0.1-0.5,0.2-0.6c0,0,0-0.1,0.1-0.1
		c0.3-0.3,0.8-0.4,1.2-0.1c1.5,1.3,3.4,1.8,5.9,1.8c2.4-0.1,3.1,0.1,5.1,1.5c0.8,0.5,1.9,1,2.9,0.3c1.1-0.8,1.5-2.7,1-4.4
		c-1.2-3.5-5.1-5.3-8.5-6.8c-3.1-1.4-6.1-2.8-8.5-5c0.4,1.4,0.8,2.7,1,4c0.1,0.5-0.2,0.9-0.6,1c-0.1,0-0.1,0-0.2,0
		c-0.4,0-0.7-0.3-0.8-0.7c-0.4-2.2-1.1-4.5-2-6.7c-1.9-4.8-7.5-15.8-18.3-13.4c-0.4,0.1-0.9-0.2-1-0.6c0-0.1,0-0.3,0-0.4
		c-0.1-0.1-0.1-0.2-0.1-0.3C8.1,42.3,6,34.9,0.2,30.4c-0.1-0.1-0.2-0.1-0.2-0.2v8.5c3.3,3.2,5.7,7.5,4.6,12.1
		c0.1,0.3,0.1,0.5-0.1,0.8c-2.8,3.7-2.1,8.7-1.3,12.6c0.3,1.5,0.7,3,1.1,4.5L4.6,70l0,0l0,0l0,0c0,0,0,0,0,0l0,0
		c0.1,0.3,0.1,0.5,0.2,0.7v0C5.4,73,6,75.6,6.4,78.3c0.1,0.5-0.3,0.9-0.7,0.9c0,0-0.1,0-0.1,0c-0.4,0-0.8-0.3-0.8-0.7
		c-0.1-1.1-0.3-2.1-0.5-3.2c-0.9,1.9-2.5,3.5-4.2,5V86c1.2-0.6,2.7-0.5,4-0.4c0.5,0,1,0.1,1.4,0c0-0.7-0.1-1.4-0.1-2.2
		c0-0.4,0.3-0.8,0.8-0.9c0.4,0,0.9,0.3,0.9,0.8c0.1,1,0.2,2,0.2,3.1c0.6,10.7-0.6,21.3-3.6,31.6l-0.4,1.4c-0.8,3-1.8,6.4-3.1,9.5
		v9.2C6.2,139.4,11.1,145.7,13.7,149.7z"/>
	<path class="st0" d="M2.3,159c-0.6-2.3-1.3-4.8-2.3-7.1v7.9C0.8,159.5,1.5,159.3,2.3,159L2.3,159z"/>
	<path class="st1" d="M45.3,185.3c-0.9-0.3-1.7-0.5-2.5-0.8c-0.4-0.1-0.8-0.3-1.3-0.4c-0.1,0.2-0.1,0.5-0.1,0.8c0,1.2,0.8,2,1,2.2
		C43.6,187.1,44.8,186.4,45.3,185.3z"/>
	<path class="st0" d="M27.5,9.3c0.8,0.1,1.5,0,2-0.5c0.8-0.7,1.3-2.2,1.3-4c0-1.7-0.3-3.4-0.9-4.9h-6.4c0.3,1.1,0.5,2.2,0.6,3.3
		C24.5,6.2,25,8.9,27.5,9.3z"/>
	<path class="st0" d="M6,498.4c2.1-0.3,2.5,2.9,0.6,3.3C4.6,502.1,3.9,498.8,6,498.4z M4,510c2.8,0.2,5.2,0.4,7.7,1
		c4.2-12,2.4-13.2,2.1-13.3c-0.4-0.2-0.6-0.7-0.4-1.1c0.2-0.4,0.7-0.6,1.1-0.4c1.6,0.7,3.2,3.1-1.5,16.1c-0.2,0.7-0.4,1.2-0.6,1.7
		l-0.8,2.1c-1.3,3.8-2.7,7.7-3.3,11.7l0,0.3c-0.2,1.3-0.4,2.7-0.4,4.1c0,1.7,0.3,2.9,0.8,3.9c0.7,1.2,1.5,1.8,2.4,1.8
		c1.7,0,3.9-2.4,5-4.5c1.7-3.5,2.9-7.3,3.6-11.4c0-0.1,0-0.1,0-0.2c1.4-8.4,0.5-17.3-2.6-25c-0.2-0.4,0.1-0.9,0.5-1.1
		c0.4-0.1,0.8,0,1,0.3l0.5-0.3c-1-1.2-2.1-2-3.3-2.3c-1.8-0.4-3.8,0.2-5.8,0.7c-0.9,0.2-1.8,0.5-2.6,0.7c-2.4,0.5-4.9,0.7-7.4,0.9
		v14c1.2,0.1,2.4,0.2,3.6,0.3L4,510z"/>
	<path class="st0" d="M4.7,512.3c-1.1,3.4-3.3,15.6-0.5,18.6c0.3,0.4,0.9,0.8,2.1,0.5c0.1-1.3,0.2-2.5,0.4-3.6l0-0.3
		c0.6-4.2,2-8.2,3.4-12.1l0.5-1.5c0.1-0.1,0.1-0.4,0.2-0.7c0.1-0.2,0.2-0.5,0.3-0.8c-2-0.5-4.2-0.7-6.5-0.9
		C4.7,511.9,4.7,512.1,4.7,512.3z"/>
	<path class="st0" d="M0.7,387.6c0.8-1.1,1-3,0.8-4.2c-0.2-1.2-0.8-2.2-1.5-3v7.9C0.3,388.1,0.5,387.9,0.7,387.6z"/>
	<path d="M555.5,299.8C555.5,299.8,555.6,299.8,555.5,299.8l0.6-0.5L555.5,299.8z"/>
	<path d="M598.9,296.8C599,296.8,599,296.8,598.9,296.8c0.4,0.1,0.7,0.2,1.1,0.3v-0.7c-0.2,0.1-0.4,0.1-0.6,0.2
		C599.3,296.7,599.1,296.7,598.9,296.8z"/>
	<line class="st5" x1="555.6" y1="299.9" x2="556.1" y2="299.3"/>
	<line class="st5" x1="555.5" y1="299.9" x2="555.6" y2="299.9"/>
	<path class="st6" d="M136,512.2c-0.3-0.3-0.8-0.4-1.2-0.1c-0.3,0.3-0.4,0.8-0.1,1.2c0.7,0.8,1.4,1.7,2,2.5c0.2,0.2,0.4,0.3,0.7,0.3
		c0.2,0,0.3,0,0.5-0.1c0.4-0.3,0.5-0.8,0.2-1.2C137.4,513.9,136.7,513,136,512.2z"/>
	<path class="st6" d="M143.2,529.9c-0.4,0.1-0.8,0.5-0.7,0.9c0.1,0.7,0.2,1.3,0.3,2c0.1,0.4,0.4,0.7,0.8,0.7c0,0,0.1,0,0.1,0
		c0.5,0,0.8-0.5,0.7-0.9c-0.1-0.7-0.2-1.4-0.3-2C144.1,530.2,143.7,529.8,143.2,529.9z"/>
	<path class="st6" d="M127.2,507.1c0.1,0.1,0.3,0.1,0.4,0.1c0.3,0,0.5-0.1,0.7-0.4c0.2-0.4,0.1-0.9-0.3-1.1
		c-0.9-0.6-1.9-1.1-2.9-1.7c-0.4-0.2-0.9,0-1.1,0.4c-0.2,0.4-0.1,0.9,0.4,1.1C125.4,506,126.3,506.5,127.2,507.1z"/>
	<path class="st6" d="M142.9,528.3c0.4-0.1,0.7-0.5,0.6-1c-0.3-1.1-0.6-2.2-0.9-3.3c-0.1-0.4-0.6-0.7-1-0.5c-0.4,0.1-0.7,0.6-0.5,1
		c0.3,1,0.6,2.1,0.8,3.2c0.1,0.4,0.4,0.6,0.8,0.6C142.8,528.3,142.8,528.3,142.9,528.3z"/>
	<path class="st6" d="M132.4,511c0.2,0.1,0.4,0.2,0.6,0.2c0.2,0,0.4-0.1,0.6-0.3c0.3-0.3,0.3-0.9-0.1-1.2c-0.8-0.8-1.7-1.5-2.6-2.2
		c-0.4-0.3-0.9-0.2-1.2,0.2c-0.3,0.4-0.2,0.9,0.2,1.2C130.8,509.6,131.6,510.3,132.4,511z"/>
	<path class="st6" d="M141.4,520.8c-0.5-1.1-1-2.1-1.5-3.1c-0.2-0.4-0.7-0.5-1.1-0.3c-0.4,0.2-0.6,0.7-0.3,1.1
		c0.5,0.9,1,1.9,1.4,2.9c0.1,0.3,0.4,0.5,0.8,0.5c0.1,0,0.2,0,0.3-0.1C141.4,521.7,141.6,521.2,141.4,520.8z"/>
	<path class="st6" d="M117.9,501.8c-0.2,0.4,0.1,0.9,0.5,1.1c0.2,0.1,0.4,0.2,0.7,0.3c0.8,0.3,1.6,0.6,2.4,1
		c0.1,0.1,0.2,0.1,0.3,0.1c0.3,0,0.6-0.2,0.8-0.5c0.2-0.4,0-0.9-0.4-1.1c-0.8-0.4-1.7-0.7-2.5-1c-0.2-0.1-0.4-0.2-0.6-0.2
		C118.5,501.2,118.1,501.4,117.9,501.8z"/>
	<path class="st2" d="M473,511.3c0.5-0.1,0.8-0.5,0.8-1c-0.1-0.5-0.5-0.8-1-0.8c-7.5,1-16,0.8-24.6-0.5c-3.7-0.6-8.1-1.4-12-3.2
		l-0.3-0.1c-1-0.5-2.9-1.4-3.4-2.3c-0.6-1.2,0.5-3,1.6-3.6c0.4-0.3,0.5-0.8,0.3-1.2c-0.2-0.4-0.8-0.5-1.2-0.3
		c-1.8,1-3.4,3.8-2.2,5.9c0.8,1.4,2.8,2.3,4.1,3l0.3,0.2c4.1,2,8.6,2.8,12.5,3.4c5.1,0.8,10,1.1,14.7,1.1
		C466.1,511.9,469.6,511.7,473,511.3z"/>
	<path class="st2" d="M495.1,506c-2.8,1.4-6.3,2.3-10.8,2.8c-0.5,0-0.8,0.5-0.8,1c0,0.4,0.4,0.8,0.9,0.8c0,0,0.1,0,0.1,0
		c4.7-0.5,8.4-1.5,11.4-3c1.4-0.8,3.2-1.8,4-3.6c0.6-1.4,0.5-3-0.3-4.3c-0.7-1.1-1.8-1.8-3.1-1.8c-0.5,0-0.9,0.3-0.9,0.8
		c0,0.5,0.3,0.9,0.8,0.9c0.9,0.1,1.4,0.6,1.7,1c0.5,0.8,0.5,1.8,0.2,2.7C497.7,504.5,496.3,505.4,495.1,506z"/>
	<path class="st2" d="M535.4,585.9c0.5,0,0.8-0.4,0.9-0.8c0-0.5-0.3-0.9-0.8-0.9c-8.7-0.5-18.5-1-27.6-3.4c-7.2-1.9-8.8-3.6-9.1-4.4
		c-0.1-0.2-0.1-0.5,0.2-1c1.9-2.7,6.1-3.1,9.9-3.4c0.3,0,0.5,0,0.8-0.1c1-0.1,1.9-0.2,2.7-0.3c0.5-0.1,0.8-0.5,0.7-1
		c-0.1-0.5-0.5-0.8-0.9-0.7c0,0,0,0-0.1,0c-1,0.2-2.1,0.3-3.4,0.4c-4.1,0.3-8.8,0.7-11.1,4.1c-0.7,1-0.6,2-0.4,2.6
		c1,2.7,6.3,4.4,10.3,5.5C516.7,584.9,526.6,585.4,535.4,585.9C535.4,585.9,535.4,585.9,535.4,585.9z"/>
	<path class="st2" d="M570.5,581.8c-0.5,0-0.9,0.3-0.9,0.8c-0.1,1-1.2,1.9-2.2,2.4c-8.5,5-37.1,6.5-42.6,4c-0.4-0.2-0.9,0-1.1,0.4
		s0,0.9,0.4,1.1c2,0.9,6.4,1.3,11.8,1.3c11.1,0,26.3-1.8,32.4-5.4c1.9-1.1,2.9-2.4,3-3.8C571.3,582.2,571,581.8,570.5,581.8z"/>
	<path d="M491.8,135.6c0,0,0.1,0,0.1,0c0.2-0.1,0.4-0.2,0.5-0.4c0.1-0.1,0.2-0.2,0.2-0.3c0-0.1,0.1-0.1,0.1-0.2c0,0,0,0,0-0.1
		c0,0,0-0.1,0-0.1C492.4,135,492.1,135.4,491.8,135.6z"/>
	<path d="M497.1,129.1L497.1,129.1C497.1,129.1,497.1,129.1,497.1,129.1S497.1,129.1,497.1,129.1z"/>
	<path d="M493.7,136.4C493.7,136.4,493.7,136.4,493.7,136.4C493.7,136.4,493.7,136.4,493.7,136.4
		C493.7,136.5,493.7,136.5,493.7,136.4z"/>
	<path d="M492.5,135.2c0.1-0.1,0.1-0.2,0.2-0.3c0,0,0,0,0,0C492.6,135.1,492.5,135.2,492.5,135.2
		C492.4,135.3,492.5,135.3,492.5,135.2z"/>
	<path d="M4.6,70L4.6,70C4.6,70,4.6,70,4.6,70L4.6,70C4.6,70,4.6,70,4.6,70z"/>
	<path d="M590.4,137.8c0,0-0.1,0-0.1,0c0,0,0,0,0,0C590.3,137.9,590.3,137.9,590.4,137.8z"/>
	<path class="st0" d="M22.3,595.2c2-0.8,4.6-0.7,6.1,0.1c0.2,1.2,0.8,2.8,1.4,4.7h-6.4C22.7,597,22.4,596,22.3,595.2z"/>
</g>
</svg>
