<?xml version="1.0" encoding="utf-8"?>
<!-- Generator: Adobe Illustrator 21.1.0, SVG Export Plug-In . SVG Version: 6.00 Build 0)  -->
<svg version="1.1" id="Layer_1" xmlns="http://www.w3.org/2000/svg" xmlns:xlink="http://www.w3.org/1999/xlink" x="0px" y="0px"
	 viewBox="0 0 100 100" style="enable-background:new 0 0 100 100;" xml:space="preserve">
<g>
	<path d="M85.4,85C85.4,85,85.4,85,85.4,85c-0.2-0.3-0.4-0.6-0.7-0.9c-1.2-0.3-2.7,0.4-3.2,1.6c-0.8,1.6-0.4,3.5,0.6,4.8
		c0.1,0.1,0.2,0.2,0.3,0.3c0.3-0.1,0.6-0.2,0.9-0.3c0.1,0,0.1-0.1,0.2-0.1c0,0,0.1,0,0.1,0c0,0,0,0,0,0C84.2,90,85.9,89,86,87v-0.2
		C86,86.3,85.8,85.6,85.4,85z"/>
	<path d="M80.1,85.2c0.7-1.4,2.4-2.2,3.9-1.8c-0.6-0.7-1.4-1.3-2.1-1.9c-0.5-0.4-1-0.8-1.4-1.2c-0.2-0.2-0.4-0.4-0.6-0.6l-0.2-0.2
		c-2.1-2.1-3.8-4.4-5.1-6.9c-1.2-2.3-1.8-4.6-2.4-7c-0.1-0.5-0.2-1-0.4-1.4c0-0.1,0-0.2-0.1-0.3c-1-4-4.1-5-5.8-5.3
		c-0.4-0.1-0.9-0.1-1.3-0.1c-2,0-4.1,0.6-5.9,1.8c-1.1,0.7-2.2,1.6-3.1,2.5c-0.3,0.3-0.5,0.7-0.6,1.1c-0.2,0.4-0.4,0.9-0.8,1.3
		c-0.5,0.5-1.1,0.8-1.8,1.1c-0.3,0.1-0.6,0.3-0.8,0.4c-1,0.6-2.1,1.3-3.3,2.3c-2.1,1.6-4,3.3-5.7,5.1c-2.4,2.5-4.3,5.2-5.7,8
		c-1.5,3.1-2.2,6-2,8.5c0.2,2.3,1,4.8,2.7,5.3c2.2,0.6,5-2.1,7.9-7.5c0.3-0.6,0.6-1.2,1-1.9c0.4-0.8,0.7-1.6,1.1-2.4
		c1.8-4.1,3.8-8.4,7.7-11.1c0.1-0.1,0.2-0.1,0.3-0.2c0.3-0.2,0.6-0.1,0.8,0.2c0.1,0.2,0.1,0.5,0,0.7c1.2,4.1,4,8,8.1,11.2
		c0.8,0.6,1.6,1.2,2.4,1.7c2.5,1.6,6.2,3.7,9.9,4.4c1.5,0.3,2.8,0.3,4.1,0c0.1,0,0.2-0.1,0.3-0.1c-0.1-0.1-0.2-0.2-0.3-0.3
		C79.6,89.1,79.2,87,80.1,85.2z M60.5,72.2c-0.6-2.5,2.6-3.7,2.9-0.9C63.5,73.1,61,74.4,60.5,72.2z M68.2,70.3c0.1-2,3-2,3,0.1
		C71.1,72.4,68,72.4,68.2,70.3z"/>
	<path d="M75.6,72c0.9,1.7,2.1,3.4,3.5,5c-0.2-0.7-0.3-1.3-0.5-2c-0.3-1.5-0.6-3-1.4-4.4c-0.9-1.7-2.2-3.4-3.9-5.3
		C74,67.7,74.5,69.9,75.6,72z"/>
	<path d="M35.4,31.5l0.1,1.3c0.1,1.5,0.2,3,0.3,4.6c0.7,12,1.4,24.4,6.5,35.3c1.6-1.6,3.4-3.2,5.3-4.7c1.3-1,2.4-1.7,3.5-2.3
		c0.3-0.2,0.6-0.3,1-0.5c0.5-0.2,1.1-0.5,1.4-0.8c0.2-0.3,0.4-0.6,0.6-1c0.2-0.4,0.4-1,0.9-1.4c1-1,2.1-1.9,3.3-2.7
		c2.2-1.4,4.7-2.1,7.1-2c-4.5-7.8-7.5-16.6-8.5-25.5c-0.1-1-0.2-1.9-0.3-2.8c0-0.3,0.2-0.6,0.6-0.6c0.3,0,0.6,0.2,0.6,0.6
		c0.1,0.7,0.1,1.4,0.2,2.2c2.9,1,5.6,0.8,8.7,0.7l0.3,0c2.1-0.1,3.5,0.8,4.9,1.7c0.3,0.2,0.6,0.4,1,0.6c1,0.6,2,0.8,2.7,0.6
		c0.4-0.2,0.7-0.5,0.9-1.1c0.6-2.1-1.1-4.4-3.1-5.3c-1.2-0.6-2.5-0.7-3.8-0.9c-1.2-0.2-2.4-0.3-3.6-0.8c-2-0.8-3.7-2.2-5.4-4.6
		c-0.3-0.4-0.6-0.9-1-1.4c-2-2.9-4.2-6.1-7.8-5.9c-0.2,0-0.3-0.1-0.5-0.2c-0.1,0.8-0.1,1.6,0,2.4c0.1,0.3-0.1,0.6-0.4,0.7
		c0,0-0.1,0-0.1,0c-0.3,0-0.5-0.2-0.6-0.5c-0.3-1-0.2-2.1,0-3.2c0.8-3.6,4.3-7.1,8-7.9c2.6-0.6,4.6-0.5,6.5,0.2
		c0.8,0.3,1.1,0.2,1.1,0.2c0.1-0.2,0-1-0.8-2c-3.3-4.2-8.7-3.7-12.6-1.3c-3.9,2.3-6.6,6.6-7.3,11.2c-0.1,0.9-0.2,1.7-0.1,2.5
		c0,0.3-0.2,0.6-0.6,0.6c-0.3,0-0.6-0.2-0.6-0.6c0-0.7,0-1.4,0.1-2.1c-5.5,0.8-10.8,4-13.5,8.2c-0.4,0.6-0.8,1.3-1.1,2
		c-0.8,1.7-1.7,3.4-3.4,4.4c-1.1,0.7-2.4,0.9-3.6,1.1c-1.2,0.2-2.3,0.4-3.3,1c-2,1.2-3.6,3.4-2.6,5.5c0.4,0.8,1.1,1.4,2,1.6
		c0.9,0.2,1.8,0.1,2.5-0.4c0.5-0.4,0.8-0.9,1.1-1.5c0.2-0.5,0.5-1,0.9-1.4c1.1-1.2,2.5-1.1,3.8-1c2.7,0.2,5.5,0.1,7.6-1.8
		c0,0,0,0,0,0l-0.1-0.8c0-0.3,0.2-0.6,0.6-0.6C35.1,30.9,35.4,31.2,35.4,31.5z"/>
	<path d="M65.6,87.2c0.9,2.7,1.2,6.3-0.1,9.2c0.2,0.9,0.9,1.5,1.4,1.8c1.1,0.7,2.7,0.9,4,0.5c2.7-0.8,4.6-3.9,5.1-6.6
		c-3.8-0.8-7.4-2.9-9.8-4.4C66,87.5,65.8,87.3,65.6,87.2z"/>
	<path d="M63.6,85.7c-2.2-1.7-4-3.6-5.4-5.6c-0.1,0-0.2,0-0.2,0c-1.3-0.2-2.8,0.3-3.8,1.2c-0.5,0.5-1.1,1.3-1,2.3
		c0.2,1.9,2.8,4.6,4.8,4.5c0.3,0,0.6,0.2,0.6,0.6c0,0.3-0.2,0.6-0.6,0.6c-0.1,0-0.1,0-0.2,0c-2.7,0-5.6-3.1-5.9-5.5
		c-0.1-1.2,0.4-2.4,1.4-3.3c1.1-1,2.6-1.6,4.1-1.6c-0.9-1.4-1.6-2.9-2-4.5c-3.3,2.6-5,6.4-6.7,10.2c-0.3,0.7-0.6,1.3-0.9,2
		c0,0.1,0.1,0.1,0.1,0.2c0.4,3.8,2.5,7.5,5.6,9.9c2.4,1.9,5.8,3.5,8.4,2.2c1.1-0.5,1.9-1.5,2.5-2.7c0,0,0-0.1,0.1-0.1
		C65.8,92.7,65.1,88.1,63.6,85.7C63.6,85.8,63.6,85.7,63.6,85.7z"/>
</g>
</svg>
