<?xml version="1.0" encoding="utf-8"?>
<!-- Generator: Adobe Illustrator 21.1.0, SVG Export Plug-In . SVG Version: 6.00 Build 0)  -->
<svg version="1.1" id="Layer_1" xmlns="http://www.w3.org/2000/svg" xmlns:xlink="http://www.w3.org/1999/xlink" x="0px" y="0px"
	 viewBox="0 0 100 100" style="enable-background:new 0 0 100 100;" xml:space="preserve">
<g>
	<path d="M97.1,75.2c-1.5-3.7-3.3-7.5-6.1-10.2c0.2,1.1,0.4,2.1,0.5,3.2c0.1,0.6,0.2,1.3,0.3,1.9c0.6,3.3,1.4,6.5,2.5,9.6
		c0.5,1.4,1.2,2.8,1.8,4.2c0.9,0,1.5-0.2,1.9-0.7C99,81.6,98.3,78.1,97.1,75.2z"/>
	<path d="M97,89.2c-0.1-0.1-0.1-0.1-0.2-0.1c-0.9-0.2-1.9,0-2.7,0.7c-0.1,0.1-0.1,0.1-0.2,0.1c-0.2,0.2-0.4,0.5-0.6,0.7
		c0,0,0,0.1,0,0.1c-0.1,0.2-0.2,0.4-0.2,0.5c0,0,0,0,0,0c0.2,0.1,0.3,0.1,0.5,0.2c1.3,0.5,2.6,0.5,3.2-0.1
		C97.4,90.7,97.3,89.9,97,89.2C97,89.2,97,89.2,97,89.2z"/>
	<path d="M85.8,88c-0.4,2.4-0.1,4.1,1.1,5.1c0.4,0.3,1.2,0.8,1.8,0.3c0.4-0.3,0.4-0.9,0.3-1.7c0-0.4,0-0.9,0-1.3
		C88,89.7,86.9,88.9,85.8,88z"/>
	<path d="M79.6,90c-1.3-2.5-2.5-5-2.8-7.8c-0.2-0.1-0.4-0.2-0.7-0.3c-0.3-0.1-0.5-0.5-0.3-0.8c0.1-0.3,0.5-0.5,0.8-0.3
		c0.4,0.2,0.8,0.3,1.1,0.4c0.6,0.2,1.2,0.3,1.6,0.3c-2-2.7-3.6-5.6-4.8-8.6c-0.5,1.4-0.6,3.2-0.7,4.5c-0.1,2.1-0.2,4.3-0.2,6.4
		c0,1.1,0,2.2-0.1,3.3c0,0.4,0,0.8,0,1.2c0,0.2,0,0.5,0,0.7c0.3,0.4,0.8,0.7,1.3,1c0.4,0.3,0.9,0.5,1.3,0.9c0.8,0.8,1,1.7,1.2,2.6
		c0,0.2,0.1,0.4,0.1,0.7c0.3,1.2,1,2.2,1.7,2.4c0.4,0.1,0.9,0,1.4-0.4c1.4-1.1,0.7-3-0.4-5.2L79.6,90z"/>
	<path d="M28.6,37.4c-1.5-0.2-3-0.2-4.4,0c1.5,1.7,2.1,4,2.3,6.2c0.3,2.2,0.7,4.4,2.6,4.7c0.7,0.1,1.2,0,1.6-0.3
		c0.6-0.5,1-1.7,1-3.1c0-2.7-1.1-5.3-3-7.1C28.7,37.6,28.7,37.5,28.6,37.4z"/>
	<path d="M93.4,88.7c0.9-0.7,2-1.1,3.1-1c-0.4-1-0.9-2-1.3-2.9c-0.7-1.5-1.5-3.1-2.1-4.7c-1.1-3.1-2-6.5-2.6-9.8
		c-0.1-0.6-0.2-1.3-0.3-1.9c-0.2-1.6-0.5-3.2-1-4.7c-0.3-0.8-0.6-1.5-1-2.1c-1.1-1.7-2.8-2.9-4.4-3.1c-0.6-0.1-1.3,0-1.8,0.2
		c-0.3,0.1-0.7,0-0.8-0.4c-0.1-0.3,0-0.7,0.4-0.8c0.4-0.1,0.8-0.2,1.2-0.3c-1.5-2.3-2.5-4.8-3.5-7.2c-0.3-0.6-0.5-1.3-0.8-1.9
		c-1.6-3.7-3.4-6.8-5.5-9.5c-10.2-13-19.9-20-31.3-22.8c-8.3-2-24.4-3.1-32.6,5.6c-0.6,0.6-1.1,1.3-1.6,2c0,0.1,0,0.2,0,0.4
		c0,0,0,0,0,0.1c0,0,0,0.1,0,0.1C5.7,28.3,6.4,33.6,9,37.5c0.6,0.8,1.2,1.6,1.9,2.4c0.7,0.8,1.5,1.7,2.1,2.6c1,1.6,1.1,3.1,1.1,4.6
		c0,0.6,0.1,1.3,0.2,2c0.2,1.5,1,2.4,2,2.4c0,0,0,0,0,0c1.2,0,2.7-1.2,3-3.1c0.4-2.6-0.5-5.8-2.6-9.6c-0.1-0.2-0.1-0.3,0-0.5
		c0.1-0.2,0.2-0.3,0.3-0.4c1.7-0.8,3.5-1.3,5.3-1.6h0c0.1,0,0.2-0.1,0.3,0c2.2-0.3,4.4-0.3,6.7,0c5.8,0.8,11.8,3.7,16.9,8.1
		c5.7,5,10.1,11.4,14.2,17.5c1.8,2.7,3.7,5.5,5.7,8.1c1.2-2,2.7-3.9,4.3-5.5c0.3-0.2,0.7-0.2,0.9,0c0.2,0.3,0.2,0.7,0,0.9
		c-1.6,1.6-3.1,3.6-4.4,5.6c-4.3,7.3-4.6,14.7-0.8,19.7c0.8,1,2.8,3.3,4.7,2.5c1.2-0.5,1.4-2.2,1.4-3.9c0-0.1-0.1-0.2-0.1-0.2
		c-0.1-0.2,0-0.4,0.1-0.5c0-0.1,0-0.2,0-0.2c0-0.5,0-0.9,0-1.3c0-1.1,0.1-2.2,0.1-3.3c0-2.1,0.1-4.3,0.2-6.4
		c0.1-1.8,0.3-4.2,1.4-6.1c0.4-0.7,0.9-1.2,1.5-1.6c0.3-0.2,0.7-0.1,0.9,0.1c0.2,0.3,0.1,0.7-0.1,0.9c-0.3,0.2-0.6,0.5-0.8,0.8
		c0,0,0,0.1,0.1,0.1c1.3,3.6,3.2,6.9,5.6,9.9c1.4,1.7,3,3.4,4.7,4.8c0.1,0.1,0.1,0.1,0.2,0.2c1.4,1.2,2.8,2.3,4.2,3.1c0,0,0,0,0,0
		c0.6,0.4,1.2,0.7,1.8,1c0-0.2,0.1-0.4,0.2-0.6c0-0.1,0.1-0.2,0.2-0.2c0,0,0-0.1,0-0.1c0.2-0.3,0.4-0.6,0.8-0.8
		C93.3,88.8,93.3,88.8,93.4,88.7z M82.7,73c-0.7-0.2-1.4-1-1.1-1.8c0.4-0.8,1.8-1,2.3-0.3C84.5,71.8,83.8,73.3,82.7,73z"/>
	<path d="M4.2,12.5C4.4,9.9,5.7,7.8,7,5.9c0.4-0.6,0.8-1.3,1.2-2c-3,0.3-5.5,5.1-6.2,7.6c-0.8,2.5-0.6,5.3,0.6,7.7
		c1.1,2.2,2.3,3.5,3.5,3.8C6.5,22.2,7,21.6,7.5,21C4.9,19,3.9,15.3,4.2,12.5z"/>
</g>
</svg>
