<?xml version="1.0" encoding="utf-8"?>
<!-- Generator: Adobe Illustrator 21.1.0, SVG Export Plug-In . SVG Version: 6.00 Build 0)  -->
<svg version="1.1" id="Layer_1" xmlns="http://www.w3.org/2000/svg" xmlns:xlink="http://www.w3.org/1999/xlink" x="0px" y="0px"
	 viewBox="0 0 100 100" style="enable-background:new 0 0 100 100;" xml:space="preserve">
<g>
	<path d="M75.9,1.8c-0.4-0.7-1-0.9-1.8-0.8c-0.7,0.1-1.5,0.5-2.4,1.2c0.2,0,0.3,0,0.5,0.1c0.8,0.1,1.4,0.2,2.1,0.8
		c0.4,0.4,0.7,0.8,0.9,1.3C75.4,4.7,75.6,5.7,76,6c0-0.1,0.1-0.2,0.1-0.3c0,0,0,0,0-0.1c0.1-0.5,0.2-0.9,0.3-1.4
		C76.4,3.1,76.2,2.3,75.9,1.8z"/>
	<path d="M73.6,3.6C73,3,72.4,2.9,71.5,2.8c-0.2,0-0.3,0-0.5-0.1c-0.1,0.1-0.2,0.2-0.3,0.2c-1.5,1.1-3,2.5-4.1,3.5
		c-0.5,0.5-0.9,0.9-1.2,1.1C65.2,7.8,65,8,64.8,8.1c-1,0.8-2,1.7-3.2,2.3c-1,0.5-2,0.7-3,0.9c-0.4,0.1-0.8,0.1-1.2,0.2
		c-2.7,0.6-4.2,2.6-5.6,4.8c0.2,0,0.3,0.1,0.5,0.1c0.3,0.1,0.5,0.4,0.4,0.7c-0.1,0.3-0.4,0.5-0.7,0.4c-0.4-0.1-0.8-0.2-1.1-0.3
		c-3.7-1.2-7-3.3-9.7-6.2c-0.2-0.2-0.4-0.4-0.6-0.6c-0.9-1-1.8-2-3-2.2c-1.6-0.3-3.3,0.5-4.2,2c-2,3.4,1.2,7,3.9,8.6
		c2.4,1.4,6.1,2.2,9.7,1.9c0.1-0.1,0.3-0.1,0.4,0c0.9-0.1,1.9-0.2,2.7-0.5c0.3-0.1,0.6,0.1,0.7,0.4c0.1,0.3-0.1,0.6-0.4,0.7
		c-0.9,0.2-1.9,0.4-2.9,0.5c-3.5,3.3-7.5,7-10.1,11.6c-2.3,4.2-3.6,9.4-3.8,15.3c-0.2,6.4,0.7,12.7,1.5,17.5
		c0.8,4.4,1.9,9.5,4.8,13.8c0.2,0.1,0.4,0.3,0.4,0.6l0,0l0,0l0,0v0.1c-0.3,3.7,0.3,7.2,1.6,10c0.1,0.3,0.3,0.5,0.4,0.8
		c0.6,1.2,1.3,2.4,0.8,3.9C43,95.6,43,95.8,42.9,96c-0.3,1-0.5,1.6-0.1,2.2c0.3,0.4,0.7,0.7,1.2,0.7c0.8,0,1.7-0.5,2.1-1.2
		c0.5-0.8,0.3-1.5,0.1-2.5C46.1,94.8,46,94.4,46,94c-0.2-1.6,0.4-3.1,1.5-4.1c-0.2-0.2-0.3-0.4-0.2-0.6c0.1-0.3,0.5-0.4,0.7-0.3
		s0.4,0.1,0.6,0.2c4,1.4,8.4,1.2,12.2-0.6c0.1,0,0.2-0.1,0.3-0.2c0.3-0.1,0.6,0,0.8,0.2c0.1,0.2,0.1,0.5-0.1,0.7
		c0.8,1.4,0.7,2.9,0.5,4.3c-0.1,1-0.2,1.9,0,2.8s1.8,2.6,2.9,2.7c0.3,0,0.7,0,1-0.8c0.1-0.3,0-0.5-0.2-0.9s-0.4-0.9-0.3-1.5
		c0.1-0.7,0.6-1.3,1-1.9c0.3-0.4,0.6-0.8,0.7-1.2c0.7-1.9,1-4.9,0.1-7l0,0c-0.2-0.2-0.3-0.6-0.1-0.8c2.7-3.2,2.5-8.1-0.3-11.1
		c-1,1.5-2.3,2.9-3.7,3.9C63,78,62.9,78,62.8,78c-0.2,0-0.4-0.1-0.5-0.2c-0.2-0.3-0.1-0.6,0.1-0.8c1.4-1,2.7-2.4,3.7-4
		c0-0.1,0.1-0.2,0.1-0.3l0,0c2.1-3.5,3.3-9-0.1-13.1c-0.6-0.7-1.2-1.1-1.6-1.1c-0.3,0.1-0.5,0.5-0.6,0.8c-0.4,1.2-0.3,2.7-0.3,4.1
		c0,1,0.1,2,0,3c-0.2,1.4-0.6,2.8-1.1,3.9v0.1c0,0.1-0.1,0.1-0.1,0.2c-1.1,2.2-2.7,3.6-4.8,4.1c-0.3,0.1-0.6-0.1-0.7-0.4
		c-0.1-0.3,0.1-0.6,0.4-0.7c2-0.5,3.2-1.9,3.9-3.2c-6-4.9-7.5-13.1-8.5-20.4c-0.1-0.5-0.1-0.9-0.2-1.4c-0.5-4.7-0.2-8.9,0.8-12.5
		c1-3.5,2.6-6.4,4.9-8.7c-0.6-0.9-1.2-1.8-1.9-2.5c-0.2-0.2-0.2-0.6,0-0.8c0.2-0.2,0.6-0.2,0.8,0c0.8,1,1.6,2,2.3,3.2
		c2.1,3.6,3.1,7.6,2.7,11.2c0,0.3-0.1,0.6-0.1,0.9c-0.3,1.9-0.5,4,1,4.9s3.4,0.1,4.5-1.1c2.6-3,2.1-8.2,1.7-10.4
		c-0.7-4-3.1-7.5-6.3-9c-0.5-0.2-1-0.4-1.5-0.6c-0.3-0.1-0.5-0.4-0.4-0.7c0.1-0.3,0.4-0.5,0.7-0.4c0.6,0.2,1.1,0.4,1.7,0.7
		c0.2,0.1,0.3,0.2,0.5,0.3c0-0.1,0.1-0.2,0.2-0.3c3.6-2.5,6.6-6.5,9.2-11.9l0.2-0.4c0.5-1.1,1.2-2.6,1.7-4.1
		c-0.4-0.3-0.6-1.3-0.8-1.6C74.3,4.5,74,4,73.6,3.6z M54.5,81.4c0.2-0.3,0.5-0.4,0.8-0.2c0.2,0.1,0.6,0.3,1,0.5
		c-0.1-0.4-0.1-0.8-0.1-1.1c0-0.3,0.2-0.6,0.6-0.6l0,0c0.3,0,0.6,0.3,0.6,0.6c0,0.2,0,0.5,0.1,0.8c0.1-0.1,0.2-0.2,0.3-0.3
		c0.2-0.2,0.3-0.4,0.5-0.5c0.2-0.2,0.6-0.3,0.8,0c0.2,0.2,0.3,0.6,0,0.8c-0.1,0.1-0.3,0.3-0.4,0.5c-0.2,0.2-0.3,0.4-0.5,0.6
		c1,0.3,1.3,0.2,1.3,0.2c0.3-0.1,0.6,0.1,0.7,0.4c0.1,0.3-0.1,0.6-0.4,0.7c-0.1,0-0.2,0.1-0.5,0.1s-0.8-0.1-1.4-0.2
		c0.1,0.4,0.2,0.8,0.2,1.1v0.1c0.1,0.3-0.1,0.6-0.4,0.7h-0.1c-0.3,0-0.5-0.2-0.6-0.5V85c-0.1-0.3-0.1-0.7-0.2-1.1
		c-0.6,0.4-1,0.7-1.5,0.7c0,0,0,0-0.1,0c-0.3,0-0.5-0.2-0.6-0.5c0-0.3,0.2-0.6,0.5-0.6c0.2,0,0.5-0.1,0.9-0.5
		c-0.5-0.2-1-0.4-1.2-0.6C54.5,82,54.4,81.6,54.5,81.4z M60,14.3c-1.2,0-1.3-1.3-0.2-1.6C61.4,12.3,61.2,14.3,60,14.3z M64,18.2
		c-2,0.2-1.1-2.5,0.3-1.8C65.2,16.7,65.1,18.1,64,18.2z"/>
</g>
</svg>
