<?xml version="1.0" encoding="utf-8"?>
<!-- Generator: Adobe Illustrator 21.1.0, SVG Export Plug-In . SVG Version: 6.00 Build 0)  -->
<svg version="1.1" id="Layer_1" xmlns="http://www.w3.org/2000/svg" xmlns:xlink="http://www.w3.org/1999/xlink" x="0px" y="0px"
	 viewBox="0 0 100 100" style="enable-background:new 0 0 100 100;" xml:space="preserve">
<g>
	<path d="M81.4,37.9c-0.2-0.1-0.2-0.4-0.1-0.6c0-0.1,0-0.1,0.1-0.2c2.7-3.2,2.6-7.5-0.3-11.1c-1.2-1.4-3.5-3-5.7-3.1
		c-0.9,0-1.8,0.2-2.4,0.7c2.7,1.1,5.5,2.5,6.8,5.2c0.7,1.5,0.8,3.3,0.3,4.7c-0.3,0.8-0.8,1.5-1.4,2c0,0.1,0.1,0.2,0,0.3
		c-0.1,0.3-0.3,0.4-0.6,0.4c-0.2,0-0.4-0.1-0.6-0.1c-2.4-0.3-4.6,0.7-6.3,1.6c0,0-0.1,0-0.1,0.1c-0.9,0.5-1.8,1-2.6,1.5l-0.7,0.4
		c-1.5,0.9-3,1.8-4.3,2.6l-0.2,0.2c-1.7,1.1-3.5,2.2-5.2,3.2c-5,2.9-11.7,6.4-18.9,6.8c-0.4,0-0.9,0-1.3,0c-3,0-5.8-0.6-8.2-1.8
		c-1.6-0.8-2.7-1.5-3.5-2.9c-0.3-0.6-0.6-1-0.9-1.3c-0.6-0.8-1.3-1.2-2-1.4c-1-0.2-2.3,0.1-3.4,0.4c-0.5,0.1-1.1,0.3-1.6,0.4
		c-2.1,0.4-4.1,0.6-6.2,0.6c-1.9,0-3.8-0.2-5.6-0.6c-0.3-0.1-0.6-0.1-0.9-0.2c0,0-0.1,0-0.1,0c-0.6,1.8-1.7,2.8-3.1,3
		c0.9,1.6,2.8,3.3,3.9,3.9c0.7,0.4,1.4,0.7,2.3,1c0.7,0.2,0.7,0.2,1,0.1c0.2-0.1,0.4-0.2,0.7-0.4c0.8-0.4,1.5-0.3,1.9,0.1
		c0.2,0.2,0.4,0.5,0.3,1.2c1.2,0.2,2.4,0.3,3.5,0.4l0.3,0c1.6,0.1,3.1,0.2,4.5,0.6c2.5-7.1,1.4-7.8,1.3-7.9
		c-0.3-0.1-0.4-0.4-0.3-0.6c0.1-0.3,0.4-0.4,0.6-0.3c0.9,0.4,1.9,1.8-0.9,9.6c-0.1,0.4-0.3,0.7-0.4,1l-0.4,1.3c-0.8,2.3-1.6,4.6-2,7
		l0,0.2c-0.1,0.8-0.2,1.6-0.2,2.4c0,1,0.2,1.7,0.5,2.3c0.4,0.7,0.9,1,1.4,1c1,0,2.3-1.4,2.9-2.7c1-2.1,1.7-4.3,2.1-6.8
		c0,0,0-0.1,0-0.1c0.8-5,0.3-10.3-1.5-14.8c-0.1-0.3,0-0.5,0.3-0.6c0.3-0.1,0.5,0,0.6,0.3c1.9,4.7,2.4,10.2,1.6,15.3l0,0.1
		c0.5,1.6,0.9,3.1,1.8,4.4c0.1,0.2,0.3,0.4,0.5,0.6c0.6,0.7,1.3,1.6,0.9,2.7c-0.2,0.6-0.7,1.1-1.1,1.5c-0.5,0.5-0.9,0.9-1,1.6
		c-0.1,0.4-0.2,1.6,0.8,1.9c1.9,0.6,3.6-2,4.2-3.4c0.4-0.9,0.7-2,0.9-3.2c0,0,0,0,0,0c0-0.1,0-0.1,0-0.2c0.2-1.1,0.4-2.2,0.5-3.2
		l0-0.1c0-0.3,0.3-0.5,0.6-0.4c0.3,0,0.5,0.3,0.4,0.6l0,0.1c-0.1,0.9-0.3,1.9-0.5,2.8c5.8,0.2,11.9,0.2,17.8-0.6
		c2.6-0.4,5.4-1,8.3-1.8c0.6-0.2,1.3-0.4,1.9-0.6c2-0.6,4.1-1.2,6.3-1.5c-0.4-1.6-0.5-3.4-0.3-5.1c0-0.3,0.3-0.5,0.5-0.4
		c0.3,0,0.5,0.3,0.4,0.5c-0.2,1.8-0.1,3.6,0.4,5.2c0.2,0.8,0.5,1.5,0.8,2.1c0.9,1.7,1.1,2.2,0,4c-0.1,0.2-0.2,0.4-0.4,0.6
		c-0.5,0.7-1.1,1.7-1,2.4c0.1,0.2,0.2,0.4,0.4,0.5c0.6,0.3,1.6,0.1,2.1-0.1c1.9-1,2.5-3.8,3.1-6.3c0.2-1,0.5-2,0.8-2.8
		c0.9-2.3,1.9-4.8,3.5-6.8c1.3-1.5,2.7-3.4,3.7-5.6C85,47.1,85.2,41.1,81.4,37.9z M17.6,50c-1.1,0.2-1.6-1.8-0.3-2
		C18.5,47.8,18.8,49.8,17.6,50z"/>
	<path d="M2.4,47.5c0.2-0.1,0.4-0.2,0.6-0.3c0.3-0.1,0.6-0.3,0.9-0.7c0.3-0.4,0.9-1,0.7-1.3c-0.1-0.1-0.2-0.2-0.6-0.3
		c-0.1,0-0.2-0.1-0.3-0.1c-0.2,0-0.4,0-0.7,0c-0.4,0-0.8,0-1.1,0.2c-0.8,0.5-0.6,2.3-0.1,2.5c0.1,0,0.2,0,0.3,0
		c0.2-0.1,0.4-0.2,0.5-0.3C2.6,47.4,2.5,47.5,2.4,47.5z"/>
	<path d="M60.3,32.3c0.1,0.1,0.3,0.3,0.4,0.4c1.3,1.3,1.4,3,1.5,4.7c0.1,1.4,0.2,2.8,1,3.8c1.2-0.7,2.6-1.6,3.9-2.4l0.7-0.4
		c0.6-0.3,1.1-0.7,1.7-1c-2.9-1.2-5.5-3.8-6.8-7c-0.1-0.2-0.2-0.5-0.3-0.8c-0.8-2.2-1.8-4.6-3.3-4c-1.2,0.4-1.6,1.9-1.3,3.2
		C58.3,30.3,59.2,31.2,60.3,32.3z"/>
	<path d="M1.7,47.7C1.8,47.7,1.8,47.6,1.7,47.7c0,0,0-0.1,0-0.1C1.7,47.6,1.7,47.6,1.7,47.7z"/>
	<path d="M86.2,50.5c-0.6-0.3-1.2-0.5-1.9-0.7c-0.3-0.1-0.5,0-0.6,0.3c-0.1,0.3,0,0.5,0.3,0.6c0.6,0.2,1.2,0.5,1.8,0.7
		c0.1,0,0.1,0,0.2,0c0.2,0,0.4-0.1,0.5-0.3C86.5,50.9,86.4,50.6,86.2,50.5z"/>
	<path d="M94.4,56.2c-0.2-0.2-0.5-0.2-0.7,0c-0.2,0.2-0.2,0.5,0,0.7c0.4,0.5,0.8,1,1.2,1.5c0.1,0.1,0.2,0.2,0.4,0.2
		c0.1,0,0.2,0,0.3-0.1c0.2-0.2,0.3-0.5,0.1-0.7C95.3,57.2,94.8,56.7,94.4,56.2z"/>
	<path d="M98.5,65.8c0.3-0.1,0.4-0.3,0.4-0.6c-0.2-0.7-0.3-1.3-0.5-1.9c-0.1-0.3-0.4-0.4-0.6-0.3c-0.3,0.1-0.4,0.4-0.3,0.6
		c0.2,0.6,0.4,1.2,0.5,1.9c0.1,0.2,0.3,0.4,0.5,0.4C98.4,65.8,98.5,65.8,98.5,65.8z"/>
	<path d="M99.2,67.1c0-0.3-0.3-0.5-0.6-0.4c-0.3,0-0.5,0.3-0.4,0.6c0.1,0.4,0.1,0.8,0.2,1.2c0,0.3,0.2,0.4,0.5,0.4c0,0,0,0,0.1,0
		c0.3,0,0.5-0.3,0.4-0.5C99.3,67.9,99.3,67.5,99.2,67.1z"/>
	<path d="M89.7,52.4c-0.6-0.3-1.1-0.7-1.8-1c-0.2-0.1-0.5,0-0.7,0.2c-0.1,0.2,0,0.5,0.2,0.7c0.6,0.3,1.2,0.6,1.7,1
		c0.1,0.1,0.2,0.1,0.3,0.1c0.2,0,0.3-0.1,0.4-0.2C90,52.8,90,52.5,89.7,52.4z"/>
	<path d="M97.6,61.3c-0.3-0.6-0.6-1.2-0.9-1.8c-0.1-0.2-0.4-0.3-0.7-0.2c-0.2,0.1-0.3,0.4-0.2,0.7c0.3,0.6,0.6,1.1,0.9,1.7
		c0.1,0.2,0.3,0.3,0.5,0.3c0.1,0,0.1,0,0.2,0C97.6,61.9,97.7,61.6,97.6,61.3z"/>
	<path d="M91.4,53.5c-0.2-0.2-0.5-0.1-0.7,0.1c-0.2,0.2-0.1,0.5,0.1,0.7c0.5,0.4,1,0.8,1.5,1.2c0.1,0.1,0.2,0.1,0.3,0.1
		c0.1,0,0.3-0.1,0.4-0.2c0.2-0.2,0.2-0.5,0-0.7C92.5,54.3,91.9,53.9,91.4,53.5z"/>
</g>
</svg>
