<?xml version="1.0" encoding="utf-8"?>
<!-- Generator: Adobe Illustrator 21.1.0, SVG Export Plug-In . SVG Version: 6.00 Build 0)  -->
<svg version="1.1" id="Layer_1" xmlns="http://www.w3.org/2000/svg" xmlns:xlink="http://www.w3.org/1999/xlink" x="0px" y="0px"
	 viewBox="0 0 100 100" style="enable-background:new 0 0 100 100;" xml:space="preserve">
<g>
	<path d="M24.5,3c0.7,0,2-0.2,2.1-1c0-0.2,0-0.3-0.1-0.4c-0.1-0.4-0.5-0.7-0.6-0.7c-0.5-0.4-1.1-0.3-1.3-0.3c-1.1,0-2,1-2.4,2
		c0,0,0.1,0.1,0.1,0.1C22.9,3.2,23.9,3,24.5,3z"/>
	<path d="M87.6,85.2c-1.2-1.7-2.5-3.5-3.1-5.7c0,0,0-0.1,0-0.1c-1.1,0.3-2.3,0.4-3.4,0.4c-1.5,0-3-0.2-4.5-0.7
		c-0.3-0.1-0.5-0.4-0.4-0.8c0.1-0.3,0.4-0.5,0.8-0.4c2.6,0.8,5.5,0.8,7.8,0.1c1.8-0.5,3.3-1.5,4.4-2.8c1.6-2,2.3-4.6,1.8-6.8
		c-0.3-1.1-1.1-3.1-2.7-3.4c0.1,3-0.3,6.6-2.9,8.6c-0.6,0.5-1.4,0.9-2.2,1.2c-2.6,1-6.2,1-8.5-1.1c-0.3-0.2-0.3-0.6,0-0.9
		c0.2-0.2,0.6-0.3,0.9,0c1.7,1.6,4.5,1.6,6.6,1c-3.6-9.4-7.2-16.6-11.6-22.5c-6.4-8.7-12.4-13.8-18.4-15.4c0,0,0,0-0.1,0
		c-1.3,0.4-2.5,0.5-3.2,0.6c-0.9,0.1-1.9,0.1-2.8,0.1c-5.7,0-11.3-1.7-15.9-4.9c-0.3-0.2-0.3-0.6-0.2-0.9c0.2-0.3,0.6-0.4,0.9-0.2
		c5.1,3.5,11.6,5.2,17.9,4.5c0.8-0.1,2-0.3,3.4-0.7c2.6-0.8,5.6-2.5,4.8-6c-0.2-0.8-0.6-1.4-1.3-1.9c-2.2-1.3-6.3-0.3-7.7,0
		c-1.3,0.3-2.7,0.7-4.1,1.2c-2,0.6-4,1.3-6.1,1.6c-3.4,0.6-6.2,0.3-8.7-0.9c-0.3-0.2-0.4-0.5-0.3-0.8c0.2-0.3,0.5-0.4,0.8-0.3
		c2,1,4.3,1.3,7,1c-1.1-0.9-1.4-2.6-0.8-5c0.3-1.3,0.7-2.6,1.1-3.9c0.3-1.1,0.7-2.3,1-3.5c0.6-2.4,0.4-3.2,0.2-3.5
		c-0.1-0.1-0.1-0.2-0.2-0.2c-0.1,0-0.1,0-0.3,0c-0.8,0.1-1.4,2.3-1.7,3.2c-0.1,0.3-0.1,0.5-0.2,0.6c0,0.1-0.1,0.2-0.2,0.4
		c-0.3,0.8-3.2,7.4-5.6,7.4c0,0,0,0,0,0c-0.4,0-1.1-0.2-1.5-1.2c-0.5-1.2-0.3-2.8-0.1-4.2c0.1-0.6,0.2-1.2,0.2-1.7
		c0-0.6,0-1.2,0-1.9l0-0.5c-0.1-3-0.3-5.4-0.6-7.6l0-0.3c-0.2-1.1-0.5-2.6-1-3.8c-0.5,0.7-1.7,0.9-2.4,0.9c-0.6,0-1.5,0.1-2.1-0.2
		c0,0.1-0.1,0.2-0.1,0.3C22.1,5,22,6,22,7c0,0.7,0,1.4-0.1,2.1c-0.2,2.2-1,4.3-1.6,6l-0.5,1.4c-2,5.3-4.2,11.2-2.4,16.2
		c0.5,1.3,1.2,2.5,2.2,3.5c0.2,0.2,0.5,0.5,0.8,0.7c0,0,0,0,0,0c1.3,0.9,2.7,1.8,4,2.7c1.4,0.9,2.8,1.9,4.2,2.8
		c0.2,0.1,0.3,0.4,0.2,0.7c-0.1,0.3-0.3,0.4-0.6,0.4c-3.4,0.2-8.6,1.9-8.6,5.8c0,1.3,0.6,3.1,2.1,3.2c0.8,0,0.9-0.3,1.2-1.5
		c0.2-0.8,0.4-1.7,1.1-2.3c1.9-1.5,4.8-2,7-2c0.4,0,0.8,0,1.1,0.1c2.5,0.3,4.4,1.6,5.7,2.8c0.7,0.6,1.4,1.3,2,2
		c4.3,4.4,8.2,9.3,11.8,14c0.9,1.1,1.7,2.3,2.6,3.6c3,4.3,6.1,8.7,10.8,10.6c0.3,0.1,0.5,0.5,0.3,0.8c0,0.1,0,0.2,0,0.3
		c-1.3,6.1,0.8,14.3,6.6,17.1c0.3,0.1,2.8,1.3,3.7,0c0.6-0.9-0.1-2.5-0.8-3.6c-0.4-0.6-1-1.3-1.5-1.9c-1.7-2-3.6-4.2-2.6-7.1
		c0.1-0.2,0.2-0.3,0.3-0.3c0,0,0,0,0,0c0.1-0.3,0.4-0.5,0.7-0.5c2.9,0.7,6,0.2,8.6-1.3c0.7-0.4,1.4-0.9,2-1.4c0.3-0.2,0.6-0.2,0.9,0
		c0.2,0.3,0.2,0.6,0,0.9c-0.6,0.5-1.1,0.9-1.8,1.3c0.3,1.6,1,4.1,3.2,5.7c1.1,0.8,3.2,1.8,4.5,0.9c1.1-0.8,0.8-2.1-0.7-4.3
		C88.1,86,87.9,85.6,87.6,85.2z M22.3,24.7c-0.8-1.8,2.1-2.8,2.8-1.2C26.1,25.4,22.7,26.6,22.3,24.7z"/>
	<path d="M31.7,48.1c0,0.1,0.1,0.2,0,0.3c-0.4,1.4,0.3,3.2,1.6,3.9c0.5,0.3,0.9,0.3,1.3,0.2c0.7-0.2,1.4-0.9,1.9-2.1
		c0-0.1,0.1-0.1,0.2-0.2c-1.6-1.3-3-2-4.6-2.1C32,48.2,31.8,48.1,31.7,48.1z"/>
	<path d="M7.6,41.3c-1.7,3.1-3.1,8.6,0.3,10.8c0.8,0.5,1.5,0.6,2.1,0.4c1.6-0.7,2.7-3.5,3.2-5.9c0.1-0.3,0.1-0.6,0.2-0.9
		c0.6-3.3,1.3-7.1,4.7-9c0.1,0,0.1,0,0.2-0.1c-0.7-0.9-1.3-1.8-1.8-2.9C13.5,35.1,9.7,37.4,7.6,41.3z"/>
	<path d="M29.8,14.8c1.2,1,3,1.5,4.3,1.1c0.2,0,0.3,0,0.5,0.1c0,0,0-0.1,0-0.1c0.1-0.2,0.1-0.4,0.2-0.6c0.5-1.5,1.2-3.9,2.7-4
		c0,0,0.1,0,0.1,0c0.4-2-0.4-3.7-2.2-4.7c-1.7-0.9-4.3-1.1-6.1,0.8c0,0,0,0-0.1,0C29.5,9.5,29.7,11.8,29.8,14.8L29.8,14.8z"/>
</g>
</svg>
