<?xml version="1.0" encoding="utf-8"?>
<!-- Generator: Adobe Illustrator 21.1.0, SVG Export Plug-In . SVG Version: 6.00 Build 0)  -->
<svg version="1.1" id="Layer_1" xmlns="http://www.w3.org/2000/svg" xmlns:xlink="http://www.w3.org/1999/xlink" x="0px" y="0px"
	 viewBox="0 0 100 100" style="enable-background:new 0 0 100 100;" xml:space="preserve">
<g>
	<path d="M21.9,91c0-0.1,0-0.1,0-0.2c0,0,0,0,0,0c-0.1,0-0.1,0-0.2,0c-0.4-0.2-1,0-1.5,0.2c-1,0.4-1.6,1.6-0.8,2.5
		c0.5,0.5,1.2,0.9,1.8,1.2c0.2,0.3,0.6,0.3,0.8,0l0,0c0.8-0.4,0.5-2.8,0.1-3.6C22,91.2,21.9,91.1,21.9,91z"/>
	<path d="M82,35.6c-0.8-2.5-3.5-3.6-5.9-4.7c-2.1-1-4.2-2-5.9-3.5c0.3,0.9,0.5,1.9,0.7,2.8c0.1,0.3-0.1,0.6-0.5,0.7c0,0-0.1,0-0.1,0
		c-0.3,0-0.5-0.2-0.6-0.5c-0.3-1.5-0.8-3.1-1.4-4.6c-1.3-3.3-5.2-10.9-12.6-9.3c-0.3,0.1-0.6-0.1-0.7-0.4c0-0.1,0-0.2,0-0.3
		c0-0.1-0.1-0.1-0.1-0.2c-0.5-3.8-1.9-8.9-5.9-12c-3.2-2.5-8.4-3.5-11.6-0.8C37,3.3,36.5,4,36.7,4.4c0.1,0.2,0.8,0.2,1.2,0.2
		c0.2,0,0.4,0,0.5,0c2.6,0.2,5.2,1,7.4,2.3c3.7,2.2,7.5,6.3,6.4,10.8c0.1,0.2,0.1,0.4-0.1,0.5c-1.9,2.6-1.5,6-0.9,8.7
		c0.2,1,0.5,2.1,0.8,3.1l0.2,0.9c0,0,0,0,0,0c0,0,0,0,0,0l0,0c0,0,0,0,0,0l0,0c0,0,0,0,0,0.1c0,0,0,0,0,0l0.1,0.4
		c0.4,1.6,0.8,3.4,1.1,5.3c0,0.3-0.2,0.6-0.5,0.6c0,0-0.1,0-0.1,0c-0.3,0-0.5-0.2-0.6-0.5c-0.1-0.7-0.2-1.5-0.4-2.2
		c-0.7,1.4-1.9,2.5-3.1,3.7c-1.3,1.3-2.6,2.4-3.1,3.8c-0.3,0.8,0.3,3,1,3.5c0.1,0.1,0.3,0.2,0.7-0.3c0.2-0.3,0.3-0.7,0.3-1.1
		c0.1-0.7,0.2-1.6,1.1-2.1c0.8-0.4,1.9-0.4,2.9-0.3c0.4,0,0.7,0,1,0c0-0.5-0.1-1-0.1-1.5c0-0.3,0.2-0.6,0.5-0.6
		c0.3,0,0.6,0.2,0.6,0.5c0.1,0.7,0.1,1.4,0.1,2.1c0.4,7.4-0.4,14.7-2.5,21.9l-0.3,1c-1.4,5.1-3.4,12-8.7,13.9c-1.8,1-3.6,2.2-4.4,4
		c-0.2,0.4-0.3,0.8-0.4,1.2c-0.1,0.6-0.3,1.2-0.7,1.8c-0.6,0.9-1.5,1.4-2.5,1.9c-0.3,0.1-0.6,0.3-0.9,0.4c-1.7,0.7-3.7,1.1-5.4,1.5
		c-0.9,0.2-1.9,0.3-3,0.4c-0.8,0.1-1.5,0.1-2.3,0.3c0.7,2.6,0.7,4.3,0,5.2c2.2,0.7,4.5,1.2,7,1.4c4.8,0.4,9.6-0.3,14.2-2.1
		c0-0.1,0-0.2,0-0.3c0.1-0.2,0.2-0.5,0.3-0.7c0.4-1.2,1.1-3.2,2.8-2.8c0.3,0.1,0.5,0.4,0.4,0.7c-0.1,0.3-0.4,0.5-0.7,0.4
		c-0.6-0.2-1,0.8-1.4,2c0,0,0,0.1,0,0.1c0.7-0.3,1.4-0.6,2-0.9c0.1-0.1,0.2-0.2,0.3-0.2c0.9-0.3,1.9-0.6,2.8-0.8l0-0.1
		c-1-3.5-2.2-7.9-5.6-9.6c-0.3-0.1-0.4-0.5-0.3-0.8c0.1-0.3,0.5-0.4,0.8-0.3c3.9,1.9,5.2,6.6,6.2,10.4l0,0.1
		c0.1,0.2,0.1,0.4,0.1,0.6l0.1,0.6c0.4,1.6,0.8,3.3,1.9,4.4c0.6,0.6,1.4,1,2.3,0.9c1,0,2-0.5,2.7-1.3c1.2-1.3,1.6-3,1.1-5.2
		c-0.4-2.1-1.6-4.2-2.5-5.6c-1.5-2.3-5.3-7.6-9.9-7.6c0,0-0.1,0-0.1,0c-0.3,0-0.6-0.3-0.6-0.6c0-0.3,0.2-0.6,0.6-0.6
		c0,0,0.1,0,0.1,0c4.9,0,8.9,5.1,10.8,8.1c0.8,1.3,1.9,3.3,2.5,5.3c1-0.8,1.9-1.6,2.7-2.6c0.1-0.1,0.3-0.2,0.4-0.2
		c0.2-0.1,0.5-0.1,0.6,0.1c2,1.9,4.8,2.9,7.9,3c1.3,0,4.5-0.1,5.3-2.2c0.4-1,0.1-2.2-0.9-2.7c-0.9-0.4-1.6,0.2-2.6,1.1
		c-0.1,0.1-0.1,0.1-0.2,0.2c-0.4,0.4-0.8,0.8-1.5,0.7c-0.6-0.1-1.2-0.7-1.9-1.4l-0.2-0.2c-1.3-1.3-2.2-3-2.5-4.8c0,0,0-0.1,0-0.1
		c-0.1-0.1-0.1-0.3,0-0.5c2.6-6.3,2.9-13.4,3.1-20.3l0-1.5c0.3-9,0.1-16.4-0.5-23.4c0-0.2,0.1-0.3,0.2-0.4c0,0,0,0,0-0.1
		c0.2-0.2,0.6-0.3,0.8-0.1c1,0.9,2.4,1.3,4.1,1.2c1.7-0.1,2.1,0.1,3.5,1.1c0.5,0.4,1.3,0.7,2,0.2C82.1,38,82.3,36.7,82,35.6z
		 M45,85.9c0.3,0,0.6,0.2,0.6,0.6c0,0.9-0.4,1.7-1.2,2c-0.3,0.1-0.6,0.2-0.9,0.2c-0.8,0-1.5-0.3-2.1-0.9c-0.2-0.2-0.2-0.6,0-0.8
		c0.2-0.2,0.6-0.2,0.8,0c0.5,0.5,1.2,0.6,1.6,0.5c0.3-0.1,0.5-0.4,0.5-0.9C44.4,86.1,44.7,85.9,45,85.9z"/>
	<path d="M36,85.6c0.3-0.4,0.4-0.9,0.5-1.5c0.1-0.5,0.2-0.9,0.4-1.4c0.6-1.3,1.6-2.3,2.7-3.2c-1.6,0.5-3,1.4-4,2.7
		c-0.9,1-1.8,2.7-1.8,4.9c0,0,0.1,0,0.1,0C34.8,86.6,35.6,86.2,36,85.6z"/>
</g>
</svg>
