<?xml version="1.0" encoding="utf-8"?>
<!-- Generator: Adobe Illustrator 21.1.0, SVG Export Plug-In . SVG Version: 6.00 Build 0)  -->
<svg version="1.1" id="Layer_1" xmlns="http://www.w3.org/2000/svg" xmlns:xlink="http://www.w3.org/1999/xlink" x="0px" y="0px"
	 viewBox="0 0 100 100" style="enable-background:new 0 0 100 100;" xml:space="preserve">
<g>
	<path d="M92.2,77.9c-1.3,1.4-4.7,3.8-6.6,3.6c-5.4-0.7-8-8.7-8.7-14.4c-0.5,2.8-0.5,5.4-0.5,7.7c1.2,4.3,4.5,9.4,8.8,10.2
		c2.4,0.5,6.8-2.4,7.7-4.9C93.2,79.2,93,78.5,92.2,77.9z"/>
	<path d="M81.9,39.3c1.7-16.4-3.9-29.5-15-35.2C53.7-2.6,40,1.6,32.8,14.6C29.1,21.2,27.2,29.1,27,38c0,2,0.1,4.2,0.3,6.5
		c0.4,5.5,0.9,11.1-1.6,15.9c0,0,0,0.1,0,0.1c0,0.3-0.2,0.6-0.5,0.7c-0.2,0.2-0.6,0.2-0.8,0.1c0,0,0,0,0,0
		c-4.1,0.2-8.6,4.7-11.8,11.9C9,81.2,7.5,92.2,11.8,96.6c1.4,1.4,2.5,2,3.2,1.8c1.9-0.7,2.4-7.1,2.7-11.8c0.4-5.4,0.6-8.9,2.5-8.9
		c0,0,0.1,0,0.1,0c-0.9-1.5-1.8-3.4-1.7-5.9c0-0.4,0.3-0.7,0.7-0.7c0.4,0,0.7,0.2,0.8,0.6c0.6,2.4,1.5,4.2,2.5,6.2
		c0.5,0.9,1,1.8,1.4,2.9c0.6,1,1,1.9,1.3,2.8c0.4,1.3,0.5,2.9,0.5,4.3c0.1,0.7,0.2,1.4,0.2,2.1c0.2,1.7,0.3,3.4,0.7,5.1
		c1.4-0.8,4.3,0.1,5.2,1c0.1,0.1,0.1,0.2,0.2,0.2c0.5-1,0.9-2.2,1.4-3.6c0,0,0,0,0,0c0,0,0,0,0,0c1.8-6.5,2.7-15.6,3-18.6l0.1-0.6
		c-0.4-0.7-0.8-1.2-1.3-1.5c-0.3-0.2-0.5-0.7-0.2-1c0.2-0.3,0.7-0.5,1-0.2c0.7,0.5,1.4,1.2,2,2.3c1.5,2.9,2.3,7.7,3.1,12.4
		c1,5.9,2.1,12.6,4.6,13.7c0.7,0.3,1.6,0.1,2.7-0.6c0.3-0.2,0.7-0.5,1-0.8c1.9-1.6,2.9-3.8,3-6.6c0.6-10-9.8-24.7-14.6-30
		c-0.3-0.3-0.3-0.8,0-1c0.3-0.3,0.8-0.3,1,0c5,5.4,15.7,20.6,15,31c-0.2,2.6-1,4.9-2.5,6.6c0.7,0.2,1.3,0,1.8-0.4
		c3.1-2.6,2.3-15.4-2.5-37.9c-0.3-1.6-0.6-2.7-0.6-3.1c-0.9-6.4-2.5-18.3,4.6-22.5c2.4-1.4,4.5-1.6,6.3-0.6c3,1.6,4.4,6,4.6,9.6
		c0.4,4.9-0.9,10-2.2,15c-0.5,2.1-1.1,4.1-1.4,6.1c-1.7,9-0.9,12.5,3.2,20.8c0.4,0.9,0.9,1.5,1.3,2.2c0.8,1.2,1.5,2.3,1.7,3.9
		c0.1,0.9-0.7,1.6-1.4,2.2c-1,0.8-1.7,1.5-1.5,2.3c0.4,1.7,1,2.6,1.9,2.6c2.7-0.1,7.2-6.8,7.6-9.2c0.5-3.5,0.4-6.8,0.3-10.4
		c0-1.1-0.1-2.3-0.1-3.4c-0.3-1.2-0.5-2.3-0.6-3.4c0-0.4,0.3-0.7,0.6-0.8c0.1-1.8,0.3-3.8,0.8-5.8c0.2-0.8,0.4-1.6,0.6-2.4
		c0.6-2.2,1.2-4.5,1.8-6.7C79.7,50.6,81.3,45,81.9,39.3z M24.6,78.7c-1.4,0.1-2.3-2.3-0.6-2.5C25.4,76,26.4,78.7,24.6,78.7z
		 M31.4,77.6L31.4,77.6c-0.2,0.1-0.3,0.1-0.4,0.1c-1.6-0.3-0.7-2.9,0.7-2.4C32.8,76.3,32.7,77,31.4,77.6z"/>
	<path d="M30.8,97c-0.5-0.5-2.6-1.2-3.4-0.7c-0.1,0.1-0.3,0.2-0.1,0.8c0,0,0,0.1,0,0.1c0.1,0.2,0.2,0.3,0.3,0.6c0,0,0,0,0,0
		c0,0,0,0.1,0,0.2c0,0.1,0,0.2,0,0.3c0.1,0.1,0.1,0.2,0.2,0.3c0.1,0,0.2,0.1,0.2,0.1c0.6,0.5,1.6,0.4,2.3,0.2c0,0,0.1,0,0.1,0
		c0.2-0.1,0.3-0.2,0.5-0.3c0,0,0,0,0,0c0.1-0.1,0.1-0.1,0.2-0.2c0,0,0,0,0,0c0-0.1,0.1-0.1,0.1-0.2c0,0,0,0,0,0c0,0,0-0.1,0-0.1
		C31.2,97.5,31.1,97.3,30.8,97z"/>
	<path d="M32.1,99.4C32.1,99.4,32.1,99.4,32.1,99.4C32.1,99.4,32.1,99.4,32.1,99.4C32.1,99.4,32.1,99.4,32.1,99.4z"/>
</g>
</svg>
