<?xml version="1.0" encoding="utf-8"?>
<!-- Generator: Adobe Illustrator 21.1.0, SVG Export Plug-In . SVG Version: 6.00 Build 0)  -->
<svg version="1.1" id="Layer_1" xmlns="http://www.w3.org/2000/svg" xmlns:xlink="http://www.w3.org/1999/xlink" x="0px" y="0px"
	 viewBox="0 0 100 100" style="enable-background:new 0 0 100 100;" xml:space="preserve">
<g>
	<path d="M95.7,44c-0.5,0.1-0.9,0.3-1.4,0.4c-0.8,0.3-1.7,0.6-2.5,0.7c-1,0.2-2.2,0.4-3.4,0.4c-1.2,0-2.3-0.2-3.4-0.7
		c-1-0.5-1.6-1.2-2.1-1.9c-0.2-0.2-0.3-0.4-0.5-0.7c-0.8-0.9-1.7-1.5-3-1.8c-0.1,0-0.2-0.1-0.3-0.1c-0.7-0.2-1.5-0.3-2.3-0.4
		c-1.9-0.1-3.8,0.2-5.6,0.9c-0.3,0.1-0.6,0-0.7-0.3l0,0c-0.1,0-0.2-0.1-0.3-0.2c-2.1-2.9-5.3-7-9.7-9.1c-2.4-1.2-5.8-1.9-7.8-0.3
		c-0.4,0.3-0.7,0.7-1,1.1c-0.5,0.7-0.6,1.5-0.3,2.2c0.2,0.7,0.8,1.3,1.6,1.6c1.1,0.5,2.4,0.4,3.7,0.3c0.6,0,1.3-0.1,2,0
		c2.9,0.1,8.1,1,10.6,5.3c0,0.1,0,0.1,0.1,0.2c0.1,0.2,0.1,0.5,0,0.6c-0.8,0.8-1.3,1.9-1.4,2.9c0,0.3-0.3,0.4-0.5,0.4h-0.1
		c-0.3,0-0.5-0.3-0.4-0.6c0.2-1.2,0.7-2.3,1.5-3.2c-2.3-3.8-7-4.5-9.6-4.7c-0.6,0-1.2,0-1.9,0c-1.4,0.1-2.8,0.1-4.2-0.4
		c-1.1-0.4-1.9-1.2-2.2-2.2s-0.2-2.1,0.4-3.1c0.2-0.3,0.3-0.5,0.5-0.7c-8.8-1.7-18.2,0.9-28.8,7.9c-0.8,0.5-1.5,1-2.3,1.5
		c-3,2-6.2,4.1-9.5,5.8C8,47.3,4.7,48.6,1.6,48C2.2,48.6,3,48.9,4,49.1c3.4,0.6,8.1-1,10.2-2.9c0.1-0.1,0.3-0.2,0.5-0.1
		c0.2,0.1,0.3,0.2,0.3,0.4c0.3,3.1,1.9,6.3,4.1,8.3c0.5,0.5,1.1,0.8,1.7,1.2c0.7,0.4,1.4,0.9,2,1.5c1.5,1.5,1.6,3.2,1.8,5.1v0.1
		c0.3,2.5,1.2,2.8,1.9,2.7c0.6,0,0.9-0.3,1.1-0.6c0.3-0.4,0.4-1.1,0.2-1.7c-0.1-0.2-0.2-0.4-0.2-0.6c-0.2-0.5-0.4-0.9-0.2-1.8
		c0.1-0.4,0.2-0.7,0.3-1.1c0.2-0.6,0.4-1.2,0.4-1.8c0.1-0.9,0-1.7-0.1-2.5c-0.1-1-0.4-1.9-0.8-2.7c-0.1-0.1-0.1-0.2-0.2-0.4
		c-0.1-0.3,0-0.6,0.2-0.7c0.2-0.1,0.4-0.1,0.5,0.1c1.3-1.4,2.8-2.6,4.4-3.6c4.9-3.1,10.5-3.8,15.6-1.9c4.2,1.6,8.1,4.1,10.9,6.2
		c3.7,2.6,6,5.2,7.2,8.2c0.1,0.1,0.2,0.2,0.2,0.3v0.1c0,0.1,0,0.3,0,0.4c0,3-1.2,6-3.4,8.1c-0.4,0.3-0.9,0.7-1.5,1
		c-1.7,1.1-2.9,1.9-2.3,3c0.2,0.5,0.6,0.8,1.2,1c1.1,0.3,2.5,0,3.3-0.5c2.2-1.2,4.2-3.7,5.3-6.3c0.1-0.1,0.1-0.4,0.2-0.7
		c0.1-0.7,0.3-1.4,0.6-1.7c0.4-0.3,1-0.2,1.5-0.1c0.2,0,0.3,0.1,0.4,0.1c0.7,0,1.4-0.1,2.1-0.2c1.1-0.3,2.2-0.8,3.1-1.6
		c0.2-0.1,0.4-0.4,0.6-0.6c0.3-0.3,0.6-0.7,0.9-0.9l0,0c0.4-0.8,0.6-1.4,0.8-2.1c0.1-0.3,0.2-0.6,0.3-0.9l0,0c0,0,0,0,0-0.1v-0.1
		v-0.1l0,0c0.4-0.9,0.5-2,0.3-3v-0.1c-2.4-0.1-4.2-0.6-5.4-1.6c-0.2-0.2-0.3-0.5-0.1-0.7c0.2-0.2,0.5-0.3,0.7-0.1
		c1.1,0.9,2.8,1.3,5.2,1.3c0.3,0,0.7,0,1,0c0-0.8,0.2-2,0.6-2.3c1.5-1.3,3.4,0.5,4.3,1.4l0.2,0.2l0.1,0.1c1.8-0.4,3.5-0.9,5.2-1.7
		c3.2-1.5,5.3-3,6.6-4.7c0.2-0.3,0.4-0.6,0.5-1h-0.1C97.4,46.4,96.1,45,95.7,44z M78.7,47.5L78.7,47.5c-0.3,0-0.6-0.2-0.8-0.5
		c-0.6-1,0.6-2,1.5-1.3C80.1,46.3,79.8,47.8,78.7,47.5z"/>
	<path d="M98.5,43.8L98.5,43.8L98.5,43.8C98.4,43.7,98.4,43.7,98.5,43.8c-0.1-0.1-0.2-0.1-0.2-0.1c-0.2-0.1-0.4-0.1-0.7-0.1
		c-0.3,0-0.6,0.1-0.8,0.1c0.2,0.4,0.9,1.3,1.6,1.8c0.3,0.2,0.5,0.2,0.6,0.2C99,45.2,99.1,44.2,98.5,43.8z"/>
	<path d="M84.6,34.7c1-0.4,1.9-0.8,2.7-1.3c1.3-0.8,2.7-2.3,2.6-3.7c-0.1-1.2-1.5-2-2.8-2.2c-2.6-0.3-4.7,2.4-6.1,4.5
		c-1.4,2.2-2.6,4.6-3.4,7c0.5,0.1,0.9,0.1,1.4,0.2C79.8,36.7,82.3,35.6,84.6,34.7z"/>
	<path d="M80.1,59.8c0,0.1-0.1,0.3-0.1,0.4c-0.2,0.6-0.3,1-0.6,1.6l0.1,0.1c0.1,0.1,0.2,0.1,0.3,0.2c0.2,0.1,0.3,0.2,0.5,0.3
		c1.6,1.1,3.7,2.5,3.9,4.6c0,0.3,0,0.8-0.1,1.3c-0.1,0.8-0.3,2,0.1,2.4c0.2,0.2,0.6,0.2,0.9,0.1c0.7-0.1,1.3-0.6,1.7-1.3
		c0.7-1.4,0.5-3.4,0-4.7C85.5,62.4,82.9,61,80.1,59.8z"/>
	<path d="M40.6,55.2h-0.3c-1.2-0.1-1.7-0.2-2.3-1.7c-1-2.5-3-4-5.4-4.1h-0.1c-1.5,1-2.9,2.2-4.1,3.5c0.2,0.6,0.4,1.3,0.6,1.9
		c2.7-1.1,5.6-0.8,7.5,0.9c0.2,0.2,0.5,0.4,0.7,0.7c0.6,0.6,1.1,1.2,2,1.3s2.2-0.2,2.5-1.1c0.2-0.4,0.2-0.7,0-0.9
		C41.6,55.5,41.1,55.3,40.6,55.2z"/>
</g>
</svg>
