<svg id="Layer_1" data-name="Layer 1" xmlns="http://www.w3.org/2000/svg" viewBox="0 0 98.19 92.17"><title>dachshund_curl</title><path d="M99.21,26.53c-.44-4.74-7.64-6.45-12.05-7.47a58.14,58.14,0,0,1,4.5,6.16l.08.1a.76.76,0,0,1,.28.15c1.12,1,5.31,2.94,6.77,2.22C98.92,27.63,99.29,27.44,99.21,26.53Z" transform="translate(-1.03 -4)"/><path d="M96.36,36.32c-.09-.3-.21-.61-.33-.92-1.56-.39-3.87,1.72-3.74,3.81.13,0,.25.1.38.14l.08,0a6.52,6.52,0,0,0,2.13.34,4.67,4.67,0,0,0,.48,0c1.05-.13,1.44-.67,1.33-1.85A6.43,6.43,0,0,0,96.36,36.32Z" transform="translate(-1.03 -4)"/><path d="M95.43,34.56a47.89,47.89,0,0,0-4.5-7.87L90.48,26a54,54,0,0,0-5.53-7.32c-.82-.92-1.68-1.77-2.52-2.55-.52-.49-1.06-1-1.59-1.45a37.86,37.86,0,0,0-3-2.41c-.59-.41-1.22-.77-1.89-1.15a14.75,14.75,0,0,1-3.19-2.2.72.72,0,0,1,0-1,.71.71,0,0,1,1,0,13.33,13.33,0,0,0,2.89,2c.67.39,1.36.78,2,1.23.85.6,1.72,1.3,2.71,2.15a.74.74,0,0,1,.39,0c2.52,1.09,6.06,1.14,7.67-.9a2.2,2.2,0,0,0,.5-1.93C89.58,9.12,88,7.87,86.57,7.21,81.25,4.79,75.14,5.41,69.22,6l-2.32.22,0,0a.72.72,0,0,1-1-.1l-.09-.09c-1.07-1.13-3.94-1.34-6-1.49-.65,0-1.23-.09-1.7-.15A57.11,57.11,0,0,0,47.43,4.1,65.19,65.19,0,0,0,28.07,7.94C18.19,11.7,9.71,19.79,4.81,30.14c-4.55,9.62-5,20.62-1.33,33.64C6.38,74.13,14.05,84.4,24,91.25c5.46,3.76,9.83,5.37,13,4.8.44-.08,1-.26,1.08-.66s-.41-1.46-1.23-2.09c-1.46-1.11-3.11-2.11-4.7-3.09-.92-.56-1.83-1.12-2.72-1.7a.64.64,0,0,1-.21-.24,12,12,0,0,1-3,.92l-.12,0A.71.71,0,0,1,26,87.8a10.69,10.69,0,0,0,3.17-1.09A11,11,0,0,0,32.54,84a10.17,10.17,0,0,0,1.4-2.13.71.71,0,1,1,1.28.62,11.76,11.76,0,0,1-1.06,1.72,52.22,52.22,0,0,0,5.67,3.26l.59.3c1.75.9,4.67,2.39,6.37,1.71.72-.27.77-.61.79-.71.15-1-1.47-2.81-3.13-4.13-1.23-1-2.6-1.85-3.93-2.7a31.09,31.09,0,0,1-6.27-4.82,9.38,9.38,0,0,1-6.7,3A8.31,8.31,0,0,1,25.75,80a.71.71,0,0,1-.54-.85.72.72,0,0,1,.85-.55,7.81,7.81,0,0,0,7.61-2.93,10,10,0,0,0,2-3.69c.7-2.41,1.16-6.52-.92-8.22a13.41,13.41,0,0,1-3.47,8.6c-2.29,2.48-5.14,3.3-7.79,2.26A.71.71,0,1,1,24,73.31,5.44,5.44,0,0,0,30,71.69a.69.69,0,0,1-.5-.21c-3.6-3.72-3.94-9.36-3.76-14.9.24-7.35,1.45-13.19,3.83-18.38C31.44,34,35,28.29,40.89,24.79a26.25,26.25,0,0,1,8.94-3L51,21.6c2.58-.5,5.51-1.07,8.11.08a.7.7,0,0,1,.28.24,18.23,18.23,0,0,1,1.05-3.29.7.7,0,0,1,.93-.36.71.71,0,0,1,.37.93,17.26,17.26,0,0,0-1.1,3.52c-1.12,5.57.09,12.83,5.43,15.59,1.22.63,2.23.74,2.89.32a2.86,2.86,0,0,0,1-2.62,7.38,7.38,0,0,0-.27-1.63A35.51,35.51,0,0,0,67.43,29a39.89,39.89,0,0,1-2.09-5l0-.1a15.67,15.67,0,0,1-.7-4.26.71.71,0,0,1,.69-.73.74.74,0,0,1,.73.7,13.75,13.75,0,0,0,.47,3.24c2.61-.32,5,1.78,6.91,3.48.44.39.85.75,1.23,1.06l2,1.63c1.29,1.06,2.63,2.17,4,3.19.84.64,1.65,1.24,2.43,1.78l.86.6a33.19,33.19,0,0,0,7.27,4.2C91,36.49,93.65,34.11,95.43,34.56Zm-18-9.69a3,3,0,0,1-2.34,1,3.47,3.47,0,0,1-1-.14.71.71,0,1,1,.39-1.36,1.8,1.8,0,0,0,1.8-.4c.22-.29.2-.68-.08-1.17a.71.71,0,0,1,1.23-.71A2.4,2.4,0,0,1,77.39,24.87ZM82,20.76A2.54,2.54,0,0,1,81,21a2.3,2.3,0,0,1-1.6-.64.71.71,0,1,1,1-1,1,1,0,0,0,1.07.16,1.37,1.37,0,0,0,.84-1.15.7.7,0,0,1,.71-.69h0a.71.71,0,0,1,.69.72A2.77,2.77,0,0,1,82,20.76Z" transform="translate(-1.03 -4)"/><path d="M79.27,33c-1.21-.92-2.4-1.9-3.54-2.84l-2-1.63c-.4-.32-.83-.7-1.28-1.1-1.63-1.44-3.63-3.2-5.53-3.16a44.56,44.56,0,0,0,1.79,4.17A36.76,36.76,0,0,1,71,34a8.93,8.93,0,0,1,.26,1.32.73.73,0,0,1,.49-.06c1.62.41,2.82,2.21,3.77,3.65.2.3.39.57.56.81s.44.61.67.94c1,1.38,2.07,3,3.41,3.56s1.6.17,1.7,0c1.33-1.83-1.25-9.5-2.38-10.72A.69.69,0,0,1,79.27,33Z" transform="translate(-1.03 -4)"/></svg>