<?xml version="1.0" encoding="utf-8"?>
<!-- Generator: Adobe Illustrator 21.1.0, SVG Export Plug-In . SVG Version: 6.00 Build 0)  -->
<svg version="1.1" id="Layer_1" xmlns="http://www.w3.org/2000/svg" xmlns:xlink="http://www.w3.org/1999/xlink" x="0px" y="0px"
	 viewBox="0 0 100 100" style="enable-background:new 0 0 100 100;" xml:space="preserve">
<g>
	<path d="M95.6,73.7c-2.2-1.1-4-2.5-5.9-4.4c-0.6-0.6-1.2-1.3-1.8-2c-1.4-1.5-2.8-3.1-4.4-4.4c-2.6-2.1-6-3.1-8.9-2.6
		c-1.1,0.2-2,0.6-2.9,1.1c-0.6,0.4-1.1,0.9-1.6,1.4C70,63,70,63.1,70,63.1c-0.2,0.2-0.6,0.3-0.8,0.1c-0.1-0.1-0.1-0.1-0.2-0.2
		c-11.8-5.5-21.6-14.7-28.5-26.7c-0.3-0.6-0.6-1.1-0.9-1.7c-0.8-1.5-1.9-3.5-3.3-5.2c-2.1-2.6-4.2-3.9-6.5-4.1
		c-0.9-0.1-1.9,0.1-2.9,0.4c-0.3,0.1-0.5,0.2-0.7,0.3c-4.9,2.1-6.1,8.7-4.3,13.5c0.1,0.2,0,0.5-0.2,0.7c0,0.1-0.1,0.2-0.2,0.3
		c-4,2.6-8.5,2.3-12.8,2c-0.7,0-1.4-0.1-2.1-0.1c-2-0.1-4.2,0-5.4,1.6c-0.5,0.7-0.8,1.6-0.6,2.3c0.2,0.7,0.6,1.3,1.3,1.6
		C3,48.2,4,47.8,5.1,47.3c0.8-0.3,1.6-0.6,2.5-0.7c1.5-0.1,2.7,0.7,3.8,1.5c0.6,0.4,1.1,0.8,1.6,1c3.8,1.7,8.8,1.3,12.5-1
		c-0.1-0.2,0-0.5,0.1-0.6c0.2-0.2,0.6-0.2,0.8,0.1c0,0,0,0,0,0c0.2,0,0.4,0.1,0.5,0.2C27,48,27,48.2,27,48.3
		C36.7,59,46.6,68.9,59.8,72.5c0.1,0,0.1,0,0.1,0.1c3.1-1,5.7-3,7.4-5.6c0.2-0.3,0.5-0.3,0.8-0.2c0.3,0.2,0.3,0.5,0.2,0.8
		c-1.9,3-4.9,5.2-8.4,6.3c-1.9,0.6-3.8,0.8-5.7,0.6c-0.8-0.1-1.7-0.2-2.5-0.4c-1.8-0.3-3.5-0.6-5.1-0.1c-1.1,0.3-1.9,1-2.3,1.9
		c-0.3,0.8-0.1,1.6,0.4,2.5c2,2.9,6.1,3.7,12.7,2.2c3-0.7,5.7-1.7,8-3.1c2.3-1.4,4.1-3,5.5-5c0.2-0.3,0.5-0.3,0.8-0.1
		c0.3,0.2,0.3,0.5,0.1,0.8c-1.3,1.9-3.1,3.6-5.2,4.9c2.7,1.8,6,5.7,5.1,9.2c-0.1,0.6-0.5,1-0.8,1.5c-0.5,0.7-0.8,1.1-0.6,1.7
		c0.4,1,1.9,1,2.8,0.7c2.9-1,3-4.7,2.4-6.9l0-0.1c-0.5-1.7-0.9-3.2,0.6-4.9c0.4-0.4,0.8-0.8,1.2-1.2c0.8-0.7,1.5-1.5,1.9-2.4
		c-1.3-0.5-2.5-0.8-3.5-1c-0.3-0.1-0.5-0.4-0.4-0.7c0.1-0.3,0.4-0.5,0.7-0.4c1.3,0.3,2.6,0.7,4.2,1.3c1,0.4,2,0.8,3,1.2l0.3,0.1
		c1.2,0.5,2.4,0.9,3.7,1.4c2.3,0.7,4.3,1.1,6.2,1c0.2,0,0.5,0,0.7,0c-0.3-0.5-0.4-1-0.4-1.6C94.1,75.6,94.8,74.5,95.6,73.7z
		 M77.6,69.7c-1.1,0.1-1.5-1.4-0.6-1.9C78.5,66.9,79.2,69.5,77.6,69.7z"/>
	<path d="M99,76.4c-0.1-0.7-1.1-1.5-2.1-2c-0.1,0-0.2-0.1-0.2-0.1c0,0,0,0.1-0.1,0.1c0,0-0.1,0-0.1,0.1c-0.7,0.6-1.3,1.5-1.3,2.4
		c0,0.4,0.1,0.8,0.5,1.1c0.1,0.1,0.1,0.2,0.1,0.3c1-0.1,2.1-0.4,2.8-0.9C99.1,76.9,99,76.5,99,76.4z"/>
	<path d="M84.5,77.4c0.1,0.8-0.2,1.7-0.6,2.6c-0.3,0.9-0.7,1.9-0.4,2.4c0.2,0.3,0.6,0.6,1.3,0.7c0.8,0.2,1.5,0,1.9-0.6
		c0.8-1.1,0.7-3.1,0.2-4.3C86.1,78,85.3,77.7,84.5,77.4z"/>
	<path d="M66.5,50.7c2.3,2.8,4.6,5.7,5.3,9.4c0.6-0.3,1.3-0.6,2.1-0.8c0-0.1,0-0.2,0.1-0.4c1.3-1.8,1.1-4,0.6-5.6
		c-1-3.6-4.2-7.6-7.2-8.8c-0.9-0.4-1.8-0.4-2.4-0.2c-0.4,0.2-0.7,0.5-0.8,0.9c-0.6,1.4,0.5,2.9,1.6,4.4L66.5,50.7z"/>
	<path d="M41.2,35.1c1.8-1.6,2.7-3.9,2.8-7.4c0-1.6,0.4-2.7,1.2-4.2c0.7-1.2,1.3-2.5,0.6-3.5c-0.4-0.6-0.9-0.9-1.5-0.9
		c-1.3,0.1-2.9,1.8-3.4,3c-0.2,0.6-0.4,1.3-0.6,2c-0.4,1.8-1,3.8-2.7,5c1.3,1.7,2.3,3.5,3,4.9C40.8,34.3,41,34.7,41.2,35.1z"/>
	<path d="M26.6,24.5c0.7-0.2,1.4-0.4,2.1-0.4c-2.1-2.5-0.2-6.6,0.5-8.1c0.3-0.7,0.7-1.4,1.1-2.1c1.1-2.1,2.2-4.2,2.2-6.4
		c-0.7,1.3-1.7,2.4-2.7,3.5c-0.9,1-1.8,2-2.5,3.1c-1.8,3.1-2.1,7-0.9,10.4C26.4,24.6,26.5,24.6,26.6,24.5z"/>
</g>
</svg>
