<?xml version="1.0" encoding="utf-8"?>
<!-- Generator: Adobe Illustrator 21.1.0, SVG Export Plug-In . SVG Version: 6.00 Build 0)  -->
<svg version="1.1" id="Layer_1" xmlns="http://www.w3.org/2000/svg" xmlns:xlink="http://www.w3.org/1999/xlink" x="0px" y="0px"
	 viewBox="0 0 100 100" style="enable-background:new 0 0 100 100;" xml:space="preserve">
<g>
	<path d="M95.1,47.9L95,47.6c-2.8-5.5-5.7-9.3-9.2-11.9c-0.2-0.1-0.2-0.3-0.2-0.5c-0.5-1.7-1.7-3.3-3.4-4.3
		c-1.5-0.9-3.2-1.2-4.7-0.7c-3.2,0.9-4.6,4.8-5.2,7.2c0.1,0.2,0,0.5-0.2,0.6l0,0c0,0,0,0,0,0l0,0c-1.4,1-2.7,2.3-3.8,3.8
		c-1.4,1.9-2.5,4.2-3.4,6.9c-0.8,2.4-1.2,4.9-1.6,7.3c-0.1,0.3-0.1,0.7-0.2,1c-0.3,1.9-0.7,3.9-0.2,5.7c0.1,0.3,0.2,0.7,0.4,0.9
		c0.4,0.6,1.1,1.2,2.3,0.7c1.4-0.6,2.6-2,3.7-4.4c1.5-3.2,2.2-6.8,3-10.3c0.3-1.3,0.6-2.7,0.9-4c0.1-0.3,0.4-0.5,0.7-0.4
		c0.3,0.1,0.5,0.4,0.4,0.7c-0.3,1.3-0.6,2.7-0.9,4c-0.8,3.5-1.6,7.1-3.1,10.5c-1.1,2.4-2.3,3.9-3.7,4.7c0,0.1,0.1,0.1,0.1,0.2
		c0.3,2.6,1.6,5.5,3.5,8c0.9,1.2,1.8,1.7,2.7,1.6c0.5,0,0.9-0.2,1.1-0.4c0.2-0.2,0.2-0.4,0.2-0.7c-0.1-0.7-0.6-1.4-1.1-2l-0.1-0.1
		c-1.1-1.4-1.5-2.6-1.5-4.3c0-1.6,0-3.3,0.8-4.6c0.8-1.3,1.7-2.5,2.6-3.7c0,0,0,0,0,0c-0.3-2.2-0.4-4.2-0.4-5c0-0.3,0.2-0.5,0.5-0.5
		c0.3,0,0.5,0.2,0.5,0.5c0,0.8,0.1,3,0.5,5.2c0.2,1.3,0.4,2.5,0.7,3.5c0.3-0.2,0.6-0.3,0.9-0.5c0.3-0.1,0.7-0.2,1-0.3
		c0.8-0.1,1.6,0,2.3,0.2c0.4,0.1,0.8,0.4,1.2,0.7c0,0,0,0,0-0.1l0.1-0.2c0.7-1.7,1.3-3.6,1.9-6c1-4.3,1.5-8.7,1.4-13.1
		c0-0.4,0-0.7,0-1.1c0-0.3,0.2-0.6,0.5-0.6c0.3,0,0.6,0.2,0.6,0.5c0,0.3,0,0.6,0,0.9c0,0,0,0,0,0c1.2,2.7,1.9,5.6,2.2,8.6
		c0.1,0.7,0.1,1.4,0.1,2.1c0.1,2,0.2,4.1,1,6c0.9,2.2,2.4,3.7,4.1,4.2c1.8,0.5,3.5-0.4,4.1-2.2C99.8,57.1,97.2,52,95.1,47.9z
		 M75.9,45.2c0.1-1.5,2.2-1.4,2.2,0.1C78.1,46.8,75.8,46.7,75.9,45.2z M82,44.9c0.1-1.5,2.3-1.3,2.2,0.2
		C84.2,46.7,81.8,46.4,82,44.9z"/>
	<path d="M80.6,63c-0.6-0.2-1.2-0.3-1.8-0.2c-0.3,0-0.6,0.1-0.8,0.2c-0.3,0.1-0.6,0.3-0.9,0.5c0.2,0.6,0.5,1.2,0.8,1.6
		c0.4,0.3,0.9,0.7,1.4,0.9c0.3,0,0.6-0.1,0.9-0.3l0.1,0c0.2-0.1,0.3-0.2,0.4-0.3c0,0,0,0,0-0.1c0.4-0.4,0.8-1,1.1-1.7c0,0,0,0,0,0
		C81.4,63.3,81,63.1,80.6,63z"/>
	<path d="M62.2,55.7c0.4-2.4,0.8-4.9,1.6-7.4c0.7-2.1,1.5-4,2.6-5.7c-4.6,2.1-9.5,2.8-14.6,2.8c-4,0-8.1-0.4-12.3-0.9
		c-3.9-0.5-7.9-1.2-11.7-1.9c-1.4-0.3-2.9-0.5-4.3-0.8c-4.7-0.8-10.2-1.4-15.2,0.5c0,0-0.1,0-0.1,0c0,0,0,0,0,0c0,0-0.1,0-0.1,0
		c-0.2,0-0.3-0.1-0.4-0.2c-2.3-2.9-3-6.6-2-10.3c0.8-2.9,2.6-5.3,5.1-6.9c-3.1,0.3-6.3,2.7-7.8,5.2c-2.5,4.1-0.5,9,1.7,13.7
		c0.1,0.2,0.1,0.3,0,0.5c0,0.1,0,0.2,0,0.3c-1.5,2.9-1.2,6.3-0.7,9c0.6,3.4,1.5,6.8,2.6,10l0.3,0.8c0.8,2.3,1.7,4.8,3.5,6.3
		c0.8,0.7,2.1,0.9,2.8,0.5c0.5-0.3,0.6-0.8,0.4-1.7c-0.1-0.6-0.6-1.1-1-1.6c-0.3-0.3-0.6-0.7-0.9-1.1c-0.8-1.4-0.5-2.7-0.2-3.7
		c0.4-1.3,1.1-2.6,1.9-3.6c0-0.2,0.2-0.3,0.3-0.4c0.9-1,1.8-1.8,2.8-2.2c1.8-0.8,4-0.5,5.8-0.2c0.8,0.1,1.5,0.3,2.2,0.4
		c0.4,0.1,0.8,0.1,1.1,0.2c3.4,0.6,6.8,1.5,9.4,2.3c1.1,0.3,2.2,0.6,3.3,1c4.7,1.4,9.5,2.9,14.4,2.5c0.5,0,1-0.1,1.5-0.2
		c0.3,0,0.5,0.1,0.6,0.4c0,0,0.1,0.1,0.1,0.1c0.6,1,0.7,2.2,0.7,3.4c0,0.5,0,0.9,0.1,1.4c0.2,1.5,0.5,3,1,4.2
		c0.6,1.5,1.8,3.9,3.9,3.4c0.5-0.1,0.8-0.3,0.9-0.6c0.3-0.7-0.3-2.1-0.8-3.3c-0.4-0.8-0.7-1.5-0.8-2.1c-0.4-2.3,0.3-5.1,2.3-6.2
		c-0.1-0.2-0.2-0.4-0.2-0.7c-0.5-2-0.1-4.2,0.2-6.2C62.1,56.4,62.2,56,62.2,55.7z"/>
</g>
</svg>
