<?xml version="1.0" encoding="utf-8"?>
<!-- Generator: Adobe Illustrator 21.1.0, SVG Export Plug-In . SVG Version: 6.00 Build 0)  -->
<svg version="1.1" id="Layer_1" xmlns="http://www.w3.org/2000/svg" xmlns:xlink="http://www.w3.org/1999/xlink" x="0px" y="0px"
	 viewBox="0 0 100 100" style="enable-background:new 0 0 100 100;" xml:space="preserve">
<style type="text/css">
	.st0{fill:#EA9A65;}
</style>
<g>
	<path d="M84.3,83.3c0.7,0.7,0.9,1.5,0.7,2.3C85,84.7,84.7,83.9,84.3,83.3C84.2,83.2,84.3,83.2,84.3,83.3z"/>
</g>
<g>
	<path d="M84.2,83.2c0.5,0.7,0.8,1.5,0.8,2.4c-0.2,1-0.8,1.9-1.4,2.6c-0.4,0.5-1.1,1.4-1.9,1.8c0,0,0,0-0.1,0
		c-0.1,0-0.1,0.1-0.2,0.1c-0.6,0.2-1.1,0.1-1.7-0.5c-1.2-1.5-1.6-3.6-0.7-5.3C79.9,82.5,82.6,81.7,84.2,83.2
		C84.2,83.2,84.2,83.2,84.2,83.2z"/>
</g>
<g>
	<path class="st0" d="M54.8,72.8c-4.5,3.1-6.2,8.3-8.4,13.1c-0.3,0.7-0.6,1.3-1,1.9c-1.3,2.5-4.9,8.6-8.5,7.6
		c-2.2-0.6-2.9-3.8-3.1-5.7c-0.3-3,0.7-6,2-8.7c1.5-3,3.4-5.6,5.7-8c1.8-1.9,3.7-3.6,5.7-5.1c1.1-0.8,2.2-1.6,3.3-2.3
		c0.7-0.4,1.9-0.7,2.5-1.4c0.6-0.7,0.7-1.6,1.4-2.3c0.9-1,2-1.9,3.1-2.6c2.3-1.5,5-2.2,7.5-1.8c2.9,0.4,5.3,2.2,6.2,5.6
		c0,0.1,0,0.2,0.1,0.3c0.7,2.9,1.2,5.6,2.6,8.2c1.3,2.5,3,4.6,4.9,6.6c0.3,0.3,0.5,0.5,0.8,0.8c1.3,1.2,3.3,2.5,4.4,4.2
		c-1.6-1.5-4.3-0.7-5.2,1.1c-0.9,1.8-0.5,3.9,0.7,5.3c0.5,0.7,1.1,0.7,1.7,0.5c-0.5,0.2-1,0.4-1.5,0.4c-1.4,0.3-2.8,0.2-4.3,0
		c-3.6-0.6-7.1-2.6-10-4.4c-0.8-0.5-1.6-1.1-2.4-1.7c-3.8-2.9-7-6.8-8.3-11.5L54.8,72.8z M70.2,69.7c0.1-2-2.8-2.1-2.9-0.1
		C67,71.7,70.1,71.7,70.2,69.7z M59.6,71.6c0.5,2.1,3,0.8,2.8-0.9C62.2,67.9,59,69.1,59.6,71.6z"/>
</g>
<g>
	<path d="M81.4,90.2c0.1,0,0.2-0.1,0.2-0.1C81.5,90.1,81.5,90.2,81.4,90.2z"/>
</g>
<g>
	<path class="st0" d="M79.2,78L79,78.2c-2-2-3.6-4.2-4.9-6.6c-1.4-2.7-1.9-5.4-2.6-8.2l0.3-0.1c1.9,1.9,3.7,4.1,5,6.4
		C78.1,72.4,78,75.3,79.2,78z"/>
</g>
<g>
	<path class="st0" d="M56.5,31.6c1,9,4,17.8,8.7,25.5l-0.1,0.3c-2.5-0.4-5.3,0.3-7.5,1.8c-1.1,0.7-2.2,1.6-3.1,2.6
		c-0.7,0.7-0.8,1.7-1.4,2.3c-0.6,0.6-1.7,0.9-2.5,1.4c-1.2,0.7-2.3,1.5-3.3,2.3c-2,1.5-4,3.2-5.7,5.1l-0.2-0.2
		c-6-12.3-6.1-26.6-6.9-40l-0.3,0c-2.2,2-5.1,2.1-7.9,1.9c-1.2-0.1-2.4-0.1-3.3,0.8c-0.8,0.9-1,2.2-2,2.9c-1.8,1.3-4.4,0.6-5.4-1.4
		c-1.2-2.4,0.7-4.9,2.8-6.2c2.1-1.3,4.7-0.9,6.8-2.1c2.2-1.3,2.9-4.2,4.3-6.2c3-4.5,8.5-7.5,13.7-8.3l0.7,0.1
		c0.6-4.7,3.4-9,7.4-11.5c4.3-2.6,9.9-2.7,13.2,1.5c1.2,1.5,1.7,3.8-1,2.7c-2-0.8-4-0.7-6.1-0.2c-3.3,0.7-6.7,3.8-7.5,7.3l0.9,0
		c4.5-0.3,6.9,4.3,9.1,7.5c1.3,1.9,2.9,3.5,5.1,4.3c2.4,0.9,5,0.6,7.3,1.7c2.1,1,4.1,3.5,3.3,5.9c-0.7,2.2-2.8,1.7-4.3,0.8
		c-1.9-1.1-3.1-2.3-5.5-2.2c-3.2,0.1-6.1,0.3-9.2-0.7L56.5,31.6z"/>
</g>
<g>
	<path class="st0" d="M75.6,90.6l0,0.1c-0.4,3-2.5,6.5-5.5,7.4c-2.2,0.7-5.6-0.3-6.1-2.8c1.5-3.3,0.9-8.1-0.8-10.7l0,0
		c0.8,0.6,1.6,1.2,2.4,1.7C68.5,88,72,90,75.6,90.6z"/>
</g>
<g>
	<path d="M67.3,69.6c0.1-2,3-1.9,2.9,0.1C70.1,71.7,67,71.7,67.3,69.6z"/>
</g>
<g>
	<path class="st0" d="M64,95.3c-0.6,1.3-1.5,2.4-2.7,3c-2.9,1.5-6.6-0.4-8.9-2.2c-3.1-2.5-5.3-6.2-5.7-10.2l-0.2-0.1
		c2.2-4.7,4-10,8.4-13.1L55,73c1.3,4.7,4.4,8.6,8.3,11.5l0,0C64.9,87.2,65.4,92,64,95.3z"/>
</g>
<g>
	<path d="M62.4,70.6c0.1,1.7-2.3,3.1-2.8,0.9C59,69.1,62.2,67.9,62.4,70.6z"/>
</g>
<g>
	<path d="M37.7,96.1c-0.3,0-0.6,0-0.9-0.1c-2.8-0.7-3.4-5-3.6-6.2c-0.2-2.7,0.4-5.8,2-9c1.4-2.9,3.3-5.6,5.8-8.2
		c1.7-1.8,3.6-3.5,5.8-5.2c1.3-1,2.3-1.7,3.4-2.3c0.3-0.2,0.6-0.3,0.9-0.5c0.5-0.2,1.1-0.5,1.4-0.8c0.2-0.3,0.4-0.6,0.6-1
		c0.2-0.4,0.4-0.9,0.9-1.4c0.9-1,2.1-1.9,3.2-2.7c2.4-1.6,5.3-2.3,7.9-1.9c3.4,0.5,5.8,2.7,6.7,6.1c0,0.1,0.1,0.2,0.1,0.3
		c0.1,0.5,0.2,0.9,0.3,1.4c0.6,2.3,1.1,4.5,2.2,6.6c1.2,2.3,2.8,4.5,4.8,6.5l0.2,0.2c0.2,0.2,0.4,0.4,0.6,0.6
		c0.4,0.4,0.9,0.8,1.4,1.2c1.1,0.9,2.3,1.9,3.1,3.1l0,0c0,0,0,0,0,0c0.6,0.9,0.9,1.8,0.9,2.7l0,0.2c0,2-1.4,3.8-3.7,4.8
		c0,0-0.1,0-0.1,0.1c-0.1,0-0.2,0.1-0.2,0.1c-0.5,0.2-1,0.4-1.6,0.5c-1.4,0.3-2.9,0.3-4.5,0c-3.9-0.7-7.7-2.9-10.2-4.5
		c-0.8-0.5-1.6-1.1-2.4-1.7c-4.2-3.2-7-7.1-8.3-11.3c-3.2,2.5-4.9,6.3-6.6,10c-0.4,0.8-0.7,1.6-1.1,2.4c-0.3,0.7-0.7,1.4-1,2
		C43.9,91.9,40.9,96.1,37.7,96.1z M63.7,58c-2,0-4,0.6-5.8,1.8c-1.1,0.7-2.1,1.6-3,2.5c-0.3,0.3-0.5,0.7-0.6,1.1
		c-0.2,0.4-0.4,0.9-0.8,1.3c-0.5,0.5-1.1,0.8-1.8,1.1c-0.3,0.1-0.6,0.3-0.8,0.4c-1,0.6-2.1,1.3-3.3,2.2c-2.1,1.6-4,3.3-5.6,5
		c-2.4,2.5-4.2,5.1-5.6,7.9c-1.5,3.1-2.2,5.9-1.9,8.4c0.2,2.2,1,4.8,2.7,5.2c2.2,0.6,5-2,7.8-7.4c0.3-0.6,0.6-1.2,0.9-1.9
		c0.4-0.8,0.7-1.6,1.1-2.4c1.8-4.1,3.7-8.3,7.6-10.9c0.1-0.1,0.2-0.1,0.3-0.2c0.3-0.2,0.6-0.1,0.8,0.2c0.1,0.2,0.1,0.5,0,0.7
		c1.1,4.1,3.9,7.9,8,11.1c0.8,0.6,1.6,1.2,2.3,1.6c2.4,1.5,6.1,3.7,9.8,4.3c1.4,0.3,2.8,0.3,4.1,0c0.5-0.1,0.9-0.2,1.4-0.4
		c0.1,0,0.1-0.1,0.2-0.1c0,0,0.1,0,0.1,0c0,0,0,0,0,0c0.9-0.4,2.9-1.6,3-3.7l0-0.2c0-0.7-0.3-1.4-0.7-2.1c0,0,0,0,0,0
		c-0.7-1.1-1.8-2-2.9-2.9c-0.5-0.4-1-0.8-1.4-1.2c-0.2-0.2-0.4-0.4-0.6-0.6l-0.2-0.2c-2.1-2.1-3.8-4.4-5.1-6.8
		c-1.2-2.3-1.8-4.5-2.3-6.9c-0.1-0.5-0.2-0.9-0.4-1.4c0-0.1,0-0.2-0.1-0.3c-1-4-4-5-5.7-5.2C64.6,58,64.2,58,63.7,58z M81.4,89.6
		L81.4,89.6L81.4,89.6z M81.5,89.5L81.5,89.5L81.5,89.5z"/>
</g>
<g>
	<path d="M57,88.4c-2.7,0-5.6-3.1-5.8-5.5c-0.1-1.2,0.4-2.4,1.4-3.3c1.3-1.2,3.2-1.8,4.8-1.5c0.3,0.1,0.5,0.4,0.5,0.7
		c-0.1,0.3-0.4,0.5-0.7,0.5c-1.2-0.2-2.8,0.3-3.8,1.2c-0.5,0.5-1.1,1.2-1,2.3c0.2,1.9,2.7,4.5,4.7,4.4c0.3,0,0.6,0.2,0.6,0.6
		c0,0.3-0.2,0.6-0.6,0.6C57.1,88.4,57.1,88.4,57,88.4z"/>
</g>
<g>
	<path d="M58.9,99.5c-3,0-5.9-2.1-6.9-2.9C48.7,94,46.4,90.1,46,86c0-0.3,0.2-0.6,0.5-0.7c0.3,0,0.6,0.2,0.7,0.5
		c0.4,3.7,2.5,7.4,5.5,9.8c2.4,1.9,5.8,3.4,8.3,2.1c1.1-0.5,1.9-1.5,2.5-2.7c1.5-3.3,0.8-7.9-0.7-10.2c-0.2-0.3-0.1-0.6,0.2-0.8
		c0.3-0.2,0.6-0.1,0.8,0.2c1.7,2.6,2.5,7.6,0.8,11.3c-0.7,1.5-1.7,2.7-3,3.3C60.6,99.3,59.8,99.5,58.9,99.5z"/>
</g>
<g>
	<path d="M68.5,99c-1.1,0-2.2-0.3-3.2-0.8c-1.1-0.6-1.8-1.6-2-2.7c0-0.1,0-0.1,0-0.2c0-0.3,0.3-0.6,0.6-0.6c0.3,0,0.5,0.2,0.6,0.4
		c0,0,0,0.1,0,0.1c0.2,1,0.9,1.6,1.4,1.9c1.1,0.7,2.7,0.8,3.9,0.5c2.9-0.9,4.7-4.2,5.1-7c0-0.3,0.3-0.5,0.7-0.5
		c0.3,0,0.5,0.3,0.5,0.7c-0.4,3.2-2.6,6.9-6,7.9C69.7,98.9,69.1,99,68.5,99z"/>
</g>
<g>
	<path d="M79.2,78.6c-0.2,0-0.4-0.1-0.5-0.4c-0.6-1.3-0.8-2.6-1.1-3.9c-0.3-1.5-0.6-3-1.3-4.3c-1.1-2-2.7-4.1-4.9-6.3
		c-0.2-0.2-0.2-0.6,0-0.8c0.2-0.2,0.6-0.2,0.8,0c2.3,2.3,3.9,4.5,5.1,6.6c0.8,1.5,1.1,3.1,1.5,4.6c0.3,1.3,0.5,2.5,1,3.7
		c0.1,0.3,0,0.6-0.3,0.8C79.3,78.6,79.3,78.6,79.2,78.6z"/>
</g>
<g>
	<path d="M41.3,73.3c-0.2,0-0.4-0.1-0.5-0.3c-5.4-11.1-6-23.6-6.7-35.7c-0.1-1.5-0.2-3-0.3-4.5l-0.1-1.3c0-0.3,0.2-0.6,0.6-0.6
		c0.3,0,0.6,0.2,0.6,0.6l0.1,1.3c0.1,1.5,0.2,3,0.3,4.5c0.7,12,1.4,24.4,6.6,35.3c0.1,0.3,0,0.6-0.3,0.8
		C41.4,73.3,41.4,73.3,41.3,73.3z"/>
</g>
<g>
	<path d="M18.8,39.6c-0.4,0-0.7,0-1.1-0.1c-1.2-0.3-2.2-1.1-2.8-2.2c-1.4-2.7,0.6-5.5,3-6.9c1.2-0.7,2.4-0.9,3.7-1.1
		c1.1-0.2,2.2-0.4,3.1-0.9c1.4-0.8,2.1-2.4,2.9-3.9c0.4-0.7,0.7-1.5,1.2-2.1c2.9-4.4,8.4-7.7,14.2-8.6c0.3,0,0.6,0.2,0.7,0.5
		c0,0.3-0.2,0.6-0.5,0.7c-5.4,0.8-10.6,3.9-13.3,8.1c-0.4,0.6-0.7,1.3-1.1,2c-0.8,1.7-1.7,3.4-3.4,4.4c-1.1,0.7-2.3,0.9-3.5,1.1
		c-1.2,0.2-2.3,0.4-3.2,1c-1.9,1.2-3.6,3.4-2.5,5.4c0.4,0.8,1.1,1.4,2,1.6c0.9,0.2,1.8,0.1,2.5-0.4c0.5-0.4,0.8-0.9,1-1.4
		c0.2-0.5,0.5-1,0.9-1.4c1.1-1.2,2.5-1.1,3.7-1c2.7,0.2,5.5,0.1,7.5-1.8c0.2-0.2,0.6-0.2,0.8,0c0.2,0.2,0.2,0.6,0,0.8
		c-2.3,2.2-5.4,2.3-8.4,2.1c-1.3-0.1-2.1-0.1-2.8,0.6c-0.3,0.3-0.5,0.7-0.7,1.1c-0.3,0.6-0.7,1.3-1.4,1.9
		C20.5,39.4,19.7,39.6,18.8,39.6z"/>
</g>
<g>
	<path d="M65.2,57.7c-0.2,0-0.4-0.1-0.5-0.3C60,49.6,57,40.7,55.9,31.6c-0.1-1-0.2-1.9-0.3-2.7c0-0.3,0.2-0.6,0.5-0.6
		c0.3,0,0.6,0.2,0.6,0.5c0.1,0.8,0.1,1.6,0.3,2.7c1,8.9,4,17.6,8.6,25.3c0.2,0.3,0.1,0.6-0.2,0.8C65.4,57.7,65.3,57.7,65.2,57.7z"/>
</g>
<g>
	<path d="M73.7,35.8c-0.8,0-1.7-0.3-2.7-0.9c-0.3-0.2-0.7-0.4-1-0.6c-1.4-0.9-2.4-1.6-4.1-1.5l-0.3,0c-3.1,0.1-6,0.3-9.1-0.8
		c-0.3-0.1-0.5-0.4-0.4-0.8c0.1-0.3,0.4-0.5,0.8-0.4c2.9,1,5.6,0.9,8.7,0.7l0.3,0c2.1-0.1,3.4,0.8,4.8,1.7c0.3,0.2,0.6,0.4,1,0.6
		c1,0.6,2,0.8,2.6,0.6c0.4-0.2,0.7-0.5,0.8-1.1c0.6-2-1.1-4.3-3-5.2c-1.2-0.5-2.4-0.7-3.8-0.9c-1.2-0.2-2.4-0.3-3.5-0.8
		c-2-0.8-3.6-2.2-5.3-4.5c-0.3-0.4-0.6-0.9-1-1.4c-1.9-2.8-4.1-6.1-7.7-5.8c-0.3,0-0.6-0.2-0.6-0.5c0-0.3,0.2-0.6,0.5-0.6
		c4.2-0.3,6.7,3.4,8.7,6.3c0.3,0.5,0.6,0.9,0.9,1.4c1.5,2.1,3,3.4,4.8,4.1c1,0.4,2.1,0.5,3.3,0.7c1.4,0.2,2.8,0.4,4.1,1
		c2.4,1.2,4.5,4,3.7,6.6c-0.3,1.1-1,1.6-1.6,1.8C74.4,35.8,74.1,35.8,73.7,35.8z"/>
</g>
<g>
	<path d="M49.9,17.7c-0.3,0-0.5-0.2-0.6-0.5c-0.2-1-0.2-2.1,0-3.2c0.8-3.6,4.3-7,7.9-7.8c2.6-0.6,4.5-0.5,6.4,0.2
		c0.8,0.3,1.1,0.2,1.1,0.2c0.1-0.2,0-1-0.8-2c-3.3-4.1-8.6-3.6-12.4-1.3c-3.8,2.3-6.5,6.5-7.2,11c-0.1,0.8-0.1,1.7-0.1,2.5
		c0,0.3-0.2,0.6-0.6,0.6c-0.3,0-0.6-0.2-0.6-0.6c0-0.9,0-1.8,0.1-2.7c0.7-4.9,3.6-9.4,7.7-11.9C55.2-0.2,61.2-0.7,64.9,4
		c0.9,1.1,1.5,2.6,0.8,3.4c-0.4,0.6-1.3,0.7-2.5,0.2C61.5,7,59.8,7,57.5,7.5c-3.2,0.7-6.3,3.7-7,6.9c-0.2,0.9-0.2,1.8,0,2.7
		c0.1,0.3-0.1,0.6-0.4,0.7C50,17.7,49.9,17.7,49.9,17.7z"/>
</g>
</svg>
