<?xml version="1.0" encoding="utf-8"?>
<!-- Generator: Adobe Illustrator 21.1.0, SVG Export Plug-In . SVG Version: 6.00 Build 0)  -->
<svg version="1.1" id="Layer_1" xmlns="http://www.w3.org/2000/svg" xmlns:xlink="http://www.w3.org/1999/xlink" x="0px" y="0px"
	 viewBox="0 0 100 100" style="enable-background:new 0 0 100 100;" xml:space="preserve">
<style type="text/css">
	.st0{fill:#EA9A65;}
</style>
<g>
	<path class="st0" d="M91.2,76.5c5.3,2.8-2.9,9.3-6.7,8.6c-4.5-0.9-7.8-5.8-9.1-10.4c0-3.1,0.1-6.2,0.8-9.4c0.2-0.8,0.4-1.5,0.6-2.3
		l0.4,0.1c-0.5,4.4,1.9,16.4,7.9,17.2C87.2,80.5,91.6,76.7,91.2,76.5z"/>
</g>
<g>
	<path class="st0" d="M26.3,60.5c3.6-6.4,1.2-14.8,1.4-21.7c0.2-7.9,1.8-15.9,5.7-22.9C40.5,3,54.3-1.2,67.3,5.5
		C80,12,83.6,26.6,82.2,40.2c-0.8,7.7-3.5,15.2-5.4,22.7c-0.2,0.8-0.4,1.5-0.6,2.3c-0.7,3.2-0.8,6.3-0.8,9.4c0.1,4.6,0.5,9-0.2,13.6
		c-0.5,3.5-8.7,14.9-10.6,6.4c-0.5-2.2,2.9-3.2,2.8-4.5c-0.3-2.2-1.6-3.2-2.8-5.6c-4-8-4.9-11.6-3.2-20.5c1.2-6.4,4-13.5,3.5-20.1
		c-0.4-5.2-3.2-11.8-9.5-8.1c-6.5,3.8-4.9,15-4.1,21c0.5,3.2,10.7,44.8-0.4,40.5l-0.5,0c-0.3,0.3-0.7,0.5-1.1,0.8
		c-8.3,5.3-7-17.5-11-25l0,0c-0.2,1.9-1,11.9-3,18.9c0,0,0,0,0,0.1v0c-0.6,2-1.3,3.7-2.1,4.9c0.1-0.4-0.1-0.9-0.6-1.5
		c-0.9-1-5.4-2.1-4.6,0.8c-1-3-1.1-6.1-1.5-9.1c0-1.5-0.1-2.8-0.5-4c-0.3-0.9-0.7-1.8-1.2-2.6c-1.3-3-3.1-5.3-3.9-8.9
		c0,2.3,0.8,4.1,1.8,5.7l-1,0.6c-3.3,0,0.5,27.5-8.6,18C5.5,88.1,15.2,60.2,26.3,60.5z M32.7,77.2c1.3-0.6,1.4-1.3,0.3-2.3
		c-1.4-0.4-2.3,2-0.7,2.3C32.4,77.3,32.5,77.2,32.7,77.2L32.7,77.2z M26.1,78.2c1.7,0,0.7-2.6-0.6-2.4C23.9,76,24.8,78.3,26.1,78.2z
		"/>
</g>
<g>
	<path d="M38.4,73c0.2,1.7-0.8,11.9-3,18.9C37.4,84.9,38.2,74.9,38.4,73z"/>
</g>
<g>
	<path d="M33.2,96.9c0.8-1.2,1.5-2.9,2.1-4.9c-0.6,2.3-1.4,4.2-2.3,5.4C33.2,97.2,33.2,97,33.2,96.9L33.2,96.9z"/>
</g>
<g>
	<path d="M32.7,95.4c0.5,0.5,0.6,1,0.6,1.5v0c-0.4,0.5-0.7,1-1.1,1.3c-0.9,0.4-2.1,0.4-3-0.2c0.5,0.4,0.9,0.6,1.3,0.7
		c-0.5-0.1-1-0.3-1.6-0.9c-2.6-2.4-2.2-6.9-2.3-10.8c0.4,3,0.5,6.2,1.5,9.1C27.3,93.3,31.8,94.4,32.7,95.4z M28.4,97
		c0-0.1,0-0.2-0.1-0.3c0-0.1-0.1-0.2-0.2-0.3C28.2,96.6,28.3,96.8,28.4,97z"/>
</g>
<g>
	<path d="M33,74.9c1.1,0.9,1,1.7-0.3,2.3l0,0c-0.1,0-0.3,0.1-0.4,0C30.7,76.9,31.6,74.5,33,74.9z"/>
</g>
<g>
	<path d="M32.8,97.7c0.1-0.1,0.2-0.2,0.3-0.4C33,97.5,32.9,97.6,32.8,97.7z"/>
</g>
<g>
	<path d="M32.1,98.1c0.2-0.1,0.5-0.3,0.6-0.4c-0.7,0.8-1.4,1.1-2.3,1C31.1,98.8,31.6,98.6,32.1,98.1z"/>
</g>
<g>
	<path d="M25.5,75.7c1.3-0.2,2.4,2.4,0.6,2.4C24.8,78.3,23.9,76,25.5,75.7z"/>
</g>
<g>
	<path d="M26.1,83.1c0.4,1.1,0.5,2.5,0.5,4c-0.2-1.7-0.5-3.4-1.1-5c-0.2-0.5-0.4-1-0.6-1.5C25.4,81.3,25.8,82.2,26.1,83.1z"/>
</g>
<g>
	<path d="M21,71.6c0.8,3.6,2.6,5.9,3.9,8.9c-0.6-1.1-1.4-2.1-2.1-3.2C21.8,75.7,21,74,21,71.6z"/>
</g>
<g>
	<path d="M30.5,99.4C30.5,99.4,30.4,99.4,30.5,99.4c-0.8-0.1-1.4-0.4-2.1-1c-0.3-0.3-0.3-0.7,0-1c0.3-0.3,0.7-0.3,1,0
		c0.4,0.4,0.8,0.6,1.2,0.7c0.4,0,0.7,0.4,0.6,0.8C31.1,99.1,30.8,99.4,30.5,99.4z"/>
</g>
<g>
	<path d="M30.7,99.4c-0.1,0-0.2,0-0.3,0c-0.4,0-0.7-0.4-0.6-0.8c0-0.4,0.4-0.7,0.8-0.6c0.4,0,0.7-0.1,1.1-0.4c0.3-0.3,0.7-0.6,1-1.1
		c0.2-0.3,0.7-0.4,1-0.2c0.3,0.2,0.4,0.7,0.2,1c-0.4,0.6-0.8,1.1-1.3,1.4C32,99.2,31.4,99.4,30.7,99.4z"/>
</g>
<g>
	<path d="M33.2,97.6c-0.1,0-0.3,0-0.4-0.1c-0.3-0.2-0.4-0.7-0.2-1c0.7-1.1,1.4-2.7,2.1-4.7c0.1-0.4,0.5-0.6,0.9-0.5
		c0.4,0.1,0.6,0.5,0.5,0.9c-0.7,2.2-1.4,3.9-2.2,5.1C33.7,97.5,33.5,97.6,33.2,97.6z"/>
</g>
<g>
	<path d="M35.4,92.6c-0.1,0-0.1,0-0.2,0c-0.4-0.1-0.6-0.5-0.5-0.9c1.8-6.2,2.6-15.1,2.9-18l0.1-0.7c0-0.4,0.3-0.6,0.7-0.6
		c0,0,0,0,0,0c0.4,0,0.7,0.3,0.7,0.6c0.2,1.9-0.9,12.3-3,19.2C36,92.4,35.7,92.6,35.4,92.6z"/>
</g>
<g>
	<path d="M35.4,92.7c-0.4,0-0.7-0.3-0.7-0.7c0-0.1,0-0.2,0.1-0.3c0.1-0.4,0.5-0.6,0.9-0.4c0.4,0.1,0.6,0.5,0.5,0.9
		C36,92.4,35.7,92.7,35.4,92.7z"/>
</g>
<g>
	<path d="M30.9,99.4c-0.2,0-0.4,0-0.6-0.1c-0.4-0.1-0.6-0.5-0.5-0.9c0.1-0.4,0.5-0.6,0.9-0.5c0.3,0.1,0.9,0.1,1.6-0.7
		c0.1-0.1,0.2-0.2,0.3-0.3c0.8-1.1,1.5-2.8,2.2-5.2c0.1-0.4,0.5-0.6,0.9-0.5c0.4,0.1,0.6,0.5,0.5,0.9c-0.7,2.6-1.5,4.4-2.4,5.6
		c-0.1,0.1-0.2,0.3-0.3,0.4C32.6,99,31.8,99.4,30.9,99.4z"/>
</g>
<g>
	<path d="M30.5,99.4c-0.1,0-0.1,0-0.2,0c-0.3-0.1-0.6-0.4-0.6-0.7c0-0.4,0.3-0.7,0.7-0.7c0,0,0,0,0,0c0.2,0,0.4,0.1,0.5,0.2
		c0.3,0.3,0.3,0.7,0,1C30.9,99.3,30.7,99.4,30.5,99.4z"/>
</g>
<g>
	<path d="M30.5,99.4c0,0-0.1,0-0.1,0c-0.5-0.1-1.1-0.4-1.6-0.9c-0.1,0-0.2-0.1-0.3-0.2c-2.5-2.3-2.5-6.2-2.5-9.7c0-0.5,0-1.1,0-1.6
		c-0.2-1.5-0.4-3.2-1-4.8c-0.2-0.5-0.4-0.9-0.6-1.4c-0.4-0.6-0.8-1.2-1.1-1.8c-0.3-0.4-0.6-0.9-0.9-1.3c-1-1.6-2-3.5-2-6.1
		c0-0.4,0.3-0.7,0.6-0.7c0.4,0,0.7,0.2,0.8,0.6c0.5,2.3,1.5,4.1,2.5,6c0.5,0.9,0.9,1.8,1.4,2.8c0.6,1,1,1.8,1.2,2.7
		c0.4,1.3,0.5,2.8,0.5,4.1c0.1,0.7,0.1,1.3,0.2,2c0.2,1.6,0.3,3.3,0.7,4.9c1.4-0.8,4.1,0.1,5,1c0.7,0.8,0.8,1.5,0.8,2c0,0,0,0,0,0
		c0,0.3-0.1,0.5-0.3,0.7c-0.1,0.2-0.2,0.4-0.4,0.5c-0.3,0.2-0.6,0.4-0.9,0.6C32,99,31.5,99.1,31,99.1C30.9,99.3,30.7,99.4,30.5,99.4
		z M29.3,97.3c0.1,0,0.2,0.1,0.2,0.1c0.6,0.5,1.6,0.4,2.3,0.1c0.2-0.1,0.3-0.2,0.5-0.3c0.1-0.1,0.1-0.1,0.2-0.2
		c0-0.1,0.1-0.1,0.1-0.2c0,0,0,0,0,0c0-0.2-0.1-0.5-0.4-0.9c-0.5-0.5-2.5-1.1-3.3-0.7c-0.1,0-0.3,0.2-0.1,0.8c0.1,0.2,0,0.4-0.1,0.6
		C28.9,96.8,29.1,97,29.3,97.3z"/>
</g>
<g>
	<path d="M28.4,97.7c-0.3,0-0.5-0.2-0.6-0.4c-0.1-0.2-0.2-0.4-0.3-0.6c-0.1-0.3,0-0.6,0.3-0.8c0.3-0.2,0.6-0.2,0.9,0
		c0.2,0.2,0.4,0.4,0.4,0.7c0,0,0,0,0,0c0,0,0,0.1,0,0.2c0.1,0.4-0.1,0.7-0.4,0.9C28.6,97.7,28.5,97.7,28.4,97.7z M27.6,96.8
		C27.6,96.8,27.6,96.8,27.6,96.8C27.6,96.8,27.6,96.8,27.6,96.8z"/>
</g>
<g>
	<path d="M16.5,98.7c-1.1,0-2.3-0.7-3.8-2.2c-4.6-4.8-3.3-15.9,0.5-24.3c3.5-7.9,8.4-12.5,13.1-12.4c0.1,0,0.1,0,0.2,0
		c0.4,0,0.7,0.3,0.7,0.7c0,0.4-0.3,0.7-0.7,0.7c0,0-0.1,0-0.1,0c0,0,0,0-0.1,0c-4.1-0.1-8.6,4.3-11.9,11.6
		c-3.5,7.8-4.9,18.5-0.7,22.7c1.3,1.4,2.4,2,3.1,1.7c1.9-0.7,2.3-6.9,2.6-11.4c0.3-5.2,0.6-8.6,2.5-8.6c0.1,0,0.1,0,0.3,0
		c0.4,0.1,0.6,0.5,0.6,0.8c-0.1,0.4-0.4,0.6-0.8,0.6c-0.6,0.5-0.9,4.6-1.1,7.3c-0.4,5.7-0.8,11.6-3.5,12.6
		C17,98.7,16.8,98.7,16.5,98.7z"/>
</g>
<g>
	<path d="M47.2,99.5c-0.4,0-0.9-0.1-1.3-0.3c-3.1-1.4-4.1-7.7-5.2-14.3c-0.7-4.4-1.5-9-2.9-11.6c-0.4-0.8-0.9-1.3-1.4-1.7
		c-0.3-0.2-0.4-0.6-0.2-1c0.2-0.3,0.6-0.4,1-0.2c0.7,0.4,1.4,1.2,1.9,2.2c1.5,2.8,2.2,7.5,3,12c0.9,5.7,2,12.2,4.4,13.2
		c0.7,0.3,1.6,0.1,2.6-0.5c0.3-0.2,0.6-0.4,1-0.7c1.8-1.5,2.8-3.7,2.9-6.3c0.6-9.6-9.5-23.9-14.2-29c-0.3-0.3-0.3-0.7,0-1
		c0.3-0.3,0.7-0.3,1,0c4.8,5.2,15.1,19.9,14.5,30c-0.2,3.1-1.3,5.6-3.4,7.3c-0.4,0.3-0.8,0.6-1.1,0.9C48.9,99.2,48,99.5,47.2,99.5z"
		/>
</g>
<g>
	<path d="M67.2,98.3c-1.1,0-2.5-0.6-3.2-3.6c-0.4-1.7,0.9-2.8,1.9-3.6c0.3-0.3,0.9-0.7,0.9-0.9c-0.1-1.2-0.7-2.1-1.4-3.1
		c-0.4-0.6-0.9-1.4-1.3-2.3c-4.1-8.2-5-11.9-3.2-21c0.4-1.9,0.9-3.9,1.4-5.9c1.2-4.7,2.4-9.5,2.1-14c-0.2-3-1.3-6.9-3.7-8.1
		c-1.3-0.7-2.9-0.5-4.8,0.6c-6.1,3.6-4.6,14.4-3.8,20.3c0.1,0.4,0.3,1.4,0.6,2.9c3.3,15.6,6.5,34.1,1.9,38c-0.7,0.6-1.9,1.1-3.8,0.4
		c-0.4-0.1-0.5-0.6-0.4-0.9c0.1-0.4,0.6-0.6,0.9-0.4c1,0.4,1.8,0.3,2.4-0.2c3-2.6,2.2-14.9-2.4-36.6c-0.3-1.5-0.5-2.6-0.6-3
		c-0.9-6.2-2.5-17.6,4.5-21.7c2.3-1.3,4.4-1.6,6.1-0.6c2.9,1.5,4.2,5.8,4.5,9.3c0.4,4.8-0.9,9.7-2.1,14.5c-0.5,2-1,4-1.4,5.9
		c-1.7,8.7-0.8,12.1,3.1,20.1c0.4,0.8,0.8,1.5,1.2,2.1c0.8,1.2,1.4,2.2,1.6,3.7c0.1,0.9-0.6,1.5-1.4,2.2c-1,0.8-1.6,1.4-1.4,2.2
		c0.4,1.7,1,2.5,1.9,2.5c2.6-0.1,7-6.5,7.3-8.9c0.5-3.3,0.4-6.6,0.3-10.1c0-1.1-0.1-2.2-0.1-3.4c0-2.8,0-6,0.8-9.5
		c0.2-0.8,0.4-1.5,0.6-2.3c0.5-2.2,1.2-4.3,1.8-6.5c1.5-5.3,3.1-10.7,3.6-16.2c1.6-15.8-3.8-28.6-14.5-34C54.3-0.4,41,3.7,34,16.3
		c-3.5,6.4-5.4,14-5.6,22.6c0,2,0.1,4.1,0.3,6.3c0.4,5.4,0.9,11.1-1.8,15.8L26.9,61c-0.2,0.3-0.6,0.4-1,0.2c-0.3-0.2-0.4-0.6-0.2-1
		l0-0.1c2.5-4.4,2.1-9.8,1.6-15C27.1,43,27,40.9,27,38.8c0.2-8.8,2.1-16.6,5.8-23.2C40.2,2.2,54.2-2.1,67.7,4.8
		c11.2,5.8,16.9,19,15.3,35.5c-0.6,5.6-2.1,11.1-3.7,16.4c-0.6,2.1-1.2,4.3-1.8,6.4c-0.2,0.8-0.4,1.5-0.6,2.3
		c-0.8,3.3-0.8,6.5-0.8,9.2c0,1.1,0.1,2.2,0.1,3.4c0.1,3.4,0.3,6.9-0.3,10.3c-0.4,2.6-5,9.9-8.7,10.1C67.3,98.3,67.3,98.3,67.2,98.3
		z"/>
</g>
<g>
	<path d="M85.2,85.8c-0.3,0-0.5,0-0.8-0.1c-4.8-0.9-8.3-6.2-9.6-11c-0.3-1.2-0.5-2.3-0.6-3.4c0-0.4,0.3-0.7,0.7-0.7
		c0.4,0,0.7,0.3,0.7,0.7c0,0.9,0.2,2,0.5,3.1c1.2,4.2,4.3,9.1,8.5,9.9c2.3,0.4,6.6-2.3,7.4-4.7c0.3-0.9,0.1-1.6-0.7-2.2
		c-1.2,1.4-4.5,3.7-6.4,3.4c-6.8-0.9-9-13.8-8.5-17.9c0-0.4,0.4-0.7,0.8-0.6c0.4,0,0.7,0.4,0.6,0.8c-0.6,4.5,2,15.7,7.3,16.4
		c1.4,0.2,4.7-2.4,5.3-3.1c0-0.1,0-0.1,0.1-0.2c0.2-0.3,0.6-0.5,1-0.3c1.8,0.9,2.5,2.5,1.9,4.2C92.4,83,88.2,85.8,85.2,85.8z"/>
</g>
</svg>
