<?xml version="1.0" encoding="utf-8"?>
<!-- Generator: Adobe Illustrator 21.1.0, SVG Export Plug-In . SVG Version: 6.00 Build 0)  -->
<svg version="1.1" id="Layer_1" xmlns="http://www.w3.org/2000/svg" xmlns:xlink="http://www.w3.org/1999/xlink" x="0px" y="0px"
	 viewBox="0 0 100 100" style="enable-background:new 0 0 100 100;" xml:space="preserve">
<style type="text/css">
	.st0{fill:#EA9A65;}
</style>
<g>
	<path class="st0" d="M69.1,17.6c-1.8,1.4-4.3,2.9-4.8,4.9c-0.3,1.4,0.1,3.3,0.2,4.8c0.1,2,0.2,4.1,0.4,6.1l0,0.1
		c1.7-0.7,3.5-1.1,5.3-0.8c2.4,0.3,5.7,1.9,5.3,4.8c-0.1,0.7-0.5,1.4-1,1.9c-0.5,0.5-1.3,0.7-2.1,0.5c-1.4-0.3-1.9-1.8-3.5-1.7
		c-1.5,0.1-2.8,1.1-4,2.3l0.3,0.1c0.1,1.8,0.1,3.6,0.2,5.4c0.2,5.6,0.2,11.2,0.2,16.8c-0.1,7.3-0.1,14.8-1.2,21.9h0
		c1.3,2.5,1.8,5.5,0.7,7.9c2.3-1,5.3-0.9,7.4,0.6c2.5,1.7,1,3.4-1.2,4.1c-5.6,1.9-12.4,1.4-18.2,0.1c-4.3,0.6-8.5-0.4-12.7-1.5
		c-3.6-0.9-6.5,0.9-10.1,1C27.2,97,24,96.2,21.8,94c-2.7-2.6-4-7.2-1.9-10.6c0.6-1,1.4-1.9,2-0.7c0.6,1.1,0.5,2.9,0.8,4.2
		c0.8,2.8,2.2,4.6,5.1,5.2c7.6,1.4,11.8-5.5,13.7-11.7c3-9.6,3.2-19.6,3.2-29.6l-0.1-0.2c-1.5,0.7-3.2,0.6-4.4-1
		c-2.4-3.4,1.3-8.4,2.4-11.6c2.1-5.9,2.4-12.6,3.3-18.8L45.9,19c0-2.3,0-5.9,2.1-7.5c2.2-1.7,6.2-0.7,8.8-1.2
		C60.5,9.7,64,8.3,67,6.2c1.1-0.7,2.5-2.4,4.1-3.7c0,0.2,0,0.4,0.2,0.7C71.7,3.9,73,3.8,73.7,4c0,0,0,0,0,0c0.7,0.7,1.4,0.5,1.9,0
		c0.5-0.5,0.6-1.5,0-2.1c-0.7-0.7-1.6-0.8-2.5-0.7c0.6-0.2,1.1-0.3,1.6-0.1c3.4,1.1,1.9,6.4,0.8,8.7c-1.3,2.8-3.5,5.2-5.8,7.2
		C69.5,17.2,69.3,17.4,69.1,17.6z M55.8,16.5c2.9,0.3,2.1-4-0.5-3.2c-0.8,0.2-1.5,1.3-1.1,2.2C54.4,16.2,55.1,16.3,55.8,16.5z"/>
</g>
<g>
	<path d="M75.5,1.9c0.7,0.7,0.5,1.6,0,2.1c-0.5,0.1-1.2,0.1-1.9,0c0,0,0,0,0,0c-0.6-0.3-2-0.1-2.4-0.8C71.1,3,71,2.7,71.1,2.5
		c0.7-0.5,1.3-1,2-1.3C73.9,1.1,74.9,1.3,75.5,1.9z"/>
</g>
<g>
	<path class="st0" d="M75.1,39.4c1.4,2,0,5.2-2.5,5.4c-1.4,0.1-1.8-0.9-2.9-1.2c-1.4-0.4-3.1,1.4-4,2.4l-0.4,0
		c-0.1-1.8-0.1-3.6-0.2-5.4l-0.3-0.1c1.2-1.2,2.5-2.2,4-2.3c1.5-0.1,2.1,1.4,3.5,1.7c0.8,0.2,1.5-0.1,2.1-0.5L75.1,39.4z"/>
</g>
<g>
	<path d="M73.7,4.1c0.7,0.1,1.4,0.1,1.9,0C75.1,4.6,74.3,4.8,73.7,4.1z"/>
</g>
<g>
	<path d="M72.2,1.6c0.3-0.1,0.6-0.2,0.9-0.3c-0.7,0.2-1.3,0.7-2,1.3C71.2,2.1,71.7,1.8,72.2,1.6z"/>
</g>
<g>
	<path d="M55.2,13.2c2.6-0.7,3.5,3.5,0.5,3.2c-0.7-0.2-1.4-0.3-1.7-1.1C53.8,14.5,54.4,13.5,55.2,13.2z"/>
</g>
<g>
	<path d="M50.5,98.2c-3.4,0-6.8-0.8-10.2-1.7c-2.1-0.5-3.9-0.1-5.9,0.3c-1.3,0.3-2.6,0.6-4.1,0.7c-3.5,0.1-6.8-1-9-3.1
		c-2.8-2.7-4.3-7.6-2-11.3c0.4-0.7,1.1-1.5,1.9-1.5c0,0,0,0,0,0c0.3,0,0.8,0.2,1.2,0.9c0.4,0.8,0.5,1.8,0.6,2.7
		c0.1,0.6,0.1,1.2,0.2,1.6c0.8,2.9,2.2,4.3,4.6,4.7c7.8,1.5,11.5-6.4,13-11.3c3-9.4,3.2-19.3,3.2-29.4c0-0.3,0.3-0.6,0.6-0.6
		c0,0,0,0,0,0c0.3,0,0.6,0.3,0.6,0.6c0,10.2-0.2,20.2-3.2,29.8c-2.8,8.9-8.1,13.3-14.4,12.1c-2.9-0.5-4.7-2.3-5.6-5.6
		c-0.2-0.6-0.2-1.2-0.3-1.8c-0.1-0.8-0.2-1.7-0.5-2.3c-0.1-0.2-0.2-0.2-0.2-0.2c0,0-0.3,0.1-0.8,1c-2,3.1-0.6,7.5,1.8,9.8
		c1.9,1.8,4.9,2.8,8.1,2.7c1.3,0,2.6-0.3,3.8-0.6c2-0.5,4.1-1,6.5-0.3c4.2,1.1,8.4,2,12.4,1.5l0.2,0c0.3,0,0.6,0.2,0.7,0.5
		c0,0.3-0.2,0.6-0.5,0.7l-0.2,0C52.3,98.1,51.4,98.2,50.5,98.2z"/>
</g>
<g>
	<path d="M64.9,34c-0.3,0-0.6-0.2-0.6-0.6c-0.1-1.2-0.2-2.5-0.3-3.7c0-0.8-0.1-1.6-0.2-2.4c0-0.4-0.1-0.8-0.1-1.3
		c-0.2-1.2-0.3-2.5-0.1-3.7c0.5-1.9,2.4-3.3,4.1-4.6c0.3-0.2,0.7-0.5,1-0.7c0.2-0.2,0.4-0.4,0.6-0.5c2.8-2.5,4.6-4.7,5.7-7
		c0.7-1.4,1.7-4.7,0.9-6.6c-0.3-0.6-0.7-1-1.4-1.2c-0.4-0.1-0.8-0.1-1.2,0.1C72.8,2,72.2,2.4,71.5,3c-0.7,0.6-1.3,1.2-1.9,1.8
		c-0.8,0.8-1.5,1.5-2.2,1.9c-3.1,2-6.7,3.5-10.4,4.2c-1,0.2-2.1,0.2-3.3,0.2c-2,0-4,0-5.2,0.9c-1.8,1.4-1.8,4.6-1.9,6.8l0,0.2
		c0,0.3-0.3,0.6-0.6,0.6c-0.3,0-0.6-0.3-0.6-0.6l0-0.2c0-2.4,0.1-6,2.4-7.8c1.6-1.2,3.8-1.2,6-1.2c1.1,0,2.2,0,3.1-0.1
		c3.6-0.7,7-2.1,9.9-4c0.5-0.4,1.2-1.1,2-1.8c0.6-0.6,1.3-1.3,2-1.9c0.8-0.7,1.5-1.1,2.2-1.4c0.7-0.3,1.4-0.3,2-0.1
		c1,0.3,1.7,1,2.1,1.9c1,2.3-0.1,5.8-0.9,7.6c-1.2,2.5-3,4.8-6,7.4c-0.2,0.2-0.5,0.4-0.7,0.6c-0.3,0.2-0.7,0.5-1,0.7
		c-1.5,1.1-3.2,2.4-3.6,3.9c-0.2,0.9-0.1,2.1,0.1,3.2c0.1,0.5,0.1,0.9,0.1,1.3c0.1,0.8,0.1,1.6,0.2,2.4c0.1,1.2,0.2,2.5,0.3,3.7
		C65.5,33.7,65.3,34,64.9,34C64.9,34,64.9,34,64.9,34z"/>
</g>
<g>
	<path d="M64.4,85.3C64.3,85.3,64.3,85.3,64.4,85.3c-0.4-0.1-0.7-0.4-0.6-0.7c1.1-7,1.2-14.4,1.2-21.5l0-0.3c0-5.4,0-11-0.2-16.8
		c-0.1-1.8-0.1-3.6-0.2-5.4c0-0.3,0.3-0.6,0.6-0.6c0.3,0,0.6,0.3,0.6,0.6c0.1,1.8,0.1,3.6,0.2,5.4c0.2,5.8,0.2,11.4,0.2,16.8l0,0.3
		c-0.1,7.2-0.1,14.6-1.2,21.7C64.9,85.1,64.7,85.3,64.4,85.3z"/>
</g>
<g>
	<path d="M62,45.6c-0.1,0-0.2,0-0.3-0.1c-0.3-0.1-0.4-0.5-0.3-0.8c0.4-0.8,1.4-2.9,3.1-4.6c1.4-1.5,2.9-2.4,4.4-2.5
		c1.1-0.1,1.8,0.5,2.4,1c0.4,0.3,0.8,0.6,1.2,0.7c0.5,0.1,1.1,0,1.5-0.4c0.4-0.4,0.7-0.9,0.8-1.5c0.1-0.7-0.1-1.4-0.5-2
		c-0.9-1.2-2.8-1.9-4.2-2.1c-1.6-0.2-3.3,0.1-5,0.8c-1.5,0.6-2.9,1.5-4,2.6c-0.2,0.2-0.6,0.2-0.9,0c-0.2-0.2-0.2-0.6,0-0.9
		c1.3-1.2,2.8-2.2,4.4-2.9c1.9-0.8,3.8-1.1,5.6-0.9c1.6,0.2,3.8,1,5,2.6c0.7,0.9,0.9,1.9,0.8,2.9c-0.1,0.9-0.6,1.7-1.3,2.3
		c-0.7,0.6-1.6,0.9-2.6,0.7c-0.7-0.2-1.3-0.6-1.7-1c-0.6-0.5-1-0.8-1.5-0.7c-1.2,0.1-2.4,0.8-3.6,2.1c-1.1,1.1-2.2,2.7-2.9,4.3
		C62.4,45.5,62.2,45.6,62,45.6z"/>
</g>
<g>
	<path d="M65.8,46.6c-0.1,0-0.3-0.1-0.4-0.2c-0.3-0.2-0.3-0.6-0.1-0.9c1-1.1,2.8-3.1,4.6-2.6c0.5,0.2,0.9,0.4,1.2,0.7
		c0.5,0.3,0.8,0.6,1.4,0.5c0.9-0.1,1.7-0.7,2.2-1.6c0.5-1,0.4-2-0.2-2.8c-0.2-0.3-0.1-0.7,0.2-0.9c0.3-0.2,0.7-0.1,0.9,0.2
		c0.8,1.1,0.9,2.7,0.3,4c-0.6,1.3-1.8,2.2-3.2,2.3c-1.1,0.1-1.7-0.4-2.2-0.7c-0.3-0.2-0.6-0.4-0.9-0.5c-1.1-0.3-2.6,1.4-3.3,2.2
		C66.1,46.5,65.9,46.6,65.8,46.6z"/>
</g>
<g>
	<path d="M62.7,99.2c-3.9,0-7.5-0.6-9.8-1.2c-0.5-0.1-0.9-0.2-1.3-0.3c-0.3-0.1-0.5-0.4-0.4-0.8c0.1-0.3,0.4-0.5,0.8-0.4
		c0.4,0.1,0.9,0.2,1.3,0.3c3.9,0.9,11.3,2.1,17.9-0.1c1.2-0.4,2-1,2.1-1.6c0.1-0.5-0.5-1.1-1-1.4c-1.8-1.3-4.6-1.5-6.9-0.5
		c-0.2,0.1-0.5,0-0.7-0.1c-0.2-0.2-0.2-0.5-0.1-0.7c0.9-2,0.7-4.7-0.7-7.3c-0.6-1.1-1.3-2.1-2-2.9c-3-3.2-7.9-3-11.2-1.9
		c-0.3,0.1-0.7-0.1-0.8-0.4c-0.1-0.3,0.1-0.7,0.4-0.8c3.6-1.3,9.1-1.5,12.5,2.2c0.9,0.9,1.6,2,2.2,3.2c1.3,2.5,1.7,5.1,1.1,7.2
		c2.4-0.6,5-0.2,6.8,1.1c1.4,1,1.6,2,1.5,2.6c-0.2,1.1-1.2,2-2.9,2.6C68.6,98.8,65.6,99.2,62.7,99.2z"/>
</g>
<g>
	<path d="M42.9,51.7c-1.2,0-2.3-0.6-3.2-1.7c-2-2.8-0.2-6.6,1.2-9.6c0.4-0.9,0.9-1.8,1.1-2.6c1.5-4.4,2.1-9.3,2.7-14
		c0.2-1.5,0.4-3.1,0.6-4.6c0-0.3,0.4-0.6,0.7-0.5c0.3,0,0.6,0.4,0.5,0.7c-0.2,1.5-0.4,3.1-0.6,4.6c-0.6,4.8-1.1,9.8-2.7,14.3
		c-0.3,0.8-0.7,1.7-1.2,2.7c-1.4,2.8-2.9,6.1-1.3,8.3c1.2,1.7,2.8,1.2,3.6,0.8c0.6-0.3,1.2-0.7,1.7-1.2c1.8-1.9,2.4-4.7,2.8-7.5
		c0.9-6.5,1-13.4,0.2-20.5c0-0.3,0.2-0.6,0.5-0.7c0.3,0,0.6,0.2,0.7,0.5c0.8,7.2,0.8,14.2-0.2,20.8c-0.4,2.9-1.1,6-3.1,8.1
		c-0.6,0.7-1.3,1.2-2.1,1.5C44.2,51.5,43.6,51.7,42.9,51.7z"/>
</g>
<g>
	<path d="M74.8,4.7c-0.4,0-0.8,0-1.2-0.1c-1.1-0.1-2.6-0.4-3-0.6c-0.3-0.2-0.4-0.5-0.2-0.8c0.2-0.3,0.5-0.4,0.8-0.2
		c0.2,0.1,1.3,0.4,2.6,0.5c0.7,0.1,1.3,0.1,1.8,0c0.2,0,0.3-0.1,0.4-0.1c0-0.3,0.1-0.6,0.4-0.7c0.3-0.1,0.7,0.1,0.8,0.4
		c0.1,0.4,0,0.7-0.1,0.9c-0.2,0.4-0.7,0.6-1.3,0.7C75.4,4.7,75.1,4.7,74.8,4.7z"/>
</g>
<g>
	<path d="M67.7,18.4c-1.3,0-2.7-0.5-3.7-1.3c-0.3-0.2-0.3-0.6-0.1-0.9c0.2-0.3,0.6-0.3,0.9-0.1c1.1,0.9,2.7,1.3,4.1,0.9
		c0.1,0,0.1,0,0.2,0l0.2,0.6l0.2,0.6c-0.1,0-0.2,0.1-0.3,0.1C68.7,18.3,68.2,18.4,67.7,18.4z"/>
</g>
</svg>
