<?xml version="1.0" encoding="utf-8"?>
<!-- Generator: Adobe Illustrator 21.1.0, SVG Export Plug-In . SVG Version: 6.00 Build 0)  -->
<svg version="1.1" id="Layer_1" xmlns="http://www.w3.org/2000/svg" xmlns:xlink="http://www.w3.org/1999/xlink" x="0px" y="0px"
	 viewBox="0 0 100 100" style="enable-background:new 0 0 100 100;" xml:space="preserve">
<style type="text/css">
	.st0{fill:#EA9A65;}
</style>
<g>
	<path class="st0" d="M62.5,66.8c-2.2,2-5.8,3.1-8.4,3.9c-2.9,0.9-5.8,1.5-8.9,1.6c-4.5,0.1-10.5-1-12.1-6c-0.6-1.8-1-5.2,1-6.4
		c1.7-1,4.2-0.4,6,0c4,0.9,7.9,3.4,12,3.6c2.7,0.2,5.4-0.2,8-0.8c1.6-0.4,4.2-0.9,5.4-2.4c0,0,0,0,0,0c2.1-4.2,5.7-8.4,11-7.1
		c0.1,0,0.2,0.1,0.3,0.1c0.8,0.3,1.6,0.7,2.2,1.2c1,0.9,1,1.5,2.5,1.3c2.1-0.3,3.8-1.6,5.3-3c1.7-1.6,3-3.4,4.3-5.3
		c0.1-0.1,0.2-0.4,0.3-0.6c0.2,0.6,1.1,1.1,1.8,1.4c3.1,1.3,3.3-4.2,1.2-4.7c-1.3-0.3-1.2,0.7-1.7,1.4c-0.1,0.2-0.3,0.3-0.5,0.4
		c0.6-1.1,1.3-2.2,1.9-2.2c1.8-0.2,2.1,4.3,2.1,5.5c-0.1,2.5-1.1,4.6-2.4,6.8c-2.8,4.9-7.9,8.3-12.7,11.1c2.2,0.8,4.8-0.6,6.7-1.6
		c1.3-0.7,3.9-3,5.5-2.8c1.8,0.2,0.4,2.6-0.3,3.5c-1.4,1.7-3.3,3.1-5.2,4.4c-1.2,0.8-2.9,1.5-3.7,2.7c-0.9,1.4-1,3.5-1.3,5.2
		c-0.2,1.6-0.3,3.2-0.5,4.9c-0.1,0.5-0.1,1.1-0.2,1.6c-0.1,0.7-0.1,1.5-0.3,2.4c-0.2,0.8-0.4,1.6-0.9,2.1l-0.1-0.1
		c-2.5,1-10.3,0.9-16.2,0.3v0l0-0.3c1.8-2.8,5.6-0.9,8.1-2.6c2.2-1.5,2.8-4.9,0.3-6.5c-2.1-1.3-5.4-0.2-7.5,0.7
		c-3.2,1.5-5,4.3-7.1,7l-1.8,0.3c-2.1-0.4-4.1-1.5-5.5-3.1l0.1-0.4c6.2-4.1,8.8-11,11.2-17.3L62.5,66.8z M71.5,64.7
		c2.3,0.2,2.5-3.4,0.3-3.5C69.4,61.1,69.2,64.6,71.5,64.7z"/>
</g>
<g>
	<path d="M94.4,43.7c2.1,0.5,1.9,6-1.2,4.7c-0.7-0.3-1.6-0.8-1.8-1.4c0.2-0.4,0.5-1,0.8-1.6c0.2-0.1,0.4-0.2,0.5-0.4
		C93.2,44.4,93.1,43.4,94.4,43.7z"/>
</g>
<g>
	<path class="st0" d="M89.1,79.7c2.3,0.5,5.3,2.9,3.7,5.4c-2.1,3.3-7.4-1.1-9.9,1.8l-1-0.2c0.2-0.8,0.2-1.7,0.3-2.4
		c0.1-0.5,0.1-1.1,0.2-1.6h0.2C82.9,80.3,87.1,79.3,89.1,79.7z"/>
</g>
<g>
	<path d="M91.8,45.8c0.2-0.2,0.3-0.2,0.4-0.3c-0.3,0.6-0.6,1.1-0.8,1.6C91.3,46.6,91.3,46.2,91.8,45.8z"/>
</g>
<g>
	<path class="st0" d="M80.3,38.9c1.8,1.9,1.8,5.8,1.7,8.2c-0.1,2.3-0.3,6.1-2.4,7.5l-0.6,0c-0.6-0.6-1.4-1-2.2-1.2l0-0.1
		c0.5-1.9,1.1-3.7,0.8-5.7c-0.3-1.5-0.8-2.9-1.1-4.4c-0.3-1.3-0.5-2.9,0.3-4C77.5,38,79.3,37.8,80.3,38.9z"/>
</g>
<g>
	<path class="st0" d="M73.2,79.7c2.5,1.6,1.9,5-0.3,6.5c-2.5,1.7-6.3-0.2-8.1,2.6l0,0.3c-2.7-0.3-5-0.7-6.2-1.2l-0.2,0
		c-0.5,0-1.1,0-1.6-0.1l1.8-0.3c2.1-2.6,3.9-5.5,7.1-7C67.7,79.5,71.1,78.3,73.2,79.7z"/>
</g>
<g>
	<path d="M71.7,61.2c2.3,0.2,2,3.7-0.3,3.5C69.2,64.6,69.4,61.1,71.7,61.2z"/>
</g>
<g>
	<path class="st0" d="M35.4,25.2c1.8,0.7,3.5,1.8,5,3.1c0.7,0.6,1.3,1.7,2,2.3c0.8,0.6,0.1,0.4,0.9,0.2c0.6-0.1,1.3-0.7,1.7-1
		c2.4-1.8,2.7-4.2,3.8-6.8c1.3-3,5.1-3.2,6.7-0.4c1.5,2.7,0.8,6.6-1.5,8.6c-2,1.6-4.6,1.9-7.1,2.4c-0.5,0.1-2.4,0.3-2.7,0.8
		c-0.2,0.3,0.6,2.7,0.6,3.4c0,0.7,0.2,1.8-0.2,2.5c-0.8,1.3-3.5,1.5-4.8,1.8c-2.8,0.6-5.7,0.9-8.6,1.1c-3,0.2-6,0.4-9,0.1
		c-1.8-0.2-3.5-0.6-5.2-1.1c-0.5-0.1-4.5-1-4.5-1.7l0.1-0.5c-0.3-1.4-0.1-3.3,0.5-4.6c0.1-0.2,0.2-0.3,0.3-0.6
		c-0.1,0.2-0.2,0.4-0.3,0.6c-0.3,0.6-0.5,0.7-1.4,0.4c-1.2-0.4-2.3-1-3.3-1.7c-1.8-1.5-3-3.5-3.8-5.7c-1.3-4-2.2-10,0.6-13.5
		c2.1-2.6,6.4-3.9,8.1-0.2c1.1,2.5,0.2,4.7-1.1,6.9c-1.2,1.9-0.7,3.6,0.8,5.3c0.8,0.9,1.8,1.7,2.9,2.1c1.6,0.5,2.1-0.5,3.3-1.4
		c2.9-2.1,6.4-3,9.9-2.8h0.6c0-1.7,0.5-3.5,1.2-4.6c1.5-2.7,3.9-4.8,6.3-6.7c2.5-1.9,5.2-3.6,7.9-5.3c1.2-0.7,2.5-1.4,3.6-2.3
		c1.4-1.1,1.6-2.5,2.5-4c0.8,2.3-1.1,5-2.4,6.7c-1.7,2.3-3.9,3.8-6,5.6C39,16.9,36,20.6,35.4,25.2z"/>
</g>
<g>
	<path d="M12.5,36.3c-0.3,0-0.6-0.1-0.9-0.2c-1.3-0.4-2.5-1-3.5-1.8c-1.8-1.4-3.1-3.4-4-6C3.4,26,1.3,18.6,4.8,14.1
		c1.5-1.9,3.8-3,5.8-2.7c1.1,0.1,2.5,0.7,3.4,2.6c1.3,3,0.1,5.4-1.2,7.5c-1,1.5-0.7,2.9,0.7,4.6c0.6,0.7,1.5,1.6,2.6,1.9
		c0.8,0.3,1.2,0,1.9-0.7c0.2-0.2,0.5-0.5,0.8-0.7c2.9-2.1,6.6-3.2,10.3-2.9c0.3,0,0.6,0.3,0.6,0.7c0,0.3-0.3,0.6-0.7,0.6
		c-3.4-0.3-6.8,0.7-9.5,2.6c-0.3,0.2-0.5,0.4-0.7,0.6c-0.8,0.7-1.6,1.4-3.1,0.9c-1.4-0.4-2.5-1.5-3.2-2.3c-1.1-1.3-2.5-3.4-0.8-6
		c1.4-2.3,2.1-4.1,1.1-6.3c-0.5-1.1-1.3-1.8-2.4-1.9c-1.5-0.2-3.5,0.7-4.7,2.3c-2.5,3.1-1.9,8.8-0.5,13c0.8,2.4,2,4.2,3.6,5.5
		c0.9,0.7,1.9,1.3,3.1,1.6c0.4,0.1,0.5,0.1,0.5,0.1c0,0,0-0.1,0.1-0.2c0.2-0.3,0.5-0.4,0.8-0.3c0.3,0.2,0.4,0.5,0.3,0.8
		C13.4,36.1,13,36.3,12.5,36.3z"/>
</g>
<g>
	<path d="M13.1,35.8c-0.1,0-0.2,0-0.2-0.1c-0.3-0.1-0.5-0.5-0.3-0.8c0.1-0.3,0.2-0.5,0.3-0.6c0.2-0.3,0.5-0.4,0.8-0.2
		c0.3,0.2,0.4,0.5,0.3,0.8c-0.1,0.2-0.2,0.3-0.2,0.4l0,0.1C13.6,35.6,13.4,35.8,13.1,35.8z"/>
</g>
<g>
	<path d="M12.7,40.4c-0.3,0-0.5-0.2-0.6-0.5c-0.3-1.5-0.1-3.5,0.5-5c0.1-0.3,0.5-0.5,0.8-0.3c0.3,0.1,0.5,0.5,0.3,0.8
		c-0.5,1.2-0.7,3-0.4,4.2c0.1,0.3-0.1,0.7-0.5,0.7C12.8,40.4,12.7,40.4,12.7,40.4z"/>
</g>
<g>
	<path d="M35.4,29.2c-0.3,0-0.6-0.2-0.6-0.5c-0.2-1.2-0.2-2.4,0-3.6c0.5-4.2,2.9-8,7.6-11.8c0.4-0.3,0.8-0.6,1.2-0.9
		c1.8-1.4,3.4-2.7,4.8-4.5c0.5-0.6,1.4-1.9,2-3.3C50,5,49.6,5.5,49.1,5.9c-0.8,0.7-1.8,1.3-2.7,1.8c-0.3,0.2-0.6,0.4-0.9,0.6
		l-0.2,0.1c-2.6,1.6-5.2,3.3-7.7,5.2c-2.3,1.7-4.8,3.8-6.2,6.5c-0.5,1-1.1,2.7-1.1,4.4c0,0.9,0.2,2.2,1.1,3c0.3,0.2,0.3,0.6,0.1,0.9
		c-0.2,0.3-0.6,0.3-0.9,0.1c-1-0.8-1.5-2.2-1.5-3.9c0-1.6,0.5-3.6,1.2-4.9c1.5-2.8,4.2-5.1,6.5-6.9c2.5-1.9,5.2-3.6,7.8-5.2l0.2-0.1
		c0.3-0.2,0.6-0.4,0.9-0.6c0.9-0.5,1.8-1.1,2.6-1.7c0.8-0.7,1.2-1.5,1.7-2.4c0.2-0.4,0.4-0.9,0.7-1.3C50.8,1,51,0.8,51.3,0.9
		c0.2,0,0.4,0.2,0.5,0.4c0.9,2.4-0.9,5.2-2.5,7.3c-1.5,1.9-3.2,3.3-5,4.8c-0.4,0.3-0.8,0.6-1.1,0.9c-4.4,3.6-6.6,7.1-7.1,11
		c-0.1,1.1-0.1,2.1,0,3.3C36.1,28.9,35.9,29.2,35.4,29.2C35.5,29.2,35.5,29.2,35.4,29.2z"/>
</g>
<g>
	<path d="M25.7,43.9c-1.2,0-2.4,0-3.6-0.2c-1.8-0.2-3.7-0.7-5.3-1.1c-0.1,0-0.2,0-0.3-0.1c-3.5-0.8-4.7-1.4-4.7-2.3
		c0-0.3,0.3-0.6,0.6-0.6c0.3,0,0.5,0.2,0.6,0.5c0.2,0.2,0.9,0.5,3.7,1.2c0.2,0,0.3,0.1,0.3,0.1c1.6,0.4,3.3,0.9,5.1,1.1
		c2.9,0.3,5.9,0.1,8.9-0.1c3.3-0.2,6.1-0.6,8.5-1c0.2,0,0.4-0.1,0.7-0.1c1.2-0.2,3.2-0.5,3.7-1.4c0.2-0.3,0.2-1.2,0.1-1.7
		c0-0.1,0-0.3,0-0.4c0-0.2-0.1-0.8-0.3-1.2c-0.4-1.5-0.5-2.1-0.2-2.5c0.4-0.6,1.4-0.8,2.7-1c0.2,0,0.3,0,0.4-0.1
		c0.3-0.1,0.7-0.1,1-0.2c2.1-0.4,4.2-0.8,5.8-2.1c2.1-1.8,2.8-5.4,1.4-7.8c-0.6-1.1-1.7-1.8-2.9-1.7c-1.2,0.1-2.2,0.8-2.7,2
		c-0.3,0.6-0.5,1.2-0.7,1.8c-0.7,1.9-1.3,3.8-3.3,5.3l-0.2,0.1c-0.5,0.4-1.2,0.9-1.8,1c-0.2,0-0.2,0.1-0.2,0.1
		c-0.1,0.1-0.3,0.2-0.5,0.1c-0.2,0-0.4-0.1-0.5-0.3c0,0-0.1-0.1-0.3-0.3c-0.5-0.3-0.8-0.9-1.2-1.4c-0.3-0.4-0.5-0.7-0.8-0.9
		c-1.4-1.3-3-2.3-4.8-3c0,0-0.1,0-0.1-0.1c-0.3-0.2-0.4-0.5-0.2-0.8c0.2-0.3,0.5-0.4,0.8-0.3c0,0,0,0,0.1,0c1.9,0.7,3.6,1.8,5.1,3.2
		c0.3,0.3,0.6,0.7,0.9,1.1c0.3,0.4,0.7,0.9,1,1.1c0.1,0.1,0.2,0.1,0.2,0.2c0.1,0,0.1,0,0.2-0.1c0.4-0.1,0.9-0.5,1.3-0.8l0.2-0.1
		c1.7-1.3,2.2-2.9,2.9-4.7c0.2-0.6,0.4-1.2,0.7-1.9c0.7-1.6,2.1-2.7,3.8-2.8c1.6-0.1,3.2,0.8,4.1,2.3c1.7,3,0.9,7.2-1.7,9.4
		c-1.8,1.5-4.1,2-6.3,2.4c-0.3,0.1-0.7,0.1-1,0.2c-0.1,0-0.3,0-0.4,0.1c-0.4,0.1-1.4,0.2-1.8,0.4c0,0.3,0.2,1.1,0.3,1.6
		c0.2,0.7,0.3,1.2,0.3,1.4c0,0.1,0,0.2,0,0.3c0,0.8,0.1,1.8-0.3,2.5c-0.8,1.3-3,1.7-4.6,1.9c-0.2,0-0.4,0.1-0.6,0.1
		c-2.5,0.5-5.3,0.8-8.7,1.1C29.4,43.8,27.6,43.9,25.7,43.9z"/>
</g>
<g>
	<path d="M27.9,48.9c-3.4,0-6.9-0.3-10.5-0.8c-2.8-0.4-6-1-8.9-2.4l-0.2-0.1c-1-0.5-2.4-1.2-3-2.1c-0.9-1.5,0.4-3.5,1.6-4.3
		c0.3-0.2,0.7-0.1,0.9,0.2c0.2,0.3,0.1,0.7-0.2,0.9c-0.8,0.5-1.6,1.8-1.2,2.6c0.3,0.6,1.7,1.3,2.4,1.6L9,44.6
		c2.8,1.3,5.9,1.9,8.6,2.3c6.2,0.9,12.3,1,17.6,0.3c0.3,0,0.7,0.2,0.7,0.5c0,0.3-0.2,0.7-0.5,0.7C33,48.8,30.5,48.9,27.9,48.9z"/>
</g>
<g>
	<path d="M43.5,46.6c-0.3,0-0.6-0.2-0.6-0.6c0-0.3,0.2-0.6,0.6-0.7c3.2-0.3,5.7-1,7.7-2c0.8-0.4,1.9-1.1,2.3-2
		c0.3-0.6,0.2-1.4-0.1-1.9c-0.2-0.3-0.6-0.7-1.2-0.7c-0.3,0-0.6-0.3-0.6-0.7c0-0.3,0.3-0.6,0.7-0.6c0.9,0.1,1.7,0.5,2.2,1.3
		c0.6,0.9,0.6,2.1,0.2,3.1c-0.5,1.3-1.8,2-2.8,2.6C49.6,45.5,47,46.2,43.5,46.6C43.6,46.6,43.5,46.6,43.5,46.6z"/>
</g>
<g>
	<path d="M29.1,52.4c-1.4,0-2.8,0-4.2-0.1c-0.3,0-0.6-0.3-0.6-0.7c0-0.3,0.3-0.6,0.7-0.6c10.7,0.6,21-1.1,29.1-4.6
		c0.3-0.1,0.7,0,0.8,0.3c0.1,0.3,0,0.7-0.3,0.8C47.4,50.7,38.5,52.4,29.1,52.4z"/>
</g>
<g>
	<path d="M51.4,84.9c-0.2,0-0.4-0.1-0.6-0.3c-0.2-0.3-0.1-0.7,0.2-0.9c6-4,8.5-10.6,11-16.9l0-0.1c0.1-0.3,0.5-0.5,0.9-0.4
		c0.3,0.1,0.5,0.5,0.4,0.9l0,0.1c-2.4,6.2-5.1,13.3-11.5,17.5C51.6,84.9,51.5,84.9,51.4,84.9z"/>
</g>
<g>
	<path d="M80.9,89.6c-0.2,0-0.3-0.1-0.5-0.2c-0.3-0.3-0.3-0.7,0-0.9c0,0,0,0,0.1-0.1c0.3-0.3,0.6-0.9,0.7-1.7
		c0.1-0.6,0.2-1.2,0.2-1.7c0-0.2,0-0.5,0.1-0.6c0.1-0.5,0.1-1.1,0.2-1.6c0.1-0.6,0.1-1.2,0.2-1.8c0.1-1,0.2-2,0.3-3l0.1-0.6
		c0.2-1.6,0.4-3.4,1.3-4.8c0.6-1,1.8-1.7,2.8-2.2c0.4-0.2,0.8-0.4,1.1-0.7c1.8-1.2,3.7-2.6,5-4.2c0.7-0.8,1.2-2,1-2.3
		c0,0-0.1-0.1-0.2-0.1c-0.9-0.1-2.6,1.1-3.7,1.9c-0.5,0.4-1,0.7-1.4,0.9c-1.9,1-4.7,2.6-7.2,1.6c-0.2-0.1-0.4-0.3-0.4-0.6
		c0-0.3,0.1-0.5,0.3-0.6c4.9-2.9,9.7-6.1,12.4-10.9c1.2-2.1,2.2-4.1,2.3-6.5c0-1.2-0.3-3.9-1.1-4.7c-0.1-0.1-0.2-0.1-0.3-0.1
		c-0.1,0-0.5,0.2-1.4,1.9c-0.2,0.3-0.6,0.4-0.9,0.3c-0.3-0.2-0.4-0.6-0.3-0.9c1-1.8,1.7-2.5,2.4-2.6c0.5,0,0.9,0.1,1.3,0.5
		c1.3,1.3,1.5,4.8,1.5,5.7c-0.1,2.7-1.2,4.9-2.5,7.1c-2.5,4.4-6.8,7.6-11.2,10.3c1.5-0.2,3.1-1.1,4.3-1.7c0.3-0.2,0.8-0.5,1.3-0.8
		c1.5-1,3.2-2.2,4.6-2.1c0.9,0.1,1.2,0.6,1.3,0.9c0.6,1.3-1,3.4-1.2,3.7c-1.5,1.8-3.4,3.2-5.3,4.5c-0.4,0.3-0.8,0.5-1.2,0.7
		c-0.9,0.5-1.8,1.1-2.3,1.8c-0.7,1.1-0.9,2.8-1.1,4.3L83.5,78c-0.1,1-0.2,2-0.3,3c-0.1,0.6-0.1,1.2-0.2,1.9
		c-0.1,0.5-0.1,1.1-0.2,1.6c0,0.2,0,0.4-0.1,0.6c-0.1,0.6-0.1,1.2-0.2,1.8c-0.2,1.1-0.6,1.9-1.1,2.4c0,0-0.1,0.1-0.1,0.1
		C81.3,89.5,81.1,89.6,80.9,89.6z"/>
</g>
<g>
	<path d="M65.4,61c-0.1,0-0.2,0-0.3-0.1c-0.3-0.2-0.5-0.6-0.3-0.9c3-5.9,7.2-8.6,11.8-7.4l0.3,0.1c1,0.3,1.8,0.8,2.5,1.4
		c0.3,0.2,0.5,0.5,0.6,0.6c0.5,0.5,0.5,0.6,1.3,0.5c1.6-0.2,3.2-1.2,5-2.8c1.4-1.3,2.7-2.9,4.2-5.2c0.1-0.1,0.2-0.3,0.3-0.5
		c0.2-0.3,0.6-0.4,0.9-0.3c0.3,0.2,0.4,0.6,0.3,0.9c-0.1,0.3-0.3,0.5-0.4,0.7c-1.5,2.3-2.9,4-4.4,5.4c-2,1.8-3.8,2.9-5.7,3.2
		c-1.4,0.2-1.9-0.2-2.5-0.9c-0.1-0.2-0.3-0.4-0.5-0.6c-0.5-0.5-1.2-0.9-2-1.1l-0.3-0.1c-5-1.3-8.3,2.9-10.2,6.7
		C65.9,60.8,65.6,61,65.4,61z"/>
</g>
<g>
	<path d="M65.2,61.3c-0.1,0-0.2,0-0.3-0.1c-0.3-0.2-0.5-0.6-0.3-0.9l0-0.1c0-0.1,0.1-0.2,0.2-0.3c0.2-0.3,0.6-0.4,0.9-0.2
		c0.3,0.2,0.4,0.6,0.2,0.9c0,0.1-0.1,0.1-0.1,0.2l0,0.1C65.7,61.2,65.5,61.3,65.2,61.3z"/>
</g>
<g>
	<path d="M79.5,55.2c-0.2,0-0.4-0.1-0.6-0.3c-0.2-0.3-0.1-0.7,0.2-0.9c2-1.3,2.1-5.3,2.1-7c0.1-2.5,0-6.1-1.5-7.7
		c-0.3-0.4-0.8-0.5-1.3-0.5c-0.5,0-1,0.3-1.4,0.8c-0.6,0.9-0.4,2.2-0.1,3.5c0.1,0.7,0.3,1.3,0.5,2c0.2,0.8,0.5,1.6,0.6,2.4
		c0.4,2-0.1,3.8-0.7,5.6l-0.1,0.3c-0.1,0.4-0.5,0.6-0.8,0.5c-0.4-0.1-0.6-0.5-0.5-0.8l0.1-0.3c0.5-1.8,1-3.3,0.6-5
		c-0.1-0.8-0.4-1.5-0.6-2.3c-0.2-0.7-0.4-1.4-0.6-2.1c-0.2-1.2-0.6-3.1,0.4-4.6c0.5-0.8,1.4-1.2,2.3-1.3c0.9-0.1,1.8,0.3,2.4,0.9
		c1.9,2,2,5.9,1.9,8.7c-0.1,1.9-0.2,6.4-2.7,8.1C79.8,55.2,79.7,55.2,79.5,55.2z"/>
</g>
<g>
	<path d="M44.7,72.9c-3.4,0-10.5-0.7-12.3-6.4c-0.6-1.9-1.1-5.8,1.3-7.2c1.9-1.1,4.5-0.5,6.3-0.1l0.1,0c1.7,0.4,3.3,1,4.9,1.7
		c2.3,0.9,4.6,1.8,6.9,1.9c2.3,0.1,5-0.1,7.8-0.8l0.1,0c1.5-0.4,3.8-0.9,4.8-2.1c0,0,0-0.1,0.1-0.1c0.1-0.1,0.2-0.2,0.3-0.4
		c0.2-0.3,0.6-0.5,0.9-0.3c0.3,0.2,0.5,0.6,0.3,0.9c-0.1,0.3-0.3,0.5-0.4,0.6c0,0,0,0.1-0.1,0.1c-1.3,1.6-3.9,2.2-5.6,2.6l-0.1,0
		c-3,0.7-5.7,1-8.2,0.9c-2.5-0.1-5-1.1-7.3-2c-1.6-0.6-3.2-1.2-4.8-1.6l-0.1,0c-1.7-0.4-4-0.9-5.4-0.1c-1.5,0.9-1.2,3.9-0.7,5.6
		c1.6,5.1,8.5,5.6,11.4,5.5c2.8,0,5.7-0.6,8.7-1.5l0.4-0.1c2.6-0.8,5.7-1.9,7.8-3.7c0.4-0.3,0.7-0.6,0.9-0.9
		c0.2-0.3,0.6-0.4,0.9-0.1c0.3,0.2,0.4,0.6,0.1,0.9c-0.3,0.4-0.6,0.8-1.1,1.1c-2.2,2-5.6,3.1-8.2,3.9l-0.4,0.1
		c-3.1,1-6.2,1.5-9.1,1.6C45,72.9,44.9,72.9,44.7,72.9z"/>
</g>
<g>
	<path d="M64.8,89.5c-0.1,0-0.2,0-0.4-0.1c-0.3-0.2-0.4-0.6-0.2-0.9c1.2-1.9,3.2-2,4.9-2c1.3-0.1,2.5-0.1,3.4-0.8
		c1-0.7,1.6-1.9,1.6-3.1c0-0.7-0.3-1.6-1.3-2.3c-2-1.3-5.4,0.1-6.8,0.8c-2.5,1.2-4.1,3.3-5.9,5.5c-0.3,0.4-0.6,0.8-1,1.3
		c-0.2,0.3-0.6,0.3-0.9,0.1c-0.3-0.2-0.3-0.6-0.1-0.9c0.3-0.4,0.6-0.8,1-1.2c1.7-2.3,3.5-4.6,6.4-5.9c2-0.9,5.7-2.3,8.1-0.7
		c1.2,0.8,1.9,2,1.9,3.4c0,1.6-0.8,3.2-2.2,4.2c-1.2,0.9-2.7,0.9-4.1,1c-1.6,0.1-3,0.1-3.9,1.4C65.2,89.4,65,89.5,64.8,89.5z"/>
</g>
<g>
	<path d="M82.9,87.7c-0.2,0-0.3-0.1-0.4-0.2c-0.3-0.2-0.3-0.7-0.1-0.9c1.5-1.7,3.7-1.3,5.6-1c2.1,0.4,3.5,0.5,4.2-0.7
		c0.4-0.6,0.4-1.3,0.2-1.9c-0.5-1.2-2.2-2.3-3.4-2.5c-1.2-0.3-3.3,0.1-4.7,1c-0.6,0.4-1,0.9-1.1,1.5c-0.1,0.4-0.4,0.6-0.8,0.6
		c-0.4-0.1-0.6-0.4-0.6-0.8c0.1-0.9,0.7-1.7,1.6-2.4c1.7-1.2,4.2-1.5,5.7-1.2c1.6,0.3,3.6,1.6,4.4,3.3c0.4,1,0.4,2.1-0.3,3.1
		c-1.3,2.1-3.6,1.7-5.6,1.4c-1.8-0.3-3.4-0.6-4.4,0.6C83.2,87.6,83,87.7,82.9,87.7z"/>
</g>
<g>
	<path d="M73.4,90.2c-2.8,0-5.9-0.2-8.7-0.5c0,0-0.1,0-0.1,0c-2.1-0.2-4.8-0.6-6.2-1.2C58,88.4,57.8,88,58,87.6
		c0.1-0.3,0.5-0.5,0.9-0.4c1.1,0.4,3.2,0.8,6,1.1c0,0,0.1,0,0.1,0c5.7,0.6,13.4,0.7,15.8-0.3c0.3-0.1,0.7,0,0.9,0.4
		c0.1,0.3,0,0.7-0.4,0.9C79.7,90,76.8,90.2,73.4,90.2z"/>
</g>
<g>
	<path d="M70.4,94.6C70.4,94.6,70.4,94.6,70.4,94.6c-6.7-0.3-14.2-0.7-21.3-2.6c-3.1-0.8-7.1-2.1-7.9-4.2c-0.2-0.5-0.2-1.2,0.3-1.9
		c1.8-2.6,5.4-2.9,8.5-3.1c0.9-0.1,1.8-0.2,2.6-0.3c0.4-0.1,0.7,0.2,0.8,0.5c0.1,0.4-0.2,0.7-0.5,0.8c-0.8,0.1-1.7,0.2-2.7,0.3
		c-2.8,0.2-6,0.5-7.5,2.6c-0.2,0.3-0.2,0.6-0.1,0.7c0.2,0.6,1.4,1.9,6.9,3.3c6.9,1.9,14.4,2.3,21,2.6c0.4,0,0.6,0.3,0.6,0.7
		C71.1,94.3,70.8,94.6,70.4,94.6z"/>
</g>
<g>
	<path d="M71.9,98.6c-4.1,0-7.5-0.3-9-1c-0.3-0.2-0.5-0.5-0.3-0.9c0.2-0.3,0.5-0.5,0.9-0.3c4.1,1.9,25.9,0.8,32.4-3
		c0.7-0.4,1.6-1.1,1.7-1.9c0-0.4,0.3-0.6,0.7-0.6c0.4,0,0.6,0.3,0.6,0.7c-0.1,1.1-0.9,2-2.3,2.9C92,97.2,80.4,98.6,71.9,98.6z"/>
</g>
<g>
	<path d="M47.3,97.9c0,0-0.1,0-0.1,0l-0.2,0c-3-0.6-6.1-1.2-9.1-2l-0.6-0.1c-3.4-0.9-7.3-1.9-10-4.2c-1.5-1.3-1.6-2.5-1.5-3.3
		c0.3-1.5,1.7-2.9,4-3.7c2.8-1.1,5.7-1.5,8.6-1.9c1.8-0.3,3.6-0.5,5.3-0.9c0.4-0.1,0.7,0.1,0.8,0.5c0.1,0.4-0.1,0.7-0.5,0.8
		c-1.8,0.4-3.7,0.7-5.4,0.9c-2.8,0.4-5.6,0.8-8.3,1.8c-1.7,0.7-3,1.7-3.1,2.7c-0.1,0.7,0.2,1.3,1.1,2c2.5,2.1,6.2,3.1,9.5,4l0.6,0.1
		c3,0.8,6,1.4,9,2l0.2,0c0.4,0.1,0.6,0.4,0.5,0.8C47.8,97.7,47.6,97.9,47.3,97.9z"/>
</g>
<g>
	<path d="M58.3,88.5c-0.5,0-1.1,0-1.6-0.1c-2.3-0.4-4.4-1.6-5.9-3.3c-0.2-0.3-0.2-0.7,0.1-0.9c0.3-0.2,0.7-0.2,0.9,0.1
		c1.3,1.5,3.2,2.6,5.2,2.9c0.5,0.1,1,0.1,1.5,0.1c0,0,0,0,0,0c0.3,0,0.6,0.3,0.6,0.6c0,0.3-0.3,0.6-0.6,0.6
		C58.4,88.5,58.3,88.5,58.3,88.5z"/>
</g>
</svg>
