<?xml version="1.0" encoding="utf-8"?>
<!-- Generator: Adobe Illustrator 21.1.0, SVG Export Plug-In . SVG Version: 6.00 Build 0)  -->
<svg version="1.1" id="Layer_1" xmlns="http://www.w3.org/2000/svg" xmlns:xlink="http://www.w3.org/1999/xlink" x="0px" y="0px"
	 viewBox="0 0 100 100" style="enable-background:new 0 0 100 100;" xml:space="preserve">
<style type="text/css">
	.st0{fill:#EA9A65;}
	.st1{fill:#F16F83;}
</style>
<g>
	<path class="st0" d="M66.1,78.5C63.6,80,60.8,81,58,81.6c-4.1,0.9-10.3,1.7-13.1-2.4c-1.5-2.2-0.3-4.4,2.1-5.2
		c2.5-0.8,5.2,0.3,7.7,0.5c1.8,0.1,3.7-0.1,5.4-0.6l-0.1-0.2c-13.6-3.7-23.8-14.2-33-24.3c-3.7,2.7-9.2,3.3-13.3,1.3
		c-1.7-0.8-3.1-2.5-5.1-2.4c-2.1,0.1-3.7,1.9-5.8,0.9c-1.9-0.9-2.2-3.1-1-4.7c1.4-1.7,3.8-1.9,5.8-1.8c4.9,0.3,9.9,1.1,14.4-1.7
		l0.2-0.3c-1.9-4.9-0.6-11.8,4.6-14c0.3-0.1,0.5-0.2,0.8-0.3c1.1-0.3,2.1-0.5,3-0.4c2.8,0.2,5,2,6.8,4.2c1.3,1.6,2.4,3.5,3.3,5.2
		c0.3,0.5,0.6,1.1,0.9,1.6c6.6,11.4,16.1,20.7,28.2,26.3l0,0c0.5-0.6,1.1-1.1,1.7-1.5c0.9-0.6,2-1,3-1.2c3.2-0.5,6.7,0.6,9.2,2.6
		c2.3,1.8,4.2,4.2,6.2,6.4c2,2.1,3.9,3.5,6.5,4.6c1.4,0.6,4.1,2.4,2.2,4c-1.2,1.1-3.6,1.1-5.1,1.2c-2.2,0-4.2-0.4-6.2-1.1
		c-1.2-0.4-2.4-0.9-3.7-1.4c-1.1-0.4-2.2-0.9-3.2-1.3l-0.1,0.3c-0.7,1.7-2.2,2.6-3.4,3.9c-1.3,1.5-0.9,2.7-0.5,4.5
		c0.7,2.7,0.3,6.4-2.8,7.5c-1.2,0.4-3,0.3-3.5-1.1c-0.5-1.4,1-2.3,1.3-3.5c0.8-3.3-2.7-7.2-5.3-8.8L66.1,78.5z M97.7,78.7
		c1.5-0.4,1.9-1.3,0.9-2.5c-2.8-3.4-5.2,1.8-3.2,2.9C95.8,79.2,97.4,78.8,97.7,78.7z M77.7,70.4c1.5-0.2,0.8-2.8-0.6-1.9
		C76.3,69.1,76.7,70.5,77.7,70.4z"/>
</g>
<g>
	<path d="M98.6,76.2c1,1.2,0.6,2.1-0.9,2.5c-0.4,0.1-1.9,0.5-2.3,0.3C93.4,78,95.8,72.8,98.6,76.2z"/>
</g>
<g>
	<path class="st1" d="M87.3,78.5c1.1,2.1,0.7,6.5-2.6,5.7c-4.2-0.9,0.6-5.1-1.1-6.9l0-0.2C84.9,77.6,86.1,78.1,87.3,78.5L87.3,78.5z
		"/>
</g>
<g>
	<path d="M77.2,68.5c1.4-0.9,2.1,1.7,0.6,1.9C76.7,70.5,76.3,69.1,77.2,68.5z"/>
</g>
<g>
	<path class="st0" d="M67.8,45.3c4.6,1.9,10.1,10.3,6.7,15l0.1,0.4c-1.1,0.2-2.1,0.6-3,1.2l-0.1-0.1c-0.5-4.3-3.3-7.4-5.9-10.6
		c-1-1.3-2.4-3.1-1.7-4.9C64.6,44.7,66.4,44.7,67.8,45.3z"/>
</g>
<g>
	<path class="st0" d="M46.8,21.1c0.8,1.3,0.1,2.8-0.6,4c-0.7,1.3-1,2.3-1.1,3.9c-0.1,3.1-0.8,6.1-3.3,8l-0.1,0.1
		c-0.3-0.5-0.6-1.1-0.9-1.6c-0.9-1.7-2-3.6-3.3-5.2l0.3-0.2c2.4-1.4,2.4-4.4,3.3-6.8C41.8,21.4,45.1,18.3,46.8,21.1z"/>
</g>
<g>
	<path class="st0" d="M33.4,7.2c1.3,3.8-1.5,7.3-3,10.6c-1.1,2.3-2.5,6.2,0.2,8l0,0.2c-0.9-0.1-2,0-3,0.4c-0.3,0.1-0.5,0.2-0.8,0.3
		l0-0.2c-1.4-3.5-1.1-7.8,0.8-11.1C29.3,12.5,32.5,10.6,33.4,7.2z"/>
</g>
<g>
	<path d="M19.1,52.4c-2,0-3.9-0.4-5.6-1.2c-0.6-0.3-1.2-0.7-1.8-1.1c-1-0.7-1.9-1.3-3-1.3c-0.7,0-1.4,0.3-2.1,0.6
		c-1.2,0.5-2.5,1-4,0.3c-1-0.5-1.7-1.3-1.9-2.3c-0.3-1.1,0-2.3,0.8-3.3c1.6-1.9,4.2-2.1,6.3-2c0.7,0,1.4,0.1,2.1,0.1
		c4.3,0.3,8.3,0.6,11.9-1.8c0.3-0.2,0.6-0.1,0.8,0.2c0.2,0.3,0.1,0.6-0.2,0.8c-3.9,2.5-8.3,2.2-12.6,1.9c-0.7,0-1.4-0.1-2.1-0.1
		c-2-0.1-4.1,0-5.3,1.5c-0.5,0.7-0.7,1.5-0.6,2.3c0.2,0.7,0.6,1.2,1.3,1.5c1.1,0.5,2,0.1,3.1-0.3c0.8-0.3,1.6-0.6,2.5-0.7
		c1.5-0.1,2.6,0.7,3.7,1.5c0.5,0.4,1.1,0.7,1.6,1c3.9,1.8,9.2,1.3,12.8-1.3l0.2-0.1c0.3-0.2,0.6-0.1,0.8,0.2
		c0.2,0.3,0.1,0.6-0.2,0.8c-0.1,0.1-0.2,0.1-0.2,0.1C25,51.6,22.1,52.4,19.1,52.4z"/>
</g>
<g>
	<path d="M41.8,37.6c-0.2,0-0.3-0.1-0.4-0.2c-0.2-0.2-0.1-0.6,0.1-0.8c2-1.6,3-3.9,3.1-7.6c0-1.6,0.4-2.7,1.1-4.1
		c0.7-1.2,1.2-2.4,0.6-3.5c-0.4-0.6-0.8-0.9-1.4-0.9c-1.3,0.1-2.9,1.7-3.4,3c-0.2,0.6-0.4,1.3-0.6,2c-0.5,1.8-1,3.9-2.9,5
		c-0.3,0.2-0.6,0.1-0.8-0.2c-0.2-0.3-0.1-0.6,0.2-0.8c1.5-0.9,1.9-2.6,2.4-4.3c0.2-0.7,0.4-1.4,0.6-2.1c0.5-1.4,2.4-3.5,4.3-3.7
		c0.7-0.1,1.7,0.1,2.5,1.4c1,1.7,0,3.6-0.6,4.6c-0.7,1.3-1,2.2-1,3.6c-0.1,2.5-0.5,6.1-3.5,8.5C42.1,37.6,41.9,37.6,41.8,37.6z"/>
</g>
<g>
	<path d="M69.9,64c-0.1,0-0.2,0-0.2-0.1c-11.7-5.4-21.6-14.6-28.4-26.5c-0.3-0.5-0.6-1.1-0.9-1.7c-0.8-1.5-1.9-3.4-3.3-5.1
		c-2-2.5-4.1-3.8-6.4-4c-0.9-0.1-1.9,0.1-2.8,0.4c-0.3,0.1-0.5,0.2-0.7,0.3c-4.8,2.1-6.1,8.6-4.2,13.3c0.1,0.3,0,0.6-0.3,0.7
		c-0.3,0.1-0.6,0-0.7-0.3c-2-5.3-0.5-12.4,4.9-14.8c0.3-0.1,0.5-0.2,0.8-0.3c1.1-0.4,2.2-0.5,3.3-0.4c2.6,0.2,5,1.7,7.2,4.4
		c1.4,1.8,2.6,3.8,3.4,5.3c0.3,0.5,0.6,1.1,0.9,1.6c6.7,11.8,16.4,20.8,27.9,26.1c0.3,0.1,0.4,0.5,0.3,0.7
		C70.3,63.9,70.1,64,69.9,64z"/>
</g>
<g>
	<path d="M60.1,74.3c0,0-0.1,0-0.1,0c-13.5-3.6-23.4-13.7-33.3-24.5c-0.1-0.1-0.2-0.2-0.3-0.3c-0.2-0.2-0.2-0.6,0-0.8
		c0.2-0.2,0.6-0.2,0.8,0c0.1,0.1,0.2,0.2,0.3,0.3C37.2,59.7,47,69.6,60.2,73.2c0.3,0.1,0.5,0.4,0.4,0.7
		C60.6,74.1,60.3,74.3,60.1,74.3z"/>
</g>
<g>
	<path d="M26.8,27.1c-0.2,0-0.4-0.1-0.5-0.4c-1.5-3.7-1.2-8.1,0.8-11.6c0.7-1.2,1.7-2.3,2.6-3.3c1.4-1.5,2.7-2.9,3.2-4.8
		c0.1-0.2,0.3-0.4,0.5-0.4c0.2,0,0.5,0.2,0.5,0.4c1.1,3.2-0.5,6.3-1.9,8.9c-0.4,0.7-0.7,1.4-1,2c-1.7,3.8-1.7,6.1,0,7.3
		c0.3,0.2,0.3,0.5,0.2,0.8c-0.2,0.3-0.5,0.3-0.8,0.2C27,24,29.2,19.2,30,17.6c0.3-0.7,0.7-1.4,1.1-2.1c1.1-2,2.2-4.1,2.2-6.3
		c-0.7,1.3-1.7,2.4-2.7,3.4c-0.9,1-1.8,2-2.4,3.1c-1.8,3.1-2.1,7.2-0.8,10.6c0.1,0.3,0,0.6-0.3,0.7C26.9,27.1,26.9,27.1,26.8,27.1z"
		/>
</g>
<g>
	<path d="M93.3,80.1c-1.9,0-3.8-0.3-6.1-1.1c-1.3-0.4-2.5-0.9-3.7-1.4l-0.3-0.1c-1-0.4-1.9-0.8-2.9-1.1c-1.6-0.6-2.8-1-4-1.2
		c-0.3-0.1-0.5-0.4-0.4-0.7c0.1-0.3,0.4-0.5,0.7-0.4c1.2,0.3,2.6,0.7,4.2,1.3c1,0.4,2,0.8,3,1.2l0.3,0.1c1.1,0.5,2.4,0.9,3.6,1.3
		c2.3,0.7,4.2,1.1,6.1,1c1.3,0,3.6,0,4.8-1c0.5-0.5,0.5-0.8,0.5-0.9c-0.1-0.7-1.3-1.7-2.5-2.2c-2.6-1.2-4.6-2.6-6.7-4.8
		c-0.6-0.6-1.2-1.3-1.8-1.9c-1.4-1.5-2.8-3.1-4.4-4.4c-2.6-2-6-3-8.8-2.5c-1.1,0.2-2,0.6-2.8,1.1c-0.6,0.4-1.1,0.9-1.5,1.4
		c-0.1,0.1-0.1,0.1-0.1,0.1c-0.2,0.2-0.5,0.3-0.8,0.1c-0.2-0.2-0.3-0.5-0.1-0.8c0-0.1,0.1-0.1,0.1-0.1c0.5-0.6,1.1-1.1,1.7-1.6
		c1-0.6,2-1.1,3.3-1.3c3.1-0.5,6.8,0.5,9.7,2.7c1.7,1.3,3.1,2.9,4.5,4.5c0.6,0.6,1.2,1.3,1.7,1.9c1.9,2,3.8,3.4,6.3,4.5
		c0.5,0.2,2.9,1.4,3.1,3c0.1,0.5,0,1.2-0.8,1.9c-1.3,1.2-3.5,1.3-5.5,1.3C93.5,80.1,93.4,80.1,93.3,80.1z"/>
</g>
<g>
	<path d="M52.3,82.9c-3.7,0-6.2-1.1-7.8-3.4c-0.8-1.1-1-2.3-0.6-3.4c0.4-1.2,1.5-2.1,3-2.6c1.9-0.6,3.8-0.2,5.6,0.1
		c0.8,0.1,1.6,0.3,2.3,0.3c1.7,0.1,3.5,0,5.2-0.6c3.2-1,5.9-3,7.7-5.7c0.2-0.3,0.5-0.3,0.8-0.2c0.3,0.2,0.3,0.5,0.2,0.8
		c-1.9,2.9-4.8,5.1-8.3,6.2c-1.8,0.6-3.7,0.8-5.6,0.6c-0.8-0.1-1.6-0.2-2.4-0.4c-1.8-0.3-3.4-0.6-5.1-0.1c-1.1,0.3-1.9,1-2.2,1.9
		c-0.3,0.8-0.1,1.6,0.4,2.4c2,2.9,6,3.6,12.5,2.2c3-0.7,5.7-1.7,7.9-3c2.2-1.3,4.1-3,5.4-4.9c0.2-0.3,0.5-0.3,0.8-0.1
		c0.3,0.2,0.3,0.5,0.1,0.8c-1.4,2.1-3.3,3.8-5.7,5.3c-2.4,1.4-5.2,2.5-8.3,3.2C55.9,82.6,54,82.9,52.3,82.9z"/>
</g>
<g>
	<path d="M71.5,62.4c-0.3,0-0.5-0.2-0.6-0.5c-0.4-3.7-2.7-6.5-5.1-9.5l-0.7-0.9c-0.9-1.1-2.6-3.3-1.8-5.5c0.3-0.7,0.8-1.2,1.4-1.5
		c0.9-0.4,2.1-0.3,3.2,0.1c3.2,1.3,6.6,5.5,7.7,9.4c0.7,2.5,0.4,4.8-0.8,6.5c-0.2,0.3-0.5,0.3-0.8,0.1c-0.3-0.2-0.3-0.5-0.1-0.8
		c1.3-1.8,1-4,0.6-5.5c-1-3.6-4.2-7.5-7.1-8.7c-0.9-0.4-1.7-0.4-2.3-0.2c-0.4,0.2-0.7,0.5-0.8,0.9c-0.5,1.4,0.5,2.9,1.6,4.3l0.7,0.9
		c2.4,2.9,4.8,6,5.3,10C72.1,62.1,71.9,62.4,71.5,62.4C71.5,62.4,71.5,62.4,71.5,62.4z"/>
</g>
<g>
	<path d="M72.5,92.8c-1.2,0-2.3-0.5-2.7-1.6c-0.4-1.1,0.2-2,0.7-2.7c0.3-0.4,0.5-0.7,0.6-1.1c0.7-2.9-2.5-6.7-5-8.1
		c-0.3-0.2-0.4-0.5-0.2-0.8c0.2-0.3,0.5-0.4,0.8-0.2c2.8,1.6,6.4,5.7,5.5,9.4c-0.1,0.6-0.5,1-0.8,1.5c-0.5,0.7-0.7,1.1-0.5,1.7
		c0.4,1,1.8,1,2.8,0.7c2.8-1,3-4.6,2.4-6.8l0-0.1c-0.4-1.7-0.8-3.2,0.6-4.8c0.4-0.4,0.8-0.8,1.2-1.2c0.8-0.8,1.6-1.5,2.1-2.6
		c0.1-0.3,0.4-0.4,0.7-0.3c0.3,0.1,0.4,0.4,0.3,0.7c-0.5,1.2-1.4,2.1-2.3,3c-0.4,0.4-0.8,0.7-1.1,1.1c-1.1,1.2-0.8,2.2-0.4,3.8
		l0,0.1c0.9,3.2,0.1,7.1-3.1,8.2C73.5,92.7,73,92.8,72.5,92.8z"/>
</g>
<g>
	<path d="M85.4,84.9c-0.3,0-0.5,0-0.8-0.1c-1-0.2-1.6-0.6-2-1.2c-0.5-1-0.1-2.2,0.3-3.3c0.5-1.2,0.7-2,0.3-2.5
		c-0.2-0.2-0.2-0.6,0-0.8c0.2-0.2,0.6-0.2,0.8,0c0.9,1,0.4,2.4-0.1,3.7c-0.3,0.9-0.7,1.9-0.4,2.4c0.2,0.3,0.6,0.5,1.2,0.7
		c0.8,0.2,1.4,0,1.9-0.6c0.8-1.1,0.7-3.2,0.1-4.4c-0.1-0.3,0-0.6,0.2-0.8c0.3-0.1,0.6,0,0.8,0.2c0.8,1.5,0.9,4.1-0.2,5.6
		C87.1,84.5,86.3,84.9,85.4,84.9z"/>
</g>
<g>
	<path d="M95.1,79.6c-0.1,0-0.3-0.1-0.4-0.2c-0.5-0.5-0.8-1.2-0.8-2c0.1-1.3,1-2.5,1.8-3.2c0.2-0.2,0.6-0.2,0.8,0.1
		c0.2,0.2,0.2,0.6-0.1,0.8c-0.7,0.6-1.4,1.5-1.4,2.4c0,0.4,0.1,0.8,0.4,1.1c0.2,0.2,0.2,0.6,0,0.8C95.3,79.5,95.2,79.6,95.1,79.6z"
		/>
</g>
</svg>
