<?xml version="1.0" encoding="utf-8"?>
<!-- Generator: Adobe Illustrator 21.1.0, SVG Export Plug-In . SVG Version: 6.00 Build 0)  -->
<svg version="1.1" id="Layer_1" xmlns="http://www.w3.org/2000/svg" xmlns:xlink="http://www.w3.org/1999/xlink" x="0px" y="0px"
	 viewBox="0 0 100 100" style="enable-background:new 0 0 100 100;" xml:space="preserve">
<style type="text/css">
	.st0{fill:#EA9A65;}
</style>
<g>
	<path class="st0" d="M33,82.7l0.1,0.3c0.2,1.8,1.9,3.7,3.6,4.4c1.7,0.7,3.6-0.3,5.2,0.8c1.3,0.9,1.8,2.7,0.9,4.1
		c-1,1.5-3,1.6-4.7,1.4c-7.5-0.8-14.6-5.8-18.4-12.3l0.5-0.9C6.9,73.6,0.3,56.2,2.1,42.1c1.8-13.8,11.8-24.6,23.8-30.9
		C38.8,4.4,55,4.5,68.4,9.8c12,4.8,21.8,14.2,27.1,26c3.2,7.1,3.4,14.1,1.6,21.5c-1.3,5.3-3.1,11.5-8.2,14.4l-0.3,0.1
		c0.7,1.5,1.2,3,1.6,4.6c1.4,4.8,2.7,11.8-1.1,15.9c-2,2.2-5.6,3-7.9,0.9C78.9,91,79,87.3,79,84.4c0-1.3,0-2.5,0-3.8h-1
		c-2.9,2.5-6.8,3.7-10.6,4.3c-1.4,0.2-2.5,0.2-3.1,1.7c-0.7,1.5-0.3,2.7-1.8,3.8c-2.4,1.7-5.8,0.4-6.6-2.5c-0.1-0.3-0.1-0.6-0.1-0.9
		c-0.2-2.8,2.2-5.6,4.5-6.9l-0.1-0.5C57,80,53.5,80.2,50.1,80c-3.3-0.2-6.7-0.9-9.7-2.1l-0.2,1C38.2,81,35.7,82.2,33,82.7z
		 M36.3,69.4c0,0,0-0.1,0-0.1c0,0,0-0.1,0-0.1c0,0,0-0.1,0-0.1c0,0,0,0,0,0c0.3-1.1,0.5-2,0.5-2.4v0c-0.6-0.1-1.2-0.2-1.8-0.3
		c-1.1-0.8-2.8-1.2-3.9-1c-0.2,0-0.3,0.1-0.4,0.1c-1.1,0-1.5,0.6-1.4,1.5c-0.4,1.6,0.8,3.9,2.4,4.8c0.2,0.1,0.4,0.2,0.7,0.3
		c1.6,0.5,2-0.2,2.8-1.3C35.5,70.4,36,69.9,36.3,69.4z M49,66.6c1.3-0.1,2.7-0.3,4-0.4c1.5-0.2,3.1-0.3,4.6-0.6l-0.2-0.7
		c-2.1-7.7,6.2-14.2,4.2-22.2c-1.4-5.8-6.6-9.4-12.2-10.3c-5.3-0.8-11.3,0.7-15.6,4c-5.3,4.1-5.4,10.3-1.9,15.7l0.9,0.4
		c6.4,2.9,13.2,7.2,16,13.6L49,66.6z"/>
</g>
<g>
	<path class="st0" d="M60.1,79.5l0.1,0.5c-2.3,1.3-4.7,4.1-4.5,6.9c-2.4,0-8.4-3.8-5.7-6.8l0-0.2C53.5,80.2,57,80,60.1,79.5z"/>
</g>
<g>
	<path d="M35.1,66.4c0.9,0.6,1.5,1.6,1.3,2.7c0,0,0,0,0,0c0,0.1,0,0.2-0.1,0.3c0,0,0,0.1,0,0.1c-0.3,0.5-0.8,1-1.1,1.4
		c-0.8,1-1.2,1.8-2.8,1.3c-0.2-0.1-0.4-0.2-0.7-0.3c-0.6-0.8-1.2-1.7-1.7-2.6c-0.4-0.8-0.7-1.6-0.7-2.2c0.2-0.7,0.6-1.2,1.4-1.5
		c0.4,0,0.8,0.1,1.4,0.2C33.1,66,34.1,66.2,35.1,66.4z"/>
</g>
<g>
	<path d="M36.4,69c0,0,0,0.1,0,0.1c0,0,0,0.1,0,0.1C36.3,69.2,36.4,69.1,36.4,69z"/>
</g>
<g>
	<path d="M35.1,66.4c-1-0.2-2-0.4-2.9-0.6c-0.5-0.1-1-0.2-1.4-0.2c0.1,0,0.3-0.1,0.4-0.1C32.3,65.2,33.9,65.6,35.1,66.4z"/>
</g>
<g>
	<path d="M30.1,69.2c0.5,0.9,1,1.8,1.7,2.6c-1.5-0.9-2.8-3.2-2.4-4.8C29.4,67.6,29.6,68.4,30.1,69.2z"/>
</g>
<g>
	<path d="M67.4,69.3c-0.4,0-0.7-0.1-1.1-0.2c-1-0.3-1.7-1.1-1.9-2.3C64.3,66.5,64.6,66,65,66c0.4-0.1,0.8,0.2,0.9,0.6
		c0.1,0.6,0.4,0.9,0.9,1.1c0.8,0.2,1.9-0.1,2.6-0.7c0.3-0.3,0.8-0.3,1.1,0.1c0.3,0.3,0.3,0.8-0.1,1.1C69.7,68.9,68.5,69.3,67.4,69.3
		z"/>
</g>
<g>
	<path d="M53.1,80.9c-1,0-2.1,0-3.1-0.1c-3.6-0.3-6.9-1-9.9-2.1c-3.8-1.5-6.9-3.6-9-6.3c-0.7-0.9-1.3-1.8-1.7-2.7
		c-0.5-1-0.8-1.8-0.8-2.5c-0.1-0.9,0.3-1.4,0.5-1.7c0.4-0.4,1-0.6,1.7-0.6c0.4,0,1,0.1,1.6,0.2c1,0.3,1.9,0.5,2.9,0.6
		c0.6,0.1,1.2,0.2,1.7,0.3c1.8,0.2,3.6,0.3,5.6,0.3c1.9,0,3.9-0.1,6.5-0.4c1.3-0.1,2.7-0.3,4-0.4l0.6-0.1c1.3-0.1,2.6-0.3,3.8-0.6
		c1.4-0.3,2.6-0.8,3.5-1.5c0.4-0.3,0.8-0.2,1.1,0.2c0.3,0.3,0.2,0.8-0.2,1.1c-1.1,0.8-2.4,1.4-4.1,1.8c-1.3,0.3-2.7,0.5-4,0.6
		L53.1,67c-1.3,0.2-2.7,0.3-4,0.4c-2.7,0.2-4.7,0.4-6.6,0.4c-2,0-3.9-0.1-5.8-0.3c-0.6-0.1-1.2-0.2-1.8-0.3c-1-0.2-1.9-0.4-3-0.7
		c-0.5-0.1-0.9-0.2-1.1-0.2c-0.3,0-0.5,0.1-0.6,0.1c-0.1,0.1-0.1,0.3-0.1,0.5c0,0.3,0.1,0.9,0.6,1.9c0.4,0.9,1,1.7,1.6,2.5
		c2,2.5,4.8,4.5,8.3,5.8c2.8,1.1,6,1.8,9.5,2c3.3,0.2,6.7,0.1,9.9-0.5c1.2-0.2,2.4-0.5,3.4-0.8c0.4-0.1,0.9,0.1,1,0.5
		c0.1,0.4-0.1,0.9-0.5,1c-1.1,0.3-2.3,0.6-3.6,0.8C58,80.7,55.5,80.9,53.1,80.9z"/>
</g>
<g>
	<path d="M61.6,64.2c0,0-0.1,0-0.1,0c-0.4-0.1-0.7-0.5-0.7-0.9c0.8-6,7-12.8,13.2-12c0.4,0.1,0.7,0.4,0.7,0.9
		c-0.1,0.4-0.5,0.7-0.9,0.7c-5.2-0.6-10.8,5.4-11.4,10.7C62.3,63.9,62,64.2,61.6,64.2z"/>
</g>
<g>
	<path d="M84.4,95.2c-1.3,0-2.7-0.4-3.8-1.5c-2.4-2.2-2.4-5.8-2.5-8.6l0-0.7c0-1.3,0-2.6,0-3.8c0-2.8,0-5.6-0.2-8.4
		c-0.3-3.6-1.4-6-3.4-7.1c-0.4-0.2-0.5-0.7-0.3-1.1c0.2-0.4,0.7-0.5,1.1-0.3c2.5,1.4,3.8,4.1,4.2,8.3c0.3,2.8,0.3,5.7,0.3,8.5
		c0,1.3,0,2.5,0,3.8l0,0.7c0,2.7,0.1,5.7,2,7.5c2,1.8,5.1,1,6.8-0.8c2.7-2.9,3-7.8,0.9-15.1c-0.5-1.6-1-3.1-1.6-4.5
		c-2.1-4.9-5.3-9.2-9.1-12.4c-0.3-0.3-0.4-0.8-0.1-1.1c0.3-0.3,0.8-0.4,1.1-0.1c4.1,3.4,7.4,7.9,9.6,13c0.6,1.4,1.2,3,1.7,4.7
		c1.4,5,2.8,12.2-1.3,16.6C88.3,94.2,86.4,95.2,84.4,95.2z"/>
</g>
<g>
	<path d="M63.5,79.5c-0.3,0-0.7-0.2-0.8-0.6c-0.1-0.4,0.1-0.9,0.5-1c4-1.1,7.9-2.5,11.6-4.1c0.4-0.2,0.9,0,1,0.4
		c0.2,0.4,0,0.9-0.4,1c-3.8,1.6-7.8,3-11.8,4.2C63.7,79.5,63.6,79.5,63.5,79.5z"/>
</g>
<g>
	<path d="M60.1,91.8c-0.6,0-1.2-0.1-1.8-0.3c-1.6-0.6-2.8-1.9-3.2-3.5C55,87.7,55,87.3,55,87c-0.2-3.2,2.4-6.2,4.9-7.7
		c0.4-0.2,0.9-0.1,1.1,0.3c0.2,0.4,0.1,0.9-0.3,1.1c-2.2,1.2-4.3,3.8-4.1,6.2c0,0.3,0.1,0.5,0.1,0.7c0.3,1.1,1.1,2,2.2,2.4
		c1.1,0.4,2.2,0.3,3.1-0.4c0.8-0.5,0.9-1.1,1.1-1.9c0.1-0.5,0.2-1,0.5-1.6c0.7-1.6,2-1.8,3.3-2l0.4-0.1c4.5-0.7,7.8-2.1,10.2-4.1
		c0.3-0.3,0.8-0.2,1.1,0.1c0.3,0.3,0.2,0.8-0.1,1.1c-2.6,2.2-6.2,3.7-10.9,4.4l-0.5,0.1c-1.2,0.2-1.7,0.3-2.1,1.1
		c-0.2,0.4-0.3,0.8-0.4,1.3c-0.2,0.9-0.4,1.9-1.7,2.8C62.1,91.5,61.1,91.8,60.1,91.8z"/>
</g>
<g>
	<path d="M55.9,87.7h-0.1c-2,0-5.8-2.1-6.9-4.6c-0.5-1.2-0.3-2.5,0.6-3.5c0.3-0.3,0.8-0.3,1.1,0c0.3,0.3,0.3,0.8,0,1.1
		c-0.5,0.5-0.6,1.1-0.3,1.8c0.8,1.8,4,3.6,5.4,3.6h0.1c0.4,0,0.8,0.4,0.8,0.8S56.3,87.7,55.9,87.7z"/>
</g>
<g>
	<path d="M22.6,82.4c-0.1,0-0.2,0-0.3-0.1c-0.8-0.3-1.7-0.7-2.6-1.2C5.4,73.8-0.4,55.5,1.3,42c1.6-12.8,10.5-24.3,24.2-31.5
		C37.9,4,54.5,3.4,68.7,9c12.1,4.8,22.1,14.4,27.5,26.5c3.1,6.8,3.6,13.8,1.7,22c-1.4,6.1-3.5,12-8.6,14.9c-0.4,0.2-0.9,0.1-1.1-0.3
		c-0.2-0.4-0.1-0.9,0.3-1.1c4.9-2.7,6.6-8.6,7.9-13.9c1.8-7.8,1.3-14.5-1.6-21c-5.2-11.7-14.9-21-26.7-25.6
		c-13.8-5.4-29.8-4.9-41.9,1.4c-13.3,6.9-21.8,18-23.4,30.3c-1.7,12.9,4,30.5,17.6,37.6c0.8,0.4,1.6,0.8,2.4,1.1
		c0.4,0.2,0.6,0.6,0.4,1C23.2,82.2,22.9,82.4,22.6,82.4z"/>
</g>
<g>
	<path d="M31.3,83.7c-0.4,0-0.7-0.3-0.8-0.7c0-0.4,0.3-0.8,0.7-0.9c0.6,0,1.1-0.1,1.6-0.2c2.7-0.5,5-1.7,6.8-3.5
		c0.3-0.3,0.8-0.3,1.1,0c0.3,0.3,0.3,0.8,0,1.1c-2.1,2-4.6,3.3-7.6,3.9C32.6,83.5,32,83.6,31.3,83.7C31.4,83.7,31.4,83.7,31.3,83.7z
		"/>
</g>
<g>
	<path d="M42.3,67.3c-0.1,0-0.1,0-0.2,0c-0.4-0.1-0.7-0.5-0.6-0.9c0.5-2.4-0.8-3.7-2.6-5.6l-0.3-0.3c-0.3-0.3-0.3-0.8,0-1.1
		c0.3-0.3,0.8-0.3,1.1,0l0.3,0.3c1.9,2,3.7,3.8,3,7C43,67,42.6,67.3,42.3,67.3z"/>
</g>
<g>
	<path d="M57.5,65.7c-0.3,0-0.7-0.2-0.8-0.6c-1.1-4.1,0.5-7.9,2.1-11.5c1.6-3.6,3-6.9,2.1-10.7c-1.2-5-5.7-8.8-11.6-9.7
		c-5.2-0.8-10.9,0.7-15,3.8c-4.6,3.6-5.3,9.2-1.7,14.6c0.2,0.4,0.1,0.9-0.2,1.1c-0.4,0.2-0.9,0.1-1.1-0.2c-4-6.1-3.2-12.7,2.1-16.7
		c4.4-3.4,10.6-5,16.2-4.1c6.5,1,11.5,5.3,12.9,10.9c1,4.3-0.6,8-2.2,11.7c-1.5,3.5-3,6.9-2,10.5c0.1,0.4-0.1,0.9-0.6,1
		C57.6,65.7,57.5,65.7,57.5,65.7z"/>
</g>
<g>
	<path d="M39.2,94.5c-0.4,0-0.8,0-1.2-0.1c-7.4-0.8-14.9-5.8-19-12.7c-0.2-0.4-0.1-0.9,0.3-1.1c0.4-0.2,0.9-0.1,1.1,0.3
		c3.8,6.5,10.8,11.2,17.8,11.9c2,0.2,3.3-0.1,3.9-1.1c0.6-0.9,0.3-2.3-0.7-3c-0.6-0.4-1.4-0.4-2.3-0.4c-0.9,0-1.8,0.1-2.8-0.3
		c-1.8-0.8-3.8-2.8-4-5c-0.1-0.4,0.3-0.8,0.7-0.9c0.4,0,0.8,0.3,0.9,0.7c0.2,1.6,1.7,3.1,3.1,3.7c0.6,0.3,1.3,0.2,2.1,0.2
		c1,0,2.2-0.1,3.3,0.7c1.7,1.2,2.2,3.5,1.1,5.2C42.5,93.8,41.1,94.5,39.2,94.5z"/>
</g>
<g>
	<path d="M49,66.8c-0.3,0-0.6-0.2-0.7-0.5c-2.2-5.1-7.5-9.5-15.6-13.2c-0.4-0.2-0.6-0.6-0.4-1c0.2-0.4,0.6-0.6,1-0.4
		c8.6,3.9,14,8.5,16.4,14c0.2,0.4,0,0.9-0.4,1C49.2,66.8,49.1,66.8,49,66.8z"/>
</g>
<g>
	<path d="M33.7,73.9c-0.3,0-0.7-0.1-1.1-0.4c-0.3-0.3-0.4-0.8-0.1-1.1c0.3-0.3,0.8-0.4,1.1-0.1c0.1,0.1,0.2,0.1,0.2,0.1
		c0.4-0.1,1.2-1.2,1.8-3.1c0,0,0-0.1,0-0.1l0-0.2c0,0,0-0.1,0-0.1c0.4-1.2,0.4-1.9,0.4-2c0-0.4,0.3-0.8,0.7-0.9
		c0.4,0,0.8,0.2,0.9,0.7c0.1,0.7-0.3,2.1-0.5,2.7c0,0,0,0,0,0.1l0,0.1c0,0.1,0,0.1-0.1,0.2c0,0,0,0.1,0,0.1
		c-0.5,1.7-1.5,3.7-2.8,4.1C34,73.8,33.9,73.9,33.7,73.9z"/>
</g>
</svg>
