<?xml version="1.0" encoding="utf-8"?>
<!-- Generator: Adobe Illustrator 21.1.0, SVG Export Plug-In . SVG Version: 6.00 Build 0)  -->
<svg version="1.1" id="Layer_1" xmlns="http://www.w3.org/2000/svg" xmlns:xlink="http://www.w3.org/1999/xlink" x="0px" y="0px"
	 viewBox="0 0 100 100" style="enable-background:new 0 0 100 100;" xml:space="preserve">
<style type="text/css">
	.st0{fill:#EA9A65;}
</style>
<g>
	<path d="M98.2,44.3c0.6,0.5,1,1.2,0.8,2c-0.2,0.9-1.7,2.7-2.4,1c-0.5-0.8-2-2.1-1.1-3.1c0.5-0.1,1.1-0.2,1.6-0.1
		C97.6,44.1,98,44.2,98.2,44.3L98.2,44.3z"/>
</g>
<g>
	<path class="st0" d="M55.8,71.6l0,0.1c-8.9,1-18-1-25.8-5.4c-6.4-3.7-14.8-10.3-15-18.5l-0.1-0.3c-2.3,0.6-4.7,0.7-7.1,0.2
		C5.3,47.4,2,46.3,1,43.8c-0.4-1.1-0.3-2.5,0.7-3.2c1.1-0.8,2.3-0.3,3.4,0.4c2.2,1.5,5,4,7.5,1.5l0.1,0c-1.4-2.2-1.8-5-1.4-7.6
		c0.3-1.6,0.9-3.2,1.8-4.5c0.2-0.3,0.4-0.6,0.7-0.9c1.7-1.9,5.6-3.9,8.3-3c1,0.3,1.8,1,2.4,2.1l0.4,0.3c-0.1,0.1-0.1,0.2-0.2,0.4
		l-0.2,0.5c-0.2,6.9,4,13.8,10.1,16.9c7.1,3.6,16,2.5,23.2-0.5l0.3,0.2c2.7-3.5,6.6-6,10.3-8.4l0.1,0c1-2.2,3.8-2.8,6-2.2
		c2.7,0.7,4.6,2.8,6.7,4.6c2.2,1.9,4.6,3.3,7.4,3.9c1.4,0.3,2.8,0.4,4.2,0.4c0.9,0,1.9-0.3,2.9-0.5c-0.9,1,0.6,2.4,1.1,3.1
		c0.7,1.6,2.2-0.1,2.4-1c0.2-0.8-0.2-1.6-0.8-2c1.5,0.6,1.1,2.4,0,3.6c-1.4,1.6-3.4,2.7-5.4,3.5c-3,1.2-6.3,1.5-9.5,1.8
		c-2.6,0.3-4.9,0.3-6.4,2.8c-1.5,2.6-3.1,5.1-5,7.4c-1.4,1.7-3,3.2-4.9,4.5c-1.2,0.9-2.5,1.6-4,2.3l-0.2,0.2c2.3,2.3,4.1,5.6,3.5,9
		c-0.3,2.1-1.7,5.1-4.3,4.9c-1.5-0.1-2.5-1.4-2.2-2.8c0.2-0.8,0.8-1.3,0.8-2.2c0-0.7-0.3-1.4-0.5-2.1C59.7,74.9,58.4,72.2,55.8,71.6
		z M75.5,44.7c1.4,1,3-1.6,1.3-2.3C75.3,41.7,74,43.9,75.5,44.7z"/>
</g>
<g>
	<path d="M97.7,44c0.2,0.1,0.4,0.2,0.6,0.3c-0.3-0.1-0.6-0.2-1.1-0.2c-0.5,0-1.1,0-1.6,0.1c0,0,0,0,0,0C96.1,43.7,97.1,43.7,97.7,44
		z"/>
</g>
<g>
	<path class="st0" d="M78.5,67.7c0.8,1.8,1.3,4.4-0.7,5.6c-2.5,1.4-3.3-0.7-4-2.6c-0.5-1.2-1.2-2.1-2.5-2.5
		c-1.3-0.4-2.7,0.3-4.1-0.1l-0.1-0.2c1.8-1.3,3.4-2.8,4.9-4.5l0.4,0.3C75.2,63.4,77.5,65.3,78.5,67.7z"/>
</g>
<g>
	<path d="M76.7,42.4c1.7,0.8,0.1,3.4-1.3,2.3C74,43.9,75.3,41.7,76.7,42.4z"/>
</g>
<g>
	<path class="st0" d="M22.1,26.5c-0.6-0.3,2.4-2.5,2.5-2.5c2.1-1.3,4.6-1.9,7.1-2c3.2-0.1,7.5,0.9,8.2,4.6c0.3,1.4-0.2,3.8-2,4
		c-1.7,0.2-3.1-2.7-4.6-3.5c-2.5-1.2-6.9-0.8-8.4,1.8l-0.4-0.3C23.9,27.5,23,26.9,22.1,26.5L22.1,26.5z"/>
</g>
<g>
	<path class="st0" d="M12.8,30.3l0.2,0.1c-0.9,1.3-1.5,2.9-1.8,4.5l0,0c-4.7-1.3-8.9-8.2-4.7-12.2c0.9-0.8,2.5-1.4,3,0.2
		c0.4,1.2-1,1.8-0.8,2.9C9,27.3,11,30.8,12.8,30.3z"/>
</g>
<g>
	<path d="M44.9,49.5c-3.8,0-7.5-0.8-10.5-2.3C28,44,23.7,36.8,23.9,29.8c0-0.3,0.3-0.5,0.6-0.5c0.3,0,0.5,0.3,0.5,0.6
		c-0.2,6.6,3.8,13.4,9.8,16.4c6.1,3.1,14.6,2.9,22.7-0.5c0.3-0.1,0.6,0,0.7,0.3c0.1,0.3,0,0.6-0.3,0.7
		C53.6,48.5,49.1,49.5,44.9,49.5z"/>
</g>
<g>
	<path d="M59.3,60.7c-1.1,0-2.3-0.4-3.2-1.2c-3.4-3-1.9-8.1,0.5-11.9c0.3-0.5,0.7-1,1.1-1.5c2.7-3.5,6.5-6,10.4-8.5
		c0.3-0.2,0.6-0.1,0.8,0.2c0.2,0.3,0.1,0.6-0.2,0.7c-3.8,2.5-7.5,4.9-10.1,8.3c-0.4,0.5-0.7,0.9-1,1.4c-0.8,1.2-4.4,7.2-0.7,10.5
		c1.4,1.3,3.5,1.3,5.1,0c1.5-1.2,2.2-3.1,2.8-5l0.1-0.2c0.4-1.1,0.8-2.3,1.2-3.4c0.5-1.4,1-2.8,1.5-4.2l0.1-0.4
		c0.7-1.9,1.5-4.2,3.7-4.9c0.3-0.1,0.6,0.1,0.7,0.3c0.1,0.3-0.1,0.6-0.3,0.7c-1.7,0.6-2.4,2.5-3,4.2l-0.1,0.4
		c-0.5,1.4-1,2.8-1.5,4.2c-0.4,1.1-0.8,2.3-1.2,3.4l-0.1,0.1c-0.7,1.9-1.5,4-3.2,5.4C61.6,60.3,60.4,60.7,59.3,60.7z"/>
</g>
<g>
	<path d="M63.2,70.7c-0.2,0-0.4-0.1-0.5-0.3c-0.1-0.3,0-0.6,0.3-0.7c1.4-0.6,2.6-1.3,3.9-2.2c1.7-1.2,3.3-2.7,4.8-4.4
		c1.7-2,3.2-4.3,4.9-7.3c1.4-2.5,3.6-2.7,5.9-3c0.3,0,0.6-0.1,0.8-0.1l0.7-0.1c2.9-0.3,5.9-0.7,8.7-1.7c1.5-0.6,3.6-1.6,5.2-3.3
		c0.6-0.7,0.9-1.5,0.8-2.1c-0.1-0.3-0.3-0.5-0.6-0.7c0,0,0,0-0.1,0c-0.2-0.1-0.5-0.1-0.8-0.2c-0.5,0-1.1,0.1-1.5,0.1
		c-0.3,0.1-0.6,0.1-0.9,0.2c-0.7,0.1-1.4,0.3-2.1,0.3c-1.5,0.1-2.9-0.1-4.4-0.4c-2.7-0.6-5.3-2-7.6-4c-0.4-0.3-0.7-0.6-1.1-1
		c-1.6-1.5-3.3-3-5.4-3.5c-2-0.5-4.5,0-5.4,1.9c-0.1,0.3-0.4,0.4-0.7,0.3c-0.3-0.1-0.4-0.4-0.3-0.7c1.1-2.5,4.2-3.1,6.6-2.5
		c2.3,0.6,4.1,2.2,5.8,3.7c0.4,0.3,0.7,0.6,1.1,0.9c2.2,1.9,4.6,3.2,7.2,3.8c1.3,0.3,2.7,0.4,4.1,0.4c0.6,0,1.2-0.2,1.9-0.3
		c0.3-0.1,0.6-0.1,0.9-0.2c0.5-0.1,1.1-0.2,1.7-0.1c0.5,0,0.9,0.1,1.2,0.3c0,0,0,0,0.1,0c0.6,0.3,1.1,0.8,1.2,1.4
		c0.2,0.9-0.2,2.1-1.1,3c-1.7,1.9-4,3-5.6,3.6c-2.9,1.1-6,1.5-8.9,1.8l-0.7,0.1c-0.3,0-0.6,0.1-0.9,0.1c-2.2,0.2-4,0.4-5.1,2.4
		c-1.7,3.1-3.3,5.4-5.1,7.5c-1.6,1.9-3.2,3.4-5,4.6c-1.3,0.9-2.6,1.7-4,2.3C63.3,70.7,63.3,70.7,63.2,70.7z"/>
</g>
<g>
	<path d="M51.2,72.6c-7.4,0-14.9-2-21.5-5.7c-4.5-2.6-15.1-9.5-15.3-18.9c0-0.3,0.2-0.5,0.5-0.6c0.3,0,0.5,0.2,0.6,0.5
		c0.2,8.8,10.4,15.5,14.7,18c7.8,4.4,16.8,6.3,25.4,5.3c0.3,0,0.6,0.2,0.6,0.5c0,0.3-0.2,0.6-0.5,0.6C54.3,72.5,52.7,72.6,51.2,72.6
		z"/>
</g>
<g>
	<path d="M10.8,48.7c-1,0-2.1-0.1-3.1-0.3C5,47.9,1.6,46.7,0.5,44c-0.5-1.2-0.4-2.9,0.9-3.8c1.6-1.2,3.4,0,4,0.4
		c0.2,0.1,0.4,0.3,0.6,0.4c2.5,1.8,4.4,3,6.3,1.2c0.2-0.2,0.6-0.2,0.8,0c0.2,0.2,0.2,0.6,0,0.8c-2.6,2.6-5.5,0.5-7.7-1.1
		c-0.2-0.1-0.4-0.3-0.6-0.4c-1.2-0.8-2-1-2.7-0.4c-0.8,0.6-0.9,1.7-0.5,2.6c0.9,2.3,4,3.3,6.4,3.7c2.3,0.4,4.7,0.4,6.8-0.2
		c0.9-0.2,1.8-0.6,2.6-1c0.3-0.1,0.6,0,0.7,0.2c0.1,0.3,0,0.6-0.2,0.7c-0.9,0.5-1.8,0.8-2.8,1.1C13.7,48.5,12.2,48.7,10.8,48.7z"/>
</g>
<g>
	<path d="M12.7,43.1c-0.2,0-0.4-0.1-0.5-0.3c0,0,0-0.1,0-0.1c-1.4-2.3-1.9-5.1-1.4-7.9c0.3-1.7,0.9-3.3,1.9-4.7
		c0.2-0.3,0.4-0.6,0.7-0.9c1.6-1.9,5.8-4.1,8.9-3.2c1.2,0.4,2.1,1.2,2.7,2.4c0.1,0.3,0,0.6-0.3,0.7c-0.3,0.1-0.6,0-0.7-0.3
		c-0.4-0.9-1.1-1.6-2-1.8c-2.6-0.8-6.3,1.1-7.8,2.8c-0.2,0.3-0.4,0.5-0.6,0.8c-0.9,1.3-1.5,2.7-1.7,4.3c-0.4,2.6,0,5.1,1.3,7.2
		l0.1,0.1c0.1,0.3,0,0.6-0.3,0.7C12.8,43.1,12.8,43.1,12.7,43.1z"/>
</g>
<g>
	<path d="M11.2,35.5c0,0-0.1,0-0.1,0c-3-0.8-5.8-3.8-6.6-7c-0.6-2.4,0-4.6,1.7-6.2c0.6-0.6,1.7-1.2,2.6-0.9c0.4,0.1,1,0.5,1.3,1.4
		c0.3,0.9-0.1,1.5-0.5,2c-0.3,0.4-0.4,0.7-0.4,1c0.2,1,1.3,3,2.4,3.7c0.4,0.2,0.7,0.3,1,0.2c0,0,0.1,0,0.1,0
		c0.3-0.1,0.6,0.1,0.7,0.3c0.1,0.3-0.1,0.6-0.3,0.7L13,30.2l0.1,0.5c-0.1,0-0.1,0-0.2,0.1c-0.5,0.2-1.2,0-1.8-0.4
		c-1.5-0.9-2.7-3.2-2.9-4.5c-0.1-0.8,0.2-1.3,0.5-1.8C9,23.7,9.1,23.5,9,23.1c-0.2-0.6-0.4-0.6-0.5-0.7c-0.4-0.1-1.1,0.2-1.6,0.7
		c-1.8,1.7-1.7,3.7-1.4,5.1c0.7,2.8,3.2,5.5,5.8,6.2c0.3,0.1,0.5,0.4,0.4,0.7C11.7,35.3,11.5,35.5,11.2,35.5z"/>
</g>
<g>
	<path d="M37.7,31.2c-1.2,0-2.2-1.1-3-2.1c-0.5-0.6-1.1-1.2-1.6-1.5c-2.1-1-6.3-0.8-7.7,1.6c-0.1,0.1-0.1,0.2-0.2,0.3
		c-0.1,0.3-0.4,0.4-0.7,0.3c-0.3-0.1-0.4-0.4-0.3-0.7c0.1-0.1,0.1-0.3,0.2-0.4c1.6-2.8,6.3-3.4,9.1-2c0.7,0.3,1.4,1.1,2,1.7
		c0.8,0.9,1.6,1.8,2.3,1.7c0.4,0,0.8-0.3,1-0.6c0.5-0.7,0.7-2,0.5-2.8c-0.8-4.1-6.5-4.1-7.7-4.1c-2.4,0.1-4.8,0.7-6.8,1.9
		c-0.5,0.3-1.8,1.4-2.2,1.9c0.1,0.1,0.1,0.2,0,0.4c-0.1,0.3-0.3,0.5-0.6,0.4c0,0-0.1,0-0.1,0c0,0,0,0-0.1,0
		c-0.2-0.1-0.4-0.3-0.4-0.6c-0.1-1,2.8-2.9,2.8-2.9c2.2-1.3,4.8-2,7.4-2.1c3.7-0.1,8,1.2,8.8,5c0.2,1,0.1,2.6-0.7,3.6
		c-0.4,0.6-1.1,1-1.8,1.1C37.8,31.2,37.7,31.2,37.7,31.2z"/>
</g>
<g>
	<path d="M62.5,84.9c-0.1,0-0.2,0-0.3,0c-0.9-0.1-1.7-0.5-2.2-1.2c-0.5-0.7-0.7-1.5-0.5-2.3c0.1-0.4,0.3-0.7,0.4-1.1
		c0.2-0.4,0.3-0.7,0.3-1c0-0.4-0.2-0.9-0.3-1.4c0-0.2-0.1-0.3-0.1-0.5c-0.6-2.1-1.8-4.7-4.2-5.2c-0.2,0-0.3-0.1-0.5-0.1
		c-0.3,0-0.5-0.3-0.5-0.6c0-0.3,0.3-0.5,0.6-0.5c0.2,0,0.4,0,0.7,0.1c2.9,0.6,4.3,3.6,5,6c0,0.1,0.1,0.3,0.1,0.4
		c0.2,0.6,0.4,1.2,0.4,1.8c0,0.6-0.2,1.1-0.5,1.5c-0.1,0.3-0.3,0.5-0.3,0.8c-0.1,0.5,0,1,0.3,1.4c0.3,0.4,0.8,0.7,1.4,0.7
		c2.3,0.2,3.4-2.8,3.7-4.4c0.5-2.8-0.8-5.9-3.4-8.5c-0.1-0.1-0.2-0.2-0.3-0.2c-0.2-0.2-0.2-0.5,0-0.8c0.2-0.2,0.5-0.2,0.8,0
		c0.1,0.1,0.2,0.2,0.3,0.3c2.9,2.8,4.2,6.3,3.7,9.5C66.6,82.1,65,84.9,62.5,84.9z"/>
</g>
<g>
	<path d="M76.4,74.3c-0.2,0-0.5,0-0.7-0.1c-1.2-0.4-1.8-1.9-2.3-3.1l-0.1-0.1c-0.5-1.2-1.1-1.8-2.2-2.2c-0.6-0.2-1.2-0.1-1.8,0
		c-0.7,0.1-1.5,0.2-2.3-0.1c-0.3-0.1-0.4-0.4-0.3-0.7c0.1-0.3,0.4-0.4,0.7-0.3c0.6,0.2,1.2,0.1,1.8,0c0.7-0.1,1.5-0.2,2.2,0.1
		c1.4,0.4,2.3,1.3,2.9,2.8l0.1,0.1c0.4,1.1,0.9,2.3,1.6,2.5c0.4,0.1,0.9,0,1.5-0.3c2-1.1,0.9-4,0.5-4.9c-1.1-2.5-3.3-3.9-5.6-3.7
		c-0.3,0-0.6-0.2-0.6-0.5c0-0.3,0.2-0.6,0.5-0.6c2.8-0.3,5.4,1.4,6.7,4.3c1,2.2,1.2,5-0.9,6.3C77.5,74.1,76.9,74.3,76.4,74.3z"/>
</g>
<g>
	<path d="M79.3,54.2C79.2,54.2,79.2,54.2,79.3,54.2c-2.1,0-4.1-1.5-4.8-3.5c-0.1-0.3,0.1-0.6,0.3-0.7c0.3-0.1,0.6,0.1,0.7,0.3
		c0.5,1.6,2.1,2.7,3.7,2.7c0.3,0,0.5,0.3,0.5,0.6C79.8,54,79.5,54.2,79.3,54.2z"/>
</g>
</svg>
