<?xml version="1.0" encoding="utf-8"?>
<!-- Generator: Adobe Illustrator 21.1.0, SVG Export Plug-In . SVG Version: 6.00 Build 0)  -->
<svg version="1.1" id="Layer_1" xmlns="http://www.w3.org/2000/svg" xmlns:xlink="http://www.w3.org/1999/xlink" x="0px" y="0px"
	 viewBox="0 0 100 100" style="enable-background:new 0 0 100 100;" xml:space="preserve">
<style type="text/css">
	.st0{fill:#EA9A65;}
</style>
<g>
	<path class="st0" d="M97.7,19.3c2.6,2.8,1.2,7.4-1.4,9.6c-4.8,3.9-12,2.3-17.2,0.4l-0.7,0.2c-0.2-0.8-0.5-1.5-1-2.2l0.2-0.2
		c-0.6-1.1-1.3-2.1-2.1-3l0.2-0.2c4.2,1.5,9.1-1.6,12.7-3.5C91.2,19.1,95,16.4,97.7,19.3z"/>
</g>
<g>
	<path class="st0" d="M59.8,33.9l-0.1-0.1c-2.2,0.3-4.6,1.1-6.5,1.9l-0.5,0c1.1,2-0.1,5.5-0.8,7.3c-0.5,1.1-1.1,1.6-0.6,2.8
		c0.5,1,1,2.1,0.3,3.2c-1.1,1.7-3.1,0.6-3.5-0.9c-0.4-1.3,0.1-2.9,0.1-4.3c0-1.4-0.3-3.6-1.4-4.7l0,0c-8.8,6.1-14.2,17.5-14.8,28
		l0.3,0.4c2.5,1.7,4,4.8,3.9,7.9c-0.1,1.7-0.8,3-1.5,4.5s0.1,2.5-0.3,3.9c-0.3,1.4-1.8,2.5-3.2,1.7c-1.1-0.7-1.1-2.1-1-3.2
		c0.2-2.4,0.4-4.8-1-6.5l-0.1,0.3c-2.1,2.8-5.4,2.5-8.1,0.9l-0.5,0.4c-0.8,1-1.1,2.5-0.6,3.7c0.3,0.9,1.4,1.8,1.1,2.8
		c-0.3,1.5-2.7,2-3.8,1.3c-1-0.7-0.6-1.4-0.4-2.3c0.3-1.4-0.2-2.3-0.9-3.5c-1.7-2.8-2.8-5.7-2.7-9.1l0-0.8C10.1,69.2,7.4,68,5.3,66
		c-1.7-1.7-6-8.3-2.9-10.5c2.4,3.4,5.7,8.8,10.5,8.3l0-0.2c-0.1-12.7,5.3-25.4,14.7-34c9.1-8.4,22-13.3,34.5-11.7
		c4.9,0.6,10.1,2.5,13.5,6.2c0.8,0.9,1.5,1.9,2.1,3l-0.2,0.2c0.4,0.7,0.7,1.4,1,2.2c0.8,2.6,0.7,5.9,0.9,8.4c0.5,4,0.9,8,1.3,12.1
		c0.2,2,1.4,9-2.6,7.8c-2.5-0.7-4.3-4.1-5.6-6.2c-3.1-5.1-6.1-10.9-7.6-16.7l-0.1-0.1c-0.7,1.3-0.8,3-0.9,4.3
		c-0.3,3.2-0.3,6.4-0.3,9.6c0,2.4,0.3,5.5-1.1,7.6c-1.3,2-3.8,1.1-5.2-0.3c-3.5-3.5-3.5-9.9-2.1-14.4C55.8,38.7,57.5,36,59.8,33.9z
		 M78.2,57.6c2.5,0.1,3.4-4.5,0.3-3.3c-0.5,0.2-1.2,0.4-1.6,0.8C75.7,56.2,76.8,57.6,78.2,57.6z M76.5,38.2c1.4,0.4,1.8-1.7,0.7-2.3
		C75.4,35,74.9,37.8,76.5,38.2z M68.6,39.7c0.9,1.3,3.1-0.7,1.8-1.9C69.1,36.8,67.7,38.4,68.6,39.7z"/>
</g>
<g>
	<path d="M78.4,54.3c3.1-1.2,2.2,3.4-0.3,3.3c-1.4,0-2.5-1.4-1.4-2.5C77.2,54.7,77.9,54.5,78.4,54.3z"/>
</g>
<g>
	<path d="M77.2,35.9c1.1,0.6,0.7,2.7-0.7,2.3C74.9,37.8,75.4,35,77.2,35.9z"/>
</g>
<g>
	<path d="M70.3,37.8c1.3,1.2-0.8,3.2-1.8,1.9C67.7,38.4,69.1,36.8,70.3,37.8z"/>
</g>
<g>
	<path d="M24.8,78.7c-1.5,0-3-0.5-4.3-1.2c-1.3-0.8-2.5-1.8-3.3-2.9c-0.2-0.2-0.1-0.6,0.1-0.8c0.2-0.2,0.6-0.1,0.8,0.1
		c0.7,1,1.8,1.9,3,2.6c1.1,0.6,4.9,2.5,7.4-0.8c0.2-0.2,0.5-0.3,0.8-0.1c0.2,0.2,0.3,0.5,0.1,0.8C28.1,78.1,26.5,78.7,24.8,78.7z"/>
</g>
<g>
	<path d="M32,86.3c-0.4,0-0.9-0.1-1.3-0.4c-1.6-0.9-1.3-3.1-1.3-3.8c0.3-2.6,0.4-4.6-0.9-6.1c-0.4-0.5-0.9-0.8-1.6-1.2
		c-0.3-0.1-0.4-0.5-0.3-0.7c0.1-0.3,0.5-0.4,0.7-0.3c0.8,0.4,1.4,0.9,1.9,1.4c1.7,1.9,1.4,4.7,1.2,6.9c-0.2,1.4,0.1,2.3,0.7,2.7
		c0.5,0.3,0.9,0.2,1.2,0.1c0.6-0.2,1-0.8,1.1-1.4c0.1-0.5,0.1-1,0-1.5c-0.1-0.7-0.2-1.6,0.3-2.6c0.7-1.5,1.4-2.7,1.5-4.3
		c0.2-2.9-1.3-5.8-3.6-7.4c-0.3-0.2-0.3-0.5-0.1-0.8c0.2-0.3,0.5-0.3,0.8-0.1c2.7,1.8,4.3,5.1,4.1,8.4c-0.1,1.8-0.8,3.2-1.6,4.7
		c-0.4,0.7-0.3,1.2-0.2,1.9c0.1,0.5,0.1,1.2,0,1.9c-0.2,1-0.9,1.8-1.8,2.2C32.7,86.3,32.3,86.3,32,86.3z"/>
</g>
<g>
	<path d="M18.3,86.1c-0.6,0-1.2-0.2-1.6-0.5c-1.1-0.8-0.9-1.7-0.7-2.5c0-0.1,0.1-0.3,0.1-0.4c0.2-1.2-0.1-1.9-0.9-3.1
		c-2-3.2-2.9-6.2-2.7-9.4c0-0.3,0.3-0.6,0.6-0.5c0.3,0,0.5,0.3,0.5,0.6c-0.1,3,0.7,5.8,2.6,8.8c0.8,1.3,1.3,2.3,1,3.9
		c0,0.2-0.1,0.3-0.1,0.4c-0.2,0.8-0.2,1,0.3,1.4c0.4,0.3,1.2,0.3,1.9,0.1c0.6-0.2,0.9-0.6,1-1c0.1-0.5-0.2-1-0.5-1.5
		c-0.2-0.3-0.4-0.7-0.6-1c-0.5-1.4-0.2-3.1,0.7-4.3c0.2-0.2,0.5-0.3,0.8-0.1c0.2,0.2,0.3,0.5,0.1,0.8c-0.7,0.9-0.9,2.2-0.6,3.2
		c0.1,0.3,0.3,0.5,0.5,0.8c0.4,0.7,0.9,1.4,0.7,2.3c-0.2,0.8-0.8,1.4-1.7,1.8C19.2,86.1,18.7,86.1,18.3,86.1z"/>
</g>
<g>
	<path d="M14.2,70.1c-0.4,0-0.9,0-1.3-0.1c-3-0.3-5.9-1.6-8-3.7c-1.3-1.3-4.4-5.7-4.2-8.9c0.1-1.1,0.5-1.9,1.3-2.4
		c0.3-0.2,0.6-0.1,0.8,0.1c0.2,0.3,0.4,0.5,0.6,0.8c2.3,3.2,5.3,7.6,9.4,7.2c0.4,0,0.9-0.2,1.4-0.3c0.3-0.1,0.6,0.1,0.7,0.3
		c0.1,0.3-0.1,0.6-0.3,0.7c-0.5,0.2-1.1,0.3-1.6,0.4c-4.7,0.5-8-4.2-10.4-7.7c-0.1-0.1-0.1-0.2-0.2-0.3c-0.3,0.3-0.4,0.7-0.4,1.2
		c-0.2,2.5,2.4,6.6,3.8,8c1.9,1.9,4.5,3.1,7.3,3.3c1.5,0.1,3,0,4.4-0.4c0.3-0.1,0.6,0.1,0.7,0.4c0.1,0.3-0.1,0.6-0.4,0.7
		C16.6,69.9,15.4,70.1,14.2,70.1z"/>
</g>
<g>
	<path d="M12.9,64.2c-0.3,0-0.6-0.2-0.6-0.6c-0.1-12.9,5.4-25.7,14.9-34.4c9.8-9,22.8-13.4,34.9-11.9c3.4,0.4,9.7,1.8,13.9,6.4
		c0.9,1,1.6,2,2.2,3.1c0.1,0.3,0,0.6-0.2,0.8c-0.3,0.1-0.6,0-0.8-0.2c-0.5-1-1.2-2-2-2.9c-4-4.3-10-5.7-13.2-6.1
		C50.2,17,37.5,21.3,28,30.1c-9.2,8.4-14.6,21-14.5,33.5C13.5,63.9,13.2,64.2,12.9,64.2C12.9,64.2,12.9,64.2,12.9,64.2z"/>
</g>
<g>
	<path d="M31.9,67.6C31.8,67.6,31.8,67.6,31.9,67.6c-0.3,0-0.6-0.3-0.6-0.6c0.6-11.3,6.5-22.5,15-28.4c0.3-0.2,0.6-0.1,0.8,0.1
		c0.2,0.3,0.1,0.6-0.1,0.8C38.8,45.2,33,56.1,32.4,67.1C32.4,67.4,32.1,67.6,31.9,67.6z"/>
</g>
<g>
	<path d="M53.2,36.2c-0.2,0-0.4-0.1-0.5-0.4c-0.1-0.3,0-0.6,0.3-0.7c1.8-0.7,4.3-1.6,6.6-1.9c0.3,0,0.6,0.2,0.6,0.5
		c0,0.3-0.2,0.6-0.5,0.6c-2.2,0.3-4.6,1.1-6.4,1.8C53.3,36.2,53.2,36.2,53.2,36.2z"/>
</g>
<g>
	<path d="M78.8,58.4c-0.3,0-0.7-0.1-1-0.2c-2.5-0.7-4.3-3.7-5.6-5.9l-0.3-0.5C68.2,45.7,65.6,40,64.2,35c-0.1-0.3,0.1-0.6,0.4-0.7
		c0.3-0.1,0.6,0.1,0.7,0.4c1.3,4.9,3.9,10.5,7.6,16.6l0.3,0.6c1.2,2,2.8,4.8,4.9,5.4c0.6,0.2,1.1,0.1,1.4-0.1c1.2-1,0.7-4.7,0.6-6.3
		c0-0.3-0.1-0.5-0.1-0.7c-0.5-4.8-0.9-8.5-1.3-12.1c-0.1-0.8-0.1-1.7-0.2-2.6c-0.1-1.9-0.2-3.9-0.7-5.6c-0.2-0.8-0.5-1.5-0.9-2
		c-0.2-0.3-0.1-0.6,0.2-0.8c0.3-0.2,0.6-0.1,0.8,0.2c0.4,0.7,0.8,1.4,1,2.3c0.5,1.9,0.7,3.9,0.8,5.9c0.1,0.9,0.1,1.8,0.2,2.6
		c0.4,3.5,0.8,7.3,1.3,12.1c0,0.2,0,0.4,0.1,0.7c0.3,2.9,0.6,6.1-0.9,7.3C79.9,58.2,79.4,58.4,78.8,58.4z"/>
</g>
<g>
	<path d="M60.2,58c-1.4,0-2.7-0.8-3.5-1.6c-3.6-3.6-3.7-10.1-2.3-14.9c0.9-3,2.6-5.8,5-8c1.7-1.6,3.6-2.8,5.6-3.6
		c0.3-0.1,0.6,0,0.7,0.3c0.1,0.3,0,0.6-0.3,0.7c-1.9,0.8-3.7,1.9-5.3,3.4c-2.2,2.1-3.8,4.7-4.7,7.5c-1.4,4.5-1.3,10.5,2,13.8
		c0.9,0.9,2,1.4,2.9,1.3c0.6-0.1,1.1-0.4,1.5-0.9c1.1-1.7,1.1-4.1,1-6.3c0-0.3,0-0.7,0-1c0-3.1,0-6.4,0.3-9.7l0-0.5
		c0.1-1.3,0.3-2.8,0.9-4c0.4-0.8,1-1.3,1.7-1.7c0.3-0.1,0.6,0,0.7,0.3c0.1,0.3,0,0.6-0.3,0.7c-0.5,0.2-0.9,0.6-1.2,1.2
		c-0.6,1-0.7,2.4-0.8,3.6l0,0.5c-0.3,3.2-0.3,6.5-0.3,9.6c0,0.3,0,0.6,0,1c0.1,2.2,0.1,5-1.2,7c-0.6,0.8-1.4,1.3-2.3,1.4
		C60.4,58,60.3,58,60.2,58z"/>
</g>
<g>
	<path d="M76,56.4c-0.1,0-0.2,0-0.2,0c-0.3-0.1-0.4-0.5-0.3-0.7c0.5-1.2,1.7-2.2,3-2.5c1-0.2,1.9,0.1,2.7,0.7c0.2,0.2,0.2,0.6,0,0.8
		c-0.2,0.2-0.6,0.2-0.8,0c-0.5-0.4-1-0.6-1.7-0.5c-0.9,0.2-1.8,0.9-2.2,1.8C76.4,56.3,76.2,56.4,76,56.4z"/>
</g>
<g>
	<path d="M50.2,50.4c-0.1,0-0.2,0-0.3,0c-1.1-0.1-2-1-2.4-2.2c-0.3-1-0.2-2-0.1-2.9c0.1-0.5,0.1-1,0.1-1.5c0-2.1-0.5-3.6-1.2-4.4
		c-0.3-0.3-0.7-0.5-1.2-0.5c-0.3,0-0.5-0.3-0.5-0.6c0-0.3,0.3-0.5,0.6-0.5c0.7,0.1,1.4,0.3,1.9,0.9c1.2,1.2,1.5,3.5,1.6,5.1
		c0,0.5-0.1,1.1-0.1,1.6c-0.1,0.9-0.2,1.7,0,2.5c0.2,0.7,0.8,1.3,1.5,1.4c0.4,0.1,0.8-0.1,1.1-0.6c0.5-0.7,0.2-1.4-0.2-2.4L50.7,46
		c-0.5-1.1-0.1-1.8,0.3-2.5c0.1-0.2,0.2-0.4,0.4-0.7c0.6-1.4,1.9-5,0.9-6.8c-0.1-0.2-0.2-0.3-0.3-0.4c-0.2-0.2-0.2-0.6,0-0.8
		c0.2-0.2,0.6-0.2,0.8,0c0.2,0.2,0.4,0.5,0.5,0.6c1.2,2.2,0,5.8-0.8,7.8c-0.1,0.3-0.3,0.6-0.4,0.8c-0.3,0.6-0.5,0.9-0.2,1.5l0.1,0.3
		c0.4,1,1,2.2,0.2,3.5C51.6,50,50.9,50.4,50.2,50.4z"/>
</g>
<g>
	<path d="M88.8,31.9c-2.9,0-6.2-0.7-9.9-2c-0.3-0.1-0.5-0.4-0.3-0.7c0.1-0.3,0.4-0.5,0.7-0.3c7.5,2.7,13.1,2.6,16.6-0.3
		c1.5-1.2,2.4-3.1,2.6-5c0.1-1-0.1-2.5-1.2-3.8c-1.9-2.1-4.4-0.9-7.5,0.8c-0.3,0.2-0.7,0.4-1,0.6c-0.3,0.2-0.7,0.4-1.1,0.6
		c-3.6,2-8.1,4.4-12.1,2.9c-0.3-0.1-0.5-0.4-0.4-0.7c0.1-0.3,0.4-0.5,0.7-0.4c3.5,1.3,7.7-1,11.1-2.9c0.4-0.2,0.7-0.4,1.1-0.6
		c0.3-0.2,0.6-0.3,1-0.5c2.6-1.5,6.3-3.5,8.9-0.5c1.1,1.2,1.6,2.8,1.5,4.6c-0.2,2.2-1.3,4.4-3,5.8C94.6,31,92,31.9,88.8,31.9z"/>
</g>
</svg>
