<?xml version="1.0" encoding="utf-8"?>
<!-- Generator: Adobe Illustrator 21.1.0, SVG Export Plug-In . SVG Version: 6.00 Build 0)  -->
<svg version="1.1" id="Layer_1" xmlns="http://www.w3.org/2000/svg" xmlns:xlink="http://www.w3.org/1999/xlink" x="0px" y="0px"
	 viewBox="0 0 100 100" style="enable-background:new 0 0 100 100;" xml:space="preserve">
<style type="text/css">
	.st0{fill:#EA9A65;}
</style>
<g>
	<path class="st0" d="M77.5,35.6L77.5,35.6c2.5-1.1,2.9-4.4,1.8-6.6c-1.4-2.8-4.5-4.2-7.3-5.2c2.8-2.9,7.4-0.6,9.5,2
		c2.9,3.5,3.3,8.2,0.3,11.7l0,0.1c4.1,3.4,3.8,9.7,1.8,14.1c-0.9,2.1-2.3,3.9-3.8,5.7c-1.6,1.9-2.6,4.4-3.5,6.7
		c-1,2.7-1.2,7.8-4.1,9.4c-0.9,0.5-3,0.6-3.3-0.7c-0.2-1.1,0.9-2.4,1.4-3.3c0.9-1.6,0.8-1.9-0.1-3.5c-0.4-0.7-0.7-1.5-0.9-2.2
		c-3,0.2-5.8,1.3-8.7,2.1c-2.7,0.8-5.5,1.4-8.3,1.8c-6.1,0.8-12.3,0.8-18.5,0.6c-0.2,1.2-0.5,2.3-1,3.4c-0.7,1.7-2.5,4.5-4.8,3.7
		c-1-0.3-1.3-1.4-1.1-2.4c0.2-1.5,1.6-2,2.1-3.3c0.4-1-0.8-2-1.3-2.8c-1-1.4-1.4-3.1-1.9-4.7c0.9-5.1,0.3-10.5-1.5-15.2l1.2-0.7
		c0.4,0.4,0.7,0.9,0.9,1.4c0.8,1.4,1.9,2,3.3,2.7c2.9,1.4,6.1,1.9,9.2,1.7c6.7-0.4,13-3.4,18.7-6.7c1.9-1.1,3.7-2.2,5.5-3.4
		c1.4-0.9,2.9-1.8,4.3-2.6c1.1-0.6,2.2-1.3,3.4-2C72.9,36.1,75.1,35.3,77.5,35.6z"/>
</g>
<g>
	<path class="st0" d="M70.8,37.2c-1.2,0.6-2.3,1.3-3.4,2c-1.4,0.9-2.9,1.8-4.3,2.6l0,0c-2.3-2.3-0.5-6.4-2.8-8.8
		c-1.3-1.3-2.5-2.3-2.9-4.2c-0.3-1.4,0.1-3.2,1.6-3.7c2.4-0.8,3.6,3.5,4.3,5.1C64.6,33.4,67.4,36.3,70.8,37.2z"/>
</g>
<g>
	<path class="st0" d="M25.9,62c-0.4,2.4-1.1,4.8-2.2,6.9c-0.9,1.9-3.5,4.6-5.2,1.7c-0.4-0.7-0.6-1.6-0.6-2.6c0-0.9,0.2-1.9,0.3-2.7
		c0.4-2.7,1.4-5.3,2.3-8c0.1-0.2,0.3-0.7,0.5-1.4L20.8,56c-1.5-0.4-3.1-0.5-4.7-0.6c-1.5-0.1-3-0.2-4.4-0.5c0.6-1.3-0.2-1.8-1.4-1.3
		c-1.1,0.5-0.8,0.8-2.1,0.4c-0.8-0.3-1.6-0.6-2.4-1.1c-1.8-1-6.4-5.1-4.2-7.6c0.5-0.6,1.3-0.7,2.1-0.6c-0.2,0-0.3,0.1-0.5,0.1
		c-0.3,0.1-1,0-1.3,0.2c-0.6,0.4-0.8,2.8,0.2,2.5c0.6-0.4,1.1-0.4,1.7-1.1c0.3-0.3,0.7-0.9,0.7-1.3c0-0.2-0.1-0.4-0.1-0.5
		c0.7,0.2,1.4,0.4,2,0.5c1.8,0.4,3.7,0.5,5.5,0.6c2.1,0,4.1-0.2,6.1-0.5c1.6-0.3,3.5-1.2,5.2-0.8c0.9,0.2,1.7,0.8,2.3,1.6l-1.2,0.7
		C26.2,51.5,26.7,56.9,25.9,62z M17.6,50c1.2-0.2,0.9-2.2-0.3-2C16,48.2,16.5,50.2,17.6,50z"/>
</g>
<g>
	<path class="st0" d="M20.8,56l0.2,0.1c-0.2,0.7-0.4,1.1-0.5,1.4c-0.9,2.6-1.9,5.2-2.3,8c-0.1,0.8-0.3,1.8-0.3,2.7l-0.3,0
		c-4.6,1.1-2.2-10.1-1.6-11.9l0.1-0.7C17.7,55.5,19.2,55.6,20.8,56z"/>
</g>
<g>
	<path d="M17.3,48c1.3-0.2,1.5,1.7,0.3,2C16.5,50.2,16,48.2,17.3,48z"/>
</g>
<g>
	<path d="M4.5,45.3c0,0.3-0.4,1-0.7,1.3c-0.6,0.7-1,0.6-1.7,1.1c-0.9,0.2-0.7-2.1-0.2-2.5c0.3-0.2,1-0.2,1.3-0.2
		c0.2,0,0.4-0.1,0.5-0.1c0.2,0,0.4,0.1,0.6,0.1C4.4,45,4.5,45.1,4.5,45.3z"/>
</g>
<g>
	<path d="M3.8,44.8c0.3-0.1,0.5-0.1,0.6,0.1C4.2,44.8,4,44.8,3.8,44.8z"/>
</g>
<g>
	<path d="M70.7,74.2c-0.4,0-0.9-0.1-1.2-0.2c-0.5-0.2-0.9-0.7-1-1.2c-0.2-1.1,0.5-2.2,1.1-3.1c0.1-0.2,0.2-0.4,0.3-0.5
		c0.8-1.4,0.7-1.5-0.1-3c-0.4-0.7-0.7-1.5-0.9-2.3c-0.5-1.8-0.6-3.7-0.4-5.6c0-0.3,0.3-0.5,0.5-0.4c0.3,0,0.5,0.3,0.4,0.5
		c-0.2,1.8-0.1,3.6,0.4,5.2c0.2,0.8,0.5,1.5,0.8,2.1c0.9,1.7,1.1,2.2,0,4c-0.1,0.2-0.2,0.4-0.4,0.6c-0.5,0.7-1.1,1.7-1,2.4
		c0.1,0.2,0.2,0.4,0.4,0.5c0.6,0.3,1.6,0.1,2.1-0.1c1.9-1,2.5-3.8,3.1-6.3c0.2-1,0.5-2,0.8-2.8c0.9-2.3,1.9-4.8,3.5-6.8
		c1.3-1.5,2.7-3.4,3.7-5.6c1.9-4.3,2.2-10.3-1.7-13.5c-0.2-0.2-0.2-0.5-0.1-0.7c0.2-0.2,0.5-0.2,0.7-0.1c4.3,3.5,4,10.1,1.9,14.7
		c-1,2.3-2.5,4.3-3.8,5.8c-1.5,1.9-2.5,4.3-3.4,6.5c-0.3,0.7-0.5,1.7-0.7,2.7c-0.6,2.7-1.3,5.8-3.6,7C72,74.1,71.3,74.2,70.7,74.2z"
		/>
</g>
<g>
	<path d="M20.8,56.5c0,0-0.1,0-0.1,0c-1.4-0.4-2.9-0.5-4.6-0.6l-0.3,0c-1.4-0.1-2.8-0.2-4.2-0.5c-0.1,0-0.3-0.1-0.3-0.3
		c-0.1-0.1-0.1-0.3,0-0.4c0.2-0.4,0.2-0.6,0.1-0.7c-0.1-0.1-0.4-0.1-0.8,0.1c-0.3,0.1-0.4,0.2-0.6,0.3c-0.5,0.4-0.8,0.4-1.9,0.1
		c-0.9-0.3-1.7-0.7-2.4-1.1c-1.5-0.9-4.5-3.5-5-6c-0.2-0.9,0.1-1.7,0.6-2.4c0.6-0.6,1.4-0.9,2.5-0.7c0.3,0,0.5,0.3,0.4,0.6
		c0,0.3-0.3,0.5-0.6,0.4c-0.8-0.1-1.3,0-1.7,0.4c-0.4,0.4-0.5,1-0.4,1.6c0.3,2,3.1,4.5,4.5,5.3c0.7,0.4,1.4,0.7,2.3,1
		c0.7,0.2,0.7,0.2,1,0.1c0.2-0.1,0.4-0.2,0.7-0.4c0.8-0.4,1.5-0.3,1.9,0.1c0.2,0.2,0.4,0.5,0.3,1.2c1.2,0.2,2.4,0.3,3.5,0.4l0.3,0
		c1.7,0.1,3.3,0.3,4.8,0.6c0.3,0.1,0.4,0.3,0.4,0.6C21.2,56.3,21,56.5,20.8,56.5z"/>
</g>
<g>
	<path d="M37.8,52.5c-3,0-5.8-0.6-8.2-1.8c-1.6-0.8-2.7-1.5-3.5-2.9c-0.3-0.6-0.6-1-0.9-1.3c-0.6-0.8-1.3-1.2-2-1.4
		c-1-0.2-2.3,0.1-3.4,0.4c-0.5,0.1-1.1,0.3-1.6,0.4c-2.1,0.4-4.1,0.6-6.2,0.6c-1.9,0-3.8-0.2-5.6-0.6c-0.3-0.1-0.6-0.1-0.9-0.2
		c-0.3-0.1-0.7-0.2-1.1-0.3C4,45.3,3.8,45,3.9,44.8c0.1-0.3,0.3-0.4,0.6-0.4c0.4,0.1,0.8,0.2,1.1,0.3c0.3,0.1,0.6,0.2,0.9,0.2
		c1.8,0.3,3.6,0.5,5.4,0.5c2,0,4-0.2,6-0.5c0.5-0.1,1-0.2,1.5-0.4c1.3-0.4,2.6-0.7,3.9-0.4c0.9,0.2,1.8,0.8,2.5,1.7
		c0.3,0.4,0.6,0.8,1,1.4c0.7,1.2,1.7,1.8,3.1,2.6c2.6,1.3,5.7,1.8,9,1.7c7-0.4,13.5-3.8,18.4-6.6c1.8-1,3.5-2.1,5.2-3.2l0.3-0.2
		c1.3-0.8,2.8-1.7,4.3-2.7l0.7-0.4c0.9-0.5,1.7-1,2.7-1.5c1.8-1,4.3-2,6.9-1.7c0.2,0,0.5,0.1,0.7,0.1c0.3,0.1,0.4,0.3,0.4,0.6
		c-0.1,0.3-0.3,0.4-0.6,0.4c-0.2,0-0.4-0.1-0.6-0.1c-2.4-0.3-4.7,0.7-6.4,1.6c-0.9,0.5-1.8,1-2.6,1.5l-0.7,0.4
		c-1.5,0.9-3,1.8-4.3,2.6l-0.2,0.2c-1.7,1.1-3.5,2.2-5.2,3.2c-5,2.9-11.7,6.4-18.9,6.8C38.6,52.5,38.2,52.5,37.8,52.5z"/>
</g>
<g>
	<path d="M28.9,75.8c-0.3,0-0.6,0-0.9-0.1c-1.1-0.4-1.7-1.5-1.4-3c0.1-1,0.7-1.6,1.2-2.1c0.4-0.4,0.7-0.7,0.9-1.2
		c0.2-0.5-0.2-1-0.8-1.7c-0.2-0.2-0.4-0.4-0.5-0.7c-1-1.4-1.4-3.1-1.9-4.6l-0.1-0.2c-0.1-0.3,0-0.6,0.3-0.7c0.3-0.1,0.5,0,0.6,0.3
		c0,0,0,0.1,0,0.1c0,0,0,0.1,0,0.1l0.1,0.2c0.5,1.6,0.9,3.1,1.8,4.4c0.1,0.2,0.3,0.4,0.5,0.6c0.6,0.7,1.3,1.6,0.9,2.7
		c-0.2,0.6-0.7,1.1-1.1,1.5c-0.5,0.5-0.9,0.9-1,1.6c-0.1,0.4-0.2,1.6,0.8,1.9c1.9,0.6,3.6-2,4.2-3.4c0.4-1,0.7-2,1-3.3
		c0.2-1.1,0.4-2.2,0.5-3.3l0-0.1c0-0.3,0.3-0.5,0.6-0.4c0.3,0,0.5,0.3,0.4,0.6l0,0.1c-0.2,1.1-0.3,2.3-0.6,3.4
		c-0.3,1.3-0.6,2.5-1,3.5C32.7,73.3,31.1,75.8,28.9,75.8z"/>
</g>
<g>
	<path d="M40.8,68.7c-2.3,0-4.6-0.1-6.8-0.1c-0.3,0-0.5-0.2-0.5-0.5c0-0.3,0.2-0.5,0.5-0.5c6,0.2,12.3,0.3,18.4-0.6
		c2.6-0.4,5.4-1,8.3-1.8c0.6-0.2,1.3-0.4,1.9-0.6c2.2-0.7,4.5-1.4,6.8-1.5l0.1,0.5l0,0.5c-2.2,0.2-4.4,0.8-6.6,1.5
		c-0.6,0.2-1.3,0.4-1.9,0.6c-2.9,0.8-5.7,1.4-8.4,1.8C48.6,68.6,44.6,68.7,40.8,68.7z"/>
</g>
<g>
	<path d="M20.2,72.4c-0.6,0-1.5-0.3-2.2-1.5c-0.4-0.7-0.6-1.7-0.6-2.8c0-0.9,0.1-1.8,0.3-2.6l0-0.2c0.4-2.5,1.2-4.9,2-7.2l0.3-0.9
		c0-0.1,0.1-0.2,0.1-0.4c0.1-0.2,0.2-0.6,0.4-1c2.7-7.5,1.6-8.3,1.4-8.3c-0.3-0.1-0.4-0.4-0.3-0.6c0.1-0.3,0.4-0.4,0.6-0.3
		c0.9,0.4,1.9,1.8-0.9,9.6c-0.1,0.4-0.3,0.7-0.4,1l-0.4,1.3c-0.8,2.3-1.6,4.6-2,7l0,0.2c-0.1,0.8-0.2,1.6-0.2,2.4
		c0,1,0.2,1.7,0.5,2.3c0.4,0.7,0.9,1,1.4,1c1,0,2.3-1.4,2.9-2.7c1-2.1,1.7-4.4,2.2-6.8c0.8-5,0.3-10.3-1.5-14.9
		c-0.1-0.3,0-0.5,0.3-0.6c0.3-0.1,0.5,0,0.6,0.3c1.9,4.8,2.4,10.2,1.6,15.4c-0.4,2.5-1.2,4.9-2.2,7.1C23.6,70.3,22.1,72.4,20.2,72.4
		C20.3,72.4,20.3,72.4,20.2,72.4z"/>
</g>
<g>
	<path d="M17,68.6c-0.8,0-1.3-0.3-1.6-0.7c-2.3-2.4-0.3-10.8,0.1-12c0.1-0.3,0.4-0.4,0.6-0.3c0.3,0.1,0.4,0.4,0.3,0.6
		c-0.6,2-2,9.2-0.3,11c0.2,0.2,0.6,0.5,1.4,0.3c0.3-0.1,0.5,0.1,0.6,0.4c0.1,0.3-0.1,0.5-0.4,0.6C17.5,68.6,17.3,68.6,17,68.6z"/>
</g>
<g>
	<path d="M63.1,42.3c-0.1,0-0.3,0-0.3-0.1c-1.3-1.3-1.4-3-1.5-4.7c-0.1-1.6-0.2-3.1-1.3-4.1L59.6,33c-1.1-1.1-2.2-2.2-2.6-4
		c-0.4-1.6,0.2-3.7,1.9-4.3c2.6-0.9,3.9,2.7,4.6,4.6c0.1,0.3,0.2,0.5,0.3,0.7c1.3,3.3,4.1,5.8,7.2,6.8c0,0,0,0,0,0
		c0.2,0,0.4,0.2,0.4,0.5c0,0.3-0.3,0.6-0.6,0.5c0,0,0,0,0,0c-3.4-1-6.4-3.8-7.8-7.3c-0.1-0.2-0.2-0.5-0.3-0.8
		c-0.8-2.2-1.8-4.6-3.3-4c-1.2,0.4-1.6,1.9-1.3,3.2c0.3,1.5,1.3,2.5,2.3,3.5c0.1,0.1,0.3,0.3,0.4,0.4c1.3,1.3,1.4,3,1.5,4.7
		c0.1,1.6,0.2,3,1.2,4c0.2,0.2,0.2,0.5,0,0.7C63.4,42.3,63.2,42.3,63.1,42.3z"/>
</g>
<g>
	<path d="M81.7,37.9c-0.1,0-0.2,0-0.3-0.1c-0.2-0.2-0.2-0.5-0.1-0.7c2.7-3.2,2.6-7.5-0.3-11.1c-1.2-1.4-3.5-3-5.7-3.1
		c-0.9,0-1.8,0.2-2.4,0.7c2.7,1.1,5.5,2.5,6.8,5.2c0.7,1.5,0.8,3.3,0.3,4.7c-0.4,1.2-1.2,2-2.3,2.5c-0.2,0.1-0.5,0-0.6-0.3
		c-0.1-0.2,0-0.5,0.3-0.6c0.8-0.4,1.5-1,1.8-2c0.4-1.2,0.3-2.7-0.2-4c-1.3-2.7-4.3-4-7-5c-0.2-0.1-0.3-0.2-0.3-0.4
		c0-0.2,0-0.3,0.1-0.4c1-1,2.3-1.6,3.8-1.5c2.6,0.1,5.1,1.8,6.4,3.5c3.2,3.9,3.3,8.8,0.3,12.4C82,37.9,81.9,37.9,81.7,37.9z"/>
</g>
<g>
	<path d="M1.6,48.7c-0.3,0-0.5-0.2-0.5-0.5c0-0.3,0.2-0.5,0.5-0.5c1.3,0,2.2-0.9,2.8-2.6c0.1-0.3,0.4-0.4,0.6-0.3
		c0.3,0.1,0.4,0.4,0.3,0.6C4.6,47.5,3.3,48.7,1.6,48.7z"/>
</g>
<g>
	<path d="M98.9,68.9c-0.2,0-0.5-0.2-0.5-0.4c0-0.4-0.1-0.8-0.2-1.2c0-0.3,0.1-0.5,0.4-0.6c0.3,0,0.5,0.1,0.6,0.4
		c0.1,0.4,0.1,0.8,0.2,1.2C99.4,68.6,99.2,68.9,98.9,68.9C98.9,68.9,98.9,68.9,98.9,68.9z M98.4,65.8c-0.2,0-0.4-0.2-0.5-0.4
		c-0.1-0.6-0.3-1.3-0.5-1.9c-0.1-0.3,0.1-0.5,0.3-0.6c0.3-0.1,0.5,0.1,0.6,0.3c0.2,0.6,0.4,1.3,0.5,1.9c0.1,0.3-0.1,0.5-0.4,0.6
		C98.5,65.8,98.4,65.8,98.4,65.8z M97.2,62c-0.2,0-0.4-0.1-0.5-0.3c-0.3-0.6-0.5-1.2-0.9-1.7c-0.1-0.2,0-0.5,0.2-0.7
		c0.2-0.1,0.5,0,0.7,0.2c0.3,0.6,0.6,1.2,0.9,1.8c0.1,0.2,0,0.5-0.3,0.6C97.3,62,97.2,62,97.2,62z M95.2,58.6
		c-0.2,0-0.3-0.1-0.4-0.2c-0.4-0.5-0.8-1-1.2-1.5c-0.2-0.2-0.2-0.5,0-0.7c0.2-0.2,0.5-0.2,0.7,0c0.5,0.5,0.9,1,1.3,1.6
		c0.2,0.2,0.1,0.5-0.1,0.7C95.4,58.5,95.3,58.6,95.2,58.6z M92.6,55.6c-0.1,0-0.2,0-0.3-0.1c-0.5-0.4-1-0.8-1.5-1.2
		c-0.2-0.2-0.3-0.5-0.1-0.7c0.2-0.2,0.5-0.3,0.7-0.1c0.5,0.4,1.1,0.8,1.6,1.3c0.2,0.2,0.2,0.5,0,0.7C92.9,55.6,92.8,55.6,92.6,55.6z
		 M89.5,53.3c-0.1,0-0.2,0-0.3-0.1c-0.5-0.3-1.1-0.7-1.7-1c-0.2-0.1-0.3-0.4-0.2-0.7c0.1-0.2,0.4-0.3,0.7-0.2c0.6,0.3,1.2,0.7,1.8,1
		c0.2,0.1,0.3,0.4,0.2,0.7C89.8,53.2,89.6,53.3,89.5,53.3z M86,51.4c-0.1,0-0.1,0-0.2,0c-0.6-0.3-1.2-0.5-1.8-0.7
		c-0.3-0.1-0.4-0.4-0.3-0.6c0.1-0.3,0.4-0.4,0.6-0.3c0.6,0.2,1.3,0.5,1.9,0.7c0.2,0.1,0.4,0.4,0.3,0.6C86.3,51.3,86.2,51.4,86,51.4z
		"/>
</g>
</svg>
