<?xml version="1.0" encoding="utf-8"?>
<!-- Generator: Adobe Illustrator 21.1.0, SVG Export Plug-In . SVG Version: 6.00 Build 0)  -->
<svg version="1.1" id="Layer_1" xmlns="http://www.w3.org/2000/svg" xmlns:xlink="http://www.w3.org/1999/xlink" x="0px" y="0px"
	 viewBox="0 0 100 100" style="enable-background:new 0 0 100 100;" xml:space="preserve">
<style type="text/css">
	.st0{fill:#EA9A65;}
</style>
<g>
	<path class="st0" d="M65.8,64.2c-1.3-3.5-4.1-6.1-7-8.2c-3.3-2.4-6.8-4.6-10.7-6c-5.2-1.9-10.5-1-14.9,1.8c-1.6,1-3.1,2.3-4.5,3.8
		l-0.2,0.1c0.4,0.9,0.7,1.8,0.8,2.8c0.1,0.9,0.2,1.7,0.1,2.6c-0.1,1-0.5,1.9-0.7,2.9c-0.2,0.9,0.1,1.2,0.4,2
		c0.4,1.3-0.2,2.8-1.8,2.9c-1.8,0-2.3-1.7-2.4-3.2c-0.2-1.8-0.3-3.4-1.7-4.8c-1.1-1.1-2.5-1.7-3.7-2.7c-2.3-2.1-3.9-5.4-4.2-8.5
		c-3,2.7-11.8,5.2-14.1,0.5c3.3,1.4,7.2-0.3,10.2-1.8c4-2,7.8-4.7,11.5-7.2c8.8-5.8,19-10.1,29.7-7.7l0,0C55,32,58.6,32.8,61,34
		c4.1,1.9,7.2,5.5,9.8,9.2l0.3,0.3c1.8-0.7,3.8-1,5.7-0.9c0.8,0.1,1.6,0.2,2.4,0.4c0.1,0,0.2,0.1,0.3,0.1c1.3,0.4,2.3,1,3.2,2
		c0.8,0.9,1.3,1.9,2.5,2.4c1.9,0.9,4.3,0.6,6.3,0.2c1.9-0.4,3.8-1.4,5.7-1.5c0.4,0,0.7,0,1,0.1c-0.3,0-1,0-1,0c-0.4,0.1-1.2,0.4-1,1
		c0.3,0.7,2,2.5,2.7,1.3c0.3-0.5-0.1-1.2-0.3-1.6c-0.1-0.2,0-0.3-0.1-0.5c0.7,0.5,0.7,1.5,0.5,2.5c-0.2,0.8-0.5,1.5-0.9,2
		c-1.6,2.2-4.3,3.7-6.7,4.8c-2.3,1-4.8,1.7-7.3,2.1c0.1-0.1-0.4-0.2-0.1-0.2c0.7,0.1,1.9,0.2,1.1-0.8c-0.3-0.4-1.4-1.1-1.9-1.2
		c-1.3-0.4-2.2,1.5-1,2.1c0.3,0.2,0.6,0,0.9,0c0.1,0,0.3,0.2,0.5,0.2c-0.2,0-0.5,0-0.7,0.1c-0.8,0.1-1.8,0.1-2.8,0.1l0,0.5
		c0.2,1.1,0.1,2.3-0.4,3.4c0,0,0,0.1-0.1,0.1c0,0,0,0,0,0c-0.4,1.2-0.5,1.9-1.2,3.1l0,0c-0.1,0-0.1,0.1-0.2,0.1
		c-0.5,0.3-0.9,1.1-1.4,1.5c-1,0.8-2.1,1.4-3.3,1.7c-0.7,0.2-1.4,0.3-2.2,0.3c-0.4,0-1.3-0.3-1.6-0.1c-0.4,0.3-0.5,1.7-0.7,2.2
		c-1,2.5-3,5.1-5.4,6.5c-1.5,0.8-4.2,1.2-5.1-0.6c-1.1-2.2,2.6-3.5,3.8-4.6C64.7,70.1,66,67.2,65.8,64.2z M78.7,50.6
		c1.1,0.3,1.4-1.2,0.7-1.7c-0.9-0.7-2.1,0.2-1.5,1.2C78.1,50.4,78.4,50.6,78.7,50.6L78.7,50.6z"/>
</g>
<g>
	<path d="M98.6,47c0.2,0.5,0.6,1.1,0.3,1.6c-0.7,1.2-2.4-0.6-2.7-1.3c-0.3-0.6,0.5-0.9,1-1c-0.1,0,0.7,0.1,1,0
		c0.1,0,0.2,0.1,0.3,0.2c0,0,0,0,0,0C98.6,46.7,98.5,46.8,98.6,47z"/>
</g>
<g>
	<path d="M98.3,46.3c0.1,0.1,0.2,0.1,0.2,0.2C98.4,46.5,98.3,46.4,98.3,46.3C98.2,46.3,98.3,46.3,98.3,46.3z"/>
</g>
<g>
	<path class="st0" d="M90.2,32.9c0.2,1.7-1.5,3.3-2.8,4.1c-2.6,1.6-7,2.2-8,5.5L79.3,43c-0.8-0.2-1.6-0.3-2.4-0.4v0
		c0.8-2.6,2.1-5.2,3.6-7.6c1.4-2.1,3.6-4.9,6.5-4.7C88.4,30.5,90,31.4,90.2,32.9z"/>
</g>
<g>
	<path class="st0" d="M87,67.5c0.9,2,0.9,6-2,6.6c-2.7,0.5-1.4-3-1.5-4.2c-0.2-2-2.6-3.5-4.1-4.5c-0.6-0.4-0.5-0.5-0.8-0.2l0,0
		c0.6-1.2,0.7-1.9,1.2-3.1C82.5,63.2,85.7,64.6,87,67.5z"/>
</g>
<g>
	<path d="M85.2,56.8c0.9,1-0.4,0.9-1.1,0.8c-0.2,0,0.3,0.1,0.1,0.2c-0.2,0-0.4,0-0.6,0.1c-0.2,0-0.4-0.2-0.5-0.2
		c-0.3,0-0.6,0.2-0.9,0c-1.1-0.6-0.3-2.5,1-2.1C83.8,55.7,84.9,56.5,85.2,56.8z"/>
</g>
<g>
	<path d="M83.7,57.9c0.2,0,0.4,0,0.6-0.1c0,0-0.2,0.1-0.4,0.1C83.8,57.9,83.7,57.9,83.7,57.9z"/>
</g>
<g>
	<path d="M79.4,48.9c0.7,0.6,0.3,2-0.7,1.7h0.1c-0.4,0-0.7-0.2-0.9-0.5C77.3,49.1,78.5,48.1,79.4,48.9z"/>
</g>
<g>
	<path class="st0" d="M41.2,57.7c1.2,0.1,2,0.9,1.5,2.2c-0.5,1.1-1.9,1.5-3,1.3c-1.3-0.2-2-1.2-2.9-2.1c-2-1.8-5-1.8-7.3-0.6l-0.1,0
		c-0.1-1-0.4-1.9-0.8-2.8l0.2-0.1c1.3-1.5,2.8-2.7,4.5-3.8l0.1,0.1c2.7,0.1,4.8,1.9,5.7,4.4C39.6,57.6,39.8,57.6,41.2,57.7z"/>
</g>
<g>
	<path d="M65.9,64.8c-0.2,0-0.4-0.1-0.4-0.3c0,0,0-0.1,0-0.1c-1.1-2.9-3.3-5.4-6.9-8c-2.8-2-6.5-4.5-10.6-6
		c-4.7-1.8-9.9-1.1-14.5,1.8c-1.6,1-3,2.2-4.4,3.7c-0.2,0.2-0.5,0.2-0.7,0c-0.2-0.2-0.2-0.5,0-0.7c1.4-1.5,2.9-2.8,4.6-3.9
		c4.9-3.1,10.3-3.7,15.4-1.9c4.2,1.5,8,4.1,10.8,6.1c3.8,2.7,6.1,5.4,7.2,8.4l0,0.1c0.1,0.3,0,0.6-0.3,0.7
		C66,64.8,65.9,64.8,65.9,64.8z"/>
</g>
<g>
	<path d="M61.2,78.6c-0.4,0-0.8-0.1-1.2-0.2c-0.8-0.2-1.4-0.7-1.7-1.5c-1-2,1.1-3.3,2.6-4.3c0.5-0.3,1-0.6,1.3-0.9
		c2.1-1.9,3.2-4.8,3.1-7.5c0-0.1,0-0.1,0-0.1c0-0.3,0.2-0.5,0.4-0.6c0.3,0,0.5,0.2,0.6,0.4c0,0.1,0,0.1,0,0.2c0.1,3-1.1,6.1-3.4,8.3
		c-0.4,0.3-0.9,0.7-1.4,1c-1.7,1-2.8,1.9-2.3,3c0.2,0.5,0.6,0.8,1.1,0.9c1.1,0.3,2.4,0,3.3-0.5c2.2-1.2,4.2-3.6,5.2-6.2
		c0.1-0.1,0.1-0.4,0.2-0.7c0.1-0.7,0.3-1.4,0.6-1.7c0.4-0.3,1-0.2,1.5-0.1c0.2,0,0.3,0.1,0.4,0.1c0.7,0,1.4-0.1,2-0.2
		c1.1-0.3,2.2-0.8,3.1-1.6c0.2-0.1,0.4-0.4,0.5-0.6c0.3-0.3,0.6-0.7,0.9-0.9c0.1,0,0.1-0.1,0.2-0.1c0.5-0.3,0.7-0.3,1.2,0
		c0.1,0,0.2,0.1,0.3,0.2c0.2,0.1,0.3,0.2,0.5,0.3c1.5,1.1,3.7,2.5,3.8,4.5c0,0.3,0,0.8-0.1,1.3c-0.1,0.8-0.3,2,0.1,2.4
		c0.2,0.2,0.6,0.2,0.9,0.1c0.7-0.1,1.3-0.6,1.7-1.3c0.7-1.4,0.5-3.4,0-4.6c-1.2-2.6-4-3.9-7-5.2v0c0,0,0,0,0,0
		c-0.1,0-0.2-0.1-0.2-0.2c-0.1-0.2-0.1-0.3,0-0.5l0.1-0.1c0.4-0.9,0.5-2,0.4-3c-0.1-0.3,0.1-0.5,0.4-0.6c0.3-0.1,0.5,0.1,0.6,0.4
		c0.2,1.1,0.1,2.3-0.3,3.3c3,1.3,5.8,2.7,7.1,5.5c0.7,1.4,0.9,3.8,0,5.5c-0.5,1-1.3,1.6-2.4,1.8c-0.8,0.2-1.4,0-1.8-0.4
		c-0.8-0.7-0.6-2.1-0.4-3.2c0.1-0.4,0.1-0.8,0.1-1c-0.1-1.6-2-2.8-3.4-3.8c-0.2-0.1-0.3-0.2-0.5-0.3c-0.1-0.1-0.2-0.1-0.3-0.2
		c0,0,0,0,0,0c0,0-0.1,0.1-0.2,0.1c-0.2,0.1-0.4,0.4-0.7,0.7c-0.2,0.3-0.4,0.5-0.7,0.7c-1,0.8-2.2,1.4-3.5,1.8
		c-0.8,0.2-1.5,0.3-2.3,0.3c-0.2,0-0.4,0-0.6-0.1c-0.2,0-0.5-0.1-0.7-0.1c-0.1,0.2-0.2,0.8-0.3,1.1c-0.1,0.3-0.1,0.7-0.2,0.9
		c-1.1,2.8-3.3,5.4-5.7,6.8C63.4,78.2,62.3,78.6,61.2,78.6z"/>
</g>
<g>
	<path d="M27.3,69.4c-1.7,0-2.6-1.2-2.9-3.6l0-0.1c-0.2-1.7-0.3-3.2-1.5-4.4c-0.5-0.5-1.2-0.9-1.8-1.4c-0.6-0.4-1.3-0.8-1.8-1.3
		c-2.1-2-3.7-4.9-4.3-7.9c-2.4,1.8-6.9,3.2-10.2,2.6C2.9,53,1.5,52,0.8,50.5c-0.1-0.2-0.1-0.4,0.1-0.6c0.1-0.2,0.4-0.2,0.6-0.1
		c3.1,1.3,6.7-0.2,9.8-1.8c3.2-1.6,6.3-3.7,9.2-5.6c0.7-0.5,1.5-1,2.2-1.5c11.1-7.3,20.9-9.8,30.1-7.7c0.3,0.1,0.4,0.3,0.4,0.6
		c-0.1,0.3-0.3,0.4-0.6,0.4c-8.9-2-18.5,0.5-29.3,7.6c-0.7,0.5-1.5,1-2.2,1.5c-3,2-6.1,4.1-9.3,5.7c-2.9,1.4-6.1,2.8-9.2,2.2
		c0.6,0.6,1.4,0.9,2.4,1.1c3.3,0.6,8-1,10-2.9c0.1-0.1,0.3-0.2,0.5-0.1c0.2,0.1,0.3,0.2,0.3,0.4c0.3,3.1,1.9,6.2,4.1,8.2
		c0.5,0.5,1.1,0.8,1.7,1.2c0.7,0.4,1.4,0.9,2,1.5c1.4,1.4,1.6,3.2,1.8,5l0,0.1c0.2,2.5,1.2,2.7,1.9,2.7c0.6,0,0.9-0.3,1.1-0.6
		c0.3-0.4,0.4-1.1,0.2-1.6c-0.1-0.2-0.2-0.4-0.2-0.5c-0.2-0.5-0.4-0.9-0.2-1.7c0.1-0.4,0.2-0.7,0.3-1c0.2-0.6,0.3-1.1,0.4-1.8
		c0.1-0.8,0-1.7-0.1-2.5c-0.1-0.9-0.4-1.8-0.8-2.7c-0.1-0.1-0.1-0.2-0.2-0.3c-0.1-0.3,0-0.6,0.2-0.7c0.3-0.1,0.6,0,0.7,0.2
		c0.1,0.1,0.1,0.3,0.2,0.4c0.4,0.9,0.7,1.9,0.8,2.9c0.1,0.9,0.2,1.8,0.1,2.7c-0.1,0.7-0.3,1.4-0.4,2c-0.1,0.3-0.2,0.6-0.3,1
		c-0.1,0.5,0,0.7,0.1,1.1c0.1,0.2,0.2,0.4,0.3,0.7c0.3,0.9,0.2,1.8-0.3,2.5C28.8,69,28.1,69.4,27.3,69.4
		C27.3,69.4,27.3,69.4,27.3,69.4z"/>
</g>
<g>
	<path d="M40.1,61.7c-0.2,0-0.3,0-0.5,0c-1.2-0.2-1.9-0.9-2.5-1.6c-0.2-0.2-0.4-0.4-0.6-0.6c-1.7-1.5-4.4-1.8-6.8-0.6
		c-0.2,0.1-0.5,0-0.7-0.2c-0.1-0.2,0-0.5,0.2-0.7c2.8-1.4,5.9-1.1,7.9,0.7c0.2,0.2,0.5,0.4,0.7,0.7c0.6,0.6,1.1,1.2,2,1.3
		c0.9,0.1,2.1-0.2,2.5-1c0.2-0.4,0.2-0.7,0-0.9c-0.2-0.3-0.6-0.5-1.1-0.6l-0.3,0c-1.2-0.1-1.7-0.2-2.2-1.7c-1-2.4-3-4-5.3-4.1
		c-0.3,0-0.5-0.2-0.5-0.5c0-0.3,0.2-0.5,0.5-0.5c2.7,0.1,5.1,1.9,6.2,4.7c0.4,0.9,0.4,0.9,1.4,1l0.3,0c0.8,0.1,1.5,0.5,1.9,1.1
		c0.2,0.4,0.4,1,0,1.8C42.6,61.2,41.3,61.7,40.1,61.7z"/>
</g>
<g>
	<path d="M88.3,48.6c-1.1,0-2.3-0.2-3.3-0.7c-1-0.5-1.6-1.2-2.1-1.9c-0.2-0.2-0.3-0.4-0.5-0.7c-0.7-0.9-1.7-1.4-2.9-1.8
		c-0.1,0-0.2-0.1-0.3-0.1c-0.7-0.2-1.5-0.3-2.3-0.4c-1.9-0.1-3.8,0.2-5.5,0.8c-0.3,0.1-0.6,0-0.7-0.3c-0.1-0.3,0-0.6,0.3-0.7
		c1.9-0.7,4-1,6-0.9c0.9,0.1,1.7,0.2,2.5,0.4c0.1,0,0.2,0.1,0.3,0.1c1.4,0.4,2.5,1.1,3.4,2.1c0.2,0.2,0.4,0.5,0.6,0.7
		c0.5,0.7,1,1.3,1.8,1.6c1.8,0.9,4.1,0.6,6,0.2c0.8-0.1,1.5-0.4,2.3-0.7c1.1-0.4,2.3-0.8,3.4-0.8c0.5,0,0.8,0,1.2,0.2
		c0.3,0.1,0.4,0.4,0.3,0.7c-0.1,0.3-0.4,0.4-0.7,0.3c-0.2-0.1-0.4-0.1-0.7-0.1c-1,0.1-2.1,0.4-3.2,0.8c-0.8,0.3-1.6,0.6-2.5,0.7
		C90.6,48.4,89.5,48.6,88.3,48.6z"/>
</g>
<g>
	<path d="M84.2,58.4c-0.3,0-0.5-0.2-0.5-0.4c0-0.3,0.2-0.5,0.4-0.6c2.5-0.3,4.9-1,7.1-2c3.1-1.4,5.3-2.9,6.5-4.6
		c0.3-0.5,0.6-1.2,0.8-1.8c0.1-0.4,0.2-1.5-0.3-2c-0.2-0.2-0.3-0.5-0.1-0.7c0.2-0.2,0.5-0.3,0.7-0.1c0.8,0.6,1,1.6,0.7,3
		c-0.2,0.8-0.5,1.6-1,2.2c-1.3,1.8-3.5,3.4-6.9,4.9C89.4,57.3,86.9,58,84.2,58.4C84.3,58.4,84.3,58.4,84.2,58.4z"/>
</g>
<g>
	<path d="M80.3,58.6c0,0-0.1,0-0.1,0c-2.6,0-4.5-0.5-5.8-1.5c-0.2-0.2-0.3-0.5-0.1-0.7c0.2-0.2,0.5-0.3,0.7-0.1
		c1.1,0.9,2.8,1.3,5.2,1.3c1,0,1.9-0.1,2.7-0.1c0.2,0,0.5,0,0.7-0.1c0.3,0,0.5,0.2,0.6,0.5c0,0.3-0.2,0.5-0.5,0.6
		c-0.2,0-0.5,0-0.7,0.1C82.2,58.5,81.3,58.6,80.3,58.6z"/>
</g>
<g>
	<path d="M67.5,48.7C67.4,48.7,67.4,48.7,67.5,48.7c-0.4,0-0.5-0.3-0.5-0.6c0.2-1.3,0.8-2.4,1.7-3.4c0.2-0.2,0.5-0.2,0.7,0
		c0.2,0.2,0.2,0.5,0,0.7c-0.8,0.8-1.3,1.9-1.4,2.9C67.9,48.5,67.7,48.7,67.5,48.7z"/>
</g>
<g>
	<path d="M79.4,43.1c0,0-0.1,0-0.2,0c-0.3-0.1-0.4-0.4-0.3-0.6c0.8-2.5,3.3-3.6,5.6-4.5c1-0.4,1.9-0.8,2.7-1.3
		c1.3-0.8,2.7-2.3,2.5-3.7c-0.1-1.2-1.5-2-2.7-2.1c-2.6-0.3-4.7,2.4-6,4.4c-1.5,2.3-2.8,4.9-3.6,7.4c-0.1,0.3-0.4,0.4-0.6,0.3
		c-0.3-0.1-0.4-0.4-0.3-0.6c0.8-2.7,2.1-5.3,3.7-7.7c1.5-2.2,3.8-5.2,7-4.9c1.6,0.2,3.4,1.3,3.6,3c0.2,1.9-1.4,3.6-3,4.6
		c-0.8,0.5-1.8,0.9-2.8,1.4c-2.1,0.9-4.4,1.8-5,3.9C79.8,43,79.6,43.1,79.4,43.1z"/>
</g>
<g>
	<path d="M68.9,45.3c-0.2,0-0.3-0.1-0.4-0.3c-2.2-3.8-7-4.6-9.6-4.7c-0.6,0-1.2,0-1.8,0c-1.4,0.1-2.8,0.1-4.1-0.4
		c-1.1-0.4-1.8-1.2-2.2-2.2c-0.3-1-0.2-2.1,0.4-3c0.4-0.6,0.8-1,1.3-1.4c3-2.3,7.5-0.4,8.8,0.2c4.6,2.2,7.9,6.4,10,9.3
		c0.2,0.2,0.1,0.5-0.1,0.7c-0.2,0.2-0.5,0.1-0.7-0.1c-2-2.9-5.2-6.9-9.6-9c-2.4-1.1-5.7-1.8-7.7-0.3c-0.4,0.3-0.7,0.7-1,1.1
		c-0.4,0.7-0.6,1.5-0.3,2.2c0.2,0.7,0.8,1.2,1.6,1.5c1.1,0.4,2.4,0.4,3.7,0.3c0.6,0,1.3-0.1,1.9,0c2.8,0.1,7.9,1,10.4,5.2
		c0.1,0.2,0.1,0.6-0.2,0.7C69.1,45.3,69,45.3,68.9,45.3z"/>
</g>
<g>
	<path d="M98.5,49.8c-0.1,0-0.3,0-0.4-0.1c-1.2-0.3-2.8-2.2-2.8-3.1c0-0.3,0.2-0.5,0.5-0.5c0,0,0,0,0,0c0.3,0,0.5,0.2,0.5,0.5
		c0,0.3,0.8,1.4,1.7,1.9c0.4,0.2,0.5,0.2,0.6,0.2c0,0,0,0,0-0.1c0.1-0.2,0.3-0.3,0.4-0.3c0.3,0,0.5,0.2,0.5,0.5c0,0.1,0,0.2-0.1,0.3
		l0,0C99.3,49.6,99,49.8,98.5,49.8z"/>
</g>
<g>
	<path d="M81.8,58.4c-0.2,0-0.4-0.1-0.5-0.3c-0.3-0.5,0-2.4,0.4-2.8c1.4-1.3,3.3,0.5,4.2,1.4l0.2,0.2c0.2,0.2,0.2,0.5,0,0.7
		c-0.2,0.2-0.5,0.2-0.7,0l-0.2-0.2c-1.1-1.1-2.2-2-2.8-1.4c-0.1,0.2-0.3,1.1-0.3,1.5c0.1,0.1,0.1,0.1,0.1,0.2
		c0.1,0.3-0.1,0.6-0.3,0.6C81.9,58.4,81.9,58.4,81.8,58.4z M82.4,56C82.4,56,82.4,56,82.4,56C82.4,56,82.4,56,82.4,56z M82.4,56"/>
</g>
<g>
	<path d="M78.6,65.7c-0.1,0-0.2,0-0.2-0.1c-0.2-0.1-0.3-0.4-0.2-0.7c0.4-0.8,0.6-1.4,0.8-2.1c0.1-0.3,0.2-0.6,0.3-0.9l0.1-0.1
		c0,0,0-0.1,0-0.1c0.1-0.3,0.4-0.4,0.7-0.2c0.2,0.1,0.3,0.4,0.3,0.6c0,0,0,0,0,0.1l-0.1,0.1c-0.1,0.3-0.2,0.6-0.3,0.9
		c-0.2,0.7-0.4,1.4-0.9,2.3C78.9,65.6,78.7,65.7,78.6,65.7z"/>
</g>
<g>
	<path d="M98.5,47c-0.1,0-0.3,0-0.4-0.1c-0.2-0.2-0.2-0.5,0-0.7c0.2-0.2,0.5-0.2,0.7,0l0,0c0.2,0.2,0.2,0.5,0,0.7
		C98.8,47,98.6,47,98.5,47z"/>
</g>
</svg>
