<?xml version="1.0" encoding="utf-8"?>
<!-- Generator: Adobe Illustrator 21.1.0, SVG Export Plug-In . SVG Version: 6.00 Build 0)  -->
<svg version="1.1" id="Layer_1" xmlns="http://www.w3.org/2000/svg" xmlns:xlink="http://www.w3.org/1999/xlink" x="0px" y="0px"
	 viewBox="0 0 100 100" style="enable-background:new 0 0 100 100;" xml:space="preserve">
<style type="text/css">
	.st0{fill:#EA9A65;}
</style>
<g>
	<path class="st0" d="M73.5,47.9C73.3,47,73.4,46.1,74,45c1.1-2,3.3-4.9,5.7-5.4c1-0.2,3,0.2,3.6,1.3c0.1,0.2,0.2,0.5,0.2,0.8
		c0,0.9-0.9,1.2-1.6,1.6c-1.2,0.6-2,1.2-1.9,2.7c0.1,2.7,2.7,4.1,4.4,5.8c0,0,0,0,0.1,0.1C87.9,55.1,88,60,86,64
		c2.4,1,4.8,2.4,7.4,2.5c0.9,0,5.9-1.5,5.9,0.7c0,1.3-2.7,1.7-3.7,1.8c-2.7,0.4-5.4,0.1-8-0.7c-4.7-1.4-8.8-3.8-13.7-4.5
		C68.1,63,62.3,63.6,56.5,64c-3.4,0.3-6.8,0.4-10.1,0.9c-3,0.5-6.3,0.6-9,2.1l0,0.3c0.3,0,0.6,0.1,0.8,0.2c1.9,0.4,4.1,1,5.5,2.5
		c1.3,1.3,1.7,3.6,0.2,4.9C42.4,76,40.1,76,38.4,76c-3.2-0.1-6.4-0.8-9.4-1.9c-2.8-1-5.6-2.3-8.2-3.8c-1.2-0.7-2.5-1.5-3.6-2.4
		c-0.8-0.6-1.5-1.7-2.5-2l0-0.1c-2.3-0.4-4.7-0.3-6-2.7c-1.3-2.5-1.3-5.7-1.7-8.4c-0.5-3.3-1-6.6-1.9-9.8c-0.5-1.6-1.1-3.2-1.8-4.7
		c-0.4-0.7-0.9-1.4-1.3-2.1c-0.2-0.4-0.4-0.7-0.6-1.1c-0.4-1-0.3-1.8,0.1-2.4c-0.4,0.9-0.1,2.8,0.8,2.9c0.2,0,0.4,0,0.5-0.1
		c1.4-0.3,1.5-0.9,2-2c0.2-0.5,0.7-0.9,0.4-1.4c-0.3-0.5-1-0.3-1.4-0.2c-0.6,0.2-1.5,0.2-2,0.5c0.9-0.9,2.7-1.1,4-0.4
		c2.5,1.2,4.3,3.6,5.8,5.9c3.3,5.2,5,11.4,9,16.2c1.7-1.4,3.4-2.8,5.2-4.2c1.3-1,2.6-2,3.8-3l0.3-0.1c-0.4-1.3-0.6-2.6-0.4-4
		c0.2-1.3,0.9-2.5,1.8-3.4c1.2-1.2,2.8-2,4.5-2.1c3-0.3,3.5,1.9,2.3,4.2c-0.4,0.8-1.3,2-1.8,3.1l0.2,0.1c6.2-1.4,12.6-2.8,19-2.7
		c6,0.1,11.9,1.8,17.3,4.4L73.5,47.9z"/>
</g>
<g>
	<path class="st0" d="M87,41.8c1,1.4-0.2,2.5-1.3,3.3c-1.1,0.8-2.1,1.4-2.4,2.8c-0.3,1.3,0.2,2.9,1.1,3.8l0,0
		c-1.7-1.6-4.3-3.1-4.4-5.8c0-1.5,0.7-2.1,1.9-2.7c0.7-0.4,1.6-0.6,1.6-1.6c0-0.3-0.1-0.5-0.2-0.8l0.2-0.2
		C84.7,40.1,86.4,40.9,87,41.8z"/>
</g>
<g>
	<path class="st0" d="M31.3,40.7l0.2,0.4c-0.9,0.9-1.6,2.1-1.8,3.4c-0.2,1.4,0,2.7,0.4,4l-0.3,0.1c-1.3,1-2.6,1.9-3.8,3l-0.3-0.4
		c-1.3-2.4-2.3-5.9-0.7-8.4C26.1,40.9,29.3,38.8,31.3,40.7z"/>
</g>
<g>
	<path d="M3,37.3c-0.1,0.1-0.3,0.2-0.5,0.1c-1,0-1.3-2-0.8-2.9c0,0,0,0,0,0c0.1-0.1,0.2-0.2,0.3-0.3c0,0,0,0,0,0
		c0.5-0.3,1.4-0.3,2-0.5c0.5-0.1,1.1-0.3,1.4,0.2c0.3,0.5-0.2,0.9-0.4,1.4C4.5,36.4,4.4,37,3,37.3z"/>
</g>
<g>
	<path d="M1.8,34.3c0.1-0.1,0.1-0.1,0.2-0.1c-0.1,0.1-0.2,0.2-0.3,0.3C1.7,34.4,1.7,34.4,1.8,34.3z"/>
</g>
<g>
	<path d="M13.1,58.4c-0.1,0-0.2,0-0.3-0.1c-0.2-0.2-0.3-0.5-0.1-0.7c0.3-0.3,0.2-0.7,0.1-1c-0.2-0.5-0.7-1-1.2-1.1
		c-0.3-0.1-0.4-0.4-0.4-0.6c0.1-0.3,0.4-0.4,0.6-0.4c0.9,0.2,1.6,0.9,1.9,1.8c0.2,0.7,0.1,1.4-0.3,1.9
		C13.4,58.4,13.2,58.4,13.1,58.4z"/>
</g>
<g>
	<path d="M15.3,66.4c0,0-0.1,0-0.1,0c-0.1,0-0.3-0.1-0.4-0.1c-0.4-0.1-0.7-0.1-1.1-0.2c-2-0.3-4-0.5-5.2-2.8c-1-1.9-1.3-4.3-1.5-6.5
		c-0.1-0.7-0.1-1.4-0.2-2.1c-0.4-3-0.9-6.5-1.9-9.7c-0.5-1.7-1.1-3.3-1.8-4.6c-0.2-0.5-0.5-0.9-0.8-1.4c-0.2-0.2-0.3-0.5-0.5-0.7
		c-0.2-0.4-0.4-0.7-0.6-1.2c-0.5-1.1-0.4-2.1,0.1-2.9c0,0,0,0,0-0.1l0,0c0.1-0.2,0.2-0.3,0.4-0.4c0,0,0,0,0,0c1.1-1,3-1.2,4.5-0.5
		c2.6,1.2,4.4,3.6,6,6.1c1.4,2.2,2.5,4.6,3.6,6.9c1.5,3.2,3,6.5,5.3,9.2c0.2,0.2,0.2,0.5-0.1,0.7c-0.2,0.2-0.5,0.2-0.7-0.1
		c-2.4-2.8-4-6.2-5.5-9.5c-1.1-2.3-2.2-4.6-3.5-6.8c-1.5-2.3-3.2-4.6-5.6-5.7c-1.2-0.5-2.7-0.4-3.5,0.3c0,0,0,0-0.1,0
		c-0.1,0.1-0.1,0.1-0.2,0.2c0,0,0,0,0,0.1c-0.4,0.5-0.4,1.2,0,1.9c0.2,0.4,0.4,0.7,0.6,1C2.7,38,2.9,38.2,3,38.5
		c0.3,0.5,0.6,1,0.9,1.5c0.7,1.4,1.3,3,1.8,4.8c1,3.3,1.5,6.8,1.9,9.9c0.1,0.7,0.2,1.4,0.2,2.1c0.2,2.2,0.4,4.4,1.4,6.1
		c0.9,1.8,2.6,2,4.5,2.2c0.4,0,0.7,0.1,1.1,0.2c0.2,0,0.3,0.1,0.5,0.1c0.3,0.1,0.5,0.3,0.4,0.6C15.8,66.2,15.5,66.4,15.3,66.4z"/>
</g>
<g>
	<path d="M39.4,76.5c-0.3,0-0.7,0-1,0c-3.1-0.1-6.3-0.8-9.5-1.9c-2.8-1-5.6-2.3-8.2-3.9c-1.2-0.7-2.5-1.5-3.7-2.4
		c-0.3-0.2-0.5-0.5-0.8-0.8c-0.5-0.5-1-1-1.5-1.1c-0.3-0.1-0.4-0.4-0.4-0.6c0.1-0.3,0.4-0.4,0.6-0.4c0.8,0.2,1.4,0.8,1.9,1.4
		c0.2,0.3,0.5,0.5,0.7,0.7c1.1,0.9,2.4,1.7,3.5,2.3c2.6,1.6,5.3,2.8,8.1,3.8c3.2,1.1,6.3,1.7,9.2,1.9c1.8,0.1,3.8,0,5-1
		c0.5-0.4,0.8-0.9,0.8-1.6c0.1-0.9-0.3-1.8-1-2.5c-1.3-1.4-3.4-1.9-5.3-2.3c-0.3-0.1-0.5-0.1-0.8-0.2c-1.6-0.3-3.3-0.4-4.9-0.5
		c-3.4-0.2-6.8-0.4-9.8-2.1c-0.2-0.1-0.3-0.5-0.2-0.7c0.1-0.2,0.5-0.3,0.7-0.2c2.8,1.6,6.1,1.8,9.3,2c1.7,0.1,3.4,0.2,5,0.5
		c0.3,0,0.6,0.1,0.9,0.2c2,0.4,4.3,1.1,5.8,2.6c0.9,0.9,1.4,2.2,1.3,3.3c-0.1,0.9-0.5,1.7-1.2,2.3C42.8,76.3,41.1,76.5,39.4,76.5z"
		/>
</g>
<g>
	<path d="M15.1,66.6c-0.1,0-0.1,0-0.2,0c-0.1-0.1-0.2-0.1-0.3-0.2c-0.2-0.1-0.3-0.3-0.3-0.5c0-0.3,0.2-0.5,0.5-0.5
		c0.1,0,0.2,0,0.3,0.1c0.1,0.1,0.2,0.1,0.3,0.1c0.3,0.1,0.4,0.4,0.2,0.7C15.5,66.5,15.3,66.6,15.1,66.6z"/>
</g>
<g>
	<path d="M20.8,56.3c-0.1,0-0.3-0.1-0.4-0.2c-0.2-0.2-0.2-0.5,0.1-0.7c1.8-1.5,3.5-2.9,5.2-4.2c1.3-1,2.6-2,3.8-3
		c0.2-0.2,0.6-0.1,0.7,0.1c0.2,0.2,0.1,0.6-0.1,0.7c-1.3,0.9-2.5,1.9-3.8,3c-1.7,1.3-3.4,2.7-5.2,4.2C21,56.2,20.9,56.3,20.8,56.3z"
		/>
</g>
<g>
	<path d="M33.2,54.4c-0.2,0-0.3-0.1-0.4-0.2c-1.6-2.1-2.6-3.9-3.2-5.6c-0.5-1.5-0.6-2.9-0.4-4.2c0.2-1.4,0.9-2.6,2-3.7
		c1.3-1.3,3-2.1,4.8-2.3c1.8-0.2,2.7,0.5,3.1,1.1c0.6,1,0.5,2.4-0.3,3.9c-0.1,0.3-0.3,0.5-0.5,0.9c-0.4,0.7-0.9,1.5-1.2,2.2
		c-0.6,1.5-0.1,2.1,0.3,2.4c0.2,0.2,0.3,0.5,0.1,0.7c-0.2,0.2-0.5,0.3-0.7,0.1c-1.1-0.8-1.3-2-0.7-3.7c0.3-0.9,0.9-1.7,1.3-2.4
		c0.2-0.3,0.4-0.6,0.5-0.8c0.6-1.1,0.7-2.2,0.3-2.8c-0.4-0.7-1.4-0.7-2.1-0.6c-1.6,0.2-3.1,0.9-4.2,2c-0.9,0.9-1.5,2-1.7,3.1
		c-0.2,1.2-0.1,2.4,0.4,3.8c0.5,1.6,1.5,3.3,3,5.3c0.2,0.2,0.1,0.6-0.1,0.7C33.4,54.4,33.3,54.4,33.2,54.4z"/>
</g>
<g>
	<path d="M25.6,51.7c-0.2,0-0.4-0.1-0.5-0.3c-1.5-2.6-2.4-6.3-0.7-9c0.9-1.3,2.7-2.8,4.5-3c1-0.1,1.9,0.2,2.6,0.8
		c0.2,0.2,0.2,0.5,0,0.7c-0.2,0.2-0.5,0.2-0.7,0c-0.5-0.4-1.1-0.6-1.8-0.5c-1.5,0.2-3,1.4-3.7,2.5c-1.5,2.3-0.6,5.7,0.7,7.9
		c0.1,0.3,0.1,0.6-0.2,0.7C25.8,51.7,25.7,51.7,25.6,51.7z"/>
</g>
<g>
	<path d="M93.3,69.8c-1.8,0-3.8-0.3-5.8-0.9c-1.8-0.5-3.6-1.2-5.3-1.9c-2.8-1.1-5.4-2.1-8.3-2.6c-5.3-0.8-10.3-0.4-15.7,0.1
		l-1.6,0.1c-0.7,0.1-1.4,0.1-2.1,0.1c-2.6,0.2-5.4,0.4-8,0.8c-0.6,0.1-1.3,0.2-1.9,0.3c-2.4,0.3-4.9,0.6-7,1.7
		c-0.3,0.1-0.6,0-0.7-0.2c-0.1-0.3,0-0.6,0.2-0.7c2.3-1.2,4.8-1.5,7.3-1.8c0.6-0.1,1.3-0.2,1.9-0.3c2.7-0.4,5.4-0.6,8.1-0.8
		c0.7,0,1.4-0.1,2.1-0.1l1.6-0.1c5.2-0.4,10.6-0.8,16-0.1c3.1,0.5,5.9,1.6,8.6,2.6c1.7,0.7,3.4,1.4,5.2,1.9c2.8,0.8,5.5,1.1,7.8,0.7
		l0.1,0c2.6-0.4,3.1-1,3.1-1.3c0-0.2-0.1-0.3-0.1-0.4c-0.6-0.5-2.8-0.2-4,0c-0.6,0.1-1,0.2-1.3,0.2c-2.3-0.1-4.3-1-6.3-1.9
		c-0.4-0.2-0.9-0.4-1.3-0.6c-0.1-0.1-0.2-0.2-0.3-0.3c0-0.1,0-0.3,0-0.4c1.7-3.3,2.2-8.1-1.4-11.7l-0.1-0.1
		c-0.4-0.4-0.8-0.7-1.2-1.1c-1.5-1.3-3.3-2.7-3.3-5c0-1.9,1.1-2.6,2.2-3.2c0.1-0.1,0.2-0.1,0.3-0.2c0.7-0.3,1-0.5,1-1
		c0-0.2,0-0.3-0.1-0.5c-0.5-0.8-2.2-1.2-3.1-1c-2.5,0.5-4.7,4-5.4,5.1c-0.5,0.9-0.7,1.7-0.5,2.5c0.2,0.6,0.5,1.3,0.9,2
		c0.2,0.4,0.5,0.8,0.7,1.3c0.6,1.3,0,2.3-0.6,3.2c-0.7,1.1-1.1,1.8-0.3,2.8c0.2,0.2,0.1,0.6-0.1,0.7c-0.2,0.2-0.6,0.1-0.7-0.1
		c-1.2-1.7-0.3-3,0.3-4c0.6-0.9,0.9-1.5,0.6-2.2c-0.2-0.4-0.4-0.8-0.7-1.2c-0.4-0.8-0.8-1.5-1-2.3c-0.3-1.1-0.1-2.1,0.6-3.3
		c0.9-1.5,3.2-5.1,6.1-5.6c1.1-0.2,3.4,0.1,4.2,1.5c0.2,0.3,0.3,0.7,0.3,1.1c-0.1,1.1-1,1.6-1.6,1.9c-0.1,0-0.2,0.1-0.3,0.1
		c-1.1,0.6-1.7,1.1-1.6,2.2c0,1.8,1.5,3.1,3,4.3c0.4,0.4,0.9,0.8,1.3,1.1l0.1,0.1c3.1,3.1,3.8,7.9,1.8,12.4c0.3,0.1,0.6,0.3,0.9,0.4
		c1.9,0.9,3.8,1.8,5.9,1.8c0.2,0,0.6-0.1,1.1-0.1c2-0.3,3.9-0.6,4.8,0.2c0.3,0.3,0.5,0.7,0.5,1.2c-0.1,1.7-2.7,2.1-4,2.3l-0.1,0
		C94.9,69.7,94.1,69.8,93.3,69.8z"/>
</g>
<g>
	<path d="M84.5,52.2c-0.1,0-0.3,0-0.4-0.1c-1.1-1.1-1.6-2.8-1.3-4.3c0.3-1.4,1.3-2.1,2.3-2.8l0.3-0.2c1.7-1.2,1.6-2,1.1-2.6
		c-0.5-0.7-2-1.4-2.7-1c-0.3,0.1-0.6,0-0.7-0.2c-0.1-0.3,0-0.6,0.2-0.7c1.3-0.7,3.3,0.3,4.1,1.3c1.4,2-0.7,3.5-1.4,4l-0.3,0.2
		c-0.9,0.6-1.7,1.2-1.9,2.2c-0.3,1.1,0.2,2.5,1,3.3c0.2,0.2,0.2,0.5,0,0.7C84.7,52.1,84.6,52.2,84.5,52.2z"/>
</g>
<g>
	<path d="M73,48.5c-0.1,0-0.2,0-0.2-0.1c-5.8-2.8-11.5-4.3-17.1-4.3C49.4,44,43.1,45.4,37,46.8l-0.2,0c-0.3,0.1-0.6-0.1-0.6-0.4
		c-0.1-0.3,0.1-0.6,0.4-0.6l0.2,0c6.1-1.4,12.5-2.8,18.9-2.7c5.7,0.1,11.6,1.6,17.6,4.5c0.3,0.1,0.4,0.4,0.2,0.7
		C73.4,48.4,73.2,48.5,73,48.5z"/>
</g>
<g>
	<path d="M2.1,38.5c-0.3,0-0.5-0.2-0.5-0.5c0-0.2,0.1-0.4,0.3-0.5c0,0,0,0,0.1,0c1.8-0.4,3.1-2.2,3.1-4c0-0.3,0.2-0.5,0.5-0.5
		c0.3,0,0.5,0.2,0.5,0.5c0,2.2-1.6,4.4-3.8,4.9C2.2,38.5,2.2,38.5,2.1,38.5z"/>
</g>
<g>
	<path d="M10.2,45.1c-0.2,0-0.3-0.1-0.4-0.2c-0.2-0.2-0.1-0.6,0.1-0.7c1.2-0.9,1.8-2.4,1.6-3.9c0-0.3,0.2-0.6,0.4-0.6
		c0.3,0,0.6,0.2,0.6,0.4c0.3,1.8-0.5,3.8-2,4.9C10.4,45.1,10.3,45.1,10.2,45.1z"/>
</g>
</svg>
