<?xml version="1.0" encoding="utf-8"?>
<!-- Generator: Adobe Illustrator 21.1.0, SVG Export Plug-In . SVG Version: 6.00 Build 0)  -->
<svg version="1.1" id="Layer_1" xmlns="http://www.w3.org/2000/svg" xmlns:xlink="http://www.w3.org/1999/xlink" x="0px" y="0px"
	 viewBox="0 0 100 100" style="enable-background:new 0 0 100 100;" xml:space="preserve">
<style type="text/css">
	.st0{fill:#EA9A65;}
</style>
<g>
	<path class="st0" d="M65.5,64.9C65.5,64.9,65.5,64.9,65.5,64.9c-1.4,0.6-2.4,0.1-3-0.9c-0.2-0.3-0.3-0.7-0.4-1.1
		c-0.6-2.2,0-4.7,0.4-7c0.4-2.5,0.8-5,1.6-7.4c0.8-2.5,1.9-4.9,3.5-7c1.1-1.5,2.3-2.8,3.9-3.9l0,0c0.7-3.1,2.3-6.9,5.7-7.9
		c3.7-1.1,7.9,1.9,8.8,5.5l0,0.1c4.1,3.2,7,7.5,9.4,12.1c2.2,4.2,5,9.6,3.4,14.5c-0.7,2.1-2.6,3.1-4.7,2.6c-2.2-0.6-3.7-2.5-4.5-4.5
		c-1-2.6-0.9-5.5-1.2-8.3c-0.3-2.9-1-5.8-2.2-8.4h-0.1c0.1,4.4-0.4,8.9-1.4,13.2c-0.5,2.1-1.1,4.1-1.9,6.1c-0.4,1-0.9,2.3-1.8,3.1
		c0.5-0.6,1.3-1.7,1-2.5c-0.1-0.2-0.3-0.5-0.6-0.6c-0.3-0.1-0.5-0.1-0.6-0.1c-0.7-0.2-1.4-0.3-2.1-0.2c0,0,0,0,0,0
		c-0.2,0-0.6,0.1-0.9,0.2c-0.3,0.1-0.5,0.3-0.6,0.5c-0.6,0.8-0.2,1.2,0.4,1.8c0.5,0.6,2,1.7,3,1.3c0,0-0.1,0.1-0.1,0.1
		c-2.9,1.7-4.3-3-4.9-7.1l-0.2,0c-0.9,1.2-1.9,2.4-2.6,3.7c-0.7,1.2-0.7,2.9-0.7,4.3c0,1.6,0.5,2.7,1.4,4c0.5,0.7,1.2,1.5,1.3,2.4
		c0.1,1.1-0.7,1.7-1.8,1.8c-1.3,0.1-2.4-0.8-3.1-1.8c-1.8-2.3-3.3-5.3-3.6-8.3L65.5,64.9z M83.8,45.3c0.1-1.5-2.1-1.7-2.2-0.2
		C81.5,46.7,83.8,46.9,83.8,45.3z M77.8,45.5c0-1.5-2.2-1.6-2.2-0.1C75.5,46.9,77.8,47,77.8,45.5z"/>
</g>
<g>
	<path d="M81.6,45.1c0.1-1.5,2.3-1.3,2.2,0.2C83.8,46.9,81.5,46.7,81.6,45.1z"/>
</g>
<g>
	<path d="M81.7,63.4c0.3,0.8-0.5,1.8-1,2.5c0,0,0,0,0,0c-0.2,0.2-0.3,0.3-0.5,0.4c-1,0.4-2.4-0.7-3-1.3c-0.6-0.6-1-1-0.4-1.8
		c0.1-0.2,0.4-0.4,0.6-0.5c0.3-0.1,0.6-0.2,0.9-0.2c0.6,0.1,0.7,0.4,1.3,0.4c0.3,0,0.5-0.1,0.8-0.2C80.9,62.9,81.4,63.1,81.7,63.4z"
		/>
</g>
<g>
	<path d="M81.1,62.8c0.3,0.2,0.5,0.4,0.6,0.6c-0.4-0.3-0.8-0.6-1.2-0.7C80.7,62.7,80.9,62.6,81.1,62.8z"/>
</g>
<g>
	<path d="M80.7,65.9C80.7,66,80.6,66,80.7,65.9c-0.2,0.2-0.3,0.3-0.5,0.4C80.4,66.2,80.5,66.1,80.7,65.9z"/>
</g>
<g>
	<path d="M78.4,62.5C78.4,62.5,78.4,62.5,78.4,62.5c-0.3,0.1-0.6,0.1-0.9,0.2C77.8,62.6,78.1,62.5,78.4,62.5z"/>
</g>
<g>
	<path d="M75.5,45.4c0.1-1.5,2.2-1.4,2.2,0.1C77.8,47,75.5,46.9,75.5,45.4z"/>
</g>
<g>
	<path class="st0" d="M52.4,63.8c-6.1,0.4-12.1-1.9-17.9-3.5c-3.1-0.9-6.2-1.7-9.3-2.3c-1-0.2-2.1-0.4-3.3-0.6
		c-1.9-0.3-4-0.4-5.5,0.2c-1.1,0.5-2,1.3-2.8,2.3c-0.9,1.1-1.6,2.4-2,3.6c-0.4,1.1-0.5,2.2,0.1,3.3c0.6,1,1.7,1.7,1.9,2.8
		c0.7,2.9-2.4,3.1-4.1,1.7c-2.1-1.8-3-4.9-3.9-7.4C4.4,60.7,3.5,57.3,3,53.9c-0.5-3.1-0.7-6.5,0.8-9.4l0-0.3
		c-2-4.3-4.4-9.7-1.6-14.2c1.9-3.2,6.5-6.2,10.3-5.4c-6.9,2.6-9.3,11.5-4.7,17.2l0.1,0c4.9-1.9,10.3-1.4,15.4-0.5
		c5.3,0.9,10.6,2.1,16,2.7c9.4,1.1,19.5,2.1,28.2-2.6l0.1,0.1c-1.5,2.1-2.7,4.5-3.5,7c-0.8,2.4-1.2,4.9-1.6,7.4
		c-0.4,2.2-1,4.7-0.4,7c0.1,0.4,0.3,0.8,0.4,1.1l-0.1,0c-2.2,0.9-2.8,3.7-2.5,5.9c0.3,1.8,3.5,5.7,0.3,6.5c-2.4,0.6-3.8-1.9-4.5-3.7
		c-0.5-1.4-0.9-2.9-1.1-4.3c-0.2-1.5,0.1-3.2-0.7-4.5L52.4,63.8z"/>
</g>
<g>
	<path class="st0" d="M21.9,57.4l-0.1,0.3c-1.4,2.5-3,5.6-1.6,8.4c0.4,0.8,1.4,2.1,1,3.1c-0.3,0.9-1.6,1-2.3,0.8
		c-3.4-1-4.7-7-5.3-10c0.8-1,1.7-1.8,2.8-2.3C17.9,57,19.9,57.1,21.9,57.4z"/>
</g>
<g>
	<path d="M78.9,67.3c-0.3,0-0.7-0.1-1-0.2c-1.5-0.7-2.7-3.3-3.3-7.7c-0.4-2.3-0.5-4.5-0.5-5.4c0-0.3,0.2-0.5,0.5-0.5
		c0.3,0,0.5,0.2,0.5,0.5c0,0.8,0.1,3,0.5,5.2c0.6,3.9,1.6,6.4,2.7,6.9c0.4,0.2,0.9,0.1,1.4-0.2l0.1,0c0.2-0.1,0.3-0.2,0.4-0.4
		c0,0,0,0,0-0.1c0.7-0.7,1.2-1.8,1.6-2.7l0.1-0.2c0.7-1.7,1.3-3.6,1.9-6c1-4.3,1.5-8.7,1.4-13.1c0-0.4,0-0.7,0-1.1
		c0-0.3,0.2-0.5,0.5-0.6c0.3,0,0.5,0.2,0.6,0.5c0,0.4,0,0.8,0,1.1c0.1,4.5-0.4,9-1.4,13.4c-0.6,2.4-1.2,4.4-2,6.2l-0.1,0.2
		c-0.4,1-0.9,2.2-1.8,3c0,0,0,0,0,0.1l0,0c-0.2,0.2-0.4,0.3-0.6,0.5c-0.1,0-0.1,0.1-0.2,0.1C79.8,67.2,79.3,67.3,78.9,67.3z
		 M80.7,65.9L80.7,65.9L80.7,65.9z"/>
</g>
<g>
	<path d="M94.8,65.3c-0.4,0-0.8-0.1-1.2-0.2c-2.1-0.5-3.9-2.3-4.9-4.8c-0.8-2.1-0.9-4.2-1.1-6.4c0-0.7-0.1-1.4-0.1-2.1
		c-0.3-2.9-1-5.7-2.1-8.3c-0.1-0.3,0-0.6,0.3-0.7c0.3-0.1,0.6,0,0.7,0.3c1.2,2.7,1.9,5.6,2.2,8.6c0.1,0.7,0.1,1.4,0.1,2.1
		c0.1,2,0.2,4.1,1,6c0.9,2.2,2.4,3.7,4.1,4.2c1.8,0.5,3.5-0.4,4.1-2.2c1.5-4.6-1.1-9.7-3.2-13.8l-0.1-0.3c-2.8-5.5-5.7-9.3-9.2-11.9
		c-0.2-0.2-0.3-0.5-0.1-0.8c0.2-0.2,0.5-0.3,0.8-0.1c3.6,2.7,6.6,6.7,9.5,12.3l0.1,0.3c2.2,4.3,4.9,9.6,3.2,14.6
		C98.3,64.2,96.7,65.3,94.8,65.3z"/>
</g>
<g>
	<path d="M71.3,38.2c0,0-0.1,0-0.1,0c-0.3-0.1-0.5-0.4-0.4-0.6c0.6-2.6,2.2-7.2,6-8.2c1.8-0.5,3.7-0.2,5.5,0.9c2,1.2,3.5,3.1,4,5.1
		c0.1,0.3-0.1,0.6-0.4,0.6c-0.3,0.1-0.6-0.1-0.6-0.4c-0.4-1.7-1.7-3.4-3.5-4.4c-1.5-0.9-3.2-1.2-4.7-0.7c-3.3,0.9-4.7,5.1-5.3,7.5
		C71.8,38.1,71.6,38.2,71.3,38.2z"/>
</g>
<g>
	<path d="M64.4,65.7c-1,0-1.8-0.5-2.4-1.4c-0.2-0.4-0.4-0.8-0.5-1.2c-0.5-2-0.1-4.2,0.2-6.2c0.1-0.3,0.1-0.7,0.2-1
		c0.4-2.4,0.8-4.9,1.6-7.4c0.9-2.8,2.1-5.2,3.5-7.2c1.2-1.6,2.5-2.9,4-4c0,0,0.1-0.1,0.1-0.1c0.2-0.2,0.6-0.1,0.7,0.2
		c0.2,0.2,0.1,0.6-0.2,0.7l-0.3-0.4l0.3,0.5c-1.4,1-2.7,2.3-3.8,3.8c-1.4,1.9-2.5,4.2-3.4,6.9c-0.8,2.4-1.2,4.9-1.6,7.3
		c-0.1,0.3-0.1,0.7-0.2,1c-0.3,1.9-0.7,3.9-0.2,5.7c0.1,0.3,0.2,0.7,0.4,0.9c0.4,0.6,1.1,1.2,2.3,0.7c1.4-0.6,2.6-2,3.7-4.4
		c1.5-3.2,2.2-6.8,3-10.3c0.3-1.3,0.6-2.7,0.9-4c0.1-0.3,0.4-0.5,0.7-0.4c0.3,0.1,0.5,0.4,0.4,0.7c-0.3,1.3-0.6,2.7-0.9,4
		c-0.8,3.5-1.6,7.1-3.1,10.5c-1.2,2.6-2.5,4.2-4.2,4.9C65.3,65.6,64.8,65.7,64.4,65.7z"/>
</g>
<g>
	<path d="M51.4,45.6c-4,0-8.1-0.4-12.3-0.9c-3.9-0.5-7.9-1.2-11.7-1.9c-1.4-0.3-2.9-0.5-4.3-0.8c-4.7-0.8-10.2-1.4-15.1,0.5
		c-0.3,0.1-0.6,0-0.7-0.3c-0.1-0.3,0-0.6,0.3-0.7c5.2-2,10.9-1.4,15.7-0.5c1.4,0.3,2.9,0.5,4.3,0.8c3.8,0.7,7.7,1.4,11.6,1.9
		c10,1.2,19.6,1.9,27.8-2.5c0.3-0.1,0.6,0,0.7,0.2c0.1,0.3,0,0.6-0.2,0.7C62.6,44.7,57.2,45.6,51.4,45.6z"/>
</g>
<g>
	<path d="M3.8,44.8c-0.2,0-0.4-0.1-0.5-0.3c-1.8-3.9-4.6-9.8-1.6-14.7c2-3.4,6.8-6.5,10.9-5.6c0.2,0.1,0.4,0.2,0.4,0.5
		c0,0.2-0.1,0.5-0.3,0.5c-3.1,1.2-5.4,3.8-6.3,7.1c-0.9,3.3-0.2,6.7,1.8,9.3c0.2,0.2,0.1,0.6-0.1,0.8c-0.2,0.2-0.6,0.1-0.8-0.1
		c-2.3-2.9-3-6.6-2-10.3c0.8-2.9,2.6-5.3,5.1-6.8c-3.1,0.3-6.2,2.7-7.8,5.2c-2.5,4.1-0.5,9,1.7,13.7c0.1,0.3,0,0.6-0.3,0.7
		C3.9,44.8,3.9,44.8,3.8,44.8z"/>
</g>
<g>
	<path d="M59.6,77.1c-1.7,0-3.2-1.4-4.3-4.1c-0.5-1.3-0.9-2.8-1.1-4.5c-0.1-0.5-0.1-1-0.1-1.5c0-1,0-2.1-0.5-2.9
		c-0.2-0.3-0.1-0.6,0.2-0.7c0.3-0.2,0.6-0.1,0.7,0.2c0.6,1,0.7,2.2,0.7,3.4c0,0.5,0,0.9,0.1,1.4c0.2,1.5,0.5,3,1,4.2
		c0.6,1.5,1.8,3.9,3.9,3.4c0.5-0.1,0.7-0.3,0.9-0.6c0.3-0.7-0.3-2.1-0.8-3.2c-0.4-0.8-0.7-1.5-0.8-2.1c-0.4-2.4,0.3-5.5,2.8-6.4
		c0.3-0.1,0.6,0,0.7,0.3c0.1,0.3,0,0.6-0.3,0.7c-1.9,0.8-2.4,3.3-2.1,5.3c0.1,0.5,0.4,1.1,0.7,1.8c0.7,1.4,1.4,3,0.8,4.2
		c-0.3,0.6-0.8,1-1.6,1.2C60.1,77.1,59.9,77.1,59.6,77.1z"/>
</g>
<g>
	<path d="M11.8,72.7c-0.9,0-1.9-0.3-2.6-1c-2-1.7-3-4.4-3.8-6.8l-0.3-0.8C3.9,60.9,3,57.5,2.4,54c-0.5-2.9-0.8-6.6,0.8-9.7
		C3.4,44,3.7,43.9,4,44.1c0.3,0.1,0.4,0.5,0.2,0.7c-1.5,2.9-1.2,6.3-0.7,9c0.6,3.4,1.5,6.8,2.6,10l0.3,0.8c0.8,2.3,1.7,4.8,3.5,6.3
		c0.8,0.7,2.1,0.9,2.8,0.5c0.5-0.3,0.6-0.8,0.4-1.7c-0.1-0.6-0.6-1.1-1-1.6c-0.3-0.3-0.6-0.7-0.9-1.1c-0.8-1.4-0.5-2.7-0.2-3.7
		c0.5-1.4,1.2-2.7,2.1-3.8c0.9-1.2,1.9-2,3-2.5c1.8-0.8,4-0.5,5.8-0.3c0.8,0.1,1.5,0.3,2.2,0.4c0.4,0.1,0.7,0.1,1.1,0.2
		c3.4,0.6,6.8,1.5,9.4,2.3c1.1,0.3,2.2,0.6,3.3,1c4.7,1.4,9.5,2.9,14.4,2.5c0.5,0,1-0.1,1.5-0.2c0.3,0,0.6,0.2,0.6,0.4
		c0,0.3-0.2,0.6-0.4,0.6c-0.5,0.1-1,0.1-1.6,0.2c-5.1,0.4-10-1.1-14.8-2.6c-1.1-0.3-2.2-0.7-3.3-1c-2.5-0.7-5.9-1.6-9.3-2.2
		c-0.4-0.1-0.7-0.1-1.1-0.2c-0.7-0.1-1.4-0.3-2.2-0.4c-1.5-0.2-3.7-0.5-5.2,0.2c-0.9,0.4-1.8,1.1-2.6,2.2c-0.8,1-1.4,2.2-1.9,3.5
		c-0.4,1.2-0.4,2,0.1,2.8c0.2,0.3,0.5,0.6,0.7,0.9c0.5,0.6,1,1.2,1.3,2c0.4,1.7-0.4,2.5-0.9,2.8C12.9,72.6,12.4,72.7,11.8,72.7z"/>
</g>
<g>
	<path d="M72.3,76c-1.2,0-2.3-0.7-3.4-2c-2.1-2.6-3.4-5.7-3.7-8.5c0-0.3,0.2-0.6,0.5-0.6c0.3,0,0.6,0.2,0.6,0.5
		c0.3,2.6,1.6,5.5,3.5,8c0.9,1.2,1.8,1.7,2.7,1.6c0.5,0,0.9-0.2,1.1-0.4c0.2-0.2,0.2-0.4,0.2-0.7c-0.1-0.7-0.6-1.4-1.1-2l-0.1-0.1
		c-1.1-1.4-1.5-2.6-1.5-4.3c0-1.6,0-3.3,0.8-4.6c0.8-1.3,1.7-2.5,2.6-3.7c0.2-0.2,0.5-0.3,0.8-0.1c0.2,0.2,0.3,0.5,0.1,0.7
		c-0.9,1.2-1.8,2.4-2.6,3.6c-0.7,1.2-0.6,3-0.6,4.1c0,1.4,0.4,2.4,1.3,3.6l0.1,0.1c0.6,0.7,1.3,1.6,1.3,2.6c0,0.6-0.1,1.1-0.5,1.5
		C74,75.7,73.3,76,72.5,76C72.5,76,72.4,76,72.3,76z"/>
</g>
<g>
	<path d="M19.6,70.6c-0.3,0-0.6,0-0.9-0.1c-3.3-1-4.8-6.1-5.7-10.4c0,0,0-0.1,0-0.1c-0.1-0.3,0.1-0.6,0.4-0.6
		c0.3-0.1,0.6,0.1,0.7,0.4c0,0,0,0.1,0,0.1c0.5,2.4,1.8,8.7,4.9,9.6c0.6,0.2,1.5,0.1,1.7-0.5c0.2-0.5-0.3-1.4-0.7-2
		c-0.1-0.2-0.2-0.4-0.3-0.6c-1.4-3,0-6,1.6-8.9c0.1-0.3,0.5-0.4,0.7-0.2c0.3,0.1,0.3,0.5,0.2,0.7c-1.5,2.6-2.8,5.4-1.6,7.9
		c0.1,0.2,0.2,0.3,0.3,0.5c0.5,0.9,1.1,2,0.7,3C21.3,70.3,20.4,70.6,19.6,70.6z"/>
</g>
<g>
	<path d="M81.7,64c-0.1,0-0.2,0-0.3-0.1c0,0-0.1,0-0.1-0.1c-0.3-0.3-0.7-0.5-1.1-0.6C79.7,63,79.1,63,78.5,63
		c-0.3,0-0.6,0.1-0.8,0.2c-0.3,0.1-0.6,0.3-0.9,0.5c-0.2,0.2-0.6,0.1-0.8-0.1c-0.2-0.2-0.1-0.6,0.1-0.8c0.4-0.3,0.8-0.5,1.2-0.7
		c0.3-0.1,0.7-0.2,1-0.3c0.8-0.1,1.6,0,2.3,0.2c0.5,0.2,1,0.4,1.4,0.8c0,0,0,0,0.1,0.1c0.2,0.2,0.2,0.5,0,0.8
		C82,63.9,81.9,64,81.7,64z"/>
</g>
</svg>
