<?xml version="1.0" encoding="utf-8"?>
<!-- Generator: Adobe Illustrator 21.1.0, SVG Export Plug-In . SVG Version: 6.00 Build 0)  -->
<svg version="1.1" id="Layer_1" xmlns="http://www.w3.org/2000/svg" xmlns:xlink="http://www.w3.org/1999/xlink" x="0px" y="0px"
	 viewBox="0 0 100 100" style="enable-background:new 0 0 100 100;" xml:space="preserve">
<style type="text/css">
	.st0{fill:#EA9A65;}
</style>
<g>
	<path class="st0" d="M85.3,58.3L85.3,58.3c0.2-1.3,0.3-2.6,1.7-3.1c1.6-0.5,3.5-0.1,4.8,0.8c2.6,1.7,2.8,4.9,4.1,7.4
		c0.7-0.4,2-1.7,2.9-1.2c1.4,0.7-0.1,2.8-0.8,3.4c-1.3,1.2-3,1.5-4.4,0.3c-0.6-0.5-1-1.1-1.8-1c-0.6,0.1-1.2,0.6-1.2,1.2l-0.2,0
		c0.1,2.1-0.2,4.1-1.3,5.6c-0.4,0.6-1,1.1-1.7,1.5c-0.2,0.1-0.5,0.3-0.8,0.4c-1.5,0.6-3.1,0.8-4.7,1.1c-0.9,0.1-3,0.3-3.1,1.5
		c-0.2,1.3,2,1.6,2.6,2.4c0.5,0.8,0,1.4-0.2,2.2c-0.2,1,0.1,2,0.2,3.1c0.2,1.4-0.2,3.8-2.2,2.7c-1.5-0.8-1.7-3-1.2-4.4
		c-3.5,0.1-9.3-1.5-9.9-5.7c-0.5-4.1,4.7-5.7,7.9-6.3L76,69.8c-6-7.6-15.2-12.3-24.4-15c-2.3-0.7-4.7-1.3-7.1-1.6
		c-2.5-0.4-5.1-0.3-7.7-0.5c-4.6-0.3-8.9-1.8-11.8-5.5l-0.1-0.1c-2.3,3.4-7,2.3-10.5,2.7c-3.6,0.3-8.2,4.4-11.8,2.3
		c-2.1-1.1-1.2-3.3,0.2-4.6c1.7-1.6,3.7-1.9,5.9-1.7c4.9,0.4,9.8,1.1,14.2-1.7l0.4-0.3c-0.1-0.6-0.1-1.1-0.1-1.7
		c0.1-0.9,0.5-1.8,1-2.7c0.4-0.7,0.9-1.4,1.3-2.1c1.3-2.2,2.2-4.5,2.8-7c0.6-2.5,0.5-5,1.1-7.4c0.6-2.5,2.4-1.3,3.7,0.1
		c3.2,3.5,4.6,9.1,3,13.6c-0.3,1-1.4,2.5-0.2,3.2c0.8,0.5,2.7,0,3.5-0.1c1.3-0.2,2.6-0.5,3.8-0.8l0.4,0.1c0.5-2,1.6-4.3,3.8-4.4
		c1.3-0.1,2.8,0.8,3,2.2c0.1,0.6-0.1,1.1-0.4,1.5l0.5,0c0.8,0.3,1.6,0.5,2.4,0.6l0.2-0.1c-0.4-2,0.1-4.2,1.3-5.8
		c0.9-1.3,2.8-3,4.5-2c0.5,0.3,0.9,0.9,0.8,1.6c-0.2,1-1,1-1.6,1.6c-1.2,1.1-1.1,3.1-0.7,4.5l0.3,0.2c6,1.2,11.1,4.9,15.8,8.7
		C77.4,50.8,81.5,54.5,85.3,58.3z M28,39.8c1.3,0,1.2-2,0-1.9C27,37.9,26.8,39.7,28,39.8z"/>
</g>
<g>
	<path class="st0" d="M92.8,76.6c1.1,2.3,1.7,4.8,2.1,7.4c-1.5-2.6-4.4-9.2-7.5-10.8c0.7-0.4,1.3-0.9,1.7-1.5l0.3,0.1
		C90.9,72.7,92.1,75.2,92.8,76.6z"/>
</g>
<g>
	<path d="M28,37.9c1.2-0.1,1.3,1.9,0,1.9C26.8,39.7,27,37.9,28,37.9z"/>
</g>
<g>
	<path class="st0" d="M24,39.2l0.2,0.1c-0.5,0.9-0.9,1.8-1,2.7l-0.4,0c-2.3-2.1-5.3-2.5-8.3-2.7c-1.3-0.1-2.9-0.2-3.5-1.6
		c-0.5-1.1,0.1-2.3,1.1-2.9c1.8-1.1,4.4-0.4,6.3,0.1C21,35.6,22.9,36.8,24,39.2z"/>
</g>
<g>
	<path d="M80.2,87.3c-0.3,0-0.7-0.1-1.2-0.4c-1.5-0.8-1.9-2.8-1.6-4.4c-3.7-0.1-9.2-1.8-9.7-6.1c-0.3-2.3,0.9-5.4,8.2-6.8
		c0,0,0,0,0,0c0,0,0.1,0,0.1,0c0.3,0,0.5,0.2,0.5,0.5c0,0.2-0.2,0.4-0.4,0.5c0,0,0,0,0,0c-3.6,0.7-7.9,2.3-7.5,5.8
		c0.5,3.7,5.8,5.3,9.4,5.3c0.2,0,0.3,0.1,0.4,0.2c0.1,0.1,0.1,0.3,0.1,0.4c-0.5,1.3-0.2,3.2,1,3.9c0.5,0.3,0.8,0.3,1,0.2
		C81,86,81.1,84.8,81,84c0-0.2-0.1-0.4-0.1-0.6c-0.2-0.9-0.3-1.7-0.1-2.7c0.1-0.3,0.1-0.5,0.2-0.7c0.2-0.5,0.3-0.8,0-1.1
		c-0.2-0.2-0.6-0.4-1-0.7c-0.8-0.4-1.9-1-1.7-2.1c0.2-1.4,2.1-1.7,3.2-1.9c0.1,0,0.2,0,0.3,0l0.6-0.1c1.3-0.2,2.7-0.4,4-1
		c0.3-0.1,0.5-0.2,0.7-0.4c0.6-0.4,1.2-0.8,1.6-1.4c1-1.2,1.4-3,1.2-5.3c0,0,0-0.1,0-0.1c0-0.3,0.2-0.5,0.5-0.5s0.5,0.2,0.5,0.5
		c0.1,2.5-0.3,4.5-1.4,5.9c-0.5,0.6-1.1,1.2-1.8,1.6c-0.3,0.2-0.6,0.3-0.8,0.4c-1.3,0.6-2.8,0.8-4.2,1L82,75.1c-0.1,0-0.2,0-0.3,0.1
		c-0.9,0.1-2.3,0.3-2.4,1.1c-0.1,0.4,0.4,0.7,1.2,1.1c0.5,0.3,1,0.5,1.3,0.9c0.5,0.8,0.3,1.4,0.1,2c-0.1,0.2-0.1,0.4-0.2,0.6
		c-0.2,0.8,0,1.5,0.1,2.3c0,0.2,0.1,0.4,0.1,0.6c0.2,1.2,0,2.7-0.8,3.2C80.9,87.2,80.6,87.3,80.2,87.3z"/>
</g>
<g>
	<path d="M95.6,67.2c-0.8,0-1.6-0.3-2.3-0.8c-0.1-0.1-0.3-0.2-0.4-0.3c-0.4-0.4-0.7-0.6-1.1-0.6c-0.4,0-0.8,0.4-0.8,0.8
		c0,0.3-0.1,0.5-0.4,0.6c-0.3,0-0.5-0.1-0.6-0.4c0-0.1,0-0.1,0-0.2c0-0.9,0.8-1.6,1.7-1.7c0.8-0.1,1.4,0.4,1.8,0.8
		c0.1,0.1,0.2,0.2,0.4,0.3c1.2,0.9,2.5,0.8,3.8-0.3c0.5-0.4,1.2-1.5,1.2-2.2c0-0.2-0.1-0.3-0.3-0.4c-0.5-0.2-1.5,0.5-2.1,0.9
		c-0.2,0.1-0.3,0.2-0.4,0.3c-0.1,0.1-0.3,0.1-0.4,0.1c-0.1,0-0.2-0.1-0.3-0.2c-0.4-0.8-0.7-1.6-1-2.5c-0.7-1.9-1.3-3.7-2.9-4.8
		c-1.3-0.9-3.1-1.2-4.4-0.7c-1.1,0.4-1.2,1.2-1.4,2.7c0,0.3-0.3,0.5-0.5,0.4c-0.3,0-0.4-0.3-0.4-0.5c0.1-1.3,0.3-2.9,2-3.4
		c1.6-0.6,3.7-0.2,5.2,0.9c1.9,1.3,2.6,3.3,3.3,5.3c0.2,0.6,0.4,1.2,0.7,1.8c0.8-0.6,2-1.4,3-0.9c0.5,0.2,0.7,0.6,0.8,1.1
		c0.2,1.1-0.9,2.6-1.5,3C97.5,66.8,96.6,67.2,95.6,67.2z"/>
</g>
<g>
	<path d="M87.8,61.4c-0.1,0-0.3-0.1-0.3-0.1c-0.9-1-1.7-1.8-2.5-2.6c-3.7-3.8-7.8-7.5-12-10.9c-4.4-3.5-9.6-7.4-15.6-8.6
		c-0.3,0-0.4-0.3-0.4-0.6c0-0.3,0.3-0.4,0.6-0.4c6.2,1.2,11.5,5.2,16,8.8c4.3,3.4,8.3,7.1,12.1,11c0.8,0.8,1.6,1.6,2.5,2.6
		c0.2,0.2,0.2,0.5,0,0.7C88,61.3,87.9,61.4,87.8,61.4z"/>
</g>
<g>
	<path d="M45.8,48.9c-0.1,0-0.3-0.1-0.4-0.2c-2.1-2.5-3.1-6-2.5-9.2c0-0.2,0.1-0.5,0.1-0.7c0.7-2.8,2.3-4.6,4.2-4.8
		c1.5-0.1,3.3,0.8,3.5,2.6c0.1,0.7-0.1,1.3-0.5,1.8c-0.3,0.4-0.7,0.7-1.2,0.9c-0.2,0.1-0.4,0.3-0.6,0.4c-0.5,0.4-0.7,0.9-0.6,1.6
		c0.2,1.7,2,3.7,3.1,4.2c0.2,0.1,0.3,0.4,0.2,0.6c-0.1,0.2-0.4,0.3-0.6,0.2c-1.4-0.7-3.5-2.9-3.7-5c-0.1-1,0.2-1.8,1-2.4
		c0.2-0.2,0.4-0.3,0.7-0.5c0.4-0.3,0.7-0.5,1-0.8c0.3-0.3,0.4-0.7,0.3-1.1c-0.1-1.1-1.4-1.8-2.5-1.8c-2.3,0.2-3.2,3.2-3.4,4.1
		c-0.1,0.2-0.1,0.5-0.1,0.7c-0.5,2.9,0.4,6.1,2.3,8.4c0.2,0.2,0.1,0.5-0.1,0.7C46,48.8,45.9,48.9,45.8,48.9z"/>
</g>
<g>
	<path d="M52.6,39l0.5-0.1L52.6,39c0-0.1,0-0.2,0-0.2c-0.4-2.1,0-4.3,1.4-6.2c1.3-1.8,3.3-3.2,5.1-2.1c0.7,0.4,1.1,1.2,1,2
		c-0.1,0.9-0.7,1.2-1.2,1.5c-0.2,0.1-0.4,0.2-0.6,0.4c-0.8,0.7-1,2.1-0.8,3.3c0.1,0.1,0.2,0.2,0.2,0.4v0.5c0,0.2-0.2,0.4-0.4,0.5
		c-0.2,0-0.5-0.1-0.5-0.3c-0.4-1.5-0.5-3.7,0.9-5c0.2-0.2,0.5-0.4,0.7-0.5c0.5-0.3,0.7-0.4,0.7-0.8c0.1-0.5-0.2-0.9-0.6-1.1
		c-1.4-0.9-3.1,0.7-3.9,1.8c-1.2,1.7-1.6,3.7-1.2,5.5c0,0,0,0,0,0.1c0,0,0,0.1,0,0.1L52.6,39z"/>
</g>
<g>
	<path d="M52.8,39.2C52.7,39.2,52.7,39.2,52.8,39.2c-0.9-0.1-1.8-0.4-2.6-0.7c-0.2-0.1-0.4-0.4-0.3-0.6c0.1-0.2,0.4-0.4,0.6-0.3
		c0.7,0.3,1.5,0.5,2.3,0.6c0.3,0,0.4,0.3,0.4,0.5C53.2,39,53,39.2,52.8,39.2z"/>
</g>
<g>
	<path d="M23.2,44.2c-0.2,0-0.4-0.1-0.5-0.4c-0.1-0.6-0.2-1.2-0.1-1.8c0.1-0.9,0.5-1.8,1.1-2.9c0.2-0.4,0.5-0.8,0.8-1.3
		c0.2-0.3,0.4-0.6,0.5-0.9c1.2-2,2.1-4.3,2.8-6.9c0.3-1.2,0.4-2.5,0.5-3.8c0.1-1.2,0.2-2.5,0.5-3.7c0.2-1,0.7-1.6,1.4-1.7
		c1.2-0.3,2.4,0.9,3.1,1.6c3.4,3.7,4.7,9.5,3.1,14.1c-0.1,0.2-0.2,0.4-0.3,0.7c-0.5,1.1-0.6,1.7-0.1,2c0.5,0.3,2,0,2.7-0.1
		c0.2,0,0.3-0.1,0.4-0.1c1-0.2,2-0.4,2.9-0.6l0.9-0.2c0.3-0.1,0.5,0.1,0.6,0.4c0.1,0.3-0.1,0.5-0.4,0.6l-0.9,0.2c-1,0.2-2,0.5-3,0.6
		c-0.1,0-0.3,0-0.4,0.1c-1,0.2-2.6,0.5-3.4,0c-1.3-0.8-0.6-2.2-0.2-3.2c0.1-0.2,0.2-0.4,0.3-0.6c1.5-4.3,0.3-9.7-2.9-13.2
		c-0.8-0.9-1.7-1.4-2.2-1.3c-0.4,0.1-0.6,0.6-0.7,1.1c-0.3,1.1-0.4,2.3-0.5,3.5c-0.1,1.3-0.2,2.6-0.6,3.9c-0.7,2.6-1.6,5-2.9,7.1
		c-0.2,0.3-0.4,0.6-0.5,0.9c-0.3,0.4-0.5,0.8-0.7,1.2c-0.6,1-0.9,1.8-1,2.5c-0.1,0.5-0.1,1,0.1,1.5c0.1,0.3-0.1,0.5-0.4,0.6
		C23.3,44.2,23.3,44.2,23.2,44.2z"/>
</g>
<g>
	<path d="M76,70.3c-0.1,0-0.3-0.1-0.4-0.2c-6.6-8.4-16.8-12.7-24.1-14.9c-2.6-0.8-4.9-1.3-7-1.6c-1.6-0.2-3.3-0.3-4.9-0.4
		c-0.9,0-1.8-0.1-2.8-0.2c-5.5-0.4-9.5-2.3-12.2-5.6c-0.2-0.2-0.1-0.5,0.1-0.7c0.2-0.2,0.5-0.1,0.7,0.1c2.5,3.2,6.2,4.9,11.5,5.3
		c0.9,0.1,1.8,0.1,2.7,0.1c1.6,0.1,3.3,0.1,5,0.4c2.2,0.3,4.5,0.9,7.2,1.6c7.5,2.2,17.8,6.6,24.6,15.2c0.2,0.2,0.1,0.5-0.1,0.7
		C76.2,70.3,76.1,70.3,76,70.3z"/>
</g>
<g>
	<path d="M4.8,53.2c-0.9,0-1.7-0.2-2.5-0.6c-1.1-0.6-1.4-1.4-1.5-2c-0.2-1.3,0.7-2.6,1.5-3.4c1.6-1.5,3.6-2.1,6.3-1.8l1.1,0.1
		c4.4,0.4,8.9,0.8,12.8-1.7c0.2-0.1,0.5-0.1,0.7,0.1c0.1,0.2,0.1,0.5-0.1,0.7c-4.2,2.7-8.9,2.3-13.4,1.9l-1.1-0.1
		C6.2,46,4.4,46.5,3,47.8c-0.8,0.8-1.3,1.8-1.2,2.6c0.1,0.5,0.4,1,1,1.3c2.1,1.2,4.7,0.1,7.2-1c1.5-0.7,3-1.3,4.4-1.4
		c0.8-0.1,1.7-0.1,2.7-0.1c2.9,0,5.8,0,7.5-2.4c0,0,0-0.1,0.1-0.1c0.2-0.2,0.5-0.3,0.7-0.1c0.2,0.2,0.3,0.4,0.1,0.7c0,0,0,0,0,0.1
		c-1.9,2.8-5.3,2.8-8.2,2.8c-0.9,0-1.8,0-2.6,0.1c-1.2,0.1-2.6,0.7-4.1,1.3C8.5,52.4,6.6,53.2,4.8,53.2z"/>
</g>
<g>
	<path d="M22.8,42.5c-0.1,0-0.2,0-0.3-0.1c-2.2-2-5.2-2.4-8-2.5c-1.3-0.1-3.2-0.2-3.9-1.9c-0.5-1.3,0-2.7,1.3-3.5
		c1.9-1.2,4.5-0.5,6.5,0l0.3,0.1c2.9,0.8,4.8,2.2,5.8,4.5c0.1,0.2,0,0.5-0.2,0.6c-0.2,0.1-0.5,0-0.6-0.2c-0.9-2.1-2.6-3.3-5.2-4
		l-0.3-0.1c-1.8-0.5-4.1-1.1-5.7-0.1c-0.7,0.4-1.3,1.4-0.9,2.3c0.4,1.1,1.7,1.2,3.1,1.3c2.9,0.1,6.1,0.6,8.6,2.8
		c0.2,0.2,0.2,0.5,0,0.7C23.1,42.4,22.9,42.5,22.8,42.5z"/>
</g>
<g>
	<path d="M94.9,84.5c-0.2,0-0.3-0.1-0.4-0.2c-0.3-0.5-0.6-1.2-1.1-2c-1.5-3-3.9-7.4-6.2-8.7c-0.2-0.1-0.3-0.2-0.3-0.4
		c0-0.3,0.4-0.6,0.7-0.4c0,0,0,0,0,0c2.4,1.3,4.6,5.2,6.2,8.3c-0.4-1.6-0.9-3-1.5-4.3c-0.6-1.2-1.8-3.8-3.2-4.6
		c-0.2-0.1-0.3-0.4-0.2-0.6c0.1-0.2,0.4-0.3,0.6-0.2c1.6,1,2.9,3.6,3.6,5c1,2.2,1.7,4.6,2.1,7.5c0,0.2-0.1,0.4-0.3,0.5
		C95,84.5,94.9,84.5,94.9,84.5z"/>
</g>
<g>
	<path d="M32.2,35c-0.2,0-0.4,0-0.6-0.1c-0.2-0.1-0.4-0.3-0.3-0.6c0.1-0.2,0.3-0.4,0.6-0.3c0.6,0.2,1-0.1,1.3-0.5
		c0.2-0.3,0.3-0.9,0-1.3c-0.2-0.2-0.2-0.5,0-0.7c0.2-0.2,0.5-0.2,0.7,0c0.6,0.6,0.7,1.6,0.2,2.4C33.5,34.6,32.9,35,32.2,35z"/>
</g>
</svg>
