<?xml version="1.0" encoding="utf-8"?>
<!-- Generator: Adobe Illustrator 21.1.0, SVG Export Plug-In . SVG Version: 6.00 Build 0)  -->
<svg version="1.1" id="Layer_1" xmlns="http://www.w3.org/2000/svg" xmlns:xlink="http://www.w3.org/1999/xlink" x="0px" y="0px"
	 viewBox="0 0 100 100" style="enable-background:new 0 0 100 100;" xml:space="preserve">
<style type="text/css">
	.st0{fill:#EA9A65;}
</style>
<g>
	<g id="XMLID_2_">
		<path d="M97.6,88.9c-0.1-0.4-0.3-0.8-0.4-1.1c0.1,0,0.1,0,0.2,0c0.3,0.1,0.5,0.5,0.4,0.8C97.8,88.8,97.7,88.9,97.6,88.9z"/>
		<path d="M97.2,87.8c0.1,0.4,0.3,0.7,0.4,1.1c-0.2,0.2-0.4,0.2-0.6,0.1h0c-0.2-0.5-0.3-0.9-0.5-1.4C96.7,87.7,97,87.8,97.2,87.8z"
			/>
		<path class="st0" d="M96.1,83.8c-0.7-1.3-1.3-2.7-1.8-4.2c-1.1-3.1-1.9-6.3-2.5-9.6c-0.1-0.6-0.2-1.3-0.3-1.9
			c-0.2-1.1-0.3-2.1-0.5-3.2c2.8,2.7,4.6,6.5,6.1,10.2c1.2,2.9,1.9,6.5,0.9,7.9C97.6,83.6,97,83.8,96.1,83.8z"/>
		<path class="st0" d="M97,89.1c0,0,0,0.1,0,0.1c-0.1-0.1-0.1-0.1-0.2-0.1C96.9,89.1,96.9,89.1,97,89.1L97,89.1z"/>
		<path d="M97.7,89c0.6,1.9-0.2,3-1.5,3.3v0c1.2-0.2,1.9-2.3,0.9-3.1c0,0,0-0.1,0-0.1C97.2,89.2,97.5,89.1,97.7,89
			C97.6,89,97.7,89,97.7,89z"/>
		<path d="M96.3,84.2c0.1,0.3,0.3,0.6,0.4,0.9c-0.1,0-0.3,0-0.5,0c-0.1,0-0.2,0-0.2,0c-0.1-0.2-0.2-0.4-0.3-0.6
			c-0.1-0.2-0.2-0.4-0.3-0.5c0.1-0.1,0.3-0.2,0.4-0.2c0.1,0,0.1,0,0.2,0C96.2,83.9,96.2,84.1,96.3,84.2z"/>
		<path d="M95.7,84.5c0.1,0.2,0.2,0.4,0.3,0.6c-0.1,0-0.1,0-0.2,0c-0.4,0-0.6-0.3-0.6-0.7c0-0.2,0.1-0.3,0.2-0.4
			C95.6,84.1,95.6,84.3,95.7,84.5z"/>
		<path d="M94.2,89.7c-0.1,0.1-0.3,0.1-0.4,0.1c-0.2,0-0.3-0.1-0.5-0.2c0.1-0.2,0.3-0.3,0.5-0.4c0.7-0.2,1.8-0.4,2.3-0.4
			c0.3,0,0.6,0.1,0.8,0.2C96,88.8,95,89.1,94.2,89.7z"/>
		<path d="M97,89.2c1,0.9,0.3,2.9-0.9,3.1c-0.4,0.1-0.8-0.1-1.2-0.4c-0.2,0.3-0.7,0.3-1,0c-0.3-0.1-0.6-0.4-0.8-0.6c0,0,0-0.1,0-0.1
			c0.2,0.1,0.3,0.1,0.5,0.2c1.3,0.5,2.6,0.5,3.2-0.1C97.4,90.7,97.3,89.9,97,89.2C97,89.2,97,89.2,97,89.2z"/>
		<path d="M93.4,89.4c0.1-0.1,0.2-0.1,0.4-0.2c-0.2,0.1-0.3,0.3-0.5,0.4c0,0,0,0,0,0c0,0,0-0.1-0.1-0.1
			C93.3,89.5,93.3,89.4,93.4,89.4z"/>
		<path d="M96.8,91.3c-0.6,0.6-1.9,0.6-3.2,0.1c-0.2-0.1-0.3-0.1-0.5-0.2c0,0,0,0,0,0c0-0.2,0.1-0.3,0.2-0.5c0.1-0.3,0-0.6-0.2-0.8
			c0-0.1,0.1-0.1,0.1-0.2c0.1,0.1,0.3,0.2,0.5,0.2c0.1,0,0.3,0,0.4-0.1c0.8-0.6,1.8-0.9,2.7-0.7c0.1,0,0.1,0.1,0.2,0.1c0,0,0,0,0,0
			C97.3,89.9,97.4,90.7,96.8,91.3z"/>
		<path d="M96.5,87.7c0.2,0.5,0.4,0.9,0.5,1.4c-0.1,0-0.1,0-0.2,0c-0.2-0.1-0.5-0.2-0.8-0.2c-0.5,0-1.6,0.2-2.3,0.4
			c-0.2,0.1-0.3,0.1-0.4,0.2c-0.1,0-0.1,0.1-0.2,0.1c-0.1-0.3-0.1-0.6,0.2-0.8C94.3,88,95.4,87.6,96.5,87.7z"/>
		<path d="M93.3,89.7c-0.1,0.1-0.1,0.1-0.1,0.2c0,0,0,0-0.1,0c0,0,0,0-0.1,0c0-0.1,0.1-0.1,0.2-0.2C93.2,89.6,93.3,89.6,93.3,89.7
			C93.3,89.6,93.3,89.6,93.3,89.7z"/>
		<path d="M93.9,91.9c0.2,0.3,0.8,0.3,1,0c0.4,0.4,0.9,0.5,1.2,0.4v0c-0.8,0.2-1.8,0.1-2.7-0.3c-0.3-0.1-0.6-0.2-0.8-0.4
			c0.2,0,0.4-0.1,0.6-0.3C93.3,91.6,93.6,91.8,93.9,91.9z"/>
		<path d="M93.2,89.8c0.3,0.2,0.4,0.5,0.2,0.8c-0.1,0.2-0.2,0.4-0.2,0.5c0,0,0,0,0,0c-0.1,0-0.1,0-0.2-0.1c-0.1-0.2-0.2-0.5-0.2-0.8
			C92.9,90.2,93,90,93.2,89.8z"/>
		<path d="M93.2,89.8c-0.1,0.2-0.3,0.3-0.4,0.5c0-0.2,0.1-0.4,0.2-0.6C93.1,89.7,93.1,89.8,93.2,89.8C93.1,89.8,93.1,89.8,93.2,89.8
			z"/>
		<path d="M93,91.1c0.1,0,0.1,0.1,0.2,0.1c0,0,0,0.1,0,0.1C93.1,91.2,93,91.2,93,91.1z"/>
		<path d="M92,90.6c0-0.2,0.1-0.4,0.2-0.6c0.1-0.3,0.5-0.4,0.8-0.3c-0.1,0.2-0.2,0.4-0.2,0.6c0,0.3,0.1,0.5,0.2,0.8
			C92.7,91,92.3,90.8,92,90.6z"/>
		<path d="M92.4,91.6c-0.1,0-0.2-0.1-0.3-0.2c0.2,0.1,0.3,0.2,0.5,0.2C92.5,91.6,92.4,91.6,92.4,91.6z"/>
		<path d="M92.1,91.4c-0.1-0.2-0.2-0.4-0.1-0.6c0-0.1,0-0.1,0.1-0.2c0.3,0.2,0.7,0.3,1,0.5c0,0.1,0.1,0.1,0.1,0.2
			c-0.1,0.2-0.3,0.3-0.6,0.3h0C92.4,91.6,92.2,91.5,92.1,91.4z"/>
		<path d="M98.3,74.7c0.6,1.5,2.5,6.7,0.8,9.2c-0.5,0.7-1.3,1.2-2.3,1.2c-0.1-0.3-0.3-0.6-0.4-0.9c-0.1-0.1-0.1-0.3-0.2-0.4
			c0.9,0,1.5-0.2,1.9-0.7c1-1.4,0.3-5-0.9-7.9c-1.5-3.7-3.3-7.5-6.1-10.2c-0.1-0.6-0.3-1.2-0.5-1.7c-0.1-0.2-0.1-0.3-0.2-0.5
			c0.1,0,0.1,0.1,0.2,0.1C94.3,65.8,96.5,70.3,98.3,74.7z"/>
		<path d="M90.4,90.4c0.1-0.3,0-0.6-0.2-0.7l0-0.1c0.6,0.4,1.2,0.7,1.8,1c0,0.1,0,0.1-0.1,0.2c-0.1,0.2,0,0.4,0.1,0.6
			C91.5,91.1,90.9,90.8,90.4,90.4C90.4,90.4,90.4,90.4,90.4,90.4z"/>
		<path d="M96.1,92.3c1.3-0.3,2.2-1.4,1.5-3.3c0,0,0,0,0-0.1c0.1-0.1,0.1-0.2,0.2-0.3c0.1-0.3-0.1-0.7-0.4-0.8c0,0-0.1,0-0.2,0
			c-0.4-0.9-0.8-1.8-1.2-2.7c0.1,0,0.2,0,0.2,0c0.2,0,0.3,0,0.5,0c0.5,1.2,1.1,2.4,1.6,3.7c0.6,1.9-0.1,3-0.6,3.4
			c-0.6,0.5-1.4,0.8-2.4,0.8c-0.7,0-1.4-0.1-2.2-0.5c-0.9-0.4-1.9-0.9-2.9-1.4c0-0.3,0-0.5,0.1-0.7c0.6,0.3,1.1,0.6,1.7,0.9
			c0.1,0.1,0.2,0.2,0.3,0.2c0.1,0,0.1,0,0.2,0h0c0.3,0.1,0.6,0.3,0.8,0.4C94.3,92.4,95.3,92.5,96.1,92.3z"/>
		<path d="M94.3,79.6c0.5,1.4,1.2,2.8,1.8,4.2c-0.1,0-0.1,0-0.2,0c-0.2,0-0.3,0.1-0.4,0.2c-0.6-1.3-1.3-2.7-1.8-4.1
			c-1.1-3.2-2-6.4-2.5-9.7c-0.3-1.9-0.5-4-1.1-6c0.3,0.2,0.6,0.5,0.9,0.8c0.2,1.1,0.4,2.1,0.5,3.2c0.1,0.6,0.2,1.3,0.3,1.9
			C92.4,73.3,93.2,76.5,94.3,79.6z"/>
		<path d="M89.9,63.4c-0.1-0.2-0.1-0.4-0.2-0.5c0.2-0.2,0.4-0.2,0.6-0.2c0.1,0.2,0.1,0.3,0.2,0.5c0.2,0.6,0.3,1.1,0.5,1.7
			c-0.3-0.3-0.6-0.5-0.9-0.8C90,63.9,89.9,63.6,89.9,63.4z"/>
		<path d="M89.8,90.1c-0.2-0.1-0.3-0.2-0.5-0.3c0.2-0.2,0.4-0.3,0.7-0.2c0.1,0,0.1,0.1,0.2,0.1c0.2,0.2,0.3,0.4,0.2,0.7
			c0,0,0,0,0,0.1C90.2,90.4,90,90.2,89.8,90.1z"/>
		<path d="M89.7,63.8c-0.3-0.2-0.3-0.6-0.1-0.9c0,0,0,0,0.1-0.1c0.1,0.2,0.1,0.4,0.2,0.5c0.1,0.2,0.2,0.5,0.2,0.7
			C90,64,89.8,63.9,89.7,63.8z"/>
		<path d="M90.3,91.2c-0.3-0.2-0.5-0.3-0.8-0.5c-0.1-0.1-0.3-0.2-0.4-0.3c0-0.1,0-0.3,0.1-0.4c0-0.1,0.1-0.2,0.1-0.2
			c0.2,0.1,0.3,0.2,0.5,0.3c0.2,0.1,0.4,0.2,0.6,0.3C90.3,90.7,90.3,90.9,90.3,91.2z"/>
		<path class="st0" d="M85.8,88c1.1,0.9,2.2,1.7,3.3,2.4c-0.1,0.4-0.1,0.9,0,1.3c0,0.8,0,1.4-0.3,1.7c-0.6,0.5-1.4,0-1.8-0.3
			C85.7,92.1,85.3,90.4,85.8,88z"/>
		<path d="M85.8,88c0-0.2,0.1-0.4,0.1-0.6c0,0,0-0.1,0-0.1c1.1,0.9,2.2,1.7,3.4,2.5c-0.1,0.1-0.1,0.1-0.1,0.2c0,0.1-0.1,0.3-0.1,0.4
			C88,89.7,86.9,88.9,85.8,88z"/>
		<path d="M85.9,87.4c0,0.2-0.1,0.4-0.1,0.6c-0.2-0.2-0.4-0.4-0.7-0.5c-0.1-0.1-0.2-0.1-0.2-0.2c-0.1-0.1-0.1-0.1-0.2-0.2
			c0.1-0.2,0.3-0.4,0.5-0.4c0,0,0.1,0.1,0.1,0.1c0.1,0.1,0.2,0.1,0.2,0.2c0.1,0.1,0.3,0.2,0.4,0.3C85.9,87.3,85.9,87.4,85.9,87.4z"
			/>
		<path d="M85.3,86.8c0,0-0.1-0.1-0.1-0.1c0.1,0,0.2,0,0.3,0c0.3,0.1,0.5,0.3,0.5,0.6c-0.1-0.1-0.3-0.2-0.4-0.3
			C85.5,86.9,85.4,86.8,85.3,86.8z"/>
		<path d="M86.1,94.1c-1.7-1.4-2.2-3.7-1.4-7c0,0,0,0,0-0.1c0.1,0.1,0.1,0.1,0.2,0.2c0.1,0.1,0.2,0.1,0.2,0.2
			c0.2,0.2,0.4,0.4,0.7,0.5c-0.4,2.4-0.1,4.1,1.1,5.1c0.4,0.3,1.2,0.8,1.8,0.3c0.4-0.3,0.4-0.9,0.3-1.7c0-0.4,0-0.9,0-1.3
			c0.1,0.1,0.3,0.2,0.4,0.3c0.3,0.2,0.6,0.3,0.8,0.5c0,0.1,0,0.3,0,0.5c0,0.9,0.1,2-0.8,2.7c-0.4,0.4-0.9,0.6-1.4,0.6
			C87.5,94.9,86.8,94.6,86.1,94.1z"/>
		<path d="M84.3,57.2c2.3,0.4,4.1,2.1,5,3.6c0.4,0.6,0.7,1.2,0.9,1.9c-0.2-0.1-0.5,0-0.6,0.2c-0.2-0.6-0.5-1.2-0.9-1.7
			c-0.9-1.5-2.5-2.8-4.2-3.3c0-0.2,0-0.4-0.1-0.5C84.4,57.3,84.4,57.2,84.3,57.2z"/>
		<path d="M84.5,57.3c0.1,0.2,0.2,0.4,0.1,0.5c-0.2-0.1-0.4-0.1-0.6-0.1v0c-0.2-0.2-0.3-0.4-0.5-0.6c0.2,0,0.4,0,0.5,0
			c0.1,0,0.2,0,0.3,0C84.4,57.2,84.4,57.3,84.5,57.3z"/>
		<path d="M83.9,58.4c0.1,0,0.3,0,0.4-0.1c0.1-0.1,0.2-0.2,0.2-0.4c1.7,0.4,3.3,1.8,4.2,3.3c0.3,0.5,0.6,1.1,0.9,1.7
			c0,0,0,0-0.1,0.1c-0.2,0.3-0.2,0.7,0.1,0.9c0.1,0.1,0.2,0.2,0.4,0.3c0.5,1.9,0.7,4,1.1,6c0.6,3.3,1.4,6.6,2.5,9.7
			c0.5,1.4,1.1,2.8,1.8,4.1c-0.1,0.1-0.2,0.3-0.2,0.4c0,0.4,0.2,0.7,0.6,0.7c0.1,0,0.1,0,0.2,0c0.4,0.9,0.9,1.8,1.2,2.7
			c-0.2-0.1-0.5-0.1-0.7-0.1c-0.4-1-0.9-2-1.3-2.9c-0.7-1.5-1.5-3.1-2.1-4.7c-1.1-3.1-2-6.5-2.6-9.8c-0.1-0.6-0.2-1.3-0.3-1.9
			c-0.2-1.6-0.5-3.2-1-4.7c-0.3-0.8-0.6-1.5-1-2.1C87.2,59.8,85.5,58.6,83.9,58.4L83.9,58.4C83.9,58.4,83.9,58.4,83.9,58.4z"/>
		<path d="M84.3,58.2c-0.1,0.1-0.3,0.1-0.4,0.1c0,0-0.1,0-0.1,0c-0.2,0-0.3-0.1-0.4-0.2c-0.2-0.3-0.5-0.7-0.7-1c0.2,0,0.5-0.1,0.8,0
			c0.1,0.2,0.3,0.4,0.5,0.6v0c0.2,0,0.4,0.1,0.6,0.1C84.5,58,84.5,58.1,84.3,58.2z"/>
		<path d="M83.9,71c0.6,0.8-0.1,2.3-1.2,2.1c-0.7-0.2-1.4-1-1.1-1.8C81.9,70.5,83.4,70.3,83.9,71z"/>
		<path d="M83.9,58.4L83.9,58.4c-0.6-0.1-1.3,0-1.8,0.2c-0.3,0.1-0.7,0-0.8-0.4c-0.1-0.3,0-0.7,0.4-0.8c0.4-0.1,0.8-0.2,1.2-0.3
			c0.2,0.3,0.5,0.7,0.7,1C83.5,58.3,83.7,58.3,83.9,58.4z"/>
		<path d="M80.9,82.3c1.3,1.5,2.7,3,4.2,4.3c-0.2,0-0.4,0.2-0.5,0.4c-1.5-1.3-3-2.8-4.3-4.4c0.1,0,0.2,0,0.3-0.1
			C80.8,82.5,80.9,82.4,80.9,82.3z"/>
		<path d="M80.2,81.3c0.3-0.1,0.7,0.1,0.8,0.4c0.1,0.2,0,0.4-0.1,0.6c-0.1-0.2-0.3-0.3-0.4-0.5C80.4,81.7,80.3,81.5,80.2,81.3
			C80.2,81.3,80.2,81.3,80.2,81.3z"/>
		<path d="M79.4,81.4c0.3,0,0.5,0,0.7-0.1c0.1,0.2,0.3,0.3,0.4,0.5c0.1,0.2,0.3,0.3,0.4,0.5c-0.1,0.1-0.2,0.2-0.3,0.2
			c-0.1,0-0.2,0.1-0.3,0.1c-0.1-0.1-0.2-0.3-0.3-0.4C79.8,82,79.6,81.7,79.4,81.4z"/>
		<path d="M76.9,82c0-0.3,0.2-0.7,0.6-0.7c0.4,0,0.7,0.2,0.7,0.6c0,0.2,0,0.4,0.1,0.6c-0.3-0.1-0.5-0.1-0.8-0.2
			c-0.2,0-0.3-0.1-0.5-0.2C76.9,82.1,76.9,82.1,76.9,82z"/>
		<path d="M77.5,81.4c-0.4,0-0.6,0.3-0.6,0.7c0,0,0,0.1,0,0.1c-0.2-0.1-0.4-0.2-0.7-0.3c-0.3-0.1-0.5-0.5-0.3-0.8
			c0.1-0.3,0.5-0.5,0.8-0.3c0.4,0.2,0.8,0.3,1.1,0.4c0.6,0.2,1.2,0.3,1.6,0.3c0.2,0.3,0.4,0.5,0.6,0.8c0.1,0.1,0.2,0.3,0.3,0.4
			c-0.3,0.1-0.6,0.1-0.9,0.1c-0.4,0-0.8,0-1.3-0.2c0-0.2,0-0.4-0.1-0.6C78.1,81.6,77.8,81.4,77.5,81.4z"/>
		<path d="M85.4,86.6c-0.1,0-0.2,0-0.3,0c-1.5-1.3-2.9-2.8-4.2-4.3c0.1-0.2,0.2-0.4,0.1-0.6c-0.1-0.3-0.5-0.5-0.8-0.4c0,0,0,0-0.1,0
			c-2.2-2.8-3.9-6-5.2-9.3c0-0.1,0.1-0.1,0.1-0.2c0.1-0.2,0.2-0.3,0.3-0.5c0,0,0,0.1,0.1,0.1c1.3,3.6,3.2,6.9,5.6,9.9
			c1.4,1.7,3,3.4,4.7,4.8c0.1,0.1,0.1,0.1,0.2,0.2c1.4,1.2,2.8,2.3,4.2,3.1c0,0,0,0,0,0l0,0.1c-0.1,0-0.1-0.1-0.2-0.1
			c-0.3-0.1-0.5,0-0.7,0.2c-1.2-0.8-2.3-1.6-3.4-2.5C85.9,87,85.7,86.7,85.4,86.6z"/>
		<path d="M79.4,81.4c-2-2.7-3.6-5.6-4.8-8.6c0.1-0.3,0.2-0.5,0.4-0.8c1.2,3.4,3,6.5,5.2,9.3C80,81.4,79.7,81.4,79.4,81.4z"/>
		<path d="M74.3,72c0.1-0.1,0.2-0.3,0.2-0.4l0.3,0.2c0,0.1,0.1,0.2,0.1,0.3c-0.1,0.3-0.3,0.5-0.4,0.8C74.5,72.6,74.4,72.3,74.3,72z"
			/>
		<path class="st0" d="M73.7,83.7c0-2.1,0.1-4.2,0.2-6.4c0.1-1.3,0.2-3.1,0.7-4.5c1.2,3,2.8,5.9,4.8,8.6c-0.5,0-1-0.1-1.6-0.3
			c-0.3-0.1-0.7-0.2-1.1-0.4c-0.3-0.1-0.7,0-0.8,0.3c-0.1,0.3,0,0.7,0.3,0.8c0.3,0.1,0.5,0.2,0.7,0.3c0.2,2.8,1.5,5.4,2.8,7.8
			l0.5,1.1c1.1,2.2,1.9,4.1,0.4,5.2c-0.5,0.4-1,0.5-1.4,0.4c-0.7-0.2-1.4-1.2-1.7-2.4c-0.1-0.2-0.1-0.4-0.1-0.7
			c-0.2-0.9-0.4-1.8-1.2-2.6c-0.4-0.4-0.8-0.7-1.3-0.9c-0.5-0.3-1-0.6-1.3-1c0-0.2,0-0.5,0-0.7c0-0.5,0-0.9,0-1.2
			C73.6,86,73.6,84.8,73.7,83.7z"/>
		<path d="M74.7,71.1c0.3-0.1,0.6,0,0.8,0.3c-0.1,0.1-0.2,0.3-0.3,0.5c0,0-0.1,0.1-0.1,0.2c0-0.1-0.1-0.2-0.1-0.3l-0.3-0.2
			c-0.1,0.1-0.2,0.3-0.2,0.4c0,0,0,0,0,0C74.1,71.6,74.3,71.3,74.7,71.1z"/>
		<path d="M73.6,89.2c0-0.1,0-0.1,0-0.2c0.3,0.4,0.8,0.7,1.3,1c0.4,0.3,0.9,0.5,1.3,0.9c0.8,0.8,1,1.7,1.2,2.6
			c0,0.2,0.1,0.4,0.1,0.7c0.3,1.2,1,2.2,1.7,2.4c0.4,0.1,0.9,0,1.4-0.4c1.4-1.1,0.7-3-0.4-5.2L79.6,90c-1.3-2.5-2.5-5-2.8-7.8
			c0.2,0.1,0.4,0.1,0.5,0.2c0.3,0.1,0.6,0.2,0.8,0.2c0.3,2.4,1.4,4.7,2.6,6.9l0.5,1.1c0.9,1.8,2.5,4.9,0.1,6.8
			c-0.7,0.5-1.3,0.7-1.8,0.7c-0.3,0-0.6-0.1-0.8-0.1c-1.4-0.5-2.2-2.1-2.5-3.3c-0.1-0.2-0.1-0.5-0.2-0.7c-0.2-0.8-0.3-1.4-0.8-1.9
			c-0.3-0.3-0.6-0.5-1-0.7c-0.2-0.1-0.4-0.3-0.6-0.4C73.6,90.2,73.6,89.7,73.6,89.2z"/>
		<path d="M73.6,88.3c0,0.2,0,0.5,0,0.7c0,0-0.1-0.1-0.1-0.1c0,0,0-0.1-0.1-0.2c-0.1-0.2-0.3-0.4-0.5-0.4c0-0.5,0-0.9,0-1.2
			c0.1-3.2,0.1-6.5,0.3-9.7c0.1-1.7,0.2-3.7,1.1-5.3c0.1,0.3,0.2,0.6,0.3,0.9c-0.5,1.4-0.6,3.2-0.7,4.5c-0.1,2.1-0.2,4.3-0.2,6.4
			c0,1.1,0,2.2-0.1,3.3C73.6,87.4,73.6,87.9,73.6,88.3z"/>
		<path d="M73.6,89.2c0,0.5,0,1,0,1.5c-0.2-0.2-0.4-0.3-0.6-0.5c0-0.3,0-0.7,0-1c0-0.3,0-0.6,0-0.9c0.2,0,0.4,0.2,0.5,0.4
			c0,0.1,0,0.1,0.1,0.2c0,0,0,0.1,0.1,0.1C73.6,89.1,73.6,89.1,73.6,89.2z"/>
		<path d="M72.3,89.2c0-0.2,0-0.4,0-0.6c0.1-0.1,0.2-0.2,0.3-0.3c0.1,0,0.2,0,0.3,0c0,0.3,0,0.6,0,0.9c0,0.3,0,0.7,0,1
			c-0.2-0.2-0.4-0.5-0.6-0.7c0,0,0-0.1-0.1-0.1C72.3,89.3,72.3,89.3,72.3,89.2z"/>
		<path d="M72.4,83.7c0-2.1,0.1-4.3,0.2-6.4c0.1-1.8,0.3-4.2,1.4-6.1c0.4-0.7,0.9-1.2,1.5-1.6c0.3-0.2,0.7-0.1,0.9,0.1
			c0.2,0.3,0.1,0.7-0.1,0.9c-0.3,0.2-0.6,0.5-0.8,0.8c-0.1-0.3-0.5-0.4-0.8-0.3c-0.3,0.1-0.5,0.5-0.4,0.8c0,0,0,0,0,0
			c-0.8,1.6-0.9,3.6-1.1,5.3C73,80.6,73,83.8,72.9,87c0,0.4,0,0.8,0,1.2c-0.1,0-0.2,0-0.3,0c-0.1,0-0.3,0.1-0.3,0.3
			c0-0.1,0-0.2,0-0.2c0-0.5,0-0.9,0-1.3C72.3,85.9,72.4,84.8,72.4,83.7z"/>
		<path d="M72.3,88.6c0,0.2,0,0.4,0,0.6c0,0,0,0.1,0,0.1c0-0.1-0.1-0.2-0.1-0.2C72.2,88.9,72.2,88.7,72.3,88.6z"/>
		<path d="M66.5,70.3c0.2,0.3,0.2,0.7-0.1,0.9c-0.1,0.1-0.1,0.1-0.2,0.1c0.1-0.2,0.2-0.4,0.4-0.6l-0.5,0c0-0.1-0.1-0.1-0.1-0.2
			c0,0,0.1-0.1,0.1-0.1c0.1-0.1,0.2-0.3,0.3-0.4C66.3,70,66.4,70.1,66.5,70.3z"/>
		<path d="M66,70.6l0.5,0c-0.1,0.2-0.2,0.4-0.4,0.6c0,0-0.1,0-0.2,0c-0.2,0-0.3-0.1-0.5-0.2c0.1-0.2,0.2-0.4,0.3-0.6
			C65.9,70.5,66,70.6,66,70.6z"/>
		<path d="M67.1,71c-4.3,7.3-4.6,14.7-0.8,19.7c0.8,1,2.8,3.3,4.7,2.5c1.2-0.5,1.4-2.2,1.4-3.9c0,0.1,0,0.1,0.1,0.1
			c0.1,0.3,0.3,0.5,0.6,0.7c-0.1,1.5-0.4,3-1.8,3.6c-2.2,0.9-4.3-1.2-5.4-2.7c-4.4-5.9-3.1-13.6,0.4-19.8c0.1,0,0.2-0.1,0.2-0.1
			c0.3-0.2,0.3-0.6,0.1-0.9c-0.1-0.1-0.2-0.2-0.3-0.4c1.2-2,2.7-3.9,4.3-5.5c0.3-0.2,0.7-0.2,0.9,0c0.2,0.3,0.2,0.7,0,0.9
			C69.8,67,68.3,68.9,67.1,71z"/>
		<path d="M66.2,71.3c-3.5,6.2-4.8,13.9-0.4,19.8c1.2,1.6,3.3,3.6,5.4,2.7c1.4-0.6,1.7-2,1.8-3.6c0.2,0.2,0.4,0.3,0.6,0.5
			c-0.1,1.6-0.6,3-2.1,3.7c-0.4,0.2-0.9,0.3-1.3,0.3c-1.6,0-3.3-1.1-4.9-3.2c-4-5.3-3.9-12.9,0.3-20.4c0.1,0.1,0.3,0.2,0.5,0.2
			C66.1,71.3,66.1,71.3,66.2,71.3z"/>
		<path class="st0" d="M31.8,44.8c0,1.4-0.4,2.5-1,3.1c-0.4,0.3-0.9,0.5-1.6,0.3c-1.9-0.3-2.3-2.5-2.6-4.7c-0.3-2.2-0.8-4.5-2.3-6.2
			c1.4-0.1,2.9-0.1,4.4,0c0,0.1,0.1,0.2,0.2,0.3C30.7,39.5,31.8,42.1,31.8,44.8z"/>
		<path d="M45.4,45.2c-4.5-3.9-9.7-6.6-14.9-7.6c-0.2-0.3-0.4-0.5-0.7-0.8c5.9,0.9,11.5,3.9,16,7.9c8.3,7.2,13.4,17.1,20,25.7
			c-0.1,0.2-0.2,0.4-0.3,0.6c0,0,0,0,0,0c-2.1-2.8-4.1-5.7-6-8.5C55.3,56.4,51.1,50.2,45.4,45.2z"/>
		<path d="M29.7,36.7c0.1,0.1,0.1,0.1,0.2,0.2c-0.2,0-0.4-0.1-0.6-0.1c-0.2,0-0.3,0-0.5-0.1l0,0C29,36.5,29.4,36.5,29.7,36.7z"/>
		<path d="M29.9,36.9c0.2,0.2,0.5,0.5,0.7,0.8c-0.4-0.1-0.9-0.2-1.3-0.2c-0.2,0-0.4,0-0.6-0.1c-0.1-0.2,0-0.5,0.1-0.6
			c0.2,0,0.3,0,0.5,0.1C29.5,36.8,29.7,36.9,29.9,36.9z"/>
		<path d="M28.6,37.4c-1.5-0.2-3-0.2-4.4,0c-0.2-0.2-0.4-0.4-0.6-0.6c1.7-0.2,3.5-0.2,5.2,0C28.6,36.9,28.6,37.2,28.6,37.4z"/>
		<path d="M33,44.8c0,0.8-0.1,2.9-1.5,4.1c-0.5,0.5-1.2,0.7-2,0.7c-0.2,0-0.4,0-0.6-0.1c-3-0.5-3.4-3.8-3.7-5.8
			c-0.3-2.3-0.9-4.8-2.8-6.2c0.1,0,0.2,0,0.3,0c0.5-0.1,1-0.1,1.4-0.2c1.5,1.7,2.1,4,2.3,6.2c0.3,2.2,0.7,4.4,2.6,4.7
			c0.7,0.1,1.2,0,1.6-0.3c0.6-0.5,1-1.7,1-3.1c0-2.7-1.1-5.3-3-7.1c-0.1-0.1-0.1-0.2-0.2-0.3c0.2,0,0.4,0,0.6,0.1
			c0.4,0.1,0.9,0.1,1.3,0.2C32.1,39.6,33,42.2,33,44.8z"/>
		<path d="M29.4,36.2c5.8,0.8,11.8,3.7,16.9,8.1c5.7,5,10.1,11.4,14.2,17.5c1.8,2.7,3.7,5.5,5.7,8.1C66.1,70,66,70.2,66,70.3
			c0,0-0.1,0.1-0.1,0.1c-6.6-8.6-11.8-18.5-20-25.7c-4.5-3.9-10.1-6.9-16-7.9c-0.1-0.1-0.1-0.1-0.2-0.2c-0.3-0.2-0.7-0.2-0.9,0l0,0
			c-1.7-0.2-3.4-0.2-5.2,0c-0.2-0.1-0.4-0.3-0.6-0.4c0,0,0,0,0,0c-0.1-0.1-0.2-0.1-0.3-0.1C24.9,35.9,27.1,35.9,29.4,36.2z"/>
		<path d="M22.7,36.2c0,0-0.1,0-0.1,0c-0.1,0-0.1,0-0.2,0C22.5,36.2,22.6,36.2,22.7,36.2z"/>
		<path d="M22.7,36.9c0.3,0,0.6-0.1,0.9-0.1c0.2,0.2,0.4,0.4,0.6,0.6c-0.5,0-1,0.1-1.4,0.2c-0.1,0-0.2,0-0.3,0
			c-0.1-0.1-0.1-0.1-0.2-0.1c0,0,0,0,0,0c0,0-0.1,0-0.1-0.1c-0.1-0.1-0.2-0.2-0.2-0.3C22.3,36.9,22.5,36.9,22.7,36.9z"/>
		<path d="M23.6,36.7c-0.3,0-0.6,0.1-0.9,0.1c-0.2,0-0.4,0.1-0.6,0.1c0-0.2,0-0.4,0.2-0.6c0.1-0.1,0.1-0.1,0.2-0.2h0
			c0.1,0,0.1,0,0.2,0c0,0,0.1,0,0.1,0c0.1,0,0.2,0,0.3,0.1c0,0,0,0,0,0C23.2,36.5,23.4,36.6,23.6,36.7z"/>
		<path class="st0" d="M82.7,73c1.1,0.3,1.8-1.2,1.2-2.1c-0.5-0.7-2-0.5-2.3,0.3C81.2,72,81.9,72.8,82.7,73z M72.3,87
			c0,0.4,0,0.8,0,1.3c0,0.1,0,0.1,0,0.2c-0.1,0.2-0.1,0.3-0.1,0.5c0,0.1,0.1,0.2,0.1,0.2c0,1.6-0.2,3.4-1.4,3.9
			C69,94,67,91.7,66.2,90.7c-3.8-5.1-3.5-12.5,0.8-19.7c1.2-2,2.7-4,4.4-5.6c0.2-0.3,0.2-0.7,0-0.9c-0.3-0.2-0.7-0.2-0.9,0
			c-1.6,1.6-3.1,3.5-4.3,5.5c-2-2.6-3.9-5.4-5.7-8.1c-4.2-6.1-8.5-12.5-14.2-17.5c-5.1-4.4-11.1-7.3-16.9-8.1
			c-2.3-0.3-4.5-0.3-6.7,0c-0.1,0-0.2,0-0.3,0h0c-1.8,0.3-3.6,0.9-5.3,1.6c-0.2,0.1-0.3,0.2-0.3,0.4c-0.1,0.2,0,0.4,0,0.5
			c2.1,3.8,2.9,7,2.6,9.6c-0.3,1.9-1.8,3.1-3,3.1c0,0,0,0,0,0c-1,0-1.8-0.9-2-2.4c-0.1-0.7-0.1-1.3-0.2-2c-0.1-1.5-0.1-3-1.1-4.6
			c-0.6-1-1.4-1.8-2.1-2.6c-0.7-0.8-1.4-1.5-1.9-2.4c-2.6-4-3.3-9.2-1.7-13.7c0,0,0-0.1,0-0.1c0,0,0-0.1,0-0.1c0-0.1,0.1-0.2,0-0.4
			c0.5-0.7,1-1.4,1.6-2c8.2-8.7,24.4-7.6,32.6-5.6c11.4,2.8,21.1,9.8,31.3,22.8c2.1,2.7,3.9,5.8,5.5,9.5c0.3,0.6,0.5,1.2,0.8,1.9
			c1,2.4,2,4.9,3.5,7.2c-0.4,0-0.8,0.1-1.2,0.3c-0.3,0.1-0.5,0.5-0.4,0.8c0.1,0.3,0.5,0.5,0.8,0.4c0.6-0.2,1.2-0.3,1.8-0.2
			c1.6,0.2,3.3,1.4,4.4,3.1c0.4,0.6,0.7,1.3,1,2.1c0.5,1.5,0.7,3.1,1,4.7c0.1,0.7,0.2,1.3,0.3,1.9c0.6,3.4,1.5,6.7,2.6,9.8
			c0.6,1.7,1.3,3.2,2.1,4.7c0.4,0.9,0.9,1.9,1.3,2.9c-1.1-0.1-2.2,0.3-3.1,1c-0.2,0.2-0.3,0.5-0.2,0.8c-0.1,0.1-0.1,0.1-0.2,0.2
			c-0.3-0.1-0.6,0-0.8,0.3c-0.1,0.2-0.2,0.4-0.2,0.6c-0.6-0.3-1.2-0.6-1.8-1c0,0,0,0,0,0c-1.4-0.9-2.8-1.9-4.2-3.1
			c-0.1,0-0.1-0.1-0.2-0.2c-1.7-1.5-3.3-3.1-4.7-4.8c-2.4-3-4.3-6.4-5.6-9.9c0,0,0-0.1-0.1-0.1c0.2-0.3,0.5-0.6,0.8-0.8
			c0.3-0.2,0.3-0.6,0.1-0.9c-0.2-0.3-0.6-0.3-0.9-0.1c-0.6,0.4-1.1,1-1.5,1.6c-1.1,1.9-1.3,4.3-1.4,6.1c-0.1,2.1-0.2,4.3-0.2,6.4
			C72.4,84.8,72.3,85.9,72.3,87z"/>
		<path d="M8.4,20c8.7-8.7,25.1-7.6,33.5-5.5c11.7,2.9,21.6,10,32,23.2c2.2,2.8,4.1,6,5.7,9.8c0.3,0.6,0.5,1.3,0.8,1.9
			c1.1,2.7,2.2,5.4,4,7.7c-0.1,0-0.2,0-0.3,0c-0.2,0-0.4,0-0.5,0c-2-2.8-3.1-6.1-4.5-9.3c-1.5-3.5-3.3-6.7-5.6-9.6
			c-8.4-10.6-18.2-19.7-31.7-23c-9.7-2.4-24.9-2.5-32.8,5.3c0-0.1-0.1-0.1-0.2-0.1C8.6,20.2,8.5,20.1,8.4,20z"/>
		<path d="M73.4,38.1c2.3,3,4.1,6.2,5.6,9.6c1.4,3.2,2.5,6.4,4.5,9.3c-0.3,0-0.5,0-0.8,0c-1.5-2.3-2.5-4.8-3.5-7.2
			c-0.3-0.6-0.5-1.3-0.8-1.9c-1.6-3.7-3.4-6.8-5.5-9.5c-10.2-13-19.9-20-31.3-22.8c-8.3-2-24.4-3.1-32.6,5.6l0,0
			c0,0,0.1-0.1,0.1-0.1c0.1-0.2,0.1-0.5-0.1-0.7c7.9-7.8,23-7.7,32.8-5.3C55.2,18.4,65,27.5,73.4,38.1z"/>
		<path d="M8.9,20.4c0.2,0.2,0.2,0.5,0.1,0.7c0,0-0.1,0.1-0.1,0.1c-0.2,0.2-0.5,0.3-0.8,0.1c0,0,0,0,0,0c0.1-0.2,0.3-0.3,0.4-0.5
			C8.6,20.7,8.8,20.6,8.9,20.4z"/>
		<path d="M8.4,20.8c-0.2-0.1-0.3-0.2-0.5-0.3c0,0,0-0.1,0.1-0.1c0.1-0.1,0.2-0.3,0.4-0.4c0.1,0.1,0.2,0.2,0.4,0.2
			c0.1,0,0.1,0.1,0.2,0.1C8.8,20.6,8.6,20.7,8.4,20.8L8.4,20.8z"/>
		<path d="M8.5,20.9c-0.1,0.2-0.3,0.3-0.4,0.5c-0.2-0.1-0.4-0.2-0.5-0.4c0.1-0.2,0.3-0.3,0.4-0.5C8.1,20.6,8.3,20.7,8.5,20.9
			L8.5,20.9z"/>
		<path d="M7.2,23.6c0-0.3-0.2-0.5-0.4-0.6c0-0.1,0.1-0.1,0.1-0.2c0,0,0,0,0.1,0c0.2,0.1,0.4,0.2,0.4,0.4
			C7.3,23.4,7.2,23.5,7.2,23.6z"/>
		<path d="M6.8,24.1c0-0.1,0.1-0.1,0.1-0.2c0.1-0.1,0.1-0.2,0.2-0.3c0,0,0,0,0,0C7.1,23.9,7,24.1,6.8,24.1
			C6.8,24.2,6.8,24.2,6.8,24.1z"/>
		<path d="M6.9,22.8c0.4-0.5,0.8-1,1.2-1.5c0,0,0,0,0,0c0.3,0.2,0.6,0.1,0.8-0.1l0,0c-0.6,0.6-1.1,1.3-1.6,2
			C7.3,23.1,7.2,22.9,6.9,22.8C6.9,22.8,6.9,22.8,6.9,22.8z"/>
		<path d="M6.9,23.9c-0.1,0.1-0.1,0.1-0.1,0.2c0,0,0,0.1-0.1,0.1c-0.1,0-0.1,0-0.2,0c0,0,0,0-0.1,0c0.1-0.2,0.1-0.4,0.2-0.6l-0.1,0
			c0,0-0.1,0-0.1,0c0.1-0.2,0.2-0.4,0.4-0.6c0.2,0.1,0.4,0.3,0.4,0.6v0C7.1,23.7,7,23.8,6.9,23.9z"/>
		<path d="M6.5,24.3c0.1,0,0.1,0,0.2,0c-0.1,0.1-0.2,0.2-0.3,0.2C6.4,24.4,6.5,24.3,6.5,24.3C6.5,24.3,6.5,24.3,6.5,24.3z"/>
		<path d="M6.9,22.8c0,0.1-0.1,0.1-0.1,0.2C6.7,23,6.6,23,6.5,23c0,0-0.1,0-0.1,0c0,0-0.1,0-0.1,0C6.5,22.8,6.7,22.8,6.9,22.8z"/>
		<path d="M7.3,23.8C5.7,28.3,6.4,33.6,9,37.5c0.6,0.8,1.2,1.6,1.9,2.4c0.7,0.8,1.5,1.7,2.1,2.6c1,1.6,1.1,3.1,1.1,4.6
			c0,0.6,0.1,1.3,0.2,2c0.2,1.5,1,2.4,2,2.4c0,0,0,0,0,0c1.2,0,2.7-1.2,3-3.1c0.4-2.6-0.5-5.8-2.6-9.6c-0.1-0.2-0.1-0.3,0-0.5
			c0.1-0.2,0.2-0.3,0.3-0.4c1.7-0.8,3.5-1.3,5.3-1.6c-0.1,0-0.1,0.1-0.2,0.2C22.1,36.6,22,36.8,22,37c-1.6,0.3-3.2,0.8-4.7,1.5
			c1.6,2.9,3.1,6.6,2.6,10c-0.5,3.9-5.5,5.5-6.3,0.7c-0.4-2.3,0.1-4.2-1.2-6.3c-1.2-1.8-2.8-3.2-4-5C5.9,34,5.1,28.9,6.4,24.4
			c0.1,0,0.2-0.1,0.3-0.2c0.2-0.1,0.4-0.3,0.4-0.6c0,0,0,0,0,0v0c0.1-0.1,0.1-0.2,0.2-0.3c0,0.1,0,0.2,0,0.4c0,0,0,0,0,0.1
			C7.3,23.7,7.3,23.8,7.3,23.8z"/>
		<path d="M6.1,22.9C6.5,22.2,7,21.6,7.5,21c0.2,0.1,0.3,0.3,0.5,0.4c-0.4,0.5-0.8,1-1.2,1.5c-0.2,0-0.4,0-0.5,0.1
			C6.3,23,6.2,22.9,6.1,22.9z"/>
		<path d="M6.3,24.2c0.1,0,0.1,0,0.2,0c0,0.1,0,0.1,0,0.2c-0.2,0-0.3,0-0.5-0.1c0,0-0.1-0.1-0.1-0.1c0,0,0-0.1,0-0.1
			C6,24.2,6.1,24.2,6.3,24.2z"/>
		<path d="M6.1,23.5c0,0,0-0.1,0.1-0.2c0-0.1,0.1-0.2,0.2-0.3c0,0,0.1,0,0.1,0c0,0,0.1,0,0.1,0c0.1,0,0.2,0,0.2,0.1
			c-0.1,0.2-0.2,0.4-0.4,0.6c-0.1,0-0.2,0-0.4,0L6.1,23.5C6,23.5,6.1,23.5,6.1,23.5z"/>
		<path class="st0" d="M7.5,21c-0.5,0.6-1,1.2-1.4,1.9c-1.3-0.3-2.4-1.5-3.5-3.8C1.4,16.7,1.2,14,2,11.5c0.7-2.4,3.2-7.3,6.2-7.6
			C7.8,4.6,7.4,5.2,7,5.9c-1.3,2-2.6,4-2.8,6.6C3.9,15.3,4.9,19,7.5,21z"/>
		<path d="M6.1,23.3c0,0.1-0.1,0.2-0.1,0.2c0,0,0,0.1,0,0.1c-0.1,0-0.2,0-0.3-0.1c0-0.1,0.1-0.2,0.1-0.2C5.9,23.1,6,23,6.1,22.9
			c0.1,0,0.2,0,0.3,0C6.3,23,6.2,23.1,6.1,23.3z"/>
		<path d="M6.5,23.6l0.1,0c-0.1,0.2-0.1,0.4-0.2,0.6c-0.1,0-0.1,0-0.2,0c-0.2,0-0.3,0-0.5-0.1C5.9,24,6,23.8,6,23.6
			c0.1,0,0.2,0,0.4,0C6.4,23.6,6.5,23.6,6.5,23.6z"/>
		<path d="M5.7,24.1c-0.1-0.2-0.1-0.4,0-0.6c0,0,0,0,0,0c0.1,0,0.2,0.1,0.3,0.1v0C6,23.8,5.9,24,5.8,24.2
			C5.8,24.2,5.8,24.2,5.7,24.1z"/>
		<path d="M5.8,24.3C5.8,24.3,5.8,24.3,5.8,24.3c0,0-0.1-0.1-0.1-0.1C5.8,24.2,5.8,24.2,5.8,24.3C5.8,24.2,5.8,24.2,5.8,24.3z"/>
		<path d="M6.4,24.4C5.1,28.9,5.9,34,8.5,37.9c1.2,1.8,2.9,3.2,4,5c1.3,2.1,0.9,4,1.2,6.3c0.7,4.7,5.7,3.2,6.3-0.7
			c0.5-3.4-1.1-7.1-2.6-10c1.5-0.7,3.1-1.2,4.7-1.5c0,0.1,0.1,0.2,0.2,0.3c0,0,0.1,0,0.1,0.1c0,0,0,0,0,0c0.1,0,0.1,0.1,0.2,0.1
			c-1.5,0.3-2.9,0.7-4.3,1.3c2,3.8,2.8,7,2.4,9.8c-0.4,2.6-2.4,4.2-4.2,4.2c0,0,0,0,0,0c-1.7,0-2.9-1.3-3.3-3.5
			c-0.1-0.8-0.1-1.5-0.2-2.1c-0.1-1.4-0.1-2.7-0.9-3.9c-0.6-0.9-1.3-1.7-2-2.5c-0.7-0.8-1.4-1.6-2-2.5c-2.7-4.1-3.5-9.3-2.1-14
			c0,0,0,0,0,0c0,0,0.1,0.1,0.1,0.1C6.1,24.5,6.3,24.5,6.4,24.4z"/>
		<path d="M9.2,3.3c-1.5,3.1-4.1,5.6-4.4,9.2c-0.2,2.8,0.8,6.2,3.1,8c-0.1,0.2-0.3,0.3-0.4,0.5c-2.6-2-3.6-5.7-3.3-8.5
			C4.4,9.9,5.7,7.8,7,5.9c0.4-0.6,0.8-1.3,1.2-2c-3,0.3-5.5,5.1-6.2,7.6c-0.8,2.5-0.6,5.3,0.6,7.7c1.1,2.2,2.3,3.5,3.5,3.8
			C6,23,5.9,23.1,5.9,23.3c-0.1,0.1-0.1,0.2-0.1,0.2c-1.8-0.5-3-2.5-3.7-4.1c-1.2-2.5-1.4-5.4-0.6-8.1C2.2,8.4,5.3,2.5,9.2,3.3z"/>
		<path d="M5.7,23.5c-0.1,0.2-0.1,0.5,0,0.6c-1.6-0.4-3.1-1.9-4.3-4.4C0.1,17-0.1,14,0.7,11.1c0.8-2.5,4-9.4,8.6-8.4
			c0.2,0,0.4,0.2,0.4,0.3c0.1,0.2,0.1,0.4,0,0.6c-0.5,1-1.1,2-1.7,2.9c-1.2,1.9-2.4,3.8-2.6,6c-0.2,2.5,0.6,5.8,2.9,7.5
			c-0.1,0.1-0.3,0.3-0.4,0.4c0,0,0,0.1-0.1,0.1c-2.4-1.8-3.4-5.2-3.1-8c0.3-3.6,2.9-6.1,4.4-9.2c-3.9-0.8-7,5-7.9,8
			C0.5,14,0.8,16.9,2,19.4C2.7,20.9,3.9,23,5.7,23.5C5.7,23.5,5.7,23.5,5.7,23.5z"/>
	</g>
</g>
</svg>
