<?xml version="1.0" encoding="utf-8"?>
<!-- Generator: Adobe Illustrator 21.1.0, SVG Export Plug-In . SVG Version: 6.00 Build 0)  -->
<svg version="1.1" id="Layer_1" xmlns="http://www.w3.org/2000/svg" xmlns:xlink="http://www.w3.org/1999/xlink" x="0px" y="0px"
	 viewBox="0 0 100 100" style="enable-background:new 0 0 100 100;" xml:space="preserve">
<style type="text/css">
	.st0{fill:#EA9A65;}
	.st1{fill:#6AB3E3;}
</style>
<g>
	<path class="st0" d="M80.7,83.8c-2.7,1.6-6,2.1-9,1.4l-0.3,0.4c-1.2,3.5,2.4,6,4.1,8.5c0.7,1.1,1.7,2.9,0.8,4.2
		c-1,1.5-3.2,0.9-4.5,0.3c-6.1-3-8.3-11.6-6.9-17.8l0-0.3c-6.2-2.6-9.7-9.3-13.6-14.4c-3.7-4.8-7.6-9.6-11.8-13.9
		c-0.7-0.7-1.3-1.3-2-1.9c-1.5-1.3-3.2-2.4-5.3-2.6c-0.3,0-0.7-0.1-1.1-0.1c-2.2,0-5,0.6-6.6,1.9c-1.4,1.2-0.4,4.1-2.7,4
		c-1.9-0.1-2.6-2.2-2.7-3.8c-0.1-4.4,5.5-6.3,9.1-6.5c-2.7-1.9-5.5-3.7-8.2-5.6l0,0c-0.3-0.3-0.6-0.5-0.9-0.8
		c-1.1-1.2-1.9-2.4-2.4-3.7c-2.1-5.7,0.8-12.3,2.9-18.1C20.4,13,21.1,11,21.3,9c0.2-1.7,0-3.4,0.4-5.1c0-0.2,0.1-0.4,0.2-0.6
		c0,0.1,0.1,0.1,0.1,0.2c0.5,0.6,1.7,0.4,2.5,0.4c0.8,0,2.4-0.3,2.6-1.3c0.1-1-0.6-0.9-1.1-1.3c-0.4-0.3-0.7-0.6-1.2-0.7
		c0.4,0,0.9,0.1,1.4,0.5c1.6,1.2,2,3.9,2.3,5.8c0,0,0,0.1,0,0.1c0.4,2.5,0.6,5.1,0.6,7.7c0,0.1,0,0.3,0,0.5c0,0.6,0,1.2,0,1.9
		c0,1.7-0.8,4.1-0.1,5.6c1.4,3.2,5.1-4.2,6-6.2c0.1-0.2,0.1-0.3,0.2-0.4c0.3-1,1-4.1,2.4-4.2c0.2,0,0.4,0,0.5,0
		c1.4,0.4,0.6,3.5,0.4,4.4c-0.6,2.5-1.5,4.9-2.1,7.4c-0.4,1.6-0.7,3.9,1.1,4.7l0.1,0.6c3.4-0.6,6.9-2,10.1-2.8
		c3-0.7,8.7-1.8,9.7,2.3c0.9,3.7-2.1,5.7-5.2,6.7l0,0.1c7.7,2.1,14.2,9.4,18.7,15.6C76.2,58,79.9,66,82.9,74.2l0,0.1
		c0.7-0.3,1.4-0.6,2-1.1c2.6-2,2.8-5.7,2.7-8.7c2.2-0.2,3.5,2.1,3.9,3.9c0.6,2.6-0.3,5.3-1.9,7.3c-1.3,1.5-2.9,2.5-4.7,3l0.2,0.7
		c0.7,2.5,2.4,4.5,3.8,6.6c1,1.4,2.5,3.8,0.6,5.2c-1.5,1.1-3.9,0.1-5.2-0.9C82.2,88.8,81.1,86.3,80.7,83.8L80.7,83.8z M22.3,24.7
		c0.4,1.8,3.7,0.7,2.8-1.2C24.4,22,21.5,22.9,22.3,24.7z"/>
</g>
<g>
	<path class="st1" d="M28.8,6.8c3.7-3.7,10.7-0.6,9.3,4.8l-0.1,0.2c-0.1,0-0.3-0.1-0.5,0c-1.4,0.2-2.1,3.3-2.4,4.2
		c0,0.1-0.1,0.2-0.2,0.4l-0.8,0.1c-1.6,0.4-3.7-0.3-4.9-1.4h-0.1c0-0.2,0-0.3,0-0.5c-0.1-2.6-0.2-5.1-0.6-7.7c0,0,0-0.1,0-0.1
		L28.8,6.8z"/>
</g>
<g>
	<path class="st0" d="M37.5,50.2l-0.4,0.6c-0.8,1.6-2.2,3.2-4.1,2.1c-1.5-0.9-2.3-2.9-1.9-4.6l0-0.8c0.4,0,0.7,0,1.1,0.1
		C34.4,47.8,36,48.8,37.5,50.2z"/>
</g>
<g>
	<path d="M25.9,1.3c0.5,0.4,1.2,0.3,1.1,1.3c-0.1,1.1-1.7,1.3-2.6,1.3c-0.7,0-1.9,0.2-2.5-0.4c0-0.1-0.1-0.1-0.1-0.2
		c0.5-1.3,1.6-2.7,2.9-2.7C25.2,0.7,25.5,1,25.9,1.3z"/>
</g>
<g>
	<path d="M25.2,23.5c0.9,1.9-2.5,3-2.8,1.2C21.5,22.9,24.4,22,25.2,23.5z"/>
</g>
<g>
	<path d="M24.4,0.6c0.1,0,0.3,0,0.4,0c-1.3,0-2.4,1.4-2.9,2.7c-0.5-0.8,0.4-1.1,0.8-1.6C23.3,1.1,23.4,0.6,24.4,0.6z"/>
</g>
<g>
	<path class="st0" d="M19.1,36.7l-0.8,0.5c-3.4,1.8-3.9,6-4.5,9.4c-0.5,2.8-2.6,8.3-6.3,5.9C3.8,50.1,5.2,44.2,7,41
		c2.1-3.8,5.7-6.4,9.7-8l0,0C17.3,34.3,18,35.6,19.1,36.7z"/>
</g>
<g>
	<path d="M64.9,81.1c-0.1,0-0.2,0-0.2,0c-5-2.1-8.2-6.6-11.3-11c-0.9-1.3-1.7-2.4-2.6-3.6c-3.6-4.6-7.5-9.5-11.7-13.9
		c-0.6-0.7-1.3-1.3-2-1.9c-1.7-1.5-3.3-2.3-5-2.5c-0.3,0-0.7,0-1,0c-1.9,0-4.6,0.5-6.2,1.7c-0.4,0.3-0.5,1-0.7,1.6
		c-0.2,1.1-0.6,2.6-2.4,2.5c-2.1-0.1-3.2-2.3-3.3-4.4c-0.1-4.1,4.4-6.3,8-6.9c-0.9-0.6-1.9-1.3-2.8-1.9c-1.3-0.9-2.7-1.8-4-2.7
		c-0.3-0.2-0.4-0.6-0.2-0.9c0.2-0.3,0.6-0.4,0.9-0.2c1.3,0.9,2.7,1.8,4,2.7c1.4,0.9,2.8,1.9,4.2,2.8c0.2,0.1,0.3,0.4,0.2,0.7
		c-0.1,0.3-0.3,0.4-0.6,0.4c-3.4,0.2-8.6,1.9-8.6,5.8c0,1.3,0.6,3.1,2.1,3.2c0.8,0,0.9-0.3,1.2-1.5c0.2-0.8,0.4-1.7,1.1-2.3
		c1.9-1.5,4.8-2,7-2c0.4,0,0.8,0,1.1,0.1c2.5,0.3,4.4,1.6,5.7,2.8c0.7,0.6,1.4,1.3,2,2c4.3,4.4,8.2,9.3,11.8,14
		c0.9,1.1,1.7,2.3,2.6,3.6c3,4.3,6.1,8.7,10.8,10.6c0.3,0.1,0.5,0.5,0.3,0.8C65.4,80.9,65.2,81.1,64.9,81.1z"/>
</g>
<g>
	<path d="M74.4,99.9c-0.9,0-2-0.3-2.8-0.7c-6.3-3.1-8.7-12-7.3-18.5c0.1-0.3,0.4-0.5,0.7-0.5c0.3,0.1,0.5,0.4,0.5,0.7
		c-1.3,6.1,0.8,14.3,6.6,17.1c0.3,0.1,2.8,1.3,3.7,0c0.6-0.9-0.1-2.5-0.8-3.6c-0.4-0.6-1-1.3-1.5-1.9c-1.7-2-3.6-4.2-2.6-7.1
		c0.1-0.3,0.5-0.5,0.8-0.4c0.3,0.1,0.5,0.5,0.4,0.8c-0.8,2.2,0.8,4,2.4,5.9c0.6,0.7,1.2,1.4,1.6,2.1c1.3,2.1,1.6,3.7,0.9,4.9
		C76.3,99.6,75.4,99.9,74.4,99.9z"/>
</g>
<g>
	<path d="M74.4,86.1c-1,0-1.9-0.1-2.9-0.3c-0.3-0.1-0.5-0.4-0.5-0.7c0.1-0.3,0.4-0.5,0.7-0.5c2.9,0.7,6,0.2,8.6-1.3
		c0.7-0.4,1.4-0.9,2-1.4c0.3-0.2,0.6-0.2,0.9,0c0.2,0.3,0.2,0.6,0,0.9c-0.7,0.6-1.4,1.1-2.2,1.6C79,85.5,76.7,86.1,74.4,86.1z"/>
</g>
<g>
	<path d="M87.9,92.3c-1.4,0-2.9-0.7-4-1.5c-2-1.5-3.3-3.9-3.8-6.8c-0.1-0.3,0.2-0.7,0.5-0.7c0.3,0,0.7,0.2,0.7,0.5
		c0.2,1.5,1,4.3,3.3,6c1.1,0.8,3.2,1.8,4.5,0.9c1.1-0.8,0.8-2.1-0.7-4.3c-0.3-0.4-0.5-0.7-0.8-1.1c-1.2-1.7-2.5-3.5-3.1-5.7
		c-0.1-0.3,0.1-0.7,0.4-0.8c0.3-0.1,0.7,0.1,0.8,0.4c0.5,1.9,1.7,3.7,2.9,5.3c0.3,0.4,0.5,0.7,0.8,1.1c0.8,1.2,2.9,4.2,0.4,6
		C89.3,92.1,88.6,92.3,87.9,92.3z"/>
</g>
<g>
	<path d="M82.9,74.8c-0.2,0-0.5-0.2-0.6-0.4c-3.6-9.7-7.4-17-11.8-23.1c-6.4-8.7-12.4-13.8-18.4-15.4c-0.3-0.1-0.5-0.4-0.4-0.8
		c0.1-0.3,0.4-0.5,0.8-0.4c6.3,1.7,12.5,6.9,19.1,15.8c4.5,6.2,8.3,13.6,12,23.4c0.1,0.3,0,0.7-0.4,0.8C83.1,74.8,83,74.8,82.9,74.8
		z"/>
</g>
<g>
	<path d="M81.1,79.8c-1.5,0-3-0.2-4.5-0.7c-0.3-0.1-0.5-0.4-0.4-0.8c0.1-0.3,0.4-0.5,0.8-0.4c2.6,0.8,5.5,0.8,7.8,0.1
		c1.8-0.5,3.3-1.5,4.4-2.8c1.6-2,2.3-4.6,1.8-6.8c-0.3-1.1-1.1-3.1-2.7-3.4c0.1,3-0.3,6.6-2.9,8.6c-0.6,0.5-1.4,0.9-2.2,1.2
		c-2.6,1-6.2,1-8.5-1.1c-0.3-0.2-0.3-0.6,0-0.9c0.2-0.2,0.6-0.3,0.9,0c1.9,1.7,5.1,1.7,7.2,0.9c0.7-0.3,1.3-0.6,1.9-1
		c2.4-1.8,2.6-5.3,2.4-8.2c0-0.3,0.2-0.6,0.6-0.6c2.4-0.2,4,2.1,4.6,4.4c0.6,2.6-0.2,5.6-2.1,7.8c-1.3,1.5-3,2.6-5,3.2
		C83.8,79.6,82.5,79.8,81.1,79.8z"/>
</g>
<g>
	<path d="M34.2,53.9c-0.5,0-1-0.1-1.5-0.4c-1.8-1-2.7-3.3-2.2-5.3c0.1-0.3,0.4-0.5,0.8-0.4c0.3,0.1,0.5,0.4,0.4,0.8
		c-0.4,1.4,0.3,3.2,1.6,3.9c0.5,0.3,0.9,0.3,1.3,0.2c0.7-0.2,1.4-0.9,1.9-2.1c0.2-0.3,0.5-0.4,0.8-0.3c0.3,0.2,0.4,0.5,0.3,0.8
		c-0.5,1-1.4,2.3-2.7,2.7C34.7,53.9,34.5,53.9,34.2,53.9z"/>
</g>
<g>
	<path d="M19.8,38.2l0.4-0.5L19.8,38.2c-0.1-0.1-0.2-0.2-0.3-0.2c-0.3-0.3-0.6-0.5-0.9-0.8c-1.1-1.2-1.9-2.5-2.5-4
		c-2-5.4,0.3-11.6,2.4-17.1l0.5-1.4C19.7,13,20.5,11,20.7,9c0.1-0.6,0.1-1.3,0.1-2c0-1,0.1-2.1,0.3-3.2c0.1-0.2,0.1-0.5,0.2-0.7
		C21.8,1.6,23.1,0,24.7,0c0.6,0,1.2,0.2,1.8,0.6c1.7,1.3,2.2,4,2.5,6l0.1,0.3c0.4,2.2,0.6,4.7,0.6,7.8l0,0.5c0,0.6,0,1.3,0,1.9
		c0,0.6-0.1,1.2-0.2,1.8c-0.2,1.3-0.4,2.7,0,3.6c0,0.1,0.2,0.4,0.3,0.4h0c0.9,0,3.1-3.5,4.5-6.6c0.1-0.2,0.1-0.3,0.1-0.4
		c0.1-0.2,0.1-0.4,0.2-0.6c0.5-1.5,1.2-3.9,2.7-4c0.3,0,0.5,0,0.8,0.1c0.4,0.1,0.7,0.4,0.9,0.7c0.5,0.8,0.5,2.3-0.1,4.4
		c-0.3,1.2-0.7,2.4-1,3.6c-0.4,1.3-0.8,2.6-1.1,3.8c-0.5,2.2-0.3,3.5,0.8,4c0.3,0.1,0.4,0.5,0.3,0.8c-0.1,0.3-0.5,0.4-0.8,0.3
		c-1.7-0.8-2.2-2.6-1.5-5.4c0.3-1.3,0.7-2.6,1.1-3.9c0.3-1.1,0.7-2.3,1-3.5c0.6-2.4,0.4-3.2,0.2-3.5c-0.1-0.1-0.1-0.2-0.2-0.2
		c-0.1,0-0.1,0-0.3,0c-0.8,0.1-1.4,2.3-1.7,3.2c-0.1,0.3-0.1,0.5-0.2,0.6c0,0.1-0.1,0.2-0.2,0.4c-0.3,0.8-3.2,7.4-5.6,7.4
		c0,0,0,0,0,0c-0.4,0-1.1-0.2-1.5-1.2c-0.5-1.2-0.3-2.8-0.1-4.2c0.1-0.6,0.2-1.2,0.2-1.7c0-0.6,0-1.2,0-1.9l0-0.5
		c-0.1-3-0.3-5.4-0.6-7.6l0-0.3c-0.3-1.7-0.7-4.2-2.1-5.2c-0.3-0.3-0.7-0.4-1-0.4c-1,0-1.9,1.2-2.3,2.3c-0.1,0.2-0.1,0.4-0.2,0.5
		C22.1,5,22,6,22,7c0,0.7,0,1.4-0.1,2.1c-0.2,2.2-1,4.3-1.6,6l-0.5,1.4c-2,5.3-4.2,11.2-2.4,16.2c0.5,1.3,1.2,2.5,2.2,3.5
		c0.2,0.3,0.5,0.5,0.8,0.8c0.1,0.1,0.1,0.1,0.2,0.1l-0.4,0.5L19.8,38.2z"/>
</g>
<g>
	<path d="M46,36.7c-5.7,0-11.3-1.7-15.9-4.9c-0.3-0.2-0.3-0.6-0.2-0.9c0.2-0.3,0.6-0.4,0.9-0.2c5.1,3.5,11.6,5.2,17.9,4.5
		c0.8-0.1,2-0.3,3.4-0.7c2.6-0.8,5.6-2.5,4.8-6c-0.2-0.8-0.6-1.4-1.3-1.9c-2.2-1.3-6.3-0.3-7.7,0c-1.3,0.3-2.7,0.7-4.1,1.2
		c-2,0.6-4,1.3-6.1,1.6c-3.4,0.6-6.2,0.3-8.7-0.9c-0.3-0.2-0.4-0.5-0.3-0.8c0.2-0.3,0.5-0.4,0.8-0.3c2.3,1.1,4.8,1.4,7.9,0.8
		c2-0.3,4-1,5.9-1.6c1.4-0.4,2.8-0.9,4.2-1.2c2.6-0.6,6.3-1.3,8.6,0.2c1,0.6,1.6,1.5,1.8,2.6c0.8,3.4-1.2,6.1-5.6,7.4
		c-1.4,0.4-2.7,0.6-3.6,0.7C47.9,36.6,46.9,36.7,46,36.7z"/>
</g>
<g>
	<path d="M9.3,53.8c-0.7,0-1.4-0.2-2.1-0.7c-4.1-2.7-2.7-8.9-0.7-12.4c2-3.5,5.4-6.4,10-8.3c0.3-0.1,0.7,0,0.8,0.3
		c0.1,0.3,0,0.7-0.3,0.8c-3,1.2-7.1,3.6-9.4,7.7c-1.7,3.1-3.1,8.6,0.3,10.8c0.8,0.5,1.5,0.6,2.1,0.4c1.6-0.7,2.7-3.5,3.2-5.9
		c0.1-0.3,0.1-0.6,0.2-0.9c0.6-3.3,1.3-7.1,4.7-9c0.3-0.2,0.7-0.1,0.8,0.2c0.2,0.3,0.1,0.7-0.2,0.8c-2.9,1.5-3.5,5-4.1,8.1
		c-0.1,0.3-0.1,0.6-0.2,0.9c-0.1,0.6-1.1,5.6-3.9,6.8C10.1,53.7,9.7,53.8,9.3,53.8z"/>
</g>
<g>
	<path d="M33.2,17.3c-1.5,0-3.2-0.6-4.3-1.7c-0.2-0.2-0.3-0.6,0-0.9c0.2-0.2,0.6-0.3,0.9,0c1.1,1,3,1.6,4.3,1.3
		c0.3-0.1,0.7,0.1,0.8,0.4c0.1,0.3-0.1,0.7-0.4,0.8C34,17.3,33.6,17.3,33.2,17.3z"/>
</g>
<g>
	<path d="M38.2,12.3c0,0-0.1,0-0.1,0c-0.3-0.1-0.5-0.4-0.5-0.7c0.5-2.1-0.3-3.9-2.2-5c-1.7-0.9-4.3-1.1-6.1,0.8
		c-0.2,0.2-0.6,0.2-0.9,0c-0.2-0.2-0.2-0.6,0-0.9c2-2,5.1-2.4,7.6-1c2.3,1.3,3.4,3.7,2.8,6.3C38.7,12.1,38.4,12.3,38.2,12.3z"/>
</g>
</svg>
