<?xml version="1.0" encoding="utf-8"?>
<!-- Generator: Adobe Illustrator 21.1.0, SVG Export Plug-In . SVG Version: 6.00 Build 0)  -->
<svg version="1.1" id="Layer_1" xmlns="http://www.w3.org/2000/svg" xmlns:xlink="http://www.w3.org/1999/xlink" x="0px" y="0px"
	 viewBox="0 0 100 100" style="enable-background:new 0 0 100 100;" xml:space="preserve">
<style type="text/css">
	.st0{fill:#EA9A65;}
</style>
<g>
	<path class="st0" d="M98.3,28.8c0.4,4.1-6.6,0.9-8.1-0.4l-0.1,0.1c-0.1-0.2-0.2-0.4-0.3-0.5c-1.6-2.5-3.4-4.9-5.4-7.2l0.2-0.2
		C88.8,21.6,97.8,23.1,98.3,28.8z"/>
</g>
<g>
	<path d="M95.4,38.4c0,0.3,0,0.5,0,0.8c0-0.6-0.2-1.2-0.4-1.8C95.1,37.6,95.3,38,95.4,38.4z"/>
</g>
<g>
	<path d="M95,37.4c0.2,0.6,0.4,1.3,0.4,1.8c-0.2,1.2-1.4,2.3-2.7,2.8c-0.9,0-1.8-0.1-2.7-0.4v0c-0.1-0.2-0.2-0.4-0.2-0.6
		C89.4,38.1,93.5,35,95,37.4z"/>
</g>
<g>
	<path class="st0" d="M59.6,25l-1.1-0.2c-2.7-1.2-5.8-0.3-8.5,0.2c-3,0.5-5.8,1.3-8.4,2.8c-4.9,2.9-8.4,7.6-10.7,12.7
		c-2.5,5.5-3.4,11.5-3.6,17.5c-0.1,4.7,0,10.3,3.4,13.9l0.8,0.9c2.3-2.5,3.6-6.3,3.1-9.1c3.7,1.2,3.2,6.4,2.3,9.4
		c-0.4,1.4-1.1,2.7-2.1,3.8l0.1,0.1c2.8,3.2,6.9,5,10.2,7.6c1.3,1,5.3,4.6,2.1,5.9c-2.1,0.8-5.5-1.1-7.3-2c-1.9-1-3.9-2.1-5.7-3.3
		L33.6,85c-1,1.1-2.1,2.1-3.4,2.8l0.3,0.6c2.4,1.5,5,3,7.2,4.7c1.6,1.2,2.4,3.4-0.1,3.9c-4.3,0.8-9.8-2.5-13.1-4.8
		c-9.2-6.3-17.1-16.1-20.2-27C1.1,54,0.5,42.7,5.6,32c4.6-9.8,12.7-18,22.9-21.8c6-2.3,12.5-3.4,19-3.8c3.5-0.2,7-0.1,10.4,0.3
		c2,0.3,6.3,0.1,7.9,1.8c6.5-0.6,13.7-1.9,19.9,1c2.2,1,5,3.5,3,6.1c-1.9,2.4-5.7,2.1-8.2,1.1l-0.2,0.2c0.5,0.5,1,0.9,1.6,1.4
		c0.9,0.8,1.7,1.6,2.5,2.5c2,2.2,3.8,4.6,5.4,7.2c0.1,0.1,0.2,0.3,0.3,0.5c1.1,1.7,3.9,5.7,4.9,9c-1.4-2.3-5.6,0.7-5.1,3.6
		c0,0.2,0.1,0.4,0.2,0.6c-3.1-1-6.2-3.4-8.5-4.9c-0.8-0.6-1.6-1.1-2.4-1.7c-2-1.5-3.9-3.1-5.8-4.7c-2-1.6-4.8-4.8-7.6-4.2l-0.3,0.1
		c1.1,3.5,3.2,6.6,4.2,10.2c0.2,0.6,0.3,1.2,0.3,1.7c0.1,2.7-1.5,4.5-4.7,2.9C59.7,38,58.4,30.9,59.6,25z"/>
</g>
<g>
	<path d="M90,41.5c0.9,0.3,1.8,0.4,2.7,0.4C91.6,42.4,90.5,42.4,90,41.5z"/>
</g>
<g>
	<path class="st0" d="M79,35.1c1.5,1.7,5.6,14-0.1,11.4c-1.8-0.8-3.1-3-4.2-4.6c-0.9-1.2-2.2-3.7-3.8-4.1l-0.9,0
		c0-0.5-0.1-1.1-0.3-1.7c-1-3.6-3.1-6.7-4.2-10.2l0.3-0.1c2.9-0.6,5.6,2.6,7.6,4.2c1.9,1.6,3.8,3.2,5.8,4.7L79,35.1z"/>
</g>
<g>
	<path d="M26.9,89.5c-0.3,0-0.6-0.2-0.7-0.6c-0.1-0.4,0.2-0.7,0.6-0.8c1.1-0.2,2.1-0.5,3.1-1c1.2-0.6,2.3-1.5,3.2-2.6
		c0.5-0.6,1-1.3,1.4-2.1c0.2-0.3,0.6-0.5,0.9-0.3c0.3,0.2,0.5,0.6,0.3,0.9c-0.4,0.9-0.9,1.6-1.5,2.3c-1,1.2-2.3,2.2-3.7,2.9
		c-1.1,0.6-2.3,1-3.5,1.2C27,89.5,26.9,89.5,26.9,89.5z"/>
</g>
<g>
	<path d="M36.2,97.6c-3.2,0-7.3-1.7-12.1-5c-9.9-6.8-17.5-17-20.4-27.4C0,52.3,0.4,41.4,5,31.7C9.9,21.4,18.3,13.3,28.2,9.5
		c5.6-2.1,12-3.4,19.2-3.8c3.8-0.2,7.2-0.1,10.5,0.3c0.4,0.1,1,0.1,1.6,0.1c2.4,0.2,5.3,0.4,6.7,1.9c0,0,0.1,0.1,0.2,0.2
		c0.2,0.3,0.2,0.7-0.1,1c-0.3,0.2-0.7,0.2-1-0.1c0,0-0.1-0.1-0.1-0.1c-1-1.1-3.8-1.3-5.8-1.4c-0.6,0-1.2-0.1-1.6-0.1
		C54.6,7,51.2,6.9,47.5,7.1c-7,0.4-13.3,1.7-18.8,3.7C19.2,14.5,11,22.3,6.2,32.3c-4.4,9.3-4.8,20-1.3,32.6
		c2.8,10,10.2,20,19.9,26.6c5.3,3.6,9.5,5.2,12.6,4.6c0.4-0.1,0.9-0.2,1-0.6c0.1-0.5-0.4-1.4-1.2-2c-1.4-1.1-3-2-4.5-3
		c-0.9-0.5-1.8-1.1-2.6-1.7c-0.3-0.2-0.4-0.6-0.2-1c0.2-0.3,0.6-0.4,1-0.2c0.8,0.6,1.7,1.1,2.6,1.6c1.6,1,3.2,2,4.7,3.1
		c1.1,0.8,2,2.2,1.7,3.4c-0.1,0.5-0.6,1.4-2.1,1.7C37.2,97.6,36.7,97.6,36.2,97.6z"/>
</g>
<g>
	<path d="M28.2,80.8c-0.6,0-1.1-0.1-1.7-0.2c-0.4-0.1-0.6-0.4-0.5-0.8c0.1-0.4,0.5-0.6,0.8-0.5c2.6,0.6,5.4-0.5,7.4-2.8
		c0.9-1,1.6-2.3,1.9-3.6c0.7-2.3,1.1-6.3-0.9-8c0,2.8-1.3,6.1-3.4,8.3c-2.2,2.4-5,3.2-7.5,2.2c-0.4-0.1-0.5-0.5-0.4-0.9
		c0.1-0.4,0.5-0.5,0.9-0.4c2.8,1.1,5-0.7,6-1.8c2.1-2.3,3.4-5.9,2.9-8.5c0-0.2,0-0.5,0.2-0.6c0.2-0.2,0.4-0.2,0.7-0.1
		c4.1,1.4,3.7,7.1,2.8,10.2c-0.4,1.5-1.2,2.9-2.2,4.1C33.3,79.6,30.8,80.8,28.2,80.8z"/>
</g>
<g>
	<path d="M45.9,91.4c-2,0-4.2-1.2-5.8-2l-0.6-0.3c-2-1-3.9-2.1-5.7-3.3c-0.3-0.2-0.4-0.6-0.2-1c0.2-0.3,0.6-0.4,1-0.2
		c1.7,1.2,3.6,2.3,5.6,3.2l0.6,0.3c1.7,0.9,4.5,2.3,6.2,1.7c0.7-0.3,0.7-0.6,0.8-0.7c0.1-0.9-1.4-2.7-3-4c-1.2-0.9-2.5-1.8-3.8-2.6
		c-2.3-1.5-4.6-3-6.5-5.1c-0.2-0.3-0.2-0.7,0.1-1c0.3-0.2,0.7-0.2,1,0.1c1.7,2,3.9,3.4,6.2,4.8c1.3,0.8,2.7,1.7,3.9,2.7
		c0.9,0.7,3.8,3.2,3.5,5.3c-0.1,0.6-0.4,1.3-1.6,1.8C46.9,91.3,46.4,91.4,45.9,91.4z"/>
</g>
<g>
	<path d="M30.6,72.6c-0.2,0-0.4-0.1-0.5-0.2c-3.5-3.6-3.8-9.1-3.6-14.4c0.2-7.1,1.4-12.8,3.7-17.8c1.8-4,5.3-9.6,11-13
		c2.8-1.7,5.8-2.4,8.7-2.9c0.4-0.1,0.7-0.1,1.1-0.2c2.5-0.5,5.3-1,7.8,0.1c0.3,0.2,0.5,0.6,0.4,0.9c-0.2,0.3-0.6,0.5-0.9,0.4
		c-2.1-0.9-4.6-0.4-7,0c-0.4,0.1-0.7,0.1-1.1,0.2c-2.7,0.5-5.6,1.2-8.2,2.7c-5.4,3.2-8.7,8.5-10.4,12.4C29.2,45.5,28,51,27.8,58
		c-0.2,5.1,0.1,10.2,3.3,13.4c0.3,0.3,0.3,0.7,0,1C30.9,72.5,30.7,72.6,30.6,72.6z"/>
</g>
<g>
	<path d="M67.4,42.2c-0.7,0-1.5-0.2-2.5-0.7c-5.8-3-7.2-10.5-6-16.6c0.3-1.3,0.7-2.6,1.1-3.7c0.2-0.3,0.6-0.5,0.9-0.4
		c0.3,0.2,0.5,0.6,0.4,0.9c-0.5,1-0.8,2.2-1.1,3.4c-1.1,5.4,0.1,12.4,5.3,15.1c1.2,0.6,2.2,0.7,2.8,0.3c0.6-0.4,1-1.3,0.9-2.5
		c0-0.5-0.1-1-0.3-1.6c-0.5-1.8-1.3-3.5-2.1-5.2c-0.7-1.6-1.5-3.2-2-4.9c0,0,0-0.1,0-0.1c-0.4-1.4-0.7-2.8-0.7-4.1
		c0-0.4,0.3-0.7,0.7-0.7c0.3,0,0.7,0.3,0.7,0.7c0,1.2,0.2,2.4,0.6,3.7c0,0,0,0.1,0,0.1c0.5,1.6,1.2,3.2,2,4.8
		c0.8,1.7,1.7,3.5,2.2,5.4c0.2,0.7,0.3,1.3,0.3,1.9c0.1,1.7-0.5,3.1-1.6,3.7C68.6,41.9,68.1,42.2,67.4,42.2z"/>
</g>
<g>
	<path d="M92.6,42.7c-0.9,0-1.8-0.2-2.8-0.5c0,0-0.1,0-0.1,0c-2.8-0.9-5.5-2.8-7.7-4.4l-0.8-0.6c-0.8-0.5-1.6-1.1-2.4-1.8
		c-1.3-1-2.6-2.1-3.9-3.1c-0.6-0.5-1.3-1.1-1.9-1.6c-0.4-0.3-0.8-0.7-1.2-1.1c-1.7-1.5-3.9-3.4-5.8-3c-0.4,0.1-0.7-0.2-0.8-0.5
		c-0.1-0.4,0.2-0.7,0.5-0.8c2.7-0.5,5.1,1.6,7,3.3c0.4,0.4,0.8,0.7,1.2,1c0.7,0.5,1.3,1.1,1.9,1.6c1.3,1,2.5,2.1,3.8,3.1
		c0.8,0.6,1.6,1.2,2.4,1.7l0.8,0.6c2.2,1.5,4.8,3.4,7.5,4.2c0,0,0.1,0,0.1,0c0.9,0.3,1.7,0.4,2.4,0.4c0.2,0,0.4,0,0.5,0
		c1.2-0.1,1.6-0.7,1.5-2c0-0.5-0.2-1-0.4-1.7c-1-3-3.6-6.9-4.7-8.6l-0.4-0.7c-1.8-2.8-3.5-5.1-5.3-7.1c-0.8-0.9-1.6-1.7-2.4-2.5
		c-0.5-0.5-1-0.9-1.5-1.4c-1.1-1-2-1.7-2.9-2.3c-0.6-0.4-1.2-0.7-1.8-1.1c-1.1-0.6-2.2-1.2-3.1-2.1c-0.3-0.3-0.3-0.7,0-1
		c0.3-0.3,0.7-0.3,1,0c0.8,0.8,1.8,1.3,2.8,1.9c0.6,0.4,1.3,0.7,1.9,1.2c0.9,0.7,1.9,1.4,3,2.4c0.5,0.5,1.1,0.9,1.6,1.4
		c0.9,0.8,1.7,1.6,2.5,2.6c1.9,2.1,3.7,4.4,5.5,7.2l0.4,0.7c1.2,1.9,3.8,5.7,4.9,8.9c0.2,0.7,0.4,1.4,0.4,2c0.2,2-0.8,3.3-2.7,3.5
		c-0.2,0-0.4,0-0.7,0C92.7,42.7,92.6,42.7,92.6,42.7z"/>
</g>
<g>
	<path d="M84.2,18.1c-1.4,0-2.8-0.3-4-0.8c-0.3-0.2-0.5-0.6-0.4-0.9c0.2-0.3,0.6-0.5,0.9-0.4c2.4,1,5.9,1.1,7.4-0.9
		c0.5-0.6,0.6-1.2,0.5-1.9c-0.3-1.3-1.8-2.5-3.2-3.2C80.2,7.8,74.3,8.4,68.6,9c-0.9,0.1-1.9,0.2-2.8,0.3l-0.1-0.7l0-0.7
		c0.8-0.1,1.8-0.2,2.7-0.3C74.3,7,80.5,6.4,86,8.9c1.6,0.7,3.5,2.2,4,4.1c0.3,1.1,0,2.1-0.7,3C88,17.5,86.1,18.1,84.2,18.1z"/>
</g>
<g>
	<path d="M80.2,47.6c-0.5,0-1-0.1-1.7-0.4c-1.6-0.7-2.8-2.4-3.9-3.9c-0.2-0.3-0.4-0.6-0.6-0.9c-0.2-0.2-0.4-0.5-0.6-0.8
		c-0.8-1.1-1.8-2.7-2.8-3c-0.4-0.1-0.6-0.5-0.5-0.8c0.1-0.4,0.5-0.6,0.8-0.5c1.6,0.4,2.7,2.1,3.7,3.5c0.2,0.3,0.4,0.6,0.5,0.8
		c0.2,0.3,0.4,0.6,0.6,0.9c0.9,1.3,2,2.9,3.3,3.5c1.3,0.6,1.5,0.2,1.6,0c1.3-1.8-1.2-9.2-2.3-10.4c-0.3-0.3-0.2-0.7,0-1
		c0.3-0.3,0.7-0.2,1,0c1.3,1.4,4.3,9.6,2.4,12.1C81.6,47.2,81.1,47.6,80.2,47.6z"/>
</g>
<g>
	<path d="M96.4,31.5c-2.4,0-5.8-1.8-6.7-2.6c-0.3-0.3-0.3-0.7,0-1c0.3-0.3,0.7-0.3,1,0c1.1,1,5.1,2.8,6.6,2.1
		c0.1-0.1,0.5-0.2,0.4-1.1c-0.4-4.6-7.5-6.3-11.8-7.3c-0.5-0.1-1-0.2-1.4-0.3c-0.4-0.1-0.6-0.5-0.5-0.8c0.1-0.4,0.5-0.6,0.8-0.5
		c0.4,0.1,0.9,0.2,1.4,0.3c4.6,1.1,12.3,2.8,12.9,8.5c0.1,1.5-0.6,2.2-1.2,2.5C97.4,31.4,96.9,31.5,96.4,31.5z"/>
</g>
<g>
	<path d="M74.2,28.2c-0.3,0-0.6,0-0.9-0.1c-0.4-0.1-0.6-0.5-0.5-0.8c0.1-0.4,0.5-0.6,0.8-0.5c0.7,0.2,1.4,0,1.7-0.4
		c0.2-0.3,0.2-0.7-0.1-1.1c-0.2-0.3-0.1-0.7,0.3-0.9c0.3-0.2,0.8-0.1,0.9,0.3c0.6,1,0.5,1.9,0,2.7C76,27.9,75.1,28.2,74.2,28.2z"/>
</g>
<g>
	<path d="M80,23.4c-0.6,0-1.1-0.2-1.5-0.6c-0.3-0.3-0.3-0.7,0-1c0.3-0.3,0.7-0.3,1,0c0.4,0.4,0.8,0.3,1,0.2c0.5-0.2,0.8-0.7,0.8-1.1
		c0-0.4,0.3-0.7,0.7-0.7c0,0,0,0,0,0c0.4,0,0.7,0.3,0.7,0.7c0,1-0.7,1.9-1.7,2.4C80.6,23.4,80.3,23.4,80,23.4z"/>
</g>
</svg>
