<?xml version="1.0" encoding="utf-8"?>
<!-- Generator: Adobe Illustrator 21.1.0, SVG Export Plug-In . SVG Version: 6.00 Build 0)  -->
<svg version="1.1" id="Layer_1" xmlns="http://www.w3.org/2000/svg" xmlns:xlink="http://www.w3.org/1999/xlink" x="0px" y="0px"
	 viewBox="0 0 100 100" style="enable-background:new 0 0 100 100;" xml:space="preserve">
<style type="text/css">
	.st0{fill:#EA9A65;}
</style>
<g>
	<path d="M73.5,5.1c0.1,0.6,0,1.1-0.3,1.5C73.3,6.1,73.4,5.6,73.5,5.1z"/>
</g>
<g>
	<path d="M73.3,4c0,0.3,0.1,0.7,0.1,1.1c-0.1,0.5-0.2,1-0.3,1.5c0,0,0,0,0,0c-0.8,0.9-1.2-1-1.4-1.4c-0.2-0.5-0.5-0.9-0.9-1.3
		c-0.6-0.6-1.2-0.7-2-0.7c-0.4,0-0.9-0.1-1.1-0.3c1-0.7,2-1.3,3-1.5c0.6,0.1,1.2,0.2,1.6,0.5C73.1,2.5,73.2,3,73.3,4z"/>
</g>
<g>
	<path class="st0" d="M60.7,23.5c3.6,1.7,5.8,5.5,6.5,9.3c0.6,3.4,0.6,8-1.8,10.7c-1.2,1.4-3.4,2.2-5.1,1.2
		c-2.2-1.3-1.4-4.3-1.2-6.3c0.4-3.6-0.6-7.5-2.5-10.7l-0.4,0.2c-2.4,2.4-3.8,5.3-4.7,8.4c-1.1,3.9-1.2,8.1-0.8,12.1
		c0,0.4,0.1,0.9,0.2,1.3c1,7.1,2.5,15.4,8.5,20.1c0,0,0,0,0,0c0,0,0-0.1,0-0.1c0.6-1.2,0.9-2.5,1.1-3.8c0.3-2.3-0.4-4.9,0.4-7.1
		c0.7-2,2.1-1.2,3.2,0c3.3,4,2.7,9.5,0.1,13.7c3.5,3.1,3.9,8.7,0.8,12.2l0.2,0.2c0.9,2.1,0.7,5.2-0.1,7.3c-0.4,1-1.4,1.9-1.6,2.9
		c-0.2,1,0.8,1.6,0.5,2.5c-1.1,2.8-4.5-0.4-4.9-2c-0.5-2.3,1-5-0.5-7.1l-0.1-0.3c-3.8,1.8-8.4,2-12.4,0.6l-0.1,0.2
		c-1.3,0.9-2,2.4-1.8,4c0.2,1.4,0.9,2.7,0.1,4c-0.8,1.4-3.2,2.2-4.3,0.6c-0.7-1.1-0.1-2.2,0.2-3.3c0.5-1.6-0.5-2.8-1.2-4.2
		c-1.5-3.1-1.9-6.7-1.7-10.1c-2.9-4.2-4.2-9.3-5.1-14.3c-1-5.7-1.7-11.6-1.5-17.4c0.2-5.3,1.3-10.7,3.8-15.4
		c2.5-4.6,6.4-8.2,10.2-11.7c-3.5,0.3-7.4-0.4-10.1-2c-3-1.8-6.1-5.7-4-9.3c1-1.6,2.8-2.6,4.7-2.2c1.7,0.3,2.7,1.8,3.8,3
		c2.6,2.8,5.8,4.8,9.4,6l0.1-0.3c1.5-2.4,3.2-4.6,6.1-5.3c1.4-0.3,2.8-0.4,4.1-1c1.3-0.7,2.5-1.8,3.7-2.7c0.9-0.7,3-3,5.2-4.5
		C68,3,68.5,3.1,68.8,3.1c0.8,0.1,1.4,0.2,2,0.7c0.4,0.4,0.7,0.8,0.9,1.3c0.2,0.5,0.6,2.4,1.4,1.4c-0.5,1.8-1.4,3.6-1.9,4.8
		c-2.1,4.5-5.1,9.1-9.2,11.9L60.7,23.5z M61.5,18.2c1-0.1,1.1-1.4,0.3-1.8C60.4,15.7,59.5,18.4,61.5,18.2z M57.5,14.4
		c1.1,0,1.3-2-0.2-1.6C56.2,13.1,56.4,14.4,57.5,14.4z"/>
</g>
<g>
	<path d="M68,2c0.6-0.5,1.7-0.7,2.7-0.6c-0.9,0.2-1.9,0.8-3,1.5C67.5,2.7,67.5,2.4,68,2z"/>
</g>
<g>
	<path d="M61.8,16.4c0.8,0.4,0.7,1.7-0.3,1.8C59.5,18.4,60.4,15.7,61.8,16.4z"/>
</g>
<g>
	<path d="M57.3,12.8c1.6-0.4,1.4,1.6,0.2,1.6C56.4,14.4,56.2,13.1,57.3,12.8z"/>
</g>
<g>
	<path class="st0" d="M55.7,47.1c0.2,2.5-4,3.7-5,1.2h0c-0.4-4-0.3-8.2,0.8-12.1l0.1,0c-0.4,2.5,0,5.2,1,7.5c0.5,1.1,1.1,1.4,2,2.1
		C55.2,46.1,55.7,46.4,55.7,47.1z"/>
</g>
<g>
	<path d="M52.6,83.5c-0.3,0-0.5-0.2-0.6-0.5c0-0.3,0.2-0.6,0.5-0.6c0.3,0,0.8-0.2,1.6-1.1c0.4-0.4,0.7-0.8,1.1-1.2
		c0.2-0.2,0.3-0.4,0.5-0.5c0.2-0.2,0.6-0.3,0.8,0c0.2,0.2,0.3,0.6,0,0.8c-0.1,0.1-0.3,0.3-0.4,0.5c-0.3,0.4-0.7,0.8-1.1,1.2
		C54.1,83,53.4,83.5,52.6,83.5C52.7,83.5,52.7,83.5,52.6,83.5z"/>
</g>
<g>
	<path d="M56.7,82.8c-0.4,0-1.1-0.1-2.3-0.5c-0.8-0.3-1.6-0.7-2.1-0.9c-0.3-0.2-0.4-0.5-0.2-0.8c0.2-0.3,0.5-0.4,0.8-0.2
		c0.3,0.2,1.1,0.5,1.9,0.8c1.6,0.6,2.1,0.5,2.1,0.4c0.3-0.1,0.6,0.1,0.7,0.4c0.1,0.3-0.1,0.6-0.4,0.7C57.1,82.7,57,82.8,56.7,82.8z"
		/>
</g>
<g>
	<path d="M55,84.4c-0.3,0-0.5-0.2-0.5-0.4l0-0.1c-0.1-0.5-0.3-1.3-0.4-2.1c-0.1-0.6-0.3-1.5-0.3-2.1c0-0.3,0.2-0.6,0.6-0.6
		c0,0,0,0,0,0c0.3,0,0.6,0.2,0.6,0.6c0,0.4,0.1,1.1,0.2,1.9c0.1,0.8,0.3,1.5,0.4,2l0,0.1c0.1,0.3-0.1,0.6-0.4,0.7
		C55,84.4,55,84.4,55,84.4z"/>
</g>
<g>
	<path d="M62.5,99.3c-0.1,0-0.1,0-0.1,0c-1.7-0.1-3.6-2.2-3.9-3.5c-0.2-1-0.1-2.1,0-3.1c0.2-1.4,0.3-2.7-0.4-3.7
		c-0.2-0.3-0.1-0.6,0.1-0.8c0.3-0.2,0.6-0.1,0.8,0.1c1,1.4,0.8,3,0.6,4.5c-0.1,1-0.2,1.9,0,2.7c0.2,0.9,1.7,2.6,2.9,2.6
		c0.3,0,0.7,0,0.9-0.8c0.1-0.3,0-0.5-0.2-0.9c-0.2-0.4-0.4-0.9-0.3-1.5c0.1-0.7,0.5-1.3,1-1.9c0.3-0.4,0.6-0.8,0.7-1.1
		c0.7-1.9,1-4.8,0.1-6.9c-0.1-0.3,0-0.6,0.3-0.7c0.3-0.1,0.6,0,0.7,0.3c1,2.3,0.7,5.5-0.1,7.7c-0.2,0.5-0.5,1-0.8,1.4
		c-0.4,0.5-0.7,1-0.8,1.4c0,0.3,0.1,0.5,0.2,0.8c0.2,0.5,0.5,1.1,0.2,1.8C63.9,99.1,63.1,99.3,62.5,99.3z"/>
</g>
<g>
	<path d="M51.5,90.4c-1.9,0-3.9-0.3-5.7-1c-0.2-0.1-0.4-0.1-0.6-0.2c-0.3-0.1-0.4-0.4-0.3-0.7c0.1-0.3,0.4-0.4,0.7-0.3
		c0.2,0.1,0.4,0.1,0.6,0.2c3.9,1.4,8.3,1.2,12-0.5c0.1-0.1,0.2-0.1,0.3-0.1c0.3-0.1,0.6,0,0.8,0.2c0.1,0.3,0,0.6-0.2,0.8
		c-0.1,0.1-0.3,0.1-0.4,0.2C56.4,89.9,54,90.4,51.5,90.4z"/>
</g>
<g>
	<path d="M41.7,99.2c-0.9,0-1.7-0.4-2.1-1.2c-0.7-1.1-0.3-2.2,0-3.2c0.1-0.2,0.1-0.4,0.2-0.6c0.3-1.1-0.1-2-0.7-3
		c-0.1-0.3-0.3-0.5-0.4-0.8c-1.4-2.9-2-6.6-1.7-10.4c0,0,0-0.1,0-0.2c0-0.3,0.3-0.6,0.6-0.5c0.3,0,0.5,0.3,0.5,0.6
		c0,0.1,0,0.1,0,0.2c-0.3,3.6,0.3,7.1,1.6,9.9c0.1,0.3,0.3,0.5,0.4,0.8c0.6,1.1,1.2,2.3,0.8,3.9c-0.1,0.2-0.1,0.4-0.2,0.6
		c-0.3,0.9-0.5,1.6-0.1,2.2c0.3,0.4,0.7,0.6,1.2,0.6c0.8,0,1.7-0.5,2.1-1.2c0.5-0.8,0.3-1.5,0.1-2.4c-0.1-0.4-0.2-0.8-0.2-1.2
		c-0.2-1.8,0.6-3.6,2-4.5c0.3-0.2,0.6-0.1,0.8,0.2c0.2,0.3,0.1,0.6-0.2,0.8c-1.1,0.7-1.7,2-1.5,3.4c0,0.4,0.1,0.7,0.2,1.1
		c0.2,1,0.5,2.1-0.2,3.3C44.1,98.4,42.9,99.2,41.7,99.2C41.7,99.2,41.7,99.2,41.7,99.2z"/>
</g>
<g>
	<path d="M37,80.5l0.5-0.3L37,80.5c-0.1-0.1-0.1-0.1-0.1-0.2c-3.1-4.5-4.3-9.9-5.1-14.5C30.9,61,30,54.7,30.2,48.3
		c0.2-6,1.5-11.3,3.9-15.6c2.6-4.8,6.7-8.5,10.3-11.8c0,0,0,0,0.1,0c0.2-0.2,0.6-0.2,0.8,0c0.2,0.2,0.2,0.6,0,0.8c0,0-0.1,0-0.1,0.1
		c-3.5,3.3-7.5,6.9-10,11.5c-2.3,4.2-3.5,9.3-3.7,15.1c-0.2,6.3,0.7,12.6,1.5,17.3c0.8,4.5,2,9.7,5,14.1c0.1,0.1,0.1,0.1,0.1,0.2
		L37,80.5z"/>
</g>
<g>
	<path d="M65,85.3c-0.1,0-0.3,0-0.4-0.1c-0.2-0.2-0.3-0.6-0.1-0.8c2.8-3.3,2.5-8.5-0.8-11.4c0,0,0,0-0.1-0.1c-0.2-0.2-0.2-0.6,0-0.8
		c0.2-0.2,0.5-0.2,0.8,0c0,0,0,0,0,0c3.8,3.3,4.2,9.2,0.9,13C65.3,85.2,65.1,85.3,65,85.3z"/>
</g>
<g>
	<path d="M60.2,77.3c-0.2,0-0.3-0.1-0.5-0.2c-0.2-0.3-0.1-0.6,0.1-0.8c1.5-1,2.7-2.4,3.8-4.1c2.1-3.5,3.4-9,0-13.1
		c-0.6-0.7-1.2-1.1-1.6-1c-0.3,0.1-0.5,0.5-0.6,0.8c-0.4,1.2-0.3,2.6-0.3,4c0,1,0.1,2,0,3c-0.2,1.4-0.6,2.8-1.1,3.9
		c0,0,0,0.1-0.1,0.1c-1.1,2.2-2.7,3.7-4.8,4.1c-0.3,0.1-0.6-0.1-0.7-0.4c-0.1-0.3,0.1-0.6,0.4-0.7c2.2-0.5,3.4-2.2,4-3.6l0-0.1
		c0.5-1.1,0.9-2.3,1-3.6c0.1-0.9,0.1-1.8,0-2.8c-0.1-1.5-0.1-3,0.4-4.4c0.4-1.1,1-1.5,1.5-1.6c1.1-0.2,2.1,0.8,2.7,1.4
		c3.1,3.8,3.2,9.4,0.1,14.4c-1.1,1.8-2.5,3.3-4.1,4.4C60.5,77.3,60.3,77.3,60.2,77.3z"/>
</g>
<g>
	<path d="M59.4,70.3c-0.1,0-0.3-0.1-0.4-0.2c-6.2-4.8-7.7-13.1-8.7-20.4c-0.1-0.4-0.1-0.9-0.2-1.3c-0.5-4.6-0.2-8.8,0.8-12.3
		c1-3.4,2.6-6.3,4.8-8.6c0.2-0.2,0.6-0.2,0.8,0c0.2,0.2,0.2,0.6,0,0.8c-2.1,2.1-3.7,4.9-4.6,8.1c-1,3.4-1.2,7.5-0.7,11.9
		c0,0.4,0.1,0.9,0.2,1.3c0.9,6.8,2.3,14.3,7.4,19c0.2-0.1,0.4-0.1,0.6,0c0.4,0.3,0.6,0.7,0.6,1.2c0,0.1,0,0.2-0.1,0.2
		c-0.1,0.2-0.2,0.3-0.4,0.4C59.5,70.3,59.5,70.3,59.4,70.3z"/>
</g>
<g>
	<path d="M62,45.7c-0.7,0-1.3-0.2-2-0.5c-2.2-1.3-1.8-4-1.6-6c0-0.3,0.1-0.6,0.1-0.9c0.4-3.4-0.5-7-2.5-10.4
		c-0.6-1.1-1.3-2.1-2.1-2.9c-0.2-0.2-0.2-0.6,0-0.8c0.2-0.2,0.6-0.2,0.8,0c0.8,0.9,1.6,2,2.3,3.1c2.1,3.5,3,7.5,2.6,11.1
		c0,0.3-0.1,0.6-0.1,0.9c-0.3,1.9-0.5,4,1,4.9c1.5,0.9,3.4,0.1,4.4-1.1c2.6-2.9,2.1-8.1,1.7-10.2c-0.7-4-3-7.4-6.2-8.9
		c-0.5-0.2-1-0.4-1.5-0.6c-0.3-0.1-0.5-0.4-0.4-0.7c0.1-0.3,0.4-0.5,0.7-0.4c0.6,0.2,1.1,0.4,1.7,0.6c3.5,1.7,6.1,5.4,6.8,9.7
		c0.4,2.3,1,7.9-2,11.2C64.9,44.9,63.5,45.7,62,45.7z"/>
</g>
<g>
	<path d="M43.2,21.9c-3.3,0-6.6-0.8-8.8-2.1c-3.7-2.3-6.3-6.5-4.2-10.1c1.1-1.9,3.3-2.9,5.3-2.5c1.6,0.3,2.6,1.5,3.6,2.5
		c0.2,0.2,0.4,0.4,0.5,0.6c2.5,2.7,5.7,4.7,9.1,5.8c0.4,0.1,0.7,0.2,1.1,0.3c0.3,0.1,0.5,0.4,0.4,0.7c-0.1,0.3-0.4,0.5-0.7,0.4
		c-0.4-0.1-0.8-0.2-1.1-0.3c-3.6-1.2-7-3.3-9.6-6.1c-0.2-0.2-0.4-0.4-0.6-0.6c-0.9-1-1.7-1.9-3-2.2c-1.5-0.3-3.2,0.5-4.1,2
		c-2,3.3,1.2,6.9,3.8,8.5c2.4,1.4,6.1,2.2,9.7,1.9c1-0.1,2-0.2,2.9-0.5c0.3-0.1,0.6,0.1,0.7,0.4c0.1,0.3-0.1,0.6-0.4,0.7
		c-1,0.3-2,0.4-3.1,0.5C44.3,21.8,43.8,21.9,43.2,21.9z"/>
</g>
<g>
	<path d="M62,23.9c-0.2,0-0.4-0.1-0.5-0.2c-0.2-0.3-0.1-0.6,0.1-0.8c3.5-2.5,6.6-6.4,9-11.7l0.2-0.4c0.6-1.2,1.3-2.8,1.7-4.3
		c0,0,0,0,0-0.1c0.1-0.5,0.2-0.9,0.3-1.4c0.1-1,0-1.8-0.3-2.3c-0.4-0.7-1-0.9-1.8-0.8C70,2.1,69.1,2.5,68,3.3c-1.5,1-2.9,2.4-4,3.4
		c-0.5,0.5-0.9,0.8-1.2,1.1c-0.2,0.2-0.4,0.3-0.6,0.5c-1,0.8-2,1.7-3.2,2.3c-1,0.5-2,0.7-3,0.8c-0.4,0.1-0.8,0.1-1.2,0.2
		c-2.7,0.7-4.3,2.7-5.7,5c-0.2,0.3-0.5,0.3-0.8,0.2c-0.3-0.2-0.3-0.5-0.2-0.8c1.5-2.4,3.3-4.8,6.4-5.5c0.4-0.1,0.9-0.2,1.3-0.3
		c0.9-0.2,1.8-0.3,2.6-0.7c1-0.5,2-1.3,3-2.1c0.2-0.2,0.4-0.3,0.6-0.5c0.3-0.2,0.7-0.6,1.1-1c1.1-1,2.6-2.4,4.1-3.5
		c1.2-0.9,2.3-1.4,3.2-1.6c1.3-0.3,2.4,0.2,3,1.3c0.5,0.8,0.6,1.8,0.5,3c-0.1,0.5-0.2,1.1-0.3,1.6l0,0c0,0,0,0,0,0.1
		c-0.4,1.6-1.2,3.3-1.8,4.5l-0.2,0.4c-2.6,5.5-5.7,9.6-9.4,12.2C62.2,23.9,62.1,23.9,62,23.9z"/>
</g>
<g>
	<path d="M52.9,50.3c-1.2,0-2.2-0.7-2.7-1.8c-0.1-0.3,0-0.6,0.3-0.7c0.3-0.1,0.6,0,0.7,0.3c0.4,1,1.4,1.2,2.2,1
		c0.9-0.2,1.8-0.9,1.7-1.9c0-0.4-0.2-0.6-0.8-0.9l-0.2-0.2c-0.8-0.5-1.5-1-2-2.1c-1.1-2.3-1.5-5.2-1.1-7.8c0-0.3,0.3-0.5,0.6-0.5
		c0.3,0,0.5,0.3,0.5,0.6c-0.4,2.4,0,5,1,7.2c0.4,0.9,0.8,1.2,1.6,1.7l0.2,0.2c0.6,0.4,1.2,0.8,1.3,1.8c0.1,1.7-1.3,2.8-2.6,3.1
		C53.4,50.3,53.1,50.3,52.9,50.3z"/>
</g>
</svg>
