<?xml version="1.0" encoding="utf-8"?>
<!-- Generator: Adobe Illustrator 21.1.0, SVG Export Plug-In . SVG Version: 6.00 Build 0)  -->
<svg version="1.1" id="Layer_1" xmlns="http://www.w3.org/2000/svg" xmlns:xlink="http://www.w3.org/1999/xlink" x="0px" y="0px"
	 viewBox="0 0 100 100" style="enable-background:new 0 0 100 100;" xml:space="preserve">
<style type="text/css">
	.st0{fill:#EA9A65;}
</style>
<g>
	<path class="st0" d="M25.6,72.3c-0.7,1.1-1.7,2.1-3.1,2.6c-1.7,0.7-4.1,0.4-5.1,2.2c-0.6,1.1,0,3.3-1.1,4.2
		c-1.7,1.3-3.7-1.4-3.8-2.9c-0.2-2.2,1.7-3.2,2.5-5.1c1-2.4-0.5-5.2-0.9-7.5c-0.6-2.9,0-5.9,1.4-8.5l0.1-0.3
		c-1.6-3.4,0.2-5.3,1.3-8.4c0.9-2.6-0.7-5.8-2.3-7.8c-1.9-2.4-4.7-3.5-7.7-2.6c-1.3,0.4-2.5,1.2-3.6,2c-0.5,0.3-2.1,1.7-2.8,1.5
		c-0.2-5.8,7.9-7.5,12.3-7.1c3.3,0.3,6.6,1.7,8.9,4c1,1,1.8,2.1,2.2,3.5c0.2,0.7,0.3,1.4,0.3,2.1c0.1,1.1-0.1,1.2,1.2,1.3
		c3.2,0.3,6.3,0.8,8.9,2.8c2.3,1.8,4,4.2,6.5,5.8c4,2.5,8.4,4.8,12.7,6.7c3.1,1.4,6.5,1.3,9.7,0.1c2.6-0.9,6.3-3.4,6.2-6.6l0.5-0.2
		c-0.5-0.9-0.8-2.1-1-3.2c-0.2-1.3-0.3-2.5-0.3-3.5c0-1.4,0.1-2.7,0.2-4.1c0.3-2.6,0.6-5.1,0.8-7.7l-0.6,0c-0.9-1.7-3-0.9-4.3-0.5
		c-2.2,0.7-4.3,1.5-6.5,2.1c-3.1,0.8-7.6,2-9.8-1.1l0.1-0.1c0.1,0.1,0.3,0.2,0.5,0.3c0.4,0.1,0.5,0,0.7-0.1c1.6-0.1,4.2-1.2,4.8-1.4
		c3.6-1.3,6.8-3.3,9.7-5.8c-0.3-0.1-0.5-0.1-0.8-0.2c0-0.3-0.2-0.5-0.9-0.6c-0.2,0-0.6,0-1.1,0.2c-0.3-0.1-0.7-0.1-1-0.2h0
		c-3.9-0.8-7.9-1.8-11.7-3C45.8,24.4,43,22.8,42,20c0.1,0.2,0.3,0.3,0.4,0.5c0.2,0.2,0.5,0.2,0.7,0.1c0.6-0.2,1.2-0.2,1.7-0.8
		c1.2-1.1,0.2-1.5-1-1.8c-0.2,0-0.3-0.1-0.5-0.2l0-0.1c5.9,2,12.9,3.5,18.8,1.6c3.5-1.1,6.4-1.7,10-0.7c3.4,1,5.9,2.5,9.5,1.8
		c3.1-0.6,6-2.4,8.5-4.4c1.8-1.5,4.9-5.2,7.6-4.2c2.5,0.9,1,4.7,0.2,6.3c-1.3,2.7-3.3,4.9-5.8,6.6c-3.6,2.4-11.4,4.6-15,1
		c1.8,4.1,5.5,6.9,8.5,10.1c3.4,3.5,5.9,7.8,6.9,12.6l0.2,0.2c1.3,3.3,2.6,6.9,2.5,10.5c0,1.3-0.5,2.7-0.1,4
		c0.4,1.2,1.5,1.9,1.9,3.1c0.6,2-0.6,5.1-3.2,4.6c-2.1-0.4-2.6-3.3-2.3-5.1l-0.2,0c-7.6,24.6-44,25.1-65.4,7.1L25.6,72.3z
		 M65.6,23.9c2.1,0.3,1.2-3.5-0.5-1.9C64.4,22.7,64.6,23.7,65.6,23.9z"/>
</g>
<g>
	<path class="st0" d="M69,51l-0.8,0.2c-1.1,3.3-4.4,1.1-4.9-1.3c-0.8-3.2,2.3-5.8,5.1-6.6l0.6,0.1c-0.1,1.4-0.2,2.8-0.2,4.1
		C68.7,48.5,68.8,49.7,69,51z"/>
</g>
<g>
	<path d="M65.1,22c1.7-1.6,2.6,2.2,0.5,1.9C64.6,23.7,64.4,22.7,65.1,22z"/>
</g>
<g>
	<path d="M62.5,28.5c0.7,0.1,1,0.3,0.9,0.6c-0.7-0.1-1.3-0.3-2-0.4C61.9,28.5,62.3,28.4,62.5,28.5z"/>
</g>
<g>
	<path d="M61.4,28.6c0.7,0.1,1.3,0.3,2,0.4c-0.1,0.9-2.9,2.4-3.6,2.8c-1.7,0.9-3.4,1.8-5.2,2.5c-1,0.4-1.9,1-2.9,1.4
		c-0.5,0.2-1.2,0-1.5,0.1c-0.3,0.1-0.3,0.3-0.5,0.5c-0.6,0-1.1,0-1.3-0.3c0,0,0,0,0,0c-0.1-0.6,1-1.4,2.2-2.1c0,0,0,0,0,0
		c0.9-0.4,1.9-0.7,2.3-0.8c1.2-0.5,2.4-1,3.6-1.7c0,0,0,0,0,0c0.6-0.1,1.1-0.3,1.7-0.3c-0.2-0.2-0.2-0.5,0-0.7c0,0,0,0,0,0
		c0.4-0.3,0.8-0.6,1.1-0.9c0,0,0,0,0,0C60.1,29.1,60.8,28.8,61.4,28.6z"/>
</g>
<g>
	<path d="M59.4,29.4c-0.4,0.3-0.7,0.6-1.1,0.9C58.5,30,58.9,29.7,59.4,29.4z"/>
</g>
<g>
	<path d="M56.5,31.4c-1.1,0.6-2.4,1.2-3.6,1.7c-0.3,0.1-1.3,0.4-2.3,0.8c0.9-0.6,1.8-1,2-1.1C53.9,32.2,55.2,31.7,56.5,31.4z"/>
</g>
<g>
	<path d="M48.5,36c0.2,0.3,0.7,0.4,1.3,0.3c-0.1,0.2-0.3,0.3-0.7,0.1c-0.3-0.1-0.4-0.2-0.5-0.3C48.5,36.1,48.5,36.1,48.5,36z"/>
</g>
<g>
	<path d="M43.9,18c1.1,0.4,2.1,0.7,1,1.8c-0.5,0.5-1.1,0.5-1.7,0.8c-0.2,0.1-0.5,0.1-0.7-0.1c-0.1-0.1-0.3-0.3-0.4-0.5c0,0,0,0,0,0
		c-0.2-0.6-0.4-1.3-0.4-2c0.4-0.6,1.2-0.4,1.8-0.2C43.5,17.9,43.7,17.9,43.9,18z"/>
</g>
<g>
	<path d="M41.5,18c0,0.7,0.2,1.4,0.4,2C41.5,19.4,41.2,18.6,41.5,18C41.5,18,41.5,18,41.5,18z"/>
</g>
<g>
	<path d="M77.3,26.3c-0.2,0-0.3-0.1-0.5-0.2c-0.2-0.2-0.3-0.3-0.5-0.5c-0.2-0.3-0.2-0.7,0.1-0.9c0.3-0.2,0.7-0.2,0.9,0.1
		c0.1,0.1,0.2,0.2,0.3,0.4c0.3,0.2,0.3,0.7,0,0.9C77.6,26.2,77.5,26.3,77.3,26.3z"/>
</g>
<g>
	<path d="M82.7,28.2c-2.2,0-4.4-0.6-5.9-2.1c-0.3-0.3-0.3-0.7,0-0.9c0.3-0.3,0.7-0.3,0.9,0c3.2,3.2,10.4,1.4,14.2-1.1
		c2.4-1.5,4.3-3.8,5.5-6.3c1-2.1,1.3-3.7,1-4.6c-0.1-0.4-0.4-0.6-0.8-0.7c-1.9-0.7-4.1,1.4-5.8,3c-0.4,0.4-0.9,0.8-1.2,1.1
		c-2.9,2.4-5.9,3.9-8.7,4.5c-2.9,0.6-5.1-0.2-7.5-1c-0.8-0.3-1.5-0.5-2.4-0.8c-3.3-1-6.1-0.5-9.6,0.7c-6.5,2.1-14.1,0.1-19.2-1.6
		c-0.7-0.2-1.3-0.4-1.9-0.7c-0.3-0.1-0.5-0.5-0.4-0.8c0.1-0.3,0.5-0.5,0.8-0.4c0.6,0.2,1.3,0.4,1.9,0.7c4.9,1.6,12.3,3.6,18.4,1.6
		c3.7-1.2,6.8-1.8,10.4-0.7c0.9,0.2,1.7,0.5,2.4,0.8c2.3,0.8,4.2,1.5,6.8,1c2.7-0.6,5.4-2,8.2-4.3c0.3-0.3,0.7-0.7,1.2-1
		c1.9-1.8,4.5-4.2,7.1-3.3c0.8,0.3,1.3,0.8,1.6,1.5c0.7,1.6-0.2,4-1,5.7c-1.3,2.7-3.4,5.1-6,6.8C90.4,26.7,86.4,28.2,82.7,28.2z"/>
</g>
<g>
	<path d="M42.9,21.7c-0.4,0-0.7-0.3-0.7-0.7c0-0.4,0.3-0.7,0.7-0.7c1.1,0,2.2-0.8,2.5-1.9c0.1-0.3,0.5-0.6,0.8-0.5
		c0.3,0.1,0.6,0.5,0.5,0.8C46.2,20.5,44.6,21.7,42.9,21.7z"/>
</g>
<g>
	<path d="M41.5,18.7c-0.3,0-0.6-0.3-0.7-0.6c0-0.2,0-0.5,0-0.7c0-0.4,0.3-0.6,0.7-0.6c0.4,0,0.6,0.3,0.6,0.7c0,0.2,0,0.4,0,0.6
		C42.2,18.3,41.9,18.6,41.5,18.7C41.6,18.7,41.5,18.7,41.5,18.7z"/>
</g>
<g>
	<path d="M60.4,29.1c0,0-0.1,0-0.1,0c-4.6-1-8.4-2-11.8-3.1c-2.6-0.8-5.9-2.5-7.2-5.8c-0.1-0.3,0-0.7,0.4-0.8c0.3-0.1,0.7,0,0.8,0.4
		c1.1,2.8,4,4.2,6.4,5c3.4,1.1,7.1,2,11.6,3c0.4,0.1,0.6,0.4,0.5,0.8C61,28.9,60.7,29.1,60.4,29.1z"/>
</g>
<g>
	<path d="M61.4,29.3c0,0-0.1,0-0.1,0l-1-0.2c-0.4-0.1-0.6-0.4-0.5-0.8c0.1-0.4,0.4-0.6,0.8-0.5l1,0.2c0.4,0.1,0.6,0.4,0.5,0.8
		C62,29.1,61.7,29.3,61.4,29.3z"/>
</g>
<g>
	<path d="M49.8,37c-0.3,0-0.6-0.3-0.7-0.6c0-0.4,0.2-0.7,0.6-0.7c1.3-0.1,3.3-0.9,4.2-1.2c0.2-0.1,0.3-0.1,0.4-0.1
		c2.8-1,5.7-2.6,8.6-4.9c-0.1-0.1-0.2-0.3-0.1-0.5c0.1-0.4,0.4-0.6,0.8-0.5l0.8,0.2c0.2,0.1,0.4,0.2,0.5,0.5c0.1,0.2,0,0.5-0.2,0.7
		c-3.4,2.8-6.6,4.7-9.9,5.9c-0.1,0-0.2,0.1-0.4,0.1C53.4,36.1,51.3,36.9,49.8,37C49.8,37,49.8,37,49.8,37z"/>
</g>
<g>
	<path d="M48.6,36.7c-0.2,0-0.4-0.1-0.6-0.3c-0.2-0.2-0.2-0.5-0.2-0.8c0-0.8,0.8-1.5,2.7-2.3c0.3-0.1,0.7,0,0.9,0.3
		c0.1,0.3,0,0.7-0.3,0.9c-1.7,0.7-1.9,1.1-1.9,1.1c0.2,0.3,0.1,0.7-0.1,0.9C48.8,36.6,48.7,36.7,48.6,36.7z"/>
</g>
<g>
	<path d="M56.6,32c-0.2,0-0.5-0.1-0.6-0.3c-0.2-0.3-0.1-0.7,0.3-0.9c0.6-0.3,1.1-0.7,1.7-1c0.3-0.2,0.7-0.1,0.9,0.2
		c0.2,0.3,0.1,0.7-0.2,0.9c-0.5,0.4-1.1,0.7-1.8,1.1C56.8,32,56.7,32,56.6,32z"/>
</g>
<g>
	<path d="M59.4,30c-0.2,0-0.4-0.1-0.5-0.2c-0.2-0.3-0.2-0.7,0.1-0.9c0.4-0.3,0.7-0.6,0.9-0.9c0.1-0.1,0.2-0.1,0.2-0.2
		c0.2-0.1,0.5-0.1,0.7,0.1c0.2,0.2,0.3,0.6,0,0.9c0,0-0.1,0.1-0.1,0.1c0,0,0,0,0,0c-0.3,0.3-0.6,0.6-1,0.9C59.7,30,59.6,30,59.4,30z
		"/>
</g>
<g>
	<path d="M53,38.9c-1.9,0-3.8-0.5-5-2.3c-0.2-0.3-0.1-0.7,0.2-0.9c0.3-0.2,0.7-0.1,0.9,0.2c1.9,2.7,6,1.7,9,0.9
		c2-0.5,3.9-1.2,5.8-1.8l0.8-0.3c1.4-0.5,3.9-1.3,5,0.8c0.2,0.3,0,0.7-0.3,0.9c-0.3,0.2-0.7,0-0.9-0.3c-0.5-1-1.9-0.7-3.4-0.2
		l-0.8,0.3c-1.9,0.6-3.8,1.3-5.8,1.8C56.9,38.4,54.9,38.9,53,38.9z"/>
</g>
<g>
	<path d="M92.8,49c-0.3,0-0.6-0.2-0.6-0.5c-1-4.4-3.3-8.7-6.8-12.3c-0.7-0.7-1.5-1.5-2.2-2.2c-2.5-2.4-5-4.8-6.5-8.1c0,0,0,0,0,0
		l0,0c-0.1-0.2-0.2-0.3-0.2-0.5c-0.1-0.3,0-0.7,0.4-0.8c0.3-0.1,0.7,0,0.8,0.4c0,0.1,0.1,0.3,0.2,0.4c0,0,0,0,0,0c0,0,0,0,0,0
		c1.3,3,3.8,5.4,6.2,7.7c0.7,0.7,1.5,1.5,2.2,2.2c3.6,3.8,6.1,8.2,7.1,12.9c0.1,0.4-0.1,0.7-0.5,0.8C92.9,49,92.8,49,92.8,49z"/>
</g>
<g>
	<path d="M60.4,85.9c-12.1,0-25-4.6-34.8-12.7c-0.3-0.2-0.3-0.6-0.1-0.9c0.2-0.3,0.6-0.3,0.9-0.1C39.3,82.9,57.6,87.3,72.2,83
		c6.6-1.9,15.3-6.6,18.7-17.6c0.4-1.2,0.7-2.5,0.9-3.7c0.1-0.4,0.4-0.6,0.8-0.5c0.4,0.1,0.6,0.4,0.5,0.8c-0.2,1.3-0.5,2.6-0.9,3.9
		c-2.8,9-9.7,15.6-19.6,18.4C68.7,85.4,64.6,85.9,60.4,85.9z"/>
</g>
<g>
	<path d="M66.4,53.5C66.3,53.5,66.3,53.5,66.4,53.5c-1.6-0.1-3.3-1.6-3.7-3.4c-0.8-3.4,2.2-6.5,5.6-7.4c0.4-0.1,0.7,0.1,0.8,0.5
		c0.1,0.3-0.1,0.7-0.5,0.8c-2.4,0.6-5.4,2.9-4.7,5.8c0.3,1.2,1.5,2.4,2.4,2.4c0.5,0,1-0.4,1.2-1.2c0.1-0.3,0.5-0.5,0.8-0.4
		c0.3,0.1,0.5,0.5,0.4,0.8C68.2,53.3,67,53.5,66.4,53.5z"/>
</g>
<g>
	<path d="M15.4,82.4c-0.3,0-0.6-0.1-1-0.2c-1.4-0.6-2.4-2.4-2.6-3.7c-0.1-1.7,0.7-2.8,1.5-3.8c0.4-0.5,0.8-1,1.1-1.6
		c0.7-1.5,0.1-3.3-0.4-5c-0.2-0.7-0.4-1.4-0.6-2.1c-0.6-3-0.1-6,1.5-8.9c0.2-0.3,0.6-0.4,0.9-0.3c0.3,0.2,0.4,0.6,0.3,0.9
		c-1.4,2.6-1.9,5.4-1.4,8c0.1,0.6,0.3,1.2,0.5,1.9c0.6,1.9,1.2,4,0.4,6c-0.3,0.7-0.8,1.3-1.2,1.9c-0.7,0.9-1.3,1.7-1.2,2.8
		c0.1,0.8,0.9,2.2,1.8,2.6c0.4,0.2,0.7,0.1,1-0.1c0.4-0.3,0.4-1.1,0.5-1.9c0-0.7,0.1-1.5,0.4-2.1c0.8-1.5,2.4-1.9,3.8-2.1
		c0.6-0.1,1.1-0.2,1.6-0.4c1.1-0.5,2.1-1.3,2.7-2.4c1.3-2.2,1.2-5.2-0.2-7.5c-0.2-0.3-0.1-0.7,0.2-0.9c0.3-0.2,0.7-0.1,0.9,0.2
		c1.6,2.7,1.7,6.2,0.2,8.8c-0.8,1.3-2,2.4-3.4,2.9c-0.6,0.2-1.2,0.4-1.9,0.5c-1.3,0.2-2.4,0.5-2.9,1.4c-0.2,0.4-0.2,1-0.2,1.5
		c-0.1,1-0.1,2.2-1,2.9C16.3,82.2,15.9,82.4,15.4,82.4z"/>
</g>
<g>
	<path d="M73.6,57.2c-1.7,0-3.1-0.9-4.1-2.7c-0.5-0.9-0.9-2.1-1.1-3.4c-0.3-1.4-0.3-2.7-0.3-3.6c0-1.2,0.1-2.6,0.2-4.2
		c0.1-0.8,0.2-1.7,0.3-2.5c0.2-1.7,0.4-3.4,0.5-5.1c0.1-2.9-0.1-5.2-0.7-7.3c-0.1-0.3,0.1-0.7,0.4-0.8c0.3-0.1,0.7,0.1,0.8,0.4
		c0.7,2.2,0.9,4.7,0.7,7.7c-0.1,1.7-0.3,3.5-0.5,5.2c-0.1,0.8-0.2,1.7-0.3,2.5c-0.2,1.5-0.2,2.9-0.2,4.1c0,0.7,0,1.9,0.3,3.3
		c0.2,1.2,0.5,2.2,1,3c0.8,1.6,2,2.2,3.6,1.9c2.1-0.4,2.4-3.4,2.4-5.7c0.1-4-0.7-8-1.5-11.8l0-0.2c-0.7-3.1-1.4-6.3-2.6-9.2
		c-0.1-0.3,0-0.7,0.4-0.9c0.3-0.1,0.7,0,0.9,0.4c1.2,3,1.9,6.2,2.6,9.4l0,0.2C77.2,41.9,78,46,78,50.2c0,1.7-0.1,6.4-3.5,7
		C74.1,57.2,73.8,57.2,73.6,57.2z"/>
</g>
<g>
	<path d="M94.5,71.5c-0.2,0-0.4,0-0.6-0.1c-0.8-0.2-1.5-0.6-2-1.4c-0.9-1.3-1-3.2-0.8-4.5c0.1-0.4,0.4-0.6,0.8-0.5
		c0.4,0.1,0.6,0.4,0.5,0.8c-0.2,1-0.1,2.6,0.6,3.5c0.3,0.5,0.7,0.7,1.2,0.8c0.7,0.1,1.3-0.1,1.8-0.6c0.7-0.8,1-2.2,0.7-3.2
		c-0.1-0.5-0.5-0.9-0.8-1.4c-0.4-0.5-0.8-1-1-1.8c-0.3-1-0.2-2,0-2.9c0.1-0.5,0.1-0.9,0.1-1.3c0.1-3.4-1.2-6.9-2.4-10.3
		c-0.1-0.3,0-0.7,0.4-0.8c0.3-0.1,0.7,0,0.8,0.4c1.3,3.4,2.6,7.1,2.5,10.8c0,0.5-0.1,1-0.1,1.4c-0.1,0.9-0.2,1.7,0,2.4
		c0.1,0.5,0.5,0.9,0.8,1.3c0.4,0.5,0.8,1.1,1,1.8c0.4,1.5,0,3.4-1,4.5C96.2,71.2,95.4,71.5,94.5,71.5z"/>
</g>
<g>
	<path d="M59.4,30.1c-0.2,0-0.5-0.1-0.6-0.4c-0.2-0.3-0.1-0.7,0.2-0.8c0.3-0.2,0.6-0.2,0.9,0.1c0.3,0.3,0.3,0.7,0,0.9
		c0,0-0.1,0.1-0.2,0.1C59.6,30,59.5,30.1,59.4,30.1z"/>
</g>
<g>
	<path d="M58.3,30.9c-0.3,0-0.6-0.2-0.6-0.5c-0.1-0.3,0.1-0.6,0.3-0.7c0.3-0.2,0.7,0,0.9,0.3c0.1,0.3,0.1,0.6-0.1,0.8
		C58.6,30.9,58.5,30.9,58.3,30.9z"/>
</g>
<g>
	<path d="M42,20.7c-0.2,0-0.3-0.1-0.5-0.2c-0.1-0.1-0.2-0.3-0.2-0.5c0-0.4,0.3-0.7,0.7-0.7c0.3,0,0.5,0.2,0.6,0.4
		c0.1,0.2,0.1,0.5-0.1,0.8C42.3,20.6,42.1,20.7,42,20.7z"/>
</g>
<g>
	<path d="M58.5,62.6c-1.8,0-3.5-0.4-5.2-1.1c-4.7-2.1-9-4.3-12.8-6.7c-1.5-0.9-2.7-2.2-3.9-3.4c-0.9-0.9-1.7-1.7-2.7-2.5
		c-2.4-1.9-5.4-2.3-8.5-2.7c-1.2-0.1-1.7-0.3-1.7-1.5c0-0.1,0-0.3,0-0.4c-0.1-0.6-0.1-1.3-0.3-2c-0.3-1.1-0.9-2.1-2-3.2
		c-2.1-2.1-5.2-3.5-8.5-3.8c-3.2-0.3-7.7,0.5-10,2.7C2,38.9,1.5,39.9,1.3,41c0.4-0.3,1-0.7,1.2-0.8C2.7,40,2.9,39.9,3,39.8l0.6-0.4
		c1-0.6,2-1.3,3.3-1.7c3.1-1,6.2,0.1,8.4,2.8c1.8,2.3,3.4,5.7,2.4,8.4c-0.3,0.7-0.6,1.4-0.8,2c-0.9,2-1.6,3.5-0.5,5.8
		c0.2,0.3,0,0.8-0.3,0.9c-0.3,0.2-0.8,0-0.9-0.3c-1.4-2.9-0.5-4.9,0.5-7c0.3-0.6,0.6-1.2,0.8-1.9c0.8-2.2-0.7-5.2-2.2-7.1
		c-1.9-2.3-4.4-3.2-6.9-2.4c-1,0.3-2,0.9-2.9,1.5l-0.6,0.4c-0.1,0.1-0.2,0.2-0.4,0.3c-1.1,0.8-2.1,1.5-3,1.2
		c-0.3-0.1-0.5-0.3-0.5-0.6c-0.1-1.8,0.6-3.4,2-4.7C4.5,34.6,9.5,33.7,13,34c3.6,0.3,7,1.9,9.3,4.2c1.3,1.3,2,2.5,2.4,3.8
		c0.2,0.7,0.3,1.5,0.4,2.2c0,0.2,0,0.4,0,0.5c0,0,0,0.1,0,0.1c0.2,0,0.4,0,0.5,0.1c3.2,0.3,6.5,0.8,9.2,3c1,0.8,1.9,1.7,2.8,2.6
		c1.2,1.2,2.3,2.3,3.7,3.2c3.7,2.4,7.9,4.6,12.6,6.6c2.8,1.2,6.1,1.3,9.2,0.1c2-0.7,5.8-2.9,5.7-5.9c0-0.4,0.3-0.7,0.7-0.7
		c0.4,0,0.7,0.3,0.7,0.7c0.1,3.8-4.1,6.3-6.6,7.2C61.9,62.3,60.2,62.6,58.5,62.6z"/>
</g>
</svg>
