<?xml version="1.0" encoding="utf-8"?>
<!-- Generator: Adobe Illustrator 21.1.0, SVG Export Plug-In . SVG Version: 6.00 Build 0)  -->
<svg version="1.1" id="Layer_1" xmlns="http://www.w3.org/2000/svg" xmlns:xlink="http://www.w3.org/1999/xlink" x="0px" y="0px"
	 viewBox="0 0 100 100" style="enable-background:new 0 0 100 100;" xml:space="preserve">
<style type="text/css">
	.st0{fill:#EA9A65;}
</style>
<g>
	<path class="st0" d="M68.9,54.7c0.1,0.2,0.3,0.3,0.4,0.4c0.8,0.2,2.1-1.5,2.4-1.9c0.9-1.7,0.8-2.5-1-3.1c-0.8-0.3-2.3-0.7-2.9,0.3
		c-0.5,0.8,0.8,3.5,1.1,4.2C68.8,54.6,68.9,54.6,68.9,54.7z M48.3,39.4c0.1,0.1,0.1,0.3,0.2,0.4c0.6,1.4,0.1,3,0.6,4.4
		c0.8,2.3,4.4,3.6,7.4,4.4l0.1-0.4c-1.1-2-1.3-4-2.9-5.8c-1.2-1.4-2.9-3.2-4.9-3.2L48.3,39.4z M59.1,60.4c-2.8,0.5-5.6,0.5-8.4,0.2
		l0,0.1c-0.4,7.2-5.6,11.4-12,13.2c-2.9,0.8-5.9,1.1-8.9,1.1c-2.3,0-4.6-0.3-6.6-0.8l0,0.1c-3.4,1.9-6.5,6.5-5.2,10.5
		c0.8,2.3,2.6,6.4-1.8,5.9c-3.2-0.4-4.7-4.6-5.2-7.2c-1-4.7,0.3-9.4,2-13.8l-0.1-0.5c-16.8-13-14.1-37.9,1.1-50.8
		C27.3,6.9,49.5,3.5,64.5,14c9.5,6.7,14.8,18,17,29.2l-0.1,0.1c2.3,1.2,5.8,0.2,7.9-1c2.3-1.4,3.7-3.7,4.1-6.4
		c0.2-1.5-0.2-3.1-0.5-4.6c-0.2-1.1-1.6-3.1-1.4-4.2c0.3-2,2.9,0.4,3.6,1c4.1,3.5,4.7,10.7,2,15.3c-2.6,4.3-7.7,5.6-12.5,6.3
		l0.1,0.5c0.5,3.6,1.1,7.6-0.4,11.2l0.1,0.1c2.4,3,3.2,7.2,2,10.8c-0.6,1.8-1.8,3.3-2,5.3c-0.2,1.8,0.2,3.6-1,5.1
		c-0.9,1.1-2.5,1.7-3.8,0.9c-1.6-0.9-1.2-2.6-0.9-4c1-3.8,1.6-7.7-0.8-11.2l-0.1-0.1c-2,1.2-4.2,1.8-6.5,1.8l0,0.3
		c-2.4,3.2-1.5,7-2.5,10.6c-0.4,1.5-1.2,2.9-2.8,3.4c-1.3,0.4-2.7-0.1-3.1-1.5c-0.4-1.6,1.2-1.8,1.1-3.3c-0.1-1.2-1.1-2.5-1.5-3.6
		c-1.5-3.4-2.5-7.4-1-11l0.2-0.2c-0.7-1-1.3-2.1-1.9-3.3C59.7,61.4,59.4,60.4,59.1,60.4L59.1,60.4z M43,47.6c1.8,0.5,2.4-2.8,0.4-3
		C41.4,44.3,41.4,47.1,43,47.6z"/>
</g>
<g>
	<path d="M70.7,50c1.9,0.6,2,1.4,1,3.1c-0.2,0.4-1.5,2.1-2.4,1.9c-0.1-0.1-0.3-0.2-0.4-0.4c0-0.1-0.1-0.1-0.1-0.2
		c-0.3-0.7-1.5-3.4-1.1-4.2C68.3,49.3,69.9,49.8,70.7,50z"/>
</g>
<g>
	<path d="M68.9,54.7c0.1,0.1,0.3,0.3,0.4,0.4C69.2,55,69,54.9,68.9,54.7z"/>
</g>
<g>
	<path d="M43.4,44.5c2,0.2,1.4,3.5-0.4,3C41.4,47.1,41.4,44.3,43.4,44.5z"/>
</g>
<g>
	<path class="st0" d="M38.6,74L38.6,74c-0.6,3.6-2.6,7.6-2,11.2c0.2,1.4,1.7,3,1,4.4c-0.7,1.4-2.5,1.2-3.6,0.7
		c-5-2.2-6.4-10.2-4.3-14.8l0-0.5C32.7,75.1,35.8,74.8,38.6,74z"/>
</g>
<g>
	<path d="M21.6,70c-0.2,0-0.4,0-0.7,0c-1.7-0.2-2.9-1.3-3.8-3.1c-1.8-4,2.4-8.3,4.9-10.8l0.2-0.2c1.1-1.1,2.2-2.1,3.4-3.1
		c2.8-2.4,5.7-5,7-8.4c0.1-0.4,0.5-0.6,0.9-0.4c0.4,0.1,0.6,0.5,0.4,0.9c-1.4,3.8-4.4,6.4-7.4,9c-1.2,1-2.3,2-3.3,3L23.1,57
		c-2.2,2.3-6,6.1-4.6,9.2c0.6,1.4,1.5,2.1,2.7,2.3c2.7,0.4,6.3-2.5,7.9-4.4c3.7-4.4,6.7-10,8.8-16.1c0.1-0.4,0.5-0.6,0.9-0.4
		c0.4,0.1,0.6,0.5,0.4,0.9c-2.1,6.3-5.2,12-9,16.6C28.3,67.1,24.7,70,21.6,70z"/>
</g>
<g>
	<path d="M54,61.6c-1.1,0-2.3-0.1-3.5-0.2c-2.2-0.2-4.3-0.7-6.3-1.3c-0.4-0.1-0.6-0.5-0.5-0.9c0.1-0.4,0.5-0.6,0.9-0.5
		c1.9,0.6,3.9,1,6,1.2c2.8,0.3,5.6,0.2,8.2-0.2c2.7-0.4,5.2-1.3,7.4-2.4c3-1.6,6.1-4.2,5.7-6.1c-0.2-1.1-2.4-1-3.6-1l-0.9,0
		c-2.8,0.1-5.4,0.2-8.3-0.3c-1-0.2-2-0.4-2.9-0.7c-4.5-1.2-7.1-2.8-7.9-4.9c-0.3-0.8-0.3-1.6-0.3-2.3c0-0.7-0.1-1.4-0.3-2
		c0-0.1-0.1-0.2-0.1-0.3l-0.1-0.1c-0.4-0.8-1-1.6-1.8-2.2c-1.6-1.3-4-2-6.7-2.1c0,0-0.1,0-0.1,0c-7.5,0-10,6.3-12.4,12.3
		c-0.1,0.4-0.6,0.5-0.9,0.4c-0.4-0.1-0.5-0.6-0.4-0.9C27.8,41,30.7,33.9,39.2,34c2.1,0,5.2,0.4,7.6,2.4c1,0.8,1.7,1.7,2.2,2.7
		l0.1,0.1c0.1,0.1,0.1,0.2,0.2,0.4c0.3,0.8,0.4,1.7,0.4,2.5c0,0.7,0,1.3,0.3,1.9c0.6,1.6,2.9,2.9,6.9,4c0.9,0.2,1.9,0.5,2.8,0.6
		c2.7,0.5,5.2,0.4,7.9,0.3l0.9,0c1.6-0.1,4.5-0.2,5,2.1c0.8,3.6-5.2,7-6.4,7.6c-2.3,1.2-5,2.1-7.8,2.6C57.5,61.4,55.8,61.6,54,61.6z
		"/>
</g>
<g>
	<path d="M30.4,75.7c-0.3,0-0.5,0-0.8,0c-2.4,0-4.6-0.3-6.8-0.8c-0.9-0.2-1.8-0.5-2.5-0.7c-0.4-0.1-0.6-0.5-0.4-0.9
		c0.1-0.4,0.5-0.6,0.9-0.4c0.7,0.2,1.5,0.5,2.4,0.7c2,0.5,4.2,0.7,6.5,0.8c3,0.1,6-0.3,8.7-1c4.1-1.1,11.1-4.3,11.5-12.5
		c0-0.4,0.4-0.7,0.7-0.7c0.4,0,0.7,0.4,0.7,0.7c-0.3,6.8-4.8,11.7-12.5,13.8C36.2,75.4,33.3,75.7,30.4,75.7z"/>
</g>
<g>
	<path d="M12.7,70c-0.2,0-0.3,0-0.4-0.1C5,64.1,0.8,55.8,0.6,46.3C0.3,35.6,5.1,24.9,13.3,17.9C26.2,6.9,49,2.2,64.9,13.5
		c8.7,6.1,14.8,16.6,17.2,29.6c0.1,0.4-0.2,0.8-0.6,0.8c-0.4,0.1-0.8-0.2-0.8-0.6c-1.4-7.3-5.4-20.8-16.7-28.7
		C48.8,3.8,26.7,8.3,14.3,19C6.3,25.8,1.7,36,2,46.3c0.2,9,4.2,17,11.2,22.4c0.3,0.2,0.4,0.7,0.1,1C13.2,69.9,13,70,12.7,70z"/>
</g>
<g>
	<path d="M81.6,50.9c-0.3,0-0.6-0.3-0.7-0.6c-0.1-0.4,0.2-0.8,0.6-0.8l1.2-0.2c0.6-0.1,1.2-0.2,1.8-0.3c4.8-0.8,9.6-2,12-6
		c2.7-4.5,1.8-11.2-1.8-14.4l-0.1-0.1c-1.6-1.4-2.1-1.5-2.3-1.5c0,0,0,0,0,0c0,0,0,0.1,0,0.2c-0.1,0.5,0.4,1.5,0.7,2.2
		c0.3,0.6,0.6,1.2,0.7,1.7l0.1,0.3c0.3,1.5,0.7,3,0.5,4.5c-0.4,2.9-2,5.4-4.4,6.9c-2.4,1.4-6.1,2.4-8.6,1.1l-0.2-0.1
		c-0.3-0.2-0.5-0.6-0.3-1c0.2-0.3,0.6-0.5,1-0.3l0.2,0.1c2.1,1.1,5.4,0,7.1-1c2.1-1.2,3.4-3.4,3.7-5.9c0.2-1.3-0.1-2.7-0.4-4.1
		l-0.1-0.3c-0.1-0.4-0.3-0.9-0.6-1.4c-0.5-1-1-2.1-0.8-3c0.1-0.8,0.6-1.2,0.9-1.3c1.1-0.4,2.4,0.6,3.8,1.8l0.1,0.1
		c4.2,3.5,5.1,11.1,2.1,16.2c-2.7,4.5-7.8,5.9-13,6.7c-0.6,0.1-1.2,0.2-1.8,0.3l-1.2,0.2C81.6,50.9,81.6,50.9,81.6,50.9z"/>
</g>
<g>
	<path d="M84.3,62.1c-0.1,0-0.2,0-0.3-0.1c-0.4-0.1-0.5-0.6-0.4-0.9c1.4-3.4,0.8-7.5,0.3-10.8c-0.1-0.4,0.2-0.7,0.6-0.8
		c0.4-0.1,0.7,0.2,0.8,0.6c0.5,3.5,1.2,7.7-0.4,11.5C84.8,62,84.6,62.1,84.3,62.1z"/>
</g>
<g>
	<path d="M71.6,70.8c-0.1,0-0.2,0-0.4,0c-0.9,0-1.8-0.1-2.7-0.4c-0.4-0.1-0.6-0.5-0.5-0.9c0.1-0.4,0.5-0.6,0.9-0.5
		c0.8,0.2,1.5,0.3,2.3,0.3c2.1,0.1,4.1-0.5,6.2-1.7c0.6-0.4,1.3-0.8,1.9-1.3c0.3-0.2,0.8-0.2,1,0.1c0.2,0.3,0.2,0.8-0.1,1
		c-0.7,0.5-1.4,1-2.1,1.4C76,70.2,73.8,70.8,71.6,70.8z"/>
</g>
<g>
	<path d="M61.9,65.8c-0.2,0-0.4-0.1-0.6-0.3l-0.2-0.2c-0.5-0.8-1-1.5-1.4-2.3c-0.2-0.3-0.4-0.7-0.5-1c0-0.1-0.1-0.2-0.1-0.3
		c0,0,0-0.1,0-0.1c-0.1,0-0.1,0-0.2-0.1c-0.4-0.2-0.5-0.6-0.5-0.7c0-0.2,0-0.5,0.4-0.8c0.1-0.1,0.2-0.1,0.3-0.2
		c0.8-0.1,1.2,0.8,1.4,1.3c0,0.1,0,0.1,0.1,0.2c0.2,0.3,0.4,0.7,0.6,1c0.4,0.8,0.8,1.5,1.3,2.2l0.2,0.3c0.2,0.3,0.1,0.8-0.2,1
		C62.1,65.7,62,65.8,61.9,65.8z"/>
</g>
<g>
	<path d="M16.7,91.5c-0.2,0-0.5,0-0.7,0c-3.9-0.4-5.4-5.6-5.9-7.8c-1.1-5.1,0.5-10.3,2-14.2c0.1-0.4,0.6-0.5,0.9-0.4
		c0.4,0.1,0.5,0.6,0.4,0.9c-1.5,4-3,8.6-2,13.4c0.4,1.9,1.7,6.3,4.6,6.7c0.6,0.1,1.5,0.1,1.8-0.4c0.6-0.7-0.2-2.8-0.6-4l-0.2-0.6
		c-1.4-4.2,1.7-9.3,5.5-11.3c0.3-0.2,0.8-0.1,1,0.3c0.2,0.3,0.1,0.8-0.3,1c-3.3,1.8-6,6.2-4.9,9.6l0.2,0.6c0.6,1.8,1.4,4,0.4,5.4
		C18.6,91.2,17.8,91.5,16.7,91.5z"/>
</g>
<g>
	<path d="M35.7,91.4c-0.7,0-1.4-0.2-2.1-0.5c-2.1-0.9-3.8-2.8-4.8-5.5c-1.3-3.4-1.2-7.4,0.1-10.3c0.2-0.4,0.6-0.5,0.9-0.3
		c0.4,0.2,0.5,0.6,0.3,0.9c-1.2,2.5-1.2,6.2-0.1,9.2c0.6,1.6,1.8,3.7,4,4.7c0.2,0.1,2.1,0.9,2.7-0.3c0.3-0.6-0.1-1.4-0.5-2.3
		c-0.2-0.6-0.5-1.1-0.6-1.7c-0.4-2.6,0.4-5.2,1.1-7.7c0.4-1.3,0.7-2.5,0.9-3.7c0.1-0.4,0.4-0.6,0.8-0.6c0.4,0.1,0.6,0.4,0.6,0.8
		c-0.2,1.3-0.6,2.6-1,3.9c-0.7,2.4-1.4,4.8-1.1,7.1c0.1,0.4,0.3,0.9,0.5,1.4c0.5,1.1,1,2.3,0.4,3.5C37.7,91,36.8,91.4,35.7,91.4z"/>
</g>
<g>
	<path d="M65.2,85.2c-0.6,0-1.1-0.1-1.6-0.4c-0.7-0.4-1.1-1-1.3-1.8c-0.3-1.2,0.2-1.9,0.6-2.4c0.3-0.4,0.5-0.6,0.4-1
		c0-0.7-0.5-1.5-0.9-2.2c-0.2-0.4-0.4-0.8-0.6-1.2c-1.3-3-2.8-7.4-1-11.6c0.2-0.4,0.6-0.5,0.9-0.4c0.4,0.2,0.5,0.6,0.4,0.9
		c-1.5,3.6-0.1,7.7,1,10.5c0.1,0.3,0.3,0.7,0.5,1.1c0.5,0.8,1,1.8,1,2.8c0.1,0.9-0.4,1.5-0.7,2c-0.4,0.5-0.5,0.7-0.4,1.2
		c0.1,0.4,0.3,0.7,0.6,0.9c0.4,0.2,1,0.3,1.6,0.1c1.1-0.3,1.8-1.2,2.3-2.9c0.3-1.3,0.5-2.6,0.6-3.9c0.2-2.3,0.4-4.8,2-7
		c0.2-0.3,0.7-0.4,1-0.1c0.3,0.2,0.4,0.7,0.1,1c-1.4,1.9-1.6,4-1.7,6.2c-0.1,1.3-0.2,2.7-0.6,4.1c-0.6,2.1-1.7,3.4-3.3,3.9
		C65.9,85.2,65.5,85.2,65.2,85.2z"/>
</g>
<g>
	<path d="M80.8,84.7c-0.5,0-1.1-0.1-1.6-0.4c-2.2-1.2-1.5-3.6-1.2-4.8c1.1-4.1,1.4-7.5-0.7-10.6c-0.2-0.3-0.1-0.8,0.2-1
		c0.3-0.2,0.8-0.1,1,0.2c2.7,3.9,1.9,8.1,0.9,11.7c-0.4,1.6-0.5,2.6,0.5,3.2c1,0.6,2.2,0,2.9-0.8c0.8-0.9,0.8-2,0.8-3.2
		c0-0.5,0-1,0.1-1.5c0.1-1.3,0.7-2.4,1.2-3.5c0.3-0.6,0.6-1.3,0.8-1.9c1.1-3.3,0.4-7.3-1.9-10.2c-0.2-0.3-0.2-0.8,0.1-1
		c0.3-0.2,0.8-0.2,1,0.1c2.6,3.2,3.4,7.7,2.1,11.5c-0.2,0.7-0.6,1.4-0.9,2.1c-0.5,1-1,2-1.1,3c0,0.4-0.1,0.9-0.1,1.4
		c0,1.3,0,2.8-1.1,4.1C83.2,84.1,82,84.7,80.8,84.7z"/>
</g>
<g>
	<path d="M56.6,48.9c-0.2,0-0.5-0.1-0.6-0.4c-0.5-0.8-0.8-1.6-1.1-2.4c-0.4-1.1-0.8-2.2-1.7-3.2c-1.3-1.5-2.8-3-4.3-3c0,0,0,0-0.1,0
		c-0.4,0-0.7-0.3-0.7-0.7c0-0.4,0.3-0.7,0.7-0.7c2.5-0.1,4.4,2.2,5.5,3.4c1,1.2,1.5,2.5,2,3.7c0.3,0.7,0.6,1.5,1,2.2
		c0.2,0.3,0.1,0.8-0.3,1C56.9,48.9,56.8,48.9,56.6,48.9z"/>
</g>
<g>
	<path d="M70.1,56.1c0,0-0.1,0-0.1,0c-0.4-0.1-0.8-0.2-1.1-0.5c-0.3-0.2-0.4-0.7-0.2-1c0.2-0.3,0.7-0.4,1-0.2
		c0.2,0.1,0.3,0.2,0.5,0.2c0.4,0.1,0.7,0.4,0.6,0.8C70.8,55.8,70.5,56.1,70.1,56.1z"/>
</g>
<g>
	<path d="M68.9,55.4c-0.2,0-0.4-0.1-0.5-0.2c-1.4-1.4-2.2-4.2-1.5-5.7c0.2-0.4,0.6-0.5,0.9-0.4c0.4,0.2,0.5,0.6,0.4,0.9
		c-0.4,0.9,0.1,3,1.2,4.1c0.3,0.3,0.3,0.7,0,1C69.3,55.3,69.1,55.4,68.9,55.4z"/>
</g>
</svg>
