<?xml version="1.0" encoding="utf-8"?>
<!-- Generator: Adobe Illustrator 21.1.0, SVG Export Plug-In . SVG Version: 6.00 Build 0)  -->
<svg version="1.1" id="Layer_1" xmlns="http://www.w3.org/2000/svg" xmlns:xlink="http://www.w3.org/1999/xlink" x="0px" y="0px"
	 viewBox="0 0 100 100" style="enable-background:new 0 0 100 100;" xml:space="preserve">
<style type="text/css">
	.st0{fill:#EA9A65;}
</style>
<g>
	<path class="st0" d="M41.1,74.7c-0.5,1.3-1.2,2.4-1.1,3.9c0.1,1.8,0.8,3.6,0.2,5.3c-0.7,2.2-4.3,4.3-5.8,1.5
		c-0.9-1.6,0.8-2.7,1.2-4c0.4-1.3-0.8-2.7-1.2-4c-1.1-3.1-1.4-6.8,0.4-9.7l0.2-0.1C33.5,62,35.3,56.1,37.8,51c1.2-2.5,2.7-4.8,4.4-7
		c1.5-1.9,2.6-4.4,4.4-6c0.4,0.3,0.9,0.6,1.4,0.7c4.3,0.8,5.7-4.8,6.4-8c0.5-2.6,1-4.5,2.9-6.4c1.3-1.3,3.4-4.2,2.6-6.1
		c0.3,2.2-1.2,4.6-2.7,6.1c-1.8,1.8-2.4,3.6-2.8,6c-0.6,3.3-1.5,7.8-5.5,8.4c2-0.7,1.2-2.9-0.6-3.1c-1.1-0.1-2.9,0.4-2.1,1.7
		c-2.1-2.9-1.6-6.8-1.7-10.2c0-1.1-0.1-2.1-0.4-3.1c0,0,0,0,0,0c-0.1-0.6-0.3-1.3-0.5-1.9c0,0,0-0.1-0.1-0.1c0-0.1,0-0.1-0.1-0.2
		c-0.1-0.2-0.1-0.3-0.2-0.5c-0.8-2-1.5-3.7-1.1-5.9c-0.3,0.9-0.4,1.7-0.2,2.5c-3.8,3.4-4.8,8-6.4,12.6c-0.5,1.5-1.3,3.3-3.1,3.6
		c-2.1,0.3-4.3-1.3-5.2-3c-2.6-4.6,1.6-9.9,4.5-13.3c1.7-2,3.5-3.5,5.7-4.9c1.5-0.9,3.7-2.9,5.5-2.5l0.1,0.1
		c1.5-3.2,4.6-5.3,8.1-6.1c2.2-0.5,4.7-0.5,6.9-0.2c2.8,0.5,4.4,2,6.6,3.7l0.3,0.1c0.8-0.8,1.5-1.6,2.1-2.4c1.1-1.4,2.1-3.1,3.5-4.2
		c1.9-1.4,3.8,0,4.9,1.8c2.2,3.8,0,8.5-3.5,10.7c-0.7,0.4-1.5,0.8-2.3,1.1l0.3,0.8c1.7,1.2,2.7,4.7,3,6.5l0.2,0.1
		c2.2,2.4,2.5,6.4,2.7,9.5c0.1,2.2-0.4,4.1-0.5,6.2c-0.1,1.9,1.4,2.1,1.7,3.7c0.5,2.6-2.4,6.1-4.9,4c-1.4-1.2-1.5-3.1-1.4-4.8
		c0.1-1.6,1-3.7,0.2-5.2c-1.7,4.5-3.9,8.9-4.8,13.7c-0.6,3.5-0.7,7-1.7,10.5c-0.8,3-2.4,5.6-4.4,8l0.1,0.1c2.5,3.2-0.2,7.1-1.3,10.3
		c-0.3,0.8-0.6,1.7-0.3,2.6c0.3,0.9,1.1,1.5,1.4,2.4c0.4,1.5,0.1,3.8-1.6,4.5c-2.8,1.1-4.7-3-4.7-5.1c0-2.7,0.9-6.5-1.9-8.1
		l-0.1-0.3c-0.4,0.2-0.8,0.3-1.3,0.4c-0.9,0.2-2.1,0.2-2.8,0.9c-1.8,1.6-0.3,6,0.3,7.9c0.8,2.7,1.9,5,3.5,7.3c1.7,2.3,3.8,4,5.8,6
		c0.6,0.6,1.4,1.6,0.5,2.2c-0.7,0.4-2.5-0.3-3.1-0.5c-2.4-1.1-4.4-3.4-5.9-5.4c-1.8-2.4-3.3-5-4.3-7.8c-1.1-3.2-0.7-6.3-1.2-9.6
		l-0.3-0.1C42.3,75.3,41.7,75,41.1,74.7z M53.7,21.6c1.6,0.2,1.8-2.3,0.2-2.5C52.4,19,52.1,21.5,53.7,21.6z M46.3,21.4
		c1.6,0.2,1.8-2.3,0.2-2.5C45,18.8,44.7,21.2,46.3,21.4z"/>
</g>
<g>
	<path d="M46.6,38.1c-2.3-2-2-7.5-2.1-9.8c0-1.4,0-2.9-0.3-4.3c0.2,1,0.3,2,0.4,3.1c0.1,3.4-0.4,7.3,1.7,10.2
		c-0.8-1.2,1-1.8,2.1-1.7c1.8,0.2,2.7,2.4,0.6,3.1c3.9-0.6,4.8-5.1,5.5-8.4c0.5-2.4,1-4.2,2.8-6c1.5-1.5,2.9-3.9,2.7-6.1
		c0.8,1.9-1.3,4.8-2.6,6.1c-1.9,2-2.4,3.8-2.9,6.4c-0.6,3.2-2.1,8.7-6.4,8C47.4,38.6,47,38.4,46.6,38.1z"/>
</g>
<g>
	<path d="M54,19.2c1.6,0.1,1.4,2.6-0.2,2.5C52.1,21.5,52.4,19,54,19.2z"/>
</g>
<g>
	<path d="M46.6,18.9c1.6,0.2,1.4,2.6-0.2,2.5C44.7,21.2,45,18.8,46.6,18.9z"/>
</g>
<g>
	<path d="M44.2,23.9c-0.1-0.7-0.3-1.3-0.6-2c0,0,0,0.1,0.1,0.1C43.9,22.7,44.1,23.3,44.2,23.9z"/>
</g>
<g>
	<path d="M42,17.8c-0.1-0.8-0.1-1.6,0.2-2.5c-0.4,2.2,0.2,3.9,1.1,5.9c0.1,0.2,0.1,0.3,0.2,0.5C43,20.4,42.3,19.2,42,17.8z"/>
</g>
<g>
	<path d="M73.9,46.9c-0.7,0-1.4-0.3-2-0.8c-1.7-1.4-1.7-3.6-1.6-5.3c0-0.5,0.1-1,0.3-1.6c0.2-1.2,0.5-2.4,0-3.3c0,0-0.1-0.1-0.1-0.1
		c-0.2-0.3-0.1-0.6,0.2-0.8c0.3-0.2,0.6-0.1,0.8,0.2c0,0.1,0.1,0.1,0.1,0.2c0.7,1.3,0.4,2.8,0.1,4.1c-0.1,0.5-0.2,1-0.2,1.4
		c-0.1,1.5-0.1,3.3,1.2,4.3c0.9,0.7,1.8,0.5,2.3,0.2c1.2-0.7,1.9-2.4,1.7-3.6c-0.1-0.6-0.4-0.9-0.7-1.3c-0.5-0.6-1-1.3-1-2.5
		c0-0.8,0.1-1.6,0.2-2.4c0.2-1.3,0.3-2.5,0.2-3.8c-0.2-2.9-0.4-6.8-2.5-9.1c-0.2-0.2-0.2-0.6,0-0.8c0.2-0.2,0.6-0.2,0.8,0
		c2.4,2.6,2.7,6.8,2.8,9.9c0.1,1.4-0.1,2.7-0.3,4c-0.1,0.7-0.2,1.5-0.2,2.3c-0.1,0.8,0.3,1.2,0.7,1.7c0.4,0.5,0.8,1,1,1.8
		c0.4,1.8-0.6,3.9-2.2,4.9C75,46.8,74.5,46.9,73.9,46.9z"/>
</g>
<g>
	<path d="M42.9,76.1c-0.1,0-0.1,0-0.2,0c-0.7-0.2-1.3-0.5-1.9-0.8c-0.8-0.4-1.5-0.8-2.2-1.4c-0.3-0.2-0.3-0.6-0.1-0.8
		c0.2-0.3,0.6-0.3,0.8-0.1c0.6,0.5,1.3,0.9,2,1.2c0.5,0.3,1.1,0.5,1.8,0.7c0.3,0.1,0.5,0.4,0.4,0.7C43.4,75.9,43.2,76.1,42.9,76.1z"
		/>
</g>
<g>
	<path d="M35.1,68.2c-0.3,0-0.5-0.2-0.6-0.4c-1.4-4.9-0.5-10.6,2.7-17c1.2-2.5,2.7-4.8,4.4-7.1c0.5-0.7,1-1.4,1.5-2.2
		c0.9-1.4,1.8-2.8,3-3.9c0.2-0.2,0.6-0.2,0.8,0c0.2,0.2,0.2,0.6,0,0.8c-1.1,1-2,2.4-2.8,3.7c-0.5,0.7-1,1.5-1.5,2.2
		c-1.7,2.2-3.1,4.5-4.3,6.9c-3.1,6.2-4,11.6-2.7,16.2c0.1,0.3-0.1,0.6-0.4,0.7C35.2,68.2,35.1,68.2,35.1,68.2z"/>
</g>
<g>
	<path d="M48.8,39.4c-0.3,0-0.6,0-0.9-0.1c-0.6-0.1-1.2-0.4-1.7-0.8c-2.3-2-2.3-6.6-2.3-9.4c0-0.3,0-0.6,0-0.8c0-1.4,0-2.8-0.3-4.2
		c-0.1-0.3,0.1-0.6,0.5-0.7c0.3-0.1,0.6,0.1,0.7,0.5c0.3,1.5,0.3,2.9,0.3,4.4c0,0.2,0,0.5,0,0.8c0,1.8,0,4.6,0.7,6.7
		c0.6-0.7,1.8-0.9,2.6-0.8c1.2,0.2,2.2,1.1,2.3,2.1c0,0.1,0,0.2,0,0.3c1.9-1.3,2.6-4.2,3.1-7.2c0.5-2.6,1.1-4.4,3-6.3
		c1.3-1.3,2.7-3.5,2.5-5.6c0-0.3,0.2-0.6,0.4-0.6c0.3-0.1,0.6,0.1,0.7,0.4c0.9,2.2-1.3,5.3-2.7,6.7c-1.8,1.8-2.2,3.5-2.7,6.1
		C54.5,33.1,53.2,39.4,48.8,39.4z M46.9,37.6C46.9,37.6,46.9,37.6,46.9,37.6c0.3,0.3,0.7,0.5,1.2,0.6c0.2,0,0.3,0,0.5,0.1
		c0,0,0.1-0.1,0.2-0.1c0.3-0.1,0.9-0.4,0.8-0.9c-0.1-0.5-0.5-1-1.3-1.1c-0.6-0.1-1.4,0.1-1.6,0.4c0,0-0.1,0.1,0.1,0.4
		c0,0.1,0.1,0.1,0.1,0.2C47,37.2,47,37.4,46.9,37.6z"/>
</g>
<g>
	<path d="M46.2,37.8c-0.2,0-0.4-0.1-0.5-0.2c-1.8-2.5-1.8-5.8-1.8-8.6c0-0.6,0-1.3,0-1.9c0-1-0.1-2-0.3-2.9
		c-0.1-0.3,0.1-0.6,0.4-0.7c0.3-0.1,0.6,0.1,0.7,0.4c0.2,1,0.3,2,0.4,3.2c0,0.6,0,1.3,0,2c0,2.8-0.1,5.7,1.6,7.9
		c0.2,0.3,0.1,0.6-0.1,0.8C46.5,37.7,46.3,37.8,46.2,37.8z"/>
</g>
<g>
	<path d="M44.2,24.5c-0.3,0-0.5-0.2-0.6-0.5c-0.1-0.6-0.3-1.3-0.6-1.9c-0.1-0.3,0-0.6,0.3-0.7c0.3-0.1,0.6,0,0.7,0.3
		c0.3,0.7,0.5,1.4,0.6,2.1c0.1,0.3-0.1,0.6-0.4,0.7C44.3,24.5,44.2,24.5,44.2,24.5z"/>
</g>
<g>
	<path d="M43.5,22.3c-0.2,0-0.4-0.1-0.5-0.4c-0.1-0.3-0.3-0.6-0.4-1c-0.4-1-0.9-2-1.1-3.1c-0.2-1-0.1-1.9,0.2-2.8
		c0.1-0.3,0.4-0.4,0.7-0.4c0.3,0.1,0.5,0.4,0.4,0.7c-0.4,2.1,0.3,3.7,1,5.6c0.1,0.2,0.2,0.4,0.2,0.6c0.1,0.3,0,0.6-0.3,0.7
		C43.7,22.3,43.6,22.3,43.5,22.3z"/>
</g>
<g>
	<path d="M43.6,22.5c-0.2,0-0.5-0.2-0.6-0.4c0,0,0-0.1-0.1-0.1l1.1-0.5l-0.5,0.2l0.5-0.2c0,0.1,0.1,0.2,0.1,0.2
		c0.1,0.3-0.1,0.6-0.4,0.7C43.7,22.5,43.7,22.5,43.6,22.5z"/>
</g>
<g>
	<path d="M44.2,24.5c-0.3,0-0.5-0.2-0.6-0.5c-0.1-0.6-0.3-1.2-0.5-1.8l0-0.1c-0.1-0.3,0-0.6,0.2-0.8c0.3-0.1,0.6-0.1,0.8,0.2
		c0,0.1,0.1,0.1,0.1,0.2c0.3,0.7,0.5,1.3,0.6,2c0.1,0.3-0.1,0.6-0.5,0.7C44.3,24.5,44.2,24.5,44.2,24.5z"/>
</g>
<g>
	<path d="M44.2,24.5c-0.3,0-0.6-0.3-0.6-0.6s0.3-0.6,0.6-0.6c0.3,0,0.6,0.3,0.6,0.6v0C44.8,24.3,44.5,24.5,44.2,24.5z"/>
</g>
<g>
	<path d="M32,34.7c-2.1,0-4.2-1.7-5.2-3.4c-2.9-5.2,2.1-11.1,4.5-14c1.6-1.9,3.5-3.5,5.9-5c0.3-0.2,0.6-0.4,1-0.7
		c1.5-1,3.3-2.3,5-1.9c0.3,0.1,0.5,0.4,0.4,0.7c-0.1,0.3-0.4,0.5-0.7,0.4c-1.2-0.3-2.8,0.8-4.1,1.7c-0.4,0.3-0.7,0.5-1,0.7
		c-2.2,1.4-4,2.9-5.6,4.7c-3.4,4-6.6,8.7-4.4,12.6c0.9,1.6,2.9,3,4.6,2.8c1.4-0.2,2.1-1.8,2.6-3.2c0.2-0.7,0.5-1.4,0.7-2.1
		c1.3-4,2.5-7.8,5.9-10.8c0.1-0.1,0.2-0.1,0.4-0.1c0.3,0,0.6,0.3,0.6,0.6c0,0.2-0.1,0.4-0.2,0.5c-3.1,2.8-4.3,6.4-5.5,10.2
		c-0.2,0.7-0.5,1.4-0.7,2.1c-0.6,1.7-1.5,3.7-3.5,4C32.5,34.7,32.2,34.7,32,34.7z"/>
</g>
<g>
	<path d="M65.1,16.5c-2.2,0-4.3-0.6-5.8-2.2c-0.2-0.2-0.2-0.6,0-0.8c0.2-0.2,0.6-0.2,0.8,0c2.4,2.5,6.6,2.1,9.5,1
		c0.8-0.3,1.5-0.7,2.2-1.1c3.2-2,5.3-6.3,3.3-9.9c-0.6-1.1-1.5-1.8-2.3-2c-0.6-0.1-1.2,0-1.7,0.4c-0.9,0.7-1.7,1.7-2.4,2.7
		c-0.3,0.5-0.7,0.9-1,1.3c-0.6,0.7-1.3,1.6-2.2,2.4c-2.8,2.7-5.3,3.2-7.6,1.7c-0.3-0.2-0.3-0.5-0.2-0.8C57.8,9,58.2,9,58.5,9.1
		c1.8,1.2,3.8,0.7,6.2-1.6c0.8-0.8,1.6-1.7,2.1-2.3c0.3-0.4,0.6-0.8,1-1.3c0.8-1.1,1.6-2.2,2.7-3c0.8-0.6,1.7-0.8,2.6-0.6
		c1.2,0.3,2.3,1.2,3.1,2.5c2.4,4.2-0.1,9.2-3.7,11.5c-0.7,0.5-1.6,0.9-2.4,1.2C68.5,16.1,66.8,16.5,65.1,16.5z"/>
</g>
<g>
	<path d="M42.5,12.7c-0.1,0-0.1,0-0.2,0c-0.3-0.1-0.5-0.4-0.4-0.7c0.2-0.6,0.4-1.2,0.7-1.8c1.6-3.3,4.7-5.6,8.5-6.4
		c2.3-0.5,4.8-0.6,7.1-0.2c2.5,0.4,4.1,1.6,5.8,3c0.3,0.3,0.7,0.5,1.1,0.8c0.3,0.2,0.3,0.6,0.1,0.8c-0.2,0.3-0.6,0.3-0.8,0.1
		C64,8,63.7,7.7,63.3,7.4c-1.6-1.3-3.1-2.4-5.2-2.7c-2.2-0.4-4.6-0.3-6.7,0.2c-3.5,0.8-6.3,2.9-7.7,5.8c-0.2,0.5-0.5,1-0.6,1.6
		C43,12.5,42.8,12.7,42.5,12.7z"/>
</g>
<g>
	<path d="M73.1,22.8c-0.3,0-0.5-0.2-0.6-0.5c-0.3-1.8-1.3-5-2.8-6.1c0,0-0.1-0.1-0.1-0.1c-0.3-0.2-0.4-0.5-0.2-0.8
		c0.2-0.3,0.5-0.4,0.8-0.2c0.1,0,0.1,0.1,0.2,0.1c1.9,1.4,2.9,5.1,3.2,6.9C73.7,22.4,73.5,22.7,73.1,22.8
		C73.1,22.8,73.1,22.8,73.1,22.8z"/>
</g>
<g>
	<path d="M60.2,68.4c-0.1,0-0.3,0-0.4-0.1c-0.2-0.2-0.3-0.6-0.1-0.8c2.1-2.4,3.5-5,4.3-7.7c0.6-2,0.8-4.2,1.1-6.3
		c0.2-1.4,0.3-2.8,0.6-4.1c0.7-3.6,2-6.9,3.4-10.2c0.5-1.2,1-2.4,1.5-3.7c0.6-1.6,1.1-3.1,1.4-4.5c0.1-0.3,0.4-0.5,0.7-0.4
		c0.3,0.1,0.5,0.4,0.4,0.7c-0.4,1.5-0.9,3-1.5,4.7c-0.5,1.2-1,2.5-1.5,3.7c-1.3,3.2-2.6,6.5-3.3,9.9c-0.2,1.3-0.4,2.7-0.6,4.1
		c-0.3,2.1-0.5,4.3-1.1,6.4c-0.8,2.9-2.3,5.6-4.5,8.2C60.6,68.4,60.4,68.4,60.2,68.4z"/>
</g>
<g>
	<path d="M57.1,99.7c-0.7,0-1.6-0.2-2.7-0.7c-2.5-1.1-4.5-3.5-6.1-5.6c-1.9-2.6-3.4-5.2-4.4-7.9c-0.7-2.1-0.9-4.1-1-6.1
		c-0.1-1.2-0.1-2.4-0.3-3.6c-0.1-0.3,0.2-0.6,0.5-0.7c0.3-0.1,0.6,0.2,0.7,0.5c0.2,1.3,0.3,2.5,0.3,3.7c0.1,2,0.2,3.9,0.9,5.8
		c0.9,2.6,2.4,5.1,4.2,7.6c1.5,2,3.4,4.3,5.7,5.3c1.5,0.6,2.3,0.7,2.5,0.6c0.1-0.1,0.1-0.1,0.1-0.2c0-0.2-0.2-0.6-0.7-1.1
		c-0.5-0.5-1.1-1-1.6-1.5c-1.5-1.4-3-2.7-4.2-4.5c-1.6-2.2-2.8-4.7-3.6-7.5l-0.1-0.5c-0.7-2.3-1.8-6.2,0-8c0.6-0.6,1.5-0.7,2.3-0.9
		c0.3,0,0.5-0.1,0.8-0.2c0.4-0.1,0.8-0.3,1.2-0.4c0.8-0.3,1.6-0.7,2.5-1.3c0.3-0.2,0.6-0.1,0.8,0.2c0.2,0.3,0.1,0.6-0.2,0.8
		c-0.9,0.6-1.8,1-2.6,1.3c-0.4,0.2-0.9,0.3-1.3,0.5c-0.3,0.1-0.6,0.1-0.9,0.2c-0.6,0.1-1.3,0.2-1.7,0.6c-1.4,1.3-0.3,5,0.3,6.8
		l0.2,0.5c0.8,2.7,1.9,5,3.4,7.1c1.2,1.7,2.6,3,4.1,4.3c0.5,0.5,1.1,1,1.6,1.6c0.8,0.8,1.1,1.4,1.1,2.1c0,0.3-0.2,0.7-0.7,1
		C57.8,99.6,57.5,99.7,57.1,99.7z"/>
</g>
<g>
	<path d="M57.6,88.6c-0.6,0-1.2-0.2-1.7-0.5c-1.6-1.1-2.6-3.6-2.6-5.3c0-0.6,0-1.2,0.1-1.8c0.1-2.3,0.3-4.7-1.7-5.8
		c-0.3-0.2-0.4-0.5-0.2-0.8c0.2-0.3,0.5-0.4,0.8-0.2c2.6,1.5,2.4,4.5,2.3,6.9c0,0.6-0.1,1.2-0.1,1.7c0,1.4,0.9,3.6,2.1,4.4
		c0.6,0.4,1.2,0.4,1.8,0.2c1.4-0.6,1.6-2.6,1.2-3.8c-0.1-0.4-0.4-0.8-0.6-1.1c-0.3-0.4-0.5-0.8-0.7-1.3c-0.4-1,0-2,0.2-2.9l0-0.1
		c0.2-0.7,0.5-1.4,0.9-2.2c1.1-2.6,2.2-5.3,0.5-7.6c-0.2-0.3-0.1-0.6,0.1-0.8c0.3-0.2,0.6-0.1,0.8,0.1c2.1,2.8,0.8,5.9-0.4,8.7
		c-0.3,0.7-0.6,1.4-0.8,2.1l0,0.1c-0.2,0.7-0.5,1.5-0.3,2.1c0.1,0.3,0.3,0.6,0.6,1c0.3,0.4,0.6,0.9,0.8,1.5c0.5,1.7,0.2,4.4-1.9,5.2
		C58.3,88.5,57.9,88.6,57.6,88.6z"/>
</g>
<g>
	<path d="M36.5,87.3c-1.1,0-2-0.6-2.6-1.6c-0.7-1.4-0.1-2.4,0.5-3.3c0.3-0.4,0.5-0.8,0.6-1.2c0.2-0.7-0.2-1.6-0.6-2.4
		c-0.2-0.4-0.4-0.8-0.5-1.2c-1.4-3.9-1.2-7.6,0.5-10.2c0.2-0.3,0.5-0.3,0.8-0.2c0.3,0.2,0.4,0.5,0.2,0.8c-2,3.2-1.1,7.1-0.4,9.2
		c0.1,0.3,0.3,0.7,0.5,1.1c0.5,1,1,2.1,0.7,3.2c-0.2,0.6-0.5,1-0.8,1.5c-0.6,0.9-0.9,1.4-0.5,2.1c0.4,0.7,1,1.1,1.7,1
		c1.2-0.1,2.6-1.2,3-2.4c0.4-1.1,0.2-2.3,0-3.5c-0.1-0.5-0.2-1.1-0.2-1.6c-0.1-1.3,0.3-2.3,0.8-3.3c0.1-0.3,0.2-0.5,0.3-0.8l0.1-0.1
		c0.1-0.3,0.5-0.4,0.8-0.3c0.3,0.1,0.4,0.5,0.3,0.8l-0.5-0.3l0.5,0.3c0,0,0,0.1,0,0.1c-0.1,0.3-0.2,0.5-0.3,0.8
		c-0.4,0.9-0.8,1.7-0.7,2.8c0,0.5,0.1,1,0.2,1.5c0.2,1.3,0.4,2.6,0,4c-0.5,1.6-2.3,3.1-4,3.2C36.7,87.3,36.6,87.3,36.5,87.3z"/>
</g>
</svg>
