<?xml version="1.0" encoding="utf-8"?>
<!-- Generator: Adobe Illustrator 21.1.0, SVG Export Plug-In . SVG Version: 6.00 Build 0)  -->
<svg version="1.1" id="Layer_1" xmlns="http://www.w3.org/2000/svg" xmlns:xlink="http://www.w3.org/1999/xlink" x="0px" y="0px"
	 viewBox="0 0 100 100" style="enable-background:new 0 0 100 100;" xml:space="preserve">
<style type="text/css">
	.st0{fill:#EA9A65;}
</style>
<g>
	<path class="st0" d="M58,94.6c0.4,0.6,1,1,1.6,1.4c0.3,0.2,0.6,0.3,0.9,0.3l0,0.1c-2,0.2-4,0.3-6,0.4c-6.7,0.4-13.3,0.3-20-0.4
		c-5.2-0.5-10.5-1.3-15.6-2.5c2.1,0.1,3.7-0.5,3.5-2.3c-0.1-0.9-0.4-1.4-0.5-1.9c4.7-24.2,21.2-46.8,41.4-57.8l-0.1-0.1
		C75.1,25.4,62.1,0.4,50.4,9c-1.3-4.9,4.8-7.3,8.6-7.6c5.9-0.5,10.2,3.9,12.5,9c1.2,2.7,1.6,5.4,2.1,8.3c0.6,3.8,2,5.5,5.1,7.7
		c5.6,3.9,8.9,10.2,10.4,16.8c0.4,1.9,0.7,3.9,0.8,5.8c0.1,1.5-0.3,3.4,0.3,4.9c0.5,1.4,1.7,2.3,2.5,3.4c1.1,1.5,1.8,3.3,2.3,5.1
		c0.8,3.1,0.7,6.1,1.2,9.2c0.4,2.3,3.8,5.6,1.4,7.4c-2.2,1.7-5.6-0.2-7.3-1.8c-2.1-2.1-2.7-5.3-3.8-8c-1.9-5-6.1-10.5-12.3-9
		c-5.7,1.4-10.2,9.1-12.6,14c-1.5,3-2.5,6.2-3.1,9.4c-0.6,1.8-0.9,4.3-0.6,5.8c0,0,0,0,0,0c-0.1,1.1-0.1,2.1,0,3.2
		c-0.2,0.2-0.3,0.5-0.3,0.9C57.6,93.8,57.7,94.2,58,94.6C58,94.5,58,94.5,58,94.6z"/>
</g>
<g>
	<path d="M76.4,84.9c2.3,1.9,1.3,4.1-0.6,5.9c-1.1,1-2.4,1.9-3.7,2.6c-1.9,1-3.4,0.9-5.4,1.1c-1.1,0.1-2.3,0.3-3.3,0.7
		c-0.8,0.3-1.9,1-2.8,1c-0.3,0-0.6-0.1-0.9-0.3c-0.6-0.4-1.2-0.8-1.6-1.4c0,0,0,0,0,0c0-0.7-0.1-1.4-0.1-2.1
		c0.3-0.4,0.6-0.7,0.7-1.2c0-0.6-0.5-1.4-0.6-2c0,0,0,0,0,0c0.1-1.9,0.3-3.9,0.6-5.8c0.2-0.5,0.4-1,0.7-1.3c1.2-1.6,2-1.1,3.7-0.8
		c1.7,0.3,2.4-0.1,4-0.2c1.7,0,3.4,0.7,4.9,1.3C73.6,83.1,75,83.8,76.4,84.9z"/>
</g>
<g>
	<path d="M58.6,83.5c-0.3,1.9-0.5,3.8-0.6,5.8C57.7,87.8,57.9,85.2,58.6,83.5z"/>
</g>
<g>
	<path d="M57.9,92.4c0,0.7,0,1.4,0.1,2.1c-0.2-0.4-0.4-0.8-0.4-1.3C57.6,92.9,57.7,92.6,57.9,92.4z"/>
</g>
<g>
	<path d="M21.9,89.6c0.2,0.5,0.4,1,0.5,1.9c0.2,1.9-1.5,2.4-3.5,2.3c-1.3-0.3-2.6-0.6-3.9-1c-3.6-1-9.8-2.4-12.3-5.5
		c-1.6-1.9-1-3.8,0.3-5.4c0.7-0.4,1.4-0.7,2.1-1.1c1.6-1.1,3-2.3,5.1-2.7c2.2-0.5,4.4-0.4,6.6-0.6c1.7-0.2,3.5-0.6,5.3-0.5
		c3.2,0.1,2.3,1.8,1.6,3.9c-0.6,2-1,4.3-1.7,6.3C21.7,88.5,21.7,89,21.9,89.6z"/>
</g>
<g>
	<path d="M15.1,92.9c1.3,0.4,2.6,0.7,3.9,1c-2.4,0-5.3-0.9-6.2-1.2c-3.3-0.8-10.4-3.1-11.5-7c-0.6-2.1,0.5-2.9,1.8-3.6
		c-1.3,1.5-1.9,3.4-0.3,5.4C5.3,90.5,11.5,91.9,15.1,92.9z"/>
</g>
<g>
	<path d="M21.3,94.1c0,0-0.1,0-0.1,0c-0.5-0.1-0.9-0.6-0.8-1.1c0.2-1.3,0.4-2.5,0.6-3.6c4.7-24.2,21.1-47.1,41.8-58.5
		c0.5-0.3,1.1-0.1,1.3,0.4c0.3,0.5,0.1,1.1-0.4,1.3C43.6,43.7,27.5,66.1,22.9,89.8c-0.2,1.1-0.4,2.2-0.6,3.5
		C22.2,93.8,21.8,94.1,21.3,94.1z"/>
</g>
<g>
	<path d="M58,96.4c-0.5,0-0.9-0.4-1-0.9c0-0.3,0-0.6,0-0.9c0-0.5,0.4-1,0.9-1c0.5,0,1,0.4,1,0.9c0,0.3,0,0.5,0,0.8
		C59,95.9,58.6,96.3,58,96.4C58.1,96.4,58,96.4,58,96.4z"/>
</g>
<g>
	<path d="M58,95.5c-0.5,0-0.9-0.4-1-0.9c0-0.7-0.1-1.5-0.1-2.2c0-1.1,0-2.2,0-3.2c0.1-2,0.3-4,0.7-5.9c0.6-3.5,1.7-6.8,3.2-9.7
		C65,65.1,69.5,60.2,74,59.1c6.6-1.6,11.3,3.9,13.4,9.6c0.3,0.7,0.5,1.4,0.7,2.1c0.7,2.1,1.4,4.2,2.8,5.6c1.4,1.4,4.3,2.9,6,1.7
		c0.8-0.6,0.5-1.5-0.6-3.6c-0.5-1-1-1.9-1.2-2.9c-0.2-1.2-0.3-2.4-0.4-3.6c-0.2-1.9-0.3-3.7-0.8-5.5c-0.5-2-1.2-3.5-2.2-4.7
		c-0.3-0.3-0.5-0.7-0.8-1c-0.7-0.7-1.4-1.6-1.8-2.7c-0.4-1.1-0.4-2.4-0.3-3.6c0-0.6,0-1.1,0-1.5c-0.1-1.9-0.4-3.8-0.8-5.7
		c-1.6-7-5.1-12.8-10-16.2c-3.1-2.2-4.8-4-5.5-8.3l-0.1-0.3c-0.4-2.7-0.8-5.3-2-7.8c-0.9-2.1-4.5-9-11.5-8.4
		c-2.5,0.2-5.8,1.3-7.2,3.3c-0.4,0.5-0.6,1.1-0.7,1.7c2.7-1.4,5.7-1.4,8.5,0c5.1,2.5,9.1,9.4,9.2,15.7c0.1,4.3-1.8,7.7-5.2,9.5
		l-0.2,0.1c-0.5,0.2-1.1,0-1.3-0.4c-0.2-0.5,0-1.1,0.4-1.3l0.4,0.9l-0.4-0.9c0,0,0.1-0.1,0.1-0.1c3.5-1.8,4.2-5.3,4.1-7.8
		c-0.1-5.5-3.7-11.8-8.1-14c-2.7-1.3-5.4-1.1-7.9,0.7c-0.3,0.2-0.6,0.2-0.9,0.1c-0.3-0.1-0.5-0.4-0.6-0.7c-0.4-1.7-0.1-3.3,0.8-4.7
		C52.1,2,56,0.6,59,0.4c5.6-0.5,10.6,3.1,13.4,9.5c1.2,2.7,1.6,5.4,2.1,8.2l0.1,0.3c0.6,3.6,1.9,5.1,4.7,7
		c5.2,3.7,9.1,9.8,10.8,17.4c0.5,2,0.7,4,0.9,6c0,0.6,0,1.2,0,1.7c0,1-0.1,2.1,0.2,2.9c0.3,0.7,0.8,1.4,1.4,2c0.3,0.4,0.7,0.7,1,1.1
		c1.1,1.4,1.9,3.2,2.5,5.4c0.5,2,0.7,3.9,0.9,5.8c0.1,1.1,0.2,2.3,0.4,3.5c0.1,0.6,0.5,1.5,1,2.3c1,1.8,2.3,4.3,0,6
		c-2.7,2.1-6.7-0.1-8.5-1.9c-1.8-1.8-2.6-4.1-3.3-6.4c-0.2-0.7-0.4-1.3-0.7-2c-1.9-4.9-5.8-9.7-11.2-8.4c-4,1-8,5.5-12,13.5
		c-1.4,2.8-2.4,5.9-3,9.2c-0.3,1.8-0.5,3.7-0.6,5.6c-0.1,1-0.1,2,0,3.1c0,0.7,0,1.4,0.1,2.1C59,95,58.5,95.5,58,95.5
		C58,95.5,58,95.5,58,95.5z"/>
</g>
<g>
	<path d="M47.2,98c-4.2,0-8.5-0.2-12.8-0.7c-5.8-0.6-10.9-1.4-15.7-2.6c-1.3-0.3-2.6-0.6-3.9-1l-1.2-0.3C9.8,92.4,4.5,91,2,88
		c-1.7-2.1-1.6-4.4,0.3-6.6c1.8-2.1,4.5-3.3,5.2-3.6c5.3-2.3,11.1-2.1,17.1-1.7c0.5,0,0.9,0.5,0.9,1c0,0.5-0.5,0.9-1,0.9
		c-5.9-0.4-11.2-0.6-16.2,1.5c-1.4,0.6-3.3,1.7-4.5,3.1c-1.7,1.9-1,3.3-0.3,4.1c2.1,2.6,7.3,4,10.7,4.9l1.2,0.3
		c1.3,0.4,2.6,0.7,3.8,1c4.7,1.1,9.8,1.9,15.5,2.5c6.7,0.7,13.4,0.8,19.8,0.4l1-0.1c1.6-0.1,3.3-0.2,4.9-0.4
		c4.8-0.4,8.5-1.2,11.5-2.3c2.5-0.9,5.3-3.1,5.6-5.3c0.2-1.1-0.3-2.1-1.4-3.1c-3.2-2.7-8.4-2.9-13-3.1c-1.1,0-2.1-0.1-3-0.1
		c-0.5,0-0.9-0.5-0.9-1c0-0.5,0.5-0.9,1-0.9c0.9,0.1,1.9,0.1,3,0.1c4.9,0.2,10.5,0.3,14.2,3.5c2.1,1.8,2.3,3.7,2,4.9
		c-0.5,2.9-3.9,5.6-6.9,6.7c-3.2,1.2-7,1.9-12,2.4c-1.7,0.2-3.4,0.3-5,0.4l-1,0.1C52.2,97.9,49.7,98,47.2,98z"/>
</g>
</svg>
