<?xml version="1.0" encoding="utf-8"?>
<!-- Generator: Adobe Illustrator 21.1.0, SVG Export Plug-In . SVG Version: 6.00 Build 0)  -->
<svg version="1.1" id="Layer_1" xmlns="http://www.w3.org/2000/svg" xmlns:xlink="http://www.w3.org/1999/xlink" x="0px" y="0px"
	 viewBox="0 0 100 100" style="enable-background:new 0 0 100 100;" xml:space="preserve">
<style type="text/css">
	.st0{fill:#6AB3E3;}
	.st1{fill:#EA9A65;}
</style>
<g>
	<path class="st0" d="M98.9,84.2c0.1,1.2-0.4,1.8-1.5,2.4c-2.9,1.7-6.7,1.9-10,2.2c-4.2,0.3-8.5,0.3-12.7-0.1
		c-2.4-0.2-6.6-0.4-8.5-2.3c-0.9-1-0.5-2.2-0.2-3.5c0.6-2.4,1.3-4.8,2.2-7.2l0.3-0.2c1.4,2.3,5.5,2.7,7.7,2.9
		c3.9,0.4,8,0.5,11.9-0.1c1.3-0.2,8.4-1.8,8.2-4.3h0C97.3,77.3,98.6,80.9,98.9,84.2z"/>
</g>
<g>
	<path class="st1" d="M90.2,75.4L90.2,75.4c0.4,1,1,1.9,1.7,1.5c0.8,0.7,2.4-1.2,3-1.6c0.7-0.5,1.8-1.4,0.8-2.2l0,0
		c0,0,0.1,0.1,0.1,0.1c0.1,0.1,0.2,0.2,0.3,0.3c0.1,0.2,0.2,0.5,0.2,0.7c0.2,2.4-6.9,4.1-8.2,4.3c-3.9,0.6-8,0.5-11.9,0.1
		c-2.3-0.3-6.3-0.7-7.7-2.9c-0.1-0.2-0.3-0.5-0.3-0.8l-0.5-0.2c-1,2.3-2.2,4.5-3.7,6.6c-1.3,1.8-3,3.8-5.2,4.4
		c-2.1,0.6-4.5-0.5-5.3-2.5c-1.4-3.7,3.5-7.4,5.7-9.6c0.4-0.4,0.9-0.9,1.3-1.3c1.3-1.4,2.5-3,3.6-4.6l-0.9-0.4
		c-1.9-0.8-3.9-1.6-5.8-2.4c-6.4-2.7-12.6-5.6-18.7-8.9c-1.4-0.8-2.9-1.6-4.3-2.4c-1.2-0.7-2.3-1.3-3.5-2c-3-1.8-5.9-3.8-8.4-6
		l-0.1,0.1c-0.1,2.6-1.1,4.6,1.4,6.3c0.8,0.5,1.5,0.9,1.7,2c0.2,1.3-0.7,2.4-2,2.7c-2.5,0.5-5.2-1.9-6.8-3.5
		c-1.8-1.7-3.1-3.8-4.1-6.1c-2.1-4.7-2.8-10.1-1.9-15.1c0.2-1.2,0.6-2.4,1.1-3.5c0.6-1.3,2.1-2.6,2.3-4c0.4-2.1-1.1-4.1-2.8-5.2
		C9,17.7,6.3,17.5,4.3,16c-2.3-1.7-3.6-4.4-3-7.3c1.5,2.2,3.7,3.7,6.2,4.6c2.4,0.9,4.9,1.1,7.1,2.5c0.9,0.6,1.8,1.4,2.5,2.3
		c0.8,0.9,1.4,2.3,2.2,3.1c0.8,0.7,0.1,0.4,1,0.4c0.3,0,0.7-0.1,1.1-0.2c0.7-0.1,1.5-0.2,2.2-0.2c1.6-0.1,3.2,0,4.8,0.1
		c12.2,1.2,19.7,11,27.5,19.3c4.9,5.3,10.5,9.4,16.9,12.9l0.3-0.1c3.1-1.2,7.4-2.1,10.2,0.5c2.2,2.1,3,5.4,3.5,8.4
		c0.1,0.7,0.2,1.3,0.3,1.9C87.7,67.9,88.7,71.7,90.2,75.4z M79,77.3C79,77.3,79,77.3,79,77.3c-0.1-0.1-0.2-0.1-0.3-0.2c0,0,0,0,0,0
		c-1.5-1.1-2.8-2.4-3.9-3.9c0-0.1,0-0.1,0-0.2c-0.1-0.1-0.2-0.2-0.3-0.3c-0.1-0.1-0.2-0.1-0.3-0.2c-1.2-1-4.2-0.2-5.4,1.1
		c-0.8,0.9-0.4,1.4,0.4,2.2c1,1,2,1,3.3,1.4c0.3,0.1,0.7,0.1,1,0.2c0.6,0.2,1.1,0.5,1.7,0.6c0.1-0.1,0.3-0.2,0.4-0.3
		c0.2,0.2,0.5,0.2,0.8,0.1c0.1,0,0.2,0,0.3,0c0.7,0.1,1.4,0.4,2.1,0.5C79.6,78.6,79.3,77.7,79,77.3C79,77.4,79,77.3,79,77.3z
		 M78.1,67.4c1.2,0,1.4-1.5,0.6-2.1c-1.6-1.4-3,1.5-1,2.1C77.8,67.4,77.9,67.4,78.1,67.4z"/>
</g>
<g>
	<path class="st1" d="M95.7,73.1L95.7,73.1c-0.1,0-0.1-0.1-0.2-0.1c-0.6-0.4-0.9,0-1.4,0c-0.3,0-0.7-0.1-1.2-0.2
		c-0.5-0.1-2.2-0.5-2.7-0.1c-0.5,0.4-0.4,1.6-0.1,2.7l0,0c-1.5-3.6-2.5-7.5-3.1-11.4c-0.1-0.6-0.2-1.3-0.3-1.9l0.1,0
		c1.4,4.8,6.2,7.2,9,11l-0.1,0.1C95.8,73.1,95.8,73.1,95.7,73.1z"/>
</g>
<g>
	<path d="M95.7,73.1c1,0.8,0,1.7-0.8,2.2c-0.6,0.4-2.2,2.3-3,1.6c-0.7,0.3-1.3-0.5-1.7-1.5c-0.4-1-0.4-2.3,0.1-2.7
		c0.5-0.4,2.2,0,2.7,0.1c0.5,0.1,0.8,0.2,1.2,0.2c0.5,0,0.8-0.4,1.4,0C95.6,73,95.7,73,95.7,73.1z"/>
</g>
<g>
	<path d="M79.1,77.4c0.2,0.4,0.5,1.2-0.3,1.1c-0.7-0.1-1.4-0.4-2.1-0.5c-0.1,0-0.2,0-0.3,0c-0.3,0.1-0.5,0-0.8-0.1
		c-0.1,0.1-0.2,0.2-0.4,0.3c-0.6-0.1-1.1-0.5-1.7-0.6c-0.3-0.1-0.7-0.1-1-0.2C71.3,77,70.2,77,69.2,76c-0.8-0.8-1.2-1.3-0.4-2.2
		c1.2-1.3,4.1-2.1,5.4-1.1c0.1,0.1,0.2,0.1,0.3,0.2c0.1,0.1,0.2,0.3,0.3,0.4c0,0.3,0,0.7,0,0.7c0.1,0.1,0.6,0.4,0.6,0.4
		c0.6,0.8,1.2,1.6,1.9,2.2c0.3,0.2,0.9,0.4,1.4,0.7c0,0,0,0,0,0c0.1,0,0.1,0.1,0.2,0.1C79,77.3,79,77.3,79.1,77.4
		C79,77.3,79,77.4,79.1,77.4z"/>
</g>
<g>
	<path d="M78.9,77.3c-0.1,0-0.1-0.1-0.2-0.1C78.8,77.2,78.9,77.2,78.9,77.3z"/>
</g>
<g>
	<path d="M78.1,67.4c-0.1,0-0.3,0-0.4,0c-2-0.5-0.6-3.4,1-2.1C79.5,66,79.3,67.4,78.1,67.4z"/>
</g>
<g>
	<path d="M74.8,73.1c0,0,0,0.1,0,0.2c-0.1-0.1-0.2-0.3-0.3-0.4C74.6,72.9,74.7,73,74.8,73.1z"/>
</g>
<g>
	<path class="st1" d="M63.1,67.1l0.9,0.4c-1.1,1.6-2.3,3.1-3.6,4.6c-1.3-2.3-2.4-4.8-3.2-7.4l0,0C59.3,65.6,61.2,66.4,63.1,67.1z"/>
</g>
<g>
	<path class="st1" d="M34.3,53.5L34.3,53.5c-1.6,2.2-3.9,0.5-3.6-1.8l0.1-0.2C32,52.1,33.2,52.8,34.3,53.5z"/>
</g>
<g>
	<path d="M32.7,55.1c-0.3,0-0.5,0-0.8-0.1c-1.2-0.4-2-1.9-1.8-3.4c0-0.3,0.3-0.6,0.7-0.6c0.3,0,0.6,0.3,0.6,0.7
		c-0.1,1.1,0.4,1.9,1,2.1c0.5,0.2,1-0.1,1.5-0.7c0.2-0.3,0.6-0.3,0.9-0.1c0.3,0.2,0.3,0.6,0.1,0.9C34.2,54.7,33.5,55.1,32.7,55.1z"
		/>
</g>
<g>
	<path d="M63.1,67.7c-0.1,0-0.2,0-0.2,0c-1.9-0.8-3.9-1.6-5.8-2.4c-7.4-3.1-13.4-6-18.8-8.9l-0.3-0.2c-1.3-0.7-2.7-1.5-4-2.2
		c-1.2-0.7-2.4-1.3-3.5-2c-3.4-2.1-6.2-4.1-8.5-6.1c-1.5-1.3-2.8-2.6-4-4c-0.2-0.3-0.2-0.6,0.1-0.9c0.3-0.2,0.6-0.2,0.9,0.1
		c1.1,1.3,2.4,2.6,3.8,3.9c2.3,1.9,5,3.9,8.4,5.9c1.1,0.7,2.3,1.4,3.5,2c1.4,0.8,2.7,1.5,4,2.2l0.3,0.2c5.4,2.9,11.3,5.7,18.7,8.9
		c1.9,0.8,3.8,1.6,5.8,2.4c0.3,0.1,0.5,0.5,0.3,0.8C63.6,67.6,63.4,67.7,63.1,67.7z"/>
</g>
<g>
	<path d="M22.7,57.2c-2.4,0-4.9-2.1-6.5-3.7c-1.7-1.7-3.1-3.8-4.3-6.3C9.7,42.3,9,36.8,10,31.7c0.3-1.4,0.6-2.6,1.1-3.7
		c0.3-0.6,0.7-1.2,1.1-1.7c0.5-0.7,1.1-1.5,1.2-2.1c0.4-1.9-1.1-3.6-2.5-4.5c-1-0.6-2.1-1-3.2-1.5c-1.3-0.5-2.6-0.9-3.7-1.8
		C1.3,14.6,0,11.5,0.7,8.6c0.1-0.2,0.2-0.4,0.5-0.5C1.4,8,1.6,8.1,1.8,8.3c1.3,2,3.3,3.4,5.9,4.4c0.8,0.3,1.7,0.5,2.5,0.7
		c1.6,0.4,3.2,0.8,4.7,1.8c0.9,0.6,1.8,1.4,2.6,2.4c0.4,0.4,0.7,1,1,1.5c0.4,0.6,0.7,1.2,1.2,1.6c0.1,0.1,0.2,0.2,0.3,0.2
		c0.1,0,0.2,0,0.4,0c0.1,0,0.4,0,0.5-0.1c0.1,0,0.3-0.1,0.4-0.1c0.8-0.1,1.5-0.2,2.2-0.2c1.6-0.1,3.2,0,4.9,0.1
		c11,1.1,18.3,9,25.3,16.6c0.9,1,1.8,1.9,2.6,2.9c4.8,5.1,10.3,9.3,16.8,12.7c0.3,0.2,0.4,0.5,0.3,0.8c-0.2,0.3-0.5,0.4-0.8,0.3
		c-6.6-3.5-12.2-7.8-17.1-13c-0.9-0.9-1.8-1.9-2.6-2.9c-6.8-7.5-13.9-15.2-24.5-16.2c-1.6-0.2-3.2-0.2-4.7-0.1
		c-0.7,0-1.4,0.1-2.1,0.2c-0.1,0-0.2,0-0.3,0.1c-0.3,0.1-0.6,0.1-0.9,0.1c-0.2,0-0.3,0-0.3,0c-0.2,0.1-0.5,0.1-0.8-0.2
		c0-0.1-0.1-0.2-0.3-0.3c-0.6-0.5-1-1.2-1.4-1.9c-0.3-0.5-0.6-1-0.9-1.3c-0.8-0.9-1.6-1.6-2.4-2.1c-1.3-0.9-2.8-1.2-4.3-1.6
		c-0.9-0.2-1.8-0.5-2.6-0.8c-2.2-0.8-4.1-2-5.5-3.6c0.1,2,1.1,3.9,2.9,5.2c1,0.7,2.2,1.2,3.4,1.6c1.2,0.4,2.4,0.9,3.5,1.6
		c1.8,1.2,3.5,3.3,3,5.8c-0.2,1-0.8,1.8-1.4,2.6c-0.4,0.5-0.7,1-1,1.5c-0.4,1-0.8,2.1-1,3.4C10.3,36.8,10.9,42,13,46.7
		c1,2.3,2.4,4.3,4,5.9c0.9,0.9,3.8,3.8,6.2,3.3c0.9-0.2,1.7-0.9,1.5-2c-0.1-0.6-0.5-0.9-1.2-1.4l-0.3-0.2c-2.3-1.6-2-3.4-1.8-5.3
		c0.1-0.5,0.1-1,0.2-1.5c0-0.3,0.3-0.6,0.6-0.6c0.3,0,0.6,0.3,0.6,0.6c0,0.6-0.1,1.1-0.2,1.6c-0.2,1.8-0.4,3,1.3,4.2l0.3,0.2
		c0.7,0.5,1.5,1,1.7,2.2c0.3,1.6-0.8,3.1-2.5,3.4C23.2,57.2,23,57.2,22.7,57.2z"/>
</g>
<g>
	<path d="M57.7,86.3c-2,0-4-1.2-4.7-3.1c-1.4-3.5,2.3-6.9,4.7-9.2c0.4-0.4,0.8-0.7,1.1-1.1c0.5-0.5,0.9-0.9,1.2-1.3
		c1.2-1.3,2.3-2.8,3.5-4.5l0.6-0.9c1.7-2.5,3.1-5,2.9-7.7c0-0.3,0.2-0.6,0.6-0.7c0.3,0,0.6,0.2,0.7,0.6c0.3,3.1-1.3,5.8-3.1,8.5
		l-0.6,0.9c-1.2,1.8-2.4,3.3-3.6,4.6c-0.4,0.4-0.8,0.8-1.3,1.3c-0.3,0.3-0.7,0.7-1.2,1.1c-2.3,2.1-5.5,5.1-4.4,7.8
		c0.7,1.7,2.8,2.7,4.6,2.2c2.1-0.6,3.8-2.7,4.9-4.2c1.3-1.8,2.5-3.9,3.6-6.5c1.4-3.1,2.4-6.3,3.5-9.5l0.5-1.4
		c0.1-0.3,0.5-0.5,0.8-0.4c0.3,0.1,0.5,0.5,0.4,0.8l-0.5,1.4c-1.1,3.2-2.1,6.5-3.5,9.6c-1.2,2.6-2.4,4.8-3.7,6.7
		c-1.2,1.7-3,3.9-5.5,4.7C58.6,86.3,58.1,86.3,57.7,86.3z"/>
</g>
<g>
	<path d="M91,77.9c-0.2,0-0.5-0.1-0.6-0.4c-0.3-0.6-0.5-1.2-0.8-2c-1.5-3.7-2.5-7.5-3.2-11.5c-0.1-0.6-0.2-1.3-0.3-1.9
		c-0.5-2.9-1.3-6.1-3.4-8.1c-2-1.9-5.2-2-9.5-0.3c-0.3,0.1-0.7,0-0.8-0.4c-0.1-0.3,0-0.7,0.4-0.8c4.8-1.8,8.5-1.6,10.8,0.6
		c2.3,2.2,3.2,5.6,3.7,8.7c0.1,0.7,0.2,1.3,0.3,1.9c0.6,3.8,1.6,7.6,3.1,11.2c0.3,0.7,0.5,1.3,0.8,1.9c0.1,0.3,0,0.7-0.3,0.8
		C91.2,77.9,91.1,77.9,91,77.9z"/>
</g>
<g>
	<path d="M82.4,79.4c-1.9,0-4-0.1-6.2-0.4l-0.1,0c-2.4-0.3-6.5-0.7-8.1-3.2c-0.2-0.3-0.3-0.6-0.4-0.9c-0.1-0.3,0.1-0.7,0.4-0.8
		c0.3-0.1,0.7,0.1,0.8,0.4c0.1,0.2,0.2,0.4,0.3,0.6c1.2,2,5.1,2.4,7.2,2.7l0.1,0c4.4,0.5,8.4,0.5,11.7-0.1c2.3-0.4,7.8-2,7.7-3.6
		c0-0.1-0.1-0.3-0.1-0.4c0-0.1-0.1-0.2-0.2-0.2l-0.1-0.1c-0.6-0.5-2.1-1-6-0.7c-0.3,0-0.6-0.2-0.7-0.6c0-0.3,0.2-0.6,0.6-0.7
		c3.5-0.2,5.7,0.1,6.8,1c0.1,0,0.1,0.1,0.2,0.1c0.1,0.1,0.3,0.3,0.4,0.5c0.2,0.3,0.3,0.6,0.3,1c0.2,3.3-8.6,4.9-8.7,4.9
		C86.4,79.3,84.5,79.4,82.4,79.4z"/>
</g>
<g>
	<path d="M80.9,79.1c-0.1,0-0.2,0-0.3-0.1c-0.7-0.4-1.4-0.8-2-1.2c0,0-0.1,0-0.1-0.1c0,0-0.1-0.1-0.1-0.1c0,0,0,0,0,0l0,0
		c-1.5-1.1-2.9-2.5-4-4c-0.1-0.1-0.2-0.3-0.3-0.4c-0.3-0.5-0.6-1-0.9-1.5c-0.2-0.3-0.1-0.7,0.2-0.8c0.3-0.2,0.7-0.1,0.8,0.2
		c0.3,0.5,0.6,1,0.9,1.4c0.1,0.1,0.2,0.3,0.3,0.4c1.1,1.4,2.3,2.7,3.7,3.7c0,0,0,0,0.1,0c0,0,0.1,0.1,0.1,0.1l0.1,0.1
		c0.6,0.4,1.2,0.8,1.9,1.1c0.3,0.2,0.4,0.5,0.3,0.8C81.4,79,81.2,79.1,80.9,79.1z"/>
</g>
<g>
	<path d="M81.6,89.7c-2.4,0-4.7-0.1-7-0.3c-0.3,0-0.6-0.1-0.9-0.1c-2.6-0.2-6.2-0.5-8-2.4c-1.1-1.1-0.7-2.5-0.4-3.6
		c0-0.1,0.1-0.3,0.1-0.4c0.5-2.3,1.3-4.7,2.2-7.3c0.1-0.3,0.5-0.5,0.8-0.4c0.3,0.1,0.5,0.5,0.4,0.8c-0.9,2.5-1.6,4.9-2.2,7.1
		c0,0.1-0.1,0.3-0.1,0.4c-0.3,1.1-0.4,1.8,0.1,2.4c1.5,1.5,4.9,1.8,7.2,2c0.3,0,0.6,0.1,0.9,0.1c4.1,0.4,8.3,0.5,12.6,0.1l0.4,0
		c3.1-0.3,6.7-0.5,9.3-2.1c0.9-0.6,1.2-1,1.2-1.8c-0.2-2.7-1.1-5.5-2-8.3c-0.2-0.6-0.3-1.1-0.5-1.6c-0.1-0.3,0.1-0.7,0.4-0.8
		c0.3-0.1,0.7,0.1,0.8,0.4c0.2,0.5,0.3,1.1,0.5,1.6c0.8,2.7,1.8,5.8,2,8.6c0.1,1.6-0.8,2.4-1.8,3c-2.9,1.7-6.7,2-9.8,2.2l-0.4,0
		C85.5,89.6,83.6,89.7,81.6,89.7z"/>
</g>
<g>
	<path d="M95.9,73.7c-0.2,0-0.4-0.1-0.5-0.2c-1-1.3-2.3-2.5-3.5-3.7c-2.3-2.1-4.6-4.3-5.6-7.5c-0.1-0.3,0.1-0.7,0.4-0.8
		c0.3-0.1,0.7,0.1,0.8,0.4c0.9,2.9,3,4.9,5.3,7c1.3,1.2,2.6,2.4,3.7,3.8c0.2,0.3,0.2,0.7-0.1,0.9C96.1,73.7,96,73.7,95.9,73.7z"/>
</g>
<g>
	<path d="M60,72.5C60,72.4,60,72.4,60,72.5c-1.3-2.4-2.4-4.9-3.2-7.5c-0.1-0.3,0.1-0.7,0.4-0.8c0.3-0.1,0.7,0.1,0.8,0.4
		c0.8,2.5,1.8,4.9,3.1,7.2c0,0.1,0.1,0.2,0.1,0.3h-0.5l-0.1,0.1L60,72.5z"/>
</g>
</svg>
