<?xml version="1.0" standalone="no"?>
<!DOCTYPE svg PUBLIC "-//W3C//DTD SVG 1.1//EN" "http://www.w3.org/Graphics/SVG/1.1/DTD/svg11.dtd">
<!--Generator: Xara Designer (www.xara.com), SVG filter version: 6.0.0.4-->
<svg stroke-width="0.501" stroke-linejoin="bevel" fill-rule="evenodd" xmlns:xlink="http://www.w3.org/1999/xlink" xmlns="http://www.w3.org/2000/svg" version="1.1" overflow="visible" width="75pt" height="75pt" viewBox="0 0 75 75">
 <defs>
	</defs>
 <g id="Document" fill="none" stroke="black" font-family="Times New Roman" font-size="16" transform="scale(1 -1)">
  <g id="Spread" transform="translate(0 -75)">
   <g id="Layer 1">
    <path d="M 30.661,53.306 C 31.106,54.437 31.027,55.475 30.191,56.364" fill="none" stroke-linejoin="round" stroke-linecap="round" stroke-width="0.471" stroke-miterlimit="79.8403193612775"/>
    <path d="M 41.392,50.772 C 41.971,49.092 42.673,47.324 43.61,45.483" fill="none" stroke-linejoin="round" stroke-linecap="round" stroke-width="1.015" stroke="#000000" stroke-miterlimit="79.8403193612775"/>
    <path d="M 41.392,50.772 C 39.468,56.355 38.912,60.963 35.672,64.039 C 36.332,67.72 36.71,70.834 35.483,71.212 C 33.312,71.495 30.386,68.38 28.876,66.587 C 26.988,67.058 23.357,67.631 21.325,67.058 C 21.426,68.506 20.57,74.232 18.493,74.043 C 15.967,73.814 10.848,65.265 9.244,59.507 C 7.33,52.646 6.599,42.218 8.394,34.872 C 10.684,25.497 13.347,20.659 19.059,13.824 C 22.778,9.376 41.902,-3.072 45.771,2.969 C 47.361,5.452 42.459,7.795 40.958,10.425 C 42.872,10.911 44.571,11.683 46.02,12.661 C 46.885,11.26 52.086,7.393 54.078,6.65 C 60.586,4.224 67.718,4.973 70.878,12.597 C 72.484,16.466 70.029,24.867 66.82,23.923 C 63.156,22.846 68.519,18.921 66.253,14.39 C 65.403,12.691 63.799,11.37 61.912,10.898 C 57.639,9.83 51.711,13.004 49.83,16.278 C 50.947,17.943 51.521,19.873 51.689,21.78 C 52.822,20.743 59.006,15.33 61.345,17.883 C 65.498,22.412 51.238,35.105 49.169,37.42 C 46.666,40.222 45.105,42.763 43.803,45.323 C 45.479,43.829 49.84,42.864 50.586,46.004 C 51.648,50.483 44.417,52.057 41.392,50.772 Z" stroke-linejoin="round" stroke-linecap="round" fill="#ffebc3" stroke="#000000" stroke-width="1.015" marker-start="none" marker-end="none" stroke-miterlimit="79.8403193612775"/>
    <path d="M 49.73,16.345 C 48.792,14.948 47.543,13.69 46.02,12.661" fill="none" stroke-linejoin="round" stroke-linecap="round" stroke-width="1.015" stroke="#000000" stroke-miterlimit="79.8403193612775"/>
    <path d="M 18.965,39.686 C 18.868,44.384 22.488,49.434 28.121,48.842 C 31.708,48.464 35.011,43.556 31.33,41.668 C 29.174,40.563 27.818,42.069 27.46,41.857 C 26.73,41.424 26.328,38.648 26.8,37.798" fill="none" stroke-linejoin="round" stroke-linecap="round" stroke-width="1.015" stroke-miterlimit="79.8403193612775"/>
    <path d="M 27.443,42.101 C 26.37,42.717 26.468,42.89 25.666,43.556" fill="none" stroke-linejoin="round" stroke-linecap="round" stroke-width="1.015" stroke-miterlimit="79.8403193612775"/>
    <path d="M 19.767,59.224 C 20.783,59.224 21.608,58.315 21.608,57.195 C 21.608,56.075 20.783,55.166 19.767,55.166 C 18.751,55.166 17.926,56.075 17.926,57.195 C 17.926,58.315 18.751,59.224 19.767,59.224 Z" stroke-linejoin="round" stroke-linecap="round" stroke-width="1.015" fill="#000000" stroke="none" marker-start="none" marker-end="none" stroke-miterlimit="79.8403193612775"/>
    <path d="M 32.887,59.318 C 33.903,59.318 34.728,58.409 34.728,57.289 C 34.728,56.169 33.903,55.26 32.887,55.26 C 31.872,55.26 31.047,56.169 31.047,57.289 C 31.047,58.409 31.872,59.318 32.887,59.318 Z" stroke-linejoin="round" stroke-linecap="round" stroke-width="1.015" fill="#000000" stroke="none" marker-start="none" marker-end="none" stroke-miterlimit="79.8403193612775"/>
    <path d="M 27.365,56.298 C 28.303,56.298 29.064,55.854 29.064,55.307 C 29.064,54.76 28.303,54.316 27.365,54.316 C 26.427,54.316 25.666,54.76 25.666,55.307 C 25.666,55.854 26.427,56.298 27.365,56.298 Z" stroke-linejoin="round" stroke-linecap="round" stroke-width="1.015" fill="#000000" stroke="none" marker-start="none" marker-end="none" stroke-miterlimit="79.8403193612775"/>
    <path d="M 38.983,58.466 C 40.398,59.55 41.363,59.539 42.845,60.074" fill="none" stroke-linejoin="round" stroke-linecap="round" stroke-width="1.015" stroke-miterlimit="79.8403193612775"/>
    <path d="M 40.014,56.676 C 41.399,57.17 42.175,57.445 43.695,57.526" fill="none" stroke-linejoin="round" stroke-linecap="round" stroke-width="1.015" stroke-miterlimit="79.8403193612775"/>
    <path d="M 3.579,53.277 C 5.656,53.28 7.729,53.805 9.809,53.75" fill="none" stroke-linejoin="round" stroke-linecap="round" stroke-width="1.015" stroke-miterlimit="79.8403193612775"/>
    <path d="M 4.146,57.053 C 5.79,57.168 8.506,56.916 9.998,56.487" fill="none" stroke-linejoin="round" stroke-linecap="round" stroke-width="1.015" stroke-miterlimit="79.8403193612775"/>
    <path d="M 38.315,13.729 C 39.123,12.511 39.891,11.726 40.768,10.614" fill="none" stroke-linejoin="round" stroke-linecap="round" stroke-width="1.015" stroke-miterlimit="79.8403193612775"/>
    <path d="M 51.717,22.13 C 51.897,22.838 51.781,23.578 51.812,24.301" fill="none" stroke-linejoin="round" stroke-linecap="round" stroke-width="1.015" stroke-miterlimit="79.8403193612775"/>
   </g>
  </g>
 </g>
</svg>
