<?xml version="1.0" standalone="no"?>
<!DOCTYPE svg PUBLIC "-//W3C//DTD SVG 1.1//EN" "http://www.w3.org/Graphics/SVG/1.1/DTD/svg11.dtd">
<!--Generator: Xara Designer (www.xara.com), SVG filter version: 6.0.0.4-->
<svg stroke-width="0.501" stroke-linejoin="bevel" fill-rule="evenodd" xmlns:xlink="http://www.w3.org/1999/xlink" xmlns="http://www.w3.org/2000/svg" version="1.1" overflow="visible" width="75pt" height="75pt" viewBox="0 0 75 75">
 <defs>
	</defs>
 <g id="Document" fill="none" stroke="black" font-family="Times New Roman" font-size="16" transform="scale(1 -1)">
  <g id="Spread" transform="translate(0 -75)">
   <g id="Layer 1">
    <path d="M 25.169,26.286 C 26.354,20.292 28.638,15.241 31.608,11.336 C 32.089,10.295 32.855,5.77 33.311,4.454 C 34.125,2.095 34.995,0.662 37.973,0.827 C 40.637,0.975 40.859,3.343 39.897,4.454 C 39.341,5.094 39.021,7.327 39.453,8.006 C 40.437,7.731 41.103,7.519 42.339,7.192 C 42.447,5.095 43.111,2.515 44.93,1.493 C 46.113,0.827 49.324,1.18 48.851,3.196 C 48.586,4.332 47.659,5.429 47.52,6.823 C 49.666,6.823 53.871,8.388 55.809,10.67 C 59.139,14.593 58.69,19.203 57.733,23.03 C 57.511,23.912 56.314,29.903 55.513,30.282 C 54.106,30.948 52.848,27.144 52.182,26.656 C 52.021,26.755 51.239,27.256 51.171,27.421 C 47.96,31.68 50.341,37.613 50.11,41.383 C 49.666,48.637 46.272,53.781 41.896,56.333 C 39.759,57.58 38.087,57.405 35.754,58.062 C 33.902,58.882 31.134,61.866 30.72,63.882 C 29.845,68.143 32.735,69.788 35.309,70.247 C 37.828,70.695 41.311,68.634 41.673,65.954 C 42.043,63.216 41.461,61.231 42.709,60.182 C 43.274,59.706 44.226,60.025 44.781,60.255 C 45.67,60.625 46.227,62.475 46.113,64.696 C 45.966,67.583 44.717,70.581 42.413,72.097 C 39.11,74.269 35.748,75.152 30.572,72.763 C 24.979,70.182 24.762,62.769 28.13,59.22 C 28.477,58.854 30.161,57.482 30.223,57.272 C 28.346,56.717 26.564,55.94 25.317,55.149 C 20.012,51.781 17.685,46.761 18.583,40.348 C 18.721,39.361 19.767,34.057 17.916,33.169 C 15.995,32.587 16.88,25.398 20.062,25.028 C 20.747,24.949 22.209,25.102 22.505,26.138 C 22.869,27.412 22.064,28.522 23.171,30.06 C 24.57,30.001 24.929,27.504 25.169,26.286 Z" stroke-linejoin="round" stroke-linecap="round" stroke-width="0.8" fill="#fffa9e" marker-start="none" marker-end="none" stroke-miterlimit="79.8403193612775"/>
    <path d="M 34.273,23.326 C 34.506,25.149 37.745,33.148 40.274,32.287 C 41.097,32.006 42.127,27.85 42.387,27.045 C 45.763,27.045 49.404,26.961 52.108,26.284" fill="none" stroke-linejoin="round" stroke-linecap="round" stroke-width="0.8" stroke-miterlimit="79.8403193612775"/>
    <path d="M 36.197,10.004 C 37.146,9.224 38.639,8.599 39.823,8.006" fill="none" stroke-linejoin="round" stroke-linecap="round" stroke-width="0.8" stroke-miterlimit="79.8403193612775"/>
    <path d="M 42.192,7.192 C 44.022,6.839 46.145,6.63 48.038,6.823" fill="none" stroke-linejoin="round" stroke-linecap="round" stroke-width="0.8" stroke-miterlimit="79.8403193612775"/>
    <path d="M 23.023,29.913 C 25.243,30.727 28.722,32.724 27.612,37.091" fill="none" stroke-linejoin="round" stroke-linecap="round" stroke-width="0.8" stroke-miterlimit="79.8403193612775"/>
    <path d="M 39.567,19.926 C 40.324,19.926 40.939,19.326 40.939,18.588 C 40.939,17.85 40.324,17.251 39.567,17.251 C 38.81,17.251 38.195,17.85 38.195,18.588 C 38.195,19.326 38.81,19.926 39.567,19.926 Z" stroke-linejoin="round" stroke-linecap="round" stroke="none" stroke-width="0.401" fill="#000000" marker-start="none" marker-end="none" stroke-miterlimit="79.8403193612775"/>
    <path d="M 53.211,19.06 C 53.969,19.06 54.585,18.46 54.585,17.721 C 54.585,16.982 53.969,16.382 53.211,16.382 C 52.453,16.382 51.837,16.982 51.837,17.721 C 51.837,18.46 52.453,19.06 53.211,19.06 Z" stroke-linejoin="round" stroke-linecap="round" stroke="none" stroke-width="0.401" fill="#000000" marker-start="none" marker-end="none" stroke-miterlimit="79.8403193612775"/>
    <path d="M 43.838,16.07 C 43.875,14.591 46.642,14.948 46.728,16.933 C 46.901,14.991 48.833,14.418 49.317,15.94" fill="none" stroke-linejoin="round" stroke-linecap="round" stroke-width="0.8" stroke-miterlimit="79.8403193612775"/>
    <path d="M 45.446,14.974 C 45.037,13.73 45.224,11.642 46.34,11.325 C 48.157,10.806 47.759,14.194 47.85,14.991 C 47.415,14.952 46.85,15.509 46.707,15.843 C 46.579,15.596 45.864,15.059 45.478,15.063 C 45.466,15.035 45.456,15.004 45.446,14.974 Z" stroke-linejoin="round" stroke-linecap="round" stroke="none" stroke-width="0.401" fill="#000000" marker-start="none" marker-end="none" stroke-miterlimit="79.8403193612775"/>
    <path d="M 52.15,13.451 C 53.273,13.102 53.849,12.92 55.021,12.972" fill="none" stroke-linejoin="round" stroke-linecap="round" stroke-width="0.8" stroke-miterlimit="79.8403193612775"/>
    <path d="M 52.629,14.528 C 53.368,14.552 54.488,14.416 55.142,14.648" fill="none" stroke-linejoin="round" stroke-linecap="round" stroke-width="0.8" stroke-miterlimit="79.8403193612775"/>
    <path d="M 36.461,14.116 C 37.786,14.004 39.124,13.945 40.415,14.192" fill="none" stroke-linejoin="round" stroke-linecap="round" stroke-width="0.8" stroke-miterlimit="79.8403193612775"/>
    <path d="M 36.993,15.864 C 38.147,15.634 39.169,15.573 40.339,15.484" fill="none" stroke-linejoin="round" stroke-linecap="round" stroke-width="0.8" stroke-miterlimit="79.8403193612775"/>
    <path d="M 37.063,25.342 C 36.887,26.386 37.77,28.802 38.865,29.184 C 39.74,28.861 39.759,24.235 37.663,25.101 C 37.489,25.233 37.288,25.313 37.063,25.342 Z" stroke-linejoin="round" stroke-linecap="round" fill="#d1cd81" stroke="none" stroke-width="0.401" marker-start="none" marker-end="none" stroke-miterlimit="79.8403193612775"/>
    <path d="M 54.762,24.785 C 54.024,25.52 54.325,27.623 54.757,28.144 C 56.079,28.014 56.021,25.463 55.558,24.541 C 55.213,24.497 54.952,24.595 54.762,24.785 Z" stroke-linejoin="round" stroke-linecap="round" fill="#d1cd81" stroke="none" stroke-width="0.401" marker-start="none" marker-end="none" stroke-miterlimit="79.8403193612775"/>
   </g>
  </g>
 </g>
</svg>
