<?xml version="1.0" standalone="no"?>
<!DOCTYPE svg PUBLIC "-//W3C//DTD SVG 1.1//EN" "http://www.w3.org/Graphics/SVG/1.1/DTD/svg11.dtd">
<!--Generator: Xara Designer (www.xara.com), SVG filter version: 6.0.0.4-->
<svg stroke-width="0.501" stroke-linejoin="bevel" fill-rule="evenodd" xmlns:xlink="http://www.w3.org/1999/xlink" xmlns="http://www.w3.org/2000/svg" version="1.1" overflow="visible" width="75pt" height="75pt" viewBox="0 0 75 75">
 <defs>
	</defs>
 <g id="Document" fill="none" stroke="black" font-family="Times New Roman" font-size="16" transform="scale(1 -1)">
  <g id="Spread" transform="translate(0 -75)">
   <g id="Layer 1">
    <path d="M 43.561,21.319 C 42.453,21.319 41.306,21.032 40.84,21.966 C 40.052,23.539 42.162,24.927 43.288,25.056 C 43.286,25.438 44.013,26.89 43.87,27.755 C 41.828,26.094 38.517,23.593 35.709,22.432 C 32.803,21.231 29.704,20.566 26.146,20.275 C 24.416,20.132 22.4,20.258 20.549,20.507 C 19.265,20.68 17.013,21.432 16.759,21.383 C 11.635,20.321 8.782,21.147 5.856,21.499 C 5.085,21.592 3.636,21.196 2.94,21.266 C 1.755,21.385 0.816,22.605 1.199,23.614 C -1.957,27.203 8.748,26.794 10.738,26.794 C 10.46,26.98 10.2,27.453 10.112,27.854 C 10.027,28.239 10.578,28.263 10.87,28.847 C 11.631,30.367 10.753,33.16 9.121,33.744 C 8.362,33.977 7.896,34.385 8.013,35.61 C 8.013,36.776 8.637,36.867 9.237,37.067 C 9.936,37.301 10.414,37.588 11.22,38.175 C 11.403,38.392 12.317,39.655 12.852,40.158 C 13.678,40.934 14.558,41.301 15.409,41.468 C 15.88,42.397 16.516,46.126 17.638,45.871 C 18.13,45.761 19.24,44.355 19.441,43.014 C 20.222,44.325 21.111,45.886 21.774,45.696 C 22.998,45.347 24.572,41.79 24.513,39.4 C 27.505,40.152 31.337,44.306 33.492,46.57 C 37.135,50.399 42.803,51.954 48.244,51.177 C 50.285,50.886 51.993,50.125 53.55,49.02 C 55.492,47.64 57.048,45.58 58.273,43.655 C 60.209,40.613 63.42,33.88 67.136,33.219 C 67.986,33.068 69.293,32.753 70.459,33.802 C 71.14,34.414 71.177,35.538 72.209,35.784 C 73.592,36.115 74.676,34.731 74.308,33.394 C 73.434,30.233 69.119,28.327 66.086,29.137 C 63.292,29.883 60.606,32.46 59.031,35.026 C 58.713,35.545 56.354,39.934 56.116,40.099 C 56.817,38.784 56.932,31.761 54.6,27.971 C 53.531,26.234 52.213,24.388 50.693,23.015 C 48.885,21.383 46.497,20.153 44.513,20.741 C 44.078,20.87 43.77,21.073 43.561,21.319 Z" stroke-linejoin="round" stroke-linecap="round" stroke-width="0.676" fill="#15a2c5" marker-start="none" marker-end="none" stroke-miterlimit="79.8403193612775"/>
    <path d="M 68.373,32.737 L 68.697,32.722 C 69.334,32.76 70.031,32.962 70.684,33.55 C 71.474,34.259 71.433,35.251 72.287,35.455 C 73.363,35.712 74.298,34.631 73.982,33.483 C 73.574,32.011 72.344,30.813 70.854,30.079 L 69.951,29.72 L 69.717,29.831 C 68.87,30.397 68.429,31.407 68.365,32.454 L 68.373,32.737 Z" stroke-linejoin="round" stroke-linecap="round" stroke="none" fill="#74e3ff" stroke-width="0" marker-start="none" marker-end="none" stroke-miterlimit="79.8403193612775"/>
    <path d="M 20.594,20.841 C 20.001,20.921 19.18,21.132 18.44,21.331 L 17.839,21.491 L 17.938,21.571 C 18.036,21.653 18.118,21.726 18.181,21.787 C 18.813,22.404 19.733,22.605 20.764,22.668 C 22.287,22.762 24.051,22.554 25.489,22.938 C 29.254,23.942 32.5,25.454 35.638,27.809 C 36.562,28.503 41.422,32.696 41.559,32.749 C 41.9,32.368 41.899,32.301 42.201,31.869 C 43.147,30.512 44.721,29.949 45.57,29.18 C 45.214,28.9 44.855,28.571 44.496,28.207 L 44.169,27.85 L 43.989,28.07 C 43.882,28.11 43.756,28.098 43.656,28.017 C 41.614,26.355 38.337,23.884 35.579,22.744 C 32.713,21.559 29.649,20.9 26.118,20.611 C 24.421,20.471 22.431,20.594 20.594,20.841 Z" stroke-linejoin="round" stroke-linecap="round" stroke="none" fill="#74e3ff" stroke-width="0" marker-start="none" marker-end="none" stroke-miterlimit="79.8403193612775"/>
    <path d="M 19.913,39.73 C 20.288,40.602 20.7,41.803 21.26,42.29 C 21.748,42.029 22.025,41.124 22.173,40.598 C 23.131,37.208 19.879,38.696 19.737,39.346 C 19.795,39.463 19.854,39.592 19.913,39.73 Z" stroke-linejoin="round" stroke-linecap="round" fill="#74e3ff" stroke="none" stroke-width="0.339" marker-start="none" marker-end="none" stroke-miterlimit="79.8403193612775"/>
    <path d="M 43.87,27.755 C 45.007,28.679 45.75,29.343 45.796,29.371 C 46.539,29.034 46.835,28.507 46.845,27.388 C 46.85,26.837 46.612,25.348 46.029,24.881 C 45.169,24.876 43.759,24.505 43.405,23.598 C 43.136,22.91 43.011,21.966 43.561,21.319" fill="none" stroke-linejoin="round" stroke-linecap="round" stroke-width="0.676" stroke-miterlimit="79.8403193612775"/>
    <path d="M 16.059,28.322 C 14.894,26.805 13.086,26.339 11.453,26.105" fill="none" stroke-linejoin="round" stroke-linecap="round" stroke-width="0.676" stroke-miterlimit="79.8403193612775"/>
    <path d="M 11.453,26.105 C 7.38,25.523 5.48,25.624 2.766,24.764 C 1.913,24.495 1.447,24.053 1.264,23.573" fill="none" stroke-linejoin="round" stroke-linecap="round" stroke-width="0.676" stroke-miterlimit="79.8403193612775"/>
    <path d="M 41.189,34.793 C 41.772,30.945 44.73,29.616 45.912,29.312" fill="none" stroke-linejoin="round" stroke-linecap="round" stroke-width="0.676" stroke-miterlimit="79.8403193612775"/>
    <path d="M 16.817,21.383 C 17.549,21.47 20.781,22.14 22.007,24.007" fill="none" stroke-linejoin="round" stroke-linecap="round" stroke-width="0.676" stroke-miterlimit="79.8403193612775"/>
    <path d="M 12.094,36.25 C 13.305,37.042 15.872,35.549 15.943,34.094" fill="none" stroke-linejoin="round" stroke-linecap="round" stroke-width="0.676" stroke-miterlimit="79.8403193612775"/>
    <path d="M 4.659,35.958 C 5.751,35.651 6.633,35.263 7.797,35.106" fill="none" stroke-linejoin="round" stroke-linecap="round" stroke-width="0.676" stroke-miterlimit="79.8403193612775"/>
    <path d="M 5.035,37.416 C 5.689,37.236 7.102,36.611 7.681,36.265" fill="none" stroke-linejoin="round" stroke-linecap="round" stroke-width="0.676" stroke-miterlimit="79.8403193612775"/>
    <path d="M 18.449,41.615 C 18.333,41.333 17.84,40.488 17.633,40.274" fill="none" stroke-linejoin="round" stroke-linecap="round" stroke-width="0.676" stroke-miterlimit="79.8403193612775"/>
    <path d="M 24.573,39.49 C 24.644,38.954 24.658,38.478 24.862,37.968" fill="none" stroke-linejoin="round" stroke-linecap="round" stroke-width="0.676" stroke-miterlimit="79.8403193612775"/>
    <path d="M 8.333,34.018 C 8.554,33.559 9.264,33.034 9.47,32.753 C 10.873,30.843 10.382,28.949 9.987,28.204 C 10.128,28.212 10.218,28.27 10.257,28.379 C 10.49,28.738 11.09,29.186 11.162,29.604 C 11.803,33.374 8.832,33.389 8.246,34.327 C 8.242,34.245 8.275,34.138 8.333,34.018 Z" stroke-linejoin="round" stroke-linecap="round" stroke-width="0.676" fill="#000000" stroke="none" marker-start="none" marker-end="none" stroke-miterlimit="79.8403193612775"/>
    <path d="M 15.409,41.468 C 16.539,41.69 17.618,41.556 18.449,41.556 C 18.793,42.012 19.158,42.631 19.528,43.253" fill="none" stroke-linejoin="round" stroke-linecap="round" stroke-width="0.676" stroke-miterlimit="79.8403193612775"/>
    <path d="M 54.483,42.956 C 55.168,41.998 55.548,41.109 56.116,40.099" fill="none" stroke-linejoin="round" stroke-linecap="round" stroke-width="0.676" stroke-miterlimit="79.8403193612775"/>
   </g>
  </g>
 </g>
</svg>
