<?xml version="1.0" standalone="no"?>
<!DOCTYPE svg PUBLIC "-//W3C//DTD SVG 1.1//EN" "http://www.w3.org/Graphics/SVG/1.1/DTD/svg11.dtd">
<!--Generator: Xara Designer (www.xara.com), SVG filter version: 6.0.0.4-->
<svg stroke-width="0.501" stroke-linejoin="bevel" fill-rule="evenodd" xmlns:xlink="http://www.w3.org/1999/xlink" xmlns="http://www.w3.org/2000/svg" version="1.1" overflow="visible" width="75pt" height="75pt" viewBox="0 0 75 75">
 <defs>
	</defs>
 <g id="Document" fill="none" stroke="black" font-family="Times New Roman" font-size="16" transform="scale(1 -1)">
  <g id="Spread" transform="translate(0 -75)">
   <g id="Layer 1">
    <path d="M 63.335,62.105 C 60.503,63.648 56.945,64.546 54.681,65.224" fill="none" stroke-linejoin="round" stroke-linecap="round" stroke="#000000" stroke-width="1.043" stroke-miterlimit="79.8403193612775"/>
    <path d="M 40.439,15.175 C 40.365,13.318 38.122,11.188 38.025,9.737 C 39.185,9.06 40.728,7.841 40.636,6.352 C 40.443,3.264 33.578,3.356 31.16,3.839 C 30.742,3.579 30.988,3.681 29.226,2.776 C 22.265,-0.803 13.477,1.323 8.341,6.16 C 2.594,11.571 1.187,17.997 1.381,25.401 C 1.476,29.075 2.977,34.921 4.764,37.777 C 7.084,42.321 13.563,47.543 22.265,48.799 C 27.733,49.589 28.84,48.606 32.417,50.733 C 35.388,52.5 35.89,57.618 38.702,62.142 C 40.539,66.299 45.5,73.771 47.308,74.132 C 50.209,74.711 50.858,67.698 52.529,66.107 C 52.784,65.832 53.579,65.555 54.681,65.224 C 55.88,66.941 60.071,71.678 62.488,71.038 C 63.762,70.701 62.553,63.793 63.335,62.105 C 64.469,61.488 65.486,60.769 66.258,59.918 C 68.648,57.284 70.609,53.258 70.707,49.476 C 70.805,45.635 70.029,42.901 66.741,38.648 C 65.673,37.263 61.039,32.6 59.587,31.396 C 58.56,30.545 57.368,29.306 56,27.617 C 53.604,26.115 54.099,11.722 57.073,10.608 C 58.814,10.704 61.66,9.063 61.231,6.45 C 60.958,4.784 59.129,3.503 56.67,3.52 C 55.632,2.006 53.124,2.027 51.078,2.292 C 45.988,2.948 42.442,9.439 40.439,15.175 Z" stroke-linejoin="round" stroke-linecap="round" stroke="#000000" stroke-width="1.043" fill="#fffa9e" marker-start="none" marker-end="none" stroke-miterlimit="79.8403193612775"/>
    <path d="M 40.439,15.175 C 39.733,17.194 39.218,19.119 38.896,20.663" fill="none" stroke-linejoin="round" stroke-linecap="round" stroke="#000000" stroke-width="1.043" stroke-miterlimit="79.8403193612775"/>
    <path d="M 55.744,27.305 C 54.289,25.509 52.92,23.555 52.239,22.113 C 50.972,19.438 50.788,14.184 53.302,9.446 C 55.042,9.834 56.605,8.092 56.976,6.836 C 57.322,5.668 57.155,4.745 56.673,4.041" fill="none" stroke-linejoin="round" stroke-linecap="round" stroke="#000000" stroke-width="1.043" stroke-miterlimit="79.8403193612775"/>
    <path d="M 9.018,18.73 C 8.922,12.154 14.917,6.836 19.558,6.257 C 22.937,5.834 26.336,6.32 28.937,9.157 C 31.063,11.478 31.081,16.641 28.647,17.665 C 26.81,18.44 24.683,16.409 23.136,18.246 C 22.175,20.38 23.232,22.5 27.39,22.887 C 30.949,23.217 34.282,20.883 35.415,17.956 C 37.168,13.417 35.897,7.804 31.354,3.935" fill="none" stroke-linejoin="round" stroke-linecap="round" stroke="#000000" stroke-width="1.043" stroke-miterlimit="79.8403193612775"/>
    <path d="M 48.42,51.12 C 50.881,52.792 54.897,53.067 56.928,50.539" fill="none" stroke-linejoin="round" stroke-linecap="round" stroke="#000000" stroke-width="1.043" stroke-miterlimit="79.8403193612775"/>
    <path d="M 66.693,50.539 C 66.79,50.697 66.919,50.811 67.081,50.879 C 67.933,51.727 69.898,51.986 70.561,51.023" fill="none" stroke-linejoin="round" stroke-linecap="round" stroke="#000000" stroke-width="1.043" stroke-miterlimit="79.8403193612775"/>
    <path d="M 59.033,48.242 C 58.936,46.36 62.018,45.914 62.611,47.904 C 63.141,45.873 65.752,46.937 65.656,48.125" fill="none" stroke-linejoin="round" stroke-linecap="round" stroke="#000000" stroke-width="1.043" stroke-miterlimit="79.8403193612775"/>
    <path d="M 70.126,44.449 C 71.078,44.281 72.81,43.408 73.606,42.901" fill="none" stroke-linejoin="round" stroke-linecap="round" stroke="#000000" stroke-width="1.043" stroke-miterlimit="79.8403193612775"/>
    <path d="M 70.803,46.092 C 72.046,45.825 73.236,45.383 74.478,45.028" fill="none" stroke-linejoin="round" stroke-linecap="round" stroke="#000000" stroke-width="1.043" stroke-miterlimit="79.8403193612775"/>
    <path d="M 47.791,44.351 C 48.78,45.094 50.974,45.771 52.141,45.996" fill="none" stroke-linejoin="round" stroke-linecap="round" stroke="#000000" stroke-width="1.043" stroke-miterlimit="79.8403193612775"/>
    <path d="M 49.219,41.763 C 50.227,42.867 51.748,43.506 52.845,44.326" fill="none" stroke-linejoin="round" stroke-linecap="round" stroke="#000000" stroke-width="1.043" stroke-miterlimit="79.8403193612775"/>
    <path d="M 44.021,63.286 C 43.947,65.098 45.013,69.978 47.048,69.555 C 50.12,66.29 46.791,61.364 44.021,63.286 Z" stroke-linejoin="round" stroke-linecap="round" fill="#d1cd81" stroke="none" stroke-width="0.521" marker-start="none" marker-end="none" stroke-miterlimit="79.8403193612775"/>
    <path d="M 61.78,62.643 C 59.197,62.204 59.813,67.501 61.675,67.336 C 62.338,66.629 62.286,63.554 61.78,62.643 Z" stroke-linejoin="round" stroke-linecap="round" fill="#d1cd81" stroke="none" stroke-width="0.521" marker-start="none" marker-end="none" stroke-miterlimit="79.8403193612775"/>
   </g>
  </g>
 </g>
</svg>
