<?xml version="1.0" standalone="no"?>
<!DOCTYPE svg PUBLIC "-//W3C//DTD SVG 1.1//EN" "http://www.w3.org/Graphics/SVG/1.1/DTD/svg11.dtd">
<!--Generator: Xara Designer (www.xara.com), SVG filter version: 6.0.0.4-->
<svg stroke-width="0.501" stroke-linejoin="bevel" fill-rule="evenodd" xmlns:xlink="http://www.w3.org/1999/xlink" xmlns="http://www.w3.org/2000/svg" version="1.1" overflow="visible" width="75pt" height="75pt" viewBox="0 0 75 75">
 <defs>
	</defs>
 <g id="Document" fill="none" stroke="black" font-family="Times New Roman" font-size="16" transform="scale(1 -1)">
  <g id="Spread" transform="translate(0 -75)">
   <g id="Layer 1">
    <path d="M 48.217,45.368 C 46.966,48.683 45.877,53.315 49.733,55.227 C 52.863,56.779 55.159,54.527 54.807,52.252 C 54.622,51.047 53.232,49.725 52.772,48.82 C 54.513,45.519 56.607,46.428 58.177,44.467 C 57.181,47.903 57.714,53.484 60.32,57.021 C 62.88,60.495 68.306,60.428 71.473,58.726 C 74.404,57.152 74.609,53.938 74.535,51.728 C 74.44,48.885 71.08,48.759 70.861,50.371 C 70.754,51.153 70.965,52.637 70.38,53.52 C 69.785,54.423 68.704,55.245 67.624,55.227 C 66.406,55.206 65.201,54.244 64.583,53.195 C 63.157,50.774 63.565,47.587 63.884,44.794 C 64.359,40.627 66.528,36.824 67.731,32.81 C 68.892,28.938 69.354,25.407 68.274,21.946 C 67.098,18.174 64.444,14.577 61.056,12.542 C 56.148,9.594 49.804,9.107 44.111,9.716 C 37.279,10.445 30.743,13.627 24.954,17.326 C 18.888,21.204 11.318,29.753 9.294,32.198 C 6.71,35.321 4.15,40.668 2.646,44.883 C 1.816,47.21 0.021,51.971 1.071,52.669 C 3.342,54.184 6.543,49.842 8.681,49.608 C 8.849,50.086 13.605,54.789 18.677,58.026 C 18.493,59.852 16.859,64.387 18.329,64.499 C 20.733,64.686 29.628,57.202 34.375,53.001 C 34.999,52.451 35.66,51.93 36.355,51.435 C 35.611,57.556 43.326,59.921 43.762,53.98 C 43.883,52.335 42.444,50.768 41.05,50.745 C 41.084,50.117 41.154,49.1 40.933,48.683 C 43.266,47.476 45.753,46.408 48.217,45.368 Z" stroke-linejoin="round" stroke-linecap="round" stroke-width="0.91" fill="#95a5b6" marker-start="none" marker-end="none" stroke-miterlimit="79.8403193612775"/>
    <path d="M 48.92,45.337 L 48.637,45.542 L 47.826,48.141 C 47.615,49.041 47.489,49.95 47.514,50.81 C 47.564,52.499 48.194,53.956 49.935,54.819 C 52.743,56.212 54.65,54.219 54.357,52.321 C 54.195,51.266 52.852,49.981 52.366,49.026 C 52.299,48.894 52.3,48.738 52.369,48.607 C 53.065,47.287 53.826,46.587 54.588,46.124 L 55.027,45.894 L 55.623,45.109 C 56.211,44.217 56.423,43.396 55.57,42.871 C 55.01,42.538 50.607,44.257 48.92,45.337 Z" stroke-linejoin="round" stroke-linecap="round" stroke="none" fill="#deeaf6" stroke-width="0" marker-start="none" marker-end="none" stroke-miterlimit="79.8403193612775"/>
    <path d="M 36.777,52.615 L 36.884,53.443 C 37.272,55.208 38.496,56.388 39.756,56.797 C 41.367,57.32 43.112,56.619 43.308,53.946 C 43.411,52.537 42.153,51.218 41.042,51.199 C 40.913,51.197 40.797,51.141 40.716,51.054 L 40.617,50.782 L 39.283,50.901 C 38.318,51.115 37.46,51.568 36.993,52.208 L 36.777,52.615 Z" stroke-linejoin="round" stroke-linecap="round" stroke="none" fill="#deeaf6" stroke-width="0" marker-start="none" marker-end="none" stroke-miterlimit="79.8403193612775"/>
    <path d="M 71.311,50.432 C 71.206,51.202 71.434,52.752 70.759,53.77 C 70.119,54.742 68.913,55.703 67.616,55.681 L 67.579,55.673 L 67.531,55.872 C 67.377,56.803 67.522,57.644 67.894,58.347 L 68.569,59.232 L 68.652,59.222 C 69.601,59.042 70.494,58.734 71.257,58.325 C 73.926,56.892 74.154,53.956 74.08,51.743 C 74.04,50.539 73.333,49.968 72.65,49.824 C 71.883,49.662 71.37,49.997 71.311,50.432 Z" stroke-linejoin="round" stroke-linecap="round" stroke="none" fill="#deeaf6" stroke-width="0" marker-start="none" marker-end="none" stroke-miterlimit="79.8403193612775"/>
    <path d="M 37.175,41.925 C 36.811,41.076 36.927,39.388 37.258,38.636 C 39.403,33.746 41.038,32.038 46.187,31.894 C 47.533,31.856 48.136,32.22 48.92,32.623 C 51.259,33.823 45.093,36.996 44.091,38.816 C 43.549,39.804 45.656,46.81 39.719,44.556 C 38.257,44.003 37.858,42.497 37.212,42.007 C 37.199,41.981 37.186,41.952 37.175,41.925 Z" stroke-linejoin="round" stroke-linecap="round" fill="#deeaf6" stroke="none" stroke-width="0.456" marker-start="none" marker-end="none" stroke-miterlimit="79.8403193612775"/>
    <path d="M 58.177,44.467 C 58.611,42.968 59.46,39.254 59.576,39.129 C 56.912,41.071 55.363,42.273 52.422,43.571 C 51.052,44.176 49.638,44.767 48.217,45.368" fill="none" stroke-linejoin="round" stroke-linecap="round" stroke-width="0.91" stroke="#000000" stroke-miterlimit="79.8403193612775"/>
    <path d="M 19.619,31.72 C 20.06,30.01 20.193,27.005 23.775,27.702 C 24.806,27.904 25.549,28.653 26.143,28.979 C 26.986,29.438 27.148,30.435 27.418,31.437 C 27.429,31.48 27.48,31.499 27.509,31.529 C 28.256,34.887 21.943,35.626 19.447,32.259 C 19.514,32.101 19.569,31.92 19.619,31.72 Z" stroke-linejoin="round" stroke-linecap="round" fill="#deeaf6" stroke="none" stroke-width="0.456" marker-start="none" marker-end="none" stroke-miterlimit="79.8403193612775"/>
    <path d="M 18.48,26.25 C 17.724,29.665 19.329,33.355 22.59,34.123 C 25.894,34.901 29.22,31.996 26.79,29.05 C 26.063,28.167 23.533,27.562 22.329,27.649" fill="none" stroke-linejoin="round" stroke-linecap="round" stroke-width="0.91" stroke-miterlimit="79.8403193612775"/>
    <path d="M 23.903,27.562 C 23.816,25.928 24.195,24.947 24.865,23.713" fill="none" stroke-linejoin="round" stroke-linecap="round" stroke-width="0.91" stroke-miterlimit="79.8403193612775"/>
    <path d="M 38.863,51.095 C 39.296,50.808 40.652,50.707 41.226,50.745" fill="none" stroke-linejoin="round" stroke-linecap="round" stroke-width="0.91" stroke-miterlimit="79.8403193612775"/>
    <path d="M 40.351,18.771 C 39.183,21.238 38.044,22.94 38.6,26.118 C 38.926,27.985 40.909,31.253 42.451,32.33 C 39.702,33.564 36.723,37.451 36.85,40.641 C 37.05,45.683 44.488,46.592 44.549,41.777 C 44.563,40.759 44.287,39.653 43.762,39.065 C 47.06,34.375 53.178,35.266 55.047,28.743" fill="none" stroke-linejoin="round" stroke-linecap="round" stroke-width="0.91" stroke-miterlimit="79.8403193612775"/>
    <path d="M 24.284,43.859 C 24.951,45.357 26.534,46.951 27.893,46.22 C 29.04,45.606 29.001,43.665 27.735,42.952 C 26.914,42.491 25.943,42.261 25.708,42.194 C 25.602,42.163 24.701,41.846 24.388,41.014 C 23.773,39.37 22.799,38.218 21.507,38.34 C 20.05,38.479 19.434,39.677 19.598,40.666 C 19.819,42.008 21.567,42.312 23.071,42.818 C 23.229,42.841 24.08,43.219 24.284,43.859 Z" stroke-linejoin="round" stroke-linecap="round" stroke-width="0.91" fill="#ffffff" stroke="#000000" marker-start="none" marker-end="none" stroke-miterlimit="79.8403193612775"/>
    <path d="M 13.582,40.975 C 14.436,41.476 15.016,42.078 15.519,41.225 C 16.022,40.371 15.739,39.268 14.885,38.765 C 14.03,38.262 12.928,38.545 12.425,39.4 C 11.922,40.253 12.728,40.471 13.582,40.975 Z" stroke-linejoin="round" stroke-linecap="round" stroke-width="0.91" stroke="none" fill="#000000" marker-start="none" marker-end="none" stroke-miterlimit="79.8403193612775"/>
    <path d="M 26.168,51.133 C 26.612,51.956 26.789,52.725 27.611,52.28 C 28.436,51.836 28.745,50.807 28.3,49.983 C 27.854,49.158 26.826,48.851 26.003,49.295 C 25.178,49.739 25.725,50.309 26.168,51.133 Z" stroke-linejoin="round" stroke-linecap="round" stroke-width="0.91" stroke="none" fill="#000000" marker-start="none" marker-end="none" stroke-miterlimit="79.8403193612775"/>
    <path d="M 5.818,29.288 C 6.925,30.206 8.145,31.133 9.274,32.043" fill="none" stroke-linejoin="round" stroke-linecap="round" stroke-width="0.91" stroke-miterlimit="79.8403193612775"/>
    <path d="M 7.48,27.844 C 8.299,28.923 9.288,30.115 10.192,31.038" fill="none" stroke-linejoin="round" stroke-linecap="round" stroke-width="0.91" stroke-miterlimit="79.8403193612775"/>
    <path d="M 31.8,55.27 C 31.962,56.125 32.509,57.13 32.805,57.982" fill="none" stroke-linejoin="round" stroke-linecap="round" stroke-width="0.91" stroke-miterlimit="79.8403193612775"/>
    <path d="M 32.719,54.659 C 33.293,55.444 33.765,56.422 34.337,57.152" fill="none" stroke-linejoin="round" stroke-linecap="round" stroke-width="0.91" stroke-miterlimit="79.8403193612775"/>
    <path d="M 5.654,44.069 C 5.154,45.335 3.561,47.016 3.961,48.339 C 4.891,48.567 9.993,45.154 6.556,43.919 C 6.516,43.905 6.495,43.858 6.465,43.828 C 6.222,43.828 5.979,43.828 5.736,43.828 C 5.713,43.906 5.686,43.987 5.654,44.069 Z" stroke-linejoin="round" stroke-linecap="round" fill="#deeaf6" stroke="none" stroke-width="0.456" marker-start="none" marker-end="none" stroke-miterlimit="79.8403193612775"/>
    <path d="M 22.743,58.405 C 21.621,58.782 20.841,60.218 20.723,61.457 C 22.057,61.767 24.26,59.675 24.322,58.587 C 23.75,58.273 23.216,58.244 22.743,58.405 Z" stroke-linejoin="round" stroke-linecap="round" fill="#deeaf6" stroke="none" stroke-width="0.456" marker-start="none" marker-end="none" stroke-miterlimit="79.8403193612775"/>
   </g>
  </g>
 </g>
</svg>
