<?xml version="1.0" standalone="no"?>
<!DOCTYPE svg PUBLIC "-//W3C//DTD SVG 1.1//EN" "http://www.w3.org/Graphics/SVG/1.1/DTD/svg11.dtd">
<!--Generator: Xara Designer (www.xara.com), SVG filter version: 6.0.0.4-->
<svg stroke-width="0.501" stroke-linejoin="bevel" fill-rule="evenodd" xmlns:xlink="http://www.w3.org/1999/xlink" xmlns="http://www.w3.org/2000/svg" version="1.1" overflow="visible" width="75pt" height="75pt" viewBox="0 0 75 75">
 <defs>
	</defs>
 <g id="Document" fill="none" stroke="black" font-family="Times New Roman" font-size="16" transform="scale(1 -1)">
  <g id="Spread" transform="translate(0 -75)">
   <g id="Layer 1">
    <path d="M 61.516,50.158 C 61.785,50.158 69.426,55.991 69.951,53.922 C 70.474,51.857 68.735,46.473 69.043,43.629 C 70.407,41.641 71.29,38.849 71.493,36.826 C 72.629,25.517 59.971,23.975 59.727,24.694 C 59.303,22.046 56.067,12.137 56.438,10.888 C 61.319,7.254 53.371,2.998 51.268,8.893 C 50.612,10.734 50.645,12.286 50.452,14.244 C 50.126,14.188 47.734,12.746 47.005,12.974 C 44.623,9.422 41.926,0.458 36.032,3.632 C 33.024,5.251 38.118,12.248 37.755,15.695 C 32.274,14.42 23.544,16.467 23.607,16.964 C 23.499,13.179 27.633,7.196 25.33,4.811 C 22.574,1.96 19.159,6.421 17.802,8.621 C 12.125,17.823 11.18,32.832 16.623,42.087 C 17.53,43.629 19.043,46.133 20.341,47.529 C 20.989,48.224 22.445,49.495 22.517,49.705 C 20.708,50.598 19.77,51.204 18.619,52.97 C 17.258,55.057 17.559,58.587 17.077,60.859 C 15.808,66.842 8.46,66.483 6.919,62.039 C 6.22,60.023 7.417,55.255 4.561,55.419 C 0.013,55.677 0.889,63.224 2.566,66.03 C 4.923,69.976 11.544,72.736 15.806,70.655 C 17.116,70.016 19.162,68.932 20.432,66.664 C 20.801,66.007 21.281,65.204 21.43,64.669 C 21.547,64.251 21.683,63.649 21.702,63.218 C 21.788,61.303 22.316,58.049 23.153,56.326 C 24.06,54.459 25.854,53.137 27.687,53.423 L 32.585,54.239 C 38.345,54.991 45.2,52.615 49.298,48.819 C 51.316,52.468 56.779,58.886 60.679,58.342 C 61.725,58.197 61.132,52.628 61.516,50.158 Z" stroke-linejoin="round" stroke-linecap="round" stroke-width="0.978" fill="#f38123" marker-start="none" marker-end="none" stroke-miterlimit="79.8403193612775"/>
    <path d="M 29.158,16.081 C 27.79,16.262 26.559,16.498 25.622,16.727 C 24.761,16.936 24.224,17.124 24.019,17.229 L 23.961,17.306 C 23.708,17.557 23.179,17.482 23.121,17.025 L 23.123,16.976 L 23.148,16.667 L 22.291,17.226 C 21.511,17.757 20.776,18.318 20.453,18.759 C 15.719,25.228 18.296,36.814 22.811,42.604 C 26.36,47.153 31.798,47.305 34.061,43.973 C 36.461,40.44 40.635,23.342 38.019,16.713 L 37.755,16.148 L 37.644,16.171 C 35.144,15.589 31.906,15.718 29.158,16.081 Z" stroke-linejoin="round" stroke-linecap="round" stroke="none" fill="#ffd383" stroke-width="0" marker-start="none" marker-end="none" stroke-miterlimit="79.8403193612775"/>
    <path d="M 47.562,13.549 C 47.07,14.425 49.525,18.226 49.42,20.298 C 52.452,19.516 54.543,22.408 55.681,22.451 C 57.1,20.426 53.592,16.568 52.258,15.31 C 52.068,15.131 51.748,14.919 51.358,14.706 L 50.837,14.464 L 50.733,14.642 C 50.621,14.721 50.477,14.754 50.333,14.718 L 50.292,14.707 C 50.003,14.62 49.313,14.241 48.64,13.93 C 48.371,13.806 48.148,13.712 47.963,13.642 L 47.678,13.547 L 47.562,13.549 Z" stroke-linejoin="round" stroke-linecap="round" stroke="none" fill="#ffd383" stroke-width="0" marker-start="none" marker-end="none" stroke-miterlimit="79.8403193612775"/>
    <path d="M 69.043,43.629 C 67.165,46.368 63.025,49.763 61.516,50.158" fill="none" stroke-linejoin="round" stroke-linecap="round" stroke-width="0.978" stroke-miterlimit="79.8403193612775"/>
    <path d="M 27.363,42.617 C 28.191,40.757 29.379,39.709 30.741,38.412" fill="none" stroke-linejoin="round" stroke-linecap="round" stroke-width="0.978" stroke-miterlimit="79.8403193612775"/>
    <path d="M 26.237,39.839 C 28.041,40.643 29.411,41.147 31.492,41.115" fill="none" stroke-linejoin="round" stroke-linecap="round" stroke-width="0.978" stroke-miterlimit="79.8403193612775"/>
    <path d="M 27.814,38.187 C 28.138,39.858 28.765,41.645 29.841,42.984" fill="none" stroke-linejoin="round" stroke-linecap="round" stroke-width="0.978" stroke-miterlimit="79.8403193612775"/>
    <path d="M 49.272,48.889 C 49.364,48.74 49.484,48.634 49.636,48.571 C 52.072,46.589 56.183,39.367 56.891,36.555" fill="none" stroke-linejoin="round" stroke-linecap="round" stroke-width="0.978" stroke-miterlimit="79.8403193612775"/>
    <path d="M 59.612,30.478 C 59.884,26.94 59.77,25.331 59.158,22.134" fill="none" stroke-linejoin="round" stroke-linecap="round" stroke-width="0.978" stroke-miterlimit="79.8403193612775"/>
    <path d="M 46.915,12.793 C 48.275,15.423 50.996,22.859 49.364,27.848" fill="none" stroke-linejoin="round" stroke-linecap="round" stroke-width="0.978" stroke-miterlimit="79.8403193612775"/>
    <path d="M 49.272,13.608 C 51.924,15.025 55.44,18.143 56.256,21.772" fill="none" stroke-linejoin="round" stroke-linecap="round" stroke-width="0.978" stroke-miterlimit="79.8403193612775"/>
    <path d="M 57.822,42.38 C 58.497,42.38 59.046,41.739 59.046,40.951 C 59.046,40.162 58.497,39.522 57.822,39.522 C 57.146,39.522 56.597,40.162 56.597,40.951 C 56.597,41.739 57.146,42.38 57.822,42.38 Z" stroke-linejoin="round" stroke-linecap="round" stroke-width="0.978" stroke="none" fill="#000000" marker-start="none" marker-end="none" stroke-miterlimit="79.8403193612775"/>
    <path d="M 67.986,38.706 C 68.64,38.706 69.172,38.086 69.172,37.323 C 69.172,36.559 68.64,35.939 67.986,35.939 C 67.332,35.939 66.801,36.559 66.801,37.323 C 66.801,38.086 67.332,38.706 67.986,38.706 Z" stroke-linejoin="round" stroke-linecap="round" stroke-width="0.978" stroke="none" fill="#000000" marker-start="none" marker-end="none" stroke-miterlimit="79.8403193612775"/>
    <path d="M 61.838,36.429 C 61.449,35.488 63.607,33.61 65.032,34.489 C 66.574,35.442 64.008,37.673 62.539,37.029 C 62.151,36.859 61.93,36.651 61.838,36.429 Z" stroke-linejoin="round" stroke-linecap="round" stroke-width="0.978" stroke="none" fill="#000000" marker-start="none" marker-end="none" stroke-miterlimit="79.8403193612775"/>
    <path d="M 69.456,29.028 C 70.448,28.019 71.594,27.079 72.832,26.327" fill="none" stroke-linejoin="round" stroke-linecap="round" stroke-width="0.978" stroke-miterlimit="79.8403193612775"/>
    <path d="M 70.656,30.408 C 71.848,29.761 73.241,29.265 74.51,28.731" fill="none" stroke-linejoin="round" stroke-linecap="round" stroke-width="0.978" stroke-miterlimit="79.8403193612775"/>
    <path d="M 21.974,49.886 C 24.106,49.055 27.778,48.073 31.134,49.342" fill="none" stroke-linejoin="round" stroke-linecap="round" stroke-width="0.978" stroke-miterlimit="79.8403193612775"/>
    <path d="M 20.432,19.141 C 21.208,18.264 22.975,17.12 24.06,16.692" fill="none" stroke-linejoin="round" stroke-linecap="round" stroke-width="0.978" stroke-miterlimit="79.8403193612775"/>
    <path d="M 37.574,13.427 C 38.118,15.604 38.316,18.763 38.48,20.682" fill="none" stroke-linejoin="round" stroke-linecap="round" stroke-width="0.978" stroke-miterlimit="79.8403193612775"/>
    <path d="M 55.999,51.332 C 55.868,52.659 57.049,54.038 58.127,54.832 C 59.61,55.05 58.985,51.383 58.762,50.576 C 57.751,50.49 56.588,50.372 56.04,51.082 C 56.021,51.164 56.008,51.248 55.999,51.332 Z" stroke-linejoin="round" stroke-linecap="round" fill="#ffd383" stroke="none" stroke-width="0.489" marker-start="none" marker-end="none" stroke-miterlimit="79.8403193612775"/>
    <path d="M 66.995,47.791 C 66.927,49.026 67.706,50.749 68.644,51.31 C 69.236,50.514 68.29,45.94 67.068,47.329 C 67.028,47.471 67.004,47.627 66.995,47.791 Z" stroke-linejoin="round" stroke-linecap="round" fill="#ffd383" stroke="none" stroke-width="0.489" marker-start="none" marker-end="none" stroke-miterlimit="79.8403193612775"/>
   </g>
  </g>
 </g>
</svg>
