<?xml version="1.0" standalone="no"?>
<!DOCTYPE svg PUBLIC "-//W3C//DTD SVG 1.1//EN" "http://www.w3.org/Graphics/SVG/1.1/DTD/svg11.dtd">
<!--Generator: Xara Designer (www.xara.com), SVG filter version: 6.0.0.4-->
<svg stroke-width="0.501" stroke-linejoin="bevel" fill-rule="evenodd" xmlns:xlink="http://www.w3.org/1999/xlink" xmlns="http://www.w3.org/2000/svg" version="1.1" overflow="visible" width="75pt" height="75pt" viewBox="0 0 75 75">
 <defs>
	</defs>
 <g id="Document" fill="none" stroke="black" font-family="Times New Roman" font-size="16" transform="scale(1 -1)">
  <g id="Spread" transform="translate(0 -75)">
   <g id="Layer 1">
    <path d="M 9.872,20.35 C 4.583,24.644 1.52,31.95 1.599,38.966 C 1.725,50.283 10.858,57.188 18.146,60.537 C 23.394,62.947 29.321,63.854 35.088,64.181 C 40.424,64.484 45.725,63.886 51.045,62.605 C 58.885,60.718 67.253,56.366 71.334,49.407 C 74.563,43.9 74.487,34.938 72.614,30.298 C 70.546,25.177 67.647,20.523 63.554,17.1 C 59.879,14.026 54.985,11.879 50.454,11.19 C 48.848,10.946 46.317,10.698 45.036,11.583 C 44.172,12.183 43.861,13.118 43.552,14.113 C 42.567,14.009 41.899,14.067 41.096,13.948 C 29.966,12.273 16.937,13.207 9.872,20.35 Z" stroke-linejoin="round" stroke-linecap="round" fill="#f38123" stroke-width="1.095" stroke="#000000" marker-start="none" marker-end="none" stroke-miterlimit="79.8403193612775"/>
    <path d="M 39.327,19.898 C 38.34,18.08 39.288,15.068 40.557,14.412 C 40.919,14.17 43.363,14.418 43.734,14.357 C 44.039,15.514 44.013,16.939 45.048,17.424 C 46.908,18.296 48.142,17.947 50.524,18.191 C 51.005,18.239 51.281,18.962 51.291,19.505 C 51.396,25.242 45.791,21.13 43.405,20.819 C 41.964,20.631 41.176,20.45 39.572,20.271 C 39.48,20.154 39.398,20.029 39.327,19.898 Z" stroke-linejoin="round" stroke-linecap="round" fill="#ffd383" stroke="none" stroke-width="0.548" marker-start="none" marker-end="none" stroke-miterlimit="79.8403193612775"/>
    <path d="M 9.872,37.587 C 10.759,32.957 12.342,29.382 16.571,25.767 C 19.201,23.519 25.489,21.565 28.882,21.04 C 31.841,20.582 35.712,20.287 38.83,20.35 C 40.939,20.392 45.225,21.476 47.203,22.025 C 50.749,23.009 52.522,20.448 51.045,17.69" fill="none" stroke-linejoin="round" stroke-linecap="round" stroke-width="1.095" stroke-miterlimit="79.8403193612775"/>
    <path d="M 33.906,25.669 C 31.133,28.861 29.836,34.065 32.231,38.079 C 33.699,40.54 36.103,43.034 37.846,44.777 C 39.516,46.691 43.264,53.914 45.824,53.544 C 47.991,52.854 47.381,48.633 48.582,45.959 C 52.017,46.262 56.496,44.043 59.81,43.694 C 60.946,44.542 64.342,49.047 65.819,49.013 C 67.957,48.962 67.939,45 68.232,43.053 C 68.527,40.94 68.48,38.824 68.576,36.7" fill="none" stroke-linejoin="round" stroke-linecap="round" stroke-width="1.095" stroke-miterlimit="79.8403193612775"/>
    <path d="M 23.662,34.435 C 23.661,34.143 23.76,34.012 23.958,34.041 C 24.395,32.394 24.905,32.164 24.943,29.904 C 24.963,28.628 24.078,28.067 23.81,27.245 C 25.501,26.131 32.336,25.001 34.891,25.275 C 40.052,25.828 42.672,24.98 42.377,20.842" fill="none" stroke-linejoin="round" stroke-linecap="round" stroke-width="1.095" stroke-miterlimit="79.8403193612775"/>
    <path d="M 43.559,14.145 C 43.866,20.102 49.67,17.69 52.915,17.493 C 54.019,17.427 55.629,17.863 56.265,18.577" fill="none" stroke-linejoin="round" stroke-linecap="round" stroke-width="1.095" stroke-miterlimit="79.8403193612775"/>
    <path d="M 35.186,34.53 C 35.223,31.872 38.931,30.727 41.096,32.096" fill="none" stroke-linejoin="round" stroke-linecap="round" stroke-width="1.095" stroke-miterlimit="79.8403193612775"/>
    <path d="M 52.128,29.794 C 52.202,26.865 57.204,26.337 59.318,28.247" fill="none" stroke-linejoin="round" stroke-linecap="round" stroke-width="1.095" stroke-miterlimit="79.8403193612775"/>
    <path d="M 42.816,28.215 C 43.15,26.953 46.262,25.857 47.449,27.245 C 48.645,28.587 44.789,30.283 43.362,29.313 C 42.86,28.973 42.718,28.587 42.816,28.215 Z" stroke-linejoin="round" stroke-linecap="round" stroke-width="1.095" stroke="none" fill="#000000" marker-start="none" marker-end="none" stroke-miterlimit="79.8403193612775"/>
    <path d="M 54.622,22.612 C 56.138,22.03 58.258,20.662 59.415,19.591" fill="none" stroke-linejoin="round" stroke-linecap="round" stroke-width="1.095" stroke-miterlimit="79.8403193612775"/>
    <path d="M 55.873,24.174 C 57.444,23.686 59.938,22.823 61.185,21.779" fill="none" stroke-linejoin="round" stroke-linecap="round" stroke-width="1.095" stroke-miterlimit="79.8403193612775"/>
    <path d="M 27.746,28.758 C 28.893,28.917 30.074,28.946 31.183,29.071" fill="none" stroke-linejoin="round" stroke-linecap="round" stroke-width="1.095" stroke-miterlimit="79.8403193612775"/>
    <path d="M 27.538,31.258 C 28.766,31.545 29.925,31.087 31.183,31.154" fill="none" stroke-linejoin="round" stroke-linecap="round" stroke-width="1.095" stroke-miterlimit="79.8403193612775"/>
    <path d="M 63.487,39.698 C 63.187,41.584 64.133,44.33 65.31,44.367 C 66.173,43.584 67.043,38.76 65.638,38.015 C 64.31,37.725 63.669,38.553 63.487,39.698 Z" stroke-linejoin="round" stroke-linecap="round" fill="#ffd383" stroke="none" stroke-width="0.548" marker-start="none" marker-end="none" stroke-miterlimit="79.8403193612775"/>
    <path d="M 40.995,44.805 C 42.481,46.042 43.733,47.185 43.953,49.296 C 42.299,49.896 40.829,46.14 40.448,45.243 L 40.995,44.805 Z" stroke-linejoin="round" stroke-linecap="round" fill="#ffd383" stroke="none" stroke-width="0.548" marker-start="none" marker-end="none" stroke-miterlimit="79.8403193612775"/>
   </g>
  </g>
 </g>
</svg>
