<?xml version="1.0" standalone="no"?>
<!DOCTYPE svg PUBLIC "-//W3C//DTD SVG 1.1//EN" "http://www.w3.org/Graphics/SVG/1.1/DTD/svg11.dtd">
<!--Generator: Xara Designer (www.xara.com), SVG filter version: 6.0.0.4-->
<svg stroke-width="0.501" stroke-linejoin="bevel" fill-rule="evenodd" xmlns:xlink="http://www.w3.org/1999/xlink" xmlns="http://www.w3.org/2000/svg" version="1.1" overflow="visible" width="75pt" height="75pt" viewBox="0 0 75 75">
 <defs>
	</defs>
 <g id="Document" fill="none" stroke="black" font-family="Times New Roman" font-size="16" transform="scale(1 -1)">
  <g id="Spread" transform="translate(0 -75)">
   <g id="Layer 1">
    <path d="M 9.833,41.84 C 7.863,43.632 6.07,45.934 5.574,48.416 C 4.2,55.285 6.849,60.585 12.345,64.313 C 12.835,67.159 13.492,72.722 14.602,73.342 C 17.356,74.877 20.736,67.254 21.078,65.393 C 21.962,65.589 25.355,65.452 26.083,65.295 C 27.359,68.315 28.341,72.948 30.499,73.342 C 33.037,73.802 35.21,66.963 36.387,62.449 C 39.095,61.865 47.006,57.572 50.223,52.538 C 54.05,46.551 55.816,39.879 56.21,33.01 C 56.268,31.976 56.242,30.886 56.236,29.773 C 58.514,28.127 61.853,25.386 64.845,25.748 C 68.083,26.141 70.611,28.845 69.554,32.421 C 68.279,36.738 64.17,36.471 65.139,38.898 C 65.772,40.482 67.366,41.878 70.143,39.977 C 73.845,37.445 74.746,33.59 74.461,29.968 C 74.222,26.919 71.967,23.736 69.554,22.215 C 65.041,19.37 58.505,20.545 55.757,23.882 C 55.45,21.625 55.058,19.515 54.639,17.898 C 53.608,13.91 51.642,4.43 46.2,1.706 C 44.57,0.891 41.707,1.007 40.803,2.589 C 40.177,3.686 40.704,4.944 42.176,6.122 C 44.25,7.781 44.739,10.828 44.826,13.776 C 43.4,13.284 41.125,13.505 39.527,13.874 C 39.037,11.494 37.151,6.66 34.228,4.16 C 32.444,2.632 29.659,1.498 27.947,3.08 C 25.607,5.244 29.194,8.173 30.597,10.832 C 32.462,14.365 32.51,21.601 31.775,24.57 C 30.906,28.078 27.678,32.608 24.513,34.972 C 23.469,32.53 23.264,28.935 22.256,27.907 C 19.909,25.514 17.386,28.025 17.251,30.753 C 17.162,32.58 17.96,35.327 19.547,37.522 C 18.232,37.694 15.357,38.488 13.758,39.19 C 11.959,37.75 12.246,34.972 11.952,32.322 C 11.698,30.029 8.399,28.759 6.849,31.047 C 4.789,34.089 7.674,40.171 9.833,41.84 Z" stroke-linejoin="round" stroke-linecap="round" stroke-width="0.981" fill="#ffebc3" marker-start="none" marker-end="none" stroke-miterlimit="79.8403193612775"/>
    <path d="M 13.981,39.056 C 13.187,39.403 12.498,39.762 12.051,40.075 C 11.205,40.67 10.379,41.314 9.613,42.01" fill="none" stroke-linejoin="round" stroke-linecap="round" stroke-width="0.981" stroke-miterlimit="79.8403193612775"/>
    <path d="M 56.236,29.773 C 56.227,27.839 56.052,25.803 55.79,23.877" fill="none" stroke-linejoin="round" stroke-linecap="round" stroke-width="0.981" stroke-miterlimit="79.8403193612775"/>
    <path d="M 27.457,38.505 C 27.351,38.47 25.5,37.281 24.513,34.972" fill="none" stroke-linejoin="round" stroke-linecap="round" stroke-width="0.981" stroke-miterlimit="79.8403193612775"/>
    <path d="M 19.594,37.64 C 20.465,38.844 21.559,39.848 22.845,40.37" fill="none" stroke-linejoin="round" stroke-linecap="round" stroke-width="0.981" stroke-miterlimit="79.8403193612775"/>
    <path d="M 11.194,54.598 C 12.128,54.598 12.888,53.839 12.888,52.904 C 12.888,51.969 12.128,51.21 11.194,51.21 C 10.259,51.21 9.499,51.969 9.499,52.904 C 9.499,53.839 10.259,54.598 11.194,54.598 Z" stroke-linejoin="round" stroke-linecap="round" stroke-width="0.981" fill="#000000" stroke="none" marker-start="none" marker-end="none" stroke-miterlimit="79.8403193612775"/>
    <path d="M 26.306,53.813 C 27.24,53.813 28,53.054 28,52.119 C 28,51.184 27.24,50.425 26.306,50.425 C 25.371,50.425 24.611,51.184 24.611,52.119 C 24.611,53.054 25.371,53.813 26.306,53.813 Z" stroke-linejoin="round" stroke-linecap="round" stroke-width="0.981" fill="#000000" stroke="none" marker-start="none" marker-end="none" stroke-miterlimit="79.8403193612775"/>
    <path d="M 14.284,48.635 C 15.366,47.663 16.896,47.907 17.67,49.028 C 18.272,47.83 20.313,47.423 21.252,48.243" fill="none" stroke-linejoin="round" stroke-linecap="round" stroke-width="0.981" stroke-miterlimit="79.8403193612775"/>
    <path d="M 16.051,47.556 C 15.556,46.532 15.789,43.785 17.327,43.778 C 18.926,43.771 18.182,46.775 18.946,47.948" fill="none" stroke-linejoin="round" stroke-linecap="round" stroke-width="0.981" stroke-miterlimit="79.8403193612775"/>
    <path d="M 0.743,50.892 C 1.929,50.638 3.742,50.322 4.914,50.255" fill="none" stroke-linejoin="round" stroke-linecap="round" stroke-width="0.981" stroke-miterlimit="79.8403193612775"/>
    <path d="M 1.773,47.899 C 2.386,47.982 5.059,48.409 5.453,48.635" fill="none" stroke-linejoin="round" stroke-linecap="round" stroke-width="0.981" stroke-miterlimit="79.8403193612775"/>
    <path d="M 28.219,45.887 C 29.103,45.333 31.091,44.514 32.095,44.17" fill="none" stroke-linejoin="round" stroke-linecap="round" stroke-width="0.981" stroke-miterlimit="79.8403193612775"/>
    <path d="M 28.71,47.654 C 30.018,47.234 31.897,46.869 33.273,46.673" fill="none" stroke-linejoin="round" stroke-linecap="round" stroke-width="0.981" stroke-miterlimit="79.8403193612775"/>
    <path d="M 35.994,15.445 C 36.702,14.739 38.588,14.01 39.626,13.874" fill="none" stroke-linejoin="round" stroke-linecap="round" stroke-width="0.981" stroke-miterlimit="79.8403193612775"/>
    <path d="M 44.826,13.776 C 44.826,14.463 44.826,15.15 44.826,15.837" fill="none" stroke-linejoin="round" stroke-linecap="round" stroke-width="0.981" stroke-miterlimit="79.8403193612775"/>
    <path d="M 18.233,65.196 C 19.214,65.393 20.099,65.433 21.078,65.491" fill="none" stroke-linejoin="round" stroke-linecap="round" stroke-width="0.981" stroke-miterlimit="79.8403193612775"/>
   </g>
  </g>
 </g>
</svg>
