<?xml version="1.0" standalone="no"?>
<!DOCTYPE svg PUBLIC "-//W3C//DTD SVG 1.1//EN" "http://www.w3.org/Graphics/SVG/1.1/DTD/svg11.dtd">
<!--Generator: Xara Designer (www.xara.com), SVG filter version: 6.0.0.4-->
<svg stroke-width="0.501" stroke-linejoin="bevel" fill-rule="evenodd" xmlns:xlink="http://www.w3.org/1999/xlink" xmlns="http://www.w3.org/2000/svg" version="1.1" overflow="visible" width="75pt" height="75pt" viewBox="0 0 75 75">
 <defs>
	</defs>
 <g id="Document" fill="none" stroke="black" font-family="Times New Roman" font-size="16" transform="scale(1 -1)">
  <g id="Spread" transform="translate(0 -75)">
   <g id="Layer 1">
    <path d="M 17.879,47.372 C 17.031,45.602 16.385,43.838 16.137,42.005 C 15.567,37.789 16.009,32.751 19.437,29.671 C 19.416,29.504 21.406,27.67 21.636,27.628 C 19.751,24.172 28.19,21.188 29.964,21.501 C 31.3,21.737 31.85,23.936 30.671,24.879 C 32.556,23.779 34.189,23.327 35.542,22.915 C 36.617,22.587 38.819,22.27 40.02,22.444 C 40.988,19.827 47.405,18.372 49.761,17.573 C 51.309,17.048 51.865,15.472 53.139,14.745 C 54.789,13.802 58.306,14.604 58.088,16.709 C 60.876,16.11 62.47,18.11 61.387,20.558 C 66.1,21.894 69.557,26.765 69.4,31.714 C 69.24,36.745 66.06,40.681 63.665,44.755 C 63.102,45.713 61.697,49.744 59.659,49.625 C 58.324,49.547 58.481,47.071 58.01,44.676 C 56.648,44.711 56.438,44.755 54.474,44.44 C 52.895,45.341 51.096,47.111 49.682,48.682 C 45.454,53.379 42.769,55.674 38.526,56.774 C 33.153,58.167 26.38,56.822 22.186,53.396 C 21.544,52.871 20.827,52.094 20.223,51.353 C 17.966,50.902 16.56,51.079 15.364,52.328 C 13.542,54.232 15.213,57.641 12.831,60.82 C 10.132,64.421 5.425,63.462 2.297,60.85 C 0.742,59.551 0.222,57.455 1.12,56.092 C 1.552,55.436 2.709,55.439 3.447,55.708 C 4.531,56.105 4.227,57.428 5.693,58.346 C 6.282,58.714 7.604,59.358 8.241,59.043 C 11.068,57.643 9.91,54.515 10.522,52.248 C 11.405,48.971 14.952,46.842 17.879,47.372 Z" stroke-linejoin="round" stroke-linecap="round" fill="#fffa9e" stroke-width="0.786" marker-start="none" marker-end="none" stroke-miterlimit="79.8403193612775"/>
    <path d="M 53.333,15.086 C 52.749,15.419 52.303,15.992 51.795,16.553 L 50.987,17.329 L 51.14,17.796 C 51.34,18.182 51.691,18.554 52.288,19.013 C 52.879,19.468 57.855,20.178 60.461,20.382 L 61.027,20.419 L 61.027,20.399 C 61.977,18.252 60.654,16.559 58.17,17.093 C 57.909,17.149 57.669,16.933 57.697,16.668 C 57.873,14.967 54.759,14.271 53.333,15.086 Z" stroke-linejoin="round" stroke-linecap="round" stroke="none" fill="#ffffff" stroke-width="0" marker-start="none" marker-end="none" stroke-miterlimit="79.8403193612775"/>
    <path d="M 24.615,23.496 C 23.588,24.054 22.713,24.708 22.21,25.399 C 21.72,26.072 21.6,26.742 21.981,27.439 L 21.991,27.514 L 22.489,27.084 C 24.564,25.793 27.308,27.138 28.275,26.895 C 28.301,26.812 28.489,26.666 28.562,26.476 C 28.574,26.446 28.753,26.332 28.798,26.319 C 29.143,26.219 29.703,25.831 30.281,25.281 L 30.408,25.142 L 30.349,25.099 C 30.243,24.944 30.236,24.722 30.425,24.572 C 31.355,23.828 30.873,22.06 29.895,21.888 C 29.152,21.756 26.702,22.362 24.615,23.496 Z" stroke-linejoin="round" stroke-linecap="round" stroke="none" fill="#ffffff" stroke-width="0" marker-start="none" marker-end="none" stroke-miterlimit="79.8403193612775"/>
    <path d="M 1.448,56.308 C 0.695,57.45 1.092,59.331 2.548,60.548 C 3.698,61.508 5.037,62.22 6.393,62.56 L 7.177,62.683 L 7.197,62.252 C 7.188,61.354 7.099,60.432 7.038,59.942 L 7.036,59.371 L 6.813,59.321 C 6.255,59.128 5.742,58.84 5.484,58.679 C 3.932,57.706 4.181,56.395 3.312,56.077 C 2.621,55.825 1.717,55.898 1.448,56.308 Z" stroke-linejoin="round" stroke-linecap="round" stroke="none" fill="#ffffff" stroke-width="0" marker-start="none" marker-end="none" stroke-miterlimit="79.8403193612775"/>
    <path d="M 17.797,47.489 C 18.498,48.954 19.364,50.327 20.304,51.48" fill="none" stroke-linejoin="round" stroke-linecap="round" stroke-width="0.786" stroke-miterlimit="79.8403193612775"/>
    <path d="M 28.079,27.315 C 29.751,26.034 33.542,28.095 32.085,30.457" fill="none" stroke-linejoin="round" stroke-linecap="round" stroke-width="0.786" stroke-miterlimit="79.8403193612775"/>
    <path d="M 28.079,27 C 28.471,26.293 29.964,25.35 30.75,24.565" fill="none" stroke-linejoin="round" stroke-linecap="round" stroke-width="0.786" stroke-miterlimit="79.8403193612775"/>
    <path d="M 40.098,21.972 C 39.412,23.116 39.672,26.212 40.098,27.392" fill="none" stroke-linejoin="round" stroke-linecap="round" stroke-width="0.786" stroke-miterlimit="79.8403193612775"/>
    <path d="M 55.731,20.244 C 57.02,19.864 58.149,17.618 58.166,16.395" fill="none" stroke-linejoin="round" stroke-linecap="round" stroke-width="0.786" stroke-miterlimit="79.8403193612775"/>
    <path d="M 48.346,23.622 C 51.493,20.156 57,19.659 61.231,20.558" fill="none" stroke-linejoin="round" stroke-linecap="round" stroke-width="0.786" stroke-miterlimit="79.8403193612775"/>
    <path d="M 42.691,37.056 C 42.054,38.548 42.443,46.45 43.869,47.347 C 45.279,48.234 48.727,43.176 49.211,42.319 C 50.939,43.34 52.511,44.205 54.71,44.44" fill="none" stroke-linejoin="round" stroke-linecap="round" stroke-width="0.786" stroke-miterlimit="79.8403193612775"/>
    <path d="M 53.943,32.46 C 55.068,32.146 55.818,31.242 55.615,30.442 C 55.413,29.643 54.336,29.249 53.211,29.563 C 52.086,29.877 51.336,30.782 51.539,31.581 C 51.741,32.38 52.818,32.774 53.943,32.46 Z" stroke-linejoin="round" stroke-linecap="round" stroke-width="0.786" stroke="none" fill="#000000" marker-start="none" marker-end="none" stroke-miterlimit="79.8403193612775"/>
    <path d="M 64.78,33.921 C 65.599,34.622 66.677,34.733 67.186,34.167 C 67.695,33.602 67.444,32.573 66.626,31.871 C 65.807,31.17 64.729,31.06 64.22,31.625 C 63.711,32.191 63.962,33.219 64.78,33.921 Z" stroke-linejoin="round" stroke-linecap="round" stroke-width="0.786" stroke="none" fill="#000000" marker-start="none" marker-end="none" stroke-miterlimit="79.8403193612775"/>
    <path d="M 59.424,30.376 C 59.006,30.182 58.555,29.94 58.716,29.436 C 59.332,28.567 62.218,28.874 62.308,30.097 C 61.805,30.815 60.658,30.751 59.895,30.614 C 59.777,30.533 59.604,30.458 59.424,30.376 Z" stroke-linejoin="round" stroke-linecap="round" stroke-width="0.786" stroke="none" fill="#000000" marker-start="none" marker-end="none" stroke-miterlimit="79.8403193612775"/>
    <path d="M 69.636,32.814 C 70.907,33.594 72.448,33.905 73.957,33.835" fill="none" stroke-linejoin="round" stroke-linecap="round" stroke-width="0.786" stroke-miterlimit="79.8403193612775"/>
    <path d="M 69.4,31.32 C 71.082,31.515 72.203,32.039 73.878,31.32" fill="none" stroke-linejoin="round" stroke-linecap="round" stroke-width="0.786" stroke-miterlimit="79.8403193612775"/>
    <path d="M 43.789,27.451 C 44.993,28.203 47.073,28.587 48.543,28.379" fill="none" stroke-linejoin="round" stroke-linecap="round" stroke-width="0.786" stroke-miterlimit="79.8403193612775"/>
    <path d="M 44.644,25.277 C 45.631,26.215 47.744,26.946 48.947,27.14" fill="none" stroke-linejoin="round" stroke-linecap="round" stroke-width="0.786" stroke-miterlimit="79.8403193612775"/>
    <path d="M 21.009,28.178 C 21.69,27.717 22.833,27.016 23.601,26.921" fill="none" stroke-linejoin="round" stroke-linecap="round" stroke-width="0.786" stroke-miterlimit="79.8403193612775"/>
    <path d="M 52.198,22.48 L 50.627,21.301" fill="none" stroke-linejoin="round" stroke-linecap="round" stroke-width="0.393" stroke-miterlimit="79.8403193612775"/>
    <path d="M 44.682,38.133 C 44.342,39.194 43.899,43.404 44.667,43.68 C 45.43,43.589 47.344,40.103 47.26,39.359 C 47.183,38.683 45.529,37.64 44.745,37.971 C 44.725,38.012 44.704,38.066 44.682,38.133 Z" stroke-linejoin="round" stroke-linecap="round" fill="#d1cd81" stroke="none" stroke-width="0.393" marker-start="none" marker-end="none" stroke-miterlimit="79.8403193612775"/>
    <path d="M 61.117,43.848 C 60.746,44.86 60.478,46.711 60.756,47.301 C 61.77,47.267 62.89,43.712 62.971,43.012 C 62.439,42.634 61.808,43.365 61.4,43.288 C 61.304,43.404 61.207,43.601 61.117,43.848 Z" stroke-linejoin="round" stroke-linecap="round" fill="#d1cd81" stroke="none" stroke-width="0.393" marker-start="none" marker-end="none" stroke-miterlimit="79.8403193612775"/>
   </g>
  </g>
 </g>
</svg>
