<?xml version="1.0" standalone="no"?>
<!DOCTYPE svg PUBLIC "-//W3C//DTD SVG 1.1//EN" "http://www.w3.org/Graphics/SVG/1.1/DTD/svg11.dtd">
<!--Generator: Xara Designer (www.xara.com), SVG filter version: 6.0.0.4-->
<svg stroke-width="0.501" stroke-linejoin="bevel" fill-rule="evenodd" xmlns:xlink="http://www.w3.org/1999/xlink" xmlns="http://www.w3.org/2000/svg" version="1.1" overflow="visible" width="75pt" height="75pt" viewBox="0 0 75 75">
 <defs>
	</defs>
 <g id="Document" fill="none" stroke="black" font-family="Times New Roman" font-size="16" transform="scale(1 -1)">
  <g id="Spread" transform="translate(0 -75)">
   <g id="Layer 1">
    <path d="M 37.911,24.194 C 37.444,23.722 36.513,22.462 36.432,21.584 C 36.259,19.671 38.606,18.889 41.042,19.236 C 42.005,19.374 43.304,19.932 43.565,20.367 C 43.538,17.596 49.477,16.976 50.956,19.324 C 52.052,18.52 58.523,18.28 59.365,18.397 C 53.96,16.954 46.816,14.508 44.942,10.689 C 42.88,6.49 46.849,1.225 51.352,1.837 C 51.833,1.902 52.153,1.854 52.725,2.37 C 53.488,3.057 53.778,4.244 53.184,5.118 C 51.887,7.026 49.355,7.431 49.522,9.011 C 49.978,13.361 60.434,14.097 64.937,15.192 C 69.31,16.255 73.413,19.69 72.416,24.045 C 73.637,26.716 74.625,30.011 74.098,34.414 C 73.59,38.651 71.498,41.761 68.994,44.624 C 66.073,47.963 62.918,49.555 57.988,52.107 C 56.583,52.836 55.736,54.291 55.348,55.013 C 54.178,57.199 54.436,58.286 54.87,61.677 C 55.237,64.55 56.649,69.896 54.996,70.505 C 53.901,70.908 51.046,68.538 49.062,66.934 C 48.793,66.92 40.364,68.901 40.286,68.996 C 39.667,70.916 40.521,74.2 38.606,74.026 C 36.66,73.85 33.317,68.11 32.044,66.095 C 29.911,62.721 28.785,59.926 28.519,57.154 C 27.648,48.11 35.602,45.142 35.823,45.152 C 37.246,43.934 39.999,30.021 37.911,24.194 Z" stroke-linejoin="round" stroke-linecap="round" fill="#95a5b6" stroke-width="0.881" marker-start="none" marker-end="none" stroke-miterlimit="79.8403193612775"/>
    <path d="M 44.005,20.362 C 44.009,20.809 43.417,20.976 43.187,20.593 C 43.137,20.51 42.879,20.309 42.388,20.093 C 41.94,19.895 41.414,19.734 40.979,19.672 C 39.815,19.506 38.71,19.617 37.939,19.964 C 37.187,20.302 36.805,20.827 36.87,21.543 C 36.936,22.255 37.768,23.424 38.224,23.884 C 38.269,23.929 38.303,23.984 38.325,24.045 L 38.598,25.005 L 39.253,25.206 C 40.608,25.523 41.957,25.535 43.436,25.229 C 43.464,25.225 43.436,25.17 43.436,25.142 C 43.487,25.104 44.627,24.543 44.668,24.526 C 44.784,24.589 44.903,24.644 45.025,24.69 C 47.65,25.669 51.887,22.639 51.355,20.095 L 51.212,19.679 L 50.873,19.756 C 50.757,19.734 50.651,19.666 50.583,19.558 C 49.297,17.517 43.983,18.155 44.005,20.362 Z" stroke-linejoin="round" stroke-linecap="round" stroke="none" fill="#deeaf6" stroke-width="0" marker-start="none" marker-end="none" stroke-miterlimit="79.8403193612775"/>
    <path d="M 13.994,26.541 C 17.561,31.586 9.926,34.661 8.476,28.87 C 7.845,31.494 5.191,30.735 4.061,29.764 C 1.347,27.425 3.329,24.823 5.723,23.196 C 5.183,21.999 4,19.788 3.265,18.82 C 2.823,19.397 0.404,19.241 1.22,17.399 C 1.591,16.56 3.26,16.923 3.831,17.155 C 3.989,17.218 7.724,17.143 8.268,17.131 C 8.669,14.31 10.487,15.433 11.227,17.143 C 12.434,16.763 14.249,16.284 16.428,16.403 C 19.052,16.547 21.579,17.87 21.945,17.917 C 22.869,17.117 26.628,15.2 27.658,16.73 C 27.711,18.816 24.936,18.782 24.972,20.626 C 25.04,24.194 24.779,28.02 20.135,28.924 C 18.243,29.293 14.722,27.27 13.994,26.541 Z" stroke-linejoin="round" stroke-linecap="round" fill="#ffebc3" stroke-width="0.881" marker-start="none" marker-end="none" stroke-miterlimit="79.8403193612775"/>
    <path d="M 24.259,26.716 C 30.169,30.586 34.171,36.634 35.478,43.659 C 35.731,45.014 37.406,50.955 37.041,52.196" fill="none" stroke-linejoin="round" stroke-linecap="round" stroke-width="0.881" stroke-miterlimit="79.8403193612775"/>
    <path d="M 34.334,53.961 C 34.279,52.314 36.534,51.803 37.844,53.428 C 37.588,50.831 41.683,51.697 41.203,53.503" fill="none" stroke-linejoin="round" stroke-linecap="round" stroke-width="0.881" stroke-miterlimit="79.8403193612775"/>
    <path d="M 32.822,59.4 C 33.566,59.4 34.171,58.734 34.171,57.912 C 34.171,57.091 33.566,56.424 32.822,56.424 C 32.077,56.424 31.472,57.091 31.472,57.912 C 31.472,58.734 32.077,59.4 32.822,59.4 Z" stroke-linejoin="round" stroke-linecap="round" stroke-width="0.881" stroke="none" fill="#000000" marker-start="none" marker-end="none" stroke-miterlimit="79.8403193612775"/>
    <path d="M 45.306,57.658 C 46.051,57.658 46.656,56.991 46.656,56.169 C 46.656,55.348 46.051,54.681 45.306,54.681 C 44.561,54.681 43.956,55.348 43.956,56.169 C 43.956,56.991 44.561,57.658 45.306,57.658 Z" stroke-linejoin="round" stroke-linecap="round" stroke-width="0.881" stroke="none" fill="#000000" marker-start="none" marker-end="none" stroke-miterlimit="79.8403193612775"/>
    <path d="M 7.907,23.672 C 8.568,22.928 9.516,22.174 10.256,21.757" fill="none" stroke-linejoin="round" stroke-linecap="round" stroke-width="0.881" stroke-miterlimit="79.8403193612775"/>
    <path d="M 7.993,21.757 C 8.433,22.3 9.598,23.167 10.082,23.584" fill="none" stroke-linejoin="round" stroke-linecap="round" stroke-width="0.881" stroke-miterlimit="79.8403193612775"/>
    <path d="M 25.04,54.371 C 26.067,54.452 27.312,54.64 28.344,54.545" fill="none" stroke-linejoin="round" stroke-linecap="round" stroke-width="0.881" stroke-miterlimit="79.8403193612775"/>
    <path d="M 25.214,51.762 C 26.036,52.151 27.324,52.643 28.171,52.892" fill="none" stroke-linejoin="round" stroke-linecap="round" stroke-width="0.881" stroke-miterlimit="79.8403193612775"/>
    <path d="M 46.696,49.414 C 47.473,49 49.476,47.759 50,47.153" fill="none" stroke-linejoin="round" stroke-linecap="round" stroke-width="0.881" stroke-miterlimit="79.8403193612775"/>
    <path d="M 47.476,50.805 C 48.963,50.427 50.073,49.866 51.42,49.327" fill="none" stroke-linejoin="round" stroke-linecap="round" stroke-width="0.881" stroke-miterlimit="79.8403193612775"/>
    <path d="M 43.464,20.153 C 42.885,22.706 44.639,23.126 44.785,25.082 C 44.886,26.421 44.319,29.705 43.727,30.804" fill="none" stroke-linejoin="round" stroke-linecap="round" stroke-width="0.881" stroke-miterlimit="79.8403193612775"/>
    <path d="M 50.859,23.322 C 51.344,21.832 51.407,20.388 50.682,18.921" fill="none" stroke-linejoin="round" stroke-linecap="round" stroke-width="0.881" stroke-miterlimit="79.8403193612775"/>
    <path d="M 68.641,23.235 C 67.091,20.449 63.943,18.99 59.133,18.304 C 58.404,20.463 59.952,21.644 61.224,22.409 C 60.506,22.855 59.385,24.05 60.014,25.082" fill="none" stroke-linejoin="round" stroke-linecap="round" stroke-width="0.881" stroke-miterlimit="79.8403193612775"/>
    <path d="M 35.161,68.293 C 36.337,68.308 37.778,69.888 37.23,70.85 C 36.331,70.901 35.221,69.178 34.898,68.319 C 34.983,68.301 35.072,68.292 35.161,68.293 Z" stroke-linejoin="round" stroke-linecap="round" fill="#deeaf6" stroke="none" stroke-width="0.44" marker-start="none" marker-end="none" stroke-miterlimit="79.8403193612775"/>
   </g>
  </g>
 </g>
</svg>
