<?xml version="1.0" standalone="no"?>
<!DOCTYPE svg PUBLIC "-//W3C//DTD SVG 1.1//EN" "http://www.w3.org/Graphics/SVG/1.1/DTD/svg11.dtd">
<!--Generator: Xara Designer (www.xara.com), SVG filter version: 6.0.0.4-->
<svg stroke-width="0.501" stroke-linejoin="bevel" fill-rule="evenodd" xmlns:xlink="http://www.w3.org/1999/xlink" xmlns="http://www.w3.org/2000/svg" version="1.1" overflow="visible" width="75pt" height="75pt" viewBox="0 0 75 75">
 <defs>
	</defs>
 <g id="Document" fill="none" stroke="black" font-family="Times New Roman" font-size="16" transform="scale(1 -1)">
  <g id="Spread" transform="translate(0 -75)">
   <g id="Layer 1">
    <path d="M 17.649,28.282 C 17.18,24.667 17.553,21.507 18.584,18.856 C 18.517,18.655 16.358,17.344 15.241,16.594 C 13.069,15.135 9.28,13.55 8.709,12.239 C 8.284,11.266 8.709,10.515 10.523,9.971 C 13.165,9.178 20.05,10.878 23.407,12.693 C 24.904,11.657 26.587,10.904 28.581,10.422 C 26.526,9.02 24.551,7.378 25.677,6.069 C 28.076,3.275 40.284,6.795 46.907,9.607 C 50.246,10.762 55.527,14.155 55.98,15.414 C 56.499,15.456 59.919,13.523 60.517,12.964 C 63.239,10.425 62.605,6.159 59.519,5.162 C 57.759,4.593 54.342,5.468 54.166,3.619 C 53.982,1.694 56.454,0.701 59.337,0.988 C 63.875,1.441 66.305,3.991 66.777,7.157 C 67.685,13.237 63.239,16.322 59.383,18.681 C 59.264,18.906 59.461,19.148 59.428,19.407 C 60.256,19.993 61.394,26.534 61.516,28.027 C 61.754,30.979 60.941,36.674 59.973,39.277 C 57.66,45.491 51.274,56.071 45.728,63.684 C 42.954,67.492 37.925,74.482 36.291,74.21 C 35.121,73.596 34.856,69.277 34.749,67.767 C 33.141,67.243 27.358,65.9 26.13,64.682 C 25.827,65.32 20.658,70.207 20.232,67.949 C 19.837,65.853 20.989,61.238 21.321,57.878 C 21.554,55.522 21.139,54.248 21.955,50.799 C 22.942,46.636 27.403,41.305 22.591,37.961 C 22.402,37.879 20.649,36.879 20.504,36.737 C 17.964,34.923 17.057,33.561 16.421,31.564 C 15.835,29.725 16.631,28.682 17.649,28.282 Z" stroke-linejoin="round" stroke-linecap="round" stroke-width="0.907" fill="#ffebc3" marker-start="none" marker-end="none" stroke-miterlimit="79.8403193612775"/>
    <path d="M 23.33,12.802 C 21.173,14.296 19.563,16.338 18.584,18.856" fill="none" stroke-linejoin="round" stroke-linecap="round" stroke-width="0.907" stroke-miterlimit="79.8403193612775"/>
    <path d="M 23.498,33.834 C 21.502,32.654 21.502,28.48 19.052,28.117 C 18.609,28.052 18.107,28.102 17.649,28.282" fill="none" stroke-linejoin="round" stroke-linecap="round" stroke-width="0.907" stroke-miterlimit="79.8403193612775"/>
    <path d="M 28.581,10.422 C 29.841,11.284 31.132,12.053 31.756,12.602 C 33.511,14.148 34.936,14.92 35.021,15.143" fill="none" stroke-linejoin="round" stroke-linecap="round" stroke-width="0.907" stroke-miterlimit="79.8403193612775"/>
    <path d="M 37.38,36.828 C 36.131,36.66 34.71,35.388 33.842,34.468 C 32.313,32.849 30.952,30.235 32.662,28.027 C 33.505,26.939 34.839,26.937 36.201,27.573 C 38.877,28.821 36.019,32.381 40.466,34.468" fill="none" stroke-linejoin="round" stroke-linecap="round" stroke-width="0.907" stroke-miterlimit="79.8403193612775"/>
    <path d="M 21.955,52.343 C 22.802,50.592 26.34,51.157 26.764,53.794" fill="none" stroke-linejoin="round" stroke-linecap="round" stroke-width="0.907" stroke-miterlimit="79.8403193612775"/>
    <path d="M 34.114,55.609 C 34.779,53.746 39.304,53.438 38.923,57.242" fill="none" stroke-linejoin="round" stroke-linecap="round" stroke-width="0.907" stroke-miterlimit="79.8403193612775"/>
    <path d="M 29.577,50.123 C 30.244,49.264 31.565,50.788 30.95,52.181 C 31.14,50.896 32.793,49.963 33.57,51.183" fill="none" stroke-linejoin="round" stroke-linecap="round" stroke-width="0.907" stroke-miterlimit="79.8403193612775"/>
    <path d="M 19.506,46.355 C 20.678,46.67 22.15,46.913 23.226,47.171" fill="none" stroke-linejoin="round" stroke-linecap="round" stroke-width="0.907" stroke-miterlimit="79.8403193612775"/>
    <path d="M 20.867,44.359 C 21.961,45.059 22.807,45.337 23.771,45.81" fill="none" stroke-linejoin="round" stroke-linecap="round" stroke-width="0.907" stroke-miterlimit="79.8403193612775"/>
    <path d="M 42.189,51.254 C 43.352,51.646 44.838,51.408 45.999,51.798" fill="none" stroke-linejoin="round" stroke-linecap="round" stroke-width="0.907" stroke-miterlimit="79.8403193612775"/>
    <path d="M 42.825,49.53 C 43.883,49.53 46.37,49.682 47.18,49.348" fill="none" stroke-linejoin="round" stroke-linecap="round" stroke-width="0.907" stroke-miterlimit="79.8403193612775"/>
   </g>
  </g>
 </g>
</svg>
