<?xml version="1.0" standalone="no"?>
<!DOCTYPE svg PUBLIC "-//W3C//DTD SVG 1.1//EN" "http://www.w3.org/Graphics/SVG/1.1/DTD/svg11.dtd">
<!--Generator: Xara Designer (www.xara.com), SVG filter version: 6.0.0.4-->
<svg stroke-width="0.501" stroke-linejoin="bevel" fill-rule="evenodd" xmlns:xlink="http://www.w3.org/1999/xlink" xmlns="http://www.w3.org/2000/svg" version="1.1" overflow="visible" width="75pt" height="75pt" viewBox="0 0 75 75">
 <defs>
	</defs>
 <g id="Document" fill="none" stroke="black" font-family="Times New Roman" font-size="16" transform="scale(1 -1)">
  <g id="Spread" transform="translate(0 -75)">
   <g id="Layer 1">
    <path d="M 18.97,30.832 C 18.364,38.896 19.924,45.487 22.093,52.597 C 22.991,55.543 23.946,59.6 24.867,62.567 C 26.107,66.56 27.356,71.213 28.508,73.494 C 29.915,76.277 32.946,68.864 33.364,68.377 C 34.596,69.293 41.515,69.244 43.336,68.464 C 43.086,69.717 46.024,74.099 47.238,73.841 C 49.472,73.362 49.831,65.513 51.487,60.227 C 51.975,58.666 53.048,55.121 53.914,52.597 C 54.674,50.383 55.4,48.812 56.343,46.006 C 57.356,42.988 58.77,36.902 58.337,32.653 C 61.742,28.944 62.15,22.896 61.285,19.126 C 60.355,15.072 56.626,11.863 53.678,15.678 C 53.147,16.365 52.699,18.535 53.149,19.458 C 52.041,17.511 45.483,16.154 43.532,16.154 C 44.053,15.072 44.053,13.901 43.62,13.251 C 40.9,9.172 31.413,12.322 28.075,14.704 C 22.375,18.772 21.725,21.834 20.444,25.543 C 18.005,24.624 16.696,19.971 18.711,16.265 C 20.93,12.184 24.498,10.429 29.139,8.958 C 30.916,8.395 33.53,8.124 33.735,8.092 C 36.17,7.698 40.584,7.441 41.711,5.49 C 42.445,4.222 42.207,2.913 41.342,2.304 C 37.549,-0.363 27.272,2.468 23.999,3.952 C 17.124,7.07 12.393,11.109 11.97,19.233 C 11.84,24.306 15.359,30.174 18.97,30.832 Z" stroke-linejoin="round" stroke-linecap="round" fill="#f38123" stroke-width="0.866" marker-start="none" marker-end="none" stroke-miterlimit="79.8403193612775"/>
    <path d="M 32.938,1.952 L 32.802,2.225 C 32.208,3.831 32.291,5.712 33.074,7.105 L 33.514,7.682 L 33.667,7.664 C 34.927,7.46 36.582,7.306 38.116,6.952 C 39.675,6.593 40.876,6.069 41.336,5.273 C 41.991,4.141 41.724,3.102 41.092,2.658 C 39.758,1.72 37.512,1.511 35.05,1.696 L 32.938,1.952 Z" stroke-linejoin="round" stroke-linecap="round" stroke="none" fill="#ffd383" stroke-width="0" marker-start="none" marker-end="none" stroke-miterlimit="79.8403193612775"/>
    <path d="M 35.41,12.156 L 35.079,12.72 C 34.972,13.025 34.932,13.364 34.983,13.779 C 35.619,18.866 40.183,19.754 43.003,17.175 L 43.56,16.588 L 43.532,16.587 C 43.213,16.587 43.003,16.253 43.141,15.966 C 43.624,14.963 43.576,13.967 43.259,13.491 C 42.026,11.642 39.138,11.429 36.136,11.981 L 35.41,12.156 Z" stroke-linejoin="round" stroke-linecap="round" stroke="none" fill="#ffd383" stroke-width="0" marker-start="none" marker-end="none" stroke-miterlimit="79.8403193612775"/>
    <path d="M 54.02,15.942 C 53.568,16.528 53.178,18.531 53.538,19.268 C 53.599,19.393 53.598,19.511 53.56,19.611 L 53.402,19.782 L 53.635,20.125 C 53.899,20.422 54.212,20.694 54.58,20.932 C 54.986,21.24 55.193,21.846 55.708,22.017 C 57.598,22.643 59.878,20.797 60.448,18.411 L 60.499,18.096 L 60.41,17.819 C 59.849,16.485 58.982,15.39 58.018,14.824 C 56.803,14.11 55.371,14.194 54.02,15.942 Z" stroke-linejoin="round" stroke-linecap="round" stroke="none" fill="#ffd383" stroke-width="0" marker-start="none" marker-end="none" stroke-miterlimit="79.8403193612775"/>
    <path d="M 31.051,34.172 C 31.478,37.419 36.565,39.533 37.759,35.284 C 38.082,34.132 37.561,34.007 37.412,33.202 C 36.743,29.596 31.725,29.705 31.082,33.115 C 31.013,33.476 31.007,33.83 31.051,34.172 Z" stroke-linejoin="round" stroke-linecap="round" fill="#ffd383" stroke="none" stroke-width="0.434" marker-start="none" marker-end="none" stroke-miterlimit="79.8403193612775"/>
    <path d="M 31.133,41.084 C 32.607,40.868 34.059,39.906 35.035,39.003 C 37.333,36.879 38.896,33.741 36.683,31.633 C 34.104,29.177 31.219,31.546 30.7,34.711 C 30.253,37.423 28.171,38.136 27.144,37.702" fill="none" stroke-linejoin="round" stroke-linecap="round" stroke-width="0.866" stroke-miterlimit="79.8403193612775"/>
    <path d="M 43.395,38.058 C 45.462,39.512 48.853,37.576 48.944,35.196 C 49.018,33.223 46.415,31.491 44.261,32.683 C 41.551,34.181 43.547,36.832 43.395,38.058 Z" stroke-linejoin="round" stroke-linecap="round" fill="#ffd383" stroke="none" stroke-width="0.434" marker-start="none" marker-end="none" stroke-miterlimit="79.8403193612775"/>
    <path d="M 48.649,42.645 C 46.067,41.769 42.465,37.99 42.666,35.101 C 42.882,31.979 46.871,31.199 48.345,32.89 C 51.153,36.112 48.735,38.397 52.074,39.914" fill="none" stroke-linejoin="round" stroke-linecap="round" stroke-width="0.866" stroke-miterlimit="79.8403193612775"/>
    <path d="M 30.532,58.232 C 31.361,58.232 32.035,57.558 32.035,56.728 C 32.035,55.899 31.361,55.225 30.532,55.225 C 29.702,55.225 29.028,55.899 29.028,56.728 C 29.028,57.558 29.702,58.232 30.532,58.232 Z" stroke-linejoin="round" stroke-linecap="round" stroke-width="0.866" fill="#000000" stroke="none" marker-start="none" marker-end="none" stroke-miterlimit="79.8403193612775"/>
    <path d="M 46.136,58.492 C 46.966,58.492 47.64,57.818 47.64,56.988 C 47.64,56.159 46.966,55.485 46.136,55.485 C 45.307,55.485 44.633,56.159 44.633,56.988 C 44.633,57.818 45.307,58.492 46.136,58.492 Z" stroke-linejoin="round" stroke-linecap="round" stroke-width="0.866" fill="#000000" stroke="none" marker-start="none" marker-end="none" stroke-miterlimit="79.8403193612775"/>
    <path d="M 38.691,55.333 C 37.493,55.289 35.957,55.433 35.657,54.033 C 35.449,53.058 36.338,52.198 37.262,52.429 C 37.739,52.549 38.432,53.036 38.736,53.513 C 38.919,52.981 39.975,51.627 41.25,53.122 C 42.324,54.383 40.246,55.45 39.255,55.377 L 38.691,55.333 Z" stroke-linejoin="round" stroke-linecap="round" fill="#ffd383" stroke="none" stroke-width="0.434" marker-start="none" marker-end="none" stroke-miterlimit="79.8403193612775"/>
    <path d="M 38.567,56.238 C 39.62,56.238 40.475,55.772 40.475,55.198 C 40.475,54.624 39.62,54.157 38.567,54.157 C 37.514,54.157 36.659,54.624 36.659,55.198 C 36.659,55.772 37.514,56.238 38.567,56.238 Z" stroke-linejoin="round" stroke-linecap="round" stroke-width="0.866" stroke="none" fill="#000000" marker-start="none" marker-end="none" stroke-miterlimit="79.8403193612775"/>
    <path d="M 32.391,20.317 C 34.761,18.095 41.711,19.45 43.466,16.265" fill="none" stroke-linejoin="round" stroke-linecap="round" stroke-width="0.866" stroke-miterlimit="79.8403193612775"/>
    <path d="M 53.222,19.517 C 55.238,21.487 56.843,24.696 57.016,28.208" fill="none" stroke-linejoin="round" stroke-linecap="round" stroke-width="0.866" stroke-miterlimit="79.8403193612775"/>
    <path d="M 19.781,28.639 C 19.896,27.478 20.211,26.334 20.587,25.222" fill="none" stroke-linejoin="round" stroke-linecap="round" stroke-width="0.866" stroke-miterlimit="79.8403193612775"/>
    <path d="M 19.384,59.206 C 20.681,58.805 22.096,58.603 23.243,57.949" fill="none" stroke-linejoin="round" stroke-linecap="round" stroke-width="0.866" stroke-miterlimit="79.8403193612775"/>
    <path d="M 18.734,56.648 C 20.176,56.661 21.364,56.344 22.679,56.302" fill="none" stroke-linejoin="round" stroke-linecap="round" stroke-width="0.866" stroke-miterlimit="79.8403193612775"/>
    <path d="M 52.811,56.648 C 54.285,57.125 55.913,57.406 57.493,57.645" fill="none" stroke-linejoin="round" stroke-linecap="round" stroke-width="0.866" stroke-miterlimit="79.8403193612775"/>
    <path d="M 53.244,54.871 C 54.494,55.121 56.657,55.312 57.796,55.001" fill="none" stroke-linejoin="round" stroke-linecap="round" stroke-width="0.866" stroke-miterlimit="79.8403193612775"/>
    <path d="M 46.446,67.47 C 46.124,68.447 45.675,70.12 46.67,70.378 C 47.624,70.625 48.145,66.58 46.67,66.78 C 46.664,66.845 46.562,67.111 46.446,67.47 Z" stroke-linejoin="round" stroke-linecap="round" fill="#ffd383" stroke="none" stroke-width="0.434" marker-start="none" marker-end="none" stroke-miterlimit="79.8403193612775"/>
    <path d="M 28.702,67.13 C 28.421,68.07 28.333,69.617 29.284,69.943 C 30.562,70.383 29.921,66.338 28.937,66.562 C 28.855,66.693 28.772,66.892 28.702,67.13 Z" stroke-linejoin="round" stroke-linecap="round" fill="#ffd383" stroke="none" stroke-width="0.434" marker-start="none" marker-end="none" stroke-miterlimit="79.8403193612775"/>
   </g>
  </g>
 </g>
</svg>
