<?xml version="1.0" standalone="no"?>
<!DOCTYPE svg PUBLIC "-//W3C//DTD SVG 1.1//EN" "http://www.w3.org/Graphics/SVG/1.1/DTD/svg11.dtd">
<!--Generator: Xara Designer (www.xara.com), SVG filter version: 6.0.0.4-->
<svg stroke-width="0.501" stroke-linejoin="bevel" fill-rule="evenodd" xmlns:xlink="http://www.w3.org/1999/xlink" xmlns="http://www.w3.org/2000/svg" version="1.1" overflow="visible" width="75pt" height="75pt" viewBox="0 0 75 75">
 <defs>
	</defs>
 <g id="Document" fill="none" stroke="black" font-family="Times New Roman" font-size="16" transform="scale(1 -1)">
  <g id="Spread" transform="translate(0 -75)">
   <g id="Layer 1">
    <path d="M 43.085,10.093 C 38.312,7.291 34.769,17.556 32.619,20.624 C 31.752,21.861 30.527,22.813 29.437,23.656 C 22.487,28.806 19.915,33.67 19.89,39.412 C 19.711,39.438 19.8,39.391 19.707,39.549 C 14.915,43.851 9.878,48.301 5.655,53.124 C 3.728,55.325 -1.151,62.436 1.468,65.17 C 3.645,67.443 6.477,65.672 5.487,63.883 C 5.236,63.427 4.811,62.297 4.901,61.761 C 5.264,59.587 8.146,56.445 10.26,54.11 C 11.949,52.244 14.399,50.18 16.038,49.109 C 18.385,47.576 19.815,46.532 21.763,45.292 C 21.979,45.488 22.127,45.663 22.151,45.775 C 22.541,46.056 22.762,46.449 22.906,46.836 C 23.826,49.337 27.427,54.034 33.372,55.701 C 39.661,57.463 45.849,55.701 48.193,52.973 C 49.448,54.694 50.422,58.802 51.794,60.019 C 53.484,61.519 56.045,55.949 56.735,55.473 C 57.111,55.312 63.071,55.281 64.103,55.246 C 65.143,56.232 66.739,60.11 68.486,59.589 C 70.268,58.092 70.914,54.008 71.473,51.989 C 71.512,51.035 73.05,48.516 73.315,47.14 C 74.276,42.167 74.025,39.599 70.551,35.548 C 68.367,33.002 67.052,32.269 64.858,31.231 C 63.73,30.696 62.178,30.472 61.173,30.321 L 57.907,27.594 C 54.882,25.058 50.389,19.109 50.287,15.472 C 50.244,13.943 51.576,11.838 51.124,10.776 C 50.706,9.791 48.569,9.178 47.608,10.207 C 46.581,9.179 44.015,8.881 43.085,10.093 Z" stroke-linejoin="round" stroke-linecap="round" fill="#15a2c5" stroke-width="0.857" marker-start="none" marker-end="none" stroke-miterlimit="79.8403193612775"/>
    <path d="M 43.426,10.353 C 43.294,10.525 43.055,10.572 42.868,10.462 C 41.081,9.413 39.429,10.472 37.88,12.481 L 37.391,13.164 L 37.895,13.101 C 39.259,13.066 40.593,13.661 41.54,14.139 C 41.64,14.19 42.518,13.747 42.74,13.711 C 43.91,13.516 47.143,13.873 49.438,14.142 L 50.031,14.212 L 50.048,14.134 C 50.167,13.677 50.321,13.224 50.451,12.818 C 50.74,11.912 50.88,11.296 50.729,10.943 C 50.425,10.227 48.652,9.717 47.92,10.5 C 47.755,10.677 47.475,10.681 47.303,10.51 C 46.405,9.609 44.143,9.417 43.426,10.353 Z" stroke-linejoin="round" stroke-linecap="round" stroke="none" fill="#74e3ff" stroke-width="0" marker-start="none" marker-end="none" stroke-miterlimit="79.8403193612775"/>
    <path d="M 1.776,64.874 C 2.754,65.894 3.817,65.96 4.489,65.659 C 5.176,65.352 5.456,64.712 5.112,64.09 C 4.86,63.633 4.361,62.388 4.478,61.69 C 4.575,61.107 4.84,60.463 5.214,59.789 L 5.445,59.414 L 4.517,58.886 C 4.117,58.643 3.726,58.382 3.364,58.097 L 2.97,57.758 L 2.241,59.137 C 1.166,61.409 0.636,63.683 1.776,64.874 Z" stroke-linejoin="round" stroke-linecap="round" stroke="none" fill="#74e3ff" stroke-width="0" marker-start="none" marker-end="none" stroke-miterlimit="79.8403193612775"/>
    <path d="M 43.42,9.791 C 40.155,12.745 41.494,21.056 43.839,23.731" fill="none" stroke-linejoin="round" stroke-linecap="round" stroke-width="0.857" stroke-miterlimit="79.8403193612775"/>
    <path d="M 47.273,10.169 C 48.529,12.139 46.841,12.754 47.021,14.034 C 47.538,17.693 47.356,20.245 50.79,24.564" fill="none" stroke-linejoin="round" stroke-linecap="round" stroke-width="0.857" stroke-miterlimit="79.8403193612775"/>
    <path d="M 41.54,17.872 C 39.938,19.062 39.109,21.72 38.732,23.427" fill="none" stroke-linejoin="round" stroke-linecap="round" stroke-width="0.857" stroke-miterlimit="79.8403193612775"/>
    <path d="M 53.511,45.321 C 54.412,45.321 55.144,44.354 55.144,43.162 C 55.144,41.971 54.412,41.003 53.511,41.003 C 52.61,41.003 51.878,41.971 51.878,43.162 C 51.878,44.354 52.61,45.321 53.511,45.321 Z" stroke-linejoin="round" stroke-linecap="round" stroke-width="0.857" stroke="none" fill="#000000" marker-start="none" marker-end="none" stroke-miterlimit="79.8403193612775"/>
    <path d="M 67.328,45.321 C 68.229,45.321 68.961,44.354 68.961,43.162 C 68.961,41.971 68.229,41.003 67.328,41.003 C 66.427,41.003 65.695,41.971 65.695,43.162 C 65.695,44.354 66.427,45.321 67.328,45.321 Z" stroke-linejoin="round" stroke-linecap="round" stroke-width="0.857" stroke="none" fill="#000000" marker-start="none" marker-end="none" stroke-miterlimit="79.8403193612775"/>
    <path d="M 59.33,41.003 C 60.031,41.495 60.301,42.355 60.838,42.746 C 61.402,42.549 61.683,41.403 62.513,41.079" fill="none" stroke-linejoin="round" stroke-linecap="round" stroke-width="0.857" stroke-miterlimit="79.8403193612775"/>
    <path d="M 47.58,35.42 C 48.621,35.705 49.492,36.225 50.462,36.492" fill="none" stroke-linejoin="round" stroke-linecap="round" stroke-width="0.857" stroke-miterlimit="79.8403193612775"/>
    <path d="M 48.602,33.37 C 49.166,33.858 50.938,35.19 51.465,35.364" fill="none" stroke-linejoin="round" stroke-linecap="round" stroke-width="0.857" stroke-miterlimit="79.8403193612775"/>
    <path d="M 55.981,31.003 C 56.778,30.789 59.164,30.245 61.424,30.397" fill="none" stroke-linejoin="round" stroke-linecap="round" stroke-width="0.857" stroke-miterlimit="79.8403193612775"/>
    <path d="M 71.054,35.321 C 71.884,34.713 72.812,33.958 73.567,33.427" fill="none" stroke-linejoin="round" stroke-linecap="round" stroke-width="0.857" stroke-miterlimit="79.8403193612775"/>
    <path d="M 71.557,36.458 C 72.537,36.184 73.792,35.274 74.571,34.943" fill="none" stroke-linejoin="round" stroke-linecap="round" stroke-width="0.857" stroke-miterlimit="79.8403193612775"/>
    <path d="M 46.854,49.64 C 47.31,50.762 47.668,51.989 48.361,53.049" fill="none" stroke-linejoin="round" stroke-linecap="round" stroke-width="0.857" stroke-miterlimit="79.8403193612775"/>
   </g>
  </g>
 </g>
</svg>
