<?xml version="1.0" standalone="no"?>
<!DOCTYPE svg PUBLIC "-//W3C//DTD SVG 1.1//EN" "http://www.w3.org/Graphics/SVG/1.1/DTD/svg11.dtd">
<!--Generator: Xara Designer (www.xara.com), SVG filter version: 6.0.0.4-->
<svg stroke-width="0.501" stroke-linejoin="bevel" fill-rule="evenodd" xmlns:xlink="http://www.w3.org/1999/xlink" xmlns="http://www.w3.org/2000/svg" version="1.1" overflow="visible" width="75pt" height="75pt" viewBox="0 0 75 75">
 <defs>
	</defs>
 <g id="Document" fill="none" stroke="black" font-family="Times New Roman" font-size="16" transform="scale(1 -1)">
  <g id="Spread" transform="translate(0 -75)">
   <g id="Layer 1">
    <path d="M 9.991,27.268 C 6.808,33.436 8.194,40.536 12.212,44.651 C 13.494,46.851 15.504,51.39 17.036,51.16 C 18.568,51.237 18.863,47.645 19.41,46.539 C 21.887,50.277 24.802,53.85 28.676,56.214 C 34.571,59.813 43.566,60.478 48.661,58.281 C 53.103,56.367 56.821,52.576 58.692,48.48 C 59.918,45.799 60.147,41.895 59.382,38.525 C 58.735,36.808 61.066,34.467 63.9,33.319 C 65.402,32.709 67.761,31.552 68.647,31.174 C 74.926,28.494 75.639,23.344 71.634,18.386 C 69.72,16.017 64.558,12.821 61.679,14.328 C 60.108,15.149 60.679,16.677 61.449,17.544 C 62.601,18.839 64.787,19.389 65.66,19.764 C 67.479,20.545 69.784,24.05 68.111,25.89 C 65.806,28.424 58.196,29.849 56.931,31.863 C 57.007,31.327 56.534,30.062 55.783,29.336 C 53.642,27.269 49.287,26.633 47.436,25.355 C 46.508,24.713 43.581,22.134 42.305,23.67 C 41.958,24.088 41.626,24.47 41.616,24.895 C 40.152,24.089 38.094,23.9 35.95,23.287 C 33.923,22.708 29.824,21.679 28.446,20.989 L 27.935,21.168 C 25.943,20.772 22.587,20.324 20.252,20.351 C 15.34,20.41 12.157,23.163 9.991,27.268 Z" stroke-linejoin="round" stroke-linecap="round" fill="#525252" stroke-width="0.766" marker-start="none" marker-end="none" stroke-miterlimit="79.8403193612775"/>
    <path d="M 61.856,14.667 C 61.2,15.01 61.037,15.456 61.068,15.891 C 61.102,16.371 61.383,16.893 61.735,17.289 C 62.811,18.499 64.936,19.036 65.812,19.412 C 66.065,19.521 66.324,19.675 66.578,19.864 L 66.749,20.016 L 66.836,19.982 C 67.979,19.465 68.986,18.631 69.539,17.581 L 69.748,17.102 L 70.49,17.727 C 68.231,15.603 64.132,13.475 61.856,14.667 Z" stroke-linejoin="round" stroke-linecap="round" stroke="none" fill="#9c9c9c" stroke-width="0" marker-start="none" marker-end="none" stroke-miterlimit="79.8403193612775"/>
    <path d="M 42.6,23.914 C 42.149,24.457 42.004,24.682 41.998,24.903 C 41.994,25.118 41.819,25.272 41.625,25.278 L 41.591,25.27 L 41.591,25.273 C 41.828,27.742 44.858,28.014 46.9,28.469 C 48.647,28.857 51.147,27.994 53.256,28.192 L 53.296,28.198 L 52.548,27.861 C 52.164,27.703 51.768,27.553 51.37,27.409 C 50.589,27.125 49.787,26.855 49.081,26.582 C 48.374,26.308 47.719,26.015 47.218,25.669 C 46.709,25.317 45.805,24.554 44.822,24.033 C 44.337,23.777 43.877,23.606 43.485,23.576 C 43.113,23.548 42.823,23.646 42.6,23.914 Z" stroke-linejoin="round" stroke-linecap="round" stroke="none" fill="#9c9c9c" stroke-width="0" marker-start="none" marker-end="none" stroke-miterlimit="79.8403193612775"/>
    <path d="M 28.136,25.788 L 28.57,26.197 C 30.291,25.73 31.969,24.346 32.049,22.608 L 32.049,22.604 L 31.09,22.326 C 30.093,22.029 29.184,21.732 28.571,21.468 L 28.425,21.401 L 28.061,21.529 C 27.996,21.552 27.927,21.557 27.86,21.544 C 27.365,21.445 26.787,21.343 26.16,21.247 L 24.908,21.078 L 24.939,21.333 C 25.257,23.149 26.981,25.653 28.136,25.788 Z" stroke-linejoin="round" stroke-linecap="round" stroke="none" fill="#9c9c9c" stroke-width="0" marker-start="none" marker-end="none" stroke-miterlimit="79.8403193612775"/>
    <path d="M 8.689,30.535 C 7.234,30.306 3.843,29.923 2.87,29.106 C 2.139,25.975 1.524,22.999 0.879,19.764 C 1.798,17.85 10.374,16.549 17.112,16.702 C 22.321,16.819 27.603,18.156 28.522,19.228 C 28.828,20.473 27.45,27.626 27.067,27.856 C 26.144,27.49 21.478,26.171 19.546,26.153 C 16.5,25.865 12.901,25.941 10.604,26.248 C 9.795,27.208 9.091,28.763 8.689,30.535" stroke-linejoin="round" stroke-linecap="round" fill="#ff436f" stroke-width="0.766" stroke-miterlimit="79.8403193612775"/>
    <path d="M 19.41,46.489 C 21.018,46.412 25.459,46.106 27.833,44.651 C 28.541,45.437 34.325,49.255 34.801,47.714 C 35.386,45.822 34.134,42.056 33.806,40.057" fill="none" stroke-linejoin="round" stroke-linecap="round" stroke-width="0.766" stroke-miterlimit="79.8403193612775"/>
    <path d="M 41.798,24.946 C 41.764,26.552 43.772,28.022 44.986,27.957 L 44.297,29.183 C 42.972,31.44 43.224,34.008 44.986,35.615" fill="none" stroke-linejoin="round" stroke-linecap="round" stroke-width="0.766" stroke-miterlimit="79.8403193612775"/>
    <path d="M 5.376,27.522 C 6.099,27.045 7.689,26.634 9.352,26.362 C 9.738,26.298 10.149,26.244 10.581,26.197" fill="none" stroke-linejoin="round" stroke-linecap="round" stroke-width="0.766" stroke-miterlimit="79.8403193612775"/>
    <path d="M 8.613,35.308 C 9.572,33.074 11.997,33.534 13.743,34.199" fill="none" stroke-linejoin="round" stroke-linecap="round" stroke-width="0.766" stroke-miterlimit="79.8403193612775"/>
    <path d="M 20.482,33.242 C 21.254,30.925 24.665,31.284 26.378,32.919" fill="none" stroke-linejoin="round" stroke-linecap="round" stroke-width="0.766" stroke-miterlimit="79.8403193612775"/>
    <path d="M 4.019,32.859 C 5.216,32.403 6.757,32.286 7.923,32.093" fill="none" stroke-linejoin="round" stroke-linecap="round" stroke-width="0.766" stroke-miterlimit="79.8403193612775"/>
    <path d="M 4.095,35.462 C 5.125,34.984 6.978,34.232 8,34.008" fill="none" stroke-linejoin="round" stroke-linecap="round" stroke-width="0.766" stroke-miterlimit="79.8403193612775"/>
    <path d="M 14.35,31.186 C 14.616,30.286 17.102,30.013 17.707,30.719 C 17.957,31.01 18.098,31.133 17.878,31.327 C 17.149,31.97 14.876,32.789 14.41,31.669 C 14.321,31.493 14.306,31.332 14.35,31.186 Z" stroke-linejoin="round" stroke-linecap="round" stroke-width="0.766" fill="#000000" stroke="none" marker-start="none" marker-end="none" stroke-miterlimit="79.8403193612775"/>
    <path d="M 28.139,25.508 C 29.162,27.038 31.648,26.809 33.346,26.962" fill="none" stroke-linejoin="round" stroke-linecap="round" stroke-width="0.766" stroke-miterlimit="79.8403193612775"/>
    <path d="M 32.693,45.008 C 33.186,44.791 33.298,43.961 32.945,43.157 C 32.591,42.352 31.903,41.873 31.411,42.09 C 30.918,42.306 30.806,43.136 31.16,43.941 C 31.514,44.746 32.201,45.223 32.693,45.008 Z" stroke-linejoin="round" stroke-linecap="round" fill="#ab738e" stroke="none" stroke-width="0.383" marker-start="none" marker-end="none" stroke-miterlimit="79.8403193612775"/>
    <path d="M 16.236,48.868 C 16.463,48.768 16.382,48.085 16.056,47.343 C 15.731,46.603 15.282,46.082 15.055,46.181 C 14.829,46.281 14.909,46.964 15.235,47.705 C 15.561,48.446 16.009,48.967 16.236,48.868 Z" stroke-linejoin="round" stroke-linecap="round" fill="#ab738e" stroke="none" stroke-width="0.383" marker-start="none" marker-end="none" stroke-miterlimit="79.8403193612775"/>
   </g>
  </g>
 </g>
</svg>
