<?xml version="1.0" standalone="no"?>
<!DOCTYPE svg PUBLIC "-//W3C//DTD SVG 1.1//EN" "http://www.w3.org/Graphics/SVG/1.1/DTD/svg11.dtd">
<!--Generator: Xara Designer (www.xara.com), SVG filter version: 6.0.0.4-->
<svg stroke-width="0.501" stroke-linejoin="bevel" fill-rule="evenodd" xmlns:xlink="http://www.w3.org/1999/xlink" xmlns="http://www.w3.org/2000/svg" version="1.1" overflow="visible" width="75pt" height="75pt" viewBox="0 0 75 75">
 <defs>
	</defs>
 <g id="Document" fill="none" stroke="black" font-family="Times New Roman" font-size="16" transform="scale(1 -1)">
  <g id="Spread" transform="translate(0 -75)">
   <g id="Layer 1">
    <path d="M 35.484,62.44 C 36.517,62.834 37.845,63.415 38.415,63.619 C 39.169,63.888 40.579,64.416 41.047,63.874 C 42.328,62.385 39.464,57.087 38.647,55.966 C 36.917,53.59 34.935,50.532 35.566,47.996 C 37.027,42.111 43.703,46.349 48.239,46.443 C 52.472,46.53 54.173,44.319 55.114,43.537 C 55.884,43.466 57.51,43.513 58.678,43.588 C 66.964,44.128 74.357,39.868 74.584,30.167 C 74.646,27.51 73.814,25.2 73.014,23.365 C 72.12,21.31 68.874,17.606 66.637,16.916 C 65.806,16.66 64.436,16.386 63.773,17.06 C 61.551,19.318 66.777,22.042 68.063,23.83 C 72.213,29.602 69.994,37.175 64.092,39.974 C 62.421,40.767 57.539,40.983 57.805,40.37 C 60.303,36.455 60.357,29.946 57.373,26.238 C 57.04,25.823 56.71,25.315 56.276,24.941 C 55.915,22.386 55.329,19.061 57.645,17.424 C 58.077,17.118 60.376,17.253 60.659,16.238 C 61.317,13.879 58.468,12.462 55.909,13.482 C 53.592,14.407 50.801,17.968 50.5,20.471 C 50.127,20.042 49.741,19.607 49.537,19.082 C 48.788,17.157 48.113,14.923 48.697,12.941 C 49.023,11.833 50.763,11.879 50.954,10.313 C 51.111,9.025 50.228,7.851 47.592,8.321 C 45.181,8.754 43.803,10.609 42.922,12.575 C 41.995,14.646 41.423,18.721 41.684,20.875 C 40.14,20.592 37.715,20.056 35.736,20.254 C 29.654,20.856 25.615,21.886 19.893,29.018 C 18.282,31.025 16.882,32.793 15.345,34.627 C 14.224,35.879 11.548,36.564 8.718,36.039 C 6.905,35.703 5.478,34.434 3.77,34.604 C 2.872,34.693 1.899,35.207 1.368,35.856 C -0.169,37.731 1.269,39.559 3.692,40.561 C 6.218,41.607 9.813,41.756 12.218,40.133 C 11.766,41.792 11.506,43.404 11.386,44.937 C 10.534,47.996 9.913,48.576 7.798,49.814 C 6.2,50.748 4.906,49.177 3.512,50.935 C 2.712,51.944 3.217,54.093 4.811,54.858 C 7.284,56.043 9.505,54.771 11.762,52.349 C 11.982,53.525 12.29,54.575 12.548,55.442 C 13.427,58.403 14.668,60.465 16.108,61.867 C 15.842,64.203 17.775,64.364 18.36,63.487 C 20.318,64.479 22.776,65.023 24.788,64.944 C 26.218,64.888 27.912,64.627 29.773,64.017 C 31.345,64.092 34.394,67.741 35.571,67.27 C 36.376,66.949 36.384,63.878 35.484,62.44 Z" stroke-linejoin="round" stroke-linecap="round" fill="#525252" stroke-width="0.829" marker-start="none" marker-end="none" stroke-miterlimit="79.8403193612775"/>
    <path d="M 35.777,20.666 C 29.783,21.259 25.853,22.251 20.216,29.277 C 18.608,31.282 17.204,33.055 15.657,34.899 C 15.5,35.074 15.318,35.239 15.114,35.391 L 14.743,35.62 L 14.959,35.691 C 17.523,36.231 24.416,29.332 25.947,28.354 C 28.693,26.6 32.089,24.928 35.152,24.457 C 36.145,24.304 39.104,23.996 40.046,23.876 C 40.9,23.767 41.669,22.795 41.936,21.693 L 42.024,21.091 L 41.967,21.176 C 41.875,21.262 41.745,21.307 41.608,21.283 C 40.032,20.993 37.679,20.477 35.777,20.666 Z" stroke-linejoin="round" stroke-linecap="round" stroke="none" fill="#9c9c9c" stroke-width="0" marker-start="none" marker-end="none" stroke-miterlimit="79.8403193612775"/>
    <path d="M 12.325,41.432 L 12.163,42.365 C 12.103,42.703 12.039,43.068 11.975,43.451 L 11.915,43.811 L 11.914,43.823 C 11.867,44.21 11.828,44.592 11.799,44.97 C 11.797,44.996 11.792,45.023 11.785,45.049 L 11.676,45.411 L 11.428,47.241 C 11.233,49.002 11.146,50.77 11.339,52.148 L 11.345,52.18 L 11.458,52.066 C 11.69,51.817 12.107,51.939 12.17,52.273 C 12.278,52.849 12.407,53.395 12.542,53.905 L 12.759,54.669 L 12.926,54.728 C 13.484,54.854 13.773,54.243 14.004,53.815 C 15.13,51.733 13.011,44.125 12.574,40.542 L 12.566,40.454 L 12.325,41.432 Z" stroke-linejoin="round" stroke-linecap="round" stroke="none" fill="#9c9c9c" stroke-width="0" marker-start="none" marker-end="none" stroke-miterlimit="79.8403193612775"/>
    <path d="M 12.987,62.638 C 13.724,62.164 14.406,61.777 15.032,61.146" fill="none" stroke="#a7a7a7" stroke-linejoin="round" stroke-linecap="round" stroke-width="0.829" stroke-miterlimit="79.8403193612775"/>
    <path d="M 14.192,64.161 C 14.75,63.702 15.408,63.206 15.863,62.658" fill="none" stroke="#a7a7a7" stroke-linejoin="round" stroke-linecap="round" stroke-width="0.829" stroke-miterlimit="79.8403193612775"/>
    <path d="M 50.583,20.388 C 52.157,22.198 54.544,23.472 56.293,24.977" fill="none" stroke-linejoin="round" stroke-linecap="round" stroke-width="0.829" stroke-miterlimit="79.8403193612775"/>
    <path d="M 11.804,52.362 C 11.411,50.266 11.167,47.73 11.386,44.937" fill="none" stroke-linejoin="round" stroke-linecap="round" stroke-width="0.829" stroke-miterlimit="79.8403193612775"/>
    <path d="M 30.205,63.855 C 31.813,63.329 33.223,62.662 33.817,61.972 C 34.113,61.977 34.839,62.225 35.647,62.532" fill="none" stroke-linejoin="round" stroke-linecap="round" stroke-width="0.829" stroke-miterlimit="79.8403193612775"/>
    <path d="M 19.854,55.976 C 20.19,55.063 20.537,54.074 20.923,53.183" fill="none" stroke="#a7a7a7" stroke-linejoin="round" stroke-linecap="round" stroke-width="0.829" stroke-miterlimit="79.8403193612775"/>
    <path d="M 20.974,56.657 C 21.563,55.89 22.277,54.791 22.933,54.15" fill="none" stroke="#a7a7a7" stroke-linejoin="round" stroke-linecap="round" stroke-width="0.829" stroke-miterlimit="79.8403193612775"/>
    <path d="M 22.351,61.656 C 23.065,61.518 23.525,60.789 23.378,60.031 C 23.231,59.273 22.531,58.769 21.817,58.908 C 21.102,59.047 20.642,59.775 20.789,60.534 C 20.936,61.292 21.636,61.795 22.351,61.656 Z" stroke-linejoin="round" stroke-linecap="round" stroke-width="0.829" stroke="none" fill="#000000" marker-start="none" marker-end="none" stroke-miterlimit="79.8403193612775"/>
   </g>
  </g>
 </g>
</svg>
