<?xml version="1.0" standalone="no"?>
<!DOCTYPE svg PUBLIC "-//W3C//DTD SVG 1.1//EN" "http://www.w3.org/Graphics/SVG/1.1/DTD/svg11.dtd">
<!--Generator: Xara Designer (www.xara.com), SVG filter version: 6.0.0.4-->
<svg stroke-width="0.501" stroke-linejoin="bevel" fill-rule="evenodd" xmlns:xlink="http://www.w3.org/1999/xlink" xmlns="http://www.w3.org/2000/svg" version="1.1" overflow="visible" width="75pt" height="75pt" viewBox="0 0 75 75">
 <defs>
	</defs>
 <g id="Document" fill="none" stroke="black" font-family="Times New Roman" font-size="16" transform="scale(1 -1)">
  <g id="Spread" transform="translate(0 -75)">
   <g id="Layer 1">
    <path d="M 50.073,15.662 C 50.031,14.5 50.097,13.318 50.386,12.083 C 50.977,9.551 56.207,8.985 54.517,6.355 C 52.784,3.658 46.089,6.116 43.25,7.952 C 40.868,7.244 36.419,6.179 32.829,6.073 C 27.544,5.919 22.696,6.32 18.182,8.326 C 15.6,9.476 13.299,11.237 11.609,13.687 C 10.295,10.307 8.419,7.482 5.601,7.857 C 3.723,7.857 2.622,8.401 2.221,9.83 C 1.564,12.177 5.079,13.293 5.225,13.773 C 6.807,15.601 5.413,21.096 4.569,24.006 C 2.033,32.456 2.322,40.351 3.442,46.164 C 4.544,51.893 6.534,55.877 9.074,60.248 C 10.463,62.635 12.244,64.818 14.238,66.727 C 17.231,69.592 23.536,73.887 24.284,74.049 C 28.706,75.005 25.773,67.915 27.008,66.069 C 28.855,65.126 31.596,62.063 31.984,61.938 C 33.154,62.165 39.386,65.347 40.527,63.158 C 40.73,61.304 36.424,58.004 35.458,56.867 C 35.458,53.769 36.234,51.349 34.498,48.44 C 34.075,47.643 32.989,47.238 32.605,46.981 C 33.303,46.691 34.685,45.247 33.981,43.652 C 33.477,42.508 32.197,43.292 31.68,43.98 C 31.648,44.023 31.248,44.848 31.211,44.872 C 31.041,42.998 32.387,40.257 33.601,39.522 C 33.897,39.61 34.201,39.722 34.519,39.874 C 35.246,40.221 36.481,43.952 36.866,44.661 C 38.65,47.949 42.499,48.512 43.626,46.633 C 44.844,44.605 41.916,43.06 41.843,42.972 C 39.59,40.249 40.588,36.448 40.246,35.837 C 40.078,35.537 39.771,35.219 39.371,34.91 C 43.277,35.537 48.602,31.799 49.822,28.701 C 50.868,26.047 50.968,24.637 50.761,22.411 C 50.836,19.427 59.6,16.687 61.935,15.932 C 66.384,14.494 73.434,11.032 72.826,6.073 C 72.169,0.721 65.034,-0.405 64.563,2.224 C 64.011,5.318 67.662,4.666 67.943,6.543 C 68.697,11.568 56.27,12.095 50.073,15.662 Z" stroke-linejoin="round" stroke-linecap="round" stroke="#000000" fill="#ff436f" stroke-width="0.939" marker-start="none" marker-end="none" stroke-miterlimit="79.8403193612775"/>
    <path d="M 28.604,14.336 C 18.283,16.51 10.926,25.948 13.017,36.964 C 13.812,41.145 19.496,47.76 23.815,49.168 C 27.572,50.392 31.411,50.566 33.042,49.332 C 33.266,49.161 33.442,48.999 33.579,48.841 L 33.871,48.406 L 33.732,48.236 C 33.294,47.844 32.671,47.59 32.343,47.371 C 32.033,47.163 32.079,46.69 32.423,46.547 C 32.948,46.329 34.117,45.122 33.551,43.841 C 33.411,43.522 33.235,43.496 32.974,43.577 C 32.725,43.654 32.451,43.84 32.242,44.048 L 32.066,44.248 L 32.049,44.28 C 31.962,44.45 31.708,44.965 31.625,45.098 L 31.599,45.135 C 31.33,45.496 30.782,45.341 30.743,44.914 C 30.697,44.406 30.75,43.843 30.878,43.27 L 31.414,41.705 L 30.518,40.873 C 29.893,40.223 29.41,39.541 29.261,38.841 C 28.737,36.39 27.853,34.71 31.327,31.611 C 32.897,30.211 36.717,27.506 36.772,24.664 C 36.791,23.651 36.947,16.172 37.242,15.744 L 37.336,15.744 C 37.397,15.316 38.468,13.697 38.65,13.068 C 38.014,13.108 37.535,13.092 37.121,13.057 C 35.84,12.949 31.255,13.777 28.604,14.336 Z" stroke-linejoin="round" stroke-linecap="round" stroke="none" fill="#ff9e9e" stroke-width="0" marker-start="none" marker-end="none" stroke-miterlimit="79.8403193612775"/>
    <path d="M 50.073,15.662 C 50.147,17.612 50.533,19.505 50.716,21.483" fill="none" stroke-linejoin="round" stroke-linecap="round" stroke="#000000" stroke-width="0.939" stroke-miterlimit="79.8403193612775"/>
    <path d="M 30.012,38.747 C 31.48,39.195 32.499,39.192 33.601,39.522" fill="none" stroke-linejoin="round" stroke-linecap="round" stroke="#000000" stroke-width="0.939" stroke-miterlimit="79.8403193612775"/>
    <path d="M 39.371,34.91 C 37.82,33.724 34.834,32.688 32.735,33.396" fill="none" stroke-linejoin="round" stroke-linecap="round" stroke="#000000" stroke-width="0.939" stroke-miterlimit="79.8403193612775"/>
    <path d="M 43.25,7.952 C 41.655,8.985 38.65,10.676 36.772,18.372" fill="none" stroke-linejoin="round" stroke-linecap="round" stroke="#000000" stroke-width="0.939" stroke-miterlimit="79.8403193612775"/>
    <path d="M 33.956,13.365 C 34.837,12.607 37.426,12.429 38.556,12.674" fill="none" stroke-linejoin="round" stroke-linecap="round" stroke="#000000" stroke-width="0.939" stroke-miterlimit="79.8403193612775"/>
    <path d="M 11.422,13.678 C 11.985,16.59 12.999,18.409 12.83,22.223" fill="none" stroke-linejoin="round" stroke-linecap="round" stroke="#000000" stroke-width="0.939" stroke-miterlimit="79.8403193612775"/>
    <path d="M 31.702,62.031 C 32.488,61.177 33.599,59.662 33.956,58.745" fill="none" stroke-linejoin="round" stroke-linecap="round" stroke="#000000" stroke-width="0.939" stroke-miterlimit="79.8403193612775"/>
    <path d="M 21.468,57.055 C 22.088,53.865 24.688,53.182 27.477,53.864" fill="none" stroke-linejoin="round" stroke-linecap="round" stroke="#000000" stroke-width="0.939" stroke-miterlimit="79.8403193612775"/>
    <path d="M 32.478,52.57 C 32.525,51.726 34.798,51.031 35.364,51.939" fill="none" stroke-linejoin="round" stroke-linecap="round" stroke="#000000" stroke-width="0.939" stroke-miterlimit="79.8403193612775"/>
    <path d="M 29.803,47.172 C 30.506,46.655 30.884,45.455 31.352,44.636" fill="none" stroke-linejoin="round" stroke-linecap="round" stroke="#000000" stroke-width="0.939" stroke-miterlimit="79.8403193612775"/>
    <path d="M 32.76,47.125 C 32.29,47.125 31.399,47.22 31.914,48.862 C 30.93,46.139 28.394,47.265 28.441,48.44" fill="none" stroke-linejoin="round" stroke-linecap="round" stroke="#000000" stroke-width="0.939" stroke-miterlimit="79.8403193612775"/>
    <path d="M 14.615,50.483 C 16.04,50.745 17.573,51.118 19.027,50.858" fill="none" stroke-linejoin="round" stroke-linecap="round" stroke="#000000" stroke-width="0.939" stroke-miterlimit="79.8403193612775"/>
    <path d="M 15.272,48.041 C 16.397,49.058 17.984,49.361 19.496,49.262" fill="none" stroke-linejoin="round" stroke-linecap="round" stroke="#000000" stroke-width="0.939" stroke-miterlimit="79.8403193612775"/>
    <path d="M 17.713,66.914 C 18.658,68.142 22.212,71.356 23.768,70.997 C 23.974,70.201 23.461,69.248 23.253,68.51 C 22.421,65.567 20.055,65.525 17.713,66.914 Z" stroke-linejoin="round" stroke-linecap="round" stroke="none" fill="#ff9e9e" stroke-width="0.469" marker-start="none" marker-end="none" stroke-miterlimit="79.8403193612775"/>
    <path d="M 35.059,57.899 C 34.548,58.089 34.581,58.952 34.675,59.434 C 35.19,59.909 37.345,60.964 38.181,60.811 C 38.504,60.046 35.852,58.327 35.201,57.865 C 35.148,57.871 35.101,57.883 35.059,57.899 Z" stroke-linejoin="round" stroke-linecap="round" stroke="none" fill="#ff9e9e" stroke-width="0.469" marker-start="none" marker-end="none" stroke-miterlimit="79.8403193612775"/>
   </g>
  </g>
 </g>
</svg>
