<?xml version="1.0" standalone="no"?>
<!DOCTYPE svg PUBLIC "-//W3C//DTD SVG 1.1//EN" "http://www.w3.org/Graphics/SVG/1.1/DTD/svg11.dtd">
<!--Generator: Xara Designer (www.xara.com), SVG filter version: 6.0.0.4-->
<svg stroke-width="0.501" stroke-linejoin="bevel" fill-rule="evenodd" xmlns:xlink="http://www.w3.org/1999/xlink" xmlns="http://www.w3.org/2000/svg" version="1.1" overflow="visible" width="75pt" height="75pt" viewBox="0 0 75 75">
 <defs>
	</defs>
 <g id="Document" fill="none" stroke="black" font-family="Times New Roman" font-size="16" transform="scale(1 -1)">
  <g id="Spread" transform="translate(0 -75)">
   <g id="Layer 1">
    <path d="M 57.197,11.925 C 52.856,7.332 47.07,6.592 43.113,6.488 C 36.351,6.311 25.261,6.708 22.811,12.631 C 21.901,14.833 22.643,19.708 19.271,19.502 C 18.502,19.455 17.666,19.399 17.085,18.877 C 15.982,17.886 15.923,15.993 16.043,14.609 C 16.564,8.674 21.371,5.353 26.664,3.157 C 31.411,1.185 39.578,0.325 45.896,1.077 C 50.269,1.597 53.361,2.825 56.44,4.406 C 58.614,5.522 60.955,7.358 62.478,9.507 C 64.282,12.052 65.291,15.985 65.81,18.252 C 66.723,22.236 65.543,31.593 63.937,34.807 C 61.75,39.179 59.961,42.006 55.399,44.801 C 53.71,45.837 50.362,47.636 48.632,48.758 C 47.564,49.451 46.271,50.007 45.508,51.048 C 44.036,53.057 43.01,56.254 43.113,58.129 C 43.341,62.235 44.362,68.747 43.113,71.142 C 41.802,73.655 37.267,68.322 36.034,66.874 C 35.753,67.052 26.884,68.897 25.934,68.956 C 25.272,70.383 24.803,73.27 23.539,74.057 C 21.01,75.638 16.663,63.089 16.356,59.273 C 15.653,50.531 18.022,48.653 20.313,46.676 C 21.256,45.861 22.389,45.188 22.29,43.968 C 21.367,32.529 28.178,31.032 28.225,20.023 C 27.826,18.447 25.285,17.495 24.788,15.442 C 24.255,13.232 27.199,12.156 29.441,12.638 C 29.355,12.262 29.764,12.217 30.075,11.874 C 31.863,9.902 36.464,10.399 38.288,12.94 C 41.627,11.934 47.745,12.042 50.754,12.839 C 50.884,12.399 51.202,12.165 51.755,11.901 C 52.14,11.547 52.726,11.502 53.24,11.458 C 54.563,11.343 56.529,11.451 57.197,11.925 Z" stroke-linejoin="round" stroke-linecap="round" fill="#f38123" stroke-width="1.005" marker-start="none" marker-end="none" stroke-miterlimit="79.8403193612775"/>
    <path d="M 16.543,14.652 C 16.421,16.062 16.524,17.697 17.42,18.503 C 17.848,18.887 18.491,18.95 19.301,19 C 20.617,19.08 21.142,18.25 21.475,16.853 C 21.728,15.788 21.817,14.5 22.051,13.425 L 22.334,12.477 L 21.632,12.215 C 20.437,11.912 18.958,11.926 18.037,10.812 L 17.839,10.518 L 17.622,10.859 C 17.044,11.987 16.666,13.244 16.543,14.652 Z" stroke-linejoin="round" stroke-linecap="round" stroke="none" fill="#ffd383" stroke-width="0" marker-start="none" marker-end="none" stroke-miterlimit="79.8403193612775"/>
    <path d="M 59.971,17.663 C 59.669,15.15 59.368,14.045 57.658,12.236" fill="none" stroke-linejoin="round" stroke-linecap="round" stroke-width="1.005" stroke-miterlimit="79.8403193612775"/>
    <path d="M 32.626,17.184 C 32.302,15.766 30.083,14.275 29.782,12.954" fill="none" stroke-linejoin="round" stroke-linecap="round" stroke-width="1.005" stroke-miterlimit="79.8403193612775"/>
    <path d="M 38.143,12.758 C 38.592,13.383 39.602,14.737 39.914,16.299" fill="none" stroke-linejoin="round" stroke-linecap="round" stroke-width="1.005" stroke-miterlimit="79.8403193612775"/>
    <path d="M 50.765,12.984 C 50.29,14.618 52.293,17.091 53.525,17.628 C 53.129,18.553 52.489,19.805 52.275,20.647" fill="none" stroke-linejoin="round" stroke-linecap="round" stroke-width="1.005" stroke-miterlimit="79.8403193612775"/>
    <path d="M 20.081,58.505 C 21.075,58.505 21.882,57.698 21.882,56.705 C 21.882,55.711 21.075,54.904 20.081,54.904 C 19.088,54.904 18.281,55.711 18.281,56.705 C 18.281,57.698 19.088,58.505 20.081,58.505 Z" stroke-linejoin="round" stroke-linecap="round" fill="#000000" stroke="none" stroke-width="1.218" marker-start="none" marker-end="none" stroke-miterlimit="79.8403193612775"/>
    <path d="M 35.944,56.39 C 36.985,56.39 37.831,55.545 37.831,54.504 C 37.831,53.463 36.985,52.617 35.944,52.617 C 34.903,52.617 34.057,53.462 34.057,54.503 C 34.057,55.544 34.903,56.39 35.944,56.39 Z" stroke-linejoin="round" stroke-linecap="round" fill="#000000" stroke="none" stroke-width="1.276" marker-start="none" marker-end="none" stroke-miterlimit="79.8403193612775"/>
    <path d="M 12.958,52.675 C 14.017,52.669 15.062,52.958 15.988,53.247" fill="none" stroke-linejoin="round" stroke-linecap="round" stroke-width="1.005" stroke-miterlimit="79.8403193612775"/>
    <path d="M 12.958,55.076 C 13.813,55.139 14.922,55.05 15.815,55.019" fill="none" stroke-linejoin="round" stroke-linecap="round" stroke-width="1.005" stroke-miterlimit="79.8403193612775"/>
    <path d="M 39.119,49.1 C 40.145,48.736 41.189,47.98 42.262,47.728" fill="none" stroke-linejoin="round" stroke-linecap="round" stroke-width="1.005" stroke-miterlimit="79.8403193612775"/>
    <path d="M 39.691,50.93 C 40.695,50.747 41.685,50.645 42.663,50.472" fill="none" stroke-linejoin="round" stroke-linecap="round" stroke-width="1.005" stroke-miterlimit="79.8403193612775"/>
    <path d="M 25.286,53.787 C 25.469,52.366 29.118,52.307 28.888,53.787 C 28.83,54.702 25.111,55.145 25.286,53.787 Z" stroke-linejoin="round" stroke-linecap="round" fill="#000000" stroke="none" stroke-width="1.005" marker-start="none" marker-end="none" stroke-miterlimit="79.8403193612775"/>
    <path d="M 31.203,26.815 C 27.869,30.048 24.246,40.386 26.872,43.956 C 28.382,46.011 30.098,45.216 31.31,43.956 C 33.156,42.034 34.193,38.254 34.396,35.755 C 34.631,32.876 35.093,28.042 33.483,26.494 C 33.461,26.473 33.483,26.43 33.483,26.398 C 33.026,26.142 32.507,25.895 31.861,26.269 C 31.639,26.422 31.418,26.604 31.203,26.815 Z" stroke-linejoin="round" stroke-linecap="round" fill="#ffd383" stroke="none" stroke-width="0.503" marker-start="none" marker-end="none" stroke-miterlimit="79.8403193612775"/>
    <path d="M 41.151,67.729 C 41.797,67.444 41.945,66.355 41.481,65.298 C 41.016,64.242 40.113,63.614 39.467,63.898 C 38.821,64.182 38.673,65.272 39.138,66.328 C 39.602,67.385 40.505,68.013 41.151,67.729 Z" stroke-linejoin="round" stroke-linecap="round" fill="#ffd383" stroke="none" stroke-width="0.503" marker-start="none" marker-end="none" stroke-miterlimit="79.8403193612775"/>
    <path d="M 22.444,70.807 C 22.801,70.523 22.81,69.54 22.464,68.615 C 22.118,67.69 21.546,67.17 21.189,67.455 C 20.832,67.739 20.823,68.722 21.169,69.647 C 21.515,70.572 22.087,71.092 22.444,70.807 Z" stroke-linejoin="round" stroke-linecap="round" fill="#ffd383" stroke="none" stroke-width="0.503" marker-start="none" marker-end="none" stroke-miterlimit="79.8403193612775"/>
   </g>
  </g>
 </g>
</svg>
