<?xml version="1.0" standalone="no"?>
<!DOCTYPE svg PUBLIC "-//W3C//DTD SVG 1.1//EN" "http://www.w3.org/Graphics/SVG/1.1/DTD/svg11.dtd">
<!--Generator: Xara Designer (www.xara.com), SVG filter version: 6.0.0.4-->
<svg stroke-width="0.501" stroke-linejoin="bevel" fill-rule="evenodd" xmlns:xlink="http://www.w3.org/1999/xlink" xmlns="http://www.w3.org/2000/svg" version="1.1" overflow="visible" width="75pt" height="75pt" viewBox="0 0 75 75">
 <defs>
	</defs>
 <g id="Document" fill="none" stroke="black" font-family="Times New Roman" font-size="16" transform="scale(1 -1)">
  <g id="Spread" transform="translate(0 -75)">
   <g id="Layer 1">
    <path d="M 52.169,17.949 C 53.631,17.061 55.565,12.91 56.372,10.879 C 57.379,8.348 58.734,0.143 54.271,0.774 C 52.626,1.006 52.908,3.364 52.42,5.271 C 51.878,7.394 50.199,11.443 47.911,12.454 C 47.681,12.292 47.451,12.146 47.222,12.014 C 44.364,10.369 40.304,10.039 37.476,10.782 C 37.471,9.259 39.172,5.42 36.397,5.331 C 33.893,5.252 31.487,11.394 31.672,14.534 C 29.808,16.619 28.583,19.478 28.636,23.242 C 28.672,25.846 29.019,27.587 29.635,29.896 C 29.782,30.446 29.837,30.659 30.001,31.084 C 29.986,32.048 29.741,32.588 29.181,33.464 C 28.143,33.472 26.259,34.594 25.402,35.387 C 24.171,36.528 22.503,38.975 21.963,40.546 C 20.315,45.336 20.817,48.307 22.335,51.24 C 23.45,53.393 24.811,55.161 26.586,56.43 C 21.875,60.907 30.152,65.791 27.363,70.055 C 25.49,72.913 23.113,66.515 21.631,68.947 C 20.053,71.531 24.206,75.294 27.647,74.549 C 29.169,74.22 30.679,72.992 31.233,71.529 C 32.17,69.049 31.892,67.73 30.058,63.66 C 29.262,61.893 28.165,60.468 29.951,58.032 C 30.845,58.346 31.78,58.619 32.777,58.763 C 38.995,59.653 45.603,58.209 48.997,52.514 C 52.19,47.154 51.654,42.843 50.964,37.622 C 50.93,37.357 49.957,33.828 49.946,33.816 C 50.664,33.626 51.118,32.422 51.441,31.585 C 52.706,28.312 53.339,24.993 52.982,21.167 C 52.881,20.064 52.576,18.958 52.169,17.949 Z" stroke-linejoin="round" stroke-linecap="round" fill="#f38123" stroke-width="0.712" marker-start="none" marker-end="none" stroke-miterlimit="79.8403193612775"/>
    <path d="M 33.348,8.875 L 33.089,9.52 L 33.144,9.548 C 33.522,9.762 33.894,9.964 34.234,10.05 C 34.821,10.198 35.744,10.212 36.686,10.072 L 37.208,9.965 L 37.34,9.251 C 37.456,8.669 37.582,8.048 37.62,7.494 C 37.694,6.379 37.457,5.721 36.385,5.686 C 35.395,5.655 34.255,6.925 33.348,8.875 Z" stroke-linejoin="round" stroke-linecap="round" stroke="none" fill="#ffd383" stroke-width="0" marker-start="none" marker-end="none" stroke-miterlimit="79.8403193612775"/>
    <path d="M 54.32,1.126 C 53.734,1.209 53.448,1.643 53.258,2.473 C 53.168,2.866 53.106,3.347 53.035,3.85 L 52.771,5.316 L 53.213,5.699 C 54.178,6.363 55.411,6.538 56.698,5.75 L 56.994,5.513 L 57.017,4.655 C 56.971,3.533 56.758,2.567 56.328,1.929 C 55.922,1.326 55.306,0.987 54.32,1.126 Z" stroke-linejoin="round" stroke-linecap="round" stroke="none" fill="#ffd383" stroke-width="0" marker-start="none" marker-end="none" stroke-miterlimit="79.8403193612775"/>
    <path d="M 26.685,56.387 C 27.675,57.095 28.763,57.66 29.943,58.076" fill="none" stroke-linejoin="round" stroke-linecap="round" stroke-width="0.712" stroke-miterlimit="79.8403193612775"/>
    <path d="M 52.193,17.981 C 51.252,15.647 49.623,13.662 47.91,12.453" fill="none" stroke-linejoin="round" stroke-linecap="round" stroke-width="0.712" stroke-miterlimit="79.8403193612775"/>
    <path d="M 37.476,10.782 C 36.9,10.934 36.374,11.13 35.921,11.369 C 34.34,12.201 32.864,13.254 31.66,14.602" fill="none" stroke-linejoin="round" stroke-linecap="round" stroke-width="0.712" stroke-miterlimit="79.8403193612775"/>
    <path d="M 49.946,33.817 C 49.229,34.007 47.676,31.323 46.739,29.442 C 44.064,30.711 37.875,30.514 34.719,28.989 C 33.715,30.207 32.295,33.613 31.025,33.216 C 30.649,32.567 30.354,32 30.095,31.333" fill="none" stroke-linejoin="round" stroke-linecap="round" stroke-width="0.712" stroke-miterlimit="79.8403193612775"/>
    <path d="M 28.984,33.856 C 28.264,34.985 27.353,36.024 26.92,36.93" fill="none" stroke-linejoin="round" stroke-linecap="round" stroke-width="0.712" stroke-miterlimit="79.8403193612775"/>
    <path d="M 36.63,36.1 C 38.394,37.319 41.47,37.61 43.443,36.815" fill="none" stroke-linejoin="round" stroke-linecap="round" stroke-width="0.712" stroke-miterlimit="79.8403193612775"/>
    <path d="M 34.374,39.847 C 36.559,41.695 41.196,41.912 43.737,41.017" fill="none" stroke-linejoin="round" stroke-linecap="round" stroke-width="0.712" stroke-miterlimit="79.8403193612775"/>
    <path d="M 33.67,44.123 C 36.032,45.878 39.462,46.027 42.244,45.372" fill="none" stroke-linejoin="round" stroke-linecap="round" stroke-width="0.712" stroke-miterlimit="79.8403193612775"/>
    <path d="M 25.257,19.789 C 26.249,19.68 27.849,19.205 28.843,18.976" fill="none" stroke-linejoin="round" stroke-linecap="round" stroke-width="0.712" stroke-miterlimit="79.8403193612775"/>
    <path d="M 25.387,17.941 C 25.954,18.03 28.973,17.778 29.446,17.928" fill="none" stroke-linejoin="round" stroke-linecap="round" stroke-width="0.712" stroke-miterlimit="79.8403193612775"/>
    <path d="M 52.744,19.736 C 54.093,19.85 55.385,20.217 56.5,20.283" fill="none" stroke-linejoin="round" stroke-linecap="round" stroke-width="0.712" stroke-miterlimit="79.8403193612775"/>
    <path d="M 52.635,18.408 C 53.835,18.408 55.585,18.647 56.634,18.55" fill="none" stroke-linejoin="round" stroke-linecap="round" stroke-width="0.712" stroke-miterlimit="79.8403193612775"/>
    <path d="M 35.562,18.165 C 36.301,17.975 36.801,17.433 36.679,16.957 C 36.556,16.481 35.856,16.249 35.117,16.439 C 34.378,16.63 33.878,17.171 34.001,17.647 C 34.124,18.123 34.823,18.356 35.562,18.165 Z" stroke-linejoin="round" stroke-linecap="round" stroke-width="0.712" stroke="none" fill="#000000" marker-start="none" marker-end="none" stroke-miterlimit="79.8403193612775"/>
    <path d="M 46.179,18.389 C 45.393,18.132 44.89,17.513 45.056,17.007 C 45.221,16.501 45.992,16.299 46.778,16.555 C 47.563,16.812 48.066,17.431 47.901,17.937 C 47.735,18.443 46.964,18.645 46.179,18.389 Z" stroke-linejoin="round" stroke-linecap="round" stroke-width="0.712" stroke="none" fill="#000000" marker-start="none" marker-end="none" stroke-miterlimit="79.8403193612775"/>
    <path d="M 41.079,14.848 C 41.825,14.871 42.441,14.554 42.454,14.14 C 42.467,13.725 41.872,13.37 41.126,13.346 C 40.381,13.322 39.764,13.639 39.751,14.054 C 39.738,14.468 40.333,14.824 41.079,14.848 Z" stroke-linejoin="round" stroke-linecap="round" stroke-width="0.712" stroke="none" fill="#000000" marker-start="none" marker-end="none" stroke-miterlimit="79.8403193612775"/>
    <path d="M 48.462,27.769 C 48.077,29.108 49.172,31.094 49.891,30.546 C 50.281,30.249 50.811,26.744 48.823,27.13 C 48.648,27.31 48.532,27.529 48.462,27.769 Z" stroke-linejoin="round" stroke-linecap="round" fill="#ffd383" stroke="none" stroke-width="0.356" marker-start="none" marker-end="none" stroke-miterlimit="79.8403193612775"/>
    <path d="M 31.173,25.991 C 30.8,26.856 30.608,29.13 31.636,29.621 C 32.266,29.316 33.854,26.243 31.173,25.991 Z" stroke-linejoin="round" stroke-linecap="round" fill="#ffd383" stroke="none" stroke-width="0.356" marker-start="none" marker-end="none" stroke-miterlimit="79.8403193612775"/>
   </g>
  </g>
 </g>
</svg>
