<?xml version="1.0" standalone="no"?>
<!DOCTYPE svg PUBLIC "-//W3C//DTD SVG 1.1//EN" "http://www.w3.org/Graphics/SVG/1.1/DTD/svg11.dtd">
<!--Generator: Xara Designer (www.xara.com), SVG filter version: 6.0.0.4-->
<svg stroke-width="0.501" stroke-linejoin="bevel" fill-rule="evenodd" xmlns:xlink="http://www.w3.org/1999/xlink" xmlns="http://www.w3.org/2000/svg" version="1.1" overflow="visible" width="75pt" height="75pt" viewBox="0 0 75 75">
 <defs>
	</defs>
 <g id="Document" fill="none" stroke="black" font-family="Times New Roman" font-size="16" transform="scale(1 -1)">
  <g id="Spread" transform="translate(0 -75)">
   <g id="Layer 1">
    <path d="M 36.185,15.023 C 32.387,13.757 28.474,14.17 25.254,16.585 C 21.52,19.385 18.597,25.617 19.164,30.405 C 19.339,31.877 20.787,33.857 21.897,34.465 C 22.078,35.191 21.615,39.689 21.819,41.57 C 22.834,50.939 25.076,54.675 28.767,60.464 C 30.112,62.573 31.891,64.464 33.741,66.266 C 35.079,68.496 35.898,71.017 37.903,72.644 C 39.013,73.546 39.71,72.421 40.091,71.498 C 42.394,72.91 45.044,74.145 46.803,74.284 C 48.254,74.398 50.231,73.965 49.536,72.254 C 49.479,72.113 46.969,69.919 45.632,68.819 C 44.305,67.726 44.113,66.38 43.758,65.618 C 45.827,65.385 47.356,64.475 48.818,63.79 C 50.056,64.46 50.494,64.933 51.626,65.714 C 52.775,67.981 54.401,71.314 56.329,70.614 C 58.34,69.884 56.296,60.937 54.768,56.014 C 53.892,53.194 51.097,49.377 49.536,48.206 C 49.251,48.232 46.701,45.321 45.945,43.678 C 45.239,42.144 44.415,39.012 44.539,37.276 C 45.181,37.123 45.46,36.615 46.022,36.104 C 49.577,32.873 51.378,26.314 49.224,21.816 C 46.917,16.998 43.524,17.834 41.494,16.976 C 44.199,15.187 44.762,10.066 43.758,6.435 C 42.388,1.479 37.114,0.099 32.984,1.516 C 31.499,2.025 27.674,4.952 29.392,6.904 C 30.511,8.174 31.574,7.426 32.281,6.591 C 33.139,5.576 34.675,5.274 34.779,5.264 C 37.98,4.952 39.239,6.188 39.698,9.168 C 39.991,11.07 38.023,15.264 36.185,15.023 Z" stroke-linejoin="round" stroke-linecap="round" fill="#15a2c5" stroke-width="0.781" marker-start="none" marker-end="none" stroke-miterlimit="79.8403193612775"/>
    <path d="M 33.11,1.885 C 32.442,2.114 31.169,2.93 30.278,3.928 C 29.355,4.963 29.043,5.916 29.685,6.645 C 30.166,7.192 30.566,7.246 30.889,7.159 C 31.265,7.058 31.642,6.74 31.982,6.338 C 32.918,5.231 34.528,4.904 34.723,4.876 C 35.138,4.835 35.528,4.819 35.892,4.829 L 35.93,4.834 L 36.181,3.937 C 36.305,3.218 36.27,2.504 36.052,1.868 L 35.81,1.409 L 34.647,1.499 C 34.125,1.584 33.61,1.713 33.11,1.885 Z" stroke-linejoin="round" stroke-linecap="round" stroke="none" fill="#74e3ff" stroke-width="0" marker-start="none" marker-end="none" stroke-miterlimit="79.8403193612775"/>
    <path d="M 52.794,67.083 L 53.022,67.512 C 54.07,69.348 55.118,70.637 56.195,70.246 C 56.434,70.16 56.689,69.738 56.758,68.691 C 56.79,68.203 56.779,67.632 56.731,67 L 56.602,65.907 L 55.839,66.095 C 55.253,66.252 54.597,66.45 53.898,66.683 L 52.794,67.083 Z M 42.943,72.595 L 43.804,73.009 C 44.944,73.498 46.004,73.828 46.833,73.894 C 47.526,73.949 48.297,73.866 48.793,73.607 C 49.165,73.411 49.38,73.134 49.251,72.63 L 49.189,72.446 L 49.154,72.409 C 48.835,72.088 47.561,70.964 46.428,69.998 L 46.415,69.987 L 45.175,70.719 C 44.261,71.323 43.495,71.945 42.967,72.561 L 42.943,72.595 Z" stroke-linejoin="round" stroke-linecap="round" stroke="none" fill="#74e3ff" stroke-width="0" marker-start="none" marker-end="none" stroke-miterlimit="79.8403193612775"/>
    <path d="M 43.681,65.646 C 43.185,65.656 42.118,66.086 41.045,66.046 C 40.932,68.136 40.786,69.588 40.167,71.395" fill="none" stroke-linejoin="round" stroke-linecap="round" stroke-width="0.781" stroke-miterlimit="79.8403193612775"/>
    <path d="M 51.566,65.656 C 52.063,65.724 52.211,65.784 52.737,65.812 C 55.619,65.974 51.857,58.875 51.176,57.693 C 51.331,56.443 51.41,55.194 50.785,53.476" fill="none" stroke-linejoin="round" stroke-linecap="round" stroke-width="0.781" stroke-miterlimit="79.8403193612775"/>
    <path d="M 27.707,40.17 C 29.078,41.11 33.109,41.031 34.64,40.316" fill="none" stroke-linejoin="round" stroke-linecap="round" stroke-width="0.781" stroke-miterlimit="79.8403193612775"/>
    <path d="M 27.348,44.759 C 30.527,45.233 32.48,45.427 35.53,44.238" fill="none" stroke-linejoin="round" stroke-linecap="round" stroke-width="0.781" stroke-miterlimit="79.8403193612775"/>
    <path d="M 29.627,49.295 C 32.334,49.518 34.246,49.247 36.653,47.986" fill="none" stroke-linejoin="round" stroke-linecap="round" stroke-width="0.781" stroke-miterlimit="79.8403193612775"/>
    <path d="M 21.975,34.621 C 21.811,33.486 22.918,29.768 23.458,28.843" fill="none" stroke-linejoin="round" stroke-linecap="round" stroke-width="0.781" stroke-miterlimit="79.8403193612775"/>
    <path d="M 44.461,37.276 C 42.58,37.144 42.401,33.464 43.134,32.201" fill="none" stroke-linejoin="round" stroke-linecap="round" stroke-width="0.781" stroke-miterlimit="79.8403193612775"/>
    <path d="M 51.369,54.789 C 51.579,54.714 52.446,54.361 52.59,54.368" fill="none" stroke-linejoin="round" stroke-linecap="round" stroke-width="0.781" stroke-miterlimit="79.8403193612775"/>
    <path d="M 51.386,56.268 C 51.904,56.037 52.405,56.056 52.934,56.078" fill="none" stroke-linejoin="round" stroke-linecap="round" stroke-width="0.781" stroke-miterlimit="79.8403193612775"/>
    <path d="M 28.878,64.396 C 29.424,64.096 30.241,63.553 30.742,63.431" fill="none" stroke-linejoin="round" stroke-linecap="round" stroke-width="0.781" stroke-miterlimit="79.8403193612775"/>
    <path d="M 30.155,65.618 C 30.658,65.389 31.488,64.547 31.891,64.525" fill="none" stroke-linejoin="round" stroke-linecap="round" stroke-width="0.781" stroke-miterlimit="79.8403193612775"/>
   </g>
  </g>
 </g>
</svg>
