<?xml version="1.0" standalone="no"?>
<!DOCTYPE svg PUBLIC "-//W3C//DTD SVG 1.1//EN" "http://www.w3.org/Graphics/SVG/1.1/DTD/svg11.dtd">
<!--Generator: Xara Designer (www.xara.com), SVG filter version: 6.0.0.4-->
<svg stroke-width="0.501" stroke-linejoin="bevel" fill-rule="evenodd" xmlns:xlink="http://www.w3.org/1999/xlink" xmlns="http://www.w3.org/2000/svg" version="1.1" overflow="visible" width="75pt" height="75pt" viewBox="0 0 75 75">
 <defs>
	</defs>
 <g id="Document" fill="none" stroke="black" font-family="Times New Roman" font-size="16" transform="scale(1 -1)">
  <g id="Spread" transform="translate(0 -75)">
   <g id="Layer 1">
    <path d="M 53.31,55.873 C 54.227,55.196 55.615,53.828 56.054,53.325 C 59.386,49.502 59.973,45.681 58.994,41.467 C 58.503,39.353 57.131,37.45 55.76,36.176 C 57.034,33.53 57.603,31.266 58.21,28.729 C 58.535,27.372 58.999,24.977 58.896,20.792 C 61.862,16.356 61.812,11.407 60.49,7.684 C 58.087,0.922 48.73,-1.478 43.488,4.695 C 43.244,4.633 40.517,3.902 40.572,3.643 C 40.474,2.565 39.396,1.193 37.926,0.998 C 35.528,0.678 33.516,2.075 32.537,3.349 C 31.066,3.741 27.832,3.643 24.403,5.113 C 13.33,10.209 10.649,19.4 13.233,27.455 C 14.898,32.648 16.838,35.409 18.328,39.508 C 19.203,41.915 19.808,44.129 20.581,46.857 C 21.276,49.372 22.24,55.297 22.629,57.821 C 23.072,61.423 23.271,64.371 23.423,65.573 C 23.831,68.805 24.305,73.903 26.363,73.903 C 27.656,74.312 30.826,68.822 30.968,67.925 C 33.712,68.807 39.931,68.768 42.923,67.827 C 43.119,67.995 46.451,74.687 48.411,74 C 49.87,73.489 50.468,68.611 51.351,64.005 C 51.72,62.346 53.12,57.97 53.31,55.873 Z" stroke-linejoin="round" stroke-linecap="round" fill="#95a5b6" stroke-width="0.98" marker-start="none" marker-end="none" stroke-miterlimit="79.8403193612775"/>
    <path d="M 32.925,3.647 C 32.859,3.733 32.767,3.794 32.663,3.822 L 32.153,3.926 L 31.655,4.82 C 32.537,5.8 33.418,6.779 35.868,7.563 C 36.498,7.764 37.883,8.89 38.464,8.642 C 39.266,8.199 40.217,6.618 40.636,5.045 L 40.771,4.351 L 40.649,4.301 C 40.527,4.244 40.424,4.188 40.349,4.133 C 40.341,4.126 40.09,3.961 40.08,3.671 L 40.016,3.35 C 39.771,2.543 38.937,1.625 37.861,1.483 C 35.69,1.194 33.835,2.463 32.925,3.647 Z" stroke-linejoin="round" stroke-linecap="round" stroke="none" fill="#deeaf6" stroke-width="0" marker-start="none" marker-end="none" stroke-miterlimit="79.8403193612775"/>
    <path d="M 49.488,55.579 C 49.665,56.493 50.557,56.742 51.672,56.595 L 52.747,56.349 L 52.821,55.828 C 52.834,55.689 52.906,55.561 53.018,55.478 C 53.9,54.827 55.262,53.486 55.684,53.002 C 56.086,52.54 56.447,52.079 56.768,51.618 L 56.786,51.589 L 56.415,51.128 C 55.061,49.916 52.391,49.212 51.154,49.21 C 49.746,50.958 48.975,52.933 49.488,55.579 Z" stroke-linejoin="round" stroke-linecap="round" stroke="none" fill="#deeaf6" stroke-width="0" marker-start="none" marker-end="none" stroke-miterlimit="79.8403193612775"/>
    <path d="M 49.502,13.92 C 49.555,13.941 49.606,13.962 49.657,13.984 C 50.879,14.504 51.576,15.257 53.017,15.408 C 54.199,15.531 54.772,15.265 55.348,14.242 C 57.006,11.295 53.003,7.262 50.468,7.76 C 48.248,8.194 48.973,12.314 49.502,13.92 Z" stroke-linejoin="round" stroke-linecap="round" stroke="none" fill="#deeaf6" stroke-width="0" marker-start="none" marker-end="none" stroke-miterlimit="79.8403193612775"/>
    <path d="M 33.599,19.02 C 32.604,21.136 31.438,24.027 31.066,25.104 C 29.577,29.422 27.312,38.249 33.908,40.354 C 36.502,41.182 43.484,40.861 44.295,37.646 C 45.611,32.435 45.204,27.679 43.707,22.556 C 43.305,21.179 41.704,17.017 40.669,16.063 C 40.645,16.04 40.636,16.005 40.62,15.978 C 37.471,12.907 35.148,15.725 33.599,19.02 Z" stroke-linejoin="round" stroke-linecap="round" fill="#deeaf6" stroke="none" stroke-width="0.49" marker-start="none" marker-end="none" stroke-miterlimit="79.8403193612775"/>
    <path d="M 32.826,3.061 C 28.616,6.485 24.207,12.365 22.835,17.852" fill="none" stroke-linejoin="round" stroke-linecap="round" stroke-width="0.98" stroke-miterlimit="79.8403193612775"/>
    <path d="M 40.572,4.035 C 40.643,5.13 38.624,9.136 37.827,10.307 C 36.162,12.757 34.692,15.99 32.83,20.204" fill="none" stroke-linejoin="round" stroke-linecap="round" stroke-width="0.98" stroke-miterlimit="79.8403193612775"/>
    <path d="M 21.292,55.465 C 21.55,55.032 21.845,54.622 22.171,54.239 C 24.394,51.641 28.106,50.342 31.85,52.125 C 33.349,52.839 37.325,55.38 35.727,57.189 C 34.924,58.098 21.974,57.981 20.861,56.973 C 20.713,56.677 21.086,55.809 21.292,55.465 Z" stroke-linejoin="round" stroke-linecap="round" fill="#000000" stroke-width="0.98" stroke="#000000" marker-start="none" marker-end="none" stroke-miterlimit="79.8403193612775"/>
    <path d="M 53.383,55.465 C 51.373,52.091 47.122,50.081 42.826,52.125 C 41.327,52.84 37.351,55.381 38.948,57.189 C 39.751,58.099 52.702,57.982 53.814,56.974 C 53.962,56.678 53.589,55.81 53.383,55.465 Z" stroke-linejoin="round" stroke-linecap="round" fill="#000000" stroke-width="0.98" stroke="#000000" marker-start="none" marker-end="none" stroke-miterlimit="79.8403193612775"/>
    <path d="M 49.538,52.002 C 51.291,49.338 51.653,47.332 50.322,44.554" fill="none" stroke-linejoin="round" stroke-linecap="round" stroke-width="0.98" stroke-miterlimit="79.8403193612775"/>
    <path d="M 36.161,56.558 L 38.529,56.558" fill="none" stroke-linejoin="round" stroke-linecap="round" stroke-width="0.98" stroke-miterlimit="79.8403193612775"/>
    <path d="M 37.485,53.128 C 38.648,53.128 39.592,52.623 39.592,52.001 C 39.592,51.38 38.648,50.875 37.485,50.875 C 36.322,50.875 35.378,51.38 35.378,52.001 C 35.378,52.623 36.322,53.128 37.485,53.128 Z" stroke-linejoin="round" stroke-linecap="round" stroke-width="0.98" stroke="none" fill="#000000" marker-start="none" marker-end="none" stroke-miterlimit="79.8403193612775"/>
    <path d="M 36.26,38.234 C 35.785,38.056 34.039,39.328 34.006,40.683 C 35.018,41.765 38.988,41.634 40.082,40.782 C 40.18,39.508 39.2,38.528 38.219,38.234 C 38.343,37.356 41.624,31.934 41.257,30.101 C 40.964,28.631 39.313,25.966 38.184,26.127 C 37.792,26.184 37.331,26.418 36.75,26.867 C 35.803,27.597 34.79,28.827 34.3,29.708 C 34.156,30.592 35.946,36.421 36.211,37.351 L 36.26,38.234 Z" stroke-linejoin="round" stroke-linecap="round" fill="#000000" stroke-width="0.98" stroke="#000000" marker-start="none" marker-end="none" stroke-miterlimit="79.8403193612775"/>
    <path d="M 48.215,10.404 C 47.243,11.169 46.975,13.122 48.192,13.416 C 49.613,13.759 50.062,12.459 48.999,11.189 C 46.819,8.584 52.993,4.548 55.198,10.379 C 56.506,13.838 53.63,19.05 48.976,19.1 C 40.348,19.19 39.765,9.742 43.609,4.623" fill="none" stroke-linejoin="round" stroke-linecap="round" stroke-width="0.98" stroke-miterlimit="79.8403193612775"/>
    <path d="M 16.858,51.659 C 17.902,51.322 20.349,50.988 21.463,50.875" fill="none" stroke-linejoin="round" stroke-linecap="round" stroke-width="0.98" stroke-miterlimit="79.8403193612775"/>
    <path d="M 16.564,48.817 C 17.742,48.844 19.7,48.817 20.778,49.012" fill="none" stroke-linejoin="round" stroke-linecap="round" stroke-width="0.98" stroke-miterlimit="79.8403193612775"/>
    <path d="M 26.063,65.876 C 27.296,66.891 26.768,69.259 25.873,70.18 C 24.916,69.519 24.821,66.797 24.942,65.427 C 25.416,65.486 25.784,65.647 26.063,65.876 Z" stroke-linejoin="round" stroke-linecap="round" fill="#deeaf6" stroke="none" stroke-width="0.49" marker-start="none" marker-end="none" stroke-miterlimit="79.8403193612775"/>
    <path d="M 47.986,66.031 C 46.503,66.91 46.823,69.74 48.117,70.572 C 48.683,70.078 49.013,66.694 48.901,65.769 C 48.615,65.926 48.31,66.014 47.986,66.031 Z" stroke-linejoin="round" stroke-linecap="round" fill="#deeaf6" stroke="none" stroke-width="0.49" marker-start="none" marker-end="none" stroke-miterlimit="79.8403193612775"/>
   </g>
  </g>
 </g>
</svg>
