<?xml version="1.0" standalone="no"?>
<!DOCTYPE svg PUBLIC "-//W3C//DTD SVG 1.1//EN" "http://www.w3.org/Graphics/SVG/1.1/DTD/svg11.dtd">
<!--Generator: Xara Designer (www.xara.com), SVG filter version: 6.0.0.4-->
<svg stroke-width="0.501" stroke-linejoin="bevel" fill-rule="evenodd" xmlns:xlink="http://www.w3.org/1999/xlink" xmlns="http://www.w3.org/2000/svg" version="1.1" overflow="visible" width="75pt" height="75pt" viewBox="0 0 75 75">
 <defs>
	</defs>
 <g id="Document" fill="none" stroke="black" font-family="Times New Roman" font-size="16" transform="scale(1 -1)">
  <g id="Spread" transform="translate(0 -75)">
   <g id="Layer 1">
    <path d="M 49.217,20.29 C 51.436,21.467 54.133,23.416 54.554,23.661 C 57.346,25.29 60.822,24.388 61.466,22.006 C 61.941,20.248 61.24,18.416 61.832,17.36 C 62.796,15.641 64.75,16.2 65.914,16.916 C 67.068,17.626 67.736,18.965 67.879,20.865 C 67.993,22.395 67.604,24.239 66.833,25.568 C 66.092,26.847 64.696,27.848 63.556,28.418 C 63.37,28.512 63.67,28.346 63.607,28.543 C 64.762,29.277 67.424,32.537 68.222,34.313 C 69.11,36.087 70.286,39.844 70.353,41.679 C 70.885,48.514 69.03,53.148 66.358,56.946 C 65.399,58.311 60.161,63.538 58.548,62.982 C 56.836,62.391 58.157,60.035 57.66,58.366 C 56.236,58.098 52.349,56.238 51.447,56.414 C 50.085,57.067 41.148,61.024 42.749,57.39 C 43.943,54.679 45.363,50.734 43.636,47.271 C 42.524,45.041 40.301,41.32 38.399,39.727 C 36.224,37.904 33.759,35.447 30.944,34.135 C 27.282,32.428 22.849,31.383 19.14,31.383 C 16.654,31.383 11.595,32.893 11.862,36.443 C 12.063,39.135 14.258,41.502 19.228,43.188 C 22.506,44.3 27.415,46.964 25.797,51.354 C 25.488,52.191 24.09,52.749 23.222,52.419 C 22.271,52.057 22.017,50.078 21.891,49.668 C 21.51,48.424 18.873,47.36 16.477,46.472 C 14.17,45.618 12.485,44.402 10.264,42.478 C 6.901,39.565 6.926,34.173 9.198,31.206 C 10.397,29.64 13.161,28.437 14.702,27.567 C 13.337,26.705 10.908,25.577 9.642,24.549 C 7.6,22.892 0.081,17.199 0.944,13.544 C 1.58,10.851 5.675,9.358 7.246,11.147 C 7.801,11.78 7.451,13.225 6.536,13.366 C 6.347,14.105 7.496,15.194 8.311,15.762 C 9.955,16.908 12.84,17.112 14.08,17.449 C 16.4,18.079 20.524,18.191 22.956,17.715 C 25.283,15.711 25.99,13.394 27.572,11.502 C 27.699,11.35 28.4,10.659 28.548,10.526 C 30.05,9.475 31.235,8.743 33.163,9.638 C 35.209,10.588 29.976,13.954 31.736,16.584 C 35.797,16.436 38.888,16.967 41.772,17.626 C 41.231,13.553 40.928,8.362 45.5,9.106 C 49.317,9.727 46.242,12.963 46.21,13.277 C 46.065,14.688 48.331,19.409 49.217,20.29 Z" stroke-linejoin="round" stroke-linecap="round" fill="#15a2c5" stroke-width="0.95" marker-start="none" marker-end="none" stroke-miterlimit="79.8403193612775"/>
    <path d="M 29.551,17.155 C 28.246,17.36 26.06,17.574 23.892,17.689 L 23.658,17.699 L 23.265,18.074 L 23.063,18.173 L 23.953,18.209 C 24.608,18.243 25.271,18.294 25.94,18.39 C 28.673,18.779 34.366,19.011 37.151,19.91 C 39.722,20.739 46.652,24.375 51.307,25.135 C 53.45,25.423 55.078,25.377 56.338,25.142 L 56.612,25.072 L 56.747,25.101 C 56.904,25.114 57.045,25.102 57.168,25.061 L 57.374,24.922 L 57.229,24.914 L 56.612,25.072 L 56.231,24.99 C 55.858,24.871 55.43,24.663 54.962,24.395 L 54.788,24.288 L 54.314,24.071 C 53.849,23.8 51.195,21.876 48.994,20.709 C 48.953,20.687 48.915,20.659 48.882,20.626 C 48.752,20.497 48.603,20.308 48.444,20.073 L 48.31,19.857 L 47.734,19.495 C 47.24,19.217 46.778,18.998 46.367,18.865 C 45.297,18.517 44.002,18.19 42.59,17.907 L 42.187,17.836 L 42.091,17.976 C 41.982,18.076 41.827,18.125 41.666,18.089 C 38.805,17.435 35.758,16.912 31.753,17.058 C 31.67,17.061 31.59,17.042 31.519,17.006 L 31.466,16.959 L 31.439,16.96 C 30.768,16.999 30.134,17.063 29.551,17.155 Z" stroke-linejoin="round" stroke-linecap="round" stroke="none" fill="#74e3ff" stroke-width="0" marker-start="none" marker-end="none" stroke-miterlimit="79.8403193612775"/>
    <path d="M 58.1,29.437 C 58.119,29.496 58.147,29.552 58.181,29.607 C 58.293,29.788 58.474,29.948 58.617,30.092 C 61.66,33.143 64.866,37.205 67.838,35.301 L 68.059,35.099 L 67.792,34.516 C 67.019,32.794 64.407,29.614 63.352,28.943 L 63.228,28.836 C 63.136,28.768 63.07,28.673 63.04,28.567 L 63.062,28.363 L 62.868,28.405 C 61.074,28.857 59.218,29.489 58.1,29.437 Z" stroke-linejoin="round" stroke-linecap="round" stroke="none" fill="#74e3ff" stroke-width="0" marker-start="none" marker-end="none" stroke-miterlimit="79.8403193612775"/>
    <path d="M 31.546,16.699 C 28.98,16.793 26.157,17.106 23.045,17.715" fill="none" stroke-linejoin="round" stroke-linecap="round" stroke-width="0.95" stroke-miterlimit="79.8403193612775"/>
    <path d="M 49.119,20.116 C 48.802,19.948 48.497,19.799 48.212,19.678 C 46.448,18.927 44.37,18.177 41.905,17.614" fill="none" stroke-linejoin="round" stroke-linecap="round" stroke-width="0.95" stroke-miterlimit="79.8403193612775"/>
    <path d="M 58.193,29.342 C 60.04,28.959 61.834,29.511 63.607,28.366" fill="none" stroke-linejoin="round" stroke-linecap="round" stroke-width="0.95" stroke-miterlimit="79.8403193612775"/>
    <path d="M 52.424,44.786 C 53.099,47.662 55.281,47.94 57.66,47.36" fill="none" stroke-linejoin="round" stroke-linecap="round" stroke-width="0.95" stroke-miterlimit="79.8403193612775"/>
    <path d="M 63.252,49.579 C 64.039,51.203 66.399,52.183 67.778,50.644" fill="none" stroke-linejoin="round" stroke-linecap="round" stroke-width="0.95" stroke-miterlimit="79.8403193612775"/>
    <path d="M 59.702,44.697 C 61.321,43.416 62.071,44.856 62.542,45.851 C 63.371,45.292 65.085,45.494 64.672,46.827" fill="none" stroke-linejoin="round" stroke-linecap="round" stroke-width="0.95" stroke-miterlimit="79.8403193612775"/>
    <path d="M 70.264,48.958 C 71.232,49.41 72.481,49.837 73.637,49.668" fill="none" stroke-linejoin="round" stroke-linecap="round" stroke-width="0.95" stroke-miterlimit="79.8403193612775"/>
    <path d="M 70.619,47.271 C 71.404,47.415 73.862,47.456 74.525,47.182" fill="none" stroke-linejoin="round" stroke-linecap="round" stroke-width="0.95" stroke-miterlimit="79.8403193612775"/>
    <path d="M 50.116,38.928 C 50.709,39.654 52.716,41.216 53.488,41.413" fill="none" stroke-linejoin="round" stroke-linecap="round" stroke-width="0.95" stroke-miterlimit="79.8403193612775"/>
    <path d="M 52.246,37.153 C 53.199,37.977 53.552,38.918 54.731,39.815" fill="none" stroke-linejoin="round" stroke-linecap="round" stroke-width="0.95" stroke-miterlimit="79.8403193612775"/>
    <path d="M 47.537,51.68 C 46.857,52.206 46.323,53.509 46.367,54.587 C 47.166,55.31 49.55,52.979 49.122,52.212 C 48.63,51.33 48.043,51.29 47.537,51.68 Z" stroke-linejoin="round" stroke-linecap="round" fill="#74e3ff" stroke="none" stroke-width="0.475" marker-start="none" marker-end="none" stroke-miterlimit="79.8403193612775"/>
    <path d="M 61.637,57.516 C 60.723,58.327 60.371,60.09 60.998,60.192 C 61.662,60.3 63.522,58.028 63.658,57.532 C 62.855,56.901 62.155,57.055 61.637,57.516 Z" stroke-linejoin="round" stroke-linecap="round" fill="#74e3ff" stroke="none" stroke-width="0.475" marker-start="none" marker-end="none" stroke-miterlimit="79.8403193612775"/>
   </g>
  </g>
 </g>
</svg>
