<?xml version="1.0" standalone="no"?>
<!DOCTYPE svg PUBLIC "-//W3C//DTD SVG 1.1//EN" "http://www.w3.org/Graphics/SVG/1.1/DTD/svg11.dtd">
<!--Generator: Xara Designer (www.xara.com), SVG filter version: 6.0.0.4-->
<svg stroke-width="0.501" stroke-linejoin="bevel" fill-rule="evenodd" xmlns:xlink="http://www.w3.org/1999/xlink" xmlns="http://www.w3.org/2000/svg" version="1.1" overflow="visible" width="75pt" height="75pt" viewBox="0 0 75 75">
 <defs>
	</defs>
 <g id="Document" fill="none" stroke="black" font-family="Times New Roman" font-size="16" transform="scale(1 -1)">
  <g id="Spread" transform="translate(0 -75)">
   <g id="Layer 1">
    <path d="M 31.626,3.697 C 31.863,3.209 31.872,2.96 31.798,2.463 C 31.492,0.422 27.836,0.655 25.768,1.516 C 21.669,3.223 18.054,4.629 14.053,8.407 C 12.502,9.872 8.454,13.661 6.732,19.26 C 4.146,27.666 5.717,35.156 8.886,44.842 C 11.9,54.059 18.358,61.611 26.776,64.593 C 30.591,65.946 37.895,66.697 43.943,63.966 C 48.458,66.143 51.954,66.894 59.274,64.137 C 62.222,63.028 67.201,64.634 65.994,69.218 C 65.563,70.855 63.841,69.995 63.064,71.63 C 62.077,73.715 64.805,74.671 66.682,73.784 C 68.219,73.057 70.3,70.597 70.127,66.894 C 70.011,64.369 67.728,60.98 64.442,60.088 C 58.413,58.453 51.607,64.223 47.817,60.95 C 48.938,60.088 50.973,56.661 51.349,55.695 C 52.668,52.31 53.847,49.236 53.847,45.618 C 53.847,41.88 52.683,37.294 50.748,34.851 C 49.817,33.893 50.661,30.889 47.905,29.338 C 47.233,28.96 46.455,28.963 45.579,29.423 C 44.401,30.044 43.604,32.524 44.891,33.644 C 41.306,32.623 36.464,26.051 35.329,22.19 C 34.468,19.26 33.865,16.16 34.468,11.423 C 34.838,8.513 37.24,5.698 36.018,3.584 C 35.17,2.116 33.151,2.617 31.626,3.697 Z" stroke-linejoin="round" stroke-linecap="round" stroke-width="0.916" fill="#15a2c5" marker-start="none" marker-end="none" stroke-miterlimit="79.8403193612775"/>
    <path d="M 25.944,1.938 L 23.278,3.063 L 23.997,3.866 C 26.447,6.306 30.59,8.077 34.104,8.388 L 34.872,8.42 L 35.361,7.162 C 35.85,5.88 36.157,4.74 35.621,3.813 C 34.93,2.617 33.148,3.179 31.89,4.07 C 31.506,4.343 31.008,3.92 31.214,3.496 C 31.402,3.108 31.407,2.951 31.345,2.53 C 31.119,1.028 27.963,1.097 25.944,1.938 Z" stroke-linejoin="round" stroke-linecap="round" stroke="none" fill="#74e3ff" stroke-width="0" marker-start="none" marker-end="none" stroke-miterlimit="79.8403193612775"/>
    <path d="M 45.792,29.828 C 44.836,30.331 44.212,32.446 45.191,33.298 C 45.282,33.378 45.331,33.475 45.345,33.574 L 45.316,33.727 L 45.761,34.009 C 46.657,34.492 47.669,34.952 48.51,35.658 C 49.029,36.264 49.691,36.557 50.381,36.579 L 51.225,36.445 L 51.047,36.103 C 50.839,35.75 50.619,35.425 50.388,35.134 L 50.227,34.93 C 49.383,33.645 50.103,31.1 47.68,29.737 C 47.168,29.449 46.557,29.426 45.792,29.828 Z" stroke-linejoin="round" stroke-linecap="round" stroke="none" fill="#74e3ff" stroke-width="0" marker-start="none" marker-end="none" stroke-miterlimit="79.8403193612775"/>
    <path d="M 45.199,33.948 L 45.277,34.003 C 46.046,34.448 46.925,34.838 47.713,35.355 L 48.357,35.829 L 48.555,36.039 C 49.138,36.598 49.843,36.839 50.561,36.811 L 51.326,36.641 L 51.11,36.224 L 50.403,36.336 C 49.758,36.317 49.14,36.045 48.66,35.485 C 47.828,34.786 46.89,34.335 46.054,33.898 L 45.269,33.439 L 45.345,33.574 C 45.358,33.673 45.338,33.774 45.291,33.86 L 45.199,33.948 Z" stroke="none" stroke-linejoin="round" stroke-linecap="round" stroke-width="0" fill="#74e3ff" marker-start="none" marker-end="none" stroke-miterlimit="79.8403193612775"/>
    <path d="M 66.384,66.442 L 66.517,66.836 C 66.69,67.561 66.683,68.394 66.436,69.334 C 66.156,70.398 65.399,70.66 64.803,70.859 C 64.219,71.054 63.775,71.199 63.477,71.826 C 63.102,72.618 63.406,73.119 64,73.41 C 64.661,73.734 65.666,73.757 66.486,73.369 C 67.851,72.724 69.834,70.439 69.669,66.915 C 69.655,66.623 69.61,66.317 69.535,66.004 L 69.49,65.869 L 70.272,65.885 C 69.166,65.748 68.027,65.831 67.002,66.182 L 66.384,66.442 Z" stroke-linejoin="round" stroke-linecap="round" stroke="none" fill="#74e3ff" stroke-width="0" marker-start="none" marker-end="none" stroke-miterlimit="79.8403193612775"/>
    <path d="M 27.232,9.698 C 27.794,7.709 30.696,5.604 31.626,3.697" fill="none" stroke-linejoin="round" stroke-linecap="round" stroke-width="0.916" stroke-miterlimit="79.8403193612775"/>
    <path d="M 8.497,30.34 C 8.939,33.851 11.172,38.963 12.514,39.051 C 14.291,39.164 14.969,35.849 15.475,34.091 C 18.77,35.336 23.581,34.736 27.379,33.548 C 27.447,33.736 31.271,38.062 32.177,37.623 C 33.621,36.926 33.69,31.462 33.848,29.095" fill="none" stroke-linejoin="round" stroke-linecap="round" stroke-width="0.916" stroke-miterlimit="79.8403193612775"/>
    <path d="M 19.221,9.441 C 21.633,8.752 25.479,9.07 27.919,10.764 C 29.501,11.86 31.305,13.449 31.71,15.299" fill="none" stroke-linejoin="round" stroke-linecap="round" stroke-width="0.916" stroke-miterlimit="79.8403193612775"/>
    <path d="M 44.545,33.644 C 45.741,34.124 47.708,35.009 48.335,36.228" fill="none" stroke-linejoin="round" stroke-linecap="round" stroke-width="0.916" stroke-miterlimit="79.8403193612775"/>
    <path d="M 11.426,17.846 C 12.689,15.398 16.301,15.277 17.375,17.507" fill="none" stroke-linejoin="round" stroke-linecap="round" stroke-width="0.916" stroke-miterlimit="79.8403193612775"/>
    <path d="M 26.251,18.669 C 27.858,16.857 31.333,17.111 32.109,19.585" fill="none" stroke-linejoin="round" stroke-linecap="round" stroke-width="0.916" stroke-miterlimit="79.8403193612775"/>
    <path d="M 20.928,16.524 C 21.283,15.316 24.459,15.773 24.053,17.024 C 23.876,17.811 20.586,17.676 20.928,16.524 Z" stroke-linejoin="round" stroke-linecap="round" stroke-width="0.916" fill="#000000" stroke="none" marker-start="none" marker-end="none" stroke-miterlimit="79.8403193612775"/>
    <path d="M 8.497,14.369 C 7.273,13.746 5.047,12.506 4.379,11.438" fill="none" stroke-linejoin="round" stroke-linecap="round" stroke-width="0.916" stroke-miterlimit="79.8403193612775"/>
    <path d="M 9.687,12.996 C 8.541,12.254 6.137,10.599 5.935,9.059" fill="none" stroke-linejoin="round" stroke-linecap="round" stroke-width="0.916" stroke-miterlimit="79.8403193612775"/>
    <path d="M 34.397,17.022 C 35.939,17.214 37.769,16.398 39.249,16.199" fill="none" stroke-linejoin="round" stroke-linecap="round" stroke-width="0.916" stroke-miterlimit="79.8403193612775"/>
    <path d="M 34.488,18.579 C 35.1,18.983 38.928,19.092 39.705,18.852" fill="none" stroke-linejoin="round" stroke-linecap="round" stroke-width="0.916" stroke-miterlimit="79.8403193612775"/>
    <path d="M 10.472,30.909 C 10.68,32.185 10.759,34.698 12.159,34.654 C 12.867,33.665 12.746,30.764 12.159,29.895 C 11.064,29.797 10.934,30.192 10.42,30.629 C 10.438,30.712 10.457,30.806 10.472,30.909 Z" stroke-linejoin="round" stroke-linecap="round" fill="#74e3ff" stroke="none" stroke-width="0.458" marker-start="none" marker-end="none" stroke-miterlimit="79.8403193612775"/>
    <path d="M 30.544,29.908 C 30.351,31.316 30.829,33.203 31.743,33.099 C 32.817,32.004 32.164,29.684 31.972,28.477 C 31.128,28.196 30.677,28.941 30.544,29.908 Z" stroke-linejoin="round" stroke-linecap="round" fill="#74e3ff" stroke="none" stroke-width="0.458" marker-start="none" marker-end="none" stroke-miterlimit="79.8403193612775"/>
   </g>
  </g>
 </g>
</svg>
