<?xml version="1.0" standalone="no"?>
<!DOCTYPE svg PUBLIC "-//W3C//DTD SVG 1.1//EN" "http://www.w3.org/Graphics/SVG/1.1/DTD/svg11.dtd">
<!--Generator: Xara Designer (www.xara.com), SVG filter version: 6.0.0.4-->
<svg stroke-width="0.501" stroke-linejoin="bevel" fill-rule="evenodd" xmlns:xlink="http://www.w3.org/1999/xlink" xmlns="http://www.w3.org/2000/svg" version="1.1" overflow="visible" width="75pt" height="75pt" viewBox="0 0 75 75">
 <defs>
	</defs>
 <g id="Document" fill="none" stroke="black" font-family="Times New Roman" font-size="16" transform="scale(1 -1)">
  <g id="Spread" transform="translate(0 -75)">
   <g id="Layer 1">
    <path d="M 39.243,27.541 C 39.501,26.554 41.181,25.228 45.661,22.772 C 48.394,21.274 53.127,19.3 52.388,18.335 C 51.566,17.26 47.21,16.282 46.997,16.232 C 46.26,14.792 41.35,7.07 41.406,6.481 C 41.511,5.187 43.335,2.432 42.454,1.89 C 39.627,0.15 28.849,6.536 26.349,8.272 C 25.113,9.129 20.514,11.759 20.013,12.528 C 22.769,8.387 23.858,3.665 20.213,1.455 C 16.238,-0.953 10.26,4.836 16.351,6.629 C 16.353,8.715 14.696,11.41 13.47,13.247 C 11.04,16.894 12.377,20.122 13.449,21.789 C 12.292,24.138 10.796,26.705 10.012,28.744 C 8.552,32.539 7.841,35.826 7.707,39.362 C 7.643,43.342 8.122,47.305 9.426,51.685 C 11.887,59.955 18.5,66.945 30.284,71.954 C 34.152,73.493 38.197,74.866 40.473,73.666 C 40.746,73.522 42.168,72.886 41.603,71.487 C 40.535,68.839 33.149,69.836 32.418,65.601 C 32.621,65.413 36.088,63.406 36.506,63.325 C 40.878,66.133 45.555,70.459 55.552,69.179 C 60.038,68.606 64.846,66.177 67.366,62.402 C 69.621,59.023 71.658,53.224 68.915,50.313 C 68.192,49.544 67.568,49.601 66.905,49.894 C 66.322,50.152 66.158,49.93 65.817,50.79 C 64.946,52.985 64.972,57.033 63.159,59.438 C 60.609,62.823 57.721,64.324 54.32,64.611 C 49.431,65.023 44.971,64.724 40.551,59.41 C 41.457,57.935 42.148,57.728 42.971,56.085 C 43.732,54.568 46.077,54.42 48.066,55.762 C 49.508,56.736 51.532,56.793 52.712,55.791 C 53.37,55.234 53.572,54.053 53.117,53.235 C 50.9,49.253 43.789,49.234 40.984,50.046 C 38.456,47.812 37.193,45.086 36.553,42.131 C 36.07,39.901 35.877,37.217 37.128,35.309 C 37.968,34.026 39.663,33.334 41.181,33.128 C 42.736,32.917 45.415,33.409 45.772,34.177 C 45.847,34.339 44.722,35.845 46.044,36.658 C 47.795,37.735 49.361,36.379 50.005,35.311 C 51.227,33.291 50.113,31.256 48.449,29.864 C 45.564,27.453 40.858,27.273 39.243,27.541 Z" stroke-linejoin="round" stroke-linecap="round" fill="#525252" stroke-width="1.015" marker-start="none" marker-end="none" stroke-miterlimit="79.8403193612775"/>
    <path d="M 39.988,22.137 C 39.372,22.516 38.469,22.169 37.973,21.363 C 37.476,20.557 37.572,19.594 38.187,19.215 C 38.802,18.836 39.705,19.183 40.202,19.989 C 40.699,20.795 40.603,21.758 39.988,22.137 Z" stroke-linejoin="round" stroke-linecap="round" stroke-width="1.015" stroke="none" fill="#000000" marker-start="none" marker-end="none" stroke-miterlimit="79.8403193612775"/>
    <path d="M 33.885,12.304 C 33.269,12.683 32.366,12.336 31.87,11.53 C 31.373,10.724 31.469,9.761 32.084,9.382 C 32.699,9.003 33.602,9.35 34.099,10.156 C 34.596,10.962 34.5,11.925 33.885,12.304 Z" stroke-linejoin="round" stroke-linecap="round" stroke-width="1.015" stroke="none" fill="#000000" marker-start="none" marker-end="none" stroke-miterlimit="79.8403193612775"/>
    <path d="M 28.221,7.014 C 28.132,6.823 28.128,6.641 28.207,6.469 C 27.566,5.411 27.478,4.206 26.837,3.148" fill="none" stroke-linejoin="round" stroke-linecap="round" stroke-width="1.015" stroke-miterlimit="79.8403193612775"/>
    <path d="M 26.742,8.09 C 25.97,6.883 25.045,5.881 24.349,4.609" fill="none" stroke-linejoin="round" stroke-linecap="round" stroke-width="1.015" stroke-miterlimit="79.8403193612775"/>
    <path d="M 47.031,26.093 C 45.922,25.412 44.784,24.533 43.563,24.054" fill="none" stroke-linejoin="round" stroke-linecap="round" stroke-width="1.015" stroke-miterlimit="79.8403193612775"/>
    <path d="M 44.685,27.606 C 43.874,26.829 43.17,25.78 42.524,24.913" fill="none" stroke-linejoin="round" stroke-linecap="round" stroke-width="1.015" stroke-miterlimit="79.8403193612775"/>
    <path d="M 15.717,52.547 C 18.661,58.839 26.02,62.659 30.739,59.854 C 39.659,54.553 31.348,46.964 29.115,42.396 C 27.376,38.838 27.998,33.362 29.724,29.607 C 31.616,25.488 29.85,23.259 27.897,21.892 C 25.645,20.317 21.243,21.725 19.269,23.923 C 12.847,31.077 10.428,41.237 15.717,52.547 Z" stroke-linejoin="round" stroke-linecap="round" fill="#9c9c9c" stroke="none" stroke-width="0.507" marker-start="none" marker-end="none" stroke-miterlimit="79.8403193612775"/>
    <path d="M 21.228,15.683 C 20.232,15.242 20.106,13.834 19.968,12.945" fill="none" stroke-linejoin="round" stroke-linecap="round" stroke-width="1.015" stroke-miterlimit="79.8403193612775"/>
    <path d="M 39.13,27.553 C 38.618,27.605 37.609,28.014 37.149,28.228" fill="none" stroke-linejoin="round" stroke-linecap="round" stroke-width="1.015" stroke-miterlimit="79.8403193612775"/>
    <path d="M 40.766,59.19 C 40.59,59.525 40.119,60.012 39.802,60.187" fill="none" stroke-linejoin="round" stroke-linecap="round" stroke-width="1.015" stroke-miterlimit="79.8403193612775"/>
    <path d="M 40.956,49.899 C 40.579,50.328 39.812,50.537 39.296,50.583" fill="none" stroke-linejoin="round" stroke-linecap="round" stroke-width="1.015" stroke-miterlimit="79.8403193612775"/>
    <path d="M 35.023,18.762 C 34.253,19.534 32.871,18.427 33.657,17.155 C 31.576,17.269 31.612,15.257 32.584,15.042" fill="none" stroke-linejoin="round" stroke-linecap="round" stroke-width="1.015" stroke-miterlimit="79.8403193612775"/>
    <path d="M 33.218,18.573 C 32.612,19.266 31.104,18.834 31.193,17.842 C 31.257,17.123 31.989,16.747 32.544,16.826 C 32.558,17.094 33.289,17.336 33.234,17.747 L 33.218,18.573 Z" stroke-linejoin="round" stroke-linecap="round" stroke-width="1.015" stroke="none" fill="#000000" marker-start="none" marker-end="none" stroke-miterlimit="79.8403193612775"/>
    <path d="M 36.351,63.159 C 36.831,62.709 37.09,62.467 37.51,62.073" fill="none" stroke-linejoin="round" stroke-linecap="round" stroke-width="1.015" stroke-miterlimit="79.8403193612775"/>
   </g>
  </g>
 </g>
</svg>
