<?xml version="1.0" standalone="no"?>
<!DOCTYPE svg PUBLIC "-//W3C//DTD SVG 1.1//EN" "http://www.w3.org/Graphics/SVG/1.1/DTD/svg11.dtd">
<!--Generator: Xara Designer (www.xara.com), SVG filter version: 6.0.0.4-->
<svg stroke-width="0.501" stroke-linejoin="bevel" fill-rule="evenodd" xmlns:xlink="http://www.w3.org/1999/xlink" xmlns="http://www.w3.org/2000/svg" version="1.1" overflow="visible" width="75pt" height="75pt" viewBox="0 0 75 75">
 <defs>
	</defs>
 <g id="Document" fill="none" stroke="black" font-family="Times New Roman" font-size="16" transform="scale(1 -1)">
  <g id="Spread" transform="translate(0 -75)">
   <g id="Layer 1">
    <path d="M 52.031,23.559 C 52.351,23.524 54.731,22.149 55.228,20.842 C 56.051,18.68 56.384,15.989 54.269,13.968 C 52.652,12.423 50.193,11.571 47.635,10.292 C 45.599,9.274 43.666,6.894 43.799,4.618 C 43.959,1.901 45.798,0.114 48.195,1.66 C 50.673,3.259 46.517,4.857 50.673,6.696 C 52.207,7.164 55.779,8.405 57.546,10.292 C 59.617,12.503 60.699,14.508 61.222,18.604 C 61.543,21.114 60.562,22.779 59.464,24.518 C 58.698,25.73 57.102,26.726 56.267,27.395 C 57.168,28.885 57.583,33.815 57.466,35.787 C 57.248,39.449 51.872,57.446 52.75,60.483 C 53.542,63.216 54.572,64.989 53.23,66.477 C 52.463,67.328 50.724,67.226 49.794,66.557 C 47.823,65.141 47.715,62.241 47.635,59.604 C 47.493,54.884 46.677,48.175 46.517,46.177 C 44.758,45.697 39.54,45.342 37.245,47.456 C 36.885,47.788 36.857,48.408 36.926,48.894 C 37.152,50.487 38.555,51.762 39.244,53.13 C 40.384,55.398 40.991,59.802 39.484,63.76 C 39.508,66.061 39.643,69.514 38.685,69.914 C 37.246,70.074 35.519,67.946 34.369,67.196 C 32.371,68.795 28.534,69.674 25.337,69.434 C 25.097,70.603 24.698,73.67 23.499,73.91 C 21.901,74.149 18.943,67.289 18.304,65.758 C 17.319,63.393 15.965,59.511 15.347,56.806 C 14.737,54.136 14.463,51.449 14.388,48.894 C 14.149,40.743 16.712,37.125 16.786,36.506 C 16.653,35.231 16.934,27.226 15.267,25.157 C 15.139,24.999 15.096,24.935 14.948,24.918 C 13.257,24.72 12.95,22.92 14.068,21.801 C 14.958,20.911 16.674,20.912 17.825,21.401 C 20.683,22.616 22.016,25.474 22.141,29.633 L 22.42,29.234 C 22.786,28.629 27.623,25.076 27.735,25.238 C 26.296,24.678 25.856,22.908 26.457,21.961 C 27.107,20.933 28.614,20.123 32.53,19.883 C 34.687,19.751 37.71,19.477 40.283,19.723 C 42.941,19.977 45.574,20.321 48.115,21.401 C 49.204,21.864 51.785,23.639 52.031,23.559 Z" stroke-linejoin="round" stroke-linecap="round" fill="#95a5b6" stroke-width="0.856" marker-start="none" marker-end="none" stroke-miterlimit="79.8403193612775"/>
    <path d="M 39.723,53.69 C 40.381,53.672 41.072,53.032 41.641,52.89" fill="none" stroke-linejoin="round" stroke-linecap="round" stroke-width="0.856" stroke-miterlimit="79.8403193612775"/>
    <path d="M 40.283,55.368 C 40.797,55.367 42.037,55.023 42.601,54.888" fill="none" stroke-linejoin="round" stroke-linecap="round" stroke-width="0.856" stroke-miterlimit="79.8403193612775"/>
    <path d="M 14.149,59.923 C 14.331,59.863 15.888,59.744 16.147,59.764" fill="none" stroke-linejoin="round" stroke-linecap="round" stroke-width="0.856" stroke-miterlimit="79.8403193612775"/>
    <path d="M 14.708,61.682 C 14.901,61.657 16.344,61.376 16.466,61.282" fill="none" stroke-linejoin="round" stroke-linecap="round" stroke-width="0.856" stroke-miterlimit="79.8403193612775"/>
    <path d="M 34.449,67.036 C 34.117,66.686 33.8,66.05 33.57,65.598" fill="none" stroke-linejoin="round" stroke-linecap="round" stroke-width="0.856" stroke-miterlimit="79.8403193612775"/>
    <path d="M 23.659,68.955 C 24.036,69.091 24.946,69.32 25.337,69.354" fill="none" stroke-linejoin="round" stroke-linecap="round" stroke-width="0.856" stroke-miterlimit="79.8403193612775"/>
    <path d="M 27.65,25.25 C 28.514,24.834 30.054,24.1 31.012,23.959" fill="none" stroke-linejoin="round" stroke-linecap="round" stroke-width="0.856" stroke-miterlimit="79.8403193612775"/>
    <path d="M 22.38,29.314 C 21.501,30.272 20.199,31.99 19.503,33.389" fill="none" stroke-linejoin="round" stroke-linecap="round" stroke-width="0.856" stroke-miterlimit="79.8403193612775"/>
    <path d="M 49.714,24.198 C 50.559,23.891 51.325,23.849 52.191,23.399" fill="none" stroke-linejoin="round" stroke-linecap="round" stroke-width="0.856" stroke-miterlimit="79.8403193612775"/>
    <path d="M 25.306,40.094 C 25.125,40.243 25.099,40.513 25.248,40.694 C 25.9,42.578 27.429,44.052 29.28,44.76 C 29.824,44.968 30.36,45.089 30.936,45.167 C 31.144,45.195 31.356,45.19 31.564,45.22 C 31.785,45.312 32.041,45.206 32.133,44.985 C 32.225,44.764 32.119,44.508 31.898,44.416 C 31.646,44.215 31.416,43.972 31.17,43.763 C 30.962,43.586 30.753,43.403 30.549,43.222 C 30.341,43.036 30.112,42.866 29.896,42.689 C 29.65,42.487 29.388,42.305 29.131,42.117 C 28.461,41.628 27.729,41.183 27.006,40.776 C 26.75,40.632 26.493,40.49 26.238,40.345 C 26.126,40.282 26.02,40.213 25.906,40.152 C 25.757,39.971 25.487,39.945 25.306,40.094 Z" stroke-width="0.5" stroke="none" fill="#deeaf6" fill-rule="evenodd" marker-start="none" marker-end="none" stroke-miterlimit="79.8403193612775"/>
    <path d="M 28.659,36.447 C 28.45,36.554 28.368,36.812 28.475,37.021 C 28.701,39.169 30.295,41.013 32.19,41.934 C 32.659,42.162 33.132,42.32 33.636,42.449 C 33.807,42.493 33.985,42.51 34.154,42.559 C 34.362,42.677 34.629,42.604 34.747,42.396 C 34.865,42.188 34.792,41.921 34.584,41.803 C 34.501,41.722 34.43,41.63 34.353,41.544 C 34.177,41.348 34.008,41.144 33.834,40.946 C 33.394,40.444 32.915,39.923 32.43,39.465 C 32.113,39.165 31.802,38.859 31.471,38.575 C 31.063,38.224 30.653,37.875 30.244,37.524 C 30.048,37.355 29.851,37.179 29.652,37.015 C 29.507,36.895 29.376,36.755 29.233,36.631 C 29.126,36.422 28.868,36.34 28.659,36.447 Z" stroke-width="0.5" stroke="none" fill="#deeaf6" fill-rule="evenodd" marker-start="none" marker-end="none" stroke-miterlimit="79.8403193612775"/>
    <path d="M 32.911,33.694 C 32.682,33.748 32.541,33.979 32.595,34.208 C 32.502,34.897 32.655,35.637 32.861,36.292 C 33.318,37.748 34.341,39.007 35.632,39.804 C 35.912,39.977 36.258,40.142 36.575,40.232 C 36.643,40.251 36.718,40.275 36.787,40.289 C 36.843,40.3 36.905,40.302 36.958,40.326 C 37.169,40.44 37.435,40.362 37.549,40.151 C 37.663,39.94 37.585,39.674 37.374,39.56 C 37.278,39.497 36.98,38.984 36.918,38.864 C 36.825,38.683 36.717,38.504 36.615,38.328 C 36.414,37.979 36.218,37.621 35.996,37.284 C 35.837,37.043 35.682,36.805 35.517,36.568 C 35.228,36.151 34.9,35.753 34.577,35.362 C 34.202,34.909 33.773,34.483 33.425,34.01 C 33.371,33.781 33.14,33.64 32.911,33.694 Z" stroke-width="0.5" stroke="none" fill="#deeaf6" fill-rule="evenodd" marker-start="none" marker-end="none" stroke-miterlimit="79.8403193612775"/>
   </g>
  </g>
 </g>
</svg>
