<?xml version="1.0" standalone="no"?>
<!DOCTYPE svg PUBLIC "-//W3C//DTD SVG 1.1//EN" "http://www.w3.org/Graphics/SVG/1.1/DTD/svg11.dtd">
<!--Generator: Xara Designer (www.xara.com), SVG filter version: 6.0.0.4-->
<svg stroke-width="0.501" stroke-linejoin="bevel" fill-rule="evenodd" xmlns:xlink="http://www.w3.org/1999/xlink" xmlns="http://www.w3.org/2000/svg" version="1.1" overflow="visible" width="75pt" height="75pt" viewBox="0 0 75 75">
 <defs>
	</defs>
 <g id="Document" fill="none" stroke="black" font-family="Times New Roman" font-size="16" transform="scale(1 -1)">
  <g id="Spread" transform="translate(0 -75)">
   <g id="Layer 1">
    <path d="M 5.033,23.133 C 7.549,16.962 13.461,9.541 20.239,6.061 C 29.332,1.394 39.932,-1.161 50.731,2.832 C 57.342,5.274 63.301,10.568 66.629,16.782 C 70.528,24.062 70.971,33.151 69.911,41.342 C 68.489,49.715 65.533,54.283 62.117,60.28 C 59.312,65.206 54.897,74.34 51.552,74.146 C 48.934,73.786 49.262,68.322 48.544,65.547 C 45.761,65.844 39.196,64.125 36.461,63.264 C 35.991,64.352 33.398,69.688 30.881,69.637 C 26.67,67.564 28.606,45.952 31.838,41.442 C 28.757,41.821 26.214,39.259 27.169,35.643 C 26.225,35.163 23.951,32.335 23.796,32.313 C 23.787,33.439 22.864,37.593 21.8,40.05 C 21.145,41.567 18.846,43.337 16.112,41.821 C 13.975,40.634 15.181,38.027 16.056,37.722 C 16.244,37.25 17.206,37.368 17.206,36.205 C 16.987,33.935 15.345,32.209 14.525,29.276 C 13.718,26.383 14.673,21.987 16.192,19.796 C 15.246,21.039 14.069,22.159 13.238,24.245 C 10.321,31.565 10.408,39.113 14.113,45.49 C 15.653,48.14 21.463,51.518 20.349,54.895 C 19.123,58.618 13.537,57.133 10.94,55.098 C 8.698,53.343 5.239,47.963 4.157,43.666 C 2.486,37.023 2.572,28.617 5.033,23.133 Z" stroke-linejoin="round" stroke-linecap="round" fill="#ff436f" stroke-width="1.111" marker-start="none" marker-end="none" stroke-miterlimit="79.8403193612775"/>
    <path d="M 28.88,14.559 C 23.958,15.73 21.828,20.745 23.659,25.427 C 25.069,29.032 28.805,30.108 31.223,32.778 C 31.909,33.536 32.728,34.425 33.518,35.32 C 32.833,38.78 34.552,38.644 36.711,39.553 C 39.17,44.068 38.467,48.363 45.076,50.573 C 50.816,52.492 55.395,45.252 56.596,40.101 C 51.993,41.344 46.597,34.707 50.398,32.976 C 52.391,32.069 54.548,34.407 57.154,34.64 C 57.19,28.852 55.398,24.209 52.265,20.79 C 50.914,25.325 45.236,27.268 39.859,27.652 C 40.186,31.379 42.159,43.338 34.09,38.744 C 32.506,37.844 33.607,33.017 33.202,31.424 C 32.941,30.404 31.577,25.827 32.424,24.988 C 36.785,20.678 36.32,17.448 30.642,14.067 C 30.002,14.178 29.404,14.337 28.88,14.559 Z" stroke-linejoin="round" stroke-linecap="round" fill="#ff9e9e" stroke="none" stroke-width="0.555" marker-start="none" marker-end="none" stroke-miterlimit="79.8403193612775"/>
    <path d="M 53.201,18.555 C 51.961,23.204 44.261,29.297 39.744,27.659 C 41.657,30.137 41.166,41.415 35.26,39.189 C 31.886,37.919 34.584,33.709 33.891,32.007 C 33.167,30.232 30.814,24.159 33.124,23.561 C 37.227,22.499 36.316,16.12 31.21,14.559" fill="none" stroke-linejoin="round" stroke-linecap="round" stroke-width="1.111" stroke-miterlimit="79.8403193612775"/>
    <path d="M 58.226,34.482 C 55.466,35.257 54.695,32.634 52.58,32.228 C 49.187,31.576 48.649,35.087 49.622,37.241 C 50.937,40.154 55.811,41.457 59.163,39.131" fill="none" stroke-linejoin="round" stroke-linecap="round" stroke-width="1.111" stroke-miterlimit="79.8403193612775"/>
    <path d="M 20.979,22.853 C 19.734,26.383 21.853,30.232 24.427,32.818" fill="none" stroke-linejoin="round" stroke-linecap="round" stroke-width="1.111" stroke-miterlimit="79.8403193612775"/>
    <path d="M 27.216,35.75 C 27.298,35.676 27.334,35.592 27.326,35.496 C 27.999,34.597 29.572,34.236 30.444,35.042" fill="none" stroke-linejoin="round" stroke-linecap="round" stroke-width="1.111" stroke-miterlimit="79.8403193612775"/>
    <path d="M 25.193,47.788 C 26.483,48.236 27.77,48.156 29.131,48.091" fill="none" stroke-linejoin="round" stroke-linecap="round" stroke-width="1.111" stroke-miterlimit="79.8403193612775"/>
    <path d="M 25.849,45.107 C 26.704,45.599 28.528,46.263 29.514,46.423" fill="none" stroke-linejoin="round" stroke-linecap="round" stroke-width="1.111" stroke-miterlimit="79.8403193612775"/>
    <path d="M 65.454,54.918 C 66.733,55.413 67.708,56.086 69.064,56.438" fill="none" stroke-linejoin="round" stroke-linecap="round" stroke-width="1.111" stroke-miterlimit="79.8403193612775"/>
    <path d="M 66.22,52.896 C 66.34,52.849 66.432,52.865 66.494,52.947 C 67.82,53.236 69.126,53.52 70.487,53.755" fill="none" stroke-linejoin="round" stroke-linecap="round" stroke-width="1.111" stroke-miterlimit="79.8403193612775"/>
    <path d="M 33.507,49.458 C 35.208,52.153 38.861,52.58 41.548,50.771" fill="none" stroke-linejoin="round" stroke-linecap="round" stroke-width="1.111" stroke-miterlimit="79.8403193612775"/>
    <path d="M 49.21,52.37 C 50.355,55.018 54.941,55.503 57.154,53.732" fill="none" stroke-linejoin="round" stroke-linecap="round" stroke-width="1.111" stroke-miterlimit="79.8403193612775"/>
    <path d="M 42.314,47.635 C 43.221,45.899 47.452,47.405 45.87,49.811 C 46.389,47.433 50.262,47.278 50.411,49.862" fill="none" stroke-linejoin="round" stroke-linecap="round" stroke-width="1.111" stroke-miterlimit="79.8403193612775"/>
    <path d="M 30.891,58.116 C 30.499,59.479 29.918,63.32 30.999,64.036 C 31.699,63.572 32.986,60.294 32.98,59.49 C 32.661,59.26 31.357,58.031 30.926,57.992 C 30.915,58.031 30.903,58.073 30.891,58.116 Z" stroke-linejoin="round" stroke-linecap="round" fill="#ff9e9e" stroke="none" stroke-width="0.555" marker-start="none" marker-end="none" stroke-miterlimit="79.8403193612775"/>
    <path d="M 52.642,64.017 C 52.295,65.334 51.855,67.669 52.505,68.588 C 54.032,68.569 56.19,63.447 56.305,62.347 C 54.944,61.821 53.601,63.676 52.727,63.706 C 52.7,63.801 52.671,63.905 52.642,64.017 Z" stroke-linejoin="round" stroke-linecap="round" fill="#ff9e9e" stroke="none" stroke-width="0.555" marker-start="none" marker-end="none" stroke-miterlimit="79.8403193612775"/>
   </g>
  </g>
 </g>
</svg>
