<?xml version="1.0" standalone="no"?>
<!DOCTYPE svg PUBLIC "-//W3C//DTD SVG 1.1//EN" "http://www.w3.org/Graphics/SVG/1.1/DTD/svg11.dtd">
<!--Generator: Xara Designer (www.xara.com), SVG filter version: 6.0.0.4-->
<svg stroke-width="0.501" stroke-linejoin="bevel" fill-rule="evenodd" xmlns:xlink="http://www.w3.org/1999/xlink" xmlns="http://www.w3.org/2000/svg" version="1.1" overflow="visible" width="75pt" height="75pt" viewBox="0 0 75 75">
 <defs>
	</defs>
 <g id="Document" fill="none" stroke="black" font-family="Times New Roman" font-size="16" transform="scale(1 -1)">
  <g id="Spread" transform="translate(0 -75)">
   <g id="Layer 1">
    <path d="M 74.121,22.557 C 73.153,24.13 74.845,37.933 73.771,40.443 C 73.641,40.716 64.838,44.675 64.249,44.746 C 63.519,47.184 61.71,52.55 60.3,54.713 C 58.786,57.034 55.518,51.089 55.035,50.2 C 54.477,50.98 53.674,51.29 53.06,51.892 C 52.303,52.635 50.621,54.955 50.051,55.841 C 47.512,59.791 45.681,61.416 42.905,63.551 C 39.239,66.372 35.24,67.608 31.059,67.688 C 26.142,67.783 21.532,66.576 16.955,63.363 C 11.753,59.711 10.066,54.135 9.621,53.114 C 4.826,50.576 3.034,47.796 1.723,43.994 C 0.281,39.812 0.725,34.84 2.382,30.738 C 3.487,27.998 5.522,25.284 8.211,24.062 C 11.064,22.766 14.322,22.37 17.613,24.062 C 20.205,22.544 45.223,8.392 47.889,7.325 C 49.522,6.86 66.342,16.638 68.762,18.138 C 70.195,19.027 73.551,21.655 74.121,22.557 Z" stroke-linejoin="round" stroke-linecap="round" fill="#ff436f" stroke-width="0.97" marker-start="none" marker-end="none" stroke-miterlimit="79.8403193612775"/>
    <path d="M 25.724,33.933 C 23.877,35.366 23.998,39.558 26.598,39.901 C 29.58,40.343 32.308,37.869 33.003,35.777 C 33.469,34.375 32.047,32.356 30.674,32.574 C 30.642,32.579 30.674,32.639 30.674,32.671 C 29.392,33.091 27.52,34.917 26.015,34.467 C 25.808,34.39 25.711,34.212 25.724,33.933 Z" stroke-linejoin="round" stroke-linecap="round" fill="#ffb4b1" stroke="none" stroke-width="0.485" marker-start="none" marker-end="none" stroke-miterlimit="79.8403193612775"/>
    <path d="M 64.008,32.574 C 63.995,34.66 66.7,36.701 68.619,35.583 C 71.88,33.683 68.228,28.172 65.125,30.536 C 64.337,31.137 64.012,31.858 64.008,32.574 Z" stroke-linejoin="round" stroke-linecap="round" fill="#ffb4b1" stroke="none" stroke-width="0.485" marker-start="none" marker-end="none" stroke-miterlimit="79.8403193612775"/>
    <path d="M 48.033,7.794 L 47.934,7.832 C 47.181,8.163 45.241,9.184 42.63,10.603 C 39.871,12.102 36.415,14.018 32.959,15.948 C 26.911,19.326 20.873,22.746 18.594,24.055 L 18.511,24.103 L 18.927,24.433 C 20.819,26.241 21.788,29.277 22.91,30.439 C 23.957,31.524 26.1,34.493 27.956,33.642 C 29.288,33.031 29.662,31.038 31.353,32.574 C 31.693,32.579 31.537,32.712 31.935,32.768 L 47.948,24.811 L 53.091,28.11 C 53.225,27.934 53.751,27.628 53.868,27.431 C 54.659,26.09 56.104,23.141 58.332,24.228 C 60.639,25.355 60.966,29.227 59.302,31.022 L 63.475,34.03 C 64.379,32.186 65.385,29.156 67.842,29.76 C 72.929,31.009 68.106,36.687 66.678,38.106 C 66.777,39.47 66.155,42.203 65.243,43.748 L 65.13,43.905 L 65.401,43.793 C 65.521,43.743 65.652,43.688 65.795,43.628 C 66.663,43.26 67.759,42.778 68.852,42.287 C 69.944,41.794 71.032,41.294 71.885,40.887 C 72.708,40.493 73.131,40.273 73.321,40.165 L 73.362,40.141 L 73.403,40.021 C 73.567,39.428 73.65,38.307 73.657,36.808 C 73.664,35.15 73.584,33.152 73.501,31.169 C 73.417,29.193 73.329,27.23 73.324,25.664 C 73.32,24.881 73.338,24.186 73.389,23.63 C 73.411,23.377 73.444,23.122 73.494,22.892 L 73.567,22.629 L 73.42,22.463 C 73.017,22.035 72.299,21.399 71.46,20.72 C 70.377,19.844 69.198,18.979 68.506,18.55 C 67.318,17.814 62.603,15.05 57.944,12.501 C 55.615,11.226 53.306,10.009 51.463,9.128 C 50.541,8.687 49.743,8.334 49.122,8.1 C 48.443,7.844 48.141,7.797 48.039,7.794 L 48.033,7.794 Z" stroke-linejoin="round" stroke-linecap="round" stroke="none" fill="#e7af58" stroke-width="0" marker-start="none" marker-end="none" stroke-miterlimit="79.8403193612775"/>
    <path d="M 9.906,29.663 C 4.676,33.486 6.905,39.831 8.062,44.317 C 8.387,44.303 8.678,44.432 8.935,44.705 L 21.26,38.494 C 20.521,36.908 19.291,33.045 18.543,31.798 C 16.796,28.887 12.846,27.514 9.906,29.663 Z" stroke-linejoin="round" stroke-linecap="round" stroke="none" fill="#e7af58" stroke-width="0" marker-start="none" marker-end="none" stroke-miterlimit="79.8403193612775"/>
    <path d="M 8.869,45.122 C 7.553,43.994 6.769,41.449 6.613,39.293 C 6.236,34.123 9.314,26.184 15.732,29.327 C 20.34,31.584 19.494,40.233 26.734,40.139 C 30.427,40.092 34.726,36.003 32.375,33.37 C 29.497,30.146 29.459,35.046 26.545,34.028 C 20.622,31.96 23.349,26.037 17.707,24.062" fill="none" stroke-linejoin="round" stroke-linecap="round" stroke-width="0.97" stroke-miterlimit="79.8403193612775"/>
    <path d="M 8.869,45.122 C 12.424,42.808 18.274,40.678 21.374,38.353" fill="none" stroke-linejoin="round" stroke-linecap="round" stroke-width="0.97" stroke-miterlimit="79.8403193612775"/>
    <path d="M 32.187,32.994 C 32.635,32.213 46.856,25.099 47.983,25.096 C 48.947,24.99 51.696,27.411 52.966,27.446" fill="none" stroke-linejoin="round" stroke-linecap="round" stroke-width="0.97" stroke-miterlimit="79.8403193612775"/>
    <path d="M 47.917,25.102 C 47.388,22.091 47.69,10.36 48.265,7.514" fill="none" stroke-linejoin="round" stroke-linecap="round" stroke-width="0.97" stroke-miterlimit="79.8403193612775"/>
    <path d="M 54.246,27.333 C 54.279,29.394 58.367,31.703 59.885,29.954 C 61.657,27.912 60.283,23.942 57.458,24.131 C 55.673,24.251 55.441,26.18 54.353,26.752 C 54.276,26.94 54.242,27.135 54.246,27.333 Z" stroke-linejoin="round" stroke-linecap="round" fill="#ffb4b1" stroke="none" stroke-width="0.485" marker-start="none" marker-end="none" stroke-miterlimit="79.8403193612775"/>
    <path d="M 52.12,28.481 C 52.315,28.403 52.497,28.303 52.665,28.18 C 53.111,27.881 53.91,27.194 54.38,26.241 C 55.317,24.344 56.586,23.722 58.514,24.344 C 60.45,24.97 61.436,27.927 59.548,30.831 C 56.958,34.814 50.239,31.396 48.579,29.202 C 48.083,28.548 47.983,28.387 47.512,27.823" fill="none" stroke-linejoin="round" stroke-linecap="round" stroke-width="0.97" stroke-miterlimit="79.8403193612775"/>
    <path d="M 59.454,34.498 C 59.945,37.691 65.319,39.344 67.822,37.319 C 70.952,34.785 70.415,29.692 66.788,29.985 C 65.159,30.117 63.615,32.094 63.309,33.276 L 63.356,34.169 C 62.637,33.592 60.457,32.435 59.454,31.678" fill="none" stroke-linejoin="round" stroke-linecap="round" stroke-width="0.97" stroke-miterlimit="79.8403193612775"/>
    <path d="M 68.129,37.051 C 68.842,37.702 72.679,39.782 73.395,40.02" fill="none" stroke-linejoin="round" stroke-linecap="round" stroke-width="0.97" stroke-miterlimit="79.8403193612775"/>
    <path d="M 36.418,36.473 C 36.418,40.365 37.087,51.226 39.051,52.363 C 40.837,53.397 43.774,49.437 44.504,47.849 C 45.148,48.033 47.692,49.341 49.393,49.729 C 51.233,50.151 53.082,50.437 55.035,50.2" fill="none" stroke-linejoin="round" stroke-linecap="round" stroke-width="0.97" stroke-miterlimit="79.8403193612775"/>
    <path d="M 64.155,45.122 C 64.677,43.354 66.59,40.525 66.506,38.447" fill="none" stroke-linejoin="round" stroke-linecap="round" stroke-width="0.97" stroke-miterlimit="79.8403193612775"/>
    <path d="M 47.183,38.613 C 47.954,38.613 48.579,37.876 48.579,36.968 C 48.579,36.06 47.954,35.322 47.183,35.322 C 46.413,35.322 45.787,36.06 45.787,36.968 C 45.787,37.876 46.413,38.613 47.183,38.613 Z" stroke-linejoin="round" stroke-linecap="round" stroke-width="0.97" stroke="none" fill="#000000" marker-start="none" marker-end="none" stroke-miterlimit="79.8403193612775"/>
    <path d="M 59.382,41.769 C 60.159,41.769 60.791,41.025 60.791,40.109 C 60.791,39.193 60.159,38.449 59.382,38.449 C 58.604,38.449 57.973,39.193 57.973,40.109 C 57.973,41.025 58.604,41.769 59.382,41.769 Z" stroke-linejoin="round" stroke-linecap="round" stroke-width="0.97" stroke="none" fill="#000000" marker-start="none" marker-end="none" stroke-miterlimit="79.8403193612775"/>
    <path d="M 9.245,49.447 C 9.36,50.762 9.483,52.06 9.903,53.303" fill="none" stroke-linejoin="round" stroke-linecap="round" stroke-width="0.97" stroke-miterlimit="79.8403193612775"/>
    <path d="M 39.333,31.819 C 40.617,32.634 43.004,33.226 44.504,33.324" fill="none" stroke-linejoin="round" stroke-linecap="round" stroke-width="0.97" stroke-miterlimit="79.8403193612775"/>
    <path d="M 41.072,29.562 C 42.218,30.391 44.243,31.522 45.585,31.537" fill="none" stroke-linejoin="round" stroke-linecap="round" stroke-width="0.97" stroke-miterlimit="79.8403193612775"/>
    <path d="M 66.249,40.96 C 66.645,41.007 67.631,41.665 68.082,41.713" fill="none" stroke-linejoin="round" stroke-linecap="round" stroke-width="0.97" stroke-miterlimit="79.8403193612775"/>
    <path d="M 66.766,39.315 C 67.286,39.295 68.601,40.13 69.116,40.114" fill="none" stroke-linejoin="round" stroke-linecap="round" stroke-width="0.97" stroke-miterlimit="79.8403193612775"/>
    <path d="M 39.117,43.152 C 38.865,43.993 38.397,47.906 40.119,47.261 C 41.01,46.108 42.122,42.454 39.699,42.861 C 39.553,43.032 39.359,43.129 39.117,43.152 Z" stroke-linejoin="round" stroke-linecap="round" fill="#ffb4b1" stroke="none" stroke-width="0.485" marker-start="none" marker-end="none" stroke-miterlimit="79.8403193612775"/>
    <path d="M 59.722,48.897 C 59.264,49.627 59.3,50.824 59.553,51.522 L 60.079,51.595 C 60.422,50.913 61.364,49.257 60.914,48.484 L 60.273,48.393 C 60.04,48.502 59.859,48.679 59.722,48.897 Z" stroke-linejoin="round" stroke-linecap="round" fill="#ffb4b1" stroke="none" stroke-width="0.485" marker-start="none" marker-end="none" stroke-miterlimit="79.8403193612775"/>
   </g>
  </g>
 </g>
</svg>
