<?xml version="1.0" standalone="no"?>
<!DOCTYPE svg PUBLIC "-//W3C//DTD SVG 1.1//EN" "http://www.w3.org/Graphics/SVG/1.1/DTD/svg11.dtd">
<!--Generator: Xara Designer (www.xara.com), SVG filter version: 6.0.0.4-->
<svg stroke-width="0.501" stroke-linejoin="bevel" fill-rule="evenodd" xmlns:xlink="http://www.w3.org/1999/xlink" xmlns="http://www.w3.org/2000/svg" version="1.1" overflow="visible" width="75pt" height="75pt" viewBox="0 0 75 75">
 <defs>
	</defs>
 <g id="Document" fill="none" stroke="black" font-family="Times New Roman" font-size="16" transform="scale(1 -1)">
  <g id="Spread" transform="translate(0 -75)">
   <g id="Layer 1">
    <path d="M 60.807,25.93 C 66.197,19.529 65.376,9.959 58.975,4.569 C 52.574,-0.821 43.004,0 37.614,6.401 C 32.224,12.802 33.045,22.372 39.446,27.762 C 45.847,33.152 55.417,32.331 60.807,25.93 Z" stroke-linejoin="round" stroke-linecap="round" fill="#e42944" stroke="#000000" stroke-width="1.237" marker-start="none" marker-end="none" stroke-miterlimit="79.8403193612775"/>
    <path d="M 50.11,2.636 C 50.504,2.969 50.899,3.301 51.298,3.627 C 50.669,3.094 50.039,2.561 49.407,2.031 C 49.634,2.241 49.874,2.436 50.11,2.636 Z" stroke="none" stroke-linejoin="round" stroke-linecap="round" stroke-width="0" fill="#000000" marker-start="none" marker-end="none" stroke-miterlimit="79.8403193612775"/>
    <path d="M 35.381,11.687 L 35.567,12.107 C 38.099,17.156 44.163,21.065 49.467,21.842 C 49.805,21.892 50.119,21.658 50.168,21.32 C 50.218,20.982 49.984,20.668 49.646,20.619 C 44.309,19.837 38.204,15.637 36.241,10.58 L 36.053,10.006 L 35.803,10.526 L 35.381,11.687 Z" stroke="none" stroke-linejoin="round" stroke-linecap="round" stroke-width="0" fill="#000000" marker-start="none" marker-end="none" stroke-miterlimit="79.8403193612775"/>
    <path d="M 37.196,7.971 L 37.421,8.506 C 39.678,13.254 45.828,18.672 52.1,18.296 C 52.44,18.275 52.7,17.982 52.68,17.641 C 52.659,17.301 52.366,17.041 52.025,17.061 C 45.973,17.424 39.833,11.628 38.177,7.121 L 38.08,6.807 L 37.196,7.971 Z" stroke="none" stroke-linejoin="round" stroke-linecap="round" stroke-width="0" fill="#000000" marker-start="none" marker-end="none" stroke-miterlimit="79.8403193612775"/>
    <path d="M 39.794,5.103 L 39.825,5.226 C 41.387,10.161 47.598,14.404 53.83,14.804 C 54.171,14.826 54.465,14.567 54.487,14.226 C 54.509,13.885 54.25,13.591 53.909,13.569 C 48.046,13.194 42.397,9.191 41.012,4.874 L 40.861,4.277 L 40.199,4.748 L 39.794,5.103 Z" stroke="none" stroke-linejoin="round" stroke-linecap="round" stroke-width="0" fill="#000000" marker-start="none" marker-end="none" stroke-miterlimit="79.8403193612775"/>
    <path d="M 42.653,3.185 L 43.02,3.786 C 45.151,6.788 50.082,10.934 55.038,10.755 C 55.379,10.742 55.646,10.455 55.634,10.114 C 55.621,9.773 55.334,9.506 54.993,9.518 C 50.609,9.677 46.03,5.866 44.067,3.128 L 43.788,2.676 L 42.653,3.185 Z" stroke="none" stroke-linejoin="round" stroke-linecap="round" stroke-width="0" fill="#000000" marker-start="none" marker-end="none" stroke-miterlimit="79.8403193612775"/>
    <path d="M 43.607,23.58 C 43.267,23.611 43.016,23.912 43.048,24.252 C 43.079,24.592 43.38,24.843 43.72,24.811 C 52.686,23.992 58.462,11.553 55.707,3.516 L 55.515,3.078 L 54.848,2.758 L 53.851,2.395 L 53.926,2.507 C 57.758,9.61 52.257,22.788 43.607,23.58 Z" stroke="none" stroke-linejoin="round" stroke-linecap="round" stroke-width="0" fill="#000000" marker-start="none" marker-end="none" stroke-miterlimit="79.8403193612775"/>
    <path d="M 41.984,19.292 C 41.539,21.573 41.681,25.137 42.781,28.094 L 43.431,29.504 L 43.571,29.571 C 44.011,29.756 44.457,29.918 44.908,30.058 L 45.335,30.167 L 44.598,29.099 C 43.051,26.313 42.687,22.147 43.199,19.529 C 43.264,19.194 43.045,18.869 42.71,18.803 C 42.375,18.738 42.05,18.957 41.984,19.292 Z" stroke="none" stroke-linejoin="round" stroke-linecap="round" stroke-width="0" fill="#000000" marker-start="none" marker-end="none" stroke-miterlimit="79.8403193612775"/>
    <path d="M 57.218,4.646 C 62.384,14.88 54.461,26.308 43.811,27.074 C 43.471,27.098 43.214,27.394 43.239,27.735 C 43.263,28.075 43.559,28.332 43.9,28.307 C 54.576,27.54 62.855,16.722 59.213,6.188 L 58.825,5.274 L 58.576,5.042 C 58.192,4.718 57.796,4.419 57.39,4.142 L 57.272,4.07 L 57.183,4.173 C 57.133,4.324 57.141,4.493 57.218,4.646 Z" stroke="none" stroke-linejoin="round" stroke-linecap="round" stroke-width="0" fill="#000000" marker-start="none" marker-end="none" stroke-miterlimit="79.8403193612775"/>
    <path d="M 61.31,8.791 C 63.648,20.172 55.179,29.957 45.103,29.366 C 44.932,29.356 44.774,29.416 44.655,29.521 L 44.472,29.899 L 44.908,30.058 C 45.359,30.197 45.816,30.313 46.275,30.408 L 47.278,30.563 L 49.033,30.333 C 56.781,28.82 62.753,21.665 62.932,12.988 L 62.869,11.216 L 62.745,10.848 C 62.403,9.974 61.975,9.129 61.461,8.326 L 61.44,8.298 L 61.399,8.326 C 61.312,8.458 61.275,8.624 61.31,8.791 Z" stroke="none" stroke-linejoin="round" stroke-linecap="round" stroke-width="0" fill="#000000" marker-start="none" marker-end="none" stroke-miterlimit="79.8403193612775"/>
    <path d="M 39.445,16.73 C 38.317,18.624 37.807,21.32 38,23.936 L 38.254,25.7 L 38.755,26.273 C 39.097,26.626 39.46,26.964 39.844,27.288 L 40.116,27.495 L 39.955,27.171 C 38.769,24.108 38.992,19.908 40.508,17.363 C 40.683,17.07 40.586,16.69 40.293,16.515 C 40,16.34 39.62,16.437 39.445,16.73 Z" stroke="none" stroke-linejoin="round" stroke-linecap="round" stroke-width="0" fill="#000000" marker-start="none" marker-end="none" stroke-miterlimit="79.8403193612775"/>
    <path d="M 36.654,13.899 C 36.09,14.858 35.589,15.787 35.173,16.715 L 34.768,17.734 L 34.909,18.79 C 34.993,19.248 35.099,19.703 35.226,20.152 L 35.314,20.413 L 35.416,19.799 C 35.817,18.055 36.632,16.379 37.721,14.526 C 37.894,14.231 37.795,13.852 37.501,13.679 C 37.206,13.506 36.827,13.605 36.654,13.899 Z" stroke="none" stroke-linejoin="round" stroke-linecap="round" stroke-width="0" fill="#000000" marker-start="none" marker-end="none" stroke-miterlimit="79.8403193612775"/>
    <path d="M 45.671,2.077 L 46.126,2.667 C 48.323,5.119 52.334,7.175 55.448,6.856 C 55.787,6.821 56.035,6.517 56,6.177 C 55.965,5.838 55.661,5.59 55.321,5.625 C 52.682,5.896 49.048,4.055 47.079,1.878 L 47.022,1.805 L 46.584,1.864 L 45.671,2.077 Z" stroke="none" stroke-linejoin="round" stroke-linecap="round" stroke-width="0" fill="#000000" marker-start="none" marker-end="none" stroke-miterlimit="79.8403193612775"/>
    <path d="M 16.628,73.991 C 13.509,72.407 12.35,63.167 13.509,57.806 C 15.489,48.649 24.436,43.392 31.699,45.927 C 34.477,46.895 35.077,50.581 33.333,51.718 C 28.358,54.96 26.378,44.071 31.452,39.492 C 36.278,35.409 42.217,38.131 48.652,37.76 C 57.423,37.254 64.12,31.201 64.367,16.352" fill="none" stroke-linejoin="round" stroke-linecap="round" stroke-width="1.237" stroke-miterlimit="79.8403193612775"/>
   </g>
  </g>
 </g>
</svg>
