<?xml version="1.0" encoding="utf-8"?>
<!-- Generator: Adobe Illustrator 21.1.0, SVG Export Plug-In . SVG Version: 6.00 Build 0)  -->
<svg version="1.1" id="Layer_1" xmlns="http://www.w3.org/2000/svg" xmlns:xlink="http://www.w3.org/1999/xlink" x="0px" y="0px"
	 viewBox="0 0 100 100" style="enable-background:new 0 0 100 100;" xml:space="preserve">
<g>
	<path d="M77.2,35.9c-1.8-0.9-2.3,1.9-0.7,2.3C77.9,38.6,78.3,36.5,77.2,35.9z"/>
	<path d="M68.5,39.7c1,1.3,3.1-0.7,1.8-1.9C69.1,36.8,67.7,38.4,68.5,39.7z"/>
	<path d="M98,19.1c-2.6-3-6.3-1-8.9,0.5c-0.4,0.2-0.7,0.3-1,0.5c-0.4,0.2-0.7,0.4-1.1,0.6c-3.4,1.9-7.6,4.2-11.1,2.9
		c-4.2-4.5-10.4-5.9-13.8-6.3C50,15.8,37,20.2,27.2,29.2c-9.4,8.6-14.9,21.2-14.9,33.9c-3.8,0-6.7-4.1-8.9-7.2
		c-0.2-0.3-0.4-0.5-0.6-0.8C2.6,54.9,2.3,54.8,2,55c-0.8,0.5-1.2,1.3-1.3,2.4c-0.2,3.2,2.9,7.6,4.2,8.9c2,2,4.8,3.3,7.7,3.7
		c0,0.1-0.1,0.2-0.1,0.2c-0.2,3.2,0.7,6.2,2.7,9.4c0.8,1.2,1.1,1.9,0.9,3.1c0,0.1-0.1,0.3-0.1,0.4c-0.2,0.8-0.4,1.7,0.7,2.5
		c0.4,0.3,1,0.5,1.6,0.5c0.4,0,0.9,0,1.4-0.2c0.9-0.4,1.5-1,1.7-1.8c0.2-0.9-0.3-1.6-0.7-2.3c-0.2-0.3-0.4-0.5-0.5-0.8
		c-0.3-1-0.1-2.3,0.6-3.2c0,0,0-0.1,0.1-0.1c1.2,0.6,2.6,1,3.9,1c1.5,0,3-0.5,4.2-1.9c0.7,1.4,0.6,3.1,0.4,5.3
		c0,0.7-0.3,2.9,1.3,3.8c0.4,0.3,0.9,0.4,1.3,0.4c0.3,0,0.7,0,0.8-0.4c0.9-0.4,1.6-1.2,1.8-2.2c0.1-0.7,0.1-1.4,0-1.9
		c-0.1-0.7-0.2-1.2,0.2-1.9c0.8-1.5,1.5-2.9,1.6-4.7c0.2-3.2-1.4-6.5-4-8.3c0.7-10.7,6.2-21.3,14.2-27.1c0.5,0.9,0.9,2.2,0.9,4
		c0,0.5,0,1-0.1,1.5c-0.1,0.9-0.2,1.9,0.1,2.9c0.4,1.2,1.3,2.1,2.4,2.2c0.1,0,0.2,0,0.3,0c0.7,0,1.4-0.4,2-1.1
		c0.8-1.3,0.2-2.5-0.2-3.5l-0.1-0.3c-0.3-0.6-0.1-0.9,0.2-1.5c0.1-0.2,0.3-0.5,0.4-0.8c0.7-1.8,1.8-5,1-7.2c1.4-0.5,3.1-1.1,4.8-1.5
		c-1.9,2-3.2,4.4-4,7c-1.4,4.8-1.3,11.3,2.3,14.9c0.8,0.8,2.1,1.6,3.5,1.6c0.1,0,0.2,0,0.1,0.1c0.9-0.1,1.7-0.6,2.3-1.4
		c1.3-2,1.3-4.8,1.2-7c0-0.4,0-0.7,0-1c0-3.1,0-6.4,0.3-9.6v-0.5c0.1-0.8,0.2-1.8,0.4-2.6c1.5,4.8,3.9,10.1,7.4,15.8l0.3,0.5
		c1.3,2.2,3.1,5.2,5.6,5.9c0.3,0.1,0.7,0.2,1,0.2c0.6,0,1.1-0.2,1.6-0.2c1.5-1.2,1.2-4.4,0.9-7.3c-0.1-0.3-0.1-0.5-0.1-0.7
		c-0.5-4.8-0.9-8.6-1.3-12.1c-0.1-0.8-0.1-1.7-0.2-2.6c-0.1-1.9-0.3-3.8-0.7-5.6c3.7,1.3,6.9,2,9.8,2c3.2,0,5.8-0.9,7.7-2.4
		c1.7-1.4,2.8-3.6,3-5.8C99.6,21.9,99.1,20.3,98,19.1z M78.5,54.3c0.1,0,0.1,0,0.2-0.1c0,0,0,0,0,0C78.7,54.2,78.6,54.2,78.5,54.3z
		 M79.1,57.4c0.3-0.2,0.6-0.4,0.8-0.7c-0.1,0.2-0.2,0.4-0.4,0.6C79.4,57.3,79.2,57.3,79.1,57.4z M80.2,54.6
		C80.2,54.6,80.3,54.6,80.2,54.6c0.1,0.1,0.1,0.1,0.1,0.1C80.3,54.7,80.2,54.6,80.2,54.6z M80,50.2c0,0.2,0.1,0.4,0.1,0.7
		c0,0.6,0.1,1.5,0.2,2.5c-0.6-0.2-1.1-0.3-1.8-0.2c-1.2,0.3-2.3,1.2-2.9,2.3c-0.9-1.1-1.7-2.5-2.4-3.6l-0.3-0.6
		c-3.7-6.1-6.3-11.7-7.6-16.6c0-0.1-0.1-0.1-0.1-0.2c0.3-0.3,0.5-0.6,0.9-0.7c0.3-0.1,0.4-0.4,0.3-0.7c-0.1-0.3-0.4-0.4-0.7-0.3
		c-0.7,0.4-1.3,0.9-1.7,1.7c-0.6,1.2-0.8,2.7-0.9,4V39c-0.3,3.3-0.3,6.6-0.3,9.7c0,0.3,0,0.7,0,1c0.1,2.2,0.1,4.6-1,6.3
		c-0.4,0.5-0.9,0.8-1.5,0.9c-0.9,0.1-2-0.4-2.9-1.3c-3.3-3.3-3.4-9.3-2-13.8c0.9-2.8,2.5-5.4,4.7-7.5c1.6-1.5,3.4-2.6,5.3-3.4
		c0.3-0.1,0.4-0.4,0.3-0.7c-0.1-0.3-0.4-0.4-0.7-0.3c-1.9,0.8-3.7,1.9-5.3,3.3c0,0-0.1,0-0.1,0c-2.3,0.3-4.8,1.2-6.6,1.9
		c-0.1-0.1-0.2-0.2-0.2-0.3c-0.2-0.2-0.6-0.2-0.8,0s-0.2,0.6,0,0.8c0.1,0.1,0.2,0.2,0.3,0.4c1,1.8-0.3,5.4-0.9,6.8
		c-0.2,0.3-0.3,0.5-0.4,0.7c-0.4,0.7-0.8,1.4-0.3,2.5l0.3,0.3c0.4,1,0.7,1.7,0.2,2.4c-0.3,0.5-0.7,0.7-1.1,0.6
		c-0.7-0.1-1.3-0.7-1.5-1.4c-0.2-0.8-0.1-1.6,0-2.5c0-0.5,0.1-1.1,0.1-1.6c-0.1-1.6-0.4-3.9-1.6-5.1c-0.5-0.6-1.2-0.8-1.9-0.9
		c-0.3,0-0.6,0.2-0.6,0.5s0.2,0.6,0.5,0.6c0.2,0,0.4,0,0.6,0.1C37.5,45,31.9,56,31.3,67c0,0.1,0,0.2,0.1,0.3c0,0.2,0,0.3,0.2,0.4
		c2.3,1.6,3.8,4.5,3.6,7.4c-0.1,1.6-0.8,2.8-1.5,4.3c-0.5,1-0.4,1.9-0.3,2.6c0.1,0.5,0.1,1,0,1.5c-0.1,0.6-0.5,1.2-1.1,1.4
		c-0.3,0.1-0.7,0.2-1.2-0.1c-0.6-0.4-0.9-1.3-0.7-2.7c0.2-2.2,0.5-5-1.2-6.9c-0.5-0.5-1.1-1-1.9-1.4c-0.2-0.1-0.6,0-0.7,0.3
		c-0.1,0.2,0,0.6,0.3,0.7c0.6,0.4,1.1,0.6,1.5,1.1c-2.5,3.1-6.2,1.2-7.3,0.6c-1.2-0.7-2.3-1.6-3-2.6c-0.2-0.2-0.6-0.3-0.8-0.1
		s-0.3,0.6-0.1,0.8c0.7,0.9,1.6,1.8,2.7,2.5c0,0,0,0,0,0c-0.9,1.2-1.2,2.9-0.7,4.3c0.2,0.3,0.4,0.7,0.6,1c0.3,0.5,0.6,1,0.5,1.5
		c-0.1,0.4-0.4,0.8-1,1c-0.7,0.2-1.5,0.2-1.9-0.1c-0.5-0.4-0.5-0.6-0.3-1.4c0-0.1,0.1-0.2,0.1-0.4c0.3-1.6-0.2-2.6-1-3.9
		c-1.9-3-2.7-5.8-2.6-8.8c0-0.1,0-0.1,0-0.2c0.2,0,0.4,0,0.6,0c1.2,0,2.4-0.2,3.6-0.7c0.3-0.1,0.5-0.4,0.4-0.7
		c-0.1-0.3-0.4-0.5-0.7-0.4c-1.4,0.4-2.9,0.5-4.4,0.4c-2.8-0.2-5.4-1.4-7.3-3.3c-1.4-1.4-4-5.5-3.8-8c0-0.5,0.1-0.9,0.4-1.2
		c0.1,0.1,0.1,0.2,0.2,0.3C5,60,8.3,64.7,13,64.2c0.5-0.1,1.1-0.2,1.6-0.4c0.2-0.1,0.4-0.4,0.3-0.7c-0.1-0.2-0.4-0.4-0.7-0.3
		c-0.2,0-0.5,0.1-0.7,0.2C13.6,50.7,19,38.4,28,30.1c9.5-8.8,22.2-13.1,34-11.7c3.2,0.4,9.2,1.8,13.2,6.1c0.7,0.8,1.4,1.7,1.9,2.6
		c-0.3,0.2-0.3,0.5-0.2,0.8c0.4,0.5,0.7,1.2,0.9,2c0.5,1.7,0.6,3.7,0.7,5.6c0.1,0.9,0.1,1.8,0.2,2.6C79.1,41.7,79.5,45.4,80,50.2z
		 M95.9,28.6c-3.5,2.9-9.1,3-16.6,0.3c-0.2-0.1-0.4-0.1-0.6,0.1c-0.2-0.5-0.4-1-0.7-1.4c0.2-0.2,0.3-0.5,0.2-0.7
		c-0.3-0.6-0.7-1.2-1.1-1.7c3.6,0.5,7.4-1.5,10.6-3.3c0.4-0.2,0.8-0.4,1.1-0.6s0.7-0.4,1-0.6c3.1-1.7,5.6-2.9,7.5-0.8
		c1.1,1.3,1.3,2.8,1.2,3.8C98.3,25.5,97.4,27.4,95.9,28.6z"/>
</g>
</svg>
