<?xml version="1.0" encoding="utf-8"?>
<!-- Generator: Adobe Illustrator 21.1.0, SVG Export Plug-In . SVG Version: 6.00 Build 0)  -->
<svg version="1.1" id="Layer_1" xmlns="http://www.w3.org/2000/svg" xmlns:xlink="http://www.w3.org/1999/xlink" x="0px" y="0px"
	 viewBox="0 0 100 100" style="enable-background:new 0 0 100 100;" xml:space="preserve">
<g>
	<path d="M69.4,67c-0.7,0.6-1.8,0.9-2.6,0.7c-0.5-0.2-0.8-0.5-0.9-1.1c-0.1-0.4-0.5-0.7-0.9-0.6c-0.4,0-0.7,0.5-0.6,0.8
		c0.2,1.2,0.9,2,1.9,2.3c0.4,0.1,0.7,0.2,1.1,0.2c1.1,0,2.3-0.4,3-1.1c0.4-0.3,0.4-0.8,0.1-1.1C70.2,66.7,69.7,66.7,69.4,67z"/>
	<path d="M97.9,57.5c1.9-8.2,1.4-15.2-1.7-22C90.8,23.4,80.8,13.8,68.7,9c-14.2-5.6-30.8-5-43.2,1.5C11.8,17.7,2.9,29.2,1.3,42
		c-1.7,13.3,3.9,31.3,17.8,38.8c-0.2,0.2-0.3,0.6-0.1,0.9c4.1,6.9,11.6,11.9,19,12.7c0.4,0.1,0.8,0.1,1.2,0.1c1.9,0,3.3-0.7,4.3-1.9
		c1.1-1.7,0.6-4-1.1-5.2c-1.1-0.8-2.3-0.7-3.3-0.7c-0.8,0-1.5,0.1-2.1-0.2c-1.3-0.6-2.6-1.9-3-3.3c2.6-0.7,4.8-1.9,6.7-3.7
		c0.1-0.1,0.2-0.3,0.2-0.5c2.4,0.8,5.1,1.4,7.9,1.7c-0.3,0.8-0.3,1.6,0.1,2.4c1,2.2,4,4.1,6.1,4.5c0,0.1,0,0.3,0.1,0.4
		c0.4,1.6,1.6,2.9,3.2,3.5c0.6,0.2,1.2,0.3,1.8,0.3c1,0,2-0.3,2.8-1c1.3-0.9,1.5-1.9,1.7-2.8c0.1-0.5,0.2-0.9,0.4-1.3
		c0.4-0.8,0.9-0.9,2.1-1.1l0.5-0.1c4.5-0.7,7.9-2.1,10.5-4.1c0,1,0,2,0,3v0.7c0.1,2.8,0.1,6.4,2.5,8.6c1.1,1.1,2.5,1.5,3.8,1.5
		c2,0,3.9-1,5.4-2.4c4.1-4.4,2.7-11.6,1.3-16.6c-0.4-1.4-0.9-2.8-1.4-4C94.5,69.2,96.5,63.4,97.9,57.5z M50.3,82.5
		c-0.3-0.6-0.2-1.2,0.2-1.7c0.9,0.1,1.8,0.1,2.6,0.1c1.7,0,3.4-0.1,5.1-0.4c-1.6,1.4-3,3.4-3.2,5.5C53.5,85.6,51,84.1,50.3,82.5z
		 M89,70.7c-2.2-4.8-5.3-9-9.2-12.2c-0.3-0.3-0.8-0.2-1.1,0.1c-0.3,0.3-0.2,0.8,0.1,1.1c3.8,3.2,7,7.5,9.1,12.4
		c0.6,1.4,1.1,2.9,1.6,4.5c2.1,7.3,1.8,12.2-0.9,15.1c-1.7,1.8-4.8,2.6-6.8,0.8c-1.9-1.8-2-4.8-2-7.5v-0.7c0-1.3,0-2.5,0-3.8
		c0-2.8,0-5.7-0.3-8.5c-0.4-4.2-1.7-6.9-4.2-8.3c-0.4-0.2-0.9-0.1-1.1,0.3s-0.1,0.9,0.3,1.1c2,1.1,3.1,3.5,3.4,7.1
		c0.2,2.5,0.2,5,0.2,7.5c-0.2,0-0.4,0-0.6,0.2c-2.4,2-5.7,3.4-10.2,4.1l-0.4,0.1c-1.3,0.2-2.6,0.4-3.3,2c-0.3,0.6-0.4,1.1-0.5,1.6
		c-0.2,0.8-0.3,1.4-1.1,1.9c-0.9,0.7-2,0.8-3.1,0.4c-1.1-0.4-1.9-1.3-2.2-2.4c0-0.2-0.1-0.4-0.1-0.7c-0.2-2.4,1.9-5,4.1-6.2
		c0.3-0.1,0.4-0.4,0.4-0.8c0.8-0.1,1.5-0.3,2.2-0.5c0.1,0,0.2,0,0.2,0c0.1,0,0.2,0,0.1-0.1c4-1.2,8-2.6,11.8-4.2
		c0.4-0.1,0.6-0.6,0.4-1c-0.1-0.4-0.6-0.6-1-0.4c-3.6,1.5-7.4,2.9-11.2,4c-0.1,0-0.1,0-0.2,0c-1,0.3-2.2,0.6-3.4,0.8
		c-3.2,0.6-6.6,0.7-9.9,0.5c-3.5-0.2-6.7-0.9-9.5-2c-2.3-0.8-4.2-2-5.9-3.4c1-0.7,1.9-2.4,2.3-3.8v-0.1c0.1-0.1,0.1-0.1,0.1-0.2
		v-0.1c0-0.1,0-0.1,0-0.1c0.1-0.4,0.4-1.2,0.5-1.8c1.6,0.1,3.2,0.2,4.9,0.2c1.9,0,3.9-0.2,6.6-0.4c1.3-0.1,2.7-0.2,4-0.4h0.7
		c1.3-0.1,2.7-0.3,4-0.6c1.7-0.4,3-1,4.1-1.8c0.3-0.2,0.4-0.5,0.4-0.7c0.1-0.1,0.1-0.2,0.1-0.3c0.6-5.3,6.2-11.3,11.4-10.7
		c0.4,0,0.8-0.3,0.9-0.7c0-0.5-0.3-0.8-0.7-0.9c-6.2-0.8-12.4,6-13.2,12c0,0,0,0.1,0,0.1c-0.7,0.5-1.6,0.9-2.6,1.2
		c-0.9-3.5,0.6-6.9,2-10.3c1.6-3.7,3.2-7.4,2.2-11.7c-1.4-5.6-6.4-9.9-12.9-10.9c-5.6-0.9-11.8,0.7-16.2,4.1
		c-5.3,4-6.1,10.6-2.1,16.7c0.2,0.3,0.6,0.4,1,0.2c0.1,0.2,0.2,0.3,0.4,0.4C40.6,56.7,45.9,61,48.2,66c-1.9,0.2-3.6,0.3-5.1,0.3
		c0.5-2.9-1.3-4.7-3.1-6.6l-0.3-0.3c-0.3-0.3-0.8-0.3-1.1,0c-0.3,0.3-0.3,0.8,0,1.1l0.3,0.3c1.8,1.9,3,3.2,2.6,5.5
		c-1.6,0-3-0.1-4.5-0.3c-0.5-0.1-1.1-0.2-1.7-0.3c-1-0.1-1.9-0.3-2.9-0.6c-0.6-0.1-1.2-0.2-1.6-0.2c-0.7,0-1.3,0.2-1.7,0.6
		c-0.2,0.3-0.6,0.8-0.5,1.7c0,0.7,0.3,1.5,0.8,2.5c0.4,0.9,1,1.8,1.7,2.7c2,2.6,4.9,4.6,8.4,6.1c-1.8,1.8-4.1,2.9-6.7,3.4
		c-0.5,0.1-1,0.2-1.6,0.2c-0.4,0.1-0.7,0.5-0.7,0.9c0.1,0.4,0.4,0.7,0.8,0.7c0.4-0.1,0.8-0.1,1.1-0.2c0.4,2,2.2,3.7,3.9,4.5
		c1,0.4,1.9,0.3,2.8,0.3c0.9,0,1.7,0,2.3,0.4c1,0.7,1.3,2.1,0.7,3c-0.6,1-1.9,1.3-3.9,1.1c-6.7-0.7-13.4-5-17.3-11.1
		c0.5,0.2,1,0.4,1.4,0.6c0.1,0.1,0.2,0.1,0.3,0.1c0.3,0,0.6-0.2,0.6-0.5c0.2-0.4,0-0.8-0.4-1c-0.8-0.3-1.6-0.7-2.4-1.1
		C6.8,72.7,1.1,55.1,2.8,42.2c1.6-12.3,10.1-23.4,23.4-30.3c12.1-6.3,28.1-6.8,41.9-1.4c11.8,4.6,21.5,13.9,26.7,25.6
		c2.9,6.5,3.4,13.2,1.6,21C95.1,62.2,93.5,67.9,89,70.7z M34.4,71.9c-0.2,0.3-0.4,0.5-0.6,0.5c0,0-0.1,0-0.2-0.1
		C33.9,72.2,34.2,72.1,34.4,71.9z M32.6,51.7c0,0,0-0.1,0-0.1c-3.6-5.4-2.9-11,1.7-14.6c4.1-3.1,9.8-4.6,15-3.8
		c5.9,0.9,10.4,4.7,11.6,9.7c0.9,3.8-0.5,7.1-2.1,10.7c-1.6,3.6-3.2,7.3-2.1,11.4c-1,0.2-2,0.4-3,0.4l-0.6,0.1
		c-1.1,0.1-2.2,0.2-3.4,0.3c0,0,0-0.1,0-0.1c-2.4-5.5-7.8-10.1-16.4-14C33.1,51.6,32.8,51.6,32.6,51.7z"/>
</g>
</svg>
