<?xml version="1.0" encoding="utf-8"?>
<!-- Generator: Adobe Illustrator 21.1.0, SVG Export Plug-In . SVG Version: 6.00 Build 0)  -->
<svg version="1.1" id="Layer_1" xmlns="http://www.w3.org/2000/svg" xmlns:xlink="http://www.w3.org/1999/xlink" x="0px" y="0px"
	 viewBox="0 0 100 100" style="enable-background:new 0 0 100 100;" xml:space="preserve">
<g>
	<path d="M28,37.9c-1,0-1.2,1.8,0,1.9C29.3,39.8,29.2,37.8,28,37.9z"/>
	<path d="M99.8,63.3c-0.1-0.5-0.3-0.9-0.8-1.1c-1-0.5-2.2,0.3-3,0.9c-0.3-0.6-0.5-1.2-0.7-1.8c-0.7-2-1.4-4-3.3-5.3
		c-1.5-1.1-3.6-1.5-5.2-0.9c-1.2,0.3-1.6,1.2-1.8,2.2c-3.6-3.6-7.3-7.1-11.4-10.3c-4.5-3.6-9.7-7.6-15.9-8.8v-0.1
		c0-0.2-0.1-0.3-0.2-0.4c-0.2-1.2,0-2.6,0.8-3.3c0.2-0.2,0.4-0.3,0.6-0.4c0.5-0.3,1.1-0.6,1.2-1.5c0.1-0.8-0.3-1.6-1-2
		c-1.8-1.1-3.8,0.3-5.1,2.1c-1.3,1.7-1.7,3.6-1.5,5.5c-0.7-0.1-1.3-0.3-1.9-0.5c0.1-0.3,0.1-0.7,0.1-1c-0.2-1.8-2-2.7-3.5-2.6
		c-1.8,0.2-3.3,1.8-4,4.2c-0.1,0-0.2,0-0.3,0L42,38.4c-0.9,0.2-1.9,0.4-2.9,0.6c-0.1,0-0.2,0.1-0.4,0.1c-0.7,0.1-2.2,0.4-2.7,0.1
		s-0.4-0.9,0.1-2c0.1-0.3,0.2-0.5,0.3-0.7c1.6-4.6,0.3-10.4-3.1-14.1c-0.7-0.7-1.9-1.9-3.1-1.6c-0.7,0.1-1.2,0.7-1.4,1.7
		c-0.3,1.2-0.4,2.5-0.5,3.7c-0.1,1.3-0.2,2.6-0.5,3.8c-0.7,2.6-1.6,4.9-2.8,6.9c-0.1,0.3-0.3,0.6-0.5,0.9c-0.1,0.2-0.2,0.4-0.4,0.6
		c-1.1-1.9-2.9-3.1-5.4-3.8l-0.3-0.1c-2-0.5-4.6-1.2-6.5,0c-1.3,0.8-1.8,2.2-1.3,3.5c0.7,1.7,2.6,1.8,3.9,1.9c2.8,0.1,5.8,0.5,8,2.5
		c0,0,0,0,0.1,0c0,0.4,0.1,0.9,0.1,1.3c-0.1,0-0.1,0-0.2,0.1c-3.9,2.5-8.4,2.1-12.8,1.7l-1.1-0.1c-2.7-0.3-4.7,0.3-6.3,1.8
		c-0.8,0.8-1.7,2.1-1.5,3.4c0.1,0.6,0.4,1.4,1.5,2c0.8,0.4,1.6,0.6,2.5,0.6c1.8,0,3.7-0.8,5.8-1.6c1.5-0.6,2.9-1.2,4.1-1.3
		c0.8-0.1,1.7-0.1,2.6-0.1c2.7,0,5.8,0,7.8-2.3c2.7,3,6.5,4.7,11.7,5.1c1,0.1,1.9,0.2,2.8,0.2c1.6,0.1,3.3,0.2,4.9,0.4
		c2.1,0.3,4.4,0.8,7,1.6c7.2,2.2,17.2,6.4,23.8,14.5c-6.7,1.5-7.9,4.4-7.6,6.7c0.5,4.3,6,6,9.7,6.1c-0.3,1.6,0.1,3.6,1.6,4.4
		c0.5,0.3,0.9,0.4,1.2,0.4c0.4,0,0.7-0.1,0.9-0.3c0.8-0.5,1-2,0.8-3.2c0-0.2-0.1-0.4-0.1-0.6c-0.1-0.8-0.3-1.5-0.1-2.3
		c0.1-0.2,0.1-0.4,0.2-0.6c0.2-0.6,0.4-1.2-0.1-2c-0.3-0.4-0.8-0.6-1.3-0.9c-0.8-0.4-1.3-0.7-1.2-1.1c0.1-0.8,1.5-1,2.4-1.1
		c0.1-0.1,0.2-0.1,0.3-0.1l0.7-0.3c1.4-0.2,2.9-0.4,4.2-1c0.1,0,0.2-0.1,0.4-0.2c2.3,1.3,4.7,5.7,6.1,8.7c0.5,0.8,0.8,1.5,1.1,2
		c0.1,0.1,0.2,0.2,0.4,0.2c0,0,0.1,0,0-0.1c0.2-0.1,0.3-0.3,0.3-0.5c-0.4-2.9-1.1-5.3-2.1-7.5c-0.7-1.3-1.9-3.8-3.4-4.9
		c0.8-1.2,1.2-2.9,1.2-4.9c0.1-0.1,0.1-0.2,0.1-0.4c0-0.4,0.4-0.8,0.8-0.8c0.4,0,0.7,0.2,1.1,0.6c0.1,0.1,0.3,0.2,0.4,0.3
		c0.7,0.5,1.5,0.8,2.3,0.8c1,0,1.9-0.4,2.7-0.9C98.9,65.9,100,64.4,99.8,63.3z M14.7,38.9c-1.4-0.1-2.7-0.2-3.1-1.3
		c-0.4-0.9,0.2-1.9,0.9-2.3c1.6-1,3.9-0.4,5.7,0.1l0.3,0.1c2.5,0.7,4.2,1.8,5.1,3.8c-0.4,0.7-0.7,1.4-0.9,2
		C20.3,39.4,17.4,39,14.7,38.9z M92.3,76.8c0.6,1.3,1.1,2.7,1.5,4.3c-1.5-2.9-3.5-6.4-5.7-8c0.4-0.3,0.7-0.6,1-0.9
		C90.5,73,91.7,75.6,92.3,76.8z M97.7,65.4c-1.3,1.1-2.6,1.2-3.8,0.3c-0.2-0.1-0.3-0.2-0.4-0.3c-0.4-0.4-1-0.9-1.8-0.8
		c-0.6,0.1-1.1,0.4-1.4,0.8c-0.2,0-0.4,0.2-0.4,0.5V66c0.2,2.3-0.2,4.1-1.2,5.3c-0.4,0.6-1,1-1.6,1.4c-0.2,0.2-0.4,0.3-0.7,0.4
		c-1.3,0.6-2.7,0.8-4,1l-0.6,0.1c-0.1,0-0.2,0-0.3,0c-1.1,0.2-3,0.5-3.2,1.9c-0.2,1.1,0.9,1.7,1.7,2.1c0.4,0.3,0.8,0.5,1,0.7
		c0.3,0.3,0.2,0.6,0,1.1c-0.1,0.2-0.1,0.4-0.2,0.7c-0.2,1-0.1,1.8,0.1,2.7c0,0.2,0.1,0.4,0.1,0.6c0.1,0.8,0,2-0.5,2.4
		c-0.2,0.1-0.5,0.1-1-0.2c-1.2-0.7-1.5-2.6-1-3.9c0-0.1,0-0.3-0.1-0.4c-0.1-0.1-0.2-0.2-0.4-0.2c-3.6,0-8.9-1.6-9.4-5.3
		c-0.4-3.5,3.9-5.1,7.5-5.8c0.2-0.1,0.4-0.3,0.4-0.5c0-0.1,0-0.2,0-0.2c0.1-0.2,0.1-0.3-0.1-0.5c-6.8-8.6-17.1-13-24.6-15.2
		c-2.7-0.7-5-1.3-7.2-1.6c-1.7-0.3-3.4-0.3-5-0.4c-0.9,0-1.8,0-2.7-0.1c-5.2-0.4-8.8-2-11.3-5.1c0-0.2-0.1-0.3-0.2-0.4
		c-0.2-0.2-0.5-0.1-0.7,0.1c-0.1,0-0.1,0.1-0.1,0.1c-1.7,2.4-4.6,2.4-7.5,2.4c-1,0-1.9,0-2.7,0.1C13,49.4,11.5,50,10,50.7
		c-2.5,1.1-5.1,2.2-7.2,1c-0.6-0.3-0.9-0.8-1-1.3c-0.1-0.8,0.4-1.8,1.2-2.6c1.4-1.3,3.2-1.8,5.6-1.4l1.1,0.1
		c4.5,0.4,9.2,0.8,13.4-1.9c0.1-0.1,0.2-0.3,0.2-0.4c0,0,0,0,0,0c0,0,0-0.1,0-0.1c0.3-0.1,0.4-0.3,0.3-0.6c-0.2-0.5-0.2-1-0.1-1.5
		c0.1-0.7,0.4-1.5,1-2.5c0.2-0.4,0.4-0.8,0.7-1.2c0.1-0.3,0.3-0.6,0.5-0.9c1.3-2.1,2.2-4.5,2.9-7.1c0.4-1.3,0.5-2.6,0.6-3.9
		c0.1-1.2,0.2-2.4,0.5-3.5c0.1-0.5,0.3-1,0.7-1.1c0.5-0.1,1.4,0.4,2.2,1.3c3.2,3.5,4.4,8.9,2.9,13.2c-0.1,0.2-0.2,0.4-0.3,0.6
		c-0.4,1-1.1,2.4,0.2,3.2c0.8,0.5,2.4,0.2,3.4,0c0.1-0.1,0.3-0.1,0.4-0.1c1-0.1,2-0.4,3-0.6l0.7-0.2c0,0.1,0,0.2,0,0.3
		c-0.6,3.2,0.4,6.7,2.5,9.2c0.1,0.1,0.3,0.2,0.4,0.2c0.1,0,0.2-0.1,0.2-0.3c0.2-0.2,0.3-0.5,0.1-0.7c-1.9-2.3-2.8-5.5-2.3-8.4
		c0-0.2,0-0.5,0.1-0.7c0.2-0.9,1.1-3.9,3.4-4.1c1.1,0,2.4,0.7,2.5,1.8c0.1,0.4,0,0.8-0.3,1.1c-0.3,0.3-0.6,0.5-1,0.8
		c-0.3,0.2-0.5,0.3-0.7,0.5c-0.8,0.6-1.1,1.4-1,2.4c0.2,2.1,2.3,4.3,3.7,5c0.2,0.1,0.5,0,0.6-0.2c0.1-0.2,0-0.5-0.2-0.6
		C49.8,45,48,43,47.8,41.3c-0.1-0.7,0.1-1.2,0.6-1.6c0.2-0.1,0.4-0.3,0.6-0.4c0.5-0.2,0.8-0.5,1.1-0.8c0,0,0,0,0.1,0
		c0.8,0.3,1.7,0.6,2.6,0.7c0.1,0,0.3-0.1,0.4-0.3l0.2,0v-0.1c0-0.1,0-0.1,0-0.1c-0.4-1.8,0-3.8,1.2-5.5c0.8-1.1,2.5-2.7,3.9-1.8
		c0.4,0.2,0.7,0.6,0.6,1.1c0,0.4-0.2,0.5-0.7,0.8c-0.2,0.1-0.5,0.3-0.7,0.5c-1.4,1.3-1.3,3.5-0.9,5c0,0.2,0.2,0.2,0.4,0.3
		c0.1,0.1,0.1,0.1,0.2,0.1c6,1.2,11.2,5.1,15.6,8.6c4.1,3.3,8.2,7,11.8,10.7c0,0.2,0.1,0.5,0.4,0.5c0,0,0.1,0,0.1,0
		c0.7,0.7,1.4,1.4,2.2,2.3c0,0,0.2,0.1,0.3,0.1c0.1,0,0.2-0.1,0.4-0.1c0.2-0.2,0.2-0.5,0-0.7c-0.9-1-1.7-1.8-2.4-2.5
		c0.2-1.2,0.4-1.8,1.3-2.2c1.3-0.5,3.1-0.2,4.4,0.7c1.6,1.1,2.2,2.9,2.9,4.8c0.3,0.9,0.6,1.7,1,2.5c0.1,0.1,0.2,0.2,0.3,0.2
		c0.1,0,0.3,0,0.4-0.1c0.1-0.1,0.2-0.2,0.4-0.3c0.6-0.4,1.6-1.1,2.1-0.9c0.2,0.1,0.3,0.2,0.3,0.4C98.9,63.9,98.2,65,97.7,65.4z"/>
	<path d="M33.2,31.5c-0.2,0.2-0.2,0.5,0,0.7c0.3,0.4,0.2,1,0,1.3c-0.3,0.4-0.7,0.7-1.3,0.5c-0.3-0.1-0.5,0.1-0.6,0.3
		c-0.1,0.3,0.1,0.5,0.3,0.6C31.8,35,32,35,32.2,35c0.7,0,1.3-0.4,1.9-1.1c0.5-0.8,0.4-1.8-0.2-2.4C33.7,31.3,33.4,31.3,33.2,31.5z"
		/>
</g>
</svg>
