<?xml version="1.0" encoding="utf-8"?>
<!-- Generator: Adobe Illustrator 21.1.0, SVG Export Plug-In . SVG Version: 6.00 Build 0)  -->
<svg version="1.1" id="Layer_1" xmlns="http://www.w3.org/2000/svg" xmlns:xlink="http://www.w3.org/1999/xlink" x="0px" y="0px"
	 viewBox="0 0 100 100" style="enable-background:new 0 0 100 100;" xml:space="preserve">
<g>
	<path d="M67.3,69.6c-0.3,2.1,2.8,2.1,2.9,0.1C70.3,67.7,67.4,67.6,67.3,69.6z"/>
	<path d="M59.6,71.5c0.5,2.2,2.9,0.8,2.8-0.9C62.2,67.9,59,69.1,59.6,71.5z"/>
	<path d="M84.5,82.8c-0.8-1.2-2-2.2-3.1-3.1c-0.5-0.4-1-0.8-1.4-1.2c-0.1-0.1-0.1-0.1-0.2-0.2c0.1-0.1,0.1-0.3,0-0.5
		c-0.5-1.2-0.7-2.4-1-3.7c-0.4-1.5-0.7-3.1-1.5-4.6c-1.2-2.1-2.8-4.3-5.1-6.6c-0.1-0.1-0.3-0.2-0.4-0.1c-0.9-3.1-3-5.2-6.1-5.8
		c0,0,0-0.1-0.1-0.1c-4.5-7.5-7.4-16-8.5-24.6c2.9,0.9,5.6,0.7,8.5,0.6h0.3c1.7-0.1,2.7,0.6,4.1,1.5c0.3,0.2,0.7,0.4,1,0.6
		c1,0.6,1.9,0.9,2.7,0.9c0.4,0,0.7,0,0.9-0.3c0.6-0.2,1.3-0.7,1.6-1.8c0.8-2.6-1.3-5.4-3.7-6.6c-1.3-0.6-2.7-0.8-4.1-1
		c-1.2-0.2-2.3-0.3-3.3-0.7c-1.8-0.7-3.3-2-4.8-4.1c-0.3-0.5-0.6-0.9-0.9-1.4c-2-2.9-4.5-6.6-8.7-6.3c1-2.9,3.8-5.5,6.8-6.1
		c2.3-0.5,4-0.5,5.7,0.1c1.2,0.5,2.1,0.4,2.5-0.2c0.7-0.8,0.1-2.3-0.8-3.4c-3.7-4.7-9.7-4.2-14.1-1.8c-4,2.5-6.9,6.8-7.6,11.6
		c-0.1,0-0.1,0-0.2,0c-5.8,0.9-11.3,4.2-14.2,8.6c-0.5,0.6-0.8,1.4-1.2,2.1c-0.8,1.5-1.5,3.1-2.9,3.9c-0.9,0.5-2,0.7-3.1,0.9
		c-1.3,0.2-2.5,0.4-3.7,1.1c-2.4,1.4-4.4,4.2-3,6.9c0.6,1.1,1.6,1.9,2.8,2.2c0.4,0.1,0.7,0.1,1.1,0.1c0.9,0,1.7-0.2,2.5-0.5
		c0.7-0.6,1.1-1.3,1.4-1.9c0.2-0.4,0.4-0.8,0.7-1.1c0.7-0.7,1.5-0.7,2.8-0.6c2.7,0.2,5.5,0.1,7.7-1.5c0.1,1.1,0.1,2.2,0.2,3.3
		c0.7,12.1,1.3,24.5,6.6,35.6c-2.4,2.5-4.2,5.1-5.5,7.9c-1.6,3.2-2.2,6.3-2,9c0.2,1.2,0.8,5.5,3.6,6.2c0.3,0.1,0.6,0.1,0.9,0.1
		c3.2,0,6.2-4.2,8-8c0.1-0.3,0.3-0.6,0.5-0.9c0.7,3.7,2.8,7.1,5.8,9.4c1,0.8,3.9,2.9,6.9,2.9c0.9,0,1.7-0.2,2.7-0.7
		c0.9-0.4,1.6-1.1,2.2-2c0.3,0.6,0.8,1,1.5,1.4c1,0.5,2.1,0.8,3.2,0.8c0.6,0,1.2-0.1,1.6-0.3c3.2-0.9,5.4-4.3,5.9-7.4
		c1.3,0.2,2.6,0.2,3.8-0.1c0.6-0.1,1.1-0.3,1.6-0.5c0,0,0.1-0.1,0.2-0.1c0-0.1,0.1-0.1,0.1-0.1c2.3-1,3.7-2.8,3.7-4.8v-0.2
		C85.4,84.6,85.1,83.7,84.5,82.8z M76.3,70c0.7,1.3,1,2.8,1.3,4.3c0.2,0.7,0.3,1.5,0.5,2.2c-1.5-1.7-2.7-3.5-3.7-5.3
		c-1.1-2.1-1.6-4.3-2.2-6.6c0,0,0,0,0-0.1C74,66.4,75.3,68.3,76.3,70z M35,32.8l-0.1-1.3c0-0.4-0.3-0.6-0.6-0.6
		c-0.4,0-0.6,0.3-0.6,0.6l0.1,1.1c-2,1.9-4.8,2-7.5,1.8c-1.2-0.1-2.6-0.2-3.7,1c-0.4,0.4-0.7,0.9-0.9,1.4s-0.5,1-1,1.4
		c-0.7,0.5-1.6,0.6-2.5,0.4c-0.9-0.2-1.6-0.8-2-1.6c-1.1-2,0.6-4.2,2.5-5.4c0.9-0.6,2-0.8,3.2-1c1.2-0.2,2.4-0.4,3.5-1.1
		c1.7-1,2.6-2.7,3.4-4.4c0.4-0.7,0.7-1.4,1.1-2c2.7-4.2,7.8-7.2,13.1-8.1c0,0.6,0,1.2,0,1.8c0,0.4,0.3,0.6,0.6,0.6
		c0.4,0,0.6-0.3,0.6-0.6c0-0.8,0-1.7,0.1-2.5c0.7-4.5,3.4-8.7,7.2-11s9.1-2.8,12.4,1.3c0.8,1,0.9,1.8,0.8,2c0,0-0.3,0.1-1.1-0.2
		c-1.9-0.7-3.8-0.8-6.4-0.2c-3.6,0.8-7.1,4.2-7.9,7.8c-0.2,1.1-0.2,2.2,0,3.2c0.1,0.3,0.3,0.5,0.6,0.5c0,0,0.1,0,0.2,0.1
		c0.3-0.1,0.5-0.4,0.4-0.7c-0.2-0.8-0.2-1.7,0-2.5c0.1,0.1,0.2,0.1,0.3,0.1c3.6-0.3,5.8,3,7.7,5.8c0.4,0.5,0.7,1,1,1.4
		c1.7,2.3,3.3,3.7,5.3,4.5c1.1,0.5,2.3,0.6,3.5,0.8c1.4,0.2,2.6,0.4,3.8,0.9c1.9,0.9,3.6,3.2,3,5.2c-0.1,0.6-0.4,0.9-0.8,1.1
		c-0.6,0.2-1.6,0-2.6-0.6c-0.4-0.2-0.7-0.4-1-0.6c-1.4-0.9-2.7-1.8-4.8-1.7h-0.3c-3.1,0.2-5.8,0.3-8.7-0.7c0,0,0,0,0,0
		c-0.1-0.8-0.1-1.4-0.2-2c0-0.3-0.3-0.5-0.6-0.5c-0.3,0-0.5,0.3-0.5,0.6c0.1,0.8,0.2,1.7,0.3,2.7c1.1,8.8,3.9,17.5,8.4,25.1
		c-2.4-0.2-5,0.5-7.1,2c-1.1,0.8-2.3,1.7-3.2,2.7c-0.5,0.5-0.7,1-0.9,1.4c-0.2,0.4-0.4,0.7-0.6,1c-0.3,0.3-0.9,0.6-1.4,0.8
		c-0.3,0.2-0.6,0.3-0.9,0.5c-1.1,0.6-2.1,1.3-3.4,2.3c-1.9,1.5-3.6,3-5.2,4.6c-4.9-10.7-5.6-22.9-6.3-34.7
		C35.2,35.8,35.1,34.3,35,32.8z M61,97.7c-2.5,1.3-5.9-0.2-8.3-2.1c-3-2.4-5.1-6.1-5.5-9.8c0-0.1-0.1-0.2-0.2-0.3
		c0.3-0.6,0.5-1.2,0.8-1.8c1.7-3.7,3.4-7.5,6.6-10c0.5,1.5,1.1,2.9,2,4.3c-1.3,0.1-2.7,0.6-3.8,1.6c-1,0.9-1.5,2.1-1.4,3.3
		c0.2,2.4,3.1,5.5,5.8,5.5c0.1,0,0.1,0,0.1,0c0.4,0,0.6-0.3,0.6-0.6c0-0.4-0.3-0.6-0.6-0.6c-2,0.1-4.5-2.5-4.7-4.4
		c-0.1-1.1,0.5-1.8,1-2.3c1-0.9,2.6-1.4,3.8-1.2c1.4,2.1,3.3,4,5.5,5.7c0.1,0.1,0.2,0.2,0.3,0.3c1.3,2.4,1.8,6.5,0.5,9.6
		c-0.1,0.1-0.3,0.3-0.3,0.5c0,0,0,0,0,0.1C62.7,96.4,62,97.3,61,97.7z M69.8,97.6c-1.2,0.3-2.8,0.2-3.9-0.5c-0.4-0.3-1-0.8-1.3-1.6
		c1.3-2.8,1.1-6.3,0.3-8.9c0.1,0,0.1,0.1,0.2,0.1c2.4,1.5,6,3.6,9.7,4.4C74.3,93.8,72.5,96.8,69.8,97.6z M75.8,90
		c-3.7-0.6-7.4-2.8-9.8-4.3c-0.7-0.4-1.5-1-2.3-1.6c-0.1-0.1-0.1-0.1-0.2-0.2c-4-3.2-6.8-6.9-7.8-11c0.1-0.2,0.1-0.5,0-0.7
		c-0.2-0.3-0.5-0.4-0.8-0.2c-0.1,0.1-0.2,0.1-0.3,0.2c-3.9,2.6-5.8,6.8-7.6,10.9c-0.4,0.8-0.7,1.6-1.1,2.4c-0.3,0.7-0.6,1.3-0.9,1.9
		c-2.8,5.4-5.6,8-7.8,7.4c-1.7-0.4-2.5-3-2.7-5.2c-0.3-2.5,0.4-5.3,1.9-8.4c1.4-2.8,3.2-5.4,5.6-7.9c1.6-1.7,3.5-3.4,5.6-5
		c1.2-0.9,2.3-1.6,3.3-2.2c0.2-0.1,0.5-0.3,0.8-0.4c0.7-0.3,1.3-0.6,1.8-1.1c0.4-0.4,0.6-0.9,0.8-1.3c0.1-0.4,0.3-0.8,0.6-1.1
		c0.9-0.9,1.9-1.8,3-2.5c1.8-1.2,3.8-1.8,5.8-1.8c0.5,0,0.9,0,1.5,0c1.7,0.2,4.7,1.2,5.7,5.2c0.1,0.1,0.1,0.2,0.1,0.3
		c0.2,0.5,0.3,0.9,0.4,1.4c0.5,2.4,1.1,4.6,2.3,6.9c1.3,2.4,3,4.7,5.1,6.8l0.2,0.2c0.2,0.2,0.4,0.4,0.6,0.6c0.4,0.4,0.9,0.8,1.4,1.2
		c0.8,0.6,1.6,1.3,2.2,2c-1.6-0.6-3.5,0.2-4.2,1.7c-0.9,1.7-0.5,3.8,0.7,5.3c0.1,0.1,0.3,0.3,0.4,0.3C80,90,80,90,79.9,90
		C78.6,90.3,77.2,90.3,75.8,90z"/>
</g>
</svg>
