<?xml version="1.0" encoding="utf-8"?>
<!-- Generator: Adobe Illustrator 21.1.0, SVG Export Plug-In . SVG Version: 6.00 Build 0)  -->
<svg version="1.1" id="Layer_1" xmlns="http://www.w3.org/2000/svg" xmlns:xlink="http://www.w3.org/1999/xlink" x="0px" y="0px"
	 viewBox="0 0 100 100" style="enable-background:new 0 0 100 100;" xml:space="preserve">
<g>
	<path d="M79.5,98.1c-0.2,0-0.3,0-0.5-0.1c-0.1,0-0.2,0-0.3,0c-1.3-0.5-2.2-2-2.5-3.3c-0.1-0.1-0.1-0.2-0.1-0.4
		c0-0.1-0.1-0.3-0.1-0.3l-0.1-0.3c-0.2-0.7-0.3-1.2-0.7-1.6c-0.3-0.3-0.6-0.5-1-0.7c-0.1,0-0.2-0.1-0.3-0.2c-0.1-0.1-0.1-0.1-0.2,0
		c-0.1,0-0.1,0.1-0.1,0.1c-0.2,1.5-0.9,2.6-2,3.1c-2.4,1.2-4.9-1.2-6.2-2.9c-4-5.2-3.9-12.8,0.2-20.2c0,0,0-0.1,0-0.2
		c0-0.1,0-0.1-0.1-0.1c0-0.1,0-0.1,0-0.2c-2.1-2.8-4.2-5.8-5.9-8.3L59.1,62c-4-5.9-8.2-11.9-13.7-16.8c-4.5-3.9-9.6-6.5-14.7-7.6
		c-0.1,0-0.2,0-0.2,0.1c0,0.1,0,0.2,0,0.2c2.2,2.5,4,8.3,1,10.9c-0.6,0.6-1.8,1-2.6,0.6c-2.9-0.5-3.4-3.7-3.7-5.6l0-0.2
		c-0.3-2.1-0.8-4.6-2.7-6.1c-0.1-0.1-0.1-0.1-0.2-0.1c-0.6,0.1-3.7,0.6-3.9,1.3c0,0.1,0,0.1,0,0.2c1.9,3.7,2.7,6.9,2.3,9.6
		c-0.3,1.9-1.7,3.9-3.8,4.2c-2.2,0.3-3.4-1.6-3.7-3.5c0-0.4-0.1-0.7-0.1-1c0-0.4-0.1-0.8-0.1-1.1l0-0.4c-0.1-1.2-0.2-2.4-0.9-3.5
		c-0.6-0.9-1.3-1.7-2-2.5c-0.7-0.8-1.4-1.6-2-2.5c-2.6-4-3.5-9.2-2.2-13.8c0-0.1,0-0.2-0.1-0.2l-0.1-0.1c0-0.1-0.1-0.1-0.1-0.1
		c-1.6-0.5-3-2-4.2-4.4c-1.3-2.7-1.5-5.6-0.7-8.6c1.1-3.4,4.2-9.4,8.6-8.4c0.3,0,0.3,0.2,0.4,0.4c0.1,0.1,0.1,0.3,0,0.5
		C9.2,4.5,8.7,5.5,8,6.5c-1.2,1.9-2.4,3.8-2.6,6C5.2,15,6,18.2,8.2,19.9c0.1,0.1,0.2,0.1,0.3,0c8.3-8.2,22.9-8.1,33.4-5.4
		c11.8,2.9,21.7,10.1,32,23.2c2.3,2.9,4.1,6.1,5.7,9.8c0.2,0.3,0.3,0.6,0.4,0.9c0.1,0.3,0.3,0.7,0.4,1c1.1,2.7,2.2,5.4,4,7.7
		c0,0.1,0.1,0.1,0.2,0.2c2.2,0.5,3.9,2.2,4.7,3.5c0.4,0.6,0.7,1.2,0.9,1.8c0,0.1,0.1,0.1,0.1,0.1c0,0,0.1,0.1,0.1,0.1
		c0,0,0.1,0,0.1,0.1c3.8,2.9,6,7.4,7.8,11.8c0.8,2,2.4,6.8,0.8,9.2c-0.5,0.7-1.3,1.1-2.1,1.2c-0.1,0-0.1,0-0.2,0.1
		c0,0.1,0,0.1,0,0.2c0.2,0.4,0.4,0.8,0.5,1.2c0.3,0.7,0.7,1.5,1,2.2c0.7,2.2-0.4,3.2-0.6,3.4c-1.3,1-3.2,1-4.6,0.3
		c-0.8-0.4-1.7-0.8-2.6-1.3c-0.1,0-0.1,0-0.2,0c-0.1,0-0.1,0.1-0.1,0.2l0,0.4c0,0.9,0,1.8-0.8,2.5c-1,1-2.3,0.5-3.3-0.2
		c-1.7-1.4-2.2-3.7-1.4-6.9c0-0.1,0-0.2-0.1-0.2c-1.5-1.3-3-2.8-4.2-4.2c-0.1-0.1-0.1-0.1-0.2-0.1c-0.6,0.2-1.3,0.1-1.8,0
		c-0.1,0-0.1,0-0.2,0c0,0-0.1,0.1-0.1,0.2c0.4,2.3,1.4,4.5,2.5,6.6l0.5,1.1c1,2,2.5,4.9,0.1,6.8C80.7,97.9,80,98.1,79.5,98.1z
		 M74.6,73.3c-0.1,0-0.2,0.1-0.2,0.1c-0.4,1.2-0.5,2.6-0.5,3.8l0,0.3c-0.2,3.2,0,6.5-0.3,9.7v1.6c0,0.1,0,0.1,0.1,0.2
		c0,0.1,0,0.1,0.1,0.2c0.3,0.3,0.8,0.6,1.1,0.8c0.2,0.1,0.3,0.2,0.5,0.3c0.3,0.2,0.6,0.3,0.8,0.6c0.8,0.8,1,1.7,1.2,2.6
		c0,0.1,0,0.2,0,0.3c0,0.1,0.1,0.3,0.1,0.4c0.3,1.2,1,2.2,1.7,2.4c0.5,0.1,1-0.1,1.4-0.4c1.3-1,0.8-2.8-0.4-5.2l-0.6-1
		c-1.3-2.5-2.5-4.9-2.8-7.7c0-0.1-0.1-0.1-0.1-0.2c-0.1-0.1-0.3-0.1-0.5-0.2c-0.2-0.1-0.3-0.2-0.3-0.4c-0.1-0.2,0-0.3,0.1-0.4
		c0.1-0.3,0.5-0.5,0.8-0.3c0.3,0.2,0.6,0.2,0.9,0.3l0.2,0.1c0.4,0.1,0.9,0.2,1.3,0.3c0.1,0,0.1,0,0.2-0.1c0-0.1,0-0.2,0-0.2
		c-1.8-2.4-3.2-5-4.4-7.8C74.8,73.3,74.7,73.3,74.6,73.3C74.7,73.3,74.7,73.3,74.6,73.3z M85.9,88.2C85.9,88.2,85.9,88.2,85.9,88.2
		c-0.1,0-0.2,0.1-0.2,0.2c-0.3,2.2,0.1,3.8,1.2,4.7c0.5,0.4,1.2,0.8,1.8,0.3c0.4-0.3,0.4-1,0.3-1.7v-1.2c0-0.1,0-0.1-0.1-0.2
		c-1-0.6-1.9-1.3-2.8-2.1C86,88.2,86,88.2,85.9,88.2z M71.1,64.1c0.2,0,0.3,0.1,0.4,0.2c0.2,0.3,0.2,0.7,0,0.9
		c-1.9,2-3.3,3.9-4.4,5.8c-4.3,7.3-4.6,14.7-0.8,19.7c1,1.3,3.3,3.7,5.1,2.3c0.8-0.6,1-1.8,1-2.8c0-1.6-0.1-3.2,0-4.9
		c0.1-2.7,0.1-5.4,0.3-8.1c0.1-2.1,0.4-4.3,1.4-6.1c0.4-0.7,0.9-1.2,1.5-1.6c0.3-0.2,0.7-0.1,0.9,0.1c0.2,0.3,0.1,0.7-0.1,0.9
		c-0.2,0.1-0.9,0.7-0.8,1c1.2,3.4,3.1,6.7,5.5,9.7c1.6,1.9,3.2,3.5,4.7,4.8l0.2,0.2c1.7,1.5,3,2.4,4.2,3.1c0,0.1,0,0.2,0.1,0.2
		c0.3,0.2,1.3,1,1.7,0.8c0.2-0.1,0.9-0.8,1.1-1c0.3-0.4,0.4-0.8,1-1.1c0.7-0.4,1.7-0.3,2.2-0.7c0.4-0.3-0.4-1.5-0.6-1.8
		c0,0,0-0.1,0-0.1c-0.1-0.3-0.3-0.6-0.4-0.9l-0.4-0.9c-0.6-1.3-1.2-2.5-1.7-3.8c-1.1-3.1-2-6.5-2.6-9.8c0-0.2-0.3-1.9-0.3-1.9
		c-0.2-1.8-0.6-3.4-1-4.7c-0.3-0.7-0.6-1.5-1-2.1c-1-1.7-2.7-3-4.3-3.2c-0.6-0.1-1.2,0-1.8,0.2c-0.3,0.1-0.7,0-0.8-0.4
		c-0.1-0.2,0-0.4,0-0.5c0.1-0.1,0.2-0.2,0.4-0.3c0.2-0.1,0.9-0.1,0.9-0.3c0-0.1,0-0.1,0-0.2c-1.4-2.1-2.3-4.4-3.2-6.6l-0.2-0.5
		c-0.1-0.3-0.3-0.6-0.4-0.9c-0.1-0.4-0.3-0.7-0.4-1c-1.6-3.7-3.4-6.8-5.5-9.5c-10.2-12.9-19.8-20-31.3-22.8
		C31.3,13.1,17,12.8,9.1,21.1c0,0-0.1,0.1-0.1,0.1c0,0-0.1,0-0.1,0.1c-0.6,0.6-1.1,1.3-1.4,1.8c0,0,0,0.1,0,0.2
		c0,0.1-0.1,0.1-0.1,0.2c0,0,0,0.1,0,0.1l0,0.2c0,0,0,0.1,0,0.1C5.7,28.3,6.4,33.5,9,37.5c0.6,0.8,1.2,1.6,1.9,2.4L11,40
		c0.7,0.8,1.4,1.6,2,2.5c1.3,2,1,4.3,1.3,6.6c0.5,3.8,4.5,2.3,5-0.7c0.4-2.6-0.5-5.7-2.6-9.6c-0.1-0.2-0.1-0.3,0-0.5
		c0.1-0.2,0.2-0.3,0.3-0.4c1.5-0.7,3.3-1.3,5.2-1.6c0.1,0,0.2-0.1,0.3-0.2h0.2c2.2-0.2,4.5-0.2,6.7,0.1c5.8,0.8,11.8,3.7,16.9,8.1
		c5.5,4.8,9.7,10.8,14.2,17.5c1.6,2.4,3.5,5.2,5.5,7.9c0,0,0.1,0.1,0.2,0.1c0.1,0,0.1,0,0.2-0.1c1.2-1.9,2.6-3.8,4.2-5.4
		C70.7,64.2,70.9,64.1,71.1,64.1z M91.3,65.3C91.3,65.3,91.2,65.3,91.3,65.3c-0.2,0.1-0.2,0.2-0.2,0.2c0.2,1,0.3,1.8,0.4,2.7
		c0,0.2,0.3,1.9,0.3,1.9c0.7,3.5,1.5,6.6,2.5,9.5c0.3,0.9,0.8,1.9,1.2,2.8c0.2,0.4,0.4,0.9,0.6,1.3c0,0.1,0.1,0.1,0.2,0.1h0
		c0.9,0,1.5-0.2,1.9-0.7c1-1.4,0.3-5.1-0.9-7.9c-1.3-3.3-3.1-7.1-5.8-9.8C91.4,65.3,91.3,65.3,91.3,65.3z M26.4,37.3
		c-0.6,0-1.2,0-1.8,0.1c-0.1,0-0.1,0.1-0.2,0.1c0,0.1,0,0.1,0,0.2c1.1,1.4,1.8,3.4,2,5.8c0.3,2.4,0.7,4.4,2.6,4.7
		c0.6,0.1,1.1,0,1.6-0.3c1.3-1.1,1.1-3.6,0.8-5.1c-0.4-1.9-1.4-3.7-2.8-5.1c0-0.1-0.1-0.1-0.1-0.1c0,0-0.1-0.1-0.1-0.1
		c0,0-0.1-0.1-0.1-0.1C27.7,37.3,27,37.3,26.4,37.3z M7.8,4C4.8,4.7,2.6,9.4,2,11.5c-0.8,2.5-0.6,5.3,0.6,7.7c1,2,2.2,3.3,3.3,3.7
		c0.1,0,0.2,0,0.2-0.1c0.4-0.6,0.8-1.2,1.3-1.7c0,0,0.1-0.1,0-0.1c0-0.1,0-0.1-0.1-0.1c-2.6-2.1-3.4-5.8-3.1-8.4
		C4.4,9.9,5.7,7.8,7,5.9c0.3-0.5,0.7-1.1,1-1.6C8,4.2,8,4.1,8,4C7.9,4,7.9,4,7.8,4C7.8,4,7.8,4,7.8,4z"/>
	<path d="M82.9,73.1c-0.1,0-0.1,0-0.2,0c-0.4-0.1-0.8-0.5-1-0.9c-0.7-1.4,1.5-2.3,2.2-1.2c0.3,0.4,0.3,0.9,0.1,1.4
		C83.7,72.8,83.3,73.1,82.9,73.1z"/>
</g>
</svg>
