<?xml version="1.0" encoding="utf-8"?>
<!-- Generator: Adobe Illustrator 21.1.0, SVG Export Plug-In . SVG Version: 6.00 Build 0)  -->
<svg version="1.1" id="Layer_1" xmlns="http://www.w3.org/2000/svg" xmlns:xlink="http://www.w3.org/1999/xlink" x="0px" y="0px"
	 viewBox="0 0 100 100" style="enable-background:new 0 0 100 100;" xml:space="preserve">
<g>
	<g id="XMLID_1_">
		<g>
			<path d="M99.5,61.7c2,1.9-1.4,3.2-2.8,3.4c-1.9,0.4-3.9,0.5-5.9,0.3c-5.1-0.5-9.7-3.2-14.6-4.5c-4.8-1.3-9.7-1.3-14.5-0.9
				c-3.4,0.3-6.8,0.6-10.2,0.8c-4.6,0.3-9.4,0.7-13.7,2.3c3.1,0.4,7.7,2.4,6.6,6.3c-0.9,3.4-5.9,3.1-8.6,2.8
				c-4.7-0.5-9.5-2.3-13.6-4.4c-2-1-4.2-2.2-5.9-3.7c-0.6-0.6-1.6-1.9-2.5-1.7l0-0.3c-0.5,0-1.1-0.3-1.6-0.4
				c-0.6-0.1-1.2-0.2-1.7-0.4c-1.3-0.4-2.2-1.3-2.8-2.4c-1.3-2.3-1.1-5-1.5-7.5c-0.5-3.1-0.8-6.2-1.6-9.3c-0.4-1.5-0.9-3-1.6-4.3
				c-0.3-0.7-0.7-1.3-1-2c-0.2-0.4-0.8-0.9-0.8-1.3c-0.3,0-0.5-0.3-0.5-0.5c0,0,0,0,0,0c-0.4-1.1-1.1-2.9-0.3-4
				c0.6-0.8,2.1-1.3,3.1-1.3c2.8,0,5.1,2.6,6.7,4.7c4.1,5.3,5.5,12.3,10.1,17.4c1.4-1,2.8-2.2,4.3-3.3c-0.1,0-0.1,0-0.2,0.1
				c-1.6-2.8-2.2-6.2-0.5-9c0.8-1.3,1.9-2.5,3.5-2.9c0.7-0.2,3.8-0.6,3.7,0.9c1.6-1.5,5.2-3.1,7.2-1.4c2.2,1.9-0.2,4.7-1.1,6.4
				c6-1.3,12.3-2.8,18.5-2.5c5.9,0.2,11.8,2,17.1,4.5c0-3.3,3.1-7.5,6.4-8.4c1-0.3,2.1-0.2,3.1,0.1c0.5,0.2,0.9,0.6,1.3,0.8
				c0.4,0.1,1,0,1.5,0.2c1.8,0.6,3.5,2.2,2.1,4.1c-0.9,1.3-2.6,1.8-3.4,3.1c-0.6,1-0.4,2.2,0.2,3.1c0.3,0.4,0.7,0.5,1,0.7
				c3.4,3,3.5,8.7,1.8,12.5c2.3,0.3,4.2,2.4,6.7,2.2C95.3,61.5,97.9,60.4,99.5,61.7z M98.4,63.3c1-1-1.6-0.9-2.2-0.9
				c-1.5,0.1-2.8,0.4-4.2,0.1c-1.9-0.3-4.1-1-5.8-2c-0.4-0.2-1-0.4-1.1-0.8c0-0.3,0.4-0.8,0.5-1.1c1.1-2.7,1.3-5.9-0.1-8.5
				c-0.7-1.4-1.9-2.4-3-3.5c-1.2-1.2-2.8-2.1-3.2-3.9c-0.5-1.7,0.3-3,1.7-4c0.7-0.4,2.3-1.2,1.5-2.2c-0.8-1-3-0.8-3.9-0.3
				c-1.5,0.8-2.7,2.3-3.6,3.7c-1,1.5-1.6,2.7-0.8,4.4c1,2,2,3.3,0.7,5.5c-0.7,1.1-0.8,1.5-0.5,2.7c0.1,0.4,0.4,0.5,0,0.9
				c-0.2,0.2-0.2,0.3-0.6,0.1c-0.6-0.3-0.9-1.7-0.8-2.3c0.1-0.9,0.7-1.6,1.1-2.3c0.4-0.8,0.4-1.5,0-2.3c-0.2-0.4-0.5-0.7-0.7-1.1
				c-0.1-0.3-0.2-0.7-0.5-1c-0.2-0.2-0.3,0-0.5-0.2c-0.6-0.3-1.1-0.6-1.7-0.8c-1.1-0.5-2.1-0.9-3.2-1.3c-4.2-1.5-8.5-2.4-13-2.3
				c-4.8,0.1-9.6,1-14.3,2c-0.8,0.2-1.6,0.3-2.5,0.5c-0.3,0.1-1.1,0.1-1.3,0.3c-0.7,0.6,0.1,1.5,0.4,2c0.3,0.6,0,1.2-0.7,0.9
				C34.4,45,35.2,42,35.8,41c0.8-1.4,2.5-3.1,1.9-4.8c-0.5-1.6-3.2-0.8-4.3-0.4c-1.6,0.7-3.1,2.3-3.6,4c-0.6,1.8-0.2,3.7,0.6,5.4
				c0.4,0.9,0.9,1.7,1.5,2.5c0.2,0.2,1.8,2.3,1,2.3c0.1,0.5-0.6,0.1-0.8,0c-0.5-0.3-0.9-1.3-1.3-1.8c-0.7-1-1.2-2.1-1.8-3.2
				c-2.1,1.3-4,3.1-5.9,4.7c-0.4,0.4-0.8,0.7-1.3,1.1c-0.4,0.3-1.1,1.2-1.6,1.2c-0.8,0.1-1.1-0.6-1.5-1.2c-3-4-4.8-8.8-7.1-13.2
				c-0.2,0.8-1.3,3.8-2.6,3.2c-0.7-0.3-0.1-0.7,0.2-1c0.6-0.7,1.1-1.5,1.2-2.3c0.4-1.7-0.4-2.4-1.4-3.7c-1.1-1.4-2.4-2.8-3.9-3.6
				c-0.2,1-0.7,2-1.4,2.7c-0.4,0.4-0.9,0.6-1.3,1c-0.4,0.5-0.3,0-0.2,0.6c0,0.5,0.8,1.1,1,1.5c0.3,0.5,0.4,1.1,0.7,1.7
				c0.5,1.2,0.9,2.4,1.3,3.6c1.3,4.4,1.3,9,2.1,13.5c0.3,1.6,0.7,3.9,2.1,5c1.3,1,2.9,0.5,4.4,1c1,0.3,1.3,0.6,2,1.3
				c0.9,0.9,1.7,1.7,2.8,2.3c3.6,2.2,7.3,3.9,11.4,5.2c1.9,0.6,3.9,1,5.9,1.3c1.9,0.2,4.3,0.5,6.1-0.4c2-1,1.7-3.2,0.3-4.5
				c-1.3-1.2-3.3-2.1-5.1-2.3c-3.5-0.4-7.1-0.4-10.6-1c-1.1-0.2-2.2-0.5-3.2-0.9c-0.5-0.2-1.7-0.5-1.9-1c-0.6-1.1,0.9-0.5,1.4-0.3
				c0.9,0.4,1.9,0.7,2.9,0.9c1.9,0.4,3.8,0.7,5.8,0.7c1.4,0.1,2.8,0,4.3,0.4c-0.1-0.4,4.2-1.5,4.6-1.6c4.3-1,8.8-1.2,13.3-1.5
				c3.2-0.3,6.5-0.6,9.7-0.7c4.2-0.2,8.6-0.1,12.7,0.8c4.1,0.9,7.8,3,11.8,4c2,0.5,4.2,0.9,6.3,0.7C95.2,64.2,97.5,64.3,98.4,63.3z
				 M84.8,40.7c0.7-0.4,1.8-1.1,1.6-2.1c-0.2-1-1.6-1.7-2.5-1.7c0.4,2-1.5,2.1-2.6,3c-1.9,1.6-0.3,3.7,1.1,5c0-0.8-0.1-1.5,0.2-2.2
				C83.1,41.8,84,41.2,84.8,40.7z M83.5,47.4c-0.2-0.3-0.4-0.6-0.5-0.9C83,46.8,83.2,47.1,83.5,47.4z M37.6,62.9
				c0-0.1-0.1-0.1-0.2-0.1C37.5,62.9,37.6,62.9,37.6,62.9z M36.4,62.9c0,0,0-0.1,0-0.1C36.3,62.8,36.3,62.8,36.4,62.9z M30.3,36.8
				c-0.4,0-0.6-0.4-1.1-0.5c-0.6-0.1-1.5,0.1-2.1,0.3c-1.4,0.5-2.6,1.9-3,3.3c-0.4,1.4-0.2,2.9,0.2,4.2c0.3,0.8,1,1.8,1,2.6
				c1.1-0.9,2.3-1.9,3.4-2.7C27.8,41.6,28.5,38.6,30.3,36.8z M20.2,51.8c0,0-0.1,0.1-0.1,0.1C20.2,51.9,20.2,51.8,20.2,51.8z
				 M2.5,29.7c-0.1,0-0.3,0.1-0.4,0.1C2.3,29.8,2.4,29.8,2.5,29.7z"/>
			<path d="M11.8,50.5c1.1,0.6,1.7,1.9,1.2,3.2c-0.2,0.5-1,1-1.2,0c-0.1-0.4,0.3-0.6,0.3-1c0-0.6-0.8-1.4-1.4-1.4
				C10.4,51.3,10.3,49.7,11.8,50.5z"/>
		</g>
		<g>
		</g>
	</g>
</g>
</svg>
