<?xml version="1.0" encoding="utf-8"?>
<!-- Generator: Adobe Illustrator 21.1.0, SVG Export Plug-In . SVG Version: 6.00 Build 0)  -->
<svg version="1.1" id="Layer_1" xmlns="http://www.w3.org/2000/svg" xmlns:xlink="http://www.w3.org/1999/xlink" x="0px" y="0px"
	 viewBox="0 0 100 100" style="enable-background:new 0 0 100 100;" xml:space="preserve">
<g>
	<path d="M22.4,24.7c0.3,1.8,3.7,0.7,2.8-1.2C24.4,22,21.5,22.9,22.4,24.7z"/>
	<path d="M88.6,84.5c-1.2-1.6-2.4-3.4-2.9-5.3c0,0,0,0,0-0.1c1.8-0.6,3.3-1.6,4.5-3c1.9-2.2,2.7-5.2,2.1-7.8
		c-0.6-2.3-2.2-4.6-4.6-4.4c-0.4,0-0.6,0.3-0.6,0.6c0.2,2.9,0,6.4-2.4,8.2c-0.4,0.3-0.8,0.5-1.3,0.7c-3.6-9.6-7.4-16.8-11.8-22.9
		c-6.2-8.3-12-13.4-17.9-15.4c3.4-1.4,4.9-3.9,4.2-6.9c-0.2-1.1-0.8-2-1.8-2.6c-2.3-1.5-6-0.8-8.6-0.2c-1.4,0.3-2.8,0.8-4.2,1.2
		c-1.8,0.6-3.6,1.2-5.5,1.5c-0.1-0.1-0.1-0.2-0.2-0.2c-1.1-0.5-1.3-1.8-0.8-4c0.3-1.2,0.7-2.5,1.1-3.8c0.3-1.2,0.7-2.4,1-3.6
		c0.6-2.1,0.6-3.6,0.1-4.4c-0.1-0.1-0.1-0.2-0.2-0.3c0,0,0,0,0,0c0.6-2.6-0.5-5-2.8-6.3c-2.3-1.3-5.1-1-7.1,0.6
		c-0.3-1.9-0.9-4.3-2.4-5.5C25.9,0.2,25.3,0,24.7,0c-1.6,0-2.9,1.6-3.4,3.1c-0.1,0.2-0.1,0.5-0.2,0.7C20.9,4.9,20.8,6,20.8,7
		c0,0.7,0,1.4-0.1,2c-0.2,2-1,4-1.7,5.7l-0.5,1.4c-2,5.3-4.2,11.3-2.6,16.6c-4.3,1.9-7.5,4.7-9.4,8c-2,3.5-3.4,9.7,0.7,12.4
		c0.7,0.5,1.4,0.7,2.1,0.7c0.4,0,0.8-0.1,1.2-0.4c2.8-1.2,3.8-6.2,3.9-6.8c0.1-0.3,0.1-0.6,0.2-0.9c0.6-3.1,1.2-6.6,4.1-8.1
		c0.1,0,0.1-0.1,0.2-0.1c0.2,0.2,0.4,0.3,0.6,0.5c0.1,0,0.2,0.1,0.3,0.2l0,0c1.3,0.9,2.6,1.7,3.9,2.6c0.9,0.6,1.9,1.3,2.8,1.9
		c-3.6,0.6-8.1,2.8-8,6.9c0.1,2.1,1.2,4.3,3.3,4.4c1.8,0.1,2.2-1.4,2.4-2.5c0.2-0.6,0.3-1.3,0.7-1.6c1.4-1.1,3.8-1.6,5.6-1.7
		c-0.5,2,0.4,4.3,2.2,5.3c0.5,0.3,1,0.4,1.5,0.4c0.3,0,0.5,0,0.7-0.1c1.3-0.4,2.2-1.7,2.7-2.7c0.5,0.5,1.1,0.9,1.5,1.5
		c4.2,4.4,8.1,9.3,11.7,13.9c0.9,1.2,1.7,2.3,2.6,3.6c3,4.3,6.1,8.6,10.9,10.8c-1.3,6.5,1.1,15.2,7.3,18.3c0.8,0.4,1.9,0.7,2.8,0.7
		c1,0,1.9-0.3,2.6-1.2c0.7-1.2,0.4-2.8-0.9-4.9c-0.4-0.7-1-1.4-1.6-2.1c-1.6-1.9-3.1-3.7-2.4-5.8c0.8,0.1,1.5,0.2,2.3,0.2
		c2,0,4-0.5,5.9-1.4c0.6,2.6,1.8,4.7,3.6,6.1c1.1,0.8,2.6,1.5,4,1.5c0.7,0,1.4-0.2,1.9-0.7c2.5-1.8,0.4-4.8-0.4-6
		C89.1,85.2,88.9,84.9,88.6,84.5z M35.4,6.6c1.8,1,2.6,2.7,2.2,4.7c-0.1,0-0.2,0-0.3,0c-1.5,0.1-2.2,2.5-2.7,4
		c-0.1,0.2-0.1,0.4-0.2,0.6c0,0,0,0.1,0,0.1c-0.1,0-0.2,0-0.3,0c-1.3,0.3-3.2-0.3-4.3-1.3c0,0-0.1,0-0.1-0.1c0-2.8-0.2-5.1-0.5-7.2
		c0,0,0.1,0,0.1-0.1C31.1,5.5,33.7,5.7,35.4,6.6z M29.5,18.9c0.1-0.6,0.2-1.2,0.2-1.8c0-0.3,0-0.6,0-0.9c1,0.7,2.3,1.1,3.5,1.1
		c0.2,0,0.4,0,0.6,0c-1.4,2.8-3.2,5.6-4,5.6c-0.1,0-0.3-0.3-0.3-0.4C29.1,21.6,29.3,20.2,29.5,18.9z M13.4,45.6
		c-0.1,0.3-0.1,0.6-0.2,0.9c-0.5,2.4-1.6,5.2-3.2,5.9c-0.6,0.2-1.3,0.1-2.1-0.4c-3.4-2.2-2-7.7-0.3-10.8c2.1-3.8,5.8-6.1,8.8-7.4
		c0.5,1,1,2,1.7,2.8C14.7,38.5,14,42.3,13.4,45.6z M36.5,50.6c-0.5,1.2-1.2,1.9-1.9,2.1c-0.4,0.1-0.8,0.1-1.3-0.2
		c-1.3-0.7-2-2.5-1.6-3.9c0-0.2,0-0.3,0-0.4c0.1,0,0.3,0,0.4,0c1.6,0.2,3.1,0.9,4.6,2.2C36.6,50.4,36.6,50.5,36.5,50.6z M89.1,90.7
		c-1.3,0.9-3.4-0.1-4.5-0.9c-2.1-1.6-3-4.1-3.2-5.6c0.6-0.4,1.3-0.9,1.8-1.4c0.2-0.3,0.2-0.6,0-0.9c-0.3-0.2-0.6-0.2-0.9,0
		c-0.6,0.5-1.3,1-2,1.4c-2.6,1.5-5.7,2-8.6,1.3c-0.3,0-0.6,0.2-0.7,0.5c0,0,0,0.1,0,0.1c-0.1,0.1-0.1,0.1-0.1,0.2
		c-1,2.9,0.9,5.1,2.6,7.1c0.5,0.6,1.1,1.3,1.5,1.9c0.7,1.1,1.4,2.7,0.8,3.6c-0.9,1.3-3.4,0.1-3.7,0c-5.8-2.8-7.9-11-6.6-17.1
		c0-0.1,0-0.3-0.1-0.4c0-0.3-0.1-0.5-0.4-0.6c-4.7-1.9-7.8-6.3-10.8-10.6c-0.9-1.3-1.7-2.5-2.6-3.6c-3.6-4.7-7.5-9.6-11.8-14
		c-0.6-0.7-1.3-1.4-2-2c-1.3-1.2-3.2-2.5-5.7-2.8c-0.3-0.1-0.7-0.1-1.1-0.1c-2.2,0-5.1,0.5-7,2c-0.7,0.6-0.9,1.5-1.1,2.3
		c-0.3,1.2-0.4,1.5-1.2,1.5c-1.5-0.1-2.1-1.9-2.1-3.2c0-3.9,5.2-5.6,8.6-5.8c0.3,0,0.5-0.1,0.6-0.4c0.1-0.3,0-0.6-0.2-0.7
		c-1.4-0.9-2.8-1.9-4.2-2.8c-1.2-0.9-2.6-1.7-3.8-2.6l0,0c0,0,0,0-0.1,0c0,0-0.1-0.1-0.1-0.1c-0.3-0.3-0.6-0.5-0.8-0.8
		c-1-1-1.7-2.2-2.2-3.5c-1.8-5,0.4-10.9,2.4-16.2l0.5-1.4c0.6-1.7,1.4-3.8,1.6-6C22,8.4,22,7.7,22,7c0-1,0.1-2,0.1-3.1
		c0,0,0.1-0.1,0.1-0.2c0.6,0.3,1.6,0.2,2.2,0.2c0.7,0,1.9-0.1,2.4-0.8c0.5,1.1,0.7,2.5,0.9,3.6V7c0.3,2.2,0.5,4.6,0.6,7.6v0.5
		c0,0.7,0,1.3,0,1.9c0,0.5-0.1,1.1-0.2,1.7c-0.2,1.4-0.4,3,0.1,4.2c0.4,1,1.1,1.2,1.5,1.2c2.4,0,5.3-6.6,5.6-7.4
		c0.1-0.2,0.2-0.3,0.2-0.4c0.1-0.1,0.1-0.3,0.2-0.6c0.3-0.9,0.9-3.1,1.7-3.2c0.2,0,0.2,0,0.3,0c0.1,0,0.1,0.1,0.2,0.2
		c0.2,0.3,0.4,1.1-0.2,3.5c-0.3,1.2-0.7,2.4-1,3.5c-0.4,1.3-0.8,2.6-1.1,3.9c-0.6,2.2-0.3,3.8,0.6,4.8c-2.6,0.3-4.7,0-6.7-1
		c-0.3-0.1-0.6,0-0.8,0.3c-0.1,0.3,0,0.6,0.3,0.8c2.5,1.2,5.3,1.5,8.7,0.9c2.1-0.3,4.1-1,6.1-1.6c1.4-0.5,2.8-0.9,4.1-1.2
		c1.4-0.3,5.5-1.3,7.7,0c0.7,0.5,1.1,1.1,1.3,1.9c0.8,3.5-2.2,5.2-4.8,6c-1.4,0.4-2.6,0.6-3.4,0.7c-6.3,0.7-12.8-1-17.9-4.5
		c-0.3-0.2-0.7-0.1-0.9,0.2c-0.1,0.3-0.1,0.7,0.2,0.9c4.6,3.2,10.2,4.9,15.9,4.9c0.9,0,1.9-0.1,2.7-0.4c0.8-0.1,1.9-0.3,3.1-0.6
		c0.1,0.1,0.2,0.1,0.3,0.2c6,1.6,12,6.7,18.4,15.4c4.3,6,8.1,13.2,11.6,22.6c-2.1,0.6-4.8,0.4-6.5-1.1c-0.3-0.3-0.7-0.2-0.9,0
		c-0.3,0.3-0.3,0.7,0,0.9c2.3,2.1,5.9,2.1,8.5,1.1c0.8-0.3,1.6-0.7,2.2-1.2c2.6-2,3-5.6,2.9-8.6c1.6,0.3,2.4,2.3,2.7,3.4
		c0.5,2.2-0.2,4.8-1.8,6.8c-1.1,1.3-2.6,2.3-4.4,2.8c-2.3,0.7-5.2,0.7-7.8-0.1c-0.4-0.1-0.7,0.1-0.8,0.4c-0.1,0.4,0.1,0.7,0.4,0.8
		c1.5,0.5,3,0.7,4.5,0.7c1.2,0,2.3-0.1,3.4-0.4c0,0.1,0,0.1,0,0.2c0.6,2.2,1.9,4,3.1,5.7c0.3,0.4,0.5,0.7,0.8,1.1
		C89.9,88.6,90.2,89.9,89.1,90.7z"/>
</g>
</svg>
