<?xml version="1.0" encoding="utf-8"?>
<!-- Generator: Adobe Illustrator 21.1.0, SVG Export Plug-In . SVG Version: 6.00 Build 0)  -->
<svg version="1.1" id="Layer_1" xmlns="http://www.w3.org/2000/svg" xmlns:xlink="http://www.w3.org/1999/xlink" x="0px" y="0px"
	 viewBox="0 0 100 100" style="enable-background:new 0 0 100 100;" xml:space="preserve">
<g>
	<path d="M76.7,42.4c-1.4-0.7-2.7,1.5-1.3,2.3C76.8,45.8,78.4,43.2,76.7,42.4z"/>
	<path d="M99.6,45.2c-0.2-1.3-1.8-1.7-2.9-1.7c-2.3-0.1-4.3,0.8-6.7,0.5c-4.2-0.5-7.3-2.9-10.4-5.5c-2.6-2.2-6-4.5-9.6-2.8
		c-1.5,0.7-2.3,2.2-3.7,3.2c-1.8,1.2-3.5,2.4-5.2,3.8c-1.4,1.2-2.4,2.7-4.1,3.4c-2.2,0.9-4.5,1.6-6.8,2c-4,0.7-8.3,0.7-12.3-0.5
		c-7.1-2.1-12.4-8.6-12.9-16c-0.2-3.1,2.4-4.5,5.3-4.4c1.5,0,2.7,0.4,3.8,1.5c1,1,2.1,2.9,3.7,2.8c4-0.2,2.5-6.2,0.6-7.8
		c-2.6-2.2-6.7-2.2-9.8-1.6c-1.7,0.4-3.4,1-4.8,2c-0.6,0.4-1.1,1.1-1.8,1.4c-0.8,0.5-1.3,0.4-2.4,0.5c-1.7,0.2-3.4,1-4.8,2
		c-0.9,0.7-1.6,2-2.8,1.9c-1.2-0.1-2.4-2.1-2.7-3.1C9,25,10.7,24,9.9,22.4c-0.8-1.6-2.6-1.1-3.7-0.1c-1.5,1.3-2.1,3.4-1.9,5.3
		c0.2,2,1.4,4,2.8,5.4c0.8,0.8,1.7,1.2,2.6,1.9c0.2,0.2,0.9,0.3,1.1,0.4c0.2,0.3-0.1,1.5-0.1,1.9c0,1.2,0.3,2.4,0.7,3.6
		c0.4,1.2,1.2,1.6-0.3,2.2c-2,0.7-4.1-1.4-5.6-2.4C1.1,38.1-1.5,42.9,2,46c3.2,2.8,8.5,3.1,12.4,2.3c0.3,6.9,6,12.3,11.3,16.1
		c6.5,4.6,14.1,7.4,22.1,8.1c3.7,0.3,8.5-1.5,10.8,2.2c0.8,1.2,1.6,3.2,1.6,4.7c-0.1,1.6-1.5,2.7-0.2,4.4c2.1,2.8,5.4,0.3,6.4-2.1
		c1.8-3.9,0.1-8.3-2.8-11.3c0.8-0.4,1.6-1,2.4-1.3c2.1-0.9-0.3-0.1,1.8-0.2c1.4-0.1,2.9-0.5,4.2,0.4c1.9,1.3,1.7,4.9,4.4,5.1
		c3.4,0.2,3.7-3.9,2.9-6.1c-1-2.8-3.5-5.1-6.7-5c2-2.4,3.2-5.8,5.4-7.9c1.7-1.7,4.7-1.5,7-1.8c3.2-0.4,6.3-0.9,9.2-2.2
		C96.2,50.3,100.2,48,99.6,45.2z M5.5,28.2c-0.3-1.6-0.2-3.2,0.8-4.5C7,22.9,9.1,21.4,9,23.6c0,0.5-0.7,1-0.8,1.6
		c-0.1,0.9,0.2,1.7,0.6,2.5c0.6,1.3,1.8,3,3.4,3.2c-0.6,1.1-1.1,2.2-1.3,3.4C8.3,33.4,6.2,30.8,5.5,28.2z M78,68
		c0.4,1,0.9,2.4,0.6,3.5c-0.6,1.8-2.4,2.1-3.5,0.8c-1-1.3-0.9-2.9-2.4-3.9c-1.6-1.1-3-0.4-4.8-0.6c1-0.7,1.9-1.5,2.7-2.3
		c1.1-1.1,1.2-1.5,2.8-1.1C75.5,64.8,77.1,66,78,68z M92.7,50.9c-2.7,0.9-5.4,1.3-8.2,1.6c-2,0.2-4.1,0.9-6,0.4
		c-0.9-0.3-1.7-0.6-2.3-1.4c-0.3-0.4-0.7-1.8-1.4-1.5c-1.8,0.7,2.7,3.9,3.4,4c-2.3,1.6-3.6,5.3-5.2,7.5c-2,2.6-4.4,5-7.2,6.7
		c-0.6,0.4-2.8,1-3.1,1.5c-0.7,1,0.4,1.3,1.3,2.5c1.7,2.2,2.7,5,1.9,7.8c-0.4,1.6-2.1,4.7-4.3,3.5c-1.2-0.7-0.9-1.7-0.6-2.7
		c0.4-1.6,0.4-2.6-0.2-4.3c-0.7-2.1-1.9-4.4-4.1-5.2c-1.3-0.5-2.5,0.1-3.9,0.1c-1.9,0.1-3.9,0-5.8-0.2C36.5,70.2,24.8,64.8,18.5,56
		c-1.4-1.9-2.5-4.1-2.9-6.5c-0.4-2.6,1.4-0.8,2.2-2.4c0.9-1.7-1.7-0.3-2.2-0.2c-2.9,1-6.1,0.9-9.1,0.2c-2-0.5-5.8-2.1-5.2-4.8
		c0.8-3.8,5.7,1,7.3,1.6c1.2,0.4,3.7,0.6,4.4-0.9c0.5-1.1-0.7-2.3-1-3.4c-0.9-3.5-0.1-7.7,2.5-10.2c1.4-1.4,5.4-3.6,7.3-2.2
		c0.7-0.2,1.6-1.8,2.5-2.4c1.6-1.1,3.5-1.7,5.4-2c2.4-0.4,5.5-0.3,7.6,1.1c2.2,1.5,2.7,7.6-0.7,5.7c-2-1.1-2.6-3.1-5.2-3.5
		c-1.7-0.3-3.5-0.1-5.1,0.7c-5.9,3.2-0.5,13.3,3.3,17c7.2,7.1,18.3,6.6,27.2,3.3c-2.1,3-4.1,7.8-1.8,11.2c3.1,4.6,8.1,1.6,9.9-2.3
		c1.8-3.8,2.6-8,4.3-11.7c0.4-0.8,2.9-3.2,2.6-3.6c-1.2-1.4-3.4,2.6-3.8,3.4c-1.5,3.6-2.5,7.5-4,11.1c-0.8,1.9-2,3.8-4.1,4.3
		c-2.2,0.4-4.1-1.2-4.7-3.2c-0.8-3,0.9-6.4,2.6-8.8c1.3-1.9,3-3.5,4.8-4.9c1.9-1.5,4.4-2.6,6.1-4.3c0.5-0.5,0.7-1.3,1.6-1.7
		c1.1-0.5,2.5-0.5,3.6-0.3c2.6,0.6,4.3,2.6,6.2,4.3c4.3,3.7,9.2,5.2,14.8,4.2c-0.1,0.7,1.5,3.3,2.3,3.2
		C96.1,49.3,94.4,50.2,92.7,50.9z"/>
</g>
</svg>
