<?xml version="1.0" encoding="utf-8"?>
<!-- Generator: Adobe Illustrator 21.1.0, SVG Export Plug-In . SVG Version: 6.00 Build 0)  -->
<svg version="1.1" id="Layer_1" xmlns="http://www.w3.org/2000/svg" xmlns:xlink="http://www.w3.org/1999/xlink" x="0px" y="0px"
	 viewBox="0 0 100 100" style="enable-background:new 0 0 100 100;" xml:space="preserve">
<g>
	<path d="M77.7,67.4c0.1,0,0.3,0,0.4,0c1.2,0,1.4-1.4,0.6-2.1C77.1,64,75.7,66.9,77.7,67.4z"/>
	<path d="M97.4,75.5c-0.2-0.4-0.3-0.9-0.4-1.3c0-0.1,0-0.1,0-0.2c0-0.4-0.1-0.7-0.3-1c0-0.1-0.1-0.2-0.2-0.3c0,0,0,0,0,0
		c-1.1-1.4-2.4-2.6-3.7-3.8c-2.3-2.1-4.4-4.1-5.3-7c0-0.1-0.1-0.2-0.2-0.3c-0.5-3.1-1.4-6.4-3.7-8.5c-2.3-2.2-6-2.4-10.8-0.6
		c-0.1,0-0.1,0-0.1,0.1c-6.3-3.4-11.7-7.5-16.4-12.5c-0.8-1-1.7-1.9-2.6-2.9c-7-7.6-14.3-15.5-25.3-16.6c-1.7-0.1-3.3-0.2-4.9-0.1
		c-0.7,0-1.4,0.1-2.2,0.2c-0.1,0-0.3,0.1-0.4,0.1c-0.1,0.1-0.4,0.1-0.5,0.1c-0.2,0-0.3,0-0.4,0s-0.2-0.1-0.3-0.2
		c-0.5-0.4-0.8-1-1.2-1.6c-0.3-0.5-0.6-1.1-1-1.5c-0.8-1-1.7-1.8-2.6-2.4c-1.5-1-3.1-1.4-4.7-1.8c-0.8-0.2-1.7-0.4-2.5-0.7
		c-2.6-1-4.6-2.4-5.9-4.4C1.6,8.1,1.4,8,1.2,8.1C0.9,8.2,0.8,8.4,0.7,8.6c-0.7,2.9,0.6,6,3.3,7.8c1.1,0.9,2.4,1.3,3.7,1.8
		c1.1,0.5,2.2,0.9,3.2,1.5c1.4,0.9,2.9,2.6,2.5,4.5c-0.1,0.6-0.7,1.4-1.2,2.1c-0.4,0.5-0.8,1.1-1.1,1.7c-0.5,1.1-0.8,2.3-1.1,3.7
		c-1,5.1-0.3,10.6,1.9,15.5c1.2,2.5,2.6,4.6,4.3,6.3c1.6,1.6,4.1,3.7,6.5,3.7c0.3,0,0.5,0,0.7-0.1c1.7-0.3,2.8-1.8,2.5-3.4
		c-0.2-1.2-1-1.7-1.7-2.2l-0.3-0.2c-1.7-1.2-1.5-2.4-1.3-4.2c0-0.2,0.1-0.4,0.1-0.6c2.1,1.7,4.5,3.5,7.4,5.3
		c-0.1,1.5,0.6,2.9,1.8,3.3c0.3,0.1,0.5,0.1,0.8,0.1c0.7,0,1.2-0.3,1.8-0.8c1.2,0.6,2.4,1.3,3.5,1.9l0.3,0.2
		c5.3,2.9,11.3,5.7,18.6,8.8c0.7,2.3,1.7,4.6,2.8,6.7c-0.3,0.3-0.5,0.6-0.9,1c-0.3,0.4-0.7,0.7-1.1,1.1c-2.4,2.3-6.1,5.7-4.7,9.2
		c0.7,1.9,2.7,3.1,4.7,3.1c0.4,0,0.9,0,1.5-0.3c2.5-0.8,4.3-3,5.5-4.7c0.8-1.1,1.5-2.4,2.2-3.8c-0.6,1.9-1.2,3.6-1.5,5.4
		c0,0.1-0.1,0.3-0.1,0.4c-0.3,1.1-0.7,2.5,0.4,3.6c1.8,1.9,5.4,2.2,8,2.4c0.3,0,0.6,0.1,0.9,0.1c2.3,0.2,4.6,0.3,7,0.3
		c2,0,3.9-0.1,5.8-0.4h0.4c3.1-0.2,6.9-0.5,9.8-2.2c1-0.6,1.9-1.4,1.8-3C99.2,81.3,98.2,78.2,97.4,75.5z M91.5,76.8
		C91.5,76.8,91.5,76.8,91.5,76.8c-0.3-0.6-0.5-1.2-0.8-1.9c-0.3-0.7-0.6-1.5-0.8-2.2c3.2-0.2,4.7,0.2,5.3,0.6
		c0.1,0.1,0.1,0.2,0.2,0.2c0.1,0.1,0.2,0.1,0.3,0.2c0,0,0,0,0,0c0,0,0,0.1,0,0.2c-0.1,0.1-0.1,0.3,0,0.4c0,0,0,0.1,0,0.1
		C95.4,75.3,93.5,76.2,91.5,76.8z M91.9,69.8c0.6,0.6,1.1,1.1,1.7,1.7c-1.1-0.2-2.5-0.2-4.2-0.1c-0.6-1.9-1.1-3.9-1.5-5.8
		C89.1,67.2,90.5,68.5,91.9,69.8z M32.4,53.8c-0.4-0.1-0.8-0.6-0.9-1.2c0.6,0.4,1.2,0.7,1.9,1.1C33,53.8,32.7,53.9,32.4,53.8z
		 M60.6,70.9c-0.9-1.6-1.6-3.3-2.2-5c1.5,0.6,3,1.2,4.5,1.8c0,0,0.1,0,0.2,0C62.2,68.9,61.4,69.9,60.6,70.9z M63.6,80.6
		c-1.1,1.5-2.8,3.6-4.9,4.2c-1.8,0.5-3.9-0.5-4.6-2.2c-1.1-2.7,2.1-5.7,4.4-7.8c0.5-0.4,0.9-0.8,1.2-1.1c0.5-0.5,0.9-0.9,1.3-1.3
		c1.2-1.3,2.4-2.8,3.6-4.6l0.6-0.9c1.8-2.7,3.4-5.4,3.1-8.5c-0.1-0.4-0.4-0.6-0.7-0.6c-0.4,0.1-0.6,0.4-0.6,0.7
		c0.2,2.7-1.2,5.2-2.9,7.7l-0.4,0.6c-0.1-0.1-0.1-0.1-0.2-0.2c-2-0.8-3.9-1.6-5.8-2.4c-7.4-3.2-13.3-6-18.7-8.9l-0.3-0.2
		c-1.3-0.7-2.6-1.4-4-2.2c-1.2-0.6-2.4-1.3-3.5-2c-3.4-2-6.1-4-8.4-5.9c-1.4-1.3-2.7-2.6-3.8-3.9c-0.3-0.3-0.6-0.3-0.9-0.1
		c-0.3,0.3-0.3,0.6-0.1,0.9c1.1,1.3,2.3,2.5,3.6,3.6c-0.1,0.5-0.1,1-0.2,1.5c-0.2,1.9-0.5,3.7,1.8,5.3l0.3,0.2
		c0.7,0.5,1.1,0.8,1.2,1.4c0.2,1.1-0.6,1.8-1.5,2c-2.4,0.5-5.3-2.4-6.2-3.3c-1.6-1.6-3-3.6-4-5.9c-2.1-4.7-2.7-9.9-1.7-14.7
		c0.2-1.3,0.6-2.4,1-3.4c0.3-0.5,0.6-1,1-1.5c0.6-0.8,1.2-1.6,1.4-2.6c0.5-2.5-1.2-4.6-3-5.8c-1.1-0.7-2.3-1.2-3.5-1.6
		c-1.2-0.4-2.4-0.9-3.4-1.6C3,14.2,2,12.3,1.9,10.3c1.4,1.6,3.3,2.8,5.5,3.6c0.8,0.3,1.7,0.6,2.6,0.8c1.5,0.4,3,0.7,4.3,1.6
		c0.8,0.5,1.6,1.2,2.4,2.1c0.3,0.3,0.6,0.8,0.9,1.3c0.4,0.7,0.8,1.4,1.4,1.9c0.2,0.1,0.3,0.2,0.3,0.3c0.3,0.3,0.6,0.3,0.8,0.2
		c0,0,0.1,0,0.3,0c0.3,0,0.6,0,0.9-0.1c0.1-0.1,0.2-0.1,0.3-0.1c0.7-0.1,1.4-0.2,2.1-0.2c1.5-0.1,3.1-0.1,4.7,0.1
		c10.6,1,17.7,8.7,24.5,16.2c0.8,1,1.7,2,2.6,2.9c4.9,5.2,10.5,9.5,17.1,13c0.3,0.1,0.6,0,0.8-0.3c4.2-1.6,7.4-1.5,9.3,0.4
		c2.1,2,2.9,5.2,3.4,8.1c0.1,0.6,0.2,1.3,0.3,1.9c0.7,4,1.7,7.8,3.2,11.5c0.3,0.7,0.4,1.2,0.7,1.7c-0.8,0.2-1.6,0.4-2.2,0.5
		c-2,0.4-4.2,0.5-6.6,0.5c-0.1-0.1-0.1-0.2-0.2-0.3c-0.7-0.3-1.3-0.7-1.9-1.1l-0.1-0.1l-0.1-0.1c-0.1,0-0.1,0-0.1,0
		c-1.4-1-2.6-2.3-3.7-3.7c-0.1-0.1-0.2-0.3-0.3-0.4c-0.3-0.4-0.6-0.9-0.9-1.4c-0.1-0.3-0.5-0.4-0.8-0.2c-0.3,0.1-0.4,0.5-0.2,0.8
		c0.2,0.4,0.4,0.7,0.7,1.1c-1.5,0-3.3,0.1-4.8,1.1c-0.2,0.1-0.3,0.2-0.5,0.4c0,0,0,0,0,0c1.3-3,2.3-6.1,3.3-9.2l0.5-1.4
		c0.1-0.3-0.1-0.7-0.4-0.8c-0.3-0.1-0.7,0.1-0.8,0.4l-0.5,1.4c-1.1,3.2-2.1,6.4-3.5,9.5C66.1,76.7,64.9,78.8,63.6,80.6z M74.6,73.8
		L74.6,73.8c1.1,1.4,2.4,2.7,3.8,3.8l0.1,0.1c0,0.1,0.1,0.1,0.1,0.1c0.1,0.1,0.2,0.2,0.4,0.2c-0.8-0.1-1.7-0.1-2.6-0.2h-0.1
		c-2.1-0.3-5.9-0.7-7.1-2.6c0.1-0.2,0.2-0.3,0.5-0.5C71.1,73.8,73,73.8,74.6,73.8z M97,86c-2.6,1.6-6.2,1.8-9.3,2.1h-0.4
		c-4.3,0.4-8.5,0.3-12.6-0.1c-0.3,0-0.6-0.1-0.9-0.1c-2.3-0.2-5.7-0.5-7.2-2c-0.5-0.6-0.4-1.3-0.1-2.4c0-0.1,0.1-0.3,0.1-0.4
		c0.6-2,1.2-4.3,2-6.6c1.9,1.8,5.3,2.2,7.5,2.5h0.1c2.2,0.3,4.3,0.4,6.2,0.4c2.1,0,4-0.1,5.9-0.5c0.1,0,5.7-1,7.9-3.1
		c0,0,0,0.1,0,0.1c0.9,2.8,1.8,5.6,2,8.3C98.2,85,97.9,85.4,97,86z"/>
</g>
</svg>
