<?xml version="1.0" encoding="utf-8"?>
<!-- Generator: Adobe Illustrator 21.1.0, SVG Export Plug-In . SVG Version: 6.00 Build 0)  -->
<svg version="1.1" id="Layer_1" xmlns="http://www.w3.org/2000/svg" xmlns:xlink="http://www.w3.org/1999/xlink" x="0px" y="0px"
	 viewBox="0 0 100 100" style="enable-background:new 0 0 100 100;" xml:space="preserve">
<path d="M98.4,73.5c-0.5-0.8-0.9-1.7-1-2.3c-0.2-1.2-0.3-2.4-0.4-3.5c-0.2-1.9-0.4-3.8-0.9-5.8c-0.6-2.2-1.4-4-2.5-5.4
	c-0.3-0.4-0.7-0.7-1-1.1c-0.6-0.6-1.1-1.3-1.4-2c-0.3-0.8-0.2-1.9-0.2-2.9c0-0.5,0-1.1,0-1.7c-0.2-2-0.4-4-0.9-6
	c-1.7-7.6-5.6-13.7-10.8-17.4c-2.8-1.9-4.1-3.4-4.7-7l-0.1-0.3c-0.5-2.8-0.9-5.5-2.1-8.2c-2.8-6.4-7.8-10-13.4-9.5
	c-3,0.2-6.9,1.6-9.1,4c-0.9,1.4-1.2,3-0.8,4.7c0.1,0.3,0.3,0.6,0.6,0.7c0.3,0.1,0.6,0.1,0.9-0.1c2.5-1.8,5.2-2,7.9-0.7
	c4.4,2.2,8,8.5,8.1,14c0.1,2.5-0.6,6-4.1,7.8l-0.1,0.1c-0.2,0.1-0.3,0.3-0.4,0.4c-16.5,9.4-30.2,26.1-37.2,44.8c-0.1,0-0.1,0-0.2,0
	c-6-0.4-11.8-0.6-17.1,1.7c-0.7,0.3-3.4,1.5-5.2,3.6c-1.9,2.2-2,4.5-0.3,6.6c2.5,3,7.8,4.4,11.6,5.4l1.2,0.3c1.3,0.4,2.6,0.7,3.9,1
	c4.8,1.2,9.9,2,15.7,2.6C38.7,97.8,43,98,47.2,98c2.5,0,5-0.1,7.3-0.4l1-0.1c1.6-0.1,3.3-0.2,5-0.4c5-0.5,8.8-1.2,12-2.4
	c3-1.1,6.4-3.8,6.9-6.7c0.3-1.2,0.1-3.1-2-4.9c-3.7-3.2-9.3-3.3-14.2-3.5c-0.9,0-1.8,0-2.5-0.1c0.5-1.8,1.2-3.6,2-5.2
	c4-8,8-12.5,12-13.5c5.4-1.3,9.3,3.5,11.2,8.4c0.3,0.7,0.5,1.3,0.7,2c0.7,2.3,1.5,4.6,3.3,6.4c1.8,1.8,5.8,4,8.5,1.9
	C100.7,77.8,99.4,75.3,98.4,73.5z M15.4,91.9l-1.2-0.3c-3.4-0.9-8.6-2.3-10.7-4.9c-0.7-0.8-1.4-2.2,0.3-4.1c1.2-1.4,3.1-2.5,4.5-3.1
	c4.9-2.1,10.1-1.9,15.8-1.5c-1.3,3.7-2.4,7.6-3.1,11.4c-0.2,1.1-0.4,2.3-0.6,3.6c0,0.1,0,0.1,0,0.2c-0.4-0.1-0.8-0.2-1.2-0.3
	C18,92.6,16.7,92.3,15.4,91.9z M63.1,81.5c4.6,0.2,9.8,0.4,13,3.1c1.1,1,1.6,2,1.4,3.1c-0.3,2.2-3.1,4.4-5.6,5.3
	c-3,1.1-6.7,1.9-11.5,2.3c-0.5,0.1-1,0.1-1.5,0.1c0-0.1,0-0.1,0-0.1c0-0.1,0-0.3,0-0.4c0.1-0.2,0.2-0.4,0.3-0.6
	c-0.1-0.7-0.1-1.4-0.1-2.1c-0.1-1.1-0.1-2.1,0-3.1c0.1-1.9,0.3-3.8,0.6-5.6c0.1-0.7,0.3-1.4,0.5-2.1C61,81.4,62,81.5,63.1,81.5z
	 M96.9,78.1c-1.7,1.2-4.6-0.3-6-1.7c-1.4-1.4-2.1-3.5-2.8-5.6c-0.2-0.7-0.4-1.4-0.7-2.1C85.3,63,80.6,57.5,74,59.1
	c-4.5,1.1-9,6-13.2,14.5c-1.5,2.9-2.6,6.2-3.2,9.7c-0.4,1.9-0.6,3.9-0.7,5.9c0,1,0,2.1,0,3.2c0,0.7,0.1,1.5,0.1,2.2
	c0,0.3,0,0.6,0,0.9c0,0,0,0.1,0,0.1c-0.5,0-1,0.1-1.5,0.1l-1,0.1c-6.4,0.4-13.1,0.3-19.8-0.4c-4.5-0.5-8.6-1.1-12.5-1.9
	c0-0.1,0.1-0.2,0.1-0.2c0.2-1.3,0.4-2.4,0.6-3.5c4.6-23.7,20.7-46.1,40.8-57.2c0.2-0.1,0.4-0.3,0.5-0.5c2.9-1.9,4.6-5.1,4.5-9.1
	c-0.1-6.3-4.1-13.2-9.2-15.7c-2.8-1.4-5.8-1.4-8.5,0c0.1-0.6,0.3-1.2,0.7-1.7c1.4-2,4.7-3.1,7.2-3.3c7-0.6,10.6,6.3,11.5,8.4
	c1.2,2.5,1.6,5.1,2,7.8l0.1,0.3c0.7,4.3,2.4,6.1,5.5,8.3c4.9,3.4,8.4,9.2,10,16.2c0.4,1.9,0.7,3.8,0.8,5.7c0,0.4,0,0.9,0,1.5
	c-0.1,1.2-0.1,2.5,0.3,3.6c0.4,1.1,1.1,2,1.8,2.7c0.3,0.3,0.5,0.7,0.8,1c1,1.2,1.7,2.7,2.2,4.7c0.5,1.8,0.6,3.6,0.8,5.5
	c0.1,1.2,0.2,2.4,0.4,3.6c0.2,1,0.7,1.9,1.2,2.9C97.4,76.6,97.7,77.5,96.9,78.1z"/>
</svg>
