<?xml version="1.0" encoding="utf-8"?>
<!-- Generator: Adobe Illustrator 21.1.0, SVG Export Plug-In . SVG Version: 6.00 Build 0)  -->
<svg version="1.1" id="Layer_1" xmlns="http://www.w3.org/2000/svg" xmlns:xlink="http://www.w3.org/1999/xlink" x="0px" y="0px"
	 viewBox="0 0 100 100" style="enable-background:new 0 0 100 100;" xml:space="preserve">
<g>
	<path d="M83,35.1c-1.1-3.2-4.5-4.5-7.3-5.8c-1.6-0.7-3.2-1.5-4.5-2.7c-1.1-1-1.9-1.9-2.5-3.2c-2.4-4.9-6.7-9.2-12.6-8.2
		c-0.8-6.2-4-12.7-10.4-14.7c-2.9-0.9-6.3-0.8-8.7,1.2c-1,0.8-2.4,2.8-0.7,3.7c0.6,0.3,1.2,0.2,1.9,0.3c0.9,0,1.8,0.2,2.7,0.4
		c3.4,0.8,6.8,2.9,8.9,5.7c0.9,1.2,1.5,2.6,1.5,4.1c0,1.9-1.2,3.4-1.5,5.2c-0.5,3.2,0.5,6.3,1.3,9.4c0.2,0.9,0.5,1.8,0.3,2.8
		c-0.5,1.7-1.9,2.9-3.1,4.1c-2.3,2.2-4.6,4.7-2.9,8c0.6,1.2,1.9,1.9,3,0.6c0.9-1.1,0.1-2.9,1.8-3.2c0.6-0.1,1.9-0.2,2.5,0
		c0.1,0,0.3,0,0.4,0c0,0.4,0,0.7,0,1.1c0,0.5,0,1.1,0,1.6c0,2.1-0.1,4.2-0.3,6.3c-0.4,4.1-1.1,8.1-2.2,12c-0.7,2.5-1.4,5-2.4,7.3
		c-1,2.4-2.7,5.5-5.3,6.5c-1.2,0.4-2.6,0.4-3.8,0.8c-1.7,0.6-3.3,1.7-4.4,3.2c-1,1.3-1.6,2.8-1.7,4.4c0,0.2,0.1,1.1,0,1.3
		c-0.1,0.2-1.2,0.4-1.4,0.4c-0.9,0.3-1.9,0.5-2.8,0.7c-2.7,0.6-9.7,0-10.7,3.5c-1.1,3.6,5.9,5.1,8.1,5.6c4.5,0.9,9.1,0.9,13.6,0
		c2.1-0.5,4.2-1.1,6.2-2c0.8-0.4,1.7-0.8,2.5-1.1c0.9-0.3,1.9-0.5,2.8-0.9c0.7,3.2,2.7,7.6,6.8,6c1.3-0.5,2.4-1.8,3-3
		c0.3-0.7,0.5-1.5,0.5-2.2c0-0.4-0.1-0.9,0-1.3c0.1-0.6-0.1-0.4,0.5-0.9c0.7-0.6,1.4-1.6,2.2-2c0.6-0.3,0.3-0.3,1,0.1
		c0.3,0.2,0.7,0.5,1,0.7c1.5,0.9,3.2,1.4,4.9,1.7c2.4,0.4,5.8,0.4,7.6-1.6c1.9-2.1,0.5-6.4-2.8-5.3c-0.6,0.2-1.2,0.7-1.7,1.1
		c-0.2,0.2-0.6,0.8-0.9,0.8c-1,0-2.5-2.6-2.9-3.3c-0.3-0.6-0.9-1.7-0.9-2.4c0-0.8,0.7-2,1-2.8c0.6-2.1,1-4.2,1.3-6.3
		c0.5-3.8,0.7-7.7,0.7-11.5c0.1-8,0.3-16-0.4-24c1.4,0.8,2.8,0.8,4.3,0.8c1.3,0,1.8,0.7,2.9,1.3C82.1,41.1,83.7,37.5,83,35.1z
		 M35.6,82.3c0.9-1.1,2.1-1.9,3.5-2.5c-1.3,1.1-2.2,2.5-2.6,4.2c-0.4,1.8-1.2,2.1-2.6,3.1C33.8,85.4,34.4,83.6,35.6,82.3z
		 M81.2,38.5c-1.3,0.9-2.4-0.7-3.5-1.1c-1.4-0.5-3,0-4.5-0.5c-0.9-0.3-2.3-1.8-2.5-0.2c-0.1,0.6,0.1,1.5,0.2,2.2
		c0.1,1,0.1,1.9,0.2,2.9c0.4,6.6,0.2,13.2,0.1,19.8c0,3.6-0.2,7.1-0.7,10.7c-0.2,1.8-0.6,3.6-1,5.4c-0.4,1.6-1.6,3.7-1.3,5.4
		c0.3,1.7,3.1,7.1,5.5,5.7c1-0.6,1.7-2.1,3-1.9c1.6,0.3,1.7,2.3,0.9,3.4c-1.5,2.2-5.5,1.8-7.7,1.3c-1.9-0.4-3.3-1.3-4.9-2.4
		c-0.8-0.5-1-0.6-1.7,0.1c-0.8,0.7-1.5,1.6-2.4,2.2c-0.7-3.1-2.6-6-4.6-8.4c-1.9-2.3-4.4-4.6-7.5-5c-0.3-0.1-0.9-0.2-1.2-0.1
		c-0.8,0.3-0.7,0.9,0,1.2c0.4,0.2,1.1,0.1,1.5,0.2c0.7,0.2,1.4,0.4,2,0.8c2.4,1.3,4.3,3.6,5.9,5.8c1.8,2.6,3.9,6.1,3.1,9.4
		c-0.7,3.4-5,5-6.9,1.6c-1.3-2.2-1.4-5.1-2.2-7.5c-0.9-2.7-2.3-6.1-5-7.4c-0.5-0.2-1.6-0.2-1.1,0.7c0.3,0.6,1.5,1,2,1.5
		c1.2,1.2,1.9,2.7,2.5,4.2c0.3,0.9,0.6,1.7,0.9,2.6c0.1,0.3,0.5,1.3,0.4,1.5c-0.1,0.3-1.8,0.6-2.2,0.7c-1,0.2-1.8,0.5-2.8,0.9
		c0.2-0.5,0.3-1.3,0.8-1.6c0.3-0.2,0.8,0,1.1-0.3c0.9-0.9-1.1-1.1-1.6-0.7c-0.7,0.5-1,1.5-1.3,2.3c-0.3,0.8-0.5,0.9-1.3,1.2
		c-0.7,0.3-1.5,0.5-2.2,0.7c-5.9,1.6-12.2,1.7-18-0.2c0.8-1.3,0.4-3.9-0.2-5.2c2.8-0.4,5.5-0.6,8.2-1.4c2-0.5,4.5-1.2,5.7-3.1
		c0.7-1,0.7-2.3,1.3-3.4c0.6-1.1,1.6-1.9,2.6-2.6c1-0.7,2-1,3.1-1.6c3.6-2.1,5.2-6.3,6.4-10.1c1.4-4.4,2.6-8.9,3.2-13.4
		c0.4-3.1,0.6-6.3,0.6-9.4c0-1.6,0-3.2-0.1-4.7c-0.1-0.4-0.2-1.4-0.9-0.9c-0.5,0.3-0.2,1.7-0.2,2.1c-1.8,0.3-4.3-0.8-5,1.7
		c-0.1,0.5-0.1,2.1-0.9,2.1c-0.5,0-0.8-0.9-1-1.2c-1.6-4.2,4.3-6.5,6-9.8c0.1,0.6,0.1,2.4,0.8,2.6c1.1,0.2,0.5-1.8,0.4-2.2
		c-0.3-1.6-0.6-3.2-1.1-4.7c-1.1-3.3-2.1-7.5-0.7-10.8c0.4-0.8,0.8-1.3,0.9-2.2c0.1-1,0.2-1.9,0-2.9c-0.4-1.8-1.4-3.4-2.6-4.7
		C46.8,7,43.1,5.1,39.1,4.7c-0.5-0.1-1.9,0.1-2.3-0.2c-0.6-0.5,0.4-1.4,0.8-1.7c1.3-1.1,3-1.5,4.7-1.5c3.6,0,7,2,9.1,4.8
		c2.1,2.7,2.9,6,3.5,9.3c0.1,0.6,0.2,1,0.8,1.1c0.8,0.1,1.7-0.3,2.6-0.2c1.4,0.1,2.8,0.6,4,1.3c2.4,1.5,4.1,4,5.4,6.6
		c0.7,1.5,1.3,3.2,1.8,4.8c0.1,0.4,0.3,2.5,1.3,1.7c0.6-0.5-0.4-2.8-0.6-3.4c2.5,2.3,5.7,3.2,8.5,4.8c1.2,0.7,2.3,1.5,2.9,2.7
		C82.2,35.9,82.3,37.7,81.2,38.5z"/>
	<path d="M44.3,86.4c0,1.6-1.4,0.6-2.1,0.4c-0.4-0.1-0.9-0.2-0.9,0.4c0,0.5,0.7,0.9,1.1,1.1c1,0.4,2.2,0.3,2.8-0.7
		c0.2-0.3,0.5-1.2,0.2-1.6C45.1,85.6,44.3,85.8,44.3,86.4z"/>
</g>
</svg>
