<?xml version="1.0" encoding="utf-8"?>
<!-- Generator: Adobe Illustrator 21.1.0, SVG Export Plug-In . SVG Version: 6.00 Build 0)  -->
<svg version="1.1" id="Layer_1" xmlns="http://www.w3.org/2000/svg" xmlns:xlink="http://www.w3.org/1999/xlink" x="0px" y="0px"
	 viewBox="0 0 100 100" style="enable-background:new 0 0 100 100;" xml:space="preserve">
<g>
	<path d="M71.4,64.7c2.3,0.2,2.6-3.3,0.3-3.5C69.4,61.1,69.2,64.6,71.4,64.7z"/>
	<path d="M8.1,34.3c1,0.8,2.2,1.4,3.5,1.8c0.2,0.1,0.4,0.1,0.6,0.2c-0.3,1.2-0.3,2.4-0.1,3.5c-0.2,0.1-0.3,0.3-0.3,0.5
		c0,0.9,1.2,1.5,4.7,2.3c0.1,0.1,0.2,0.1,0.3,0.1c1.6,0.4,3.5,0.9,5.3,1.1c1.2,0.2,2.4,0.2,3.6,0.2c1.9,0,3.7-0.1,5.4-0.5
		c3.4-0.3,6.2-0.6,8.7-1.1c0.2,0,0.4-0.1,0.6-0.1c1.6-0.2,3.8-0.6,4.6-1.9c0.4-0.7,0.3-1.7,0.3-2.5c0-0.1,0-0.2,0-0.3
		c0-0.2-0.1-0.7-0.3-1.4c-0.1-0.5-0.3-1.3-0.3-1.6c0.4-0.2,1.4-0.3,1.8-0.4c0.1-0.1,0.3-0.1,0.4-0.1c0.3-0.1,0.7-0.1,1-0.2
		c2.2-0.4,4.5-0.9,6.3-2.4c2.6-2.2,3.4-6.4,1.7-9.4c-0.9-1.5-2.5-2.4-4.1-2.3c-1.7,0.1-3.1,1.2-3.8,2.8c-0.3,0.7-0.5,1.3-0.7,1.9
		c-0.7,1.8-1.2,3.4-2.9,4.7l-0.2,0.1c-0.4,0.3-0.9,0.7-1.3,0.8c-0.1,0.1-0.1,0.1-0.2,0.1c0-0.1-0.1-0.1-0.2-0.2
		c-0.3-0.2-0.7-0.7-1-1.1c-0.3-0.4-0.6-0.8-0.9-1.1c-1.3-1.2-2.8-2.2-4.4-2.9c0.6-3.7,2.8-7.1,7-10.5c0.3-0.3,0.7-0.6,1.1-0.9
		c1.8-1.5,3.5-2.9,5-4.8c1.6-2.1,3.4-4.9,2.5-7.3c-0.1-0.2-0.3-0.4-0.5-0.4C51,0.8,50.8,1,50.7,1.5c-0.3,0.4-0.5,0.9-0.7,1.3
		c-0.5,0.9-0.9,1.7-1.7,2.4c-0.8,0.6-1.7,1.2-2.6,1.7c-0.3,0.2-0.6,0.4-0.9,0.6l-0.2,0.1c-2.6,1.6-5.3,3.3-7.8,5.2
		c-2.3,1.8-5,4.1-6.5,6.9c-0.6,1.1-1,2.6-1.1,4c0,0,0,0-0.1,0c-3.7-0.3-7.4,0.8-10.3,2.9c-0.3,0.2-0.6,0.5-0.8,0.7
		c-0.7,0.7-1.1,1-1.9,0.7c-1.1-0.3-2-1.2-2.6-1.9c-1.4-1.7-1.7-3.1-0.7-4.6c1.3-2.1,2.5-4.5,1.2-7.5c-0.9-1.9-2.3-2.5-3.4-2.6
		c-2-0.3-4.3,0.8-5.8,2.7C1.3,18.6,3.4,26,4.1,28.3C5,30.9,6.3,32.9,8.1,34.3z M5.7,14.9c1.2-1.6,3.2-2.5,4.7-2.3
		c1.1,0.1,1.9,0.8,2.4,1.9c1,2.2,0.3,4-1.1,6.3c-1.7,2.6-0.3,4.7,0.8,6c0.7,0.8,1.8,1.9,3.2,2.3c1.5,0.5,2.3-0.2,3.1-0.9
		c0.2-0.2,0.4-0.4,0.7-0.6c2.7-1.9,6.1-2.9,9.5-2.6c0,0,0.1,0,0.1,0c0.1,1.5,0.5,2.8,1.5,3.5c0.3,0.2,0.7,0.2,0.9-0.1
		c0.2-0.3,0.2-0.7-0.1-0.9c-0.9-0.8-1.1-2.1-1.1-3c0-1.7,0.6-3.4,1.1-4.4c1.4-2.7,3.9-4.8,6.2-6.5c2.5-1.9,5.1-3.6,7.7-5.2l0.2-0.1
		c0.3-0.2,0.6-0.4,0.9-0.6c0.9-0.5,1.9-1.1,2.7-1.8C49.6,5.5,50,5,50.4,4.6c-0.6,1.4-1.5,2.7-2,3.3c-1.4,1.8-3,3.1-4.8,4.5
		c-0.4,0.3-0.8,0.6-1.2,0.9c-4.5,3.6-6.9,7.3-7.5,11.2c-0.1,0.1-0.2,0.1-0.3,0.3c-0.2,0.3-0.1,0.6,0.1,0.7c-0.1,1.1-0.1,2.1,0.1,3.2
		c0,0.3,0.3,0.5,0.6,0.5c0.5,0,0.7-0.3,0.7-0.6C36,27.7,36,27,36,26.2c1.3,0.6,2.6,1.5,3.7,2.5c0.3,0.2,0.5,0.5,0.8,0.9
		c0.4,0.5,0.7,1.1,1.2,1.4c0.2,0.2,0.3,0.3,0.3,0.3c0.1,0.2,0.3,0.3,0.5,0.3c0.2,0.1,0.4,0,0.5-0.1c0,0,0-0.1,0.2-0.1
		c0.6-0.1,1.3-0.6,1.8-1l0.2-0.1c2-1.5,2.6-3.4,3.3-5.3c0.2-0.6,0.4-1.2,0.7-1.8c0.5-1.2,1.5-1.9,2.7-2c1.2-0.1,2.3,0.6,2.9,1.7
		c1.4,2.4,0.7,6-1.4,7.8c-1.6,1.3-3.7,1.7-5.8,2.1c-0.3,0.1-0.7,0.1-1,0.2c-0.1,0.1-0.2,0.1-0.4,0.1c-1.3,0.2-2.3,0.4-2.7,1
		c-0.3,0.4-0.2,1,0.2,2.5c0.2,0.4,0.3,1,0.3,1.2c0,0.1,0,0.3,0,0.4c0.1,0.5,0.1,1.4-0.1,1.7c-0.5,0.9-2.5,1.2-3.7,1.4
		c-0.3,0-0.5,0.1-0.7,0.1c-2.4,0.4-5.2,0.8-8.5,1c-3,0.2-6,0.4-8.9,0.1c-1.8-0.2-3.5-0.7-5.1-1.1c0,0-0.1-0.1-0.3-0.1
		c-2.4-0.6-3.3-0.9-3.6-1.1c0.2-0.1,0.3-0.4,0.2-0.6c-0.3-1.2-0.1-2.9,0.4-4.1c0,0,0.1-0.1,0.1-0.1v-0.1c0-0.1,0.1-0.2,0.2-0.4
		c0.1-0.3,0-0.6-0.3-0.8c-0.3-0.2-0.6-0.1-0.8,0.2c-0.1,0.1-0.1,0.2-0.2,0.4c-0.1,0.1-0.1,0.1-0.2,0.2c-0.1,0.1-0.1,0.2-0.1,0.2
		s-0.1,0-0.5-0.1c-1.2-0.3-2.2-0.9-3.1-1.6c-1.6-1.3-2.8-3.1-3.6-5.5C3.8,23.7,3.2,18,5.7,14.9z"/>
	<path d="M35.4,48.4c0.3,0,0.5-0.4,0.5-0.7s-0.4-0.5-0.7-0.5c-5.3,0.7-11.4,0.6-17.6-0.3c-2.7-0.4-5.8-1-8.6-2.3l-0.2-0.1
		c-0.7-0.3-2.1-1-2.4-1.6c-0.4-0.8,0.4-2.1,1.2-2.6c0.3-0.2,0.4-0.6,0.2-0.9c-0.2-0.3-0.6-0.4-0.9-0.2C5.7,40,4.4,42,5.3,43.5
		c0.6,0.9,2,1.6,3,2.1l0.2,0.1c2.9,1.4,6.1,2,8.9,2.4c3.6,0.5,7.1,0.8,10.5,0.8C30.5,48.9,33,48.8,35.4,48.4z"/>
	<path d="M54.7,41.8c0.4-1,0.4-2.2-0.2-3.1c-0.5-0.8-1.3-1.2-2.2-1.3c-0.4,0-0.7,0.3-0.7,0.6c0,0.4,0.3,0.7,0.6,0.7
		c0.6,0,1,0.4,1.2,0.7c0.3,0.5,0.4,1.3,0.1,1.9c-0.4,0.9-1.5,1.6-2.3,2c-2,1-4.5,1.7-7.7,2c-0.4,0.1-0.6,0.4-0.6,0.7
		c0,0.4,0.3,0.6,0.6,0.6c3.5-0.4,6.1-1.1,8.4-2.2C52.9,43.8,54.2,43.1,54.7,41.8z"/>
	<path d="M54.6,47.5c0.3-0.1,0.4-0.5,0.3-0.8c-0.1-0.3-0.5-0.4-0.8-0.3C46,49.9,35.7,51.6,25,51c-0.4,0-0.7,0.3-0.7,0.6
		c0,0.4,0.3,0.7,0.6,0.7c1.4,0.1,2.8,0.1,4.2,0.1C38.5,52.4,47.4,50.7,54.6,47.5z"/>
	<path d="M71.1,94c0-0.4-0.2-0.7-0.6-0.7c-6.6-0.3-14.1-0.7-21-2.6c-5.5-1.4-6.7-2.7-6.9-3.3c-0.1-0.1-0.1-0.4,0.1-0.7
		c1.5-2.1,4.7-2.4,7.5-2.6c0.2,0,0.4,0,0.5-0.1c0,0.1-0.1,0.2,0,0.4c-0.1,0.2-0.1,0.5,0.1,0.7c1.5,1.7,3.6,2.9,5.9,3.3
		c0.5,0.1,1.1,0.1,1.6,0.1c0,0,0,0,0.1,0c1.4,0.6,4.1,1,6.2,1.2h0.1c2.8,0.3,5.9,0.5,8.7,0.5c3,0,5.6-0.2,7.2-0.7
		c0.1,0,0.2,0.1,0.3,0.1c0.2,0,0.4-0.1,0.4-0.2l0.1-0.1c0.4-0.4,0.8-1.1,1-1.9c0,0,0.1,0.1,0.1,0.1c0.1,0.1,0.2,0.2,0.4,0.2
		c0.1,0,0.3-0.1,0.3-0.1c1-1.2,2.6-0.9,4.4-0.6c2,0.3,4.3,0.7,5.6-1.4c0.7-1,0.7-2.1,0.3-3.1c-0.8-1.7-2.8-3-4.4-3.3
		c-1.5-0.3-4,0-5.7,1.2c-0.1,0-0.1,0.1-0.2,0.1c0.1-0.8,0.2-1.7,0.3-2.5v-0.3c0.2-1.5,0.4-3.2,1.1-4.3c0.5-0.7,1.4-1.3,2.3-1.8
		c0.4-0.2,0.8-0.4,1.2-0.7c1.9-1.3,3.8-2.7,5.3-4.5c0.2-0.3,1.8-2.4,1.2-3.7c-0.1-0.3-0.4-0.8-1.3-0.9c-1.4-0.1-3.1,1.1-4.6,2.1
		c-0.5,0.3-1,0.6-1.3,0.8c-1.2,0.6-2.8,1.5-4.3,1.7c4.4-2.7,8.7-5.9,11.2-10.3c1.3-2.2,2.4-4.4,2.5-7.1c0-0.9-0.2-4.4-1.5-5.7
		c-0.4-0.4-0.8-0.5-1.3-0.5c-0.7,0.1-1.4,0.8-2.4,2.6c-0.1,0.2,0,0.4,0,0.6c-0.1,0.1-0.2,0.3-0.2,0.4c-0.2,0-0.5,0.1-0.6,0.3
		c-0.1,0.2-0.2,0.4-0.3,0.5c-1.5,2.3-2.8,3.9-4.2,5.2c-1.8,1.6-3.4,2.6-5,2.8c-0.7,0.1-0.8,0-1.2-0.4c2.1-1.9,2.2-6,2.3-7.7
		c0.1-2.8,0-6.7-1.9-8.7c-0.6-0.6-1.5-1-2.4-0.9c-0.9,0.1-1.8,0.5-2.3,1.3c-1,1.5-0.6,3.4-0.4,4.6c0.2,0.7,0.4,1.4,0.6,2.1
		c0.2,0.8,0.5,1.5,0.6,2.3c0.4,1.6,0,3-0.5,4.7c-4.2-0.8-8,1.6-10.8,6.7c-0.1,0.1-0.2,0.1-0.3,0.2c-0.1,0.2-0.2,0.3-0.3,0.4
		c-0.1,0-0.1,0.1-0.1,0.1c-1,1.2-3.3,1.7-4.8,2.1h-0.1c-2.8,0.7-5.5,0.9-7.8,0.8c-2.3-0.1-4.6-1-6.9-1.9c-1.6-0.7-3.2-1.3-4.9-1.7
		H40c-1.8-0.4-4.4-1-6.3,0.1c-2.4,1.4-1.9,5.3-1.3,7.2c1.8,5.7,8.9,6.4,12.3,6.4c0.1,0,0.2,0,0.2,0c2.9-0.1,6-0.6,9.1-1.6l0.4-0.1
		c2.2-0.7,4.9-1.6,7-3c-2.1,5.3-4.4,10.6-8.9,14.3c-0.8,0.1-1.7,0.2-2.6,0.3c-3.1,0.2-6.7,0.5-8.5,3.1c-0.5,0.7-0.5,1.4-0.3,1.9
		c0.8,2.1,4.8,3.4,7.9,4.2c7.1,1.9,14.6,2.3,21.3,2.6C70.8,94.6,71.1,94.3,71.1,94z M64.4,88.2c-2.1-0.2-3.8-0.5-4.9-0.9
		c0.2-0.3,0.4-0.5,0.6-0.8c1.8-2.2,3.4-4.3,5.9-5.5c1.4-0.7,4.8-2.1,6.8-0.8c1,0.7,1.3,1.6,1.3,2.3c0,1.2-0.6,2.4-1.6,3.1
		c-0.9,0.7-2.1,0.7-3.4,0.8C67.5,86.5,65.6,86.6,64.4,88.2z M84.3,81.5c1.4-0.9,3.5-1.3,4.7-1c1.2,0.2,2.9,1.3,3.4,2.5
		c0.2,0.6,0.2,1.3-0.2,1.9c-0.7,1.2-2.1,1.1-4.2,0.7c-1.8-0.3-4-0.7-5.5,0.9c0-0.5,0.1-0.9,0.2-1.4c0.1-0.2,0.1-0.4,0.1-0.6
		c0.1-0.3,0.1-0.7,0.1-1.1c0.1-0.1,0.2-0.2,0.3-0.4C83.3,82.4,83.7,81.9,84.3,81.5z M77,39.6c0.4-0.5,0.9-0.8,1.4-0.8s1,0.1,1.3,0.5
		c1.5,1.6,1.6,5.2,1.5,7.7c0,1.7-0.1,5.6-2,6.9c-0.5-0.4-1.1-0.8-1.8-1.1c0.6-1.7,1-3.5,0.6-5.4c-0.1-0.8-0.4-1.6-0.6-2.4
		c-0.2-0.7-0.4-1.3-0.5-2L77,39.6z M63.3,67.3L63.3,67.3c0-0.3,0-0.4,0-0.6c0.2-0.2,0.3-0.3,0.4-0.5c0.3-0.3,0.2-0.7-0.1-0.9
		c-0.3-0.3-0.7-0.2-0.9,0.1c-0.2,0.3-0.5,0.6-0.9,0.9c-2.1,1.8-5.2,2.9-7.8,3.7l-0.4,0.1c-3,0.9-5.9,1.5-8.7,1.5
		c-2.9,0.1-9.8-0.4-11.4-5.5c-0.5-1.7-0.8-4.7,0.7-5.6c1.4-0.8,3.7-0.3,5.4,0.1h0.1c1.6,0.4,3.2,1,4.8,1.6c2.3,0.9,4.8,1.9,7.3,2
		c2.5,0.1,5.2-0.2,8.2-0.9h0.1c1.5-0.3,3.6-0.8,5-2c0,0,0.1,0,0.1,0c0.3,0,0.5-0.1,0.6-0.4v-0.1c0.1-0.1,0.2-0.1,0.2-0.2
		c1.9-3.8,5.2-8,10.2-6.7l0.3,0.1c0.8,0.2,1.5,0.6,2,1.1c0.2,0.2,0.4,0.4,0.5,0.6c0.6,0.7,1.1,1.1,2.5,0.9c1.9-0.3,3.7-1.4,5.7-3.2
		c1.5-1.4,2.9-3.1,4.4-5.4c0.1-0.1,0.2-0.3,0.2-0.4c0.4,0.3,0.9,0.6,1.4,0.8c1.2,0.5,1.9,0,2.3-0.8c0.1,0.5,0.1,1,0.1,1.3
		c-0.1,2.4-1.1,4.4-2.3,6.5c-2.7,4.8-7.5,8-12.4,10.9c-0.2,0.1-0.3,0.3-0.3,0.6s0.2,0.5,0.4,0.6c2.5,1,5.3-0.6,7.2-1.6
		c0.4-0.2,0.9-0.5,1.4-0.9c1.1-0.8,2.8-2,3.7-1.9c0.1,0,0.2,0.1,0.2,0.1c0.2,0.3-0.3,1.5-1,2.3c-1.3,1.6-3.2,3-5,4.2
		c-0.3,0.3-0.7,0.5-1.1,0.7c-1,0.5-2.2,1.2-2.8,2.2c-0.9,1.4-1.1,3.2-1.3,4.8L82.2,78c-0.1,1-0.2,2-0.3,3c-0.1,0.6-0.1,1.2-0.2,1.8
		c-0.1,0.5-0.1,1.1-0.2,1.6c-0.1,0.1-0.1,0.4-0.1,0.6c0,0.5-0.1,1.1-0.2,1.7c-0.1,0.5-0.2,1-0.4,1.3c-2.2,0.9-9,0.9-14.5,0.4
		c0.8-0.4,1.8-0.5,2.9-0.5c1.4-0.1,2.9-0.1,4.1-1c1.4-1,2.2-2.6,2.2-4.2c0-1.4-0.7-2.6-1.9-3.4c-2.4-1.6-6.1-0.2-8.1,0.7
		c-2.9,1.3-4.7,3.6-6.4,5.9c-0.4,0.4-0.7,0.8-1,1.2c0,0.1-0.1,0.1-0.1,0.2c-0.3,0-0.7,0-1-0.1c-1.9-0.3-3.6-1.3-4.9-2.6
		C58.3,80.4,60.9,73.4,63.3,67.3z"/>
	<path d="M98.3,90.9c-0.4,0-0.7,0.2-0.7,0.6c-0.1,0.8-1,1.5-1.7,1.9c-6.5,3.8-28.3,4.9-32.4,3c-0.4-0.2-0.7,0-0.9,0.3
		c-0.2,0.4,0,0.7,0.3,0.9c1.5,0.7,4.9,1,9,1c8.5,0,20.1-1.4,24.7-4.1c1.4-0.9,2.2-1.8,2.3-2.9C98.9,91.2,98.7,90.9,98.3,90.9z"/>
	<path d="M47.6,96.6h-0.2c-3-0.6-6-1.2-9-2l-0.6-0.1c-3.3-0.9-7-1.9-9.5-4c-0.9-0.7-1.2-1.3-1.1-2c0.1-1,1.4-2,3.1-2.7
		c2.7-1,5.5-1.4,8.3-1.8c1.7-0.2,3.6-0.5,5.4-0.9c0.4-0.1,0.6-0.4,0.5-0.8c-0.1-0.4-0.4-0.6-0.8-0.5c-1.7,0.4-3.5,0.6-5.3,0.9
		c-2.9,0.4-5.8,0.8-8.6,1.9c-2.3,0.8-3.7,2.2-4,3.7c-0.1,0.8,0,2,1.5,3.3c2.7,2.3,6.6,3.3,10,4.2l0.6,0.1c3,0.8,6.1,1.4,9.1,2h0.2
		h0.1c0.3,0,0.5-0.2,0.8-0.5C48.2,97,48,96.7,47.6,96.6z"/>
</g>
</svg>
