<?xml version="1.0" encoding="utf-8"?>
<!-- Generator: Adobe Illustrator 21.1.0, SVG Export Plug-In . SVG Version: 6.00 Build 0)  -->
<svg version="1.1" id="Layer_1" xmlns="http://www.w3.org/2000/svg" xmlns:xlink="http://www.w3.org/1999/xlink" x="0px" y="0px"
	 viewBox="0 0 100 100" style="enable-background:new 0 0 100 100;" xml:space="preserve">
<g>
	<path d="M77.9,50.1c0.2,0.3,0.5,0.5,0.9,0.5h-0.1c1,0.3,1.4-1.1,0.7-1.7C78.5,48.1,77.3,49.1,77.9,50.1z"/>
	<path d="M98.8,46.2c0-0.2-0.1-0.4-0.3-0.5c-0.4-0.2-0.7-0.2-1.2-0.2c-1.1,0-2.3,0.4-3.4,0.8c-0.8,0.3-1.5,0.6-2.3,0.7
		c-1.9,0.4-4.2,0.7-6-0.2c-0.8-0.3-1.3-0.9-1.8-1.6c-0.2-0.2-0.4-0.5-0.6-0.7c-0.8-0.9-1.9-1.6-3.1-2c0.7-2,2.9-2.8,4.9-3.7
		c1-0.5,2-0.9,2.8-1.4c1.6-1,3.2-2.7,3-4.6c-0.2-1.7-2-2.8-3.6-3c-3.2-0.3-5.5,2.7-7,4.9c-1.5,2.3-2.7,4.7-3.5,7.2
		c-1.8-0.1-3.7,0.2-5.4,0.8c-2.1-2.9-5.4-7-9.9-9.2c-1.3-0.6-5.6-2.4-8.6-0.3c-9.2-2.1-18.9,0.5-30,7.7c-0.7,0.5-1.5,1-2.2,1.5
		c-2.9,1.9-6,4-9.2,5.6c-3.1,1.6-6.7,3.1-9.8,1.8c-0.2-0.1-0.5-0.1-0.6,0.1c-0.2,0.2-0.2,0.4-0.1,0.6c0.7,1.5,2.1,2.5,4,2.8
		c3.3,0.6,7.8-0.8,10.2-2.6c0.6,3,2.2,5.9,4.3,7.9c0.5,0.5,1.2,0.9,1.8,1.3c0.6,0.5,1.3,0.9,1.8,1.4c1.2,1.2,1.3,2.7,1.5,4.4v0.1
		c0.3,2.4,1.2,3.6,2.9,3.6c0.8,0,1.5-0.4,1.9-0.9c0.5-0.7,0.6-1.6,0.3-2.5c-0.1-0.3-0.2-0.5-0.3-0.7c-0.1-0.4-0.2-0.6-0.1-1.1
		c0.1-0.4,0.2-0.7,0.3-1c0.1-0.6,0.3-1.3,0.4-2c0.1-0.8,0-1.5-0.1-2.3c2.4-1.2,5.1-0.9,6.8,0.6c0.2,0.2,0.4,0.4,0.6,0.6
		c0.6,0.7,1.3,1.4,2.5,1.6c0.2,0,0.3,0,0.5,0c1.2,0,2.5-0.5,3.1-1.7c0.4-0.8,0.2-1.4,0-1.8c-0.4-0.6-1.1-1-1.9-1.1H41
		c-1-0.1-1-0.1-1.4-1c-0.9-2.4-2.8-4-5-4.5c4.3-2.4,9.1-2.8,13.4-1.2c4.1,1.5,7.8,4,10.6,6c3.4,2.5,5.6,4.9,6.7,7.6c0,0,0,0.1,0,0.1
		c0,0,0,0,0,0.1c0.1,2.7-1,5.6-3.1,7.5c-0.3,0.3-0.8,0.6-1.3,0.9c-1.5,1-3.6,2.3-2.6,4.3c0.3,0.8,0.9,1.3,1.7,1.5
		c0.4,0.1,0.8,0.2,1.2,0.2c1.1,0,2.2-0.4,2.9-0.7c2.4-1.4,4.6-4,5.7-6.8c0.1-0.2,0.1-0.6,0.2-0.9c0.1-0.3,0.2-0.9,0.3-1.1
		c0.2,0,0.5,0.1,0.7,0.1c0.2,0.1,0.4,0.1,0.6,0.1c0.8,0,1.5-0.1,2.3-0.3c1.3-0.4,2.5-1,3.5-1.8c0.3-0.2,0.5-0.4,0.7-0.7
		c0.3-0.3,0.5-0.6,0.7-0.7c0.1,0,0.2-0.1,0.2-0.1c0.1,0.1,0.2,0.1,0.3,0.2c0.2,0.1,0.3,0.2,0.5,0.3c1.4,1,3.3,2.2,3.4,3.8
		c0,0.2,0,0.6-0.1,1c-0.2,1.1-0.4,2.5,0.4,3.2c0.4,0.4,1,0.6,1.8,0.4c1.1-0.2,1.9-0.8,2.4-1.8c0.9-1.7,0.7-4.1,0-5.5
		c-1.3-2.8-4.1-4.2-7.1-5.5c0.4-1,0.5-2.1,0.3-3.2c0.8,0,1.5-0.1,2.1,0c0.2-0.1,0.5-0.1,0.7-0.1c0.1,0,0.2-0.1,0.3-0.1
		c0.1,0,0.1,0,0.2,0c2.7-0.4,5.2-1.1,7.4-2.1c3.4-1.5,5.6-3.1,6.9-4.9c0.5-0.6,0.8-1.4,1-2.2C99.8,47.8,99.6,46.8,98.8,46.2z
		 M81,35.3c1.3-2,3.4-4.7,6-4.4c1.2,0.1,2.6,0.9,2.7,2.1c0.2,1.4-1.2,2.9-2.5,3.7c-0.8,0.5-1.7,0.9-2.7,1.3
		c-2.2,0.9-4.6,1.9-5.5,4.2c-0.4-0.1-0.9-0.2-1.4-0.2C78.5,39.7,79.6,37.4,81,35.3z M38.7,56.5c0.5,1.5,1,1.6,2.2,1.7h0.3
		c0.5,0.1,0.9,0.3,1.1,0.6c0.2,0.2,0.2,0.5,0,0.9c-0.4,0.8-1.6,1.1-2.5,1c-0.9-0.1-1.4-0.7-2-1.3c-0.2-0.3-0.5-0.5-0.7-0.7
		c-1.9-1.7-4.8-2-7.5-0.9c-0.1-0.6-0.3-1.3-0.6-1.9c0,0,0,0,0.1,0c1.3-1.4,2.7-2.6,4.1-3.5c0,0,0.1,0,0.2,0
		C35.7,52.5,37.7,54.1,38.7,56.5z M86.6,67.7c0.5,1.2,0.7,3.2,0,4.6c-0.4,0.7-1,1.2-1.7,1.3c-0.3,0.1-0.7,0.1-0.9-0.1
		c-0.4-0.4-0.2-1.6-0.1-2.4c0.1-0.5,0.1-1,0.1-1.3c-0.1-2-2.3-3.4-3.8-4.5c-0.2-0.1-0.3-0.2-0.5-0.3c-0.1-0.1-0.2-0.2-0.3-0.2
		c0.3-0.6,0.4-1.1,0.6-1.6c0.1-0.2,0.1-0.3,0.2-0.5C82.9,64,85.5,65.3,86.6,67.7z M91.2,55.4c-1.6,0.7-3.3,1.3-5,1.6
		c0-0.1-0.1-0.1-0.1-0.1l-0.2-0.2c-0.9-0.9-2.8-2.7-4.2-1.4c-0.3,0.3-0.6,1.5-0.5,2.3c-0.3,0-0.6,0-1,0c-2.4,0-4.1-0.4-5.2-1.3
		c-0.2-0.2-0.5-0.1-0.7,0.1c-0.2,0.2-0.1,0.5,0.1,0.7c1.2,1,3.1,1.5,5.5,1.5c0,0,0,0.1,0,0.1c0.1,0.9,0,1.9-0.3,2.8
		c-0.1,0.1-0.1,0.1-0.2,0.2v0.1l0,0c0,0,0,0,0,0l-0.1,0.1c-0.1,0.3-0.2,0.6-0.3,0.9c-0.2,0.7-0.4,1.2-0.7,2c0,0,0,0-0.1,0
		c-0.1,0-0.1,0.1-0.2,0.1c-0.3,0.2-0.6,0.6-0.9,0.9c-0.1,0.2-0.3,0.5-0.5,0.6c-0.9,0.8-2,1.3-3.1,1.6c-0.6,0.1-1.3,0.2-2,0.2
		c-0.1,0-0.2-0.1-0.4-0.1c-0.5-0.1-1.1-0.2-1.5,0.1c-0.3,0.3-0.5,1-0.6,1.7c-0.1,0.3-0.1,0.6-0.2,0.7c-1,2.6-3,5-5.2,6.2
		c-0.9,0.5-2.2,0.8-3.3,0.5c-0.5-0.1-0.9-0.4-1.1-0.9c-0.5-1.1,0.6-2,2.3-3c0.5-0.3,1-0.7,1.4-1c2.2-2.1,3.4-5,3.4-7.8
		c0.1-0.1,0.2-0.4,0.1-0.6v-0.1c-1.1-3-3.4-5.7-7.2-8.4c-2.8-2-6.6-4.6-10.8-6.1c-5.1-1.8-10.5-1.2-15.4,1.9
		c-1.6,1.1-3.1,2.3-4.5,3.7c-0.1-0.1-0.3-0.1-0.5,0c-0.2,0.1-0.3,0.4-0.2,0.7c0.1,0.1,0.1,0.2,0.2,0.3c0.4,0.9,0.7,1.8,0.8,2.7
		c0.1,0.8,0.2,1.7,0.1,2.5c-0.1,0.7-0.2,1.2-0.4,1.8c-0.1,0.3-0.2,0.6-0.3,1c-0.2,0.8,0,1.2,0.2,1.7c0,0.1,0.1,0.3,0.2,0.5
		c0.2,0.5,0.1,1.2-0.2,1.6c-0.2,0.3-0.5,0.6-1.1,0.6c-0.7,0-1.7-0.2-1.9-2.7v-0.1c-0.2-1.8-0.4-3.6-1.8-5c-0.6-0.6-1.3-1.1-2-1.5
		c-0.6-0.4-1.2-0.7-1.7-1.2c-2.2-2-3.8-5.1-4.1-8.2c0-0.2-0.1-0.3-0.3-0.4c-0.2-0.1-0.4,0-0.5,0.1c-2,1.9-6.7,3.5-10,2.9
		c-1-0.2-1.8-0.5-2.4-1.1c3.1,0.6,6.3-0.8,9.2-2.2c3.2-1.6,6.3-3.7,9.3-5.7c0.7-0.5,1.5-1,2.2-1.5c10.4-6.9,19.8-9.4,28.4-7.8
		c-0.2,0.2-0.4,0.4-0.5,0.7c-0.6,0.9-0.7,2-0.4,3c0.4,1,1.1,1.8,2.2,2.2c1.3,0.5,2.7,0.5,4.1,0.4c0.6,0,1.2,0,1.8,0
		c2.6,0.1,7.4,0.9,9.6,4.7c-0.8,0.9-1.3,1.9-1.5,3.1c0,0.3,0.1,0.6,0.5,0.6c0.2,0,0.4-0.2,0.5-0.4c0.1-1,0.6-2.1,1.4-2.9
		c0.1-0.1,0.2-0.3,0.1-0.5c0.1-0.2,0-0.4,0-0.5c-2.5-4.2-7.6-5.1-10.4-5.2c-0.6-0.1-1.3,0-1.9,0c-1.3,0.1-2.6,0.1-3.7-0.3
		c-0.8-0.3-1.4-0.8-1.6-1.5c-0.3-0.7-0.1-1.5,0.3-2.2c0.3-0.4,0.6-0.8,1-1.1c2-1.5,5.3-0.8,7.7,0.3c4.4,2.1,7.6,6.1,9.6,9
		c0.1,0.1,0.1,0.1,0.2,0.2c0.1,0.3,0.4,0.3,0.7,0.2c1.7-0.6,3.5-0.9,5.4-0.8c0,0,0,0,0,0c0.1,0,0.2,0,0.2,0c0.8,0.1,1.5,0.2,2.2,0.4
		c0.1,0,0.2,0.1,0.3,0.1c1.2,0.4,2.2,0.9,2.9,1.8c0.2,0.3,0.3,0.5,0.5,0.7c0.5,0.7,1.1,1.4,2.1,1.9s2.2,0.7,3.3,0.7
		c1.2,0,2.3-0.2,3.4-0.5c0.9-0.1,1.7-0.4,2.5-0.7c0.4-0.1,0.8-0.3,1.2-0.4c0.3,1,1.7,2.4,2.7,2.7c0,0,0.1,0,0.1,0.1
		c-0.2,0.4-0.3,0.8-0.5,1C96.5,52.5,94.3,54,91.2,55.4z"/>
</g>
</svg>
