<?xml version="1.0" encoding="utf-8"?>
<!-- Generator: Adobe Illustrator 21.1.0, SVG Export Plug-In . SVG Version: 6.00 Build 0)  -->
<svg version="1.1" id="Layer_1" xmlns="http://www.w3.org/2000/svg" xmlns:xlink="http://www.w3.org/1999/xlink" x="0px" y="0px"
	 viewBox="0 0 100 100" style="enable-background:new 0 0 100 100;" xml:space="preserve">
<g>
	<path d="M81.6,45.1c-0.1,1.6,2.2,1.8,2.2,0.2C83.9,43.8,81.7,43.6,81.6,45.1z"/>
	<path d="M75.5,45.4c0,1.5,2.3,1.6,2.2,0.1C77.7,44,75.6,43.9,75.5,45.4z"/>
	<path d="M95.7,47.5l-0.1-0.3c-2.9-5.6-5.9-9.6-9.4-12.3c-0.6-1.8-2-3.5-3.9-4.6c-1.8-1.1-3.7-1.4-5.5-0.9c-3.7,1-5.3,5.4-6,8
		c-1.4,1-2.6,2.3-3.7,3.8c0,0-0.1,0-0.1,0c-8.2,4.4-17.8,3.7-27.8,2.5c-3.9-0.5-7.8-1.2-11.6-1.9c-1.4-0.3-2.9-0.5-4.3-0.8
		c-4.7-0.9-10.2-1.5-15.3,0.3c-1.9-2.6-2.5-5.9-1.6-9c0.9-3.3,3.2-5.9,6.3-7.1c0.2,0,0.3-0.3,0.3-0.5c0-0.3-0.2-0.4-0.4-0.5
		c-4.1-0.9-8.9,2.2-10.9,5.6c-2.9,4.8-0.3,10.6,1.5,14.5c0,0,0,0,0,0c-1.6,3.1-1.3,6.8-0.8,9.7c0.6,3.5,1.5,6.9,2.7,10.1l0.3,0.8
		c0.8,2.4,1.8,5.1,3.8,6.8c0.7,0.7,1.7,1,2.6,1c0.6,0,1.1-0.1,1.4-0.6c0.5-0.3,1.3-1.1,0.9-2.8c-0.3-0.8-0.8-1.4-1.3-2
		c-0.2-0.3-0.5-0.6-0.7-0.9c-0.5-0.8-0.5-1.6-0.1-2.8c0.3-0.9,0.7-1.7,1.2-2.5c0.9,4.1,2.4,8.5,5.5,9.4c0.3,0.1,0.6,0.1,0.9,0.1
		c0.8,0,1.7-0.3,2-1.2c0.4-1-0.2-2.1-0.7-3c-0.1-0.2-0.2-0.3-0.3-0.5c-1.2-2.5,0.1-5.3,1.6-7.9c0-0.1,0-0.1,0.1-0.2
		c0.6,0.1,1.1,0.2,1.6,0.3c0.4,0.1,0.7,0.1,1.1,0.2c3.4,0.6,6.8,1.5,9.3,2.2c1.1,0.3,2.2,0.7,3.3,1c4.8,1.5,9.7,3,14.8,2.6
		c0.4-0.1,0.8-0.1,1.1-0.1c0,0,0,0.1,0.1,0.1c0.5,0.8,0.5,1.9,0.5,2.9c0,0.5,0,1,0.1,1.5c0.2,1.7,0.6,3.2,1.1,4.5
		c1.1,2.7,2.6,4.1,4.3,4.1c0.3,0,0.5,0,0.9,0.1c0.8-0.2,1.3-0.6,1.6-1.2c0.6-1.2-0.1-2.8-0.8-4.2c-0.3-0.7-0.6-1.3-0.7-1.8
		c-0.3-1.9,0.2-4.2,1.8-5.2c0.5,0.5,1.2,0.9,2,0.9c0.3,0,0.6,0,0.8-0.1c0.3,2.8,1.6,5.8,3.7,8.4c1.1,1.3,2.2,2,3.4,2
		c0.1,0,0.2,0,0.2,0c0.8,0,1.5-0.3,1.9-0.7c0.4-0.4,0.5-0.9,0.5-1.5c0-1-0.7-1.9-1.3-2.6l-0.1-0.1c-0.9-1.2-1.3-2.2-1.3-3.6
		c0-1.1-0.1-2.9,0.6-4.1c0.6-0.9,1.3-1.9,2-2.8c0.6,3.7,1.7,5.9,3.1,6.5c0.3,0.1,0.7,0.2,1,0.2c0.4,0,0.9-0.1,1.3-0.5
		c0.1,0,0.1-0.1,0.2-0.1c0.2-0.2,0.4-0.3,0.6-0.5c0-0.1,0-0.1,0-0.1c0.9-0.8,1.4-2,1.8-3l0.1-0.2c0.8-1.8,1.4-3.8,2-6.2
		c0.8-3.6,1.3-7.2,1.4-10.8c0.6,1.9,1,3.9,1.2,5.9c0,0.7,0.1,1.4,0.1,2.1c0.2,2.2,0.3,4.3,1.1,6.4c1,2.5,2.8,4.3,4.9,4.8
		c0.4,0.1,0.8,0.2,1.2,0.2c1.9,0,3.5-1.1,4.1-3.2C100.6,57.1,97.9,51.8,95.7,47.5z M19.7,66.4c0.1,0.2,0.2,0.4,0.3,0.6
		c0.4,0.6,0.9,1.5,0.7,2c-0.2,0.6-1.1,0.7-1.7,0.5c-3.1-0.9-4.4-7.2-4.9-9.6v0c0.7-1,1.6-1.6,2.4-2c1.3-0.6,3.3-0.5,4.7-0.3
		C19.7,60.5,18.3,63.4,19.7,66.4z M59.5,70.1c0.1,0.6,0.4,1.3,0.8,2.1c0.5,1.1,1.1,2.5,0.8,3.2c-0.2,0.3-0.4,0.5-0.9,0.6
		c-2.1,0.5-3.3-1.9-3.9-3.4c-0.5-1.2-0.8-2.7-1-4.2c-0.1-0.5-0.1-0.9-0.1-1.4c0-1.2-0.1-2.4-0.7-3.4c0-0.1-0.1-0.1-0.1-0.2
		c0,0,0-0.1,0-0.1c0-0.2-0.3-0.4-0.6-0.4c-0.5,0.1-1,0.2-1.5,0.2c-4.9,0.4-9.7-1.1-14.4-2.5c-1.1-0.4-2.2-0.7-3.3-1
		c-2.6-0.8-6-1.7-9.4-2.3c-0.4-0.1-0.7-0.1-1.1-0.2c-0.7-0.1-1.4-0.3-2.2-0.4c-1.8-0.2-4-0.5-5.8,0.3c-1.1,0.5-2.1,1.3-3,2.5
		c-0.9,1.1-1.6,2.4-2.1,3.8c-0.3,1-0.6,2.3,0.2,3.7c0.3,0.4,0.6,0.8,0.9,1.1c0.4,0.5,0.9,1,1,1.6c0.2,0.9,0.1,1.4-0.4,1.7
		c-0.7,0.4-2,0.2-2.8-0.5c-1.8-1.5-2.7-4-3.5-6.3l-0.3-0.8c-1.1-3.2-2-6.6-2.6-10c-0.5-2.7-0.8-6.1,0.7-9c0.1-0.1,0.1-0.2,0.1-0.3
		c0.1-0.1,0.1-0.3,0-0.4c-2.2-4.7-4.2-9.6-1.7-13.7c1.6-2.5,4.7-4.9,7.8-5.2c-2.5,1.5-4.3,3.9-5.1,6.8c-1,3.7-0.3,7.4,2,10.3
		c0,0,0.1,0,0.1,0.1c0.1,0.2,0.4,0.2,0.6,0.1c4.9-1.9,10.4-1.3,15.1-0.5c1.4,0.3,2.9,0.5,4.3,0.8c3.8,0.7,7.8,1.4,11.7,1.9
		c4.2,0.5,8.3,0.9,12.3,0.9c5.2,0,10.1-0.7,14.6-2.8c-1,1.7-1.8,3.6-2.5,5.7c-0.8,2.5-1.2,5-1.6,7.4c-0.1,0.3-0.1,0.7-0.2,1
		c-0.3,2-0.7,4.2-0.2,6.2c0.1,0.3,0.2,0.6,0.3,0.8C59.7,65,59.1,67.9,59.5,70.1z M97.9,61.8c-0.6,1.8-2.3,2.7-4.1,2.2
		c-1.7-0.5-3.2-2-4.1-4.2c-0.8-1.9-0.9-4-1-6c0-0.7,0-1.4-0.1-2.1c-0.3-3-1-5.9-2.2-8.6c0-0.1-0.1-0.1-0.1-0.2c0-0.2,0-0.5,0-0.7
		c-0.1-0.3-0.3-0.5-0.6-0.5c-0.3,0.1-0.5,0.3-0.5,0.6c0,0.4,0,0.7,0,1.1c0.1,4.4-0.4,8.8-1.4,13.1c-0.6,2.4-1.2,4.3-1.9,6l-0.1,0.2
		c-0.4-0.3-0.8-0.5-1.2-0.7c-0.7-0.2-1.5-0.3-2.3-0.2c-0.3,0.1-0.7,0.2-1,0.3c-0.3,0.2-0.6,0.3-1,0.5c-0.3-1-0.5-2.1-0.7-3.4
		c-0.4-2.2-0.5-4.4-0.5-5.2c0-0.3-0.2-0.5-0.5-0.5c-0.3,0-0.5,0.2-0.5,0.5c0,0.9,0.1,2.9,0.5,5.2c0,0,0,0-0.1,0
		c-0.9,1.2-1.8,2.4-2.6,3.7c-0.8,1.3-0.8,3-0.8,4.6c0,1.7,0.4,2.9,1.5,4.3l0.1,0.1c0.5,0.6,1,1.3,1.1,2c0,0.3,0,0.5-0.2,0.7
		C73.4,74.8,73,75,72.5,75c-0.9,0.1-1.8-0.4-2.7-1.6c-1.9-2.5-3.2-5.4-3.5-8c0-0.1,0-0.2-0.1-0.2c1.4-0.8,2.5-2.3,3.6-4.6
		c1.5-3.4,2.3-7,3.1-10.5c0.3-1.3,0.6-2.7,0.9-4c0.1-0.3-0.1-0.6-0.4-0.7c-0.3-0.1-0.6,0.1-0.7,0.4c-0.3,1.3-0.6,2.7-0.9,4
		c-0.8,3.5-1.5,7.1-3,10.3c-1.1,2.4-2.3,3.8-3.7,4.4c-1,0.4-1.7,0.1-2.1-0.4c0,0,0,0,0-0.1c0-0.1-0.1-0.2-0.3-0.3
		c-0.2-0.2-0.2-0.5-0.3-0.8c-0.5-1.8-0.1-3.8,0.2-5.7c0.1-0.3,0.1-0.7,0.2-1c0.4-2.4,0.8-4.9,1.6-7.3c0.9-2.7,2-5,3.4-6.9
		c1.1-1.5,2.4-2.8,3.8-3.8l0,0c0.1,0,0.2-0.1,0.2-0.2c0,0,0-0.1,0-0.1c0-0.1,0.1-0.2,0.1-0.3c0.6-2.4,2.1-6.3,5.2-7.1
		c1.5-0.5,3.2-0.2,4.7,0.7c1.7,0.9,2.9,2.5,3.4,4.1c0,0.2,0,0.3,0.1,0.4c0,0.2,0.2,0.3,0.3,0.3c3.4,2.6,6.2,6.3,8.9,11.7l0.1,0.3
		C96.8,52.1,99.4,57.2,97.9,61.8z"/>
</g>
</svg>
