<?xml version="1.0" encoding="utf-8"?>
<!-- Generator: Adobe Illustrator 21.1.0, SVG Export Plug-In . SVG Version: 6.00 Build 0)  -->
<svg version="1.1" id="Layer_1" xmlns="http://www.w3.org/2000/svg" xmlns:xlink="http://www.w3.org/1999/xlink" x="0px" y="0px"
	 viewBox="0 0 100 100" style="enable-background:new 0 0 100 100;" xml:space="preserve">
<g>
	<path d="M99.1,28.8c-0.6-5.7-8.3-7.4-12.9-8.5c-0.4-0.1-0.9-0.2-1.2-0.3c-0.6-0.7-1.2-1.4-1.9-2c0.4,0,0.8,0.1,1.1,0.1
		c1.9,0,3.8-0.6,5.1-2.1c0.7-0.9,1-1.9,0.7-3c-0.5-1.9-2.4-3.4-4-4.1C80.5,6.4,74.3,7,68.4,7.6c-0.8,0.1-1.6,0.2-2.4,0.3
		c-1.4-1.4-4.2-1.6-6.5-1.8c-0.6,0-1.2,0-1.6-0.1c-3.3-0.4-6.7-0.5-10.5-0.3c-7.2,0.4-13.6,1.7-19.2,3.8C18.3,13.3,9.9,21.4,5,31.7
		c-4.6,9.7-5,20.6-1.3,33.5c2.9,10.4,10.5,20.6,20.4,27.4c4.8,3.3,8.9,5,12.1,5c0.5,0,1,0,1.6-0.2c1.5-0.3,2-1.2,2.1-1.7
		c0.3-1.2-0.6-2.6-1.7-3.4c-1.5-1.1-3.1-2.1-4.7-3.1c-0.8-0.4-1.6-0.9-2.3-1.4c0.9-0.6,1.8-1.2,2.6-2c0,0,0,0,0,0
		c1.8,1.2,3.7,2.3,5.7,3.3l0.6,0.3c1.6,0.8,3.8,2,5.8,2c0.5,0,1-0.1,1.7-0.3c1.2-0.5,1.5-1.2,1.6-1.8c0.3-2.1-2.6-4.6-3.5-5.3
		c-1.2-1-2.6-1.9-3.9-2.7c-2.2-1.4-4.4-2.7-6-4.6c0.7-1,1.3-2.2,1.6-3.4c0.9-3.1,1.3-8.8-2.8-10.2c-0.3-0.1-0.5-0.1-0.7,0.1
		c-0.2,0.1-0.2,0.4-0.2,0.6c0.5,2.4-0.6,5.6-2.4,7.9c0-0.1-0.1-0.2-0.2-0.3c-3.2-3.2-3.5-8.3-3.3-13.4c0.2-7,1.4-12.5,3.8-17.2
		c1.7-3.9,5-9.2,10.4-12.4c2.6-1.5,5.5-2.2,8.2-2.7c0.4-0.1,0.7-0.1,1.1-0.2c2.4-0.4,4.9-0.9,7,0c0.2,0.1,0.3,0,0.5-0.1
		c-1,6,0.5,13.2,6.1,16.1c1,0.5,1.8,0.7,2.5,0.7c0.7,0,1.2-0.3,1.6-0.5c1-0.5,1.5-1.7,1.6-3.1c1,0.3,2,1.9,2.8,3
		c0.2,0.3,0.4,0.6,0.6,0.8c0.2,0.3,0.4,0.6,0.6,0.9c1.1,1.5,2.3,3.2,3.9,3.9c0.7,0.3,1.2,0.4,1.7,0.4c0.9,0,1.4-0.4,1.5-0.9
		c1.4-1.9,0.1-7-1.2-10c0.2,0.2,0.5,0.3,0.7,0.5l0.8,0.6c2.2,1.6,4.9,3.5,7.7,4.4h0.1c1,0.3,1.9,0.5,2.8,0.5c0,0,0.1,0,0.3-0.2
		c0.3,0,0.5,0,0.7,0c1.9-0.2,2.9-1.5,2.7-3.5c0-0.6-0.2-1.3-0.4-2c-0.7-2.1-2.1-4.5-3.4-6.5c1.2,0.5,2.7,1,3.9,1
		c0.5,0,1-0.1,1.5-0.2C98.5,31,99.2,30.3,99.1,28.8z M80.6,46c-0.1,0.2-0.3,0.6-1.6,0s-2.4-2.2-3.3-3.5c-0.2-0.3-0.4-0.6-0.6-0.9
		c-0.1-0.2-0.3-0.5-0.5-0.8c-1-1.4-2.1-3.1-3.7-3.5c-0.1,0-0.2,0-0.4,0c0-0.4-0.1-0.8-0.2-1.2c-0.5-1.9-1.4-3.7-2.2-5.4
		c-0.7-1.4-1.3-2.7-1.8-4.1c1.8-0.1,3.9,1.6,5.5,3c0.4,0.4,0.8,0.8,1.2,1.1c0.6,0.5,1.3,1.1,1.9,1.6c1.1,0.8,2.2,1.7,3.3,2.6
		c-0.1,0.2-0.1,0.5,0.1,0.7C79.4,36.8,81.9,44.2,80.6,46z M94.1,36.6c-1.7-0.6-4.3,1.7-4.3,4c-2.5-0.9-4.9-2.6-7-4L82,36
		c-0.8-0.5-1.6-1.1-2.4-1.7c-1.3-1-2.5-2.1-3.8-3.1c-0.6-0.5-1.2-1.1-1.9-1.6c-0.4-0.3-0.8-0.6-1.2-1c-1.8-1.6-4.1-3.7-6.7-3.3
		c-0.3-1.1-0.5-2.1-0.5-3.2c0-0.4-0.4-0.7-0.7-0.7c-0.4,0-0.7,0.3-0.7,0.7c0,1.3,0.3,2.7,0.7,4.1v0.1c0.5,1.7,1.3,3.3,2,4.9
		c0.8,1.7,1.6,3.4,2.1,5.2c0.2,0.6,0.3,1.1,0.3,1.6c0.1,1.2-0.3,2.1-0.9,2.5c-0.6,0.4-1.6,0.3-2.8-0.3c-5.2-2.7-6.4-9.7-5.3-15.1
		c0.3-1.2,0.6-2.4,1.1-3.4c0.1-0.3-0.1-0.7-0.4-0.9c-0.3-0.1-0.7,0.1-0.9,0.4c-0.3,1-0.7,2.1-1,3.2c-0.1-0.1-0.1-0.2-0.2-0.2
		c-2.5-1.1-5.3-0.6-7.8-0.1c-0.4,0.1-0.7,0.1-1.1,0.2c-2.9,0.5-5.9,1.2-8.7,2.9c-5.7,3.4-9.2,9-11,13c-2.3,5-3.5,10.7-3.7,17.8
		c-0.2,5.3,0.1,10.8,3.6,14.4c0.1,0.1,0.3,0.2,0.4,0.2c-1.1,1.1-3.2,2.5-5.7,1.5c-0.4-0.1-0.8,0-0.9,0.4c-0.1,0.4,0,0.8,0.4,0.9
		c2.5,1,5.3,0.2,7.5-2.2c2.1-2.2,3.4-5.5,3.4-8.3c2,1.7,1.6,5.7,0.9,8c-0.3,1.3-1,2.6-1.9,3.6c-2,2.3-4.8,3.4-7.4,2.8
		c-0.3-0.1-0.7,0.1-0.8,0.5c-0.1,0.4,0.1,0.7,0.5,0.8c0.6,0.1,1.1,0.2,1.7,0.2c2.5,0,4.8-1.1,6.7-3c1.8,1.9,4,3.3,6.1,4.7
		c1.3,0.8,2.6,1.7,3.8,2.6c1.6,1.3,3.1,3.1,3,4c-0.1,0.1-0.1,0.4-0.8,0.7c-1.7,0.6-4.5-0.8-6.2-1.7l-0.6-0.3c-2-0.9-3.8-2-5.5-3.1
		c0.4-0.5,0.7-1,1-1.7c0.2-0.3,0-0.7-0.3-0.9c-0.3-0.2-0.7,0-0.9,0.3c-0.4,0.8-0.9,1.5-1.4,2.1c-0.9,1.1-2,2-3.2,2.6
		c-1,0.5-2,0.8-3.1,1c-0.4,0.1-0.7,0.4-0.6,0.8c0.1,0.4,0.4,0.6,0.7,0.6c0,0,0.1,0,0.1-0.1c1-0.2,1.9-0.5,2.9-0.9
		c0.1,0.1,0.1,0.2,0.2,0.3c0.8,0.6,1.7,1.2,2.6,1.7c1.5,1,3.1,1.9,4.5,3c0.8,0.6,1.3,1.5,1.2,2c-0.1,0.4-0.6,0.5-1,0.6
		c-3.1,0.6-7.3-1-12.6-4.6C15.1,84.9,7.7,74.9,4.9,64.9C1.4,52.3,1.8,41.6,6.2,32.3c4.8-10,13-17.8,22.5-21.5
		c5.5-2,11.8-3.3,18.8-3.7c3.7-0.2,7.1-0.1,10.3,0.4c0.4,0,1,0.1,1.6,0.1c2,0.1,4.8,0.3,5.8,1.4l0.1,0.1c0.3,0.3,0.6,0.3,0.9,0.2
		C67,9.2,67.8,9.1,68.6,9c5.7-0.6,11.6-1.2,16.8,1c1.4,0.7,2.9,1.9,3.2,3.2c0.1,0.7,0,1.3-0.5,1.9c-1.5,2-4.9,1.9-7.3,0.9
		c-1-0.9-2-1.6-2.8-2.2c-0.6-0.5-1.3-0.8-1.9-1.2c-1-0.6-2-1.1-2.8-1.9c-0.3-0.3-0.7-0.3-1,0s-0.3,0.7,0,1c0.9,0.9,2,1.5,3.1,2.1
		c0.6,0.4,1.2,0.7,1.8,1.1c0.9,0.6,1.7,1.3,2.8,2.2c0.1,0.1,0.1,0.1,0.2,0.2c0,0,0,0,0,0c0.5,0.5,0.9,0.8,1.4,1.3
		c0.8,0.8,1.6,1.6,2.4,2.5c1.8,2,3.5,4.3,5.3,7.1l0.2,0.4c0,0.1,0.1,0.2,0.2,0.3C90.7,30.4,92.9,33.8,94.1,36.6z M97.3,30
		c-1.4,0.6-4.8-0.8-6.3-1.8c0,0,0,0,0-0.1l-0.4-0.7c-1.4-2.1-2.8-4-4.2-5.7c4.3,1,10.9,2.8,11.3,7.2C97.8,29.8,97.4,29.9,97.3,30z"
		/>
	<path d="M75.5,24.4c-0.4,0.2-0.5,0.6-0.3,0.9c0.3,0.4,0.3,0.8,0.1,1.1c-0.3,0.4-1,0.6-1.7,0.4c-0.3-0.1-0.7,0.1-0.8,0.5
		c-0.1,0.3,0.1,0.7,0.5,0.8c0.3,0.1,0.6,0.1,0.9,0.1c0.9,0,1.8-0.3,2.2-0.8c0.5-0.8,0.6-1.7,0-2.7C76.3,24.3,75.8,24.2,75.5,24.4z"
		/>
	<path d="M82,20.2c-0.4,0-0.7,0.3-0.7,0.7c0,0.4-0.3,0.9-0.8,1.1c-0.2,0.1-0.6,0.2-1-0.2c-0.3-0.3-0.7-0.3-1,0s-0.3,0.7,0,1
		c0.4,0.4,0.9,0.6,1.5,0.6c0.3,0,0.6,0,1-0.1c1-0.5,1.7-1.4,1.7-2.4C82.7,20.5,82.4,20.2,82,20.2z"/>
</g>
</svg>
