<?xml version="1.0" encoding="utf-8"?>
<!-- Generator: Adobe Illustrator 21.1.0, SVG Export Plug-In . SVG Version: 6.00 Build 0)  -->
<svg version="1.1" id="Layer_1" xmlns="http://www.w3.org/2000/svg" xmlns:xlink="http://www.w3.org/1999/xlink" x="0px" y="0px"
	 viewBox="0 0 100 100" style="enable-background:new 0 0 100 100;" xml:space="preserve">
<g>
	<path d="M55.7,16.4c3,0.3,2.1-3.9-0.5-3.2c-0.8,0.3-1.4,1.3-1.2,2.1C54.3,16.1,55,16.2,55.7,16.4z"/>
	<path d="M75.5,38.9c0.3-0.4,0.5-0.9,0.5-1.4c0.1-1-0.1-2-0.8-2.9c-1.2-1.6-3.4-2.4-5-2.6c-1.5-0.2-3.1,0-4.7,0.6
		c-0.1-1-0.2-2.1-0.2-3.1c-0.1-0.8-0.1-1.6-0.2-2.4c0-0.4,0-0.8-0.1-1.3c-0.2-1.1-0.3-2.3-0.1-3.2c0.4-1.5,2.1-2.8,3.6-3.9
		c0.2-0.1,0.4-0.3,0.6-0.4c0,0,0.1,0,0.1,0c0.1,0,0.2-0.1,0.3-0.1L69.4,18c0,0,0,0,0.1,0c0.2-0.2,0.5-0.4,0.7-0.6
		c3-2.6,4.8-4.9,6-7.4c0.8-1.8,1.9-5.3,0.9-7.6C76.7,1.5,76,0.8,75,0.5c-0.6-0.2-1.3-0.2-2,0.1c-0.7,0.3-1.4,0.7-2.2,1.4
		c-0.7,0.6-1.4,1.3-2,1.9c-0.8,0.7-1.5,1.4-2,1.8c-2.9,1.9-6.3,3.3-9.9,4c-0.9,0.1-2,0.1-3.1,0.1c-2.2,0-4.4,0-6,1.2
		c-2.3,1.8-2.4,5.4-2.4,7.8v0.1c-0.1,0.1-0.1,0.2-0.1,0.3c-0.2,1.5-0.4,3.1-0.6,4.6c-0.6,4.7-1.2,9.6-2.7,14
		c-0.2,0.8-0.7,1.7-1.1,2.6c-1.4,3-3.2,6.8-1.2,9.6c0.9,1.1,2,1.7,3.2,1.7c0.4,0,0.8-0.1,1.1-0.2c0,9.9-0.3,19.5-3.2,28.7
		c-1.5,4.9-5.2,12.8-13,11.3c-2.4-0.4-3.8-1.8-4.6-4.7c-0.1-0.4-0.1-1-0.2-1.6c-0.1-0.9-0.2-1.9-0.6-2.7c-0.4-0.7-0.9-0.9-1.2-0.9
		c-0.8,0-1.5,0.8-1.9,1.5c-2.3,3.7-0.8,8.6,2,11.3c2.2,2.1,5.5,3.2,9,3.1c1.5-0.1,2.8-0.4,4.1-0.7c2-0.4,3.8-0.8,5.9-0.3
		c3.4,0.9,6.8,1.7,10.2,1.7c0.9,0,1.8-0.1,2.5-0.1h0.2c0,0,0,0,0,0c2.3,0.6,5.7,1.1,9.5,1.1c2.9,0,5.9-0.4,8.8-1.2
		c1.7-0.6,2.7-1.5,2.9-2.6c0.1-0.6-0.1-1.6-1.5-2.6c-1.8-1.3-4.4-1.7-6.8-1.1c0.6-2.1,0.2-4.7-1.1-7.1c1.1-7,1.1-14.3,1.2-21.5v-0.3
		c0-5.2,0-10.7-0.2-16.3c0.1,0,0.2-0.1,0.3-0.2c0.7-0.8,2.2-2.5,3.3-2.2c0.3,0.1,0.6,0.3,0.9,0.5c0.5,0.3,1.1,0.8,2.2,0.7
		c1.4-0.1,2.6-1,3.2-2.3c0.6-1.3,0.5-2.9-0.3-4C75.6,39,75.5,38.9,75.5,38.9z M75.9,3.1c0,0.1,0,0.2,0.1,0.2c0,0,0,0.1,0,0.1
		c0,0-0.1,0-0.1,0C75.9,3.3,75.9,3.2,75.9,3.1z M64.7,93.1c0.2,0.1,0.5,0.2,0.7,0.1c2.3-1,5.1-0.8,6.9,0.5c0.5,0.3,1.1,0.9,1,1.4
		c-0.1,0.6-0.9,1.2-2.1,1.6c-6.6,2.2-14,1-17.9,0.1c-0.4-0.1-0.9-0.2-1.3-0.3c-0.4-0.1-0.7,0.1-0.8,0.4c0,0,0,0.1,0,0.1
		c-3.5,0.1-7.1-0.7-10.8-1.6c-2.4-0.7-4.5-0.2-6.5,0.3c-1.2,0.3-2.5,0.6-3.8,0.6c-3.2,0.1-6.2-0.9-8.1-2.7c-2.4-2.3-3.8-6.7-1.8-9.8
		c0.5-0.9,0.8-1,0.8-1s0.1,0,0.2,0.2c0.3,0.6,0.4,1.5,0.5,2.3c0.1,0.6,0.1,1.2,0.3,1.8c0.9,3.3,2.7,5.1,5.6,5.6
		c6.3,1.2,11.6-3.2,14.4-12.1c3-9.6,3.2-19.5,3.2-29.7c0.6-0.3,1.2-0.7,1.7-1.3c2-2.1,2.7-5.2,3.1-8.1c1-6.6,1-13.6,0.2-20.8
		c-0.1-0.3-0.4-0.5-0.7-0.5c-0.3,0.1-0.5,0.4-0.5,0.7c0.8,7.1,0.7,14-0.2,20.5c-0.4,2.8-1,5.6-2.8,7.5c-0.5,0.5-1.1,0.9-1.7,1.2
		c-0.8,0.4-2.4,0.9-3.6-0.8c-1.6-2.2-0.1-5.5,1.3-8.3c0.5-1,0.9-1.9,1.2-2.7c1.6-4.5,2.1-9.5,2.7-14.3c0.2-1.5,0.4-3.1,0.6-4.6
		c0,0,0-0.1,0-0.1c0.1-0.1,0.1-0.2,0.1-0.3v-0.2c0.1-2.2,0.1-5.4,1.9-6.8c1.2-0.9,3.2-0.9,5.2-0.9c1.2,0,2.3,0,3.3-0.2
		c3.7-0.7,7.3-2.2,10.4-4.2c0.7-0.4,1.4-1.1,2.2-1.9c0.3-0.3,0.6-0.6,0.9-0.9c0,0,0.1,0.1,0.1,0.1c0.4,0.2,1.9,0.5,3,0.6
		c0.4,0.1,0.8,0.1,1.2,0.1c0.3,0,0.6,0,1,0c0.1,0,0.3-0.1,0.4-0.1c0,1.8-0.7,3.9-1.2,4.9c-1.1,2.3-2.9,4.5-5.7,7
		c-0.2,0.1-0.4,0.3-0.6,0.5c0,0-0.1,0-0.1,0.1c-1.3,0.3-2.8-0.1-3.8-1c-0.3-0.2-0.7-0.2-0.9,0.1c-0.2,0.3-0.2,0.7,0.1,0.9
		c0.8,0.6,1.8,1.1,2.9,1.2c-1.5,1.1-2.9,2.4-3.3,4c-0.2,1.2-0.1,2.5,0.1,3.7c0,0.5,0.1,0.9,0.1,1.3c0.1,0.8,0.2,1.6,0.2,2.4
		c0.1,1.1,0.2,2.3,0.3,3.4c-1.5,0.7-2.9,1.6-4.1,2.7c-0.2,0.3-0.2,0.7,0,0.9c0.3,0.2,0.7,0.2,0.9,0c1.1-1.1,2.5-2,4-2.6
		c1.7-0.7,3.4-1,5-0.8c1.4,0.2,3.3,0.9,4.2,2.1c0.4,0.6,0.6,1.3,0.5,2c-0.1,0.6-0.4,1.1-0.8,1.5c-0.4,0.4-1,0.5-1.5,0.4
		c-0.4-0.1-0.8-0.4-1.2-0.7c-0.6-0.5-1.3-1.1-2.4-1c-1.5,0.1-3,1-4.4,2.5c-1.7,1.7-2.7,3.8-3.1,4.6c-0.1,0.3,0,0.7,0.3,0.8
		c0.1,0.1,0.2,0.1,0.3,0.1c0.2,0,0.4-0.1,0.4-0.4c0.6-1.3,1.4-2.5,2.2-3.6c0.1,1.5,0.1,2.9,0.2,4.4C65,51.8,65,57.4,65,62.8v0.3
		c0,6.5-0.1,13.3-1,19.7c-0.4-0.6-0.8-1.1-1.2-1.5c-3.4-3.7-8.9-3.5-12.5-2.2c-0.3,0.1-0.5,0.5-0.4,0.8c0.1,0.3,0.5,0.5,0.8,0.4
		c3.3-1.1,8.2-1.3,11.2,1.9c0.7,0.8,1.4,1.8,2,2.9c1.4,2.6,1.6,5.3,0.7,7.3C64.5,92.6,64.5,92.9,64.7,93.1z M74.7,42.5
		c-0.5,0.9-1.3,1.5-2.2,1.6c-0.6,0.1-0.9-0.2-1.4-0.5c-0.3-0.3-0.7-0.5-1.2-0.7c-1.5-0.4-2.9,0.8-3.9,1.9c-0.1-1.4-0.1-2.8-0.2-4.2
		c0,0,0-0.1,0-0.1c1-1,2.1-1.6,3.1-1.7c0.5-0.1,0.9,0.2,1.5,0.7c0.4,0.4,1,0.8,1.7,1c1,0.2,1.8-0.1,2.5-0.6
		C75.1,40.6,75.2,41.6,74.7,42.5z"/>
</g>
</svg>
