<?xml version="1.0" encoding="utf-8"?>
<!-- Generator: Adobe Illustrator 21.1.0, SVG Export Plug-In . SVG Version: 6.00 Build 0)  -->
<svg version="1.1" id="Layer_1" xmlns="http://www.w3.org/2000/svg" xmlns:xlink="http://www.w3.org/1999/xlink" x="0px" y="0px"
	 viewBox="0 0 100 100" style="enable-background:new 0 0 100 100;" xml:space="preserve">
<g>
	<path d="M61.8,16.4c-1.4-0.7-2.3,2-0.3,1.8C62.5,18.1,62.6,16.8,61.8,16.4z"/>
	<path d="M57.3,12.8c-1.1,0.3-0.9,1.6,0.2,1.6C58.7,14.4,58.9,12.4,57.3,12.8z"/>
	<path d="M52,83c0.1,0.3,0.3,0.5,0.6,0.5c0.6,0,1.1-0.3,1.7-0.7c0.1,0.4,0.2,0.8,0.2,1.1V84c0,0.2,0.2,0.4,0.5,0.4c0,0,0,0,0.2,0
		c0.3-0.1,0.5-0.4,0.4-0.7v-0.1c-0.1-0.3-0.1-0.6-0.2-1c0.6,0.2,1.1,0.2,1.3,0.2c0.3,0,0.4-0.1,0.5-0.1c0.3-0.1,0.5-0.4,0.4-0.7
		c-0.1-0.3-0.4-0.5-0.7-0.4c0,0.1-0.3,0.2-1.3-0.1c0.2-0.2,0.3-0.4,0.5-0.6c0.1-0.2,0.3-0.4,0.4-0.5c0.3-0.2,0.2-0.6,0-0.8
		c-0.2-0.3-0.6-0.2-0.8,0c-0.2,0.1-0.3,0.3-0.5,0.5c-0.1,0.1-0.1,0.1-0.2,0.2c0-0.2,0-0.4,0-0.6c0-0.4-0.3-0.6-0.6-0.6
		c-0.4,0-0.6,0.3-0.6,0.6c0,0.3,0.1,0.8,0.1,1.2c-0.5-0.2-0.8-0.3-1-0.5c-0.3-0.2-0.6-0.1-0.8,0.2c-0.2,0.3-0.1,0.6,0.2,0.8
		c0.3,0.1,0.7,0.3,1.2,0.5c-0.4,0.4-0.8,0.5-1,0.5C52.2,82.4,52,82.7,52,83z"/>
	<path d="M73.4,2.1c-0.6-1.1-1.7-1.6-3-1.3c-0.9,0.2-2,0.7-3.2,1.6c-1.5,1.1-3,2.5-4.1,3.5c-0.4,0.4-0.8,0.8-1.1,1
		c-0.2,0.2-0.4,0.3-0.6,0.5c-1,0.8-2,1.6-3,2.1c-0.8,0.4-1.7,0.5-2.6,0.7c-0.4,0.1-0.9,0.2-1.3,0.3c-3.1,0.7-4.9,3-6.3,5.4
		c-3.2-1.1-6.2-3.1-8.6-5.6c-0.1-0.2-0.3-0.4-0.5-0.6c-1-1-2-2.2-3.6-2.5c-2-0.4-4.2,0.6-5.3,2.5c-2.1,3.6,0.5,7.8,4.2,10.1
		c2.2,1.3,5.5,2.1,8.8,2.1c0,0,0.1,0,0.1,0c-3.3,3.1-6.9,6.5-9.2,10.8c-2.4,4.3-3.7,9.6-3.9,15.6C30,54.7,30.9,61,31.8,65.8
		c0.8,4.6,2,10,5.1,14.5c0,0.1,0,0.1,0.1,0.2c-0.2,3.6,0.4,7.1,1.7,9.9c0.1,0.3,0.3,0.5,0.4,0.8c0.6,1,1,1.9,0.7,3
		c-0.1,0.2-0.1,0.4-0.2,0.6c-0.3,1-0.7,2.1,0,3.2c0.4,0.8,1.2,1.2,2.1,1.2c1.2,0,2.4-0.8,3.2-1.6c0.7-1.2,0.4-2.3,0.2-3.3
		c-0.1-0.4-0.2-0.7-0.2-1.1c-0.2-1.4,0.4-2.7,1.5-3.4c0.1,0,0.1-0.1,0.2-0.1c1.6,0.5,3.3,0.7,4.9,0.7c2.3,0,4.6-0.4,6.7-1.2
		c0.6,1,0.5,2.2,0.3,3.5c-0.1,1-0.2,2.1,0,3.1c0.3,1.3,2.2,3.4,4,3.5c0.6,0,1.4-0.2,1.9-1.6c0.3-0.7,0-1.3-0.2-1.8
		c-0.1-0.3-0.2-0.5-0.2-0.8c0.1-0.4,0.4-0.9,0.8-1.4c0.3-0.4,0.6-0.9,0.8-1.4c0.8-2.2,1.1-5.4,0.1-7.7c0,0,0,0,0,0
		c2.8-3.7,2.4-9.1-1-12.3c2.9-4.9,2.8-10.4-0.2-14.1c-0.6-0.6-1.6-1.6-2.7-1.4c-0.5,0.1-1.1,0.5-1.5,1.6c-0.5,1.4-0.5,2.9-0.4,4.4
		c0.1,1,0.1,1.9,0,2.8c-0.1,1-0.4,2-0.7,2.9c-0.1,0-0.2,0-0.3,0.1c-5-4.6-6.5-12-7.4-18.7c0.4,0.3,0.9,0.4,1.5,0.4
		c0.2,0,0.5,0,0.7,0c1.3-0.3,2.7-1.4,2.6-3.1c-0.1-1-0.7-1.4-1.3-1.8l-0.2-0.2c-0.8-0.5-1.2-0.8-1.6-1.7c-1-2.2-1.4-4.8-1-7.2
		c0-0.1,0-0.2-0.1-0.3c0.9-2.9,2.4-5.5,4.3-7.5c1.8,3.2,2.6,6.6,2.2,9.8c0,0.3-0.1,0.6-0.1,0.9c-0.2,2-0.6,4.7,1.6,6
		c0.7,0.3,1.3,0.5,2,0.5c1.5,0,2.9-0.8,3.7-1.9c3-3.3,2.4-8.9,2-11.2c-0.6-3.7-2.6-6.9-5.3-8.8c3.6-2.6,6.7-6.7,9.2-12.1l0.2-0.4
		c0.6-1.2,1.4-2.9,1.8-4.5c0-0.1,0-0.1,0-0.1c0.1-0.5,0.2-1.1,0.3-1.6C74,3.9,73.9,2.9,73.4,2.1z M52.1,44c0.5,1.1,1.2,1.6,2,2.1
		l0.2,0.2c0.6,0.3,0.8,0.5,0.8,0.9c0.1,1-0.8,1.7-1.7,1.9c-0.8,0.2-1.8,0-2.2-1c0,0,0,0,0,0c-0.3-2.6-0.3-5-0.1-7.3
		C51.3,41.9,51.6,43,52.1,44z M70.8,10.8l-0.2,0.4c-2.4,5.3-5.5,9.2-9,11.7c-0.1,0.1-0.1,0.2-0.2,0.3c-0.2-0.1-0.3-0.2-0.5-0.3
		c-0.6-0.2-1.1-0.4-1.7-0.6c-0.3-0.1-0.6,0.1-0.7,0.4s0.1,0.6,0.4,0.7c0.5,0.2,1,0.4,1.5,0.6c3.2,1.5,5.5,4.9,6.2,8.9
		c0.4,2.1,0.9,7.3-1.7,10.2c-1,1.2-2.9,2-4.4,1.1c-1.5-0.9-1.3-3-1-4.9c0-0.3,0.1-0.6,0.1-0.9c0.4-3.6-0.5-7.6-2.6-11.1
		c-0.7-1.1-1.5-2.2-2.3-3.1c-0.2-0.2-0.6-0.2-0.8,0c-0.2,0.2-0.2,0.6,0,0.8c0.7,0.7,1.3,1.5,1.8,2.5c0,0,0,0,0,0
		c-2.2,2.3-3.8,5.2-4.8,8.6c-1,3.5-1.3,7.7-0.8,12.3c0.1,0.4,0.1,0.9,0.2,1.3c1,7.1,2.4,15.2,8.3,20c-0.7,1.3-1.8,2.7-3.8,3.2
		c-0.3,0.1-0.5,0.4-0.4,0.7c0.1,0.3,0.4,0.5,0.7,0.4c2-0.4,3.5-1.8,4.6-3.8c0.1,0,0.1-0.1,0.2-0.2c0.1,0,0.1-0.1,0.1-0.2
		c0.5-1.1,0.9-2.5,1.1-3.9c0.1-1,0-2,0-3c0-1.4-0.1-2.8,0.3-4c0.1-0.3,0.3-0.7,0.6-0.8c0.4-0.1,1,0.3,1.6,1c3.3,4,2.1,9.4,0.1,12.9
		c0,0-0.1,0-0.1,0.1c-0.1,0.1-0.1,0.2-0.1,0.3c-1.1,1.6-2.2,3-3.7,3.9c-0.2,0.2-0.3,0.5-0.1,0.8c0.2,0.1,0.3,0.2,0.5,0.2
		c0.1,0,0.3,0,0.2-0.3c1.4-0.9,2.6-2.2,3.6-3.7c3,2.9,3.2,7.9,0.5,11.1c-0.2,0.2-0.1,0.6,0.1,0.8c0,0,0.1,0.1,0.2,0.1
		c0.8,2.1,0.5,4.8-0.2,6.6c-0.1,0.3-0.4,0.7-0.7,1.1c-0.5,0.6-0.9,1.2-1,1.9c-0.1,0.6,0.1,1.1,0.3,1.5c0.2,0.4,0.3,0.6,0.2,0.9
		c-0.2,0.8-0.6,0.8-0.9,0.8c-1.2,0-2.7-1.7-2.9-2.6c-0.2-0.8-0.1-1.7,0-2.7c0.2-1.4,0.4-2.8-0.4-4.1c0.1-0.2,0.2-0.4,0.1-0.7
		c-0.2-0.2-0.5-0.3-0.8-0.2c-0.1,0-0.2,0-0.3,0.1c-3.7,1.7-8.1,1.9-12,0.5c-0.2-0.1-0.4-0.1-0.6-0.2c-0.3-0.1-0.6,0-0.7,0.3
		c-0.1,0.3,0,0.6,0.3,0.7c0,0,0,0,0.1,0c-1.1,1-1.6,2.5-1.5,4.1c0,0.4,0.1,0.8,0.2,1.2c0.2,0.9,0.4,1.6-0.1,2.4
		c-0.4,0.7-1.3,1.2-2.1,1.2c-0.5,0-0.9-0.2-1.2-0.6c-0.4-0.6-0.2-1.3,0.1-2.2c0.1-0.2,0.1-0.4,0.2-0.6c0.4-1.6-0.2-2.8-0.8-3.9
		c-0.1-0.3-0.3-0.5-0.4-0.8c-1.3-2.8-1.9-6.3-1.6-9.9c0-0.1,0-0.1,0-0.2c0-0.3-0.2-0.5-0.4-0.6C34.9,75,33.8,70,33,65.7
		c-0.8-4.7-1.7-11-1.5-17.3c0.2-5.8,1.4-10.9,3.7-15.1c2.5-4.6,6.5-8.2,10-11.5c0,0,0,0,0-0.1c0.9-0.1,1.7-0.2,2.6-0.4
		c0.3-0.1,0.5-0.4,0.4-0.7c-0.1-0.3-0.4-0.5-0.7-0.4c-0.9,0.3-1.9,0.4-2.9,0.5c-3.6,0.3-7.3-0.5-9.7-1.9c-2.6-1.6-5.8-5.2-3.8-8.5
		c0.9-1.5,2.6-2.3,4.1-2c1.3,0.3,2.1,1.2,3,2.2c0.2,0.2,0.4,0.4,0.6,0.6c2.6,2.8,6,4.9,9.6,6.1c0.3,0.1,0.7,0.2,1.1,0.3
		c0.3,0.1,0.6-0.1,0.7-0.4c0.1-0.3-0.1-0.6-0.4-0.7c-0.2,0-0.3-0.1-0.5-0.1c1.4-2.2,2.9-4,5.5-4.7c0.4-0.1,0.8-0.1,1.2-0.2
		c1-0.1,2-0.3,3-0.8c1.2-0.6,2.2-1.5,3.2-2.3c0.2-0.2,0.4-0.3,0.6-0.5c0.3-0.3,0.7-0.6,1.2-1.1c1.1-1,2.5-2.4,4-3.4
		c0.1-0.1,0.2-0.1,0.2-0.2c0.2,0,0.4,0.1,0.6,0.1c0.8,0,1.4,0.1,2,0.7c0.4,0.4,0.7,0.8,0.9,1.3c0.1,0.3,0.4,1.2,0.7,1.5
		C72,8.2,71.4,9.7,70.8,10.8z"/>
</g>
</svg>
