<?xml version="1.0" encoding="utf-8"?>
<!-- Generator: Adobe Illustrator 21.1.0, SVG Export Plug-In . SVG Version: 6.00 Build 0)  -->
<svg version="1.1" id="Layer_1" xmlns="http://www.w3.org/2000/svg" xmlns:xlink="http://www.w3.org/1999/xlink" x="0px" y="0px"
	 viewBox="0 0 100 100" style="enable-background:new 0 0 100 100;" xml:space="preserve">
<g>
	<path d="M33,74.9c-1.4-0.4-2.3,2-0.7,2.3c0.1,0.1,0.3,0,0.4,0C34,76.6,34.1,75.8,33,74.9z"/>
	<path d="M25.5,75.7c-1.6,0.3-0.7,2.6,0.6,2.4C27.9,78.1,26.8,75.5,25.5,75.7z"/>
	<path d="M91.5,75.9c-0.4-0.2-0.8,0-1,0.3c-0.1,0.1-0.1,0.1-0.1,0.2c-0.6,0.7-3.9,3.3-5.3,3.1c-5.3-0.7-7.9-11.9-7.3-16.4
		c0.1-0.2,0-0.4-0.1-0.6c0.5-1.9,1.1-3.9,1.6-5.8c1.6-5.3,3.1-10.8,3.7-16.4c1.6-16.5-4.1-29.7-15.3-35.5
		C54.2-2.1,40.2,2.2,32.8,15.6C29.1,22.2,27.2,30,27,38.8c0,2.1,0.1,4.2,0.3,6.3c0.5,5.1,0.9,10.4-1.5,14.7
		c-4.6,0.2-9.3,4.7-12.6,12.4c-3.8,8.4-5.1,19.5-0.5,24.3c1.5,1.5,2.7,2.2,3.8,2.2c0.3,0,0.5,0,0.9-0.2c2.7-1,3.1-6.9,3.5-12.6
		c0.2-2.7,0.5-6.8,1.1-7.3c0.3,0,0.6-0.1,0.7-0.4c0.2,0.3,0.4,0.6,0.6,0.8c0.3,0.6,0.7,1.2,1.1,1.8c0.2,0.5,0.4,0.9,0.6,1.4
		c0.6,1.6,0.8,3.3,1,4.8c0,0.5,0,1.1,0,1.6c0,3.3,0,7.1,2.2,9.4c0,0.1,0.1,0.3,0.2,0.4c0.6,0.5,1.1,0.8,1.7,0.9c0,0,0.1,0,0.1,0
		c0,0,0.1,0,0.1,0c0.1,0,0.1,0,0.1,0c0,0,0,0,0.1,0c0,0,0,0,0,0c0.1,0,0.1,0,0.2,0c0,0,0,0,0.1,0c0,0,0.1,0,0.1,0
		c0.8,0,1.6-0.4,2.4-1.2c0,0,0,0,0.1,0c0.2-0.1,0.3-0.3,0.4-0.5c0.1-0.1,0.2-0.2,0.2-0.3c0.8-1.2,1.5-2.8,2.1-5.1c0,0,0,0,0,0
		c0-0.1,0-0.2,0-0.3c0,0,0-0.1,0-0.1c1.4-4.9,2.4-11.4,2.7-15.5c0.7,2.5,1.3,5.6,1.7,8.6c1.1,6.6,2.1,12.9,5.2,14.3
		c0.4,0.2,0.9,0.3,1.3,0.3c0.8,0,1.7-0.3,2.6-1c0.2-0.2,0.5-0.4,0.8-0.6c0.1,0.1,0.1,0.1,0.2,0.1c1.9,0.7,3.1,0.2,3.8-0.4
		c4.6-3.9,1.4-22.4-1.9-38c-0.3-1.5-0.5-2.5-0.6-2.9c-0.8-5.9-2.3-16.7,3.8-20.3c1.9-1.1,3.5-1.3,4.8-0.6c2.4,1.2,3.5,5.1,3.7,8.1
		c0.3,4.5-0.9,9.3-2.1,14c-0.5,2-1,4-1.4,5.9c-1.8,9.1-0.9,12.8,3.2,21c0.4,0.9,0.9,1.7,1.3,2.3c0.7,1,1.3,1.9,1.4,3.1
		c0,0.2-0.6,0.6-0.9,0.9c-1,0.8-2.3,1.9-1.9,3.6c0.7,3,2.1,3.6,3.2,3.6c0.1,0,0.1,0,0,0.1c3.7-0.2,8.3-7.5,8.7-10.1
		c0.6-3.3,0.4-6.6,0.3-9.9c1.8,3.5,4.6,6.6,8.2,7.3c0.3,0.1,0.5,0.1,0.8,0.1c3,0,7.2-2.8,8.2-5.7C94,78.4,93.3,76.8,91.5,75.9z
		 M74.9,78.1c0.1,3.5,0.2,6.8-0.3,10.1c-0.3,2.4-4.7,8.8-7.3,8.9c-0.9,0-1.5-0.8-1.9-2.5c-0.2-0.8,0.4-1.4,1.4-2.2
		c0.8-0.7,1.5-1.3,1.4-2.2c-0.2-1.5-0.8-2.5-1.6-3.7c-0.4-0.6-0.8-1.3-1.2-2.1c-3.9-8-4.8-11.4-3.1-20.1c0.4-1.9,0.9-3.9,1.4-5.9
		c1.2-4.8,2.5-9.7,2.1-14.5c-0.3-3.5-1.6-7.8-4.5-9.3c-1.7-1-3.8-0.7-6.1,0.6c-7,4.1-5.4,15.5-4.5,21.7c0.1,0.4,0.3,1.5,0.6,3
		c4.6,21.7,5.4,34,2.4,36.6c-0.5,0.4-1.2,0.5-2,0.3c1.6-1.7,2.4-3.9,2.6-6.5c0.6-10.1-9.7-24.8-14.5-30c-0.3-0.3-0.7-0.3-1,0
		s-0.3,0.7,0,1c4.7,5.1,14.8,19.4,14.2,29c-0.1,2.6-1.1,4.8-2.9,6.3c-0.4,0.3-0.7,0.5-1,0.7c-1,0.6-1.9,0.8-2.6,0.5
		c-2.4-1-3.5-7.5-4.4-13.2c-0.8-4.5-1.5-9.2-3-12c-0.5-1-1.2-1.8-1.9-2.2c-0.4-0.2-0.8-0.1-1,0.2c-0.2,0.4-0.1,0.8,0.2,1
		c0.5,0.4,0.9,0.8,1.3,1.5l-0.1,0.6c-0.3,2.9-1.1,11.8-2.9,18c0,0,0,0.1,0,0.1c-0.4,1.3-0.9,2.3-1.3,3.3c0,0,0-0.1-0.1-0.1
		c-0.9-0.9-3.6-1.8-5-1c-0.4-1.6-0.5-3.3-0.7-4.9c-0.1-0.7-0.1-1.3-0.2-2c0-1.3-0.1-2.8-0.5-4.1c-0.2-0.9-0.6-1.7-1.2-2.7
		c-0.5-1-0.9-1.9-1.4-2.8c-1-1.9-2-3.7-2.5-6c-0.1-0.4-0.4-0.6-0.8-0.6c-0.3,0-0.6,0.3-0.6,0.7c0,2.3,0.8,4.1,1.7,5.6
		c-0.1,0-0.1,0-0.2,0c-1.9,0-2.2,3.4-2.5,8.6c-0.3,4.5-0.7,10.7-2.6,11.4c-0.7,0.3-1.8-0.3-3.1-1.7c-4.2-4.2-2.8-14.9,0.7-22.7
		c3.2-7.1,7.5-11.4,11.5-11.6c0.3,0.1,0.6,0.1,0.8-0.1c0.3-0.1,0.5-0.3,0.5-0.7c0,0,0,0,0-0.1c2.4-4.6,1.9-10.1,1.5-15.2
		c-0.2-2.2-0.3-4.3-0.3-6.3c0.2-8.6,2.1-16.2,5.6-22.6C41,3.7,54.3-0.4,67.1,6.2c10.7,5.4,16.1,18.2,14.5,34
		c-0.5,5.5-2.1,10.9-3.6,16.2c-0.6,2.2-1.3,4.3-1.8,6.5c-0.2,0.8-0.4,1.5-0.6,2.3c-0.8,3.5-0.8,6.6-0.8,9.4c0,0,0,0,0,0
		c0,0,0,0,0,0.1C74.8,75.9,74.9,77,74.9,78.1z M92,79.6c-0.8,2.4-5.1,5.1-7.4,4.7c-4.2-0.8-7.3-5.7-8.5-9.9c0-2.2,0-4.6,0.4-7.2
		c0.7,5.4,3.2,12.9,8.4,13.6c1.9,0.3,5.2-2,6.4-3.4C92.1,78,92.3,78.7,92,79.6z"/>
</g>
</svg>
