<?xml version="1.0" standalone="no"?>
<!DOCTYPE svg PUBLIC "-//W3C//DTD SVG 1.1//EN" "http://www.w3.org/Graphics/SVG/1.1/DTD/svg11.dtd">
<!--Generator: Xara Designer (www.xara.com), SVG filter version: 6.0.0.4-->
<svg stroke-width="0.501" stroke-linejoin="bevel" fill-rule="evenodd" xmlns:xlink="http://www.w3.org/1999/xlink" xmlns="http://www.w3.org/2000/svg" version="1.1" overflow="visible" width="75pt" height="75pt" viewBox="0 0 75 75">
 <defs>
	</defs>
 <g id="Document" fill="none" stroke="black" font-family="Times New Roman" font-size="16" transform="scale(1 -1)">
  <g id="Spread" transform="translate(0 -75)">
   <g id="Layer 1">
    <path d="M 8.095,16.174 C 8.064,16.389 7.884,16.551 7.669,16.557 C 7.641,16.558 5.804,16.61 4.439,16.61 C 3.708,16.61 3.112,16.595 3.001,16.55 C 2.399,16.309 1.124,16.129 0.932,16.566 C 0.63,17.248 0.926,17.439 1.037,17.511 C 1.446,17.776 2.119,17.682 2.236,17.553 C 2.319,17.442 2.45,17.377 2.589,17.377 L 2.59,17.377 C 2.729,17.377 2.86,17.441 2.945,17.552 C 3.734,18.586 4.947,20.878 5.483,22.068 C 5.572,22.265 5.506,22.498 5.328,22.619 C 3.613,23.783 2.591,25.122 2.524,26.292 C 2.478,27.089 2.87,27.851 3.688,28.556 C 4.335,29.112 5.483,29.556 6.335,29.279 C 6.882,29.102 7.25,28.634 7.429,27.888 C 7.476,27.688 7.654,27.548 7.859,27.547 L 7.862,27.547 C 8.064,27.547 8.244,27.685 8.293,27.883 C 8.691,29.47 9.64,30.493 10.895,30.689 C 11.969,30.859 13.052,30.383 13.595,29.509 C 14.212,28.516 14.03,27.232 13.084,25.891 C 12.95,25.703 12.984,25.443 13.161,25.294 C 13.337,25.145 13.598,25.156 13.762,25.32 C 14.434,25.99 17.88,27.94 19.572,27.608 C 21.258,27.28 22.329,26.56 23.004,25.584 C 28.477,29.445 32.157,35.212 33.407,41.92 C 33.468,42.234 33.594,42.776 33.757,43.449 L 33.812,43.675 C 34.31,45.716 35.239,49.516 34.996,50.35 C 34.928,50.586 35.063,50.833 35.299,50.902 C 35.535,50.971 35.783,50.835 35.851,50.599 C 36.137,49.617 35.459,46.663 34.676,43.464 L 34.622,43.24 C 34.464,42.585 34.341,42.058 34.282,41.754 C 32.984,34.786 29.147,28.799 23.441,24.803 C 24.082,23.369 24.14,21.554 24.104,19.659 C 24.081,18.521 24.883,17.955 25.591,17.457 C 26.225,17.01 26.778,16.62 26.82,15.862 C 26.681,15.715 26.478,15.625 26.207,15.589 C 24.852,15.408 22.469,16.65 21.783,17.245 C 21.687,17.327 21.562,17.366 21.436,17.349 C 21.291,17.331 21.106,17.259 20.666,17.082 C 19.664,16.679 17.8,15.928 15.881,15.821 C 13.796,15.709 12.059,16.152 10.778,16.55 C 10.562,16.617 10.327,16.51 10.237,16.301 C 9.827,15.353 9.137,14.777 8.758,14.825 C 8.456,14.865 8.208,15.369 8.095,16.174 Z M 7.723,20.52 C 7.863,20.695 8.113,20.924 8.362,21.139 C 8.727,20.856 9.103,20.601 9.449,20.408 C 9.518,20.369 9.592,20.351 9.666,20.351 C 9.822,20.351 9.973,20.434 10.056,20.58 C 10.176,20.794 10.098,21.065 9.883,21.185 C 9.625,21.33 9.346,21.515 9.068,21.722 L 9.153,21.791 C 9.401,21.992 9.624,22.172 9.778,22.305 C 9.965,22.466 9.986,22.746 9.826,22.934 C 9.665,23.12 9.384,23.141 9.197,22.98 C 9.049,22.851 8.832,22.678 8.593,22.484 L 8.366,22.299 C 8.097,22.536 7.842,22.78 7.626,23.026 C 7.464,23.21 7.183,23.229 6.997,23.065 C 6.813,22.903 6.795,22.621 6.958,22.437 C 7.172,22.195 7.419,21.955 7.677,21.722 C 7.424,21.5 7.185,21.273 7.026,21.074 C 6.874,20.881 6.905,20.601 7.098,20.448 C 7.179,20.383 7.278,20.351 7.374,20.351 C 7.506,20.351 7.636,20.409 7.723,20.52 Z" stroke-linejoin="miter" stroke="none" stroke-width="0.593" fill="#ffb685" marker-start="none" marker-end="none" stroke-miterlimit="79.8403193612775"/>
    <path d="M 45.825,3.609 C 44.515,5.427 44.262,7.594 45.149,9.405 C 46.53,12.216 51.212,14.722 59.075,16.86 C 59.086,16.859 59.098,16.854 59.11,16.854 C 59.131,16.854 59.152,16.856 59.173,16.859 C 64.391,17.604 67.551,19.26 69.116,22.07 C 69.235,22.285 69.159,22.556 68.943,22.676 C 68.729,22.796 68.457,22.718 68.338,22.503 C 66.964,20.036 64.148,18.54 59.5,17.809 C 59.478,17.818 59.452,17.82 59.427,17.825 C 59.092,19.394 60.193,20.315 61.453,21.074 C 61.586,21.154 61.668,21.297 61.668,21.453 C 61.67,21.608 61.589,21.752 61.457,21.834 C 60.922,22.165 59.909,23.15 60.381,23.925 C 60.509,24.136 60.442,24.409 60.231,24.537 C 60.022,24.665 59.748,24.598 59.62,24.387 C 58.975,23.327 59.655,22.192 60.442,21.488 C 59.513,20.858 58.218,19.689 58.529,17.812 C 56.525,17.806 52.435,18.097 51.294,18.586 C 51.673,19.795 51.633,21.062 51.163,22.513 C 51.088,22.746 50.837,22.875 50.603,22.799 C 50.368,22.723 50.24,22.473 50.316,22.239 C 50.797,20.751 50.771,19.499 50.24,18.306 C 49.229,17.21 46.867,17.081 45.346,17.662 C 44.766,17.883 43.795,18.401 43.806,19.385 C 43.808,19.535 43.733,19.671 43.613,19.753 C 43.496,20.781 43.845,21.36 44.245,22.016 C 44.585,22.573 44.969,23.204 45.04,24.123 C 45.143,25.52 44.571,28.937 43.92,30.154 C 43.804,30.371 43.533,30.453 43.317,30.337 C 43.101,30.221 43.018,29.951 43.135,29.734 C 43.662,28.748 44.252,25.535 44.151,24.19 C 44.099,23.485 43.801,22.997 43.485,22.48 C 43.038,21.747 42.545,20.913 42.766,19.438 C 42.351,19.148 41.488,18.795 40.746,18.685 C 39.178,18.461 37.716,18.742 37.023,19.398 C 36.687,19.718 36.543,20.104 36.585,20.577 C 36.653,21.3 37.499,22.486 37.955,22.947 C 38.001,22.993 38.035,23.049 38.057,23.11 C 40.119,28.861 37.564,43.305 35.82,44.796 C 35.775,44.836 35.721,44.861 35.664,44.879 C 35.739,44.996 35.797,45.136 35.826,45.306 C 36.15,47.218 36.681,48.971 36.66,50.937 C 36.656,51.174 36.592,51.371 36.492,51.533 C 36.739,51.617 36.988,51.734 37.226,51.899 C 37.403,51.397 37.753,51.124 38.001,50.988 C 38.312,50.817 38.684,50.735 39.07,50.735 C 39.664,50.735 40.287,50.931 40.763,51.303 C 41.338,51.754 41.569,52.38 41.398,53.021 C 41.335,53.258 41.09,53.399 40.854,53.336 C 40.616,53.273 40.474,53.028 40.538,52.791 C 40.616,52.499 40.507,52.235 40.213,52.004 C 39.718,51.618 38.9,51.509 38.429,51.769 C 38.105,51.947 37.967,52.289 38.016,52.785 C 38.035,52.981 37.924,53.165 37.743,53.24 C 37.561,53.315 37.352,53.262 37.227,53.109 C 36.568,52.296 35.694,52.147 35.125,52.362 C 34.691,52.525 34.452,52.887 34.468,53.353 C 34.477,53.599 34.284,53.805 34.039,53.814 C 33.783,53.83 33.587,53.631 33.578,53.385 C 33.551,52.641 33.912,52.002 34.536,51.656 C 34.392,51.475 34.299,51.237 34.303,50.937 C 34.323,49.197 33.847,47.647 33.558,45.958 C 31.975,46.991 29.903,48.862 28.988,51.908 C 28.184,51.648 27.115,51.232 26.398,50.894 C 26.336,50.865 26.272,50.851 26.208,50.851 C 26.042,50.851 25.881,50.946 25.805,51.107 C 25.7,51.329 25.795,51.595 26.018,51.7 C 26.792,52.064 27.916,52.501 28.767,52.771 C 28.705,53.068 28.653,53.374 28.613,53.69 C 28.051,53.681 27.451,53.622 26.865,53.564 C 26.589,53.536 26.321,53.51 26.066,53.489 C 26.053,53.488 26.042,53.487 26.029,53.487 C 25.8,53.487 25.604,53.665 25.586,53.897 C 25.566,54.143 25.749,54.357 25.994,54.376 C 26.244,54.397 26.507,54.423 26.776,54.45 C 27.335,54.506 27.945,54.567 28.535,54.579 C 28.503,55.201 28.517,55.86 28.584,56.556 C 28.84,59.256 29.918,61.986 32.078,65.407 C 32.213,65.621 32.37,65.877 32.55,66.162 C 33.834,68.233 36.841,73.082 38.385,73.222 C 38.661,73.247 38.784,73.172 38.851,73.112 C 39.213,72.797 39.26,71.812 39.304,70.858 C 39.343,70.026 39.383,69.166 39.619,68.44 C 39.636,68.388 39.663,68.339 39.698,68.297 C 39.976,67.953 48.843,66.05 48.917,66.05 C 49.019,66.05 49.117,66.084 49.197,66.148 L 49.509,66.4 C 51.062,67.653 53.951,69.989 54.771,69.686 C 55.733,69.333 55.086,65.615 54.7,63.394 C 54.564,62.608 54.434,61.865 54.352,61.231 L 54.259,60.511 C 53.878,57.602 53.721,56.398 54.887,54.223 C 55.679,52.726 56.64,51.674 57.747,51.098 L 58.074,50.928 C 62.794,48.486 65.912,46.871 68.748,43.631 C 70.952,41.106 73.277,37.933 73.806,33.542 C 74.361,28.909 73.207,25.633 72.139,23.297 C 72.098,23.207 72.088,23.108 72.11,23.012 C 73.049,18.908 69.082,15.608 64.869,14.586 C 63.933,14.358 62.704,14.14 61.405,13.908 C 56.029,12.953 49.339,11.763 48.944,7.95 C 48.817,6.783 49.749,6.148 50.735,5.478 C 51.42,5.012 52.197,4.485 52.722,3.711 C 53.208,2.994 52.904,2.03 52.33,1.515 C 51.943,1.167 51.75,1.146 51.4,1.109 C 51.33,1.102 51.256,1.094 51.179,1.084 C 49.193,0.816 47.143,1.782 45.825,3.609 Z M 50.158,46.146 C 50.344,46.307 50.365,46.588 50.204,46.774 C 49.602,47.47 47.451,48.785 46.735,49.167 C 46.517,49.282 46.248,49.201 46.132,48.984 C 46.017,48.767 46.098,48.497 46.316,48.382 C 47.178,47.921 49.084,46.709 49.53,46.192 C 49.618,46.09 49.742,46.038 49.867,46.038 C 49.97,46.038 50.074,46.074 50.158,46.146 Z M 51.716,48.519 C 51.809,48.748 51.698,49.007 51.469,49.098 C 51.123,49.238 50.793,49.377 50.467,49.515 C 49.494,49.928 48.574,50.317 47.425,50.612 C 47.187,50.673 46.944,50.53 46.883,50.292 C 46.822,50.054 46.965,49.811 47.204,49.75 C 48.288,49.471 49.177,49.094 50.12,48.695 C 50.45,48.556 50.786,48.413 51.137,48.273 C 51.192,48.25 51.248,48.24 51.303,48.24 C 51.479,48.24 51.647,48.345 51.716,48.519 Z M 46.484,55.607 C 46.484,56.438 45.872,57.109 45.118,57.109 C 44.364,57.109 43.753,56.438 43.753,55.607 C 43.753,54.776 44.364,54.1 45.118,54.1 C 45.872,54.1 46.484,54.776 46.484,55.607 Z M 33.857,57.37 C 33.857,58.202 33.246,58.872 32.491,58.872 C 31.738,58.872 31.126,58.202 31.126,57.37 C 31.126,56.539 31.738,55.863 32.491,55.863 C 33.246,55.863 33.857,56.539 33.857,57.37 Z" stroke-linejoin="miter" stroke="none" stroke-width="0.593" fill="#ff974a" marker-start="none" marker-end="none" stroke-miterlimit="79.8403193612775"/>
   </g>
  </g>
 </g>
</svg>
