<?xml version="1.0" standalone="no"?>
<!DOCTYPE svg PUBLIC "-//W3C//DTD SVG 1.1//EN" "http://www.w3.org/Graphics/SVG/1.1/DTD/svg11.dtd">
<!--Generator: Xara Designer (www.xara.com), SVG filter version: 6.0.0.4-->
<svg stroke-width="0.501" stroke-linejoin="bevel" fill-rule="evenodd" xmlns:xlink="http://www.w3.org/1999/xlink" xmlns="http://www.w3.org/2000/svg" version="1.1" overflow="visible" width="75pt" height="75pt" viewBox="0 0 75 75">
 <defs>
	</defs>
 <g id="Document" fill="none" stroke="black" font-family="Times New Roman" font-size="16" transform="scale(1 -1)">
  <g id="Spread" transform="translate(0 -75)">
   <g id="Layer 1">
    <path d="M 9.07,31.526 C 9.049,31.526 9.029,31.528 9.008,31.531 C 8.73,31.576 8.431,31.617 8.12,31.66 C 7.107,31.798 5.959,31.954 5.003,32.322 C 4.806,32.398 4.706,32.621 4.782,32.82 C 4.859,33.019 5.083,33.117 5.28,33.041 C 6.152,32.706 7.253,32.555 8.225,32.422 C 8.541,32.379 8.847,32.337 9.131,32.291 C 9.341,32.257 9.484,32.06 9.45,31.849 C 9.419,31.661 9.256,31.526 9.07,31.526 Z" stroke-linejoin="miter" stroke="none" stroke-width="0.513" fill="#ff974a" marker-start="none" marker-end="none" stroke-miterlimit="79.8403193612775"/>
    <path d="M 9.148,33.452 C 9.12,33.452 9.092,33.455 9.065,33.46 C 7.937,33.707 6.008,34.506 5.056,34.952 C 4.863,35.042 4.78,35.271 4.869,35.463 C 4.96,35.656 5.19,35.739 5.382,35.649 C 6.372,35.186 8.22,34.434 9.229,34.213 C 9.437,34.168 9.568,33.962 9.523,33.755 C 9.484,33.574 9.324,33.452 9.148,33.452 Z" stroke-linejoin="miter" stroke="none" stroke-width="0.513" fill="#ff974a" marker-start="none" marker-end="none" stroke-miterlimit="79.8403193612775"/>
    <path d="M 62.06,15.501 C 64.771,14.076 69.845,17.315 71.593,19.484 C 73.613,21.985 74.391,24.473 73.842,26.677 C 73.314,28.796 71.55,30.55 68.739,31.75 C 68.384,31.9 67.799,32.173 67.127,32.486 C 66.124,32.953 64.876,33.535 63.969,33.905 C 61.096,35.07 58.465,37.576 59.199,39.608 C 59.956,42.98 59.692,46.801 58.527,49.351 C 56.627,53.5 52.837,57.205 48.635,59.016 C 43.337,61.296 34.478,60.375 28.885,56.961 C 24.691,54.398 21.94,51.853 19.686,48.451 C 19.637,48.378 19.565,48.333 19.488,48.305 C 19.53,48.16 19.576,48.012 19.626,47.881 C 21.83,47.762 25.536,47.376 27.786,46.135 C 28.907,47.079 32.989,49.793 34.532,49.457 C 34.874,49.382 35.116,49.169 35.214,48.855 C 35.674,47.361 35.12,44.981 34.632,42.882 C 34.467,42.173 34.312,41.502 34.226,40.977 C 34.191,40.766 33.994,40.622 33.783,40.658 C 33.573,40.693 33.431,40.891 33.466,41.101 C 33.555,41.653 33.714,42.335 33.882,43.056 C 34.325,44.962 34.876,47.333 34.478,48.628 C 34.47,48.657 34.461,48.685 34.368,48.705 C 33.181,48.961 28.732,46.076 28.123,45.402 C 27.999,45.264 27.794,45.235 27.637,45.331 C 25.486,46.649 21.52,47.02 19.347,47.124 C 19.207,47.13 19.082,47.213 19.019,47.34 C 18.898,47.586 18.782,47.936 18.643,48.475 L 18.539,48.879 C 18.235,50.066 17.767,51.861 16.998,51.822 C 16.97,51.819 16.946,51.822 16.921,51.826 C 15.951,51.957 14.311,48.888 13.327,47.048 C 13.013,46.464 12.72,45.916 12.458,45.465 C 12.442,45.439 12.423,45.413 12.401,45.391 C 10.18,43.115 8.848,39.951 8.578,36.634 C 8.698,36.611 8.807,36.537 8.859,36.414 C 9.513,34.885 11.083,34.578 13.53,35.505 C 13.726,35.58 13.95,35.48 14.025,35.28 C 14.101,35.082 14.001,34.859 13.802,34.784 C 12.729,34.378 11.846,34.209 11.12,34.209 C 9.807,34.209 9.009,34.761 8.523,35.448 C 8.517,34.213 8.66,32.97 8.962,31.756 C 9.239,30.602 9.667,29.458 10.234,28.352 C 10.318,28.188 10.268,27.999 10.134,27.886 C 14.268,27.355 17.554,27.732 19.337,27.937 C 21.91,28.228 24.498,28.769 27.032,29.546 C 27.035,29.547 27.038,29.546 27.041,29.547 C 27.067,29.554 27.095,29.553 27.123,29.554 C 27.147,29.556 27.17,29.561 27.192,29.559 C 27.208,29.556 27.223,29.547 27.239,29.544 C 27.272,29.536 27.305,29.528 27.334,29.511 C 27.337,29.51 27.34,29.51 27.341,29.508 C 27.363,29.496 27.384,29.477 27.404,29.454 C 27.451,29.41 27.492,29.356 27.512,29.29 C 27.513,29.288 27.513,29.285 27.513,29.283 C 27.723,28.878 27.939,28.008 28.136,26.996 C 29.156,28.041 30.897,28.124 32.327,28.19 C 32.685,28.207 33.03,28.222 33.348,28.252 C 33.556,28.271 33.746,28.116 33.767,27.904 C 33.786,27.692 33.63,27.505 33.418,27.485 C 33.09,27.454 32.733,27.438 32.363,27.42 C 30.876,27.352 29.191,27.275 28.465,26.19 C 28.425,26.13 28.37,26.088 28.309,26.059 C 28.546,24.693 28.739,23.262 28.837,22.446 C 30.117,22.954 32.339,23.561 34.171,24.062 C 34.819,24.24 35.415,24.403 35.896,24.541 C 36.665,24.762 37.414,24.925 38.137,25.084 C 39.407,25.364 40.607,25.627 41.514,26.126 C 41.583,26.787 41.93,27.46 42.52,28.048 C 43.089,28.616 43.812,29.029 44.47,29.187 L 44.062,29.912 C 42.634,32.338 42.942,35.131 44.831,36.856 C 44.988,36.999 45.232,36.988 45.375,36.831 C 45.519,36.675 45.507,36.431 45.351,36.287 C 43.737,34.815 43.488,32.407 44.73,30.296 L 45.426,29.058 C 45.495,28.936 45.492,28.786 45.418,28.667 C 45.344,28.548 45.208,28.477 45.072,28.485 C 44.492,28.514 43.672,28.11 43.064,27.503 C 42.527,26.967 42.245,26.366 42.271,25.812 C 42.284,25.459 42.425,25.12 42.69,24.803 C 43.568,23.741 45.795,25.415 46.864,26.22 C 47.051,26.36 47.211,26.481 47.336,26.567 C 48.137,27.12 49.353,27.551 50.639,28.006 C 52.434,28.641 54.466,29.36 55.683,30.532 C 56.34,31.166 56.746,32.255 56.727,32.698 C 56.681,32.906 56.816,33.12 57.023,33.165 C 57.17,33.195 57.31,33.142 57.398,33.038 C 57.442,33.009 57.479,32.971 57.509,32.924 C 58.065,32.036 60.264,31.182 62.391,30.356 C 64.85,29.4 67.394,28.411 68.635,27.049 C 69.253,26.367 69.456,25.442 69.223,24.373 C 68.858,22.708 67.429,20.868 66.038,20.274 C 65.847,20.193 65.596,20.102 65.309,19.999 C 64.305,19.638 62.786,19.092 61.937,18.139 C 61.548,17.7 61.171,17.018 61.281,16.417 C 61.35,16.043 61.611,15.735 62.06,15.501 M 17.651,31.648 C 17.039,30.934 14.544,31.211 14.271,32.115 C 14.231,32.263 14.246,32.422 14.333,32.603 C 14.806,33.727 17.09,32.906 17.825,32.258 C 18.045,32.063 17.902,31.935 17.651,31.648 M 26.64,33.576 C 25.699,32.681 24.296,32.146 23.027,32.146 C 22.698,32.146 22.379,32.182 22.078,32.257 C 21.094,32.502 20.384,33.143 20.078,34.062 C 20.011,34.264 20.121,34.482 20.322,34.55 C 20.523,34.615 20.742,34.507 20.809,34.305 C 21.09,33.459 21.757,33.131 22.264,33.004 C 23.485,32.698 25.102,33.176 26.109,34.134 C 26.263,34.282 26.506,34.275 26.654,34.121 C 26.8,33.967 26.794,33.723 26.64,33.576 Z" stroke="none" fill="#ff974a" stroke-width="0.513" stroke-linejoin="miter" marker-start="none" marker-end="none" stroke-miterlimit="79.8403193612775"/>
    <path d="M 28.109,22.025 C 27.868,24.47 27.236,27.817 26.941,28.72 C 24.464,27.981 21.937,27.457 19.424,27.172 C 18.292,27.041 16.567,26.842 14.404,26.842 C 13.018,26.842 11.454,26.924 9.753,27.158 C 9.354,27.21 8.947,27.273 8.531,27.344 C 7.176,27.579 5.826,27.897 4.523,28.29 C 4.319,28.351 4.204,28.566 4.265,28.771 C 4.326,28.973 4.54,29.09 4.746,29.028 C 6.019,28.644 7.337,28.332 8.664,28.104 C 8.977,28.049 9.28,28.005 9.584,27.962 C 9.574,27.977 9.557,27.984 9.549,28 C 9.014,29.043 8.604,30.12 8.313,31.206 C 8.294,31.199 8.278,31.188 8.257,31.185 C 7.1,31.002 4.089,30.527 3.073,29.804 C 2.372,26.807 1.787,23.982 1.132,20.693 C 2.176,19.153 10.032,17.769 17.046,17.932 C 22.309,18.051 27.223,19.384 28.173,20.271 C 28.194,20.447 28.206,20.825 28.146,21.61 C 28.136,21.622 28.122,21.628 28.112,21.642 C 28.037,21.76 28.047,21.905 28.109,22.025 Z" stroke="none" fill="#66b3d1" stroke-width="0.513" stroke-linejoin="miter" marker-start="none" marker-end="none" stroke-miterlimit="79.8403193612775"/>
   </g>
  </g>
 </g>
</svg>
