<?xml version="1.0" standalone="no"?>
<!DOCTYPE svg PUBLIC "-//W3C//DTD SVG 1.1//EN" "http://www.w3.org/Graphics/SVG/1.1/DTD/svg11.dtd">
<!--Generator: Xara Designer (www.xara.com), SVG filter version: 6.0.0.4-->
<svg stroke-width="0.501" stroke-linejoin="bevel" fill-rule="evenodd" xmlns:xlink="http://www.w3.org/1999/xlink" xmlns="http://www.w3.org/2000/svg" version="1.1" overflow="visible" width="75pt" height="75pt" viewBox="0 0 75 75">
 <defs>
	</defs>
 <g id="Document" fill="none" stroke="black" font-family="Times New Roman" font-size="16" transform="scale(1 -1)">
  <g id="Spread" transform="translate(0 -75)">
   <g id="Layer 1">
    <path d="M 46.583,2.699 C 46.333,2.699 44.833,2.699 44.083,2.699 C 44.083,1.949 44.583,1.449 45.083,0.949 C 46.833,0.199 50.583,1.699 52.083,3.199 C 55.583,6.449 59.083,9.949 60.833,15.949 C 62.333,20.699 61.833,27.449 59.833,32.449 C 58.583,35.949 55.583,40.949 50.083,45.449 C 49.083,46.199 46.833,47.699 46.083,48.199 C 45.583,48.449 45.583,48.449 45.583,48.449 C 45.583,48.449 45.583,48.699 45.583,48.949 C 45.583,48.949 45.583,49.199 45.583,49.199 C 46.333,49.699 46.833,49.949 47.083,50.199 C 47.583,50.449 48.333,50.699 49.083,51.449 C 49.583,51.699 49.583,51.699 49.583,51.699 C 51.333,52.949 52.833,53.949 54.583,55.949 C 57.333,58.949 59.833,65.699 57.333,69.699 C 55.833,71.949 53.083,73.699 50.333,73.949 C 47.833,74.448 45.083,73.699 43.083,71.949 C 42.583,71.449 42.083,69.949 42.583,69.199 C 42.583,69.199 42.583,68.699 43.583,68.699 C 44.083,68.449 44.583,68.949 45.333,69.449 C 45.833,69.699 46.333,69.949 47.083,70.199 C 47.583,70.449 48.083,70.449 48.583,70.449 C 50.083,70.449 51.583,69.949 52.583,68.949 C 54.083,67.449 54.833,65.449 54.333,63.449 C 52.333,56.699 46.583,53.449 41.083,51.199 C 39.333,50.449 38.083,49.949 36.833,49.449 C 34.083,48.199 32.333,47.449 28.583,45.449 C 25.083,43.449 21.833,39.949 19.333,35.949 C 15.334,29.949 14.584,21.449 17.583,14.449 C 19.083,10.699 21.583,7.199 25.583,3.949 C 27.833,1.949 31.083,0.199 32.583,0.949 C 33.083,0.949 33.333,1.699 33.583,2.699 C 33.333,2.699 33.333,2.699 33.333,2.699 C 33.083,2.699 32.833,2.699 32.583,2.699 C 32.083,2.699 31.583,2.699 31.083,2.699 C 30.833,2.699 30.583,2.949 30.583,3.449 C 30.583,3.699 31.083,3.949 31.333,3.699 C 31.833,3.699 32.583,3.699 33.333,3.699 C 33.583,3.699 34.083,3.699 34.583,3.699 C 34.583,3.699 34.583,3.699 34.583,3.699 C 35.583,3.699 37.083,3.699 38.833,3.699 C 41.083,3.699 43.083,3.699 43.833,3.699 C 44.333,3.699 46.333,3.949 46.833,3.949 C 47.083,3.949 47.333,3.449 47.083,3.199 C 47.083,2.949 46.583,2.699 46.583,2.699 M 57.083,13.449 C 56.583,13.449 56.083,13.449 55.583,13.449 C 55.333,13.449 55.083,13.449 54.583,13.449 C 53.833,13.449 53.083,13.449 52.333,13.699 C 52.083,13.699 51.833,13.949 52.083,14.199 C 52.083,14.449 52.333,14.699 52.583,14.699 C 53.583,14.449 54.583,14.449 55.583,14.449 C 56.083,14.449 56.583,14.449 57.083,14.449 C 57.333,14.449 57.583,14.449 57.583,13.949 C 57.583,13.699 57.333,13.449 57.083,13.449 M 57.083,16.449 C 57.333,16.449 57.583,16.199 57.583,15.949 C 57.583,15.699 57.333,15.449 57.083,15.449 C 56.583,15.449 55.833,15.449 55.333,15.449 C 54.583,15.449 53.833,15.199 53.083,15.199 C 53.083,15.199 53.083,15.199 53.083,15.199 C 52.583,15.199 52.583,15.449 52.583,15.699 C 52.583,15.949 52.583,16.199 53.083,16.199 C 53.583,16.199 54.583,16.199 55.083,16.449 C 55.833,16.449 56.583,16.449 57.083,16.449 M 20.583,16.449 C 21.083,16.449 21.583,16.449 22.083,16.449 C 22.833,16.449 23.333,16.199 24.083,16.199 C 24.333,16.199 24.583,15.949 24.583,15.449 C 24.583,15.199 24.333,15.199 24.083,15.199 C 24.083,15.199 24.083,15.199 23.833,15.199 C 23.083,15.199 22.583,15.199 21.833,15.449 C 21.333,15.449 20.833,15.449 20.333,15.449 C 20.083,15.449 19.833,15.699 19.833,15.949 C 20.083,16.199 20.083,16.449 20.583,16.449 M 24.583,13.699 C 24.083,13.449 23.333,13.449 22.583,13.449 C 22.333,13.449 22.083,13.449 21.833,13.449 C 21.333,13.449 20.833,13.449 20.333,13.449 C 20.083,13.449 19.833,13.699 19.833,13.949 C 19.833,14.449 20.083,14.449 20.333,14.449 C 20.833,14.449 21.333,14.449 21.833,14.449 C 22.583,14.449 23.583,14.449 24.583,14.699 C 24.833,14.699 25.083,14.449 25.083,14.199 C 25.083,13.949 24.833,13.699 24.583,13.699 M 29.083,15.449 C 28.083,15.449 27.333,16.449 27.333,17.449 C 27.333,18.449 28.083,19.199 29.083,19.199 C 30.083,19.199 30.833,18.449 30.833,17.449 C 30.833,16.199 30.083,15.449 29.083,15.449 M 42.833,14.949 C 42.583,13.949 41.583,13.449 40.583,13.449 C 40.583,13.449 40.583,13.449 40.583,13.449 C 39.833,13.449 39.333,13.699 38.833,13.949 C 38.583,13.699 37.833,13.449 37.333,13.449 C 36.333,13.449 35.333,13.949 35.083,14.949 C 35.083,15.199 35.083,15.449 35.583,15.449 C 35.833,15.699 36.083,15.449 36.083,15.199 C 36.083,14.699 36.833,14.449 37.333,14.449 C 37.583,14.449 38.083,14.449 38.083,14.949 C 38.083,15.199 38.333,15.449 38.583,15.449 C 38.833,15.449 39.083,15.199 39.083,14.949 C 39.333,14.449 39.833,14.199 40.583,14.199 C 40.833,14.199 41.583,14.199 42.083,14.949 C 42.083,15.449 42.333,15.449 42.583,15.449 C 42.833,15.449 43.083,15.199 42.833,14.949 M 45.583,29.449 C 45.583,29.199 45.583,29.199 45.333,29.199 C 41.333,29.449 36.583,29.449 32.333,29.449 C 32.083,29.449 32.083,29.449 32.083,29.449 C 31.583,29.949 31.083,30.699 30.833,31.449 C 30.083,33.199 29.333,34.199 28.083,33.699 C 26.583,33.199 24.333,27.449 23.333,24.949 C 23.333,24.699 23.083,24.449 22.833,24.449 C 22.833,24.449 22.833,24.449 22.833,24.449 C 22.583,24.449 22.333,24.949 22.583,24.949 C 22.583,25.199 25.333,33.449 27.833,34.699 C 30.083,35.449 31.083,33.449 31.583,31.949 C 32.083,31.199 32.333,30.699 32.583,30.449 C 36.583,30.449 41.333,30.449 45.083,30.199 C 45.583,30.449 45.833,30.949 46.083,31.449 C 47.083,32.949 48.083,34.699 49.583,34.449 C 49.583,34.449 49.583,34.449 49.833,34.449 C 52.333,32.949 54.083,27.199 54.583,25.449 C 54.583,25.199 54.333,24.949 54.083,24.949 C 53.833,24.699 53.583,24.949 53.583,25.199 C 52.583,28.449 51.083,32.449 49.333,33.449 C 49.333,33.449 49.333,33.449 49.333,33.449 C 48.583,33.449 47.583,32.199 47.083,30.949 C 46.583,30.449 46.083,29.699 45.583,29.449 M 46.583,17.199 C 46.583,18.199 47.583,18.949 48.583,18.949 C 49.583,18.949 50.333,18.199 50.333,17.199 C 50.333,16.199 49.583,15.449 48.583,15.449 C 47.583,15.449 46.583,16.199 46.583,17.199 Z" fill-rule="nonzero" stroke="none" stroke-width="0.25" fill="#ff974a" marker-start="none" marker-end="none" stroke-miterlimit="79.8403193612775"/>
   </g>
  </g>
 </g>
</svg>
