<?xml version="1.0" standalone="no"?>
<!DOCTYPE svg PUBLIC "-//W3C//DTD SVG 1.1//EN" "http://www.w3.org/Graphics/SVG/1.1/DTD/svg11.dtd">
<!--Generator: Xara Designer (www.xara.com), SVG filter version: 6.0.0.4-->
<svg stroke-width="0.501" stroke-linejoin="bevel" fill-rule="evenodd" xmlns:xlink="http://www.w3.org/1999/xlink" xmlns="http://www.w3.org/2000/svg" version="1.1" overflow="visible" width="75pt" height="75pt" viewBox="0 0 75 75">
 <defs>
	</defs>
 <g id="Document" fill="none" stroke="black" font-family="Times New Roman" font-size="16" transform="scale(1 -1)">
  <g id="Spread" transform="translate(0 -75)">
   <g id="Layer 1">
    <path d="M 20.947,39.26 C 17.985,41.48 12.396,43.514 8.995,45.727 C 7.74,44.651 6.992,42.216 6.843,40.157 C 6.479,35.216 9.421,27.629 15.555,30.635 C 18.566,32.105 19.142,36.434 21.416,39 L 20.947,39.26 Z" stroke-linejoin="miter" stroke="none" fill="#ffb685" stroke-width="0.656" marker-start="none" marker-end="none" stroke-miterlimit="79.8403193612775"/>
    <path d="M 68.522,37.755 C 68.407,37.855 68.321,37.929 68.232,38.003 C 67.883,38.284 67.461,38.493 66.979,38.623 C 65.53,39.018 63.631,38.684 62.254,37.79 C 61.289,37.165 60.683,36.333 60.546,35.446 C 60.504,35.178 60.253,34.993 59.984,35.035 C 59.715,35.077 59.532,35.328 59.573,35.597 C 59.754,36.764 60.516,37.836 61.718,38.615 C 63.183,39.566 65.086,39.958 66.715,39.68 C 66.709,40.902 65.978,42.465 65.324,43.853 C 65.032,44.472 64.765,45.053 64.56,45.588 C 64.512,45.641 64.472,45.702 64.449,45.774 C 63.574,48.7 61.8,53.771 60.507,55.751 C 60.293,56.08 60.114,56.07 60.037,56.07 C 59.188,56.037 57.608,54.13 56.009,51.21 C 56.009,51.21 56.008,51.209 56.007,51.208 C 55.971,51.142 55.918,51.09 55.857,51.048 C 55.838,51.034 55.817,51.027 55.796,51.017 C 55.75,50.994 55.703,50.978 55.651,50.969 C 55.636,50.967 55.624,50.957 55.608,50.956 C 55.595,50.955 55.584,50.963 55.571,50.963 C 55.553,50.963 55.536,50.956 55.518,50.958 C 53.511,51.205 51.585,50.859 49.966,50.488 C 48.888,50.242 47.43,49.603 46.366,49.136 C 45.742,48.862 45.291,48.664 45.028,48.591 C 44.796,48.526 44.55,48.64 44.449,48.859 C 43.878,50.097 41.94,52.768 40.421,53.25 C 40.098,53.353 39.832,53.341 39.61,53.212 C 38.158,52.368 37.192,43.21 37.192,37.524 C 37.192,37.252 36.972,37.031 36.7,37.031 C 36.429,37.031 36.208,37.252 36.208,37.524 C 36.208,37.673 36.379,52.473 39.117,54.064 C 39.587,54.335 40.126,54.376 40.718,54.188 C 42.49,53.626 44.378,51.051 45.135,49.677 C 45.367,49.773 45.664,49.903 45.971,50.037 C 47.071,50.521 48.579,51.181 49.747,51.448 C 51.075,51.752 52.606,52.035 54.24,52.021 C 54.193,52.053 54.149,52.086 54.101,52.12 C 53.811,52.325 53.509,52.537 53.233,52.807 C 52.405,53.622 50.659,56.051 50.112,56.902 C 47.488,60.974 45.583,62.594 42.975,64.6 C 39.556,67.233 35.612,68.609 31.252,68.69 C 26.023,68.796 21.566,67.427 17.24,64.39 C 12.753,61.243 10.938,56.71 10.223,54.839 C 10.294,54.719 10.319,54.574 10.271,54.432 C 9.876,53.265 9.753,52.077 9.633,50.645 C 9.611,50.387 9.396,50.194 9.143,50.194 C 9.129,50.194 9.115,50.194 9.101,50.195 C 8.83,50.218 8.629,50.456 8.652,50.727 C 8.736,51.73 8.833,52.66 9.024,53.561 C 4.801,51.145 3.172,48.468 1.976,44.995 C 0.641,41.121 0.888,36.223 2.637,31.894 C 3.854,28.876 5.969,26.443 8.296,25.386 C 11.507,23.922 14.572,23.919 17.401,25.376 C 17.461,25.406 17.527,25.412 17.592,25.417 C 20.171,26.334 20.869,28.143 21.606,30.057 C 22.385,32.08 23.267,34.373 26.526,35.508 C 28.128,36.072 29.067,35.142 29.753,34.463 C 30.533,33.692 30.889,33.34 31.975,34.432 L 32.058,34.52 C 32.113,34.579 32.173,34.64 32.229,34.704 C 32.851,35.4 32.954,36.228 32.541,37.173 C 31.703,39.081 29.107,40.72 26.871,40.752 C 24.934,40.796 23.485,40.163 22.306,38.831 C 21.382,37.79 20.712,36.415 20.064,35.083 C 19.049,33.001 18,30.848 15.932,29.837 C 13.747,28.767 11.688,28.811 9.978,29.967 C 7.028,31.961 5.717,36.841 5.981,40.42 C 6.128,42.458 6.859,45.319 8.435,46.669 C 8.442,46.676 8.452,46.678 8.459,46.683 C 8.487,46.704 8.517,46.718 8.547,46.732 C 8.575,46.745 8.602,46.76 8.632,46.767 C 8.661,46.775 8.69,46.776 8.721,46.778 C 8.753,46.781 8.785,46.784 8.818,46.78 C 8.847,46.776 8.873,46.765 8.902,46.756 C 8.935,46.746 8.967,46.736 8.998,46.719 C 9.006,46.714 9.015,46.714 9.024,46.708 C 10.655,45.647 12.821,44.599 14.916,43.586 C 17.413,42.378 19.996,41.128 21.733,39.827 C 21.768,39.801 21.79,39.767 21.815,39.735 C 23.14,41.099 24.794,41.773 26.884,41.736 C 29.507,41.699 32.449,39.829 33.442,37.568 C 33.997,36.302 33.841,35.079 33.013,34.112 C 34.883,32.761 47.135,26.666 48.43,26.482 C 48.789,26.442 49.84,27.088 50.532,27.515 C 51.365,28.03 52.162,28.522 52.842,28.742 C 52.703,28.837 52.572,28.911 52.443,28.963 C 52.19,29.063 52.067,29.35 52.168,29.603 C 52.269,29.854 52.556,29.976 52.808,29.877 C 53.034,29.786 53.256,29.662 53.466,29.509 C 53.649,29.39 53.887,29.2 54.132,28.976 C 54.494,28.639 54.996,28.09 55.356,27.369 C 56.215,25.628 57.257,25.141 58.957,25.689 C 59.638,25.91 60.192,26.498 60.478,27.303 C 60.93,28.576 60.663,30.118 59.745,31.534 C 59.605,31.752 59.449,31.946 59.265,32.129 C 58.496,32.904 57.416,33.248 56.055,33.158 C 53.36,32.975 50.375,31.109 49.422,29.851 L 49.123,29.452 C 48.848,29.082 48.697,28.878 48.324,28.434 C 48.149,28.227 47.839,28.198 47.631,28.374 C 47.422,28.548 47.395,28.859 47.57,29.067 C 47.926,29.492 48.071,29.686 48.334,30.04 L 48.636,30.444 C 49.846,32.04 53.162,33.949 55.988,34.139 C 57.498,34.244 58.787,33.853 59.737,33.025 C 59.748,33.034 59.752,33.046 59.763,33.054 C 60.301,33.461 61.131,33.958 61.934,34.44 C 62.676,34.885 63.377,35.305 63.709,35.571 C 63.86,35.693 64.068,35.713 64.24,35.625 C 64.413,35.537 64.517,35.356 64.508,35.162 L 64.466,34.336 C 64.787,33.242 66.21,31.543 67.541,31.433 C 68.618,31.354 69.447,31.814 69.86,32.747 C 70.428,34.032 70.153,36.223 68.522,37.755 M 39.654,32.314 C 39.49,32.314 39.331,32.394 39.238,32.542 C 39.092,32.772 39.16,33.076 39.39,33.221 C 40.758,34.088 43.248,34.714 44.864,34.819 C 45.128,34.838 45.369,34.631 45.387,34.36 C 45.405,34.089 45.199,33.854 44.928,33.837 C 43.467,33.742 41.136,33.161 39.917,32.39 C 39.835,32.338 39.743,32.314 39.654,32.314 M 45.996,32.023 C 44.897,32.014 43.006,31.057 41.707,30.117 C 41.619,30.053 41.519,30.023 41.419,30.023 C 41.266,30.023 41.116,30.094 41.02,30.227 C 40.86,30.447 40.909,30.755 41.13,30.914 C 42.195,31.685 44.418,32.994 45.987,33.009 C 45.989,33.009 45.99,33.009 45.992,33.009 C 46.262,33.009 46.481,32.791 46.484,32.521 C 46.486,32.249 46.268,32.027 45.996,32.023 M 47.613,36.356 C 46.832,36.356 46.202,37.104 46.202,38.029 C 46.202,38.947 46.832,39.695 47.613,39.695 C 48.4,39.695 49.03,38.947 49.03,38.029 C 49.03,37.104 48.4,36.356 47.613,36.356 M 58.557,41.211 C 58.557,42.143 59.2,42.897 59.988,42.897 C 60.775,42.897 61.418,42.143 61.418,41.211 C 61.418,40.286 60.775,39.531 59.988,39.531 C 59.2,39.531 58.557,40.286 58.557,41.211 Z" stroke-linejoin="miter" stroke="none" fill="#ff974a" stroke-width="0.656" marker-start="none" marker-end="none" stroke-miterlimit="79.8403193612775"/>
    <path d="M 74.304,40.632 C 73.638,40.39 70.758,38.841 69.586,38.047 C 71.029,36.407 71.535,34.099 70.76,32.349 C 70.217,31.122 69.146,30.438 67.794,30.438 C 67.685,30.438 67.574,30.442 67.461,30.452 C 65.58,30.608 63.855,32.751 63.493,34.159 C 63.488,34.182 63.484,34.205 63.481,34.228 C 63.165,34.031 62.807,33.816 62.44,33.596 C 61.681,33.141 60.903,32.672 60.403,32.301 C 60.461,32.224 60.52,32.147 60.572,32.067 C 61.656,30.395 61.961,28.538 61.406,26.973 C 61.017,25.878 60.235,25.069 59.26,24.752 C 58.73,24.582 58.236,24.496 57.776,24.496 C 56.366,24.496 55.278,25.302 54.474,26.931 C 54.265,27.35 53.993,27.698 53.745,27.967 C 53.671,27.918 53.587,27.881 53.491,27.878 C 52.971,27.865 51.905,27.207 51.05,26.678 C 50.056,26.065 49.348,25.645 48.789,25.528 C 48.357,22.142 48.641,11.73 49.137,8.595 C 53.027,9.848 66.825,17.842 69.242,19.346 C 70.598,20.193 73.557,22.513 74.372,23.479 C 74.007,24.632 74.105,27.461 74.288,31.743 C 74.43,35.088 74.59,38.833 74.304,40.632 Z" stroke-linejoin="miter" stroke="none" fill="#ffb685" stroke-width="0.656" marker-start="none" marker-end="none" stroke-miterlimit="79.8403193612775"/>
    <path d="M 65.855,45.05 C 65.97,44.797 66.089,44.54 66.215,44.272 C 66.47,43.73 66.736,43.163 66.972,42.59 C 67.125,42.642 67.401,42.778 67.6,42.877 C 68.029,43.092 68.435,43.295 68.764,43.328 C 69.036,43.361 69.275,43.158 69.302,42.888 C 69.329,42.617 69.132,42.375 68.861,42.348 C 68.713,42.334 68.308,42.13 68.04,41.997 C 67.773,41.863 67.532,41.746 67.317,41.669 C 67.403,41.412 67.476,41.157 67.537,40.904 C 67.726,40.927 68.192,41.133 68.484,41.264 C 69.031,41.508 69.497,41.711 69.874,41.71 C 70.146,41.703 70.361,41.477 70.354,41.205 C 70.348,40.934 70.119,40.721 69.85,40.726 C 69.85,40.726 69.849,40.726 69.848,40.726 C 69.693,40.726 69.188,40.5 68.885,40.365 C 68.431,40.162 68.031,39.989 67.69,39.936 C 67.699,39.791 67.709,39.646 67.703,39.504 C 67.702,39.478 67.69,39.455 67.685,39.428 C 68.118,39.265 68.51,39.043 68.853,38.766 C 68.861,38.759 68.867,38.753 68.875,38.747 C 69.985,39.535 72.702,41.012 73.756,41.47 C 72.252,42.242 67.894,44.212 65.855,45.05 Z" stroke-linejoin="miter" stroke="none" fill="#ffb685" stroke-width="0.656" marker-start="none" marker-end="none" stroke-miterlimit="79.8403193612775"/>
    <path d="M 47.812,25.642 C 45.291,26.53 34.447,31.812 32.328,33.423 C 30.752,32.095 29.782,33.051 29.061,33.763 C 28.324,34.492 27.822,34.919 26.851,34.579 C 24.023,33.594 23.295,31.704 22.525,29.704 C 21.819,27.871 21.088,25.985 18.766,24.847 C 24.078,21.796 44.386,10.347 48.143,8.586 C 47.639,12.023 47.375,22.156 47.812,25.642 Z" stroke-linejoin="miter" stroke="none" fill="#ffb685" stroke-width="0.656" marker-start="none" marker-end="none" stroke-miterlimit="79.8403193612775"/>
   </g>
  </g>
 </g>
</svg>
