<?xml version="1.0" encoding="utf-8"?>
<!-- Generator: Adobe Illustrator 21.1.0, SVG Export Plug-In . SVG Version: 6.00 Build 0)  -->
<svg version="1.1" id="Layer_1" xmlns="http://www.w3.org/2000/svg" xmlns:xlink="http://www.w3.org/1999/xlink" x="0px" y="0px"
	 viewBox="0 0 100 100" style="enable-background:new 0 0 100 100;" xml:space="preserve">
<style type="text/css">
	.st0{fill:#E89963;}
	.st1{fill:#211F1F;}
</style>
<path class="st0" d="M98.8,28.8c0.1-0.1,0.5-0.3,0.4-1.2c-0.4-4.7-7.6-6.4-12-7.4c1.5,1.8,3,3.8,4.5,6.1l0.1,0.1
	c0.1,0,0.2,0.1,0.3,0.2C93.2,27.6,97.4,29.5,98.8,28.8z"/>
<path class="st1" d="M92.4,40.3c0.1,0,0.2,0.1,0.4,0.1c0,0,0.1,0,0.1,0c0.8,0.2,1.5,0.4,2.1,0.3c0.2,0,0.3,0,0.5,0
	c1-0.1,1.4-0.7,1.3-1.8c0-0.5-0.1-0.9-0.3-1.5c-0.1-0.3-0.2-0.6-0.3-0.9C94.5,36.1,92.2,38.2,92.4,40.3z"/>
<path class="st0" d="M73.8,26c0.1-0.4,0.5-0.6,0.9-0.5c0.7,0.2,1.5,0,1.8-0.4c0.2-0.3,0.2-0.7-0.1-1.2c-0.2-0.3-0.1-0.8,0.3-1
	c0.3-0.2,0.8-0.1,1,0.3c0.6,1,0.6,2,0,2.7c-0.5,0.6-1.4,1-2.3,1c-0.3,0-0.6,0-1-0.1C73.9,26.8,73.7,26.4,73.8,26z M79.5,20.5
	c0.3-0.3,0.7-0.3,1,0c0.4,0.4,0.8,0.3,1.1,0.2c0.5-0.2,0.8-0.7,0.8-1.1c0-0.4,0.3-0.7,0.7-0.7c0,0,0,0,0,0c0.4,0,0.7,0.3,0.7,0.7
	c0,1-0.7,2-1.7,2.4c-0.3,0.1-0.7,0.2-1,0.2c-0.6,0-1.1-0.2-1.6-0.6C79.2,21.2,79.2,20.8,79.5,20.5z M73.6,27.5
	c0.4,0.4,0.8,0.7,1.2,1.1c0.7,0.5,1.3,1.1,2,1.6c1.3,1.1,2.6,2.2,4,3.2c0.8,0.6,1.6,1.2,2.4,1.8l0.9,0.6c2.1,1.5,4.7,3.3,7.2,4.2
	c-0.2-2.3,2.5-4.7,4.2-4.2c-1.2-2.9-3.4-6.3-4.5-7.8l-0.5-0.7c-1.8-2.9-3.6-5.2-5.5-7.3c-0.8-0.9-1.7-1.8-2.5-2.5
	c-0.5-0.5-1.1-1-1.6-1.4c-1.1-1-2.1-1.7-3-2.4c-0.6-0.4-1.2-0.8-1.9-1.1c-1.1-0.6-2.2-1.3-3.2-2.2c-0.3-0.3-0.3-0.7,0-1
	c0.3-0.3,0.7-0.3,1,0c0.8,0.8,1.8,1.4,2.9,2c0.7,0.4,1.4,0.8,2,1.2c0.8,0.6,1.7,1.3,2.7,2.1c0.1,0,0.3,0,0.4,0
	c2.5,1.1,6,1.1,7.6-0.9c0.5-0.6,0.6-1.3,0.5-1.9c-0.3-1.3-1.9-2.6-3.3-3.2C81.4,6,75.3,6.6,69.4,7.2c-0.8,0.1-1.5,0.2-2.3,0.2
	c0,0,0,0,0,0c-0.3,0.2-0.7,0.2-1-0.1c0,0-0.1-0.1-0.1-0.1c-1.1-1.1-3.9-1.3-6-1.5c-0.6,0-1.2-0.1-1.7-0.1C55,5.2,51.5,5.1,47.7,5.3
	C40.5,5.7,34,7,28.5,9.1c-9.8,3.7-18.3,11.8-23.1,22.1c-4.5,9.6-5,20.5-1.3,33.5C6.9,75,14.5,85.2,24.4,92c5.4,3.7,9.8,5.3,12.9,4.8
	c0.4-0.1,1-0.3,1.1-0.7c0.1-0.5-0.4-1.5-1.2-2.1C35.8,93,34.1,92,32.5,91c-0.9-0.6-1.8-1.1-2.7-1.7c-0.1-0.1-0.2-0.1-0.2-0.2
	c-0.9,0.4-1.9,0.7-2.9,0.9c0,0-0.1,0-0.1,0c-0.3,0-0.6-0.2-0.7-0.6c-0.1-0.4,0.2-0.7,0.6-0.8c1.1-0.2,2.2-0.6,3.2-1.1
	c1.3-0.6,2.4-1.6,3.3-2.7c0.5-0.6,1-1.4,1.4-2.1c0.2-0.3,0.6-0.5,0.9-0.3s0.5,0.6,0.3,0.9c-0.3,0.6-0.7,1.2-1.1,1.7
	c1.8,1.2,3.7,2.3,5.6,3.2l0.6,0.3c1.7,0.9,4.6,2.4,6.3,1.7c0.7-0.3,0.8-0.6,0.8-0.7c0.1-1-1.5-2.8-3.1-4.1c-1.2-1-2.6-1.8-3.9-2.7
	c-2.2-1.4-4.4-2.8-6.2-4.8c-1.9,1.9-4.3,3-6.7,3c-0.6,0-1.2-0.1-1.8-0.2c-0.4-0.1-0.6-0.5-0.5-0.8c0.1-0.4,0.5-0.6,0.8-0.5
	C29.2,80,32,79,34,76.5c0.9-1.1,1.6-2.3,2-3.7c0.7-2.4,1.2-6.5-0.9-8.2c0,2.8-1.3,6.2-3.5,8.6c-2.3,2.5-5.1,3.3-7.7,2.2
	c-0.4-0.1-0.5-0.6-0.4-0.9c0.1-0.4,0.6-0.5,0.9-0.4c2.6,1,4.7-0.4,5.9-1.6c-0.2,0-0.4-0.1-0.5-0.2c-3.6-3.7-3.9-9.3-3.7-14.8
	c0.2-7.3,1.4-13.1,3.8-18.3c1.9-4.2,5.4-9.9,11.3-13.3c2.9-1.7,6-2.4,8.9-3c0.4-0.1,0.7-0.1,1.1-0.2c2.6-0.5,5.5-1.1,8.1,0.1
	c0.1,0.1,0.2,0.1,0.3,0.2c0.3-1.2,0.6-2.3,1-3.3c0.2-0.4,0.6-0.5,0.9-0.4c0.4,0.2,0.5,0.6,0.4,0.9c-0.5,1.1-0.8,2.2-1.1,3.5
	c-1.1,5.5,0.1,12.8,5.4,15.5c1.2,0.6,2.2,0.7,2.9,0.3c0.7-0.4,1-1.4,1-2.6c0-0.5-0.1-1-0.3-1.6c-0.5-1.8-1.4-3.6-2.2-5.3
	c-0.8-1.6-1.5-3.3-2.1-5c0,0,0-0.1,0-0.1c-0.4-1.5-0.7-2.9-0.7-4.2c0-0.4,0.3-0.7,0.7-0.7c0.4,0,0.7,0.3,0.7,0.7
	c0,1,0.2,2.1,0.5,3.2C69.3,23.7,71.6,25.8,73.6,27.5z"/>
<path class="st0" d="M71.9,36.3c1.6,0.4,2.8,2.2,3.8,3.6c0.2,0.3,0.4,0.6,0.6,0.8c0.2,0.3,0.4,0.6,0.7,0.9c1,1.4,2.1,2.9,3.4,3.5
	c1.3,0.6,1.6,0.2,1.7,0c1.3-1.8-1.2-9.5-2.4-10.7c-0.1-0.2-0.2-0.3-0.2-0.5c-1.2-0.9-2.4-1.9-3.5-2.8c-0.7-0.5-1.3-1.1-2-1.6
	c-0.4-0.3-0.8-0.7-1.3-1.1c-1.6-1.4-3.6-3.2-5.5-3.1c0.5,1.4,1.1,2.7,1.8,4.1c0.8,1.8,1.7,3.6,2.2,5.6c0.1,0.5,0.2,0.9,0.3,1.3
	C71.5,36.3,71.7,36.3,71.9,36.3z"/>
</svg>
