<?xml version="1.0" encoding="utf-8"?>
<!-- Generator: Adobe Illustrator 21.1.0, SVG Export Plug-In . SVG Version: 6.00 Build 0)  -->
<svg version="1.1" id="Layer_1" xmlns="http://www.w3.org/2000/svg" xmlns:xlink="http://www.w3.org/1999/xlink" x="0px" y="0px"
	 viewBox="0 0 100 100" style="enable-background:new 0 0 100 100;" xml:space="preserve">
<style type="text/css">
	.st0{fill:#E89963;}
	.st1{fill:#211F1F;}
</style>
<path class="st0" d="M12.8,55.3c-0.1,0.1-0.3,0.2-0.4,0.2c-0.1,0-0.2,0-0.3-0.1c-0.2-0.2-0.3-0.5-0.1-0.7c0.3-0.3,0.2-0.7,0.1-1
	c-0.2-0.5-0.7-1-1.2-1.2c-0.3-0.1-0.5-0.4-0.4-0.6c0.1-0.3,0.4-0.5,0.6-0.4c0.9,0.2,1.7,1,2,1.8C13.3,54,13.3,54.7,12.8,55.3z
	 M36.7,63.7c2.3-1.2,4.9-1.5,7.4-1.9c0.6-0.1,1.3-0.2,1.9-0.3c2.7-0.4,5.5-0.6,8.2-0.8c0.7-0.1,1.4-0.1,2.1-0.1l1.7-0.1
	c5.3-0.4,10.7-0.8,16.2-0.1c3.1,0.5,5.9,1.6,8.7,2.7c1.7,0.7,3.5,1.4,5.3,1.9c2.9,0.8,5.5,1.1,7.9,0.7l0.1,0c2.6-0.4,3.2-1,3.2-1.3
	c0-0.2-0.1-0.3-0.1-0.4c-0.6-0.5-2.8-0.2-4,0c-0.6,0.1-1,0.2-1.3,0.2c-2.3-0.1-4.4-1-6.4-2c-0.4-0.2-0.9-0.4-1.3-0.6
	c-0.1-0.1-0.2-0.2-0.3-0.3c-0.1-0.1,0-0.3,0-0.4c1.7-3.4,2.2-8.2-1.4-11.8L84.4,49c-0.4-0.4-0.8-0.7-1.3-1.1
	c-1.6-1.3-3.3-2.8-3.4-5.1c-0.1-1.9,1.1-2.6,2.2-3.2c0.1-0.1,0.2-0.1,0.3-0.2c0.7-0.3,1-0.5,1-1c0-0.2,0-0.3-0.1-0.5
	c-0.5-0.8-2.2-1.2-3.1-1c-2.5,0.5-4.8,4.1-5.4,5.2c-0.5,0.9-0.7,1.7-0.5,2.5c0.2,0.7,0.5,1.3,0.9,2c0.2,0.4,0.5,0.8,0.7,1.3
	c0.6,1.3-0.1,2.3-0.6,3.3c-0.7,1.1-1.1,1.8-0.3,2.8c0.2,0.2,0.1,0.6-0.1,0.7c-0.2,0.2-0.6,0.1-0.7-0.1c-1.2-1.7-0.4-3,0.3-4
	c0.6-0.9,0.9-1.5,0.6-2.2c-0.2-0.4-0.4-0.9-0.7-1.3c-0.3-0.6-0.7-1.2-0.9-1.8c0,0-0.1,0-0.1,0c-0.1,0-0.2,0-0.2-0.1
	C67.1,42.5,61.3,41,55.6,41c-6.4-0.1-12.8,1.3-19,2.7l-0.1,0c-0.4,1.3,0,1.8,0.5,2.1c0.2,0.2,0.3,0.5,0.1,0.7
	c-0.2,0.2-0.5,0.3-0.7,0.1c-1.1-0.8-1.4-2.1-0.7-3.7c0.3-0.9,0.9-1.7,1.3-2.4c0.2-0.3,0.4-0.6,0.5-0.8c0.6-1.1,0.7-2.2,0.3-2.8
	c-0.4-0.7-1.4-0.7-2.1-0.6c-1.6,0.2-3.1,0.9-4.3,2c-0.9,0.9-1.5,2-1.7,3.2c-0.2,1.2-0.1,2.5,0.4,3.8c0.5,1.6,1.5,3.3,3.1,5.3
	c0.2,0.2,0.1,0.6-0.1,0.7c-0.1,0.1-0.2,0.1-0.3,0.1c-0.2,0-0.3-0.1-0.4-0.2c-1.4-1.9-2.4-3.5-3-5.1C28.2,47,27,48,25.8,48.9
	c-1.7,1.3-3.5,2.8-5.2,4.3c-0.1,0-0.1,0.1-0.2,0.1c0,0,0,0-0.1,0c0,0-0.1,0-0.1,0c0,0,0,0,0,0c0,0-0.1,0-0.1,0c0,0,0,0-0.1,0
	c-0.1,0-0.1-0.1-0.2-0.1l0,0l0,0c-2.4-2.9-4-6.3-5.6-9.6c-0.8-1.6-1.5-3.3-2.4-4.9c-0.2,1.3-1,2.5-2,3.2C9.7,42,9.6,42,9.5,42
	c-0.2,0-0.3-0.1-0.4-0.2C8.9,41.5,9,41.2,9.2,41c1.2-0.9,1.9-2.5,1.6-4c0,0,0-0.1,0-0.1c-0.1-0.1-0.1-0.2-0.2-0.3
	c-1.5-2.3-3.1-4.5-5.4-5.6c-0.3,1.8-1.5,3.4-3.1,4c0,0.1,0.1,0.1,0.1,0.2c0.3,0.5,0.6,1,0.9,1.5c0.7,1.5,1.3,3,1.9,4.8
	c1,3.4,1.5,6.9,2,10c0.1,0.7,0.2,1.4,0.2,2.1c0.2,2.2,0.5,4.4,1.4,6.2c1,1.8,2.6,2,4.5,2.3c0.4,0.1,0.8,0.1,1.1,0.2
	c0.2,0,0.3,0.1,0.5,0.1c0.2,0.1,0.4,0.3,0.4,0.5c0.4,0.3,0.8,0.6,1.1,1c0.3,0.3,0.5,0.5,0.7,0.7c1.1,0.9,2.4,1.7,3.6,2.4
	c2.7,1.6,5.4,2.9,8.2,3.8c3.2,1.1,6.4,1.7,9.4,1.9c1.8,0.1,3.8,0,5.1-1c0.5-0.4,0.8-1,0.8-1.6c0.1-0.9-0.3-1.8-1-2.6
	c-1.3-1.4-3.4-2-5.3-2.4c-0.3-0.1-0.5-0.1-0.8-0.2c-1.6-0.3-3.3-0.4-5-0.5c-3.4-0.2-6.9-0.4-9.9-2.1c-0.3-0.1-0.3-0.5-0.2-0.7
	c0.1-0.3,0.5-0.3,0.7-0.2c2.8,1.6,6.2,1.8,9.5,2c1.5,0.1,3.1,0.2,4.6,0.4C36.6,63.8,36.7,63.8,36.7,63.7z"/>
<path class="st0" d="M83.1,44.6c0.3-1.4,1.4-2.2,2.4-2.9l0.3-0.2c1.7-1.3,1.6-2,1.2-2.6c-0.5-0.7-1.8-1.3-2.6-1
	c0,0.2,0.1,0.4,0.1,0.6c-0.1,1.1-1,1.6-1.6,1.9c-0.1,0.1-0.2,0.1-0.3,0.1c-1.2,0.6-1.7,1.1-1.7,2.3c0,1.5,1.1,2.7,2.3,3.7
	C83,45.9,83,45.2,83.1,44.6z"/>
<path class="st0" d="M28.7,41.3c0.2-1.3,0.8-2.4,1.7-3.4c-0.5-0.4-1-0.6-1.7-0.5c-1.5,0.2-3.1,1.5-3.8,2.6c-1.5,2.3-0.6,5.6,0.7,7.9
	c1.2-0.9,2.3-1.8,3.5-2.7c0,0,0,0,0,0C28.7,43.7,28.5,42.5,28.7,41.3z"/>
<path class="st1" d="M1.5,31.3C1.5,31.3,1.5,31.3,1.5,31.3c-0.1,0.1-0.2,0.2-0.2,0.2c0,0,0,0,0,0.1c-0.3,0.5-0.4,1.2,0,1.9
	c0.1,0.2,0.2,0.4,0.3,0.6c0,0,0.1,0,0.1,0c1.4-0.6,2.5-2,2.6-3.5C3.3,30.5,2.2,30.7,1.5,31.3z"/>
</svg>
