<?xml version="1.0" encoding="utf-8"?>
<!-- Generator: Adobe Illustrator 21.1.0, SVG Export Plug-In . SVG Version: 6.00 Build 0)  -->
<svg version="1.1" id="Layer_1" xmlns="http://www.w3.org/2000/svg" xmlns:xlink="http://www.w3.org/1999/xlink" x="0px" y="0px"
	 viewBox="0 0 100 100" style="enable-background:new 0 0 100 100;" xml:space="preserve">
<style type="text/css">
	.st0{fill:#E89963;}
	.st1{fill:#211F1F;}
</style>
<path class="st0" d="M54.3,12.5c2.6-0.7,3.5,3.6,0.5,3.3c-0.7-0.2-1.4-0.3-1.7-1.1C52.8,13.8,53.4,12.8,54.3,12.5z M50.9,96.9
	c0.4,0.1,0.8,0.2,1.2,0.3l0.1,0c0.2,0,0.3,0,0.5,0.1c4,0.9,11.3,1.9,17.7-0.2c1.2-0.4,2-1,2.1-1.6c0.1-0.6-0.5-1.1-1-1.5
	c-1.8-1.3-4.6-1.5-7-0.5c-0.2,0.1-0.5,0-0.7-0.1c-0.2-0.2-0.2-0.5-0.1-0.7c0.9-2,0.7-4.7-0.7-7.4c-0.6-1.1-1.3-2.1-2.1-3
	c-3.1-3.3-8.1-3.1-11.4-1.9c-0.3,0.1-0.7-0.1-0.8-0.4c-0.1-0.3,0.1-0.7,0.4-0.8c3.7-1.3,9.2-1.5,12.7,2.2c0.5,0.5,0.9,1.1,1.3,1.7
	c0.9-6.6,1-13.4,1-20.1v-0.3c0-5.4,0-11.2-0.2-17c0-1.4-0.1-2.8-0.2-4.3c-0.8,1-1.6,2.3-2.2,3.5c-0.1,0.2-0.3,0.4-0.6,0.4
	c-0.1,0-0.2,0-0.3-0.1c-0.3-0.1-0.5-0.5-0.3-0.8c0.4-0.8,1.4-2.9,3.1-4.7c1.5-1.5,2.9-2.4,4.4-2.5c1.1-0.1,1.8,0.5,2.5,1
	c0.4,0.3,0.8,0.6,1.2,0.7c0.6,0.1,1.1,0,1.5-0.4c0.4-0.4,0.8-0.9,0.9-1.5c0.1-0.7-0.1-1.4-0.5-2c-0.9-1.2-2.8-2-4.3-2.1
	c-1.6-0.2-3.4,0.1-5.1,0.8c-1.5,0.6-2.9,1.5-4.1,2.7c-0.2,0.2-0.6,0.2-0.9,0c-0.2-0.2-0.2-0.6,0-0.9c1.2-1.1,2.5-2,4-2.7
	c-0.1-1.1-0.2-2.3-0.2-3.5c-0.1-0.8-0.1-1.6-0.2-2.4c0-0.4-0.1-0.8-0.1-1.3c-0.2-1.2-0.3-2.6-0.1-3.8c0.4-1.7,1.9-3,3.4-4.1
	c-1.1-0.1-2.2-0.6-3-1.3c-0.3-0.2-0.3-0.6-0.1-0.9c0.2-0.3,0.6-0.3,0.9-0.1c1.1,0.9,2.7,1.3,4.1,0.9c0.2-0.2,0.4-0.3,0.5-0.5
	c2.9-2.5,4.6-4.7,5.7-7.1c0.5-1.1,1.3-3.3,1.2-5.1c-0.2,0.1-0.3,0.1-0.5,0.1c-0.3,0-0.6,0.1-0.9,0.1c-0.4,0-0.9,0-1.2-0.1
	c-1.1-0.1-2.7-0.4-3.1-0.6c-0.1,0-0.1-0.1-0.1-0.1c-0.3,0.3-0.6,0.6-0.9,0.9c-0.8,0.8-1.5,1.5-2.2,2C63.4,8,59.8,9.5,56,10.2
	c-1,0.2-2.1,0.2-3.4,0.2c-2,0-4.1,0-5.3,0.9c-1.8,1.4-1.9,4.7-1.9,6.9l0,0.2c0,0.1,0.1,0.2,0.1,0.3c-0.2,1.5-0.4,3.1-0.6,4.7
	c-0.6,4.9-1.1,9.9-2.8,14.5c-0.3,0.8-0.7,1.7-1.2,2.7c-1.4,2.9-3,6.2-1.3,8.4c1.2,1.7,2.8,1.3,3.7,0.9c0.6-0.3,1.2-0.7,1.7-1.3
	c1.8-2,2.4-4.8,2.8-7.6c1-6.6,1-13.6,0.2-20.8c0-0.3,0.2-0.7,0.6-0.7c0.3,0,0.6,0.2,0.7,0.6C50,27.4,50,34.5,49,41.2
	c-0.4,3-1.1,6-3.1,8.2c-0.5,0.5-1,1-1.6,1.3c0,10.3-0.2,20.4-3.3,30.1c-2.8,9-8.2,13.5-14.7,12.3c-3-0.6-4.8-2.4-5.7-5.7
	c-0.2-0.6-0.2-1.2-0.3-1.8c-0.1-0.8-0.2-1.7-0.5-2.3c-0.1-0.2-0.2-0.2-0.2-0.2c0,0-0.3,0.1-0.8,1c-2,3.2-0.6,7.6,1.8,9.9
	c2,1.9,5,2.9,8.2,2.8c1.3,0,2.6-0.3,3.9-0.6c2-0.5,4.2-1,6.5-0.3c3.6,0.9,7.2,1.8,10.8,1.6c0,0,0,0,0,0C50.2,97,50.6,96.8,50.9,96.9
	z"/>
<path class="st1" d="M74.8,2.6c0.2,0,0.3-0.1,0.4-0.1c0-0.1,0-0.2,0-0.3c0,0,0-0.1,0-0.1c-0.3-0.6-0.7-1-1.4-1.3
	C73.4,0.8,73,0.8,72.6,1c-0.5,0.2-1.1,0.6-1.9,1.2c0,0,0,0,0,0C71.1,2.3,72,2.5,73,2.6C73.7,2.6,74.3,2.7,74.8,2.6z"/>
</svg>
