<?xml version="1.0" encoding="utf-8"?>
<!-- Generator: Adobe Illustrator 21.1.0, SVG Export Plug-In . SVG Version: 6.00 Build 0)  -->
<svg version="1.1" id="Layer_1" xmlns="http://www.w3.org/2000/svg" xmlns:xlink="http://www.w3.org/1999/xlink" x="0px" y="0px"
	 viewBox="0 0 100 100" style="enable-background:new 0 0 100 100;" xml:space="preserve">
<style type="text/css">
	.st0{fill:#EA9A65;}
</style>
<g>
	<path d="M4.5,45.3c0.2,0.3-0.4,0.9-0.7,1.3c-0.6,0.7-1,0.6-1.7,1.1c-0.1,0-0.2,0-0.3,0c-0.6-0.2-0.7-2,0.1-2.5
		c0.3-0.2,0.7-0.2,1.1-0.2c0.3,0,0.5,0,0.7,0C3.7,45,3.8,45,3.9,45C4.3,45.2,4.5,45.2,4.5,45.3z"/>
</g>
<g>
	<path class="st0" d="M75.1,66.6c0.2-1,0.5-2,0.8-2.8c0.9-2.3,1.9-4.8,3.5-6.8c1.3-1.5,2.7-3.4,3.7-5.6c1.9-4.3,2.2-10.3-1.7-13.5
		c-0.2-0.1-0.2-0.4-0.1-0.6c0-0.1,0-0.1,0.1-0.2c2.7-3.2,2.6-7.5-0.3-11.1c-1.2-1.4-3.5-3-5.7-3.1c-0.9,0-1.8,0.2-2.4,0.7
		c2.7,1.1,5.5,2.5,6.8,5.2c0.7,1.5,0.8,3.3,0.3,4.7c-0.3,0.8-0.8,1.5-1.4,2c0,0.1,0.1,0.2,0,0.3c-0.1,0.3-0.3,0.4-0.6,0.4
		c-0.2,0-0.4-0.1-0.6-0.1c-2.4-0.3-4.6,0.7-6.3,1.6c0,0-0.1,0-0.1,0.1c-0.9,0.5-1.8,1-2.6,1.5l-0.7,0.4c-1.5,0.9-3,1.8-4.3,2.6
		l-0.2,0.2c-1.7,1.1-3.5,2.2-5.2,3.2c-5,2.9-11.7,6.4-18.9,6.8c-0.4,0-0.9,0-1.3,0c-3,0-5.8-0.6-8.2-1.8c-1.6-0.8-2.7-1.5-3.5-2.9
		c-0.3-0.6-0.6-1-0.9-1.3c-0.6-0.8-1.3-1.2-2-1.4c-1-0.2-2.3,0.1-3.4,0.4c-0.5,0.1-1.1,0.3-1.6,0.4c-2.1,0.4-4.1,0.6-6.2,0.6
		c-1.9,0-3.8-0.2-5.6-0.6c-0.3-0.1-0.6-0.1-0.9-0.2c0,0-0.1,0-0.1,0c-0.6,1.8-1.7,2.8-3.1,3c0.9,1.6,2.8,3.3,3.9,3.9
		c0.7,0.4,1.4,0.7,2.3,1c0.7,0.2,0.7,0.2,1,0.1c0.2-0.1,0.4-0.2,0.7-0.4c0.8-0.4,1.5-0.3,1.9,0.1c0.2,0.2,0.4,0.5,0.3,1.2
		c1.2,0.2,2.4,0.3,3.5,0.4l0.3,0c1.6,0.1,3.1,0.2,4.5,0.6c2.5-7.1,1.4-7.8,1.3-7.9c-0.3-0.1-0.4-0.4-0.3-0.6
		c0.1-0.3,0.4-0.4,0.6-0.3c0.9,0.4,1.9,1.8-0.9,9.6c-0.1,0.4-0.3,0.7-0.4,1l-0.4,1.3c-0.8,2.3-1.6,4.6-2,7l0,0.2
		c-0.1,0.8-0.2,1.6-0.2,2.4c0,1,0.2,1.7,0.5,2.3c0.4,0.7,0.9,1,1.4,1c1,0,2.3-1.4,2.9-2.7c1-2.1,1.7-4.3,2.1-6.8c0,0,0-0.1,0-0.1
		c0.8-5,0.3-10.3-1.5-14.8c-0.1-0.3,0-0.5,0.3-0.6c0.3-0.1,0.5,0,0.6,0.3c1.9,4.7,2.4,10.2,1.6,15.3l0,0.1c0.5,1.6,0.9,3.1,1.8,4.4
		c0.1,0.2,0.3,0.4,0.5,0.6c0.6,0.7,1.3,1.6,0.9,2.7c-0.2,0.6-0.7,1.1-1.1,1.5c-0.5,0.5-0.9,0.9-1,1.6c-0.1,0.4-0.2,1.6,0.8,1.9
		c1.9,0.6,3.6-2,4.2-3.4c0.4-0.9,0.7-2,0.9-3.2c0,0,0,0,0,0c0-0.1,0-0.1,0-0.2c0.2-1.1,0.4-2.2,0.5-3.2l0-0.1c0-0.3,0.3-0.5,0.6-0.4
		c0.3,0,0.5,0.3,0.4,0.6l0,0.1c-0.1,0.9-0.3,1.9-0.5,2.8c5.8,0.2,11.9,0.2,17.8-0.6c2.6-0.4,5.4-1,8.3-1.8c0.6-0.2,1.3-0.4,1.9-0.6
		c2-0.6,4.1-1.2,6.3-1.5c-0.4-1.6-0.5-3.4-0.3-5.1c0-0.3,0.3-0.5,0.5-0.4c0.3,0,0.5,0.3,0.4,0.5c-0.2,1.8-0.1,3.6,0.4,5.2
		c0.2,0.8,0.5,1.5,0.8,2.1c0.9,1.7,1.1,2.2,0,4c-0.1,0.2-0.2,0.4-0.4,0.6c-0.5,0.7-1.1,1.7-1,2.4c0.1,0.2,0.2,0.4,0.4,0.5
		c0.6,0.3,1.6,0.1,2.1-0.1C73.8,71.9,74.5,69.1,75.1,66.6z M17.6,50c-1.1,0.2-1.6-1.8-0.3-2C18.5,47.8,18.8,49.8,17.6,50z"/>
	<path class="st0" d="M2.4,47.5c0.2-0.1,0.4-0.2,0.6-0.3C2.8,47.3,2.6,47.4,2.4,47.5z"/>
	<path class="st0" d="M67.9,38.3c0.6-0.3,1.1-0.7,1.7-1c-2.9-1.2-5.5-3.8-6.8-7c-0.1-0.2-0.2-0.5-0.3-0.8c-0.8-2.2-1.8-4.6-3.3-4
		c-1.2,0.4-1.6,1.9-1.3,3.2c0.3,1.5,1.3,2.5,2.3,3.5c0.1,0.1,0.3,0.3,0.4,0.4c1.3,1.3,1.4,3,1.5,4.7c0.1,1.4,0.2,2.8,1,3.8
		c1.2-0.7,2.6-1.6,3.9-2.4L67.9,38.3z"/>
	<path class="st0" d="M1.7,47.6c0,0,0,0.1,0,0.1c0,0,0.1,0,0.1,0C1.8,47.6,1.8,47.6,1.7,47.6z"/>
</g>
<g>
	<path class="st0" d="M98.9,68.9c-0.2,0-0.5-0.2-0.5-0.4c0-0.4-0.1-0.8-0.2-1.2c0-0.3,0.1-0.5,0.4-0.6c0.3,0,0.5,0.1,0.6,0.4
		c0.1,0.4,0.1,0.8,0.2,1.2C99.4,68.6,99.2,68.9,98.9,68.9C98.9,68.9,98.9,68.9,98.9,68.9z M98.4,65.8c-0.2,0-0.4-0.2-0.5-0.4
		c-0.1-0.6-0.3-1.3-0.5-1.9c-0.1-0.3,0.1-0.5,0.3-0.6c0.3-0.1,0.5,0.1,0.6,0.3c0.2,0.6,0.4,1.3,0.5,1.9c0.1,0.3-0.1,0.5-0.4,0.6
		C98.5,65.8,98.4,65.8,98.4,65.8z M97.2,62c-0.2,0-0.4-0.1-0.5-0.3c-0.3-0.6-0.5-1.2-0.9-1.7c-0.1-0.2,0-0.5,0.2-0.7
		c0.2-0.1,0.5,0,0.7,0.2c0.3,0.6,0.6,1.2,0.9,1.8c0.1,0.2,0,0.5-0.3,0.6C97.3,62,97.2,62,97.2,62z M95.2,58.6
		c-0.2,0-0.3-0.1-0.4-0.2c-0.4-0.5-0.8-1-1.2-1.5c-0.2-0.2-0.2-0.5,0-0.7c0.2-0.2,0.5-0.2,0.7,0c0.5,0.5,0.9,1,1.3,1.6
		c0.2,0.2,0.1,0.5-0.1,0.7C95.4,58.5,95.3,58.6,95.2,58.6z M92.6,55.6c-0.1,0-0.2,0-0.3-0.1c-0.5-0.4-1-0.8-1.5-1.2
		c-0.2-0.2-0.3-0.5-0.1-0.7c0.2-0.2,0.5-0.3,0.7-0.1c0.5,0.4,1.1,0.8,1.6,1.3c0.2,0.2,0.2,0.5,0,0.7C92.9,55.6,92.8,55.6,92.6,55.6z
		 M89.5,53.3c-0.1,0-0.2,0-0.3-0.1c-0.5-0.3-1.1-0.7-1.7-1c-0.2-0.1-0.3-0.4-0.2-0.7c0.1-0.2,0.4-0.3,0.7-0.2c0.6,0.3,1.2,0.7,1.8,1
		c0.2,0.1,0.3,0.4,0.2,0.7C89.8,53.2,89.6,53.3,89.5,53.3z M86,51.4c-0.1,0-0.1,0-0.2,0c-0.6-0.3-1.2-0.5-1.8-0.7
		c-0.3-0.1-0.4-0.4-0.3-0.6c0.1-0.3,0.4-0.4,0.6-0.3c0.6,0.2,1.3,0.5,1.9,0.7c0.2,0.1,0.4,0.4,0.3,0.6C86.3,51.3,86.2,51.4,86,51.4z
		"/>
</g>
</svg>
