<?xml version="1.0" encoding="utf-8"?>
<!-- Generator: Adobe Illustrator 21.1.0, SVG Export Plug-In . SVG Version: 6.00 Build 0)  -->
<svg version="1.1" id="Layer_1" xmlns="http://www.w3.org/2000/svg" xmlns:xlink="http://www.w3.org/1999/xlink" x="0px" y="0px"
	 viewBox="0 0 100 100" style="enable-background:new 0 0 100 100;" xml:space="preserve">
<style type="text/css">
	.st0{fill:#EA9A65;}
</style>
<g>
	<path d="M43.9,18c1.1,0.4,2.1,0.7,1,1.8c-0.5,0.5-1.1,0.5-1.7,0.8c-0.2,0.1-0.5,0.1-0.7-0.1c-0.1-0.1-0.3-0.3-0.4-0.5c0,0,0,0,0,0
		c-0.2-0.6-0.4-1.3-0.4-2c0.4-0.6,1.2-0.4,1.8-0.2C43.5,17.9,43.7,17.9,43.9,18z"/>
</g>
<path class="st0" d="M98.4,13.2c-0.1-0.4-0.4-0.6-0.8-0.7c-1.9-0.7-4.1,1.4-5.8,3c-0.4,0.4-0.9,0.8-1.2,1.1
	c-2.9,2.4-5.9,3.9-8.7,4.5c-2.9,0.6-5.1-0.2-7.5-1c-0.8-0.3-1.5-0.5-2.4-0.8c-3.3-1-6.1-0.5-9.6,0.7c-5.3,1.7-11.2,0.7-16-0.6
	c-0.5,1.1-1.6,2-2.8,2.2c1.4,1.6,3.5,2.6,5.2,3.1c3.3,1.1,7,2,11.5,3c0.1,0,0.2,0,0.3,0.1l0.8,0.2c0.3,0.1,0.5,0.3,0.5,0.5
	c0.2,0,0.3,0,0.4,0c0.2,0,0.4,0.1,0.5,0.1c0.1-0.1,0.4-0.2,0.6-0.2l0.8,0.2c0.2,0.1,0.4,0.2,0.5,0.5c0.1,0.2,0,0.5-0.2,0.7
	c-3.4,2.8-6.6,4.7-9.9,5.9c-0.1,0-0.2,0.1-0.4,0.1c-0.9,0.4-2.8,1-4.2,1.2c2.1,1.3,5.4,0.5,7.9-0.2c2-0.5,3.9-1.2,5.8-1.8l0.8-0.3
	c1.2-0.4,3.1-1,4.4,0c0-2.4-0.2-4.4-0.7-6.2c-0.1-0.3,0.1-0.7,0.4-0.8c0.3-0.1,0.7,0.1,0.8,0.4c0.7,2.2,0.9,4.7,0.7,7.7
	c-0.1,1.7-0.3,3.5-0.5,5.2c-0.1,0.8-0.2,1.7-0.3,2.5c-0.2,1.5-0.2,2.9-0.2,4.1c0,0.7,0,1.9,0.3,3.3c0.2,1.2,0.5,2.2,1,3
	c0.8,1.6,2,2.2,3.6,1.9c2.1-0.4,2.4-3.4,2.4-5.7c0.1-4-0.7-8-1.5-11.8l0-0.2c-0.7-3.1-1.4-6.3-2.6-9.2c-0.1-0.3,0-0.7,0.4-0.9
	c0.3-0.1,0.7,0,0.9,0.4c1.2,3,1.9,6.2,2.6,9.4l0,0.2C77.2,41.9,78,46,78,50.2c0,1.7-0.1,6.4-3.5,7c-0.3,0.1-0.6,0.1-0.9,0.1
	c-1.4,0-2.5-0.6-3.4-1.7c-0.6,3.2-4.3,5.4-6.5,6.2c-1.7,0.6-3.4,0.9-5.1,0.9c-1.8,0-3.5-0.4-5.2-1.1c-4.7-2.1-9-4.3-12.8-6.7
	c-1.5-0.9-2.7-2.2-3.9-3.4c-0.9-0.9-1.7-1.7-2.7-2.5c-2.4-1.9-5.4-2.3-8.5-2.7c-1.2-0.1-1.7-0.3-1.7-1.5c0-0.1,0-0.3,0-0.4
	c-0.1-0.6-0.1-1.3-0.3-2c-0.3-1.1-0.9-2.1-2-3.2c-2.1-2.1-5.2-3.5-8.5-3.8c-3.2-0.3-7.7,0.5-10,2.7C2,38.9,1.5,39.9,1.3,41
	c0.4-0.3,1-0.7,1.2-0.8C2.7,40,2.9,39.9,3,39.8l0.6-0.4c1-0.6,2-1.3,3.3-1.7c3.1-1,6.2,0.1,8.4,2.8c1.8,2.3,3.4,5.7,2.4,8.4
	c-0.3,0.7-0.6,1.4-0.8,2c-0.9,2-1.6,3.5-0.5,5.8c0.1,0.3,0.1,0.6-0.2,0.8c0,0,0,0.1,0,0.1c-1.4,2.6-1.9,5.4-1.4,8
	c0.1,0.6,0.3,1.2,0.5,1.9c0.6,1.9,1.2,4,0.4,6c-0.3,0.7-0.8,1.3-1.2,1.9c-0.7,0.9-1.3,1.7-1.2,2.8c0.1,0.8,0.9,2.2,1.8,2.6
	c0.4,0.2,0.7,0.1,1-0.1c0.4-0.3,0.4-1.1,0.5-1.9c0-0.7,0.1-1.5,0.4-2.1c0.8-1.5,2.4-1.9,3.8-2.1c0.6-0.1,1.1-0.2,1.6-0.4
	c1.1-0.5,2.1-1.3,2.7-2.4c1.3-2.2,1.2-5.2-0.2-7.5c-0.2-0.3-0.1-0.7,0.2-0.9c0.3-0.2,0.7-0.1,0.9,0.2c1.5,2.5,1.7,5.7,0.5,8.3
	c0,0,0.1,0,0.1,0.1C39.3,82.9,57.6,87.3,72.2,83c6.6-1.9,15.3-6.6,18.7-17.6c0.4-1.2,0.7-2.5,0.9-3.7c0.1-0.4,0.4-0.6,0.8-0.5
	c0.4,0.1,0.6,0.4,0.5,0.8c-0.2,1.2-0.5,2.3-0.8,3.5c0.1,0.1,0.1,0.2,0.1,0.4c-0.2,1-0.1,2.6,0.6,3.5c0.3,0.5,0.7,0.7,1.2,0.8
	c0.7,0.1,1.3-0.1,1.8-0.6c0.7-0.8,1-2.2,0.7-3.2c-0.1-0.5-0.5-0.9-0.8-1.4c-0.4-0.5-0.8-1-1-1.8c-0.3-1-0.2-2,0-2.9
	c0.1-0.5,0.1-0.9,0.1-1.3c0.1-3.4-1.1-6.9-2.4-10.1c-0.1-0.1-0.2-0.2-0.3-0.4c-1-4.4-3.3-8.7-6.8-12.3c-0.7-0.7-1.5-1.5-2.2-2.2
	c-2.5-2.4-5-4.8-6.4-8c-0.1-0.1-0.2-0.3-0.4-0.4c-0.2-0.3-0.2-0.7,0.1-0.9c0.1-0.1,0.3-0.1,0.4-0.1c0.3-0.1,0.7,0.1,0.8,0.4
	c0,0.1,0.1,0.2,0.1,0.3c3.2,3.1,10.3,1.3,14.1-1.1c2.4-1.5,4.3-3.8,5.5-6.3C98.5,15.8,98.8,14.1,98.4,13.2z M65.6,23.9
	c-1-0.1-1.2-1.2-0.5-1.9C66.8,20.4,67.7,24.2,65.6,23.9z"/>
</svg>
