<?xml version="1.0" encoding="utf-8"?>
<!-- Generator: Adobe Illustrator 21.1.0, SVG Export Plug-In . SVG Version: 6.00 Build 0)  -->
<svg version="1.1" id="Layer_1" xmlns="http://www.w3.org/2000/svg" xmlns:xlink="http://www.w3.org/1999/xlink" x="0px" y="0px"
	 viewBox="0 0 100 100" style="enable-background:new 0 0 100 100;" xml:space="preserve">
<style type="text/css">
	.st0{fill:#E89963;}
	.st1{fill:#211F1F;}
</style>
<path class="st0" d="M71.2,69.3c-0.9,0.8-2.1,1.2-3.2,1.2c-0.4,0-0.8-0.1-1.1-0.2c-1-0.3-1.7-1.2-2-2.3c-0.1-0.4,0.2-0.9,0.6-0.9
	c0.4-0.1,0.9,0.2,0.9,0.6c0.1,0.6,0.4,0.9,0.9,1.1c0.8,0.3,2-0.1,2.7-0.7c0.3-0.3,0.8-0.3,1.1,0.1C71.5,68.5,71.5,69,71.2,69.3z
	 M38.2,94.4c2,0.2,3.3-0.1,4-1.1c0.6-1,0.3-2.3-0.7-3c-0.6-0.4-1.4-0.4-2.3-0.4c-0.9,0-1.9,0.1-2.8-0.4c-1.7-0.7-3.5-2.5-4-4.6
	c-0.3,0-0.7,0.1-1,0.1c0,0,0,0-0.1,0c-0.4,0-0.8-0.3-0.8-0.7c0-0.4,0.3-0.8,0.7-0.9c0.6,0,1.1-0.1,1.6-0.2c2.7-0.5,5-1.7,6.9-3.5
	c-3.7-1.5-6.6-3.6-8.7-6.2c-0.7-0.9-1.3-1.8-1.8-2.8c-0.5-1-0.8-1.9-0.8-2.6c-0.1-0.9,0.3-1.4,0.5-1.7c0.4-0.4,1-0.7,1.7-0.7
	c0.4,0,1,0.1,1.6,0.2c1,0.3,2,0.5,2.9,0.6c0.6,0.1,1.2,0.2,1.7,0.3c1.5,0.2,3.1,0.3,4.7,0.3c0.5-2.3-0.9-3.7-2.7-5.5l-0.3-0.4
	c-0.3-0.3-0.3-0.8,0-1.1s0.8-0.3,1.1,0l0.3,0.4c1.9,1.9,3.6,3.7,3.2,6.7c1.5,0,3.1-0.1,5-0.3c-2.4-5-7.7-9.3-15.7-13
	c-0.2-0.1-0.3-0.2-0.4-0.4c-0.3,0.1-0.7,0-0.9-0.3c-4.1-6.2-3.3-12.9,2.1-17c4.5-3.5,10.8-5.1,16.4-4.2c6.6,1,11.7,5.4,13.1,11.1
	c1,4.3-0.6,8.2-2.3,11.9c-1.6,3.6-3,6.9-2.1,10.6c1-0.3,1.9-0.7,2.6-1.2c0,0,0,0,0,0c0.8-6.1,7.1-13,13.4-12.2
	c0.4,0,0.8,0.5,0.7,0.9c-0.1,0.4-0.5,0.8-0.9,0.7c-5.3-0.6-10.9,5.5-11.6,10.9c0,0.2-0.1,0.3-0.2,0.4c0,0.2-0.1,0.5-0.3,0.6
	c-1.1,0.8-2.5,1.4-4.1,1.8c-1.4,0.3-2.7,0.5-4.1,0.6l-0.6,0.1c-1.4,0.2-2.7,0.3-4.1,0.4c-2.7,0.3-4.8,0.4-6.7,0.4
	c-1.8,0-3.4-0.1-5-0.3c-0.1,0.7-0.3,1.4-0.4,1.7c0,0,0,0,0,0.1l0,0.1c0,0.1,0,0.1-0.1,0.2c0,0,0,0.1,0,0.1c-0.5,1.5-1.3,3.4-2.5,4
	c1.7,1.5,3.8,2.7,6.2,3.6c2.9,1.1,6.1,1.8,9.6,2.1c3.4,0.2,6.9,0.1,10.1-0.5c1.3-0.2,2.4-0.5,3.5-0.8c0.1,0,0.2,0,0.3,0
	c3.9-1.1,7.7-2.5,11.4-4c0.4-0.2,0.9,0,1.1,0.4c0.2,0.4,0,0.9-0.4,1.1c-3.9,1.7-7.9,3.1-12,4.2c-0.1,0-0.1,0-0.2,0c0,0-0.1,0-0.1,0
	c-0.8,0.2-1.6,0.4-2.5,0.6c0,0.3-0.2,0.5-0.4,0.6c-2.1,1.2-4.1,3.6-4.2,6c0.1,0.1,0.1,0.2,0.1,0.4c0,0.1,0,0.2-0.1,0.3
	c0,0.1,0,0.3,0.1,0.4c0.3,1.1,1.1,2,2.3,2.4c1.1,0.4,2.3,0.3,3.2-0.4c0.8-0.6,0.9-1.1,1.1-1.9c0.1-0.5,0.2-1,0.5-1.6
	c0.7-1.7,2.1-1.9,3.3-2.1l0.5-0.1c4.6-0.8,7.9-2.1,10.4-4.2c0.2-0.2,0.5-0.2,0.7-0.2c0-2.6,0-5.2-0.2-7.7c-0.3-3.7-1.5-6.1-3.5-7.2
	c-0.4-0.2-0.5-0.7-0.3-1.1c0.2-0.4,0.7-0.5,1.1-0.3c2.5,1.4,3.9,4.2,4.3,8.4c0.3,2.9,0.3,5.8,0.3,8.6c0,1.3,0,2.6,0,3.9v0.7
	c0,2.7,0.1,5.8,2,7.6c2,1.9,5.2,1,6.9-0.8c2.8-2.9,3.1-7.9,1-15.4c-0.5-1.6-1-3.1-1.6-4.5c-2.1-4.9-5.3-9.3-9.3-12.7
	c-0.3-0.3-0.4-0.8-0.1-1.1c0.3-0.3,0.8-0.4,1.1-0.1c3.9,3.3,7.1,7.6,9.4,12.4c4.6-2.8,6.3-8.6,7.5-13.8c1.9-8,1.4-14.8-1.6-21.4
	c-5.3-11.9-15.2-21.4-27.1-26.1c-14-5.5-30.4-5-42.6,1.4C12.5,19.1,3.9,30.4,2.3,42.9c-1.7,13.2,4,31,17.9,38.2
	c0.8,0.4,1.6,0.8,2.5,1.1c0.4,0.2,0.6,0.6,0.5,1c-0.1,0.3-0.4,0.5-0.8,0.5c-0.1,0-0.2,0-0.3,0c-0.5-0.2-1-0.4-1.5-0.7
	C24.5,89.3,31.3,93.7,38.2,94.4z"/>
<path class="st1" d="M33.5,73.5c0.2,0,0.3-0.1,0.5-0.2c0.4-0.4,1-1.4,1.5-3c0,0,0-0.1,0-0.1l0-0.2c0,0,0,0,0-0.1
	c0.2-0.7,0.3-1.2,0.4-1.5c-0.3,0-0.7-0.1-1.1-0.2c-1-0.2-2-0.4-3.1-0.7c-0.5-0.1-0.9-0.2-1.2-0.2c-0.3,0-0.5,0.1-0.6,0.2
	c-0.1,0.1-0.1,0.3-0.1,0.5c0,0.3,0.1,0.9,0.6,1.9c0.4,0.9,1,1.7,1.6,2.5c0.2,0.2,0.4,0.5,0.6,0.7C33.1,73.3,33.3,73.3,33.5,73.5
	C33.5,73.5,33.5,73.5,33.5,73.5z"/>
</svg>
