<?xml version="1.0" encoding="utf-8"?>
<!-- Generator: Adobe Illustrator 21.1.0, SVG Export Plug-In . SVG Version: 6.00 Build 0)  -->
<svg version="1.1" id="Layer_1" xmlns="http://www.w3.org/2000/svg" xmlns:xlink="http://www.w3.org/1999/xlink" x="0px" y="0px"
	 viewBox="0 0 100 100" style="enable-background:new 0 0 100 100;" xml:space="preserve">
<style type="text/css">
	.st0{fill:#94D4EB;}
	.st1{fill:#E89963;}
</style>
<path class="st0" d="M89.1,80.6c-1.8,0.3-3.9,0.4-6,0.4c-2,0-4.1-0.1-6.3-0.4l-0.1,0c-2.2-0.3-5.8-0.6-7.7-2.5
	c-0.8,2.3-1.5,4.5-2,6.6c0,0.2-0.1,0.3-0.1,0.5c-0.3,1.2-0.4,1.9,0.1,2.5c1.5,1.5,5,1.9,7.4,2.1c0.3,0,0.6,0.1,0.9,0.1
	c4.2,0.4,8.5,0.5,12.9,0.1l0.4,0c3.2-0.3,6.9-0.6,9.5-2.1c1-0.6,1.3-1,1.2-1.9c-0.2-2.7-1.1-5.7-2-8.5c0-0.1,0-0.1,0-0.2
	C95.2,79.5,89.2,80.6,89.1,80.6z"/>
<path class="st1" d="M79.3,66.5c0.8,0.7,0.6,2.2-0.6,2.2c-0.1,0-0.3,0-0.4,0C76.3,68.1,77.7,65.1,79.3,66.5z M69.3,75.2
	c1-1.1,3.2-1.9,4.7-1.5c-0.1-0.2-0.2-0.4-0.4-0.6c-0.2-0.3-0.1-0.7,0.3-0.8c0.3-0.2,0.7-0.1,0.8,0.3c0.3,0.5,0.6,1,0.9,1.4
	c0.1,0.1,0.2,0.3,0.3,0.4c1.1,1.5,2.4,2.7,3.8,3.8c0,0,0,0,0.1,0c0,0,0.1,0.1,0.1,0.1l0.1,0.1c0.6,0.4,1.3,0.8,1.9,1.2
	c0.1,0.1,0.2,0.2,0.3,0.3c2.4,0,4.7-0.1,6.7-0.4c0.6-0.1,1.5-0.3,2.3-0.5c-0.2-0.5-0.5-1.1-0.7-1.7c-1.5-3.8-2.6-7.7-3.2-11.8
	c-0.1-0.6-0.2-1.3-0.3-2c-0.5-3-1.3-6.2-3.4-8.3c-2-1.9-5.3-2-9.7-0.3c0,0-0.1,0-0.1,0C73.5,55,73.2,55,73,54.9
	c-6.8-3.6-12.5-8-17.5-13.3c-0.9-1-1.8-1.9-2.7-2.9C45.8,31,38.5,23.1,27.7,22c-1.7-0.2-3.3-0.2-4.8-0.1c-0.7,0-1.5,0.1-2.2,0.2
	c-0.1,0-0.2,0-0.3,0.1c-0.3,0.1-0.6,0.1-0.9,0.1c-0.2,0-0.3,0-0.3,0c-0.2,0.1-0.5,0.1-0.8-0.2c-0.1-0.1-0.1-0.2-0.4-0.3
	c-0.6-0.5-1-1.2-1.4-1.9c-0.3-0.5-0.6-1-0.9-1.3c-0.8-0.9-1.6-1.6-2.5-2.2c-1.3-0.9-2.8-1.3-4.4-1.7c-0.9-0.2-1.8-0.5-2.7-0.8
	c-2.3-0.8-4.2-2.1-5.6-3.7c0.1,2,1.1,4,2.9,5.3c1,0.8,2.2,1.2,3.5,1.7c1.2,0.4,2.4,0.9,3.6,1.6c1.8,1.2,3.6,3.4,3.1,5.9
	c-0.2,1-0.8,1.9-1.4,2.7c-0.4,0.5-0.8,1-1,1.5c-0.5,1-0.8,2.1-1.1,3.5c-0.9,5-0.2,10.3,1.9,15.1c1.1,2.4,2.5,4.4,4.1,6.1
	c1,1,3.9,3.9,6.4,3.4c0.9-0.2,1.7-0.9,1.6-2c-0.1-0.6-0.5-0.9-1.2-1.4l-0.3-0.2c-2.3-1.6-2.1-3.5-1.8-5.5c0.1-0.5,0.1-1,0.1-1.5
	c-1.4-1.3-2.7-2.5-3.7-3.8c-0.2-0.3-0.2-0.7,0.1-0.9c0.3-0.2,0.7-0.2,0.9,0.1c1.1,1.3,2.4,2.6,3.9,3.9c2.3,2,5.1,4,8.6,6.1
	c1.2,0.7,2.4,1.4,3.6,2.1c1.4,0.8,2.8,1.5,4.1,2.3l0.3,0.2c5.5,3,11.6,5.9,19.1,9.1c2,0.8,3.9,1.6,5.9,2.4c0.2,0.1,0.3,0.2,0.4,0.4
	l0.4-0.7c1.7-2.6,3.2-5.2,2.9-7.9c0-0.3,0.2-0.7,0.6-0.7c0.3,0,0.7,0.2,0.7,0.6c0.3,3.1-1.3,5.9-3.1,8.7l-0.6,0.9
	c-1.2,1.8-2.5,3.4-3.7,4.7c-0.4,0.4-0.8,0.8-1.3,1.4c-0.3,0.3-0.8,0.7-1.2,1.1c-2.4,2.2-5.6,5.2-4.5,8c0.7,1.7,2.8,2.8,4.7,2.2
	c2.2-0.6,3.9-2.7,5-4.3c1.3-1.9,2.5-4,3.7-6.6c1.4-3.2,2.5-6.5,3.6-9.7l0.5-1.4c0.1-0.3,0.5-0.5,0.8-0.4c0.3,0.1,0.5,0.5,0.4,0.8
	l-0.5,1.4c-1,3.1-2.1,6.2-3.4,9.3c0,0,0,0,0.1,0C69,75.6,69.1,75.4,69.3,75.2z"/>
<path class="st1" d="M94.9,73.1c-0.7-0.7-1.4-1.3-2-1.9c-1.4-1.3-2.8-2.6-3.9-4.1c0.4,2,0.9,4,1.5,5.9
	C92.2,72.8,93.7,72.9,94.9,73.1z"/>
<path class="st1" d="M63.2,69c-1.6-0.6-3.1-1.3-4.6-1.9c0.6,1.8,1.4,3.6,2.3,5.3c0.9-1,1.7-2.1,2.6-3.4c0,0,0,0-0.1,0
	C63.3,69.1,63.3,69,63.2,69z"/>
</svg>
