<?xml version="1.0" encoding="utf-8"?>
<!-- Generator: Adobe Illustrator 21.1.0, SVG Export Plug-In . SVG Version: 6.00 Build 0)  -->
<svg version="1.1" id="Layer_1" xmlns="http://www.w3.org/2000/svg" xmlns:xlink="http://www.w3.org/1999/xlink" x="0px" y="0px"
	 viewBox="0 0 100 100" style="enable-background:new 0 0 100 100;" xml:space="preserve">
<style type="text/css">
	.st0{fill:#EA9A65;}
</style>
<g>
	<path class="st0" d="M93.8,81.1c-0.4-1.6-0.9-3-1.5-4.3c-0.6-1.2-1.8-3.7-3.1-4.6c-0.3,0.3-0.6,0.6-1,0.9
		C90.4,74.7,92.3,78.2,93.8,81.1z"/>
	<path class="st0" d="M97.8,65.3c0.5-0.4,1.3-1.5,1.2-2.2c0-0.2-0.1-0.3-0.3-0.4c-0.5-0.2-1.5,0.5-2.1,0.9c-0.2,0.1-0.3,0.2-0.4,0.3
		c-0.1,0.1-0.3,0.1-0.4,0.1c-0.1,0-0.2-0.1-0.3-0.2c-0.4-0.8-0.7-1.6-1-2.5c-0.7-1.9-1.3-3.7-2.9-4.8c-1.3-0.9-3.1-1.2-4.4-0.7
		c-1,0.4-1.2,1.2-1.4,2.5c0.7,0.7,1.5,1.5,2.3,2.4c0.2,0.2,0.2,0.5,0,0.7c-0.1,0.1-0.2,0.1-0.3,0.1c-0.1,0-0.3-0.1-0.3-0.1
		c-0.9-1-1.7-1.8-2.5-2.6c-3.7-3.8-7.8-7.5-12-10.9c-4.4-3.5-9.6-7.4-15.6-8.6c-0.1,0-0.2-0.1-0.3-0.2c-0.1,0-0.3-0.2-0.3-0.3
		c-0.4-1.5-0.5-3.7,0.9-5c0.2-0.2,0.5-0.4,0.7-0.5c0.5-0.3,0.7-0.4,0.7-0.8c0.1-0.5-0.2-0.9-0.6-1.1c-1.4-0.9-3.1,0.7-3.9,1.8
		c-1.2,1.7-1.6,3.7-1.2,5.5c0,0,0,0,0,0.1c0,0,0,0.1,0,0.1l-0.3,0.1c0,0.2-0.2,0.4-0.5,0.4c0,0,0,0-0.1,0c-0.9-0.1-1.7-0.4-2.5-0.7
		c0,0,0,0-0.1,0c-0.3,0.3-0.7,0.6-1,0.8c-0.2,0.1-0.4,0.3-0.6,0.4c-0.5,0.4-0.7,0.9-0.6,1.6c0.2,1.7,2,3.7,3.1,4.2
		c0.2,0.1,0.3,0.4,0.2,0.6c-0.1,0.2-0.4,0.3-0.6,0.2c-1.4-0.7-3.5-2.9-3.7-5c-0.1-1,0.2-1.8,1-2.4c0.2-0.2,0.4-0.3,0.7-0.5
		c0.4-0.3,0.7-0.5,1-0.8c0.3-0.3,0.4-0.7,0.3-1.1c-0.1-1.1-1.4-1.8-2.5-1.8c-2.3,0.2-3.2,3.2-3.4,4.1c-0.1,0.2-0.1,0.5-0.1,0.7
		c-0.5,2.9,0.4,6.1,2.3,8.4c0.2,0.2,0.1,0.5-0.1,0.7c-0.1,0.1-0.2,0.1-0.3,0.1c-0.1,0-0.3-0.1-0.4-0.2c-2.1-2.5-3.1-6-2.5-9.2
		c0-0.1,0-0.1,0-0.2l-0.5,0.1c-1,0.2-2,0.5-3,0.6c-0.1,0-0.3,0-0.4,0.1c-1,0.2-2.6,0.5-3.4,0c-1.3-0.8-0.6-2.2-0.2-3.2
		c0.1-0.2,0.2-0.4,0.3-0.6c1.5-4.3,0.3-9.7-2.9-13.2c-0.8-0.9-1.7-1.4-2.2-1.3c-0.4,0.1-0.6,0.6-0.7,1.1c-0.3,1.1-0.4,2.3-0.5,3.5
		c-0.1,1.3-0.2,2.6-0.6,3.9c-0.7,2.6-1.6,5-2.9,7.1c-0.2,0.3-0.4,0.6-0.5,0.9c-0.3,0.4-0.5,0.8-0.7,1.2c-0.6,1-0.9,1.8-1,2.5
		c-0.1,0.5-0.1,1,0.1,1.5c0.1,0.3-0.1,0.5-0.4,0.6c0,0-0.1,0-0.1,0c0,0.1-0.1,0.2-0.2,0.2c-4.2,2.7-8.9,2.3-13.4,1.9l-1.1-0.1
		C6.2,46,4.4,46.5,3,47.8c-0.8,0.8-1.3,1.8-1.2,2.6c0.1,0.5,0.4,1,1,1.3c2.1,1.2,4.7,0.1,7.2-1c1.5-0.7,3-1.3,4.4-1.4
		c0.8-0.1,1.7-0.1,2.7-0.1c2.9,0,5.8,0,7.5-2.4c0,0,0-0.1,0.1-0.1c0.2-0.2,0.5-0.3,0.7-0.1c0.1,0.1,0.1,0.2,0.2,0.2
		c2.5,3.1,6.2,4.9,11.5,5.3c0.9,0.1,1.8,0.1,2.7,0.1c1.6,0.1,3.3,0.1,5,0.4c2.2,0.3,4.5,0.9,7.2,1.6c7.5,2.2,17.8,6.6,24.6,15.2
		c0.1,0.1,0.1,0.2,0.1,0.3c0.1,0.1,0.1,0.2,0.1,0.3c0,0.2-0.2,0.4-0.4,0.5c0,0,0,0,0,0c-3.6,0.7-7.9,2.3-7.5,5.8
		c0.5,3.7,5.8,5.3,9.4,5.3c0.2,0,0.3,0.1,0.4,0.2c0.1,0.1,0.1,0.3,0.1,0.4c-0.5,1.3-0.2,3.2,1,3.9c0.5,0.3,0.8,0.3,1,0.2
		C81,86,81.1,84.8,81,84c0-0.2-0.1-0.4-0.1-0.6c-0.2-0.9-0.3-1.7-0.1-2.7c0.1-0.3,0.1-0.5,0.2-0.7c0.2-0.5,0.3-0.8,0-1.1
		c-0.2-0.2-0.6-0.4-1-0.7c-0.8-0.4-1.9-1-1.7-2.1c0.2-1.4,2.1-1.7,3.2-1.9c0.1,0,0.2,0,0.3,0l0.6-0.1c1.3-0.2,2.7-0.4,4-1
		c0.3-0.1,0.5-0.2,0.7-0.4c0.6-0.4,1.2-0.8,1.6-1.4c1-1.2,1.4-3,1.2-5.3c0,0,0-0.1,0-0.1c0-0.2,0.1-0.3,0.2-0.4
		c0.2-0.7,0.8-1.2,1.6-1.3c0.8-0.1,1.4,0.4,1.8,0.8c0.1,0.1,0.2,0.2,0.4,0.3C95.1,66.5,96.5,66.4,97.8,65.3z M28,39.8
		c-1.2-0.1-1-1.8,0-1.9C29.2,37.8,29.3,39.8,28,39.8z M33.9,34c-0.4,0.6-1,1-1.7,1c-0.2,0-0.4,0-0.6-0.1c-0.2-0.1-0.4-0.3-0.3-0.6
		c0.1-0.2,0.3-0.4,0.6-0.3c0.6,0.2,1-0.1,1.3-0.5c0.2-0.3,0.3-0.9,0-1.3c-0.2-0.2-0.2-0.5,0-0.7c0.2-0.2,0.5-0.2,0.7,0
		C34.4,32.2,34.4,33.2,33.9,34z"/>
	<path class="st0" d="M23.6,39.4c-0.9-2.1-2.6-3.3-5.2-4l-0.3-0.1c-1.8-0.5-4.1-1.1-5.7-0.1c-0.7,0.4-1.3,1.4-0.9,2.3
		c0.4,1.1,1.7,1.2,3.1,1.3c2.7,0.1,5.8,0.5,8.3,2.5C23,40.8,23.2,40.2,23.6,39.4C23.6,39.5,23.6,39.5,23.6,39.4z"/>
</g>
</svg>
