<?xml version="1.0" encoding="utf-8"?>
<!-- Generator: Adobe Illustrator 21.1.0, SVG Export Plug-In . SVG Version: 6.00 Build 0)  -->
<svg version="1.1" id="Layer_1" xmlns="http://www.w3.org/2000/svg" xmlns:xlink="http://www.w3.org/1999/xlink" x="0px" y="0px"
	 viewBox="0 0 100 100" style="enable-background:new 0 0 100 100;" xml:space="preserve">
<style type="text/css">
	.st0{fill:#E89963;}
	.st1{fill:#211F1F;}
</style>
<path class="st0" d="M53.5,21.6c-1.6-0.1-1.4-2.7,0.2-2.5C55.3,19.3,55.1,21.8,53.5,21.6z M46,21.4c-1.6-0.1-1.4-2.6,0.2-2.5
	C47.8,19,47.6,21.5,46,21.4z M72.5,22.3c-0.3-1.8-1.3-5.1-2.8-6.2c0,0-0.1-0.1-0.1-0.1c-0.1-0.1-0.2-0.2-0.3-0.4
	c-1.4,0.4-2.8,0.7-4.3,0.7c-2.2,0-4.3-0.6-5.9-2.2c-0.2-0.2-0.2-0.6,0-0.8s0.6-0.2,0.8,0c2.4,2.5,6.7,2.1,9.6,1
	c0.8-0.3,1.6-0.7,2.2-1.1c3.2-2,5.4-6.4,3.3-10c-0.6-1.1-1.5-1.8-2.3-2c-0.6-0.1-1.2,0-1.7,0.4c-0.9,0.7-1.7,1.7-2.4,2.8
	c-0.3,0.5-0.7,0.9-1,1.4c-0.6,0.7-1.3,1.6-2.2,2.5c-2.8,2.7-5.4,3.3-7.7,1.8c-0.3-0.2-0.4-0.5-0.2-0.8c0.2-0.3,0.5-0.4,0.8-0.2
	C60,10,61.9,9.7,64,7.8c-0.3-0.2-0.5-0.4-0.8-0.6c-1.7-1.3-3.1-2.4-5.3-2.8c-2.2-0.4-4.6-0.3-6.8,0.2c-3.5,0.8-6.3,2.9-7.8,5.9
	c-0.3,0.5-0.5,1-0.6,1.6c-0.1,0.3-0.3,0.4-0.6,0.4c-0.1,0-0.1,0-0.2,0c-0.3-0.1-0.5-0.4-0.4-0.7c0.1-0.4,0.2-0.7,0.4-1.1
	c-1.1,0.1-2.5,1-3.5,1.8c-0.4,0.3-0.7,0.5-1,0.7c-2.3,1.4-4.1,2.9-5.7,4.8c-3.5,4.1-6.7,8.8-4.5,12.8c0.9,1.6,2.9,3.1,4.7,2.8
	c1.4-0.2,2.1-1.8,2.6-3.3c0.2-0.7,0.5-1.4,0.7-2.1c1.3-4,2.5-7.7,5.7-10.7c-0.1-0.9,0-1.7,0.3-2.5c0.1-0.3,0.4-0.4,0.7-0.4
	c0.3,0.1,0.5,0.4,0.4,0.7c-0.4,2.1,0.3,3.8,1,5.6c0.1,0.2,0.1,0.4,0.2,0.5c0,0.1,0.1,0.1,0.1,0.2c0,0,0,0,0,0v0l0,0c0,0,0,0.1,0,0.1
	c0.3,0.7,0.5,1.3,0.6,2c0,0,0,0,0,0l0,0c0,0,0,0,0,0c0,0,0,0,0,0c0.2,1,0.3,2.1,0.4,3.2c0,0.6,0,1.3,0,2c0,2.3,0,4.7,0.8,6.7
	c0.7-0.6,1.8-0.7,2.4-0.6c1.2,0.2,2.2,1.1,2.3,2.2c0,0.1,0,0.2,0,0.3c1.9-1.3,2.6-4.2,3.2-7.3c0.5-2.6,1.2-4.5,3-6.4
	c1.3-1.3,2.8-3.6,2.5-5.6c0-0.3,0.2-0.6,0.4-0.6c0.3-0.1,0.6,0.1,0.7,0.4c0.9,2.3-1.3,5.3-2.8,6.8c-1.8,1.8-2.2,3.6-2.8,6.2
	c-0.4,2.2-1.7,8.6-6.2,8.6c-0.3,0-0.6,0-0.9-0.1c-0.5-0.1-0.9-0.3-1.3-0.5c-1,1-1.8,2.2-2.5,3.4c-0.5,0.8-1,1.5-1.5,2.3
	c-1.7,2.3-3.2,4.5-4.4,7c-3.1,6.3-4,11.8-2.7,16.4c0.1,0.3-0.1,0.6-0.4,0.7c-1.9,3.2-1,7.1-0.3,9.2c0.1,0.3,0.3,0.7,0.5,1.1
	c0.5,1,1.1,2.1,0.7,3.3c-0.2,0.6-0.5,1-0.8,1.5c-0.6,0.9-0.9,1.4-0.5,2.1c0.4,0.7,1,1.1,1.8,1c1.2-0.1,2.6-1.3,3-2.5
	c0.4-1.1,0.2-2.3,0-3.5C39.1,80.5,39,80,39,79.4c-0.1-1.3,0.3-2.3,0.8-3.4c0-0.1,0.1-0.2,0.1-0.3c-0.6-0.3-1.2-0.7-1.8-1.1
	c-0.3-0.2-0.3-0.6-0.1-0.8s0.6-0.3,0.8-0.1c0.6,0.4,1.2,0.8,1.8,1.1c0.1,0,0.2,0,0.3,0c0.1,0,0.2,0.1,0.2,0.2c0.5,0.2,1,0.4,1.5,0.6
	c0.1,0,0.1,0.1,0.2,0.1c0.2,0,0.4,0.2,0.5,0.5c0.2,1.3,0.3,2.5,0.3,3.7c0.1,2,0.2,3.9,0.9,5.9c1,2.6,2.4,5.2,4.3,7.7
	c1.6,2.1,3.5,4.3,5.8,5.3c1.5,0.7,2.4,0.7,2.6,0.6c0.1-0.1,0.1-0.1,0.1-0.2c0-0.2-0.2-0.6-0.7-1.1c-0.5-0.5-1.1-1-1.6-1.6
	c-1.5-1.4-3-2.8-4.3-4.6c-1.6-2.2-2.8-4.7-3.7-7.6L46.9,84c-0.7-2.4-1.9-6.3,0-8.1c0.6-0.6,1.5-0.7,2.3-0.9c0.3-0.1,0.5-0.1,0.8-0.2
	c0.4-0.1,0.8-0.3,1.2-0.4c0.8-0.3,1.6-0.7,2.5-1.3c0.3-0.2,0.6-0.1,0.8,0.2c0.2,0.3,0.1,0.6-0.2,0.8c-0.7,0.4-1.3,0.7-1.9,1
	c2,1.6,1.9,4.3,1.7,6.6c0,0.6-0.1,1.2-0.1,1.7c0,1.4,0.9,3.6,2.1,4.4c0.6,0.4,1.2,0.5,1.8,0.2c1.4-0.6,1.6-2.6,1.2-3.8
	c-0.1-0.4-0.4-0.8-0.6-1.2c-0.3-0.4-0.5-0.8-0.7-1.3c-0.4-1,0-2,0.3-2.9l0-0.1c0.2-0.7,0.5-1.5,0.9-2.2c1.1-2.7,2.3-5.4,0.5-7.7
	c0-0.1-0.1-0.1-0.1-0.2c-0.1-0.2-0.1-0.5,0.1-0.7c2.1-2.5,3.6-5.1,4.3-7.8c0.6-2.1,0.8-4.2,1.1-6.3c0.2-1.4,0.3-2.8,0.6-4.2
	c0.7-3.6,2.1-7,3.4-10.3c0.5-1.1,0.9-2.3,1.4-3.5c-0.1-0.3,0-0.6,0.2-0.7c0,0,0,0,0.1,0c0.5-1.5,1-2.8,1.3-4.1
	c0.1-0.3,0.4-0.5,0.7-0.4c0.3,0.1,0.5,0.4,0.4,0.7c-0.4,1.4-0.8,2.9-1.4,4.5c0.5,1.2,0.3,2.6,0,3.9c-0.1,0.5-0.2,1-0.3,1.4
	c-0.1,1.5-0.1,3.3,1.2,4.4c0.9,0.8,1.8,0.5,2.3,0.2c1.2-0.7,2-2.4,1.7-3.7c-0.1-0.6-0.4-0.9-0.8-1.3c-0.5-0.6-1.1-1.3-1-2.6
	c0-0.8,0.1-1.6,0.3-2.4c0.2-1.3,0.3-2.5,0.3-3.8c-0.2-2.9-0.4-6.8-2.5-9.2C72.8,22.7,72.6,22.6,72.5,22.3z"/>
<path class="st1" d="M46.6,37.8C46.6,37.8,46.6,37.8,46.6,37.8c0.4,0.3,0.7,0.5,1.2,0.6c0.2,0,0.3,0,0.5,0.1c0,0,0.1-0.1,0.2-0.1
	c0.3-0.1,0.9-0.4,0.8-0.9c-0.1-0.5-0.6-1-1.3-1.1c-0.6-0.1-1.4,0.1-1.6,0.4c0,0-0.1,0.1,0.1,0.4c0,0.1,0.1,0.1,0.1,0.2
	C46.6,37.4,46.6,37.6,46.6,37.8z"/>
</svg>
