<?xml version="1.0" encoding="utf-8"?>
<!-- Generator: Adobe Illustrator 21.1.0, SVG Export Plug-In . SVG Version: 6.00 Build 0)  -->
<svg version="1.1" id="Layer_1" xmlns="http://www.w3.org/2000/svg" xmlns:xlink="http://www.w3.org/1999/xlink" x="0px" y="0px"
	 viewBox="0 0 100 100" style="enable-background:new 0 0 100 100;" xml:space="preserve">
<style type="text/css">
	.st0{fill:#E89963;}
	.st1{fill:#211F1F;}
</style>
<path class="st0" d="M79.4,45.7c0.7,0.6,0.4,2.1-0.7,1.8h0.1c-0.4,0-0.7-0.2-0.9-0.5C77.3,46,78.5,45,79.4,45.7z M32.3,48.3
	c4.9-3.1,10.5-3.8,15.6-1.9c4.2,1.6,8.1,4.1,10.9,6.2c3.7,2.6,6,5.2,7.2,8.2c0.1,0.1,0.2,0.2,0.2,0.3c0,0,0,0.1,0,0.1
	c0,0.1,0,0.3,0,0.4c0,3-1.2,6-3.4,8.1c-0.4,0.3-0.9,0.7-1.5,1c-1.7,1.1-2.9,1.9-2.3,3c0.2,0.5,0.6,0.8,1.2,1c1.1,0.3,2.5,0,3.3-0.5
	c2.2-1.2,4.2-3.7,5.3-6.3c0.1-0.1,0.1-0.4,0.2-0.7c0.1-0.7,0.3-1.4,0.6-1.7c0.4-0.3,1-0.2,1.5-0.1c0.2,0,0.3,0.1,0.4,0.1
	c0.7,0,1.4-0.1,2.1-0.2c1.1-0.3,2.2-0.8,3.1-1.6c0.2-0.1,0.4-0.4,0.6-0.6c0.3-0.3,0.6-0.7,0.9-0.9c0,0,0,0,0,0
	c0.4-0.8,0.6-1.4,0.8-2.1c0.1-0.3,0.2-0.6,0.3-0.9l0,0c0,0,0,0,0-0.1l0-0.1c0,0,0-0.1,0-0.1c0,0,0,0,0,0c0.4-0.9,0.5-2,0.3-3
	c0,0,0-0.1,0-0.1c-2.4-0.1-4.2-0.6-5.4-1.6c-0.2-0.2-0.3-0.5-0.1-0.7c0.2-0.2,0.5-0.3,0.7-0.1c1.1,0.9,2.8,1.3,5.2,1.3
	c0.3,0,0.7,0,1,0c0-0.8,0.2-2,0.6-2.3c1.5-1.3,3.4,0.5,4.3,1.4l0.2,0.2c0,0,0.1,0.1,0.1,0.1c1.8-0.4,3.5-0.9,5.2-1.7
	c3.2-1.5,5.3-3,6.6-4.7c0.2-0.3,0.4-0.6,0.5-1c0,0-0.1,0-0.1,0c-1-0.3-2.4-1.7-2.8-2.7c-0.5,0.1-0.9,0.3-1.4,0.4
	c-0.8,0.3-1.7,0.6-2.5,0.7c-1,0.2-2.2,0.4-3.4,0.4c-1.2,0-2.3-0.2-3.4-0.7c-1-0.5-1.6-1.2-2.1-1.9c-0.2-0.2-0.3-0.4-0.5-0.7
	c-0.8-0.9-1.7-1.5-3-1.8c-0.1,0-0.2-0.1-0.3-0.1c-0.7-0.2-1.5-0.3-2.3-0.4c-1.9-0.1-3.8,0.2-5.6,0.9c-0.3,0.1-0.6,0-0.7-0.3
	c0,0,0,0,0,0c-0.1,0-0.2-0.1-0.3-0.2c-2.1-2.9-5.3-7-9.7-9.1c-2.4-1.2-5.8-1.9-7.8-0.3c-0.4,0.3-0.7,0.7-1,1.1
	c-0.5,0.7-0.6,1.5-0.3,2.2c0.2,0.7,0.8,1.3,1.6,1.6c1.1,0.5,2.4,0.4,3.7,0.3c0.6,0,1.3-0.1,2,0c2.9,0.1,8.1,1,10.6,5.3
	c0,0.1,0,0.1,0.1,0.2c0.1,0.2,0.1,0.5,0,0.6c-0.8,0.8-1.3,1.9-1.4,2.9c0,0.3-0.3,0.4-0.5,0.4c0,0-0.1,0-0.1,0
	c-0.3,0-0.5-0.3-0.4-0.6c0.2-1.2,0.7-2.3,1.5-3.2c-2.3-3.8-7-4.5-9.6-4.7c-0.6,0-1.2,0-1.9,0c-1.4,0.1-2.8,0.1-4.2-0.4
	c-1.1-0.4-1.9-1.2-2.2-2.2c-0.3-1-0.2-2.1,0.4-3.1c0.2-0.3,0.3-0.5,0.5-0.7c-8.8-1.7-18.2,0.9-28.8,7.9c-0.8,0.5-1.5,1-2.3,1.5
	c-3,2-6.2,4.1-9.5,5.8c-2.9,1.5-6.2,2.8-9.3,2.2c0.6,0.6,1.4,0.9,2.4,1.1c3.4,0.6,8.1-1,10.2-2.9c0.1-0.1,0.3-0.2,0.5-0.1
	c0.2,0.1,0.3,0.2,0.3,0.4c0.3,3.1,1.9,6.3,4.1,8.3c0.5,0.5,1.1,0.8,1.7,1.2c0.7,0.4,1.4,0.9,2,1.5c1.5,1.5,1.6,3.2,1.8,5.1l0,0.1
	c0.3,2.5,1.2,2.8,1.9,2.7c0.6,0,0.9-0.3,1.1-0.6c0.3-0.4,0.4-1.1,0.2-1.7c-0.1-0.2-0.2-0.4-0.2-0.6c-0.2-0.5-0.4-0.9-0.2-1.8
	c0.1-0.4,0.2-0.7,0.3-1.1c0.2-0.6,0.4-1.2,0.4-1.8c0.1-0.9,0-1.7-0.1-2.5c-0.1-1-0.4-1.9-0.8-2.7c-0.1-0.1-0.1-0.2-0.2-0.4
	c-0.1-0.3,0-0.6,0.2-0.7c0.2-0.1,0.4-0.1,0.5,0.1C29.3,50.5,30.8,49.3,32.3,48.3z"/>
<path class="st1" d="M98.3,45.5c0.3,0.2,0.5,0.2,0.6,0.2c0.1-0.5,0.2-1.5-0.4-1.9c0,0,0,0,0,0c0,0,0,0,0,0c0,0,0,0,0,0
	c0,0-0.1,0-0.1,0c-0.2-0.1-0.4-0.1-0.7-0.1c-0.3,0-0.6,0.1-0.8,0.1C96.9,44.1,97.6,45,98.3,45.5z"/>
<path class="st0" d="M84.6,34.7c1-0.4,1.9-0.8,2.7-1.3c1.3-0.8,2.7-2.3,2.6-3.7c-0.1-1.2-1.5-2-2.8-2.2c-2.6-0.3-4.7,2.4-6.1,4.5
	c-1.4,2.2-2.6,4.6-3.4,7c0.5,0.1,0.9,0.1,1.4,0.2C79.8,36.7,82.3,35.6,84.6,34.7z"/>
<path class="st0" d="M79.4,61.8c0,0,0.1,0.1,0.1,0.1c0.1,0.1,0.2,0.1,0.3,0.2c0.2,0.1,0.3,0.2,0.5,0.3c1.6,1.1,3.7,2.5,3.9,4.6
	c0,0.3,0,0.8-0.1,1.3c-0.1,0.8-0.3,2,0.1,2.4c0.2,0.2,0.6,0.2,0.9,0.1c0.7-0.1,1.3-0.6,1.7-1.3c0.7-1.4,0.5-3.4,0-4.7
	c-1.2-2.5-3.8-3.8-6.6-5.1c0,0.1-0.1,0.3-0.1,0.4C79.8,60.8,79.6,61.3,79.4,61.8z"/>
<path class="st0" d="M36.5,55.8c0.2,0.2,0.5,0.4,0.7,0.7c0.6,0.6,1.1,1.2,2,1.3c0.9,0.1,2.2-0.2,2.5-1.1c0.2-0.4,0.2-0.7,0-0.9
	c-0.2-0.3-0.6-0.5-1.1-0.6l-0.3,0c-1.2-0.1-1.7-0.2-2.3-1.7c-1-2.5-3-4-5.4-4.1c0,0-0.1,0-0.1,0c-1.5,1-2.9,2.2-4.1,3.5
	c0.2,0.6,0.4,1.3,0.6,1.9C31.7,53.7,34.6,54.1,36.5,55.8z"/>
</svg>
