<?xml version="1.0" encoding="utf-8"?>
<!-- Generator: Adobe Illustrator 21.1.0, SVG Export Plug-In . SVG Version: 6.00 Build 0)  -->
<svg version="1.1" id="Layer_1" xmlns="http://www.w3.org/2000/svg" xmlns:xlink="http://www.w3.org/1999/xlink" x="0px" y="0px"
	 viewBox="0 0 100 100" style="enable-background:new 0 0 100 100;" xml:space="preserve">
<style type="text/css">
	.st0{fill:#E89963;}
	.st1{fill:#211F1F;}
</style>
<path class="st0" d="M78.3,27.3c0.2,0.4,0.4,0.9,0.6,1.4c0.1-0.1,0.3-0.1,0.5-0.1c7.6,2.8,13.3,2.7,16.8-0.3
	c1.5-1.2,2.5-3.2,2.6-5.1c0.1-1-0.1-2.5-1.2-3.8c-1.9-2.1-4.5-1-7.6,0.8c-0.4,0.2-0.7,0.4-1,0.6c-0.3,0.2-0.7,0.4-1.1,0.6
	c-3.3,1.8-7.2,3.9-10.9,3.3c0.5,0.7,0.9,1.3,1.3,2C78.5,26.9,78.4,27.1,78.3,27.3z"/>
<path class="st0" d="M77.4,35.9c1.2,0.6,0.7,2.7-0.7,2.3C75.1,37.9,75.6,35,77.4,35.9z M68.6,39.7c-0.9-1.3,0.5-3,1.8-1.9
	C71.8,39.1,69.6,41.1,68.6,39.7z M62,18.2C50,16.7,37.1,21.1,27.5,30c-9.2,8.4-14.7,20.9-14.7,33.5c0.3-0.1,0.5-0.1,0.8-0.2
	c0.3-0.1,0.6,0.1,0.7,0.3s-0.1,0.6-0.3,0.7c-0.6,0.2-1.1,0.3-1.6,0.4c-4.8,0.5-8.1-4.3-10.6-7.8c-0.1-0.1-0.1-0.2-0.2-0.3
	c-0.3,0.3-0.4,0.7-0.5,1.2c-0.2,2.6,2.5,6.7,3.9,8.1c1.9,1.9,4.6,3.1,7.4,3.4c1.5,0.1,3,0,4.4-0.4c0.3-0.1,0.6,0.1,0.7,0.4
	c0.1,0.3-0.1,0.6-0.4,0.7c-1.1,0.3-2.3,0.5-3.5,0.5c-0.3,0-0.5,0-0.8,0c0,0.1,0.1,0.2,0.1,0.3c-0.1,3,0.7,5.8,2.6,8.9
	c0.8,1.3,1.3,2.3,1,3.9c0,0.2-0.1,0.3-0.1,0.4c-0.2,0.8-0.2,1,0.3,1.4c0.4,0.3,1.3,0.3,1.9,0.1c0.6-0.2,0.9-0.6,1-1
	c0.1-0.5-0.2-1-0.5-1.5c-0.2-0.3-0.4-0.7-0.6-1c-0.5-1.4-0.2-3.1,0.7-4.4c-1-0.7-2-1.6-2.7-2.5c-0.2-0.3-0.1-0.6,0.1-0.8
	c0.3-0.2,0.6-0.1,0.8,0.1c0.7,1,1.8,2,3,2.7c1.1,0.6,4.9,2.4,7.3-0.6c-0.4-0.4-0.8-0.7-1.3-0.9c-0.3-0.1-0.4-0.5-0.3-0.7
	c0.1-0.3,0.5-0.4,0.7-0.3c0.8,0.4,1.5,0.9,2,1.5c1.7,2,1.4,4.8,1.2,7c-0.2,1.5,0.1,2.3,0.7,2.7c0.5,0.3,1,0.2,1.2,0.1
	c0.6-0.2,1-0.8,1.2-1.4c0.1-0.5,0.1-1,0-1.5c-0.1-0.7-0.2-1.6,0.3-2.6c0.7-1.5,1.4-2.8,1.5-4.4c0.2-2.9-1.3-5.9-3.7-7.5
	c-0.1-0.1-0.2-0.2-0.2-0.4c-0.2-0.1-0.3-0.3-0.3-0.5c0.6-11.2,6.4-22.2,14.6-28.4c-0.2-0.1-0.4-0.1-0.7-0.2c-0.3,0-0.5-0.3-0.5-0.6
	c0-0.3,0.3-0.5,0.6-0.5c0.8,0.1,1.4,0.3,1.9,0.9c1.2,1.2,1.6,3.5,1.6,5.2c0,0.6-0.1,1.1-0.1,1.7c-0.1,0.9-0.2,1.8,0,2.5
	c0.2,0.7,0.9,1.3,1.5,1.4c0.4,0.1,0.8-0.1,1.1-0.6c0.5-0.8,0.2-1.4-0.2-2.5l-0.1-0.3c-0.5-1.1-0.1-1.8,0.3-2.5
	c0.1-0.2,0.2-0.4,0.4-0.7c0.6-1.5,1.9-5,0.9-6.9c-0.1-0.2-0.2-0.3-0.3-0.4c-0.2-0.2-0.2-0.6,0-0.8c0.2-0.2,0.6-0.2,0.8,0
	c0.1,0.1,0.2,0.3,0.3,0.4c1.9-0.7,4.3-1.6,6.7-1.9c0,0,0.1,0,0.1,0c1.6-1.5,3.4-2.6,5.4-3.4c0.3-0.1,0.6,0,0.7,0.3
	c0.1,0.3,0,0.6-0.3,0.7c-2,0.8-3.8,2-5.4,3.5c-2.3,2.1-3.9,4.7-4.8,7.6c-1.4,4.6-1.3,10.7,2,14c0.9,0.9,2,1.4,3,1.3
	c0.6-0.1,1.1-0.4,1.5-0.9c1.2-1.7,1.1-4.2,1-6.4c0-0.3,0-0.7,0-1c0-3.2,0-6.5,0.3-9.8l0-0.5c0.1-1.3,0.3-2.8,0.9-4.1
	c0.4-0.8,1-1.4,1.7-1.7c0.3-0.1,0.6,0,0.7,0.3c0.1,0.3,0,0.6-0.3,0.7c-0.4,0.2-0.8,0.5-1,0.9c1.4,5,3.9,10.6,7.7,16.8l0.3,0.6
	c0.7,1.1,1.5,2.5,2.4,3.6c0.6-1.1,1.7-2,2.9-2.2c0.7-0.1,1.3-0.1,1.9,0.2c0-1-0.2-2-0.2-2.7c0-0.3-0.1-0.5-0.1-0.7
	c-0.5-4.9-0.9-8.7-1.3-12.2c-0.1-0.8-0.1-1.7-0.2-2.7c-0.1-1.9-0.2-4-0.7-5.7c-0.2-0.8-0.5-1.5-0.9-2.1c-0.1-0.2-0.1-0.4,0-0.6
	c-0.5-0.9-1.1-1.7-1.8-2.5C71.3,20,65.2,18.7,62,18.2z"/>
<path class="st1" d="M78.9,54.5c-0.9,0.2-1.8,0.9-2.2,1.9c0,0,0,0.1-0.1,0.1c0.5,0.5,1.1,0.8,1.7,1c0.6,0.2,1.1,0.1,1.4-0.1
	c0.1,0,0.1-0.1,0.2-0.1c0,0,0,0,0,0c0,0,0.1-0.1,0.1-0.1c0.3-0.5,0.5-1.2,0.5-2.1c0,0,0-0.1,0-0.1C80,54.5,79.5,54.4,78.9,54.5z"/>
</svg>
