<?xml version="1.0" encoding="utf-8"?>
<!-- Generator: Adobe Illustrator 21.1.0, SVG Export Plug-In . SVG Version: 6.00 Build 0)  -->
<svg version="1.1" id="Layer_1" xmlns="http://www.w3.org/2000/svg" xmlns:xlink="http://www.w3.org/1999/xlink" x="0px" y="0px"
	 viewBox="0 0 100 100" style="enable-background:new 0 0 100 100;" xml:space="preserve">
<style type="text/css">
	.st0{fill:#E89963;}
	.st1{fill:#211F1F;}
</style>
<path class="st0" d="M85.2,85.1c2.4,0.5,6.8-2.4,7.7-4.9c0.3-0.9,0.1-1.7-0.7-2.2c-1.3,1.4-4.7,3.8-6.6,3.6c-5.4-0.7-8-8.7-8.7-14.4
	c-0.5,2.8-0.5,5.4-0.5,7.7C77.6,79.2,80.9,84.2,85.2,85.1z"/>
<path class="st0" d="M24,76.2c1.4-0.2,2.4,2.5,0.6,2.5C23.2,78.8,22.3,76.4,24,76.2z M31.7,75.3c1.1,1,1,1.8-0.3,2.4l0,0
	c-0.1,0.1-0.3,0.1-0.4,0.1C29.3,77.4,30.3,74.8,31.7,75.3z M19.2,71.2c0.4,0,0.7,0.2,0.8,0.6c0.6,2.4,1.5,4.2,2.5,6.2
	c0.5,0.9,1,1.8,1.4,2.9c0.6,1,1,1.9,1.3,2.8c0.4,1.3,0.5,2.9,0.5,4.3c0.1,0.7,0.2,1.4,0.2,2.1c0.2,1.7,0.3,3.4,0.7,5.1
	c1.4-0.8,4.3,0.1,5.2,1c0.1,0.1,0.1,0.2,0.2,0.2c0.5-1,0.9-2.2,1.4-3.6l0,0c0,0,0,0,0,0c0,0,0,0,0,0c1.8-6.5,2.7-15.6,3-18.6
	l0.1-0.6c-0.4-0.7-0.8-1.2-1.3-1.5c-0.3-0.2-0.5-0.7-0.2-1c0.2-0.3,0.7-0.5,1-0.2c0.7,0.5,1.4,1.2,2,2.3c1.5,2.9,2.3,7.7,3.1,12.4
	c1,5.9,2.1,12.6,4.6,13.7c0.7,0.3,1.6,0.1,2.7-0.6c0.3-0.2,0.7-0.5,1-0.8c1.9-1.6,2.9-3.8,3-6.6c0.6-10-9.8-24.7-14.6-30
	c-0.3-0.3-0.3-0.8,0-1c0.3-0.3,0.8-0.3,1,0c5,5.4,15.7,20.6,15,31c-0.2,2.6-1,4.9-2.5,6.6c0.7,0.2,1.3,0,1.8-0.4
	c3.1-2.6,2.3-15.4-2.5-37.9c-0.3-1.6-0.6-2.7-0.6-3.1c-0.9-6.4-2.5-18.3,4.6-22.5c2.4-1.4,4.5-1.6,6.3-0.6c3,1.6,4.4,6,4.6,9.6
	c0.4,4.9-0.9,10-2.2,15c-0.5,2.1-1.1,4.1-1.4,6.1c-1.7,9-0.9,12.5,3.2,20.8c0.4,0.9,0.9,1.5,1.3,2.2c0.8,1.2,1.5,2.3,1.7,3.9
	c0.1,0.9-0.7,1.6-1.4,2.2c-1,0.8-1.7,1.5-1.5,2.3c0.4,1.7,1,2.6,1.9,2.6c2.7-0.1,7.2-6.8,7.6-9.2c0.5-3.5,0.4-6.8,0.3-10.4
	c0-1.1-0.1-2.3-0.1-3.4c-0.3-1.2-0.5-2.3-0.6-3.4c0-0.4,0.3-0.7,0.6-0.8c0.1-1.8,0.3-3.8,0.8-5.8c0.2-0.8,0.4-1.6,0.6-2.4
	c0.6-2.2,1.2-4.5,1.8-6.7c1.6-5.5,3.2-11.1,3.7-16.7c1.7-16.4-3.9-29.5-15-35.2C53.7-2.6,40,1.6,32.8,14.6
	C29.1,21.2,27.2,29.1,27,38c0,2,0.1,4.2,0.3,6.5c0.4,5.5,0.9,11.1-1.6,15.9c0,0,0,0.1,0,0.1c0,0.3-0.2,0.6-0.5,0.7
	c-0.2,0.2-0.6,0.2-0.8,0.1c0,0,0,0,0,0c-4.1,0.2-8.6,4.7-11.8,11.9C9,81.2,7.5,92.2,11.8,96.6c1.4,1.4,2.5,2,3.2,1.8
	c1.9-0.7,2.4-7.1,2.7-11.8c0.4-5.4,0.6-8.9,2.5-8.9c0,0,0.1,0,0.1,0c-0.9-1.5-1.8-3.4-1.7-5.9C18.6,71.5,18.9,71.2,19.2,71.2z"/>
<path class="st1" d="M27.7,97.7c0,0,0,0.1,0,0.2c0,0.1,0,0.2,0,0.3c0.1,0.1,0.1,0.2,0.2,0.3c0.1,0,0.2,0.1,0.2,0.1
	c0.6,0.5,1.6,0.4,2.3,0.2c0.3-0.2,0.6-0.6,0.8-0.9c0-0.2-0.2-0.5-0.4-0.8c-0.5-0.5-2.6-1.2-3.4-0.7c-0.1,0.1-0.3,0.2-0.1,0.8
	c0,0,0,0.1,0,0.1C27.5,97.3,27.6,97.5,27.7,97.7C27.6,97.7,27.7,97.7,27.7,97.7z"/>
<path d="M30.4,98.7C30.5,98.7,30.5,98.7,30.4,98.7c0.3-0.1,0.4-0.2,0.6-0.3c0.1-0.1,0.1-0.2,0.2-0.3c0-0.1,0.1-0.1,0.1-0.2
	c0,0,0,0,0,0c0,0,0-0.1,0-0.1C31,98.1,30.7,98.5,30.4,98.7z"/>
<path d="M34.9,93.1L34.9,93.1C34.9,93.1,34.9,93.1,34.9,93.1S34.9,93.1,34.9,93.1z"/>
<path d="M32.1,99.4C32.1,99.4,32.1,99.4,32.1,99.4C32.1,99.4,32.1,99.4,32.1,99.4C32.1,99.4,32.1,99.4,32.1,99.4z"/>
<path d="M31,98.3c0.1-0.1,0.1-0.1,0.2-0.2c0,0,0,0,0,0C31.1,98.2,31.1,98.3,31,98.3C31,98.4,31,98.4,31,98.3z"/>
</svg>
