<?xml version="1.0" encoding="utf-8"?>
<!-- Generator: Adobe Illustrator 21.1.0, SVG Export Plug-In . SVG Version: 6.00 Build 0)  -->
<svg version="1.1" id="Layer_1" xmlns="http://www.w3.org/2000/svg" xmlns:xlink="http://www.w3.org/1999/xlink" x="0px" y="0px"
	 viewBox="0 0 100 100" style="enable-background:new 0 0 100 100;" xml:space="preserve">
<style type="text/css">
	.st0{fill:#E89963;}
	.st1{fill:#211F1F;}
	.st2{fill:#94D4EB;}
</style>
<path class="st0" d="M69.1,57.3c2.6,0.2,2.3,4.3-0.3,4.1C66.2,61.2,66.4,57.1,69.1,57.3z M51.9,87.2c0.4,0.1,0.9,0.1,1.3,0.1
	c0-0.1,0.1-0.2,0.1-0.2c0.4-0.5,0.7-1,1.1-1.4c2-2.6,4.1-5.4,7.4-6.9c2.3-1.1,6.6-2.6,9.4-0.8c1.4,0.9,2.2,2.3,2.2,3.9
	c0,1.9-0.9,3.7-2.5,4.9c-1.4,1-3.1,1.1-4.7,1.2c-1.5,0.1-2.8,0.1-3.8,0.9c6.5,0.6,14.4,0.6,17.1-0.4c0.3-0.4,0.5-1,0.7-1.8
	c0.1-0.6,0.2-1.3,0.3-1.9c0-0.3,0.1-0.5,0.1-0.7c0.1-0.6,0.1-1.2,0.2-1.9c0.1-0.7,0.1-1.4,0.2-2.1c0.1-1.2,0.2-2.3,0.4-3.5l0.1-0.7
	c0.2-1.9,0.5-4,1.5-5.6c0.7-1.2,2.1-1.9,3.2-2.6c0.4-0.3,0.9-0.5,1.2-0.8c2.1-1.4,4.2-3,5.8-4.9c0.8-1,1.4-2.3,1.2-2.7
	c0,0-0.1-0.1-0.3-0.1c-1.1-0.1-3,1.3-4.3,2.1c-0.6,0.4-1.2,0.8-1.6,1c-2.2,1.2-5.4,3-8.4,1.9c-0.3-0.1-0.5-0.4-0.5-0.7
	c0-0.3,0.1-0.6,0.4-0.7c5.6-3.3,11.3-7.1,14.4-12.6c1.4-2.5,2.6-4.7,2.7-7.5c0-0.3,0-0.7,0-1.2c-0.4,0.9-1.3,1.4-2.7,0.9
	c-0.5-0.2-1.1-0.5-1.6-0.9c-0.1,0.2-0.2,0.3-0.3,0.4c-1.7,2.7-3.4,4.6-5.1,6.2c-2.3,2.1-4.4,3.3-6.6,3.7c-1.6,0.2-2.2-0.2-2.9-1
	c-0.2-0.2-0.4-0.4-0.6-0.6c-0.6-0.6-1.4-1-2.3-1.3l-0.3-0.1c-5.3-1.4-9,2.7-11.3,6.8c0,0.1,0,0.2-0.1,0.3c-0.1,0.3-0.3,0.5-0.5,0.7
	c0,0.1-0.1,0.2-0.1,0.2l0,0.1c-0.1,0.2-0.3,0.4-0.6,0.4c-1.6,1.4-4.1,1.9-5.8,2.3l-0.2,0c-3.4,0.8-6.6,1.2-9.5,1
	c-2.9-0.2-5.8-1.3-8.5-2.3c-1.8-0.7-3.7-1.4-5.5-1.9l-0.1,0c-1.9-0.4-4.6-1-6.2-0.1c-1.8,1-1.4,4.5-0.8,6.5
	c1.9,5.9,9.9,6.4,13.2,6.4c3.2-0.1,6.6-0.6,10.1-1.8l0.5-0.2c3-1,6.7-2.2,9-4.2c0.4-0.4,0.8-0.7,1-1.1c0.2-0.3,0.7-0.4,1.1-0.2
	c0.3,0.2,0.4,0.7,0.2,1.1c-0.2,0.3-0.5,0.6-0.8,0.9c0,0.1,0,0.2,0,0.3l0,0.1c-2.7,7.1-5.8,15.1-12.9,20
	C47.8,85.8,49.8,86.9,51.9,87.2z"/>
<path class="st1" d="M96.7,40.8c-0.1-1.5-0.5-3.6-1.2-4.2c-0.1-0.1-0.3-0.1-0.3-0.1c0,0-0.2,0.1-0.4,0.4c-0.3,0.3-0.5,0.6-1.2,1.8
	c-0.4,0.7-0.5,1-0.9,1.8c-0.1,0.1-0.1,0.2-0.2,0.3c0.4,0.4,1.1,0.7,1.6,0.9C95.4,42.3,96.3,41.7,96.7,40.8z"/>
<path class="st0" d="M87.9,85.4c2.5,0.4,4,0.6,4.9-0.9c0.4-0.7,0.5-1.5,0.2-2.2c-0.6-1.4-2.5-2.6-4-2.9c-1.4-0.3-3.9,0.1-5.4,1.2
	c-0.7,0.5-1.1,1.1-1.2,1.7c0,0.2-0.1,0.4-0.3,0.5c0,0.5-0.1,0.9-0.1,1.4c0,0.2-0.1,0.5-0.1,0.7c-0.1,0.4-0.1,0.9-0.2,1.4
	C83.4,84.7,85.8,85.1,87.9,85.4z"/>
<path class="st0" d="M80.2,40.8c0.1-2.9,0-7.1-1.7-8.9c-0.4-0.4-0.9-0.6-1.5-0.6c-0.6,0-1.2,0.4-1.6,0.9c-0.7,1-0.5,2.6-0.2,4.1
	c0.2,0.8,0.4,1.5,0.6,2.3c0.3,0.9,0.5,1.8,0.7,2.8c0.4,2.3-0.1,4.2-0.7,6.3c0.7,0.3,1.4,0.7,2,1.2C80,47.4,80.1,42.8,80.2,40.8z"/>
<path class="st0" d="M66.1,86.4c1.5-0.1,2.8-0.1,3.9-0.9c1.2-0.8,1.9-2.2,1.9-3.6c0-0.8-0.3-1.9-1.5-2.7c-2.3-1.5-6.3,0.1-7.9,0.9
	c-2.9,1.4-4.8,3.8-6.8,6.4c-0.3,0.4-0.5,0.7-0.8,1.1c1.3,0.4,3.2,0.7,5.7,1C61.9,86.7,64.1,86.5,66.1,86.4z"/>
<path class="st0" d="M46.7,12.7c0.4-0.4,0.9-0.7,1.3-1.1c2-1.6,3.9-3.1,5.4-5.1c0.5-0.7,1.6-2.2,2.3-3.7c-0.3,0.5-0.8,1-1.3,1.5
	c-1,0.8-2,1.4-3.1,2c-0.3,0.2-0.7,0.4-1,0.6l-0.2,0.1c-2.9,1.8-5.9,3.7-8.6,5.8c-2.5,1.9-5.3,4.3-7,7.3c-0.6,1.1-1.2,3.1-1.2,4.9
	c0,1.1,0.2,2.5,1.2,3.3c0.3,0.2,0.3,0.7,0.1,1c-0.2,0.3-0.7,0.3-1,0.1c-1-0.8-1.6-2.1-1.7-3.7c0,0,0,0,0,0c-3.9-0.3-7.7,0.8-10.7,3
	c-0.3,0.2-0.6,0.5-0.8,0.7c-0.9,0.8-1.8,1.6-3.5,1c-1.5-0.5-2.8-1.7-3.6-2.6c-1.3-1.5-2.8-3.8-0.9-6.8c1.6-2.6,2.3-4.6,1.2-7.1
	c-0.6-1.3-1.5-2-2.7-2.2c-1.7-0.2-3.9,0.8-5.3,2.5C2.8,18,3.5,24.3,5.1,29c0.9,2.6,2.2,4.7,4,6.1c1,0.8,2.2,1.4,3.5,1.8
	c0.4,0.1,0.6,0.2,0.6,0.2c0,0,0-0.1,0.1-0.2c0.1-0.3,0.2-0.5,0.3-0.7c0.2-0.3,0.6-0.4,0.9-0.2c0.3,0.2,0.5,0.6,0.3,0.9
	c-0.1,0.2-0.2,0.4-0.2,0.5l0,0.1c-0.6,1.4-0.8,3.3-0.5,4.8c0,0.2,0,0.4-0.1,0.6c0.2,0.2,1.1,0.6,4.2,1.3c0.2,0,0.3,0.1,0.4,0.1
	c1.8,0.5,3.8,1,5.7,1.2c3.3,0.3,6.6,0.2,10-0.1c3.8-0.3,6.8-0.6,9.6-1.2c0.2,0,0.5-0.1,0.7-0.1c1.3-0.2,3.6-0.6,4.2-1.6
	c0.2-0.4,0.2-1.4,0.1-2c0-0.1,0-0.3,0-0.4c0-0.2-0.2-0.8-0.3-1.4c-0.4-1.7-0.5-2.4-0.3-2.8c0.4-0.7,1.6-0.9,3-1.1
	c0.2,0,0.3,0,0.4-0.1c0.4-0.1,0.7-0.1,1.1-0.2c2.3-0.4,4.7-0.9,6.5-2.4c2.4-2,3.1-6,1.6-8.8c-0.7-1.3-1.9-2-3.3-1.9
	c-1.3,0.1-2.5,0.9-3,2.3c-0.3,0.7-0.5,1.4-0.8,2c-0.7,2.2-1.5,4.2-3.7,5.9l-0.2,0.1c-0.6,0.4-1.3,1-2,1.2c-0.2,0-0.3,0.1-0.3,0.1
	c-0.2,0.1-0.3,0.2-0.5,0.1c-0.2,0-0.4-0.1-0.5-0.3c0,0-0.1-0.1-0.3-0.3c-0.5-0.4-1-1-1.4-1.5c-0.3-0.4-0.6-0.8-0.9-1.1
	c-1.3-1.2-2.8-2.2-4.5-3c-0.1,0.9,0,1.8,0.1,2.7c0,0.4-0.2,0.7-0.6,0.8c0,0-0.1,0-0.1,0c-0.3,0-0.6-0.2-0.7-0.6
	c-0.2-1.3-0.2-2.5,0-3.7c-0.1-0.2,0-0.4,0-0.5c0,0,0,0,0,0C38.9,21,41.6,16.9,46.7,12.7z"/>
<path class="st2" d="M38.9,50.7c0.4-0.1,0.7-0.4,0.6-0.8c-0.1-0.4-0.4-0.7-0.8-0.6c-6,0.8-12.8,0.7-19.8-0.4c-3-0.4-6.5-1.1-9.6-2.6
	L9,46.2c-0.8-0.4-2.3-1.1-2.7-1.8c-0.5-0.9,0.4-2.4,1.3-2.9c0.3-0.2,0.4-0.6,0.2-1c-0.2-0.3-0.6-0.4-1-0.2c-1.4,0.8-2.8,3.1-1.8,4.8
	c0.6,1.1,2.3,1.9,3.3,2.4l0.2,0.1c3.3,1.6,6.9,2.3,10,2.7c4.1,0.6,8,0.9,11.8,0.9C33.4,51.2,36.2,51,38.9,50.7z"/>
<path class="st2" d="M56.6,46.5c-2.2,1.1-5,1.9-8.7,2.2c-0.4,0-0.7,0.4-0.6,0.8c0,0.4,0.3,0.6,0.7,0.6c0,0,0.1,0,0.1,0
	c3.8-0.4,6.8-1.2,9.2-2.4c1.2-0.6,2.6-1.5,3.2-2.9c0.5-1.1,0.4-2.4-0.2-3.4c-0.5-0.9-1.4-1.4-2.5-1.5c-0.4,0-0.7,0.3-0.7,0.7
	c0,0.4,0.3,0.7,0.7,0.7c0.7,0,1.1,0.5,1.4,0.8c0.4,0.6,0.4,1.5,0.1,2.1C58.7,45.3,57.6,46,56.6,46.5z"/>
<path class="st2" d="M67.2,93.6c0.4,0,0.7-0.3,0.8-0.7c0-0.4-0.3-0.8-0.7-0.8c-7.6-0.4-16.3-0.8-24.3-3c-6.4-1.7-7.7-3.2-8-3.9
	c-0.1-0.2-0.1-0.4,0.2-0.8c1.7-2.4,5.4-2.7,8.7-3c0.2,0,0.5,0,0.7-0.1c0.8-0.1,1.7-0.2,2.4-0.3c0.4-0.1,0.7-0.5,0.6-0.9
	c-0.1-0.4-0.4-0.7-0.8-0.6c0,0,0,0-0.1,0c-0.9,0.1-1.9,0.2-3,0.3c-3.6,0.3-7.7,0.6-9.8,3.6c-0.6,0.9-0.5,1.7-0.4,2.3
	c0.9,2.4,5.6,3.9,9.1,4.8C50.7,92.7,59.5,93.2,67.2,93.6C67.2,93.6,67.2,93.6,67.2,93.6z"/>
<path class="st2" d="M98.1,90c-0.4,0-0.8,0.3-0.8,0.7c-0.1,0.9-1.1,1.7-1.9,2.1c-7.5,4.4-32.7,5.7-37.5,3.5c-0.4-0.2-0.8,0-1,0.4
	c-0.2,0.4,0,0.8,0.4,1c1.7,0.8,5.6,1.2,10.4,1.2c9.8,0,23.2-1.6,28.5-4.7c1.7-1,2.6-2.1,2.7-3.3C98.8,90.4,98.5,90,98.1,90z"/>
</svg>
