<?xml version="1.0" encoding="utf-8"?>
<!-- Generator: Adobe Illustrator 21.1.0, SVG Export Plug-In . SVG Version: 6.00 Build 0)  -->
<svg version="1.1" id="Layer_1" xmlns="http://www.w3.org/2000/svg" xmlns:xlink="http://www.w3.org/1999/xlink" x="0px" y="0px"
	 viewBox="0 0 100 100" style="enable-background:new 0 0 100 100;" xml:space="preserve">
<style type="text/css">
	.st0{fill:#EA9A65;}
</style>
<g>
	<path d="M70.6,50.2c1.6,0.5,1.7,1.2,0.9,2.6c-0.2,0.4-1.3,1.8-2,1.6c-0.1-0.1-0.2-0.2-0.4-0.3c0-0.1-0.1-0.1-0.1-0.2
		c-0.3-0.6-1.3-2.9-0.9-3.6C68.6,49.6,69.9,50,70.6,50.2z"/>
</g>
<g>
	<path class="st0" d="M94.6,28.7L94.6,28.7c-1.7-1.4-2.2-1.6-2.4-1.6c0,0,0,0,0,0c0,0,0,0.1,0,0.2c-0.1,0.5,0.4,1.5,0.7,2.2
		c0.3,0.6,0.6,1.2,0.7,1.7l0.1,0.3c0.3,1.5,0.7,3,0.5,4.5c-0.4,2.9-2,5.4-4.4,6.9c-2.4,1.4-6.1,2.4-8.6,1.1l-0.2-0.1
		c-0.3-0.2-0.5-0.6-0.3-1c0,0,0,0,0.1-0.1c-1.5-7.4-5.5-20.4-16.6-28.2C48.8,3.8,26.7,8.3,14.3,19C6.3,25.8,1.7,36,2,46.3
		c0.2,9,4.2,17,11.2,22.4c0.2,0.2,0.3,0.5,0.3,0.7c0.1,0.2,0.1,0.4,0.1,0.6c-1.5,4-3,8.6-2,13.4c0.4,1.9,1.7,6.3,4.6,6.7
		c0.6,0.1,1.5,0.1,1.8-0.4c0.6-0.7-0.2-2.8-0.6-4l-0.2-0.6c-1.3-3.7,1.1-8.1,4.3-10.5c-0.4-0.1-0.7-0.2-1-0.3
		c-0.4-0.1-0.6-0.5-0.4-0.9c0.1-0.4,0.5-0.6,0.9-0.4c0.7,0.2,1.5,0.5,2.4,0.7c2,0.5,4.2,0.7,6.5,0.8c3,0.1,6-0.3,8.7-1
		c4-1.1,10.7-4.2,11.4-12c-2-0.2-3.8-0.6-5.6-1.2c-0.4-0.1-0.6-0.5-0.5-0.9c0.1-0.4,0.5-0.6,0.9-0.5c1.9,0.6,3.9,1,6,1.2
		c2.8,0.3,5.6,0.2,8.2-0.2c2.7-0.4,5.2-1.3,7.4-2.4c0.9-0.5,1.8-1.1,2.6-1.7c0,0,0,0,0,0c-0.1-0.1-0.2-0.2-0.2-0.3
		c-0.1,0-0.2-0.1-0.3-0.2c-1.2-1.2-1.9-3.3-1.7-4.9c-2.5,0.1-4.9,0.1-7.4-0.4c-1-0.2-2-0.4-2.9-0.7c-4.5-1.2-7.1-2.8-7.9-4.9
		c-0.3-0.8-0.3-1.6-0.3-2.3c0-0.7-0.1-1.4-0.3-2c0-0.1-0.1-0.2-0.1-0.3l-0.1-0.1c-0.4-0.8-1-1.6-1.8-2.2c-1.6-1.3-4-2-6.7-2.1
		c0,0-0.1,0-0.1,0c-7.5,0-10,6.3-12.4,12.3c-0.1,0.4-0.6,0.5-0.9,0.4c-0.4-0.1-0.5-0.6-0.4-0.9C27.8,41,30.7,33.9,39.2,34
		c2.1,0,5.2,0.4,7.6,2.4c0.8,0.6,1.5,1.4,1.9,2.2c0,0,0.1,0,0.1,0c2.5-0.1,4.4,2.2,5.5,3.4c1,1.2,1.5,2.5,2,3.7
		c0.3,0.7,0.6,1.5,1,2.2c0,0,0,0.1,0,0.2c0.7,0.2,1.5,0.4,2.2,0.5c2.7,0.5,5.2,0.4,7.9,0.3l0.9,0c1.6-0.1,4.5-0.2,5,2.1
		c0.8,3.6-5.2,7-6.4,7.6c-2,1.1-4.3,1.9-6.7,2.4c0,0.1,0,0.1,0.1,0.2c0,0.1,0,0.1,0.1,0.2c0.2,0.3,0.4,0.7,0.6,1
		c0.4,0.8,0.8,1.5,1.3,2.2l0.2,0.3c0.2,0.3,0.1,0.8-0.2,1c-0.1,0.1-0.2,0.1-0.4,0.1c-1.2,3.5,0.1,7.3,1.2,9.9
		c0.1,0.3,0.3,0.7,0.5,1.1c0.5,0.8,1,1.8,1,2.8c0.1,0.9-0.4,1.5-0.7,2c-0.4,0.5-0.5,0.7-0.4,1.2c0.1,0.4,0.3,0.7,0.6,0.9
		c0.4,0.2,1,0.3,1.6,0.1c1.1-0.3,1.8-1.2,2.3-2.9c0.3-1.3,0.5-2.6,0.6-3.9c0.2-2.1,0.3-4.2,1.5-6.2c-0.5-0.1-1.1-0.2-1.6-0.3
		c-0.4-0.1-0.6-0.5-0.5-0.9c0.1-0.4,0.5-0.6,0.9-0.5c0.8,0.2,1.5,0.3,2.3,0.3c2.1,0.1,4.1-0.5,6.2-1.7c0.6-0.4,1.3-0.8,1.9-1.3
		c0.3-0.2,0.8-0.2,1,0.1c0.2,0.3,0.2,0.8-0.1,1c-0.5,0.4-1,0.7-1.5,1c2.3,3.7,1.5,7.8,0.6,11.3c-0.4,1.6-0.5,2.6,0.5,3.2
		c1,0.6,2.2,0,2.9-0.8c0.8-0.9,0.8-2,0.8-3.2c0-0.5,0-1,0.1-1.5c0.1-1.3,0.7-2.4,1.2-3.5c0.3-0.6,0.6-1.3,0.8-1.9
		c1.1-3.3,0.4-7.3-1.9-10.2c0,0,0-0.1-0.1-0.1c-0.2-0.2-0.2-0.5-0.1-0.7c1.4-3.4,0.8-7.4,0.3-10.6c-0.4,0.1-0.8,0.1-1.1,0.2
		l-1.2,0.2c0,0-0.1,0-0.1,0c-0.3,0-0.6-0.3-0.7-0.6c-0.1-0.4,0.2-0.8,0.6-0.8l1.2-0.2c0.6-0.1,1.2-0.2,1.8-0.3c4.8-0.8,9.6-2,12-6
		C99.1,38.5,98.2,31.8,94.6,28.7z M43.4,44.5c2,0.2,1.4,3.5-0.4,3C41.4,47.1,41.4,44.3,43.4,44.5z M25.6,52.7c2.8-2.4,5.7-5,7-8.4
		c0.1-0.4,0.5-0.6,0.9-0.4c0.4,0.1,0.6,0.5,0.4,0.9c-1.4,3.8-4.4,6.4-7.4,9c-1.2,1-2.3,2-3.3,3L23.1,57c-2.2,2.3-6,6.1-4.6,9.2
		c0.6,1.4,1.5,2.1,2.7,2.3c2.7,0.4,6.3-2.5,7.9-4.4c3.7-4.4,6.7-10,8.8-16.1c0.1-0.4,0.5-0.6,0.9-0.4c0.4,0.1,0.6,0.5,0.4,0.9
		c-2.1,6.3-5.2,12-9,16.6c-1.7,2.1-5.3,5-8.5,5c-0.2,0-0.4,0-0.7,0c-1.7-0.2-2.9-1.3-3.8-3.1c-1.8-4,2.4-8.3,4.9-10.8l0.2-0.2
		C23.3,54.7,24.5,53.7,25.6,52.7z"/>
	<path class="st0" d="M34.2,89.6c0.2,0.1,2.1,0.9,2.7-0.3c0.3-0.6-0.1-1.4-0.5-2.3c-0.2-0.6-0.5-1.1-0.6-1.7
		c-0.4-2.6,0.4-5.2,1.1-7.7c0.3-0.9,0.5-1.8,0.7-2.7c-2.3,0.5-4.8,0.8-7.3,0.8c0,0-0.1,0-0.1,0c0,0,0,0,0,0.1
		c-1.2,2.5-1.2,6.2-0.1,9.2C30.8,86.5,32,88.6,34.2,89.6z"/>
</g>
</svg>
