<?xml version="1.0" encoding="utf-8"?>
<!-- Generator: Adobe Illustrator 21.1.0, SVG Export Plug-In . SVG Version: 6.00 Build 0)  -->
<svg version="1.1" id="Layer_1" xmlns="http://www.w3.org/2000/svg" xmlns:xlink="http://www.w3.org/1999/xlink" x="0px" y="0px"
	 viewBox="0 0 100 100" style="enable-background:new 0 0 100 100;" xml:space="preserve">
<style type="text/css">
	.st0{fill:#E89963;}
	.st1{fill:#211F1F;}
</style>
<path class="st0" d="M57,96.4L57,96.4L57,96.4c0-0.8-0.1-1.5-0.1-2.2c0-1.2,0-2.2,0-3.3c0.1-2.1,0.3-4.1,0.7-6
	c0.7-3.6,1.7-6.9,3.2-9.9c4.3-8.7,8.9-13.6,13.5-14.8c6.7-1.6,11.5,4,13.7,9.8c0.3,0.7,0.5,1.4,0.7,2.1c0.7,2.2,1.4,4.2,2.9,5.7
	c1.5,1.4,4.4,3,6.1,1.7c0.8-0.6,0.5-1.5-0.6-3.6c-0.5-1-1.1-2-1.2-3c-0.2-1.2-0.3-2.5-0.4-3.7c-0.2-1.9-0.3-3.8-0.8-5.6
	c-0.5-2-1.3-3.6-2.2-4.8c-0.3-0.4-0.5-0.7-0.8-1c-0.7-0.8-1.4-1.6-1.8-2.7c-0.4-1.2-0.4-2.5-0.3-3.7c0-0.6,0-1.1,0-1.6
	c-0.1-1.9-0.4-3.8-0.8-5.8c-1.6-7.2-5.3-13.1-10.2-16.5c-3.1-2.2-4.9-4.1-5.6-8.5L73,18.7c-0.4-2.8-0.9-5.4-2-7.9
	c-1-2.2-4.6-9.2-11.8-8.6c-2.5,0.2-5.9,1.4-7.4,3.4c-0.4,0.5-0.6,1.1-0.7,1.8c2.8-1.5,5.8-1.5,8.7,0c5.2,2.6,9.3,9.6,9.3,16
	c0.1,4.2-1.7,7.6-4.9,9.5c-0.1,0.2-0.2,0.3-0.4,0.4c-20.6,11.3-37,34.2-41.7,58.3c-0.2,1.1-0.4,2.3-0.6,3.6c0,0.1-0.1,0.2-0.1,0.3
	c3.9,0.8,8.1,1.4,12.7,1.9c6.9,0.7,13.7,0.9,20.2,0.4l1-0.1c0.5,0,1.1-0.1,1.7-0.1c0-0.1,0-0.1,0-0.2C57.1,97,57,96.7,57,96.4z"/>
<path class="st1" d="M59,90.9c-0.1,1-0.1,2.1,0,3.2c0,0.7,0,1.4,0.1,2.1c0,0,0,0,0,0h0c0,0.3,0,0.6,0,0.8c0,0.1,0,0.1,0,0.2
	c0.5,0,1-0.1,1.5-0.1c1.5-0.1,3-0.3,4.3-0.5c0.6-0.1,1.2-0.2,1.7-0.3c2.2-0.4,4-0.9,5.7-1.5c2.5-0.9,5.4-3.2,5.8-5.4
	c0.2-1.1-0.3-2.2-1.4-3.2c-0.3-0.3-0.7-0.5-1.1-0.8c-0.1-0.1-0.3-0.2-0.4-0.3c-3.3-1.8-7.7-2-11.8-2.1c-1.1,0-2.1-0.1-3.1-0.1
	c0,0-0.1,0-0.1,0c-0.2,0.7-0.3,1.4-0.5,2.1C59.3,87,59.1,89,59,90.9z"/>
<path class="st1" d="M20.3,91.1c0.8-3.9,1.8-7.8,3.2-11.7C17.6,79,12.3,78.9,7.3,81c-1.4,0.6-3.4,1.7-4.6,3.2c-1.7,2-1,3.3-0.3,4.2
	c2.1,2.6,7.4,4.1,10.9,5l1.2,0.3c1.3,0.4,2.6,0.7,3.9,1c0.4,0.1,0.8,0.2,1.2,0.3c0-0.1,0-0.1,0-0.2C19.8,93.4,20,92.2,20.3,91.1z"/>
</svg>
