<?xml version="1.0" encoding="utf-8"?>
<!-- Generator: Adobe Illustrator 21.1.0, SVG Export Plug-In . SVG Version: 6.00 Build 0)  -->
<svg version="1.1" id="Layer_1" xmlns="http://www.w3.org/2000/svg" xmlns:xlink="http://www.w3.org/1999/xlink" x="0px" y="0px"
	 viewBox="0 0 100 100" style="enable-background:new 0 0 100 100;" xml:space="preserve">
<style type="text/css">
	.st0{fill:#EA9A65;}
</style>
<g>
	<path d="M98.3,44.5c0.4,0.4,0.7,0.9,0.6,1.5c-0.2,0.7-1.3,2-1.7,0.8c-0.4-0.6-1.5-1.6-0.8-2.3c0.4-0.1,0.8-0.1,1.2-0.1
		C97.9,44.4,98.1,44.4,98.3,44.5L98.3,44.5z"/>
</g>
<g>
	<path class="st0" d="M74.8,50c0.3-0.1,0.6,0.1,0.7,0.3c0.5,1.6,2.1,2.7,3.7,2.7c0.1,0,0.2,0.1,0.3,0.1c0.9-0.3,1.9-0.4,2.9-0.5
		c0.3,0,0.6-0.1,0.8-0.1l0.7-0.1c2.9-0.3,5.9-0.7,8.7-1.7c1.3-0.5,3.2-1.4,4.7-2.8c-0.3,0-0.5-0.2-0.7-0.7c-0.4-0.6-1.4-1.6-1.3-2.5
		c-0.2,0-0.4,0.1-0.5,0.1c-0.7,0.1-1.4,0.3-2.1,0.3c-1.5,0.1-2.9-0.1-4.4-0.4c-2.7-0.6-5.3-2-7.6-4c-0.4-0.3-0.7-0.6-1.1-1
		c-1.6-1.5-3.3-3-5.4-3.5c-2-0.5-4.5,0-5.4,1.9c0,0.1-0.1,0.2-0.2,0.2c0,0,0,0,0,0c-3.8,2.5-7.5,4.9-10.1,8.3
		c-0.4,0.5-0.7,0.9-1,1.4c-0.8,1.2-4.4,7.2-0.7,10.5c1.4,1.3,3.5,1.3,5.1,0c1.5-1.2,2.2-3.1,2.8-5l0.1-0.2c0.4-1.1,0.8-2.3,1.2-3.4
		c0.5-1.4,1-2.8,1.5-4.2l0.1-0.4c0.7-1.9,1.5-4.2,3.7-4.9c0.3-0.1,0.6,0.1,0.7,0.3c0.1,0.3-0.1,0.6-0.3,0.7c-1.7,0.6-2.4,2.5-3,4.2
		l-0.1,0.4c-0.5,1.4-1,2.8-1.5,4.2c-0.4,1.1-0.8,2.3-1.2,3.4l-0.1,0.1c-0.7,1.9-1.5,4-3.2,5.4c-1,0.8-2.1,1.2-3.3,1.2
		c-1.1,0-2.3-0.4-3.2-1.2c-3.4-3-1.9-8.1,0.5-11.9c0.1-0.2,0.2-0.3,0.3-0.5c-4,1.5-8.1,2.3-12,2.3c-3.8,0-7.5-0.8-10.5-2.3
		C28,44,23.7,36.8,23.9,29.8c0-0.2,0.1-0.3,0.2-0.4c0-0.1,0-0.2,0-0.2c-0.1-0.1-0.2-0.1-0.2-0.2c-0.4-0.9-1.1-1.6-2-1.8
		c-2.6-0.8-6.3,1.1-7.8,2.8c-0.2,0.3-0.4,0.5-0.6,0.8c-0.9,1.3-1.5,2.7-1.7,4.3c-0.4,2.6,0,5.1,1.3,7.2l0.1,0.1
		c0.1,0.3,0,0.6-0.3,0.7c0,0-0.1,0-0.1,0c-2.6,2.3-5.4,0.3-7.5-1.2c-0.2-0.1-0.4-0.3-0.6-0.4c-1.2-0.8-2-1-2.7-0.4
		c-0.8,0.6-0.9,1.7-0.5,2.6c0.9,2.3,4,3.3,6.4,3.7c2.3,0.4,4.7,0.4,6.8-0.2c0.9-0.2,1.8-0.6,2.6-1c0.3-0.1,0.6,0,0.7,0.2
		c0.1,0.3,0,0.6-0.2,0.7c-0.7,0.4-1.5,0.7-2.3,0.9c0.2,8.8,10.4,15.5,14.7,17.9c7.5,4.2,16.1,6.2,24.5,5.4c0.1-0.2,0.3-0.3,0.5-0.3
		c0.2,0,0.4,0,0.7,0.1c2.9,0.6,4.3,3.6,5,6c0,0.1,0.1,0.3,0.1,0.4c0.2,0.6,0.4,1.2,0.4,1.8c0,0.6-0.2,1.1-0.5,1.5
		c-0.1,0.3-0.3,0.5-0.3,0.8c-0.1,0.5,0,1,0.3,1.4c0.3,0.4,0.8,0.7,1.4,0.7c2.3,0.2,3.4-2.8,3.7-4.4c0.5-2.8-0.8-5.9-3.4-8.5
		c-0.1-0.1-0.2-0.2-0.3-0.2c-0.2-0.2-0.2-0.5,0-0.8c0.2-0.2,0.4-0.2,0.7-0.1c0,0,0,0,0,0c1.4-0.6,2.6-1.3,3.9-2.2
		c1.7-1.2,3.3-2.7,4.8-4.4c1.7-2,3.2-4.3,4.9-7.3c0.4-0.8,0.9-1.3,1.5-1.7c-1.6-0.4-3-1.7-3.6-3.3C74.4,50.4,74.5,50.1,74.8,50z
		 M76.8,42.4c1.7,0.8,0.1,3.4-1.3,2.3C74,43.9,75.3,41.7,76.8,42.4z"/>
	<path class="st0" d="M68.3,67.7c0.3,0,0.6,0,1-0.1c0.7-0.1,1.5-0.2,2.2,0.1c1.4,0.4,2.3,1.3,2.9,2.8l0.1,0.1
		c0.4,1.1,0.9,2.3,1.6,2.5c0.4,0.1,0.9,0,1.5-0.3c2-1.1,0.9-4,0.5-4.9c-1.1-2.5-3.3-3.9-5.6-3.7c-0.1,0-0.3,0-0.4-0.1
		C70.9,65.5,69.6,66.7,68.3,67.7z"/>
	<path class="st0" d="M5.5,28.2c0.7,2.6,2.9,5.1,5.4,6c0.3-1.2,0.7-2.3,1.3-3.4c-0.3,0-0.7-0.2-1-0.4c-1.5-0.9-2.7-3.2-2.9-4.5
		c-0.1-0.8,0.2-1.3,0.5-1.8C9,23.7,9.1,23.5,9,23.1c-0.2-0.6-0.4-0.6-0.5-0.7c-0.4-0.1-1.1,0.2-1.6,0.7C5.1,24.8,5.2,26.8,5.5,28.2z
		"/>
	<path class="st0" d="M22.7,26.2c0.9,0.4,1.6,1,2.1,1.9c1.8-2.3,6.1-2.8,8.7-1.5c0.7,0.3,1.4,1.1,2,1.7c0.8,0.9,1.6,1.8,2.3,1.7
		c0.4,0,0.8-0.3,1-0.6c0.5-0.7,0.7-2,0.5-2.8c-0.8-4.1-6.5-4.1-7.7-4.1c-2.4,0.1-4.8,0.7-6.8,1.9C24.4,24.8,23.2,25.7,22.7,26.2z"/>
</g>
</svg>
