<?xml version="1.0" encoding="utf-8"?>
<!-- Generator: Adobe Illustrator 21.1.0, SVG Export Plug-In . SVG Version: 6.00 Build 0)  -->
<svg version="1.1" id="Layer_1" xmlns="http://www.w3.org/2000/svg" xmlns:xlink="http://www.w3.org/1999/xlink" x="0px" y="0px"
	 viewBox="0 0 100 100" style="enable-background:new 0 0 100 100;" xml:space="preserve">
<style type="text/css">
	.st0{fill:#E89963;}
	.st1{fill:#211F1F;}
	.st2{fill:#F06E82;}
</style>
<path class="st0" d="M96.5,74.4c0.1,0,0.3-0.1,0.4-0.1c-0.1,0-0.2-0.1-0.2-0.1C96.6,74.3,96.6,74.3,96.5,74.4
	C96.5,74.4,96.5,74.4,96.5,74.4z"/>
<path class="st0" d="M77,67.8c1.4-0.9,2.2,1.7,0.6,1.9C76.5,69.8,76.1,68.3,77,67.8z M25.5,47.6c0.2-0.2,0.6-0.2,0.8,0.1
	c0,0,0,0,0,0c0.2,0,0.4,0.1,0.5,0.2C27,48,27,48.2,27,48.3C36.7,59,46.6,68.9,59.8,72.5c0.1,0,0.1,0,0.1,0.1c3.1-1,5.7-3,7.4-5.6
	c0.2-0.3,0.5-0.3,0.8-0.2c0.3,0.2,0.3,0.5,0.2,0.8c-1.9,3-4.9,5.2-8.4,6.3c-1.9,0.6-3.8,0.8-5.7,0.6c-0.8-0.1-1.7-0.2-2.5-0.4
	c-1.8-0.3-3.5-0.6-5.1-0.1c-1.1,0.3-1.9,1-2.3,1.9c-0.3,0.8-0.1,1.6,0.4,2.5c2,2.9,6.1,3.7,12.7,2.2c3-0.7,5.7-1.7,8-3.1
	c2.3-1.4,4.1-3,5.5-5c0.2-0.3,0.5-0.3,0.8-0.1c0.3,0.2,0.3,0.5,0.1,0.8c-1.3,1.9-3.1,3.6-5.2,4.9c2.7,1.8,6,5.7,5.1,9.2
	c-0.1,0.6-0.5,1-0.8,1.5c-0.5,0.7-0.8,1.1-0.6,1.7c0.4,1,1.9,1,2.8,0.7c2.9-1,3-4.7,2.4-6.9l0-0.1c-0.5-1.7-0.9-3.2,0.6-4.9
	c0.4-0.4,0.8-0.8,1.2-1.2c0.8-0.7,1.5-1.5,1.9-2.4c-1.3-0.5-2.5-0.8-3.5-1c-0.3-0.1-0.5-0.4-0.4-0.7c0.1-0.3,0.4-0.5,0.7-0.4
	c1.3,0.3,2.6,0.7,4.2,1.3c1,0.4,2,0.8,3,1.2l0.3,0.1c1.2,0.5,2.4,0.9,3.7,1.4c2.3,0.7,4.3,1.1,6.2,1c0.2,0,0.5,0,0.7,0
	c-0.3-0.5-0.4-1-0.4-1.6c0.1-1.2,0.8-2.3,1.6-3c-2.2-1.1-4-2.5-5.9-4.4c-0.6-0.6-1.2-1.3-1.8-2c-1.4-1.5-2.8-3.1-4.4-4.4
	c-2.6-2.1-6-3.1-8.9-2.6c-1.1,0.2-2,0.6-2.9,1.1c-0.6,0.4-1.1,0.9-1.6,1.4C70,63,70,63.1,70,63.1c-0.2,0.2-0.6,0.3-0.8,0.1
	c-0.1-0.1-0.1-0.1-0.2-0.2c-11.8-5.5-21.6-14.7-28.5-26.7c-0.3-0.6-0.6-1.1-0.9-1.7c-0.8-1.5-1.9-3.5-3.3-5.2
	c-2.1-2.6-4.2-3.9-6.5-4.1c-0.9-0.1-1.9,0.1-2.9,0.4c-0.3,0.1-0.5,0.2-0.7,0.3c-4.9,2.1-6.1,8.7-4.3,13.5c0.1,0.2,0,0.5-0.2,0.7
	c0,0.1-0.1,0.2-0.2,0.3c-4,2.6-8.5,2.3-12.8,2c-0.7,0-1.4-0.1-2.1-0.1c-2-0.1-4.2,0-5.4,1.6c-0.5,0.7-0.8,1.6-0.6,2.3
	c0.2,0.7,0.6,1.3,1.3,1.6C3,48.2,4,47.8,5.1,47.3c0.8-0.3,1.6-0.6,2.5-0.7c1.5-0.1,2.7,0.7,3.8,1.5c0.6,0.4,1.1,0.8,1.6,1
	c3.8,1.7,8.8,1.3,12.5-1C25.3,48,25.4,47.7,25.5,47.6z"/>
<path class="st1" d="M96.5,74.4c-0.7,0.6-1.3,1.5-1.3,2.4c0,0.4,0.1,0.8,0.5,1.1c0.1,0.1,0.1,0.2,0.1,0.3c1-0.1,2.1-0.4,2.8-0.9
	c0.5-0.5,0.5-0.8,0.5-0.9c-0.1-0.7-1.1-1.5-2.1-2C96.7,74.4,96.6,74.4,96.5,74.4z"/>
<path class="st2" d="M84,80c-0.3,0.9-0.7,1.9-0.4,2.4c0.2,0.3,0.6,0.6,1.3,0.7c0.8,0.2,1.5,0,1.9-0.6c0.8-1.1,0.7-3.1,0.2-4.3
	c-0.8-0.3-1.6-0.6-2.4-0.9C84.6,78.3,84.3,79.2,84,80z"/>
<path class="st0" d="M74.5,53.5c-1-3.6-4.2-7.6-7.2-8.8c-0.9-0.4-1.8-0.4-2.4-0.2c-0.4,0.2-0.7,0.5-0.8,0.9
	c-0.6,1.4,0.5,2.9,1.6,4.4l0.7,0.9c2.3,2.8,4.6,5.7,5.3,9.4c0.6-0.3,1.3-0.6,2.1-0.8c0-0.1,0-0.2,0.1-0.4C75.2,57.3,75,55,74.5,53.5
	z"/>
<path class="st0" d="M44,27.7c0-1.6,0.4-2.7,1.2-4.2c0.7-1.2,1.3-2.4,0.6-3.5c-0.4-0.6-0.9-0.9-1.5-0.9c-1.3,0.1-2.9,1.8-3.4,3
	c-0.2,0.6-0.4,1.3-0.6,2c-0.4,1.8-1,3.8-2.7,5c1.3,1.7,2.3,3.5,3,4.9c0.2,0.4,0.4,0.7,0.6,1.1C43,33.5,43.9,31.2,44,27.7z"/>
<path class="st0" d="M29.2,16.1c0.3-0.7,0.7-1.4,1.1-2.1c1.1-2.1,2.2-4.2,2.2-6.4c-0.7,1.3-1.7,2.4-2.7,3.5c-0.9,1-1.8,2-2.5,3.1
	c-1.8,3.1-2.1,7-0.9,10.4c0.1,0,0.1-0.1,0.2-0.1c0.7-0.2,1.4-0.4,2.1-0.4C26.6,21.7,28.5,17.5,29.2,16.1z"/>
</svg>
