<?xml version="1.0" encoding="utf-8"?>
<!-- Generator: Adobe Illustrator 21.1.0, SVG Export Plug-In . SVG Version: 6.00 Build 0)  -->
<svg version="1.1" id="Layer_1" xmlns="http://www.w3.org/2000/svg" xmlns:xlink="http://www.w3.org/1999/xlink" x="0px" y="0px"
	 viewBox="0 0 100 100" style="enable-background:new 0 0 100 100;" xml:space="preserve">
<style type="text/css">
	.st0{fill:#211F1F;}
	.st1{fill:#E89963;}
</style>
<path class="st0" d="M74.2,3c0.4,0.4,0.7,0.8,0.9,1.3c0.2,0.3,0.4,1.3,0.8,1.6c0-0.1,0.1-0.2,0.1-0.3c0,0,0,0,0-0.1
	c0.1-0.5,0.2-0.9,0.3-1.4c0.1-1,0-1.8-0.3-2.4c-0.4-0.7-1-0.9-1.8-0.8c-0.7,0.1-1.5,0.5-2.4,1.2c0.2,0,0.3,0,0.5,0.1
	C72.9,2.3,73.5,2.4,74.2,3z"/>
<path class="st1" d="M59.8,12.7c1.6-0.4,1.4,1.6,0.2,1.6C58.9,14.3,58.7,13,59.8,12.7z M64.4,16.4c0.8,0.4,0.7,1.7-0.3,1.8
	C62.1,18.4,62.9,15.7,64.4,16.4z M54.5,81.4c0.2-0.3,0.5-0.4,0.8-0.2c0.2,0.1,0.6,0.3,1,0.5c-0.1-0.4-0.1-0.8-0.1-1.1
	c0-0.3,0.2-0.6,0.6-0.6h0c0.3,0,0.6,0.3,0.6,0.6c0,0.2,0,0.5,0.1,0.8c0.1-0.1,0.2-0.2,0.3-0.3c0.2-0.2,0.3-0.4,0.5-0.5
	c0.2-0.2,0.6-0.3,0.8,0c0.2,0.2,0.3,0.6,0,0.8c-0.1,0.1-0.3,0.3-0.4,0.5c-0.2,0.2-0.3,0.4-0.5,0.6c1,0.3,1.3,0.2,1.3,0.2
	c0.3-0.1,0.6,0.1,0.7,0.4c0.1,0.3-0.1,0.6-0.4,0.7c-0.1,0-0.2,0.1-0.5,0.1c-0.3,0-0.8-0.1-1.4-0.2c0.1,0.4,0.2,0.8,0.2,1.1l0,0.1
	c0.1,0.3-0.1,0.6-0.4,0.7c0,0-0.1,0-0.1,0c-0.3,0-0.5-0.2-0.6-0.5l0-0.1c-0.1-0.3-0.1-0.7-0.2-1.1c-0.6,0.4-1,0.7-1.5,0.7
	c0,0,0,0-0.1,0c-0.3,0-0.5-0.2-0.6-0.5c0-0.3,0.2-0.6,0.5-0.6c0.2,0,0.5-0.1,0.9-0.5c-0.5-0.2-1-0.4-1.2-0.6
	C54.5,82,54.4,81.6,54.5,81.4z M52.7,17.1c-0.1,0.3-0.4,0.5-0.7,0.4c-0.4-0.1-0.8-0.2-1.1-0.3c-3.7-1.2-7-3.3-9.7-6.2
	c-0.2-0.2-0.4-0.4-0.6-0.6c-0.9-1-1.8-2-3-2.2c-1.6-0.3-3.3,0.5-4.2,2c-2,3.4,1.2,7,3.9,8.6c2.4,1.4,6.1,2.2,9.7,1.9
	c0.1-0.1,0.3-0.1,0.4,0c0.9-0.1,1.9-0.2,2.7-0.5c0.3-0.1,0.6,0.1,0.7,0.4c0.1,0.3-0.1,0.6-0.4,0.7c-0.9,0.2-1.9,0.4-2.9,0.5
	c-3.5,3.3-7.5,7-10.1,11.6c-2.3,4.2-3.6,9.4-3.8,15.3c-0.2,6.4,0.7,12.7,1.5,17.5c0.8,4.4,1.9,9.5,4.8,13.8c0.2,0.1,0.4,0.3,0.4,0.6
	c0,0,0,0,0,0l0,0l0,0c0,0,0,0.1,0,0.1c-0.3,3.7,0.3,7.2,1.6,10c0.1,0.3,0.3,0.5,0.4,0.8c0.6,1.2,1.3,2.4,0.8,3.9
	c-0.1,0.2-0.1,0.4-0.2,0.6c-0.3,1-0.5,1.6-0.1,2.2c0.3,0.4,0.7,0.7,1.2,0.7c0.8,0,1.7-0.5,2.1-1.2c0.5-0.8,0.3-1.5,0.1-2.5
	c-0.1-0.4-0.2-0.8-0.2-1.2c-0.2-1.6,0.4-3.1,1.5-4.1c-0.2-0.2-0.3-0.4-0.2-0.6c0.1-0.3,0.5-0.4,0.7-0.3c0.2,0.1,0.4,0.1,0.6,0.2
	c4,1.4,8.4,1.2,12.2-0.6c0.1,0,0.2-0.1,0.3-0.2c0.3-0.1,0.6,0,0.8,0.2c0.1,0.2,0.1,0.5-0.1,0.7c0.8,1.4,0.7,2.9,0.5,4.3
	c-0.1,1-0.2,1.9,0,2.8c0.2,0.9,1.8,2.6,2.9,2.7c0.3,0,0.7,0,1-0.8c0.1-0.3,0-0.5-0.2-0.9c-0.2-0.4-0.4-0.9-0.3-1.5
	c0.1-0.7,0.6-1.3,1-1.9c0.3-0.4,0.6-0.8,0.7-1.2c0.7-1.9,1-4.9,0.1-7l0,0c0,0,0,0,0,0c-0.2-0.2-0.3-0.6-0.1-0.8
	c2.7-3.2,2.5-8.1-0.3-11.1c-1,1.5-2.3,2.9-3.7,3.9C63,78,62.9,78,62.8,78c-0.2,0-0.4-0.1-0.5-0.2c-0.2-0.3-0.1-0.6,0.1-0.8
	c1.4-1,2.7-2.4,3.7-4c0-0.1,0.1-0.2,0.1-0.3c0,0,0,0,0,0c2.1-3.5,3.3-9-0.1-13.1c-0.6-0.7-1.2-1.1-1.6-1.1c-0.3,0.1-0.5,0.5-0.6,0.8
	c-0.4,1.2-0.3,2.7-0.3,4.1c0,1,0.1,2,0,3c-0.2,1.4-0.6,2.8-1.1,3.9c0,0,0,0.1,0,0.1c0,0.1-0.1,0.1-0.1,0.2c-1.1,2.2-2.7,3.6-4.8,4.1
	c-0.3,0.1-0.6-0.1-0.7-0.4c-0.1-0.3,0.1-0.6,0.4-0.7c2-0.5,3.2-1.9,3.9-3.2c-6-4.9-7.5-13.1-8.5-20.4c-0.1-0.5-0.1-0.9-0.2-1.4
	c-0.5-4.7-0.2-8.9,0.8-12.5c1-3.5,2.6-6.4,4.9-8.7c-0.6-0.9-1.2-1.8-1.9-2.5c-0.2-0.2-0.2-0.6,0-0.8c0.2-0.2,0.6-0.2,0.8,0
	c0.8,1,1.6,2,2.3,3.2c2.1,3.6,3.1,7.6,2.7,11.2c0,0.3-0.1,0.6-0.1,0.9c-0.3,1.9-0.5,4,1,4.9c1.5,0.9,3.4,0.1,4.5-1.1
	c2.6-3,2.1-8.2,1.7-10.4c-0.7-4-3.1-7.5-6.3-9c-0.5-0.2-1-0.4-1.5-0.6c-0.3-0.1-0.5-0.4-0.4-0.7s0.4-0.5,0.7-0.4
	c0.6,0.2,1.1,0.4,1.7,0.7c0.2,0.1,0.3,0.2,0.5,0.3c0-0.1,0.1-0.2,0.2-0.3c3.6-2.5,6.6-6.5,9.2-11.9l0.2-0.4c0.5-1.1,1.2-2.6,1.7-4.1
	c-0.4-0.3-0.6-1.3-0.8-1.6C74.3,4.5,74,4,73.6,3.6c-0.6-0.6-1.2-0.7-2.1-0.8c-0.2,0-0.3,0-0.5-0.1c-0.1,0.1-0.2,0.2-0.3,0.2
	c-1.5,1.1-3,2.5-4.1,3.5c-0.5,0.5-0.9,0.9-1.2,1.1C65.2,7.8,65,8,64.8,8.1c-1,0.8-2,1.7-3.2,2.3c-1,0.5-2,0.7-3,0.9
	c-0.4,0.1-0.8,0.1-1.2,0.2c-2.7,0.6-4.2,2.6-5.6,4.8c0.2,0,0.3,0.1,0.5,0.1C52.6,16.5,52.7,16.8,52.7,17.1z"/>
</svg>
