<?xml version="1.0" standalone="no"?>
<!DOCTYPE svg PUBLIC "-//W3C//DTD SVG 1.1//EN" "http://www.w3.org/Graphics/SVG/1.1/DTD/svg11.dtd">
<!--Generator: Xara Designer (www.xara.com), SVG filter version: 6.0.0.4-->
<svg stroke-width="0.501" stroke-linejoin="bevel" fill-rule="evenodd" xmlns:xlink="http://www.w3.org/1999/xlink" xmlns="http://www.w3.org/2000/svg" version="1.1" overflow="visible" width="75pt" height="75pt" viewBox="0 0 75 75">
 <defs>
	</defs>
 <g id="Document" fill="none" stroke="black" font-family="Times New Roman" font-size="16" transform="scale(1 -1)">
  <g id="Spread" transform="translate(0 -75)">
   <g id="Layer 1">
    <path d="M 35.451,4.363 C 32.383,6.014 36.064,11.829 36.807,15.407 L 36.875,16.26 L 35.426,16.033 C 31.782,15.694 27.479,16.318 24.999,16.935 L 23.851,17.268 L 23.91,16.693 C 24.622,13.163 27.586,7.946 25.348,5.631 C 22.079,2.248 18.241,7.614 17.067,9.517 C 11.317,18.835 10.346,34.016 15.884,43.431 C 16.783,44.96 18.32,47.509 19.66,48.949 C 20.014,49.33 20.491,49.777 20.903,50.163 L 21.348,50.585 C 21.288,50.631 21.24,50.689 21.209,50.755 L 21.233,50.742 L 20.725,51.012 C 19.601,51.668 18.799,52.386 17.888,53.782 C 16.473,55.952 16.706,59.819 16.281,61.825 C 15.125,67.276 8.468,66.948 7.079,62.944 C 6.488,61.239 7.682,55.81 4.236,56.007 C -1.046,56.306 0.175,64.532 1.852,67.338 C 4.303,71.443 11.17,74.357 15.704,72.144 C 17.025,71.5 19.189,70.363 20.534,67.96 C 20.878,67.344 21.404,66.468 21.575,65.86 C 21.694,65.434 21.842,64.79 21.864,64.302 C 21.948,62.415 22.47,59.245 23.264,57.613 C 24.115,55.858 25.737,54.744 27.274,54.983 L 32.169,55.8 C 37.34,56.473 43.337,54.702 47.562,51.647 L 48.801,50.635 L 49.4,51.611 C 51.857,55.296 56.618,60.417 60.355,59.896 C 60.414,59.888 60.471,59.869 60.522,59.841 L 60.719,59.734 C 60.763,59.71 60.803,59.679 60.837,59.643 C 61.567,58.881 61.458,55.511 61.499,53.126 C 61.792,53.281 62.215,53.51 62.585,53.706 C 63.349,54.11 64.32,54.61 65.291,55.04 C 66.252,55.466 67.251,55.84 68.059,55.972 C 68.459,56.037 68.867,56.053 69.217,55.945 C 69.6,55.827 69.908,55.557 70.019,55.12 C 70.328,53.895 69.796,52.061 69.384,50.534 C 68.908,48.773 68.464,47.102 68.606,45.794 C 68.612,45.731 68.607,45.672 68.592,45.615 C 68.753,45.407 68.903,45.201 69.042,45 C 70.455,42.939 71.36,40.072 71.571,37.982 C 71.817,35.517 71.438,33.497 70.681,31.848 C 71.799,31.267 73.101,30.799 74.286,30.3 C 74.534,30.195 74.65,29.908 74.547,29.66 C 74.441,29.412 74.155,29.295 73.906,29.4 C 72.721,29.9 71.398,30.375 70.228,30.982 C 70.065,30.703 69.891,30.437 69.706,30.183 C 70.598,29.318 71.603,28.518 72.674,27.868 C 72.905,27.728 72.978,27.428 72.838,27.197 C 72.698,26.966 72.398,26.894 72.167,27.033 C 71.053,27.709 70.014,28.531 69.093,29.418 C 66.409,26.377 62.302,25.302 60.3,25.2 L 59.706,25.203 L 59.539,24.413 C 59.471,24.131 59.396,23.828 59.313,23.508 C 59.292,23.398 59.271,23.286 59.25,23.173 C 59.238,23.109 59.213,23.05 59.179,22.998 C 58.304,19.686 56.869,14.922 56.562,12.966 L 56.526,12.266 L 57.2,11.659 C 60.685,7.777 52.684,3.57 50.433,9.881 C 50.092,10.838 49.929,11.729 49.827,12.618 L 49.646,14.648 C 49.628,14.638 49.61,14.629 49.585,14.616 C 49.425,14.482 49.276,14.4 49.131,14.322 C 49.048,14.277 48.956,14.26 48.868,14.265 C 48.426,14.059 47.935,13.853 47.492,13.728 L 46.943,13.676 L 46.902,13.603 C 46.889,13.589 46.875,13.576 46.86,13.564 C 44.777,10.186 41.671,1.014 35.451,4.363 Z M 46.218,14.371 C 47.596,17.143 50.05,24.163 48.528,28.817 C 48.444,29.073 48.584,29.349 48.84,29.432 C 49.096,29.517 49.372,29.377 49.455,29.121 C 50.97,24.494 48.898,17.96 47.466,14.732 C 48.114,14.986 49.012,15.489 49.613,15.739 C 52.016,17.284 54.717,19.99 55.396,23.009 C 55.456,23.273 55.716,23.438 55.98,23.378 C 56.242,23.32 56.408,23.058 56.349,22.796 C 55.637,19.627 53.006,16.884 50.585,15.213 C 50.76,13.311 50.747,11.908 51.353,10.209 C 53.161,5.141 59.976,8.508 55.762,11.645 C 55.675,11.71 55.613,11.801 55.579,11.919 C 55.26,13.137 57.401,20.138 58.398,23.932 C 58.636,25.238 58.779,26.27 58.84,27.33 C 58.909,28.541 58.872,29.801 58.736,31.558 C 58.716,31.826 58.916,32.061 59.186,32.082 C 59.454,32.102 59.69,31.901 59.71,31.632 C 59.846,29.856 59.888,28.547 59.814,27.275 C 59.793,26.909 59.764,26.547 59.724,26.179 L 59.924,26.15 C 61.982,26.071 71.566,28.251 70.598,37.883 C 70.402,39.832 69.545,42.539 68.237,44.447 C 66.388,47.144 62.339,50.42 61.001,50.77 C 60.813,50.819 60.672,50.975 60.642,51.167 C 60.307,53.318 60.599,57.226 60.301,58.563 L 60.15,58.923 L 58.828,58.823 C 55.55,57.976 51.45,53.264 49.574,50.033 C 52.109,47.969 56.253,40.668 56.98,37.781 C 57.046,37.518 56.888,37.253 56.626,37.187 C 56.365,37.121 56.099,37.281 56.034,37.541 C 55.368,40.18 51.539,46.94 49.178,49.085 L 48.982,49.254 L 48.896,49.299 C 48.804,49.356 48.722,49.424 48.65,49.501 C 48.631,49.515 48.611,49.53 48.593,49.547 C 44.605,53.243 37.903,55.562 32.312,54.834 L 27.43,54.02 C 25.306,53.687 23.344,55.212 22.386,57.186 C 21.506,58.995 20.975,62.323 20.888,64.258 C 20.871,64.63 20.748,65.188 20.634,65.598 C 20.505,66.058 20.073,66.785 19.682,67.482 C 18.493,69.606 16.572,70.635 15.277,71.266 C 11.3,73.206 4.945,70.612 2.69,66.837 C 0.972,63.96 0.568,57.193 4.29,56.981 C 6.518,56.854 5.439,61.196 6.156,63.263 C 7.845,68.132 15.859,68.521 17.236,62.027 C 17.773,59.494 17.404,56.312 18.707,54.316 C 19.785,52.662 20.634,52.103 22.377,51.242 C 24.458,50.479 27.686,49.775 30.619,50.883 C 30.871,50.979 31.154,50.852 31.249,50.6 C 31.344,50.348 31.218,50.065 30.965,49.97 C 27.872,48.8 24.558,49.455 22.336,50.201 C 21.844,49.688 20.792,48.732 20.375,48.284 C 19.121,46.936 17.639,44.487 16.726,42.936 C 11.397,33.875 12.311,19.084 17.898,10.03 C 19.434,7.541 22.414,4 24.646,6.31 C 26.589,8.322 22.928,13.811 22.791,17.73 C 21.712,18.294 20.409,19.199 19.743,19.954 C 19.564,20.155 19.583,20.464 19.785,20.642 C 19.986,20.821 20.296,20.802 20.474,20.6 C 21.049,19.949 22.269,19.103 23.256,18.588 C 23.386,18.595 23.521,18.55 23.617,18.426 C 23.732,18.358 23.823,18.32 23.908,18.286 L 24.215,18.158 C 26.242,17.501 32.767,16.293 37.208,17.292 C 37.252,17.639 37.292,17.991 37.33,18.342 C 37.468,19.634 37.557,20.899 37.64,21.857 C 37.663,22.126 37.899,22.325 38.168,22.302 C 38.436,22.279 38.636,22.043 38.613,21.774 C 38.531,20.819 38.44,19.546 38.302,18.238 C 38.163,16.933 37.975,15.574 37.695,14.454 C 37.676,14.381 37.643,14.315 37.597,14.261 C 36.633,10.564 33.905,6.304 35.913,5.223 C 41.27,2.338 43.552,10.381 46.218,14.371 Z M 61.445,37.536 C 61.538,37.758 61.758,37.966 62.145,38.135 C 63.612,38.778 66.174,36.551 64.634,35.6 C 63.212,34.722 61.057,36.596 61.445,37.536 Z M 66.399,38.428 C 66.399,39.191 66.931,39.809 67.584,39.809 C 68.237,39.809 68.767,39.191 68.767,38.428 C 68.767,37.665 68.237,37.047 67.584,37.047 C 66.931,37.047 66.399,37.665 66.399,38.428 Z M 26.998,39.384 C 27.104,39.928 27.241,40.489 27.417,41.045 C 26.998,40.885 26.567,40.7 26.102,40.494 C 25.856,40.384 25.567,40.495 25.457,40.741 C 25.347,40.988 25.458,41.276 25.704,41.387 C 26.289,41.647 26.835,41.879 27.38,42.073 C 27.089,42.504 26.82,42.978 26.581,43.516 C 26.472,43.761 26.582,44.05 26.829,44.16 C 27.076,44.269 27.364,44.159 27.473,43.911 C 27.662,43.487 27.87,43.108 28.097,42.758 C 28.382,43.338 28.721,43.889 29.12,44.386 C 29.289,44.597 29.597,44.629 29.806,44.46 C 30.017,44.292 30.05,43.985 29.882,43.774 C 29.579,43.398 29.313,42.982 29.08,42.539 C 29.714,42.654 30.389,42.713 31.157,42.702 C 31.426,42.698 31.642,42.476 31.637,42.207 C 31.634,41.937 31.411,41.722 31.142,41.726 C 30.361,41.738 29.688,41.671 29.049,41.538 C 29.554,40.981 30.118,40.459 30.738,39.87 C 30.932,39.683 30.94,39.374 30.755,39.179 C 30.568,38.984 30.259,38.976 30.064,39.162 C 29.475,39.721 28.903,40.248 28.372,40.829 C 28.199,40.289 28.062,39.739 27.957,39.197 C 27.905,38.933 27.648,38.759 27.384,38.811 C 27.119,38.863 26.946,39.119 26.998,39.384 Z M 56.215,42.05 C 56.215,42.837 56.761,43.477 57.437,43.477 C 58.111,43.477 58.659,42.837 58.659,42.05 C 58.659,41.263 58.111,40.624 57.437,40.624 C 56.761,40.624 56.215,41.263 56.215,42.05 Z M 68.441,50.79 C 68.934,52.617 69.293,54.005 69.072,54.88 C 69.056,54.944 69.032,54.979 68.929,55.012 C 68.792,55.054 68.56,55.064 68.216,55.008 C 67.538,54.897 66.635,54.567 65.686,54.146 C 64.748,53.731 63.8,53.244 63.041,52.842 C 62.286,52.443 61.768,52.155 61.539,52.057 L 61.583,51.577 L 61.985,51.413 C 63.481,50.647 65.845,48.718 67.618,46.768 C 67.698,48.062 68.091,49.494 68.441,50.79 Z" stroke="none" fill="#000000" stroke-width="0.5" fill-rule="evenodd" marker-start="none" marker-end="none" stroke-miterlimit="79.8403193612775"/>
   </g>
  </g>
 </g>
</svg>
