<?xml version="1.0" standalone="no"?>
<!DOCTYPE svg PUBLIC "-//W3C//DTD SVG 1.1//EN" "http://www.w3.org/Graphics/SVG/1.1/DTD/svg11.dtd">
<!--Generator: Xara Designer (www.xara.com), SVG filter version: 6.0.0.4-->
<svg stroke-width="0.501" stroke-linejoin="bevel" fill-rule="evenodd" xmlns:xlink="http://www.w3.org/1999/xlink" xmlns="http://www.w3.org/2000/svg" version="1.1" overflow="visible" width="75pt" height="75pt" viewBox="0 0 75 75">
 <defs>
	</defs>
 <g id="Document" fill="none" stroke="black" font-family="Times New Roman" font-size="16" transform="scale(1 -1)">
  <g id="Spread" transform="translate(0 -75)">
   <g id="Layer 1">
    <path d="M 18.562,13.133 C 12.762,20.072 10.042,25.016 7.715,34.538 C 6.397,39.934 6.414,46.929 7.251,53.029 C 5.973,52.887 4.677,52.686 3.364,52.685 C 3.083,52.685 2.853,52.914 2.853,53.195 C 2.852,53.478 3.082,53.706 3.363,53.706 C 4.69,53.708 6.038,53.931 7.404,54.071 C 7.523,54.836 7.654,55.581 7.797,56.305 C 7.503,56.345 7.198,56.379 6.89,56.41 C 5.828,56.512 4.759,56.544 3.97,56.489 C 3.689,56.469 3.443,56.683 3.424,56.962 C 3.405,57.244 3.618,57.489 3.898,57.509 C 4.763,57.568 5.892,57.532 6.987,57.427 C 7.33,57.394 7.672,57.354 8.006,57.307 C 8.182,58.108 8.372,58.878 8.576,59.608 C 10.166,65.319 15.373,74.35 18.337,74.618 C 20.787,74.841 21.624,69.807 21.738,67.726 L 21.738,67.653 L 22.982,67.819 C 24.366,67.864 25.931,67.685 27.242,67.455 L 28.65,67.161 L 29.063,67.639 C 30.663,69.439 33.348,72.051 35.56,71.764 C 35.588,71.761 35.617,71.754 35.645,71.747 C 37.073,71.306 36.956,68.765 36.589,66.3 L 36.229,64.191 L 37.002,63.349 C 37.962,62.144 38.651,60.752 39.239,59.2 C 39.785,59.549 40.281,59.758 40.777,59.923 C 41.404,60.131 42.006,60.258 42.736,60.521 C 43,60.617 43.294,60.479 43.39,60.214 C 43.485,59.948 43.347,59.655 43.082,59.56 C 42.316,59.284 41.685,59.147 41.099,58.953 C 40.613,58.792 40.14,58.587 39.594,58.209 C 39.715,57.854 39.834,57.492 39.95,57.123 C 40.611,57.357 41.166,57.552 41.735,57.697 C 42.332,57.847 42.943,57.942 43.738,57.984 C 44.019,58 44.259,57.783 44.274,57.502 C 44.29,57.22 44.074,56.979 43.791,56.964 C 43.056,56.925 42.511,56.84 41.986,56.708 C 41.721,56.64 41.457,56.56 41.17,56.465 C 40.89,56.372 40.593,56.266 40.253,56.145 C 40.725,54.593 41.201,52.925 41.803,51.165 C 41.826,51.18 41.848,51.191 41.873,51.201 C 43.55,51.914 46.122,51.803 48.132,50.949 C 50.173,50.08 51.814,48.333 51.201,45.752 C 50.747,43.837 49.087,43.264 47.513,43.355 C 46.668,43.403 45.787,43.635 45.007,43.973 C 46.196,41.903 47.698,39.76 49.659,37.565 C 51.493,35.514 66.556,22.262 61.917,17.203 C 59.81,14.904 55.384,17.88 53.005,19.784 L 52.159,20.491 L 51.978,19.461 C 51.66,18.268 51.154,17.114 50.476,16.036 C 52.369,12.96 58.003,10.013 61.987,11.009 C 63.74,11.447 65.236,12.678 66.028,14.26 C 67.059,16.322 66.372,18.246 65.76,19.965 C 65.473,20.772 65.161,21.629 65.22,22.357 C 65.289,23.222 65.849,23.81 66.911,24.122 C 70.815,25.27 73.294,16.08 71.614,12.029 C 68.285,4 60.724,3.267 54.043,5.758 C 52.032,6.506 47.037,9.929 45.888,11.541 C 45.139,11.077 44.334,10.665 43.476,10.314 L 41.837,9.774 L 42.121,9.393 C 44.023,7.255 47.939,4.833 46.287,2.253 C 41.958,-4.504 22.171,8.816 18.562,13.133 Z M 45.426,2.804 C 46.718,4.823 42.108,7.081 40.564,9.786 C 40.556,9.799 40.548,9.815 40.562,9.831 C 40.497,9.826 40.453,9.864 40.416,9.912 C 39.551,11.007 38.754,11.827 37.921,13.083 C 37.764,13.318 37.829,13.636 38.064,13.792 C 38.299,13.947 38.617,13.883 38.772,13.649 C 39.551,12.472 40.299,11.7 41.169,10.608 C 47.186,12.246 50.888,16.771 51.306,21.519 C 51.313,21.581 51.328,21.638 51.352,21.689 C 51.329,21.772 51.326,21.861 51.349,21.951 C 51.508,22.579 51.397,23.29 51.43,24.035 C 51.442,24.316 51.68,24.536 51.963,24.523 C 52.243,24.511 52.463,24.273 52.451,23.991 C 52.42,23.281 52.542,22.498 52.34,21.701 C 52.339,21.698 52.338,21.694 52.338,21.689 C 54.058,20.152 59.345,15.909 61.164,17.894 C 62.894,19.781 60.827,23.678 57.364,27.9 C 54.021,31.975 50.018,35.63 48.897,36.885 C 38.301,48.746 40.85,58.425 35.332,63.662 C 35.208,63.78 35.151,63.954 35.181,64.123 C 35.86,67.904 35.993,69.998 35.563,70.601 L 35.373,70.747 L 34.698,70.706 C 32.914,70.302 30.636,67.938 29.231,66.269 C 29.105,66.121 28.906,66.056 28.716,66.104 C 26.812,66.58 23.277,67.118 21.374,66.583 C 21.033,66.488 20.701,66.758 20.725,67.11 C 20.844,68.799 19.827,73.728 18.429,73.601 C 16.311,73.407 11.204,65.235 9.56,59.332 C 9.366,58.636 9.184,57.904 9.016,57.141 C 9.363,57.075 9.685,57 9.969,56.919 C 10.241,56.841 10.397,56.557 10.318,56.286 C 10.241,56.016 9.958,55.86 9.687,55.937 C 9.43,56.011 9.132,56.079 8.807,56.142 C 8.678,55.498 8.559,54.836 8.452,54.159 C 8.85,54.182 9.25,54.192 9.65,54.182 C 9.933,54.175 10.156,53.94 10.148,53.658 C 10.141,53.377 9.906,53.153 9.624,53.161 C 9.183,53.173 8.741,53.157 8.296,53.125 C 7.442,47.08 7.407,40.102 8.708,34.781 C 10.994,25.419 13.639,20.617 19.346,13.789 C 23.238,9.132 41.941,-2.634 45.426,2.804 Z M 70.67,12.421 C 72.24,16.206 69.73,23.887 67.199,23.142 C 66.414,22.911 66.265,22.599 66.239,22.274 C 66.201,21.815 66.405,21.195 66.722,20.307 C 67.318,18.637 68.19,16.303 66.941,13.803 C 66.02,11.961 64.285,10.53 62.235,10.018 C 57.918,8.939 52.141,11.874 49.851,15.13 C 49.005,14.006 47.96,12.984 46.737,12.108 C 47.702,10.764 52.497,7.425 54.399,6.715 C 60.809,4.326 67.639,5.108 70.67,12.421 Z M 26.303,37.358 C 25.972,37.952 25.99,39.027 26.121,39.878 C 26.216,40.484 26.402,41.238 26.749,41.735 C 26.428,41.942 26.227,42.11 26.045,42.287 C 25.816,42.508 25.662,42.697 25.282,43.012 C 25.064,43.193 25.035,43.515 25.215,43.731 C 25.396,43.948 25.717,43.978 25.935,43.797 C 26.36,43.444 26.55,43.219 26.756,43.02 C 26.847,42.932 26.945,42.846 27.077,42.747 C 27.214,42.648 27.393,42.531 27.652,42.382 C 27.747,42.327 27.818,42.245 27.862,42.152 C 28.178,42.037 28.581,41.807 29.038,41.69 C 29.563,41.556 30.239,41.528 31.078,41.958 C 32.607,42.742 32.722,44.089 31.991,45.445 C 31.238,46.838 29.641,48.05 28.025,48.22 C 22.752,48.775 19.276,44.043 19.369,39.518 C 19.376,39.236 19.151,39.002 18.868,38.997 C 18.587,38.991 18.353,39.215 18.348,39.496 C 18.246,44.433 22.062,49.875 28.132,49.236 C 30.13,49.026 32.002,47.576 32.89,45.929 C 33.807,44.228 33.711,42.16 31.545,41.049 C 30.453,40.49 29.517,40.512 28.784,40.7 C 28.284,40.829 27.882,41.032 27.647,41.137 L 27.592,41.161 L 27.557,41.113 C 27.422,40.888 27.238,40.415 27.132,39.722 C 26.998,38.864 27.053,38.112 27.195,37.854 C 27.332,37.608 27.244,37.297 26.997,37.16 C 26.751,37.023 26.439,37.112 26.303,37.358 Z M 50.208,45.988 C 50.663,47.91 49.527,49.244 47.732,50.007 C 45.919,50.779 43.64,50.843 42.271,50.26 C 42.228,50.241 42.182,50.229 42.136,50.224 C 42.659,48.784 43.279,47.285 44.056,45.74 C 44.822,45.061 46.249,44.451 47.571,44.374 C 48.887,44.3 49.91,44.731 50.208,45.988 Z M 25.607,55.239 C 25.607,55.79 26.374,56.237 27.319,56.237 C 28.263,56.237 29.03,55.79 29.03,55.239 C 29.03,54.689 28.263,54.241 27.319,54.241 C 26.374,54.241 25.607,54.689 25.607,55.239 Z M 17.813,57.141 C 17.813,58.269 18.644,59.186 19.667,59.186 C 20.69,59.186 21.52,58.269 21.52,57.141 C 21.52,56.013 20.69,55.097 19.667,55.097 C 18.644,55.097 17.813,56.013 17.813,57.141 Z M 31.027,57.236 C 31.027,58.364 31.857,59.28 32.88,59.28 C 33.903,59.28 34.734,58.364 34.734,57.236 C 34.734,56.108 33.903,55.192 32.88,55.192 C 31.857,55.192 31.027,56.108 31.027,57.236 Z" stroke="none" fill="#000000" stroke-width="0.5" fill-rule="evenodd" marker-start="none" marker-end="none" stroke-miterlimit="79.8403193612775"/>
   </g>
  </g>
 </g>
</svg>
