<?xml version="1.0" standalone="no"?>
<!DOCTYPE svg PUBLIC "-//W3C//DTD SVG 1.1//EN" "http://www.w3.org/Graphics/SVG/1.1/DTD/svg11.dtd">
<!--Generator: Xara Designer (www.xara.com), SVG filter version: 6.0.0.4-->
<svg stroke-width="0.501" stroke-linejoin="bevel" fill-rule="evenodd" xmlns:xlink="http://www.w3.org/1999/xlink" xmlns="http://www.w3.org/2000/svg" version="1.1" overflow="visible" width="75pt" height="75pt" viewBox="0 0 75 75">
 <defs>
	</defs>
 <g id="Document" fill="none" stroke="black" font-family="Times New Roman" font-size="16" transform="scale(1 -1)">
  <g id="Spread" transform="translate(0 -75)">
   <g id="Layer 1">
    <path d="M 20.947,22.004 C 19.767,22.163 18.074,22.706 17.443,22.844 L 17.249,22.875 L 15.442,22.563 C 11.376,22.01 8.828,22.688 6.301,22.992 C 5.556,23.082 4.243,22.675 3.401,22.759 C 2.294,22.869 1.387,23.861 1.35,24.879 L 1.358,25.006 L 1.158,25.259 C 0.913,25.61 0.773,25.953 0.75,26.288 C 0.717,26.752 0.914,27.139 1.232,27.445 C 1.837,28.027 2.951,28.378 4.121,28.604 C 6.213,29.007 8.792,29.063 10.066,29.07 L 10.453,29.071 L 10.376,29.225 C 10.321,29.357 10.279,29.486 10.254,29.601 L 10.243,29.673 C 10.229,29.827 10.265,29.957 10.335,30.067 C 10.571,30.444 10.839,30.403 11.04,30.804 C 11.724,32.172 10.888,34.716 9.484,35.219 L 8.89,35.481 C 8.555,35.69 8.314,35.991 8.204,36.442 L 8.188,36.568 L 7.383,36.719 C 6.575,36.913 5.868,37.191 5.058,37.418 C 4.879,37.469 4.774,37.656 4.824,37.835 C 4.875,38.014 5.061,38.119 5.24,38.068 C 6.062,37.838 6.752,37.566 7.52,37.38 L 8.151,37.261 L 8.156,37.399 L 8.158,37.428 L 8.181,37.719 L 8.114,37.716 C 8.071,37.722 8.028,37.736 7.988,37.761 C 7.719,37.922 7.237,38.157 6.735,38.376 C 6.232,38.596 5.735,38.789 5.434,38.872 C 5.254,38.921 5.149,39.107 5.198,39.287 C 5.248,39.466 5.433,39.571 5.613,39.522 C 5.964,39.426 6.498,39.217 7.006,38.994 C 7.515,38.772 8.027,38.523 8.34,38.334 L 8.416,38.466 C 8.717,38.929 9.223,39.041 9.607,39.169 C 10.094,39.331 10.464,39.521 10.954,39.848 L 11.456,40.202 L 11.522,40.285 C 11.809,40.658 12.606,41.724 13.087,42.176 C 13.852,42.895 14.666,43.284 15.458,43.489 L 15.528,43.503 L 15.551,43.585 C 15.766,44.01 16.051,45.129 16.411,46.091 C 16.594,46.579 16.808,47.061 17.062,47.409 C 17.316,47.757 17.682,48.066 18.164,47.957 C 18.383,47.908 18.599,47.743 18.782,47.568 C 18.978,47.381 19.184,47.134 19.376,46.853 C 19.567,46.574 19.75,46.251 19.9,45.907 L 19.982,45.684 L 20.249,46.12 C 20.91,47.162 21.588,47.982 22.305,47.778 C 23.593,47.41 24.951,44.457 25.231,42.12 L 25.256,41.649 L 25.972,41.917 C 28.635,43.203 31.737,46.544 33.653,48.557 C 37.373,52.468 43.141,54.039 48.654,53.252 C 50.748,52.953 52.501,52.171 54.091,51.042 C 56.082,49.629 57.662,47.529 58.889,45.599 C 60.904,42.434 63.99,35.969 67.5,35.345 C 68.377,35.189 69.507,34.925 70.529,35.845 C 71.016,36.282 71.241,37.617 72.421,37.898 C 74.106,38.302 75.337,36.62 74.917,35.097 C 73.987,31.73 69.471,29.773 66.308,30.617 C 63.406,31.391 60.667,34.04 59.073,36.638 C 58.852,36.998 57.918,38.72 57.17,40.049 L 57.171,40.024 C 57.408,37.232 57.011,32.499 55.23,29.603 C 54.158,27.862 52.824,25.989 51.273,24.588 C 49.455,22.947 46.949,21.608 44.789,22.248 C 44.553,22.318 44.349,22.406 44.175,22.51 L 44.139,22.538 L 44.071,22.525 C 43.528,22.525 42.892,22.523 42.333,22.649 C 41.767,22.777 41.217,23.049 40.921,23.641 C 40.437,24.608 40.872,25.505 41.491,26.114 C 42.029,26.642 42.765,27.027 43.373,27.165 L 43.407,27.278 C 43.42,27.322 43.435,27.362 43.448,27.4 C 43.513,27.59 43.586,27.778 43.66,27.997 C 43.734,28.216 43.797,28.432 43.834,28.636 L 43.855,28.819 L 43.38,28.444 C 41.352,26.864 38.616,24.93 36.235,23.946 C 33.299,22.732 30.173,22.063 26.6,21.771 C 24.841,21.626 22.805,21.754 20.947,22.004 Z M 26.545,22.443 C 30.065,22.731 33.12,23.388 35.978,24.57 C 39.425,25.994 43.644,29.475 45.282,30.867 L 45.481,31.037 L 44.979,31.258 C 43.551,31.976 41.694,33.519 41.238,36.532 C 41.21,36.716 41.337,36.888 41.521,36.916 C 41.704,36.944 41.877,36.817 41.905,36.633 C 42.389,33.436 44.59,32.079 45.876,31.599 L 46.176,31.503 L 46.303,31.483 C 47.203,31.075 47.536,30.4 47.547,29.202 C 47.553,28.659 47.327,27.013 46.607,26.436 C 46.548,26.388 46.475,26.362 46.399,26.362 C 45.547,26.357 44.362,25.982 44.094,25.297 C 43.736,24.382 43.727,23.266 44.981,22.895 C 46.777,22.363 49.034,23.475 50.821,25.089 C 52.302,26.427 53.596,28.235 54.656,29.957 C 56.785,33.418 56.796,39.679 56.268,41.426 L 56.156,41.713 L 55.76,42.448 C 55.383,43.166 55.051,43.826 54.552,44.525 C 54.443,44.676 54.478,44.887 54.629,44.995 C 54.781,45.103 54.991,45.069 55.1,44.917 C 55.45,44.428 55.721,43.959 55.975,43.487 L 56.73,42.071 L 56.813,41.961 C 57.368,41.158 59.399,37.396 59.648,36.991 C 61.193,34.472 63.81,31.981 66.482,31.269 C 69.367,30.499 73.456,32.341 74.267,35.277 C 74.583,36.421 73.651,37.499 72.578,37.242 C 71.727,37.039 71.768,36.051 70.981,35.343 C 69.678,34.17 68.2,34.535 67.382,34.68 C 63.485,35.374 60.166,42.337 58.32,45.237 C 57.106,47.145 55.583,49.155 53.7,50.492 C 52.187,51.567 50.533,52.302 48.558,52.584 C 43.219,53.347 37.684,51.816 34.142,48.093 C 32.164,46.015 28.61,42.151 25.617,41.033 L 25.381,40.958 L 25.432,40.547 C 25.467,40.314 25.516,40.095 25.606,39.873 C 25.675,39.701 25.591,39.504 25.418,39.434 C 25.245,39.365 25.049,39.449 24.979,39.622 C 24.864,39.908 24.805,40.182 24.765,40.446 L 24.702,40.95 L 24.64,41.029 C 24.618,41.075 24.606,41.127 24.608,41.183 C 24.666,43.556 23.09,46.852 22.12,47.129 C 21.93,47.183 21.52,46.844 20.872,45.839 C 20.736,45.627 20.594,45.396 20.451,45.158 L 20.218,44.766 L 20.214,44.695 C 20.192,44.61 20.138,44.536 20.057,44.489 L 20.017,44.431 C 19.726,43.946 19.436,43.479 19.168,43.123 L 19.129,43.09 L 19.048,42.926 C 18.98,42.799 18.898,42.657 18.815,42.516 C 18.731,42.377 18.643,42.237 18.562,42.117 C 18.485,42.003 18.402,41.889 18.328,41.813 C 18.199,41.679 17.985,41.674 17.851,41.804 C 17.717,41.933 17.713,42.146 17.842,42.28 C 17.871,42.31 17.926,42.381 18.003,42.495 C 18.075,42.602 18.156,42.731 18.236,42.863 L 18.316,43.004 L 17.672,43.022 C 16.373,43.051 14.896,42.95 13.549,41.685 C 13.031,41.198 12.171,40.001 11.948,39.737 L 11.889,39.681 C 11.073,39.088 10.566,38.778 9.82,38.529 C 9.207,38.325 8.83,38.301 8.83,37.396 L 8.828,37.364 C 8.728,36.312 9.084,36.046 9.707,35.854 C 11.562,35.192 12.476,32.167 11.643,30.502 C 11.472,30.16 11.142,29.884 10.989,29.768 L 10.922,29.719 L 11.154,29.173 C 11.26,28.993 11.38,28.842 11.47,28.782 C 11.625,28.678 11.667,28.469 11.564,28.314 L 11.375,28.188 L 11.875,28.254 C 13.489,28.485 15.172,28.936 16.248,30.335 C 16.361,30.482 16.574,30.51 16.721,30.397 C 16.869,30.283 16.896,30.071 16.783,29.923 C 15.534,28.299 13.611,27.82 11.97,27.586 C 7.848,26.997 6.036,27.108 3.362,26.261 C 1.207,25.579 2.002,23.577 3.468,23.43 C 4.06,23.371 5.639,23.751 6.382,23.662 C 9.33,23.308 12.104,22.497 17.144,23.541 L 17.193,23.548 L 17.229,23.55 L 17.259,23.55 L 17.386,23.568 C 17.81,23.636 18.657,23.819 19.551,24.168 C 20.581,24.571 21.611,25.171 22.163,26.012 C 22.265,26.168 22.474,26.212 22.63,26.109 C 22.786,26.007 22.829,25.798 22.727,25.642 C 22.058,24.623 20.866,23.958 19.797,23.54 C 19.527,23.434 19.261,23.343 19.008,23.265 L 18.762,23.196 L 18.871,23.167 C 19.614,22.969 20.449,22.752 21.037,22.673 C 22.868,22.426 24.852,22.304 26.545,22.443 Z M 43.485,23.213 L 43.44,23.277 C 43.066,24.015 43.226,24.93 43.466,25.543 C 43.795,26.385 44.793,26.801 45.635,26.958 L 46.225,27.018 L 46.48,27.382 C 46.737,27.93 46.877,28.779 46.873,29.196 C 46.865,29.97 46.72,30.375 46.402,30.641 L 46.198,30.764 L 46.036,30.624 C 45.797,30.418 45.437,30.11 44.985,29.735 L 44.508,29.343 L 44.52,29.312 C 44.606,28.792 44.448,28.221 44.3,27.781 C 44.226,27.563 44.143,27.345 44.085,27.179 C 44.019,26.988 44.001,26.901 44.001,26.874 C 44.001,26.702 43.872,26.558 43.702,26.538 C 43.225,26.484 42.486,26.145 41.964,25.632 C 41.453,25.129 41.221,24.549 41.524,23.943 C 41.78,23.431 42.378,23.269 43.191,23.219 L 43.485,23.213 Z M 1.602,25.826 L 1.628,25.876 C 1.903,26.294 2.393,26.662 3.158,26.905 C 5.557,27.663 7.369,27.689 10.464,28.067 L 11.306,28.178 L 11.096,28.22 C 11.003,28.282 10.909,28.371 10.821,28.476 L 10.786,28.526 L 10.766,28.495 C 10.705,28.435 10.62,28.397 10.528,28.397 C 9.531,28.397 6.567,28.389 4.249,27.942 C 3.069,27.714 2.144,27.386 1.699,26.959 C 1.491,26.758 1.407,26.557 1.422,26.334 C 1.431,26.215 1.469,26.074 1.551,25.911 L 1.602,25.826 Z M 10.744,30.767 C 10.982,31.7 10.995,33.12 9.946,34.548 C 10.995,33.12 10.982,31.7 10.744,30.767 L 10.615,30.361 L 10.744,30.767 Z M 16.062,35.868 C 16.035,36.422 15.498,37.075 14.74,37.507 C 13.975,37.942 13.19,38.042 12.747,37.753 C 12.591,37.651 12.382,37.695 12.28,37.851 C 12.178,38.007 12.222,38.216 12.377,38.318 C 13.143,38.818 14.235,38.57 15.073,38.093 C 15.911,37.617 16.692,36.797 16.736,35.901 C 16.745,35.715 16.601,35.557 16.415,35.548 C 16.229,35.539 16.071,35.682 16.062,35.868 Z M 16.303,43.64 L 16.62,43.677 C 16.996,43.706 17.357,43.708 17.695,43.7 L 18.725,43.668 L 19.073,44.177 L 19.513,44.907 L 19.449,45.185 C 19.31,45.642 19.077,46.095 18.819,46.473 C 18.648,46.723 18.472,46.932 18.316,47.08 C 18.147,47.242 18.041,47.293 18.015,47.299 C 17.94,47.316 17.806,47.285 17.606,47.011 C 17.409,46.741 17.221,46.332 17.043,45.855 C 16.774,45.135 16.55,44.328 16.348,43.758 L 16.303,43.64 Z" fill-rule="evenodd" stroke="none" fill="#000000" stroke-width="0.5" marker-start="none" marker-end="none" stroke-miterlimit="79.8403193612775"/>
   </g>
  </g>
 </g>
</svg>
