<?xml version="1.0" standalone="no"?>
<!DOCTYPE svg PUBLIC "-//W3C//DTD SVG 1.1//EN" "http://www.w3.org/Graphics/SVG/1.1/DTD/svg11.dtd">
<!--Generator: Xara Designer (www.xara.com), SVG filter version: 6.0.0.4-->
<svg stroke-width="0.501" stroke-linejoin="bevel" fill-rule="evenodd" xmlns:xlink="http://www.w3.org/1999/xlink" xmlns="http://www.w3.org/2000/svg" version="1.1" overflow="visible" width="75pt" height="75pt" viewBox="0 0 75 75">
 <defs>
	</defs>
 <g id="Document" fill="none" stroke="black" font-family="Times New Roman" font-size="16" transform="scale(1 -1)">
  <g id="Spread" transform="translate(0 -75)">
   <g id="Layer 1">
    <path d="M 40.521,2.707 C 39.72,4.113 40.495,5.596 41.989,6.791 C 43.372,7.898 43.992,9.736 44.254,11.81 L 44.364,13.334 L 43.768,13.212 C 42.846,13.121 41.82,13.182 40.886,13.314 L 40.045,13.469 L 39.91,12.926 C 39.179,10.362 37.411,6.356 34.797,4.122 C 33.052,2.628 29.988,1.227 27.99,3.074 C 25.321,5.544 29.119,8.659 30.494,11.264 C 32.25,14.593 32.313,21.567 31.609,24.412 C 30.806,27.65 28.124,31.766 25.198,34.067 C 24.816,33.013 24.559,31.793 24.294,30.643 C 24.014,29.435 23.687,28.092 23.074,27.467 C 21.762,26.129 20.304,26.122 19.179,26.922 C 18.115,27.679 17.408,29.114 17.335,30.574 C 17.254,32.226 17.901,34.692 19.17,36.801 C 17.895,37.005 16.098,37.587 14.603,38.226 C 14.573,38.15 14.524,38.081 14.455,38.026 C 12.913,36.79 13.4,34.855 13.092,32.086 C 12.943,30.735 11.906,29.723 10.725,29.365 C 9.52,29 8.099,29.296 7.205,30.617 C 5.009,33.858 7.685,39.56 9.891,41.388 C 8.029,43.103 6.507,45.151 5.942,47.551 C 5.852,47.528 5.754,47.505 5.652,47.482 C 5.33,47.408 4.943,47.332 4.556,47.261 C 3.781,47.121 2.988,46.997 2.683,46.956 C 2.42,46.921 2.177,47.105 2.141,47.369 C 2.106,47.632 2.29,47.875 2.554,47.911 C 2.841,47.949 3.62,48.071 4.383,48.209 C 4.764,48.279 5.136,48.351 5.437,48.42 C 5.56,48.448 5.668,48.474 5.758,48.499 C 5.702,48.84 5.656,49.177 5.679,49.267 C 5.678,49.264 5.676,49.264 5.674,49.265 C 5.076,49.299 4.324,49.396 3.584,49.514 C 2.841,49.633 2.096,49.774 1.507,49.901 C 1.247,49.956 1.08,50.213 1.136,50.472 C 1.191,50.732 1.448,50.899 1.708,50.843 C 2.282,50.72 3.01,50.582 3.736,50.466 C 4.389,50.362 5.031,50.277 5.554,50.238 C 5.218,55.225 7.145,59.309 10.787,62.463 L 12.554,63.815 L 12.71,64.778 C 12.907,66.03 13.138,67.549 13.406,68.895 C 13.725,70.489 14.189,72.393 14.98,72.835 C 17.94,74.484 20.906,68.238 21.799,65.581 L 21.934,65.142 L 22.564,65.176 C 23.495,65.204 24.719,65.164 25.601,65.097 L 26.178,65.044 L 26.523,65.93 C 27.616,68.912 28.585,72.496 30.737,72.887 C 33.811,73.446 36.077,65.967 37.101,62.089 C 40.159,61.213 47.501,57.09 50.596,52.246 C 54.406,46.286 56.159,39.651 56.548,32.841 C 56.603,31.87 56.61,30.85 56.58,29.81 C 56.634,29.794 56.686,29.77 56.735,29.735 C 59.056,28.058 61.785,25.835 64.488,26.162 C 67.448,26.521 69.64,28.944 68.707,32.098 C 68.129,34.057 66.923,34.97 65.892,35.722 C 64.94,36.416 63.752,37.185 64.388,38.774 C 65.104,40.57 67.004,42.117 70.02,40.053 C 73.846,37.436 74.756,33.449 74.468,29.79 C 74.22,26.62 71.901,23.368 69.426,21.808 C 65.19,19.137 59.125,20.068 55.935,22.894 C 55.65,20.971 55.31,19.222 54.995,17.866 C 54.1,14.037 52.048,4.447 46.455,1.648 C 44.775,0.807 41.605,0.81 40.521,2.707 Z M 46.024,2.509 C 51.116,5.059 53.112,14.039 54.056,18.085 C 54.409,19.597 54.789,21.6 55.088,23.778 C 54.954,23.977 54.988,24.249 55.172,24.408 C 55.525,27.176 55.735,30.173 55.586,32.787 C 55.204,39.466 53.488,45.933 49.784,51.729 C 46.703,56.547 39.056,60.697 36.502,61.247 C 36.242,61.305 36.077,61.56 36.132,61.82 C 36.137,61.846 36.146,61.871 36.155,61.897 C 34.649,67.564 32.584,72.243 30.91,71.94 C 29.165,71.622 28.216,67.366 26.931,64.325 C 26.841,64.112 26.612,63.993 26.386,64.042 C 25.717,64.187 22.459,64.312 21.678,64.138 C 21.544,64.108 21.412,64.136 21.306,64.208 C 21.168,64.199 21.033,64.191 20.898,64.183 C 20.669,64.168 20.444,64.152 20.22,64.132 C 19.774,64.092 19.334,64.036 18.873,63.944 C 18.613,63.893 18.36,64.062 18.307,64.323 C 18.255,64.584 18.425,64.838 18.685,64.889 C 19.188,64.99 19.665,65.049 20.135,65.092 C 20.369,65.113 20.602,65.129 20.837,65.145 C 20.871,65.147 20.906,65.149 20.941,65.151 C 20.172,67.676 17.322,73.037 15.45,71.992 C 15.169,71.836 14.735,70.628 14.351,68.707 C 13.994,66.92 13.72,64.894 13.473,63.468 C 13.451,63.338 13.378,63.224 13.269,63.151 C 8.015,59.586 5.517,54.567 6.823,48.035 C 7.462,44.84 10.043,42.211 12.986,40.145 C 14.24,39.265 17.653,37.967 19.517,37.724 C 19.594,37.714 19.666,37.686 19.726,37.643 C 20.629,38.893 21.772,39.937 23.128,40.487 C 23.373,40.587 23.654,40.468 23.755,40.221 C 23.854,39.974 23.736,39.694 23.488,39.593 C 20.174,38.249 18.168,33.26 18.298,30.622 C 18.358,29.403 18.954,28.265 19.738,27.708 C 20.459,27.195 21.394,27.13 22.386,28.142 C 22.741,28.504 23.019,29.406 23.356,30.86 C 23.652,32.146 23.969,33.682 24.503,34.93 C 25.483,37.222 27.275,38.458 27.587,38.623 L 27.609,38.634 L 27.631,38.646 C 27.872,38.758 28.159,38.655 28.272,38.414 C 28.385,38.174 28.281,37.887 28.038,37.772 L 27.993,37.746 C 27.702,37.562 26.428,36.63 25.589,34.98 C 28.759,32.583 31.668,28.173 32.543,24.644 C 33.282,21.66 33.25,14.422 31.345,10.814 C 29.968,8.204 26.725,5.557 28.645,3.781 C 30.008,2.52 32.414,3.349 34.171,4.853 C 36.755,7.063 38.513,11.266 39.111,13.666 C 38.664,13.778 38.165,13.945 37.694,14.142 C 37.006,14.429 36.297,14.809 35.879,15.227 C 35.691,15.415 35.69,15.719 35.879,15.908 C 36.066,16.096 36.372,16.096 36.56,15.908 C 36.837,15.632 37.399,15.31 38.065,15.032 C 38.719,14.758 39.394,14.562 39.847,14.503 C 39.909,14.495 39.968,14.474 40.022,14.443 C 41.418,14.147 43.193,13.996 44.408,14.291 L 44.408,14.32 L 44.408,15.953 C 44.408,16.219 44.625,16.435 44.891,16.435 C 45.156,16.435 45.372,16.219 45.372,15.953 L 45.372,13.93 C 45.372,13.926 45.371,13.923 45.368,13.921 C 45.371,13.92 45.371,13.917 45.371,13.915 C 45.286,11.029 44.815,7.819 42.59,6.039 C 41.192,4.92 40.932,3.934 41.359,3.185 C 42.049,1.973 44.503,1.748 46.024,2.509 Z M 68.913,22.623 C 71.176,24.049 73.286,27.048 73.508,29.866 C 73.778,33.318 72.919,36.902 69.476,39.257 C 67.052,40.916 65.805,39.726 65.282,38.416 C 64.964,37.618 65.332,37.323 66.459,36.5 C 67.521,35.728 68.958,34.654 69.632,32.372 C 70.775,28.505 68.001,25.618 64.605,25.205 C 61.604,24.843 58.664,27.125 56.534,28.69 C 56.452,27.142 56.295,25.572 56.1,24.078 C 58.779,21.191 64.812,20.038 68.913,22.623 Z M 10.446,30.287 C 11.326,30.554 12.034,31.29 12.134,32.193 C 12.275,33.455 12.223,34.707 12.352,35.774 C 12.481,36.84 12.796,37.844 13.691,38.641 C 13.188,38.888 12.753,39.132 12.433,39.357 C 11.818,39.789 11.209,40.251 10.624,40.742 C 10.614,40.734 10.605,40.726 10.595,40.718 C 8.573,39.156 6.182,33.844 8.002,31.157 C 8.629,30.232 9.588,30.028 10.446,30.287 Z M 16.62,43.518 C 16.328,43.866 16.148,44.314 16.046,44.758 C 15.865,45.538 15.89,46.457 16.116,47.094 C 15.578,47.153 15.042,47.381 14.581,47.798 C 14.383,47.976 14.367,48.281 14.545,48.478 C 14.723,48.676 15.027,48.692 15.225,48.514 C 16.064,47.76 17.231,47.947 17.831,48.815 C 18.038,49.116 18.493,49.084 18.658,48.757 C 18.868,48.339 19.368,48.01 19.961,47.884 C 20.561,47.757 21.117,47.863 21.427,48.134 C 21.628,48.309 21.932,48.288 22.107,48.088 C 22.282,47.887 22.261,47.583 22.061,47.407 C 21.473,46.894 20.585,46.763 19.754,46.942 C 19.696,46.769 19.649,46.553 19.612,46.287 C 19.553,45.86 19.527,45.404 19.471,44.94 C 19.417,44.501 19.33,44.009 19.116,43.626 C 18.876,43.198 18.474,42.902 17.887,42.906 C 17.346,42.907 16.921,43.159 16.62,43.518 Z M 30.252,44.095 C 29.531,44.408 28.797,44.756 28.329,45.051 C 28.104,45.193 28.035,45.49 28.177,45.714 C 28.319,45.94 28.616,46.008 28.84,45.867 C 29.241,45.615 29.916,45.29 30.635,44.979 C 31.345,44.672 32.068,44.39 32.547,44.228 C 32.798,44.142 32.933,43.868 32.846,43.616 C 32.761,43.365 32.486,43.23 32.235,43.316 C 31.726,43.49 30.981,43.78 30.252,44.095 Z M 18.274,44.097 C 18.388,44.299 18.46,44.614 18.515,45.058 C 18.566,45.482 18.596,45.971 18.658,46.421 C 18.698,46.7 18.753,46.998 18.85,47.275 C 18.628,47.398 18.423,47.546 18.247,47.718 L 18.192,47.775 L 18.131,47.721 C 17.828,47.463 17.48,47.279 17.112,47.176 C 17.128,47.08 17.115,46.98 17.071,46.886 C 16.89,46.511 16.816,45.705 16.985,44.975 C 17.067,44.619 17.198,44.329 17.358,44.138 C 17.508,43.958 17.677,43.87 17.892,43.868 C 18.087,43.868 18.187,43.939 18.274,44.097 Z M 28.919,46.734 C 28.666,46.815 28.527,47.086 28.607,47.34 C 28.69,47.593 28.961,47.732 29.214,47.651 C 30.462,47.25 32.276,46.897 33.615,46.705 C 33.879,46.668 34.062,46.424 34.023,46.161 C 33.986,45.897 33.742,45.714 33.479,45.752 C 32.115,45.948 30.241,46.309 28.919,46.734 Z M 25.043,51.577 C 25.043,52.495 25.788,53.241 26.706,53.241 C 27.624,53.241 28.37,52.495 28.37,51.577 C 28.37,50.659 27.624,49.913 26.706,49.913 C 25.788,49.913 25.043,50.659 25.043,51.577 Z M 10.205,52.348 C 10.205,53.266 10.95,54.012 11.869,54.012 C 12.787,54.012 13.533,53.266 13.533,52.348 C 13.533,51.429 12.787,50.684 11.869,50.684 C 10.95,50.684 10.205,51.429 10.205,52.348 Z" fill-rule="evenodd" stroke="none" fill="#000000" stroke-width="0.5" marker-start="none" marker-end="none" stroke-miterlimit="79.8403193612775"/>
   </g>
  </g>
 </g>
</svg>
