<?xml version="1.0" standalone="no"?>
<!DOCTYPE svg PUBLIC "-//W3C//DTD SVG 1.1//EN" "http://www.w3.org/Graphics/SVG/1.1/DTD/svg11.dtd">
<!--Generator: Xara Designer (www.xara.com), SVG filter version: 6.0.0.4-->
<svg stroke-width="0.501" stroke-linejoin="bevel" fill-rule="evenodd" xmlns:xlink="http://www.w3.org/1999/xlink" xmlns="http://www.w3.org/2000/svg" version="1.1" overflow="visible" width="75pt" height="75pt" viewBox="0 0 75 75">
 <defs>
	</defs>
 <g id="Document" fill="none" stroke="black" font-family="Times New Roman" font-size="16" transform="scale(1 -1)">
  <g id="Spread" transform="translate(0 -75)">
   <g id="Layer 1">
    <path d="M 7.773,5.921 C 1.905,11.448 0.486,18.014 0.68,25.467 C 0.765,28.727 1.933,33.665 3.456,36.818 L 4.11,38.017 L 4.128,38.049 L 5.197,39.789 C 8.187,43.96 14.208,48.147 21.916,49.262 C 27.582,50.079 28.383,49.067 31.831,51.119 C 34.323,52.601 34.791,56.322 36.899,60.495 L 37.891,62.263 L 38.686,63.908 C 40.871,68.103 44.944,74.1 46.819,74.475 C 50.271,75.165 51.004,67.755 52.476,66.353 L 52.498,66.33 C 52.657,66.159 53.221,65.957 54.098,65.697 C 55.17,67.232 59.321,72.141 62.166,71.387 C 62.304,71.351 62.423,71.284 62.523,71.201 C 62.973,70.828 63.138,70.003 63.229,69.329 C 63.336,68.545 63.382,67.578 63.419,66.614 C 63.456,65.639 63.482,64.666 63.546,63.832 C 63.611,62.965 63.71,62.359 63.851,62.057 C 63.86,62.034 63.869,62.012 63.876,61.988 C 64.764,61.448 65.555,60.843 66.17,60.165 C 68.614,57.471 70.633,53.35 70.732,49.434 C 70.758,48.402 70.723,47.446 70.596,46.52 C 71.799,46.247 72.943,45.825 74.11,45.493 C 74.386,45.414 74.545,45.126 74.467,44.851 C 74.389,44.576 74.1,44.416 73.826,44.494 C 72.655,44.828 71.548,45.235 70.414,45.497 C 70.365,45.264 70.306,45.031 70.242,44.799 C 70.686,44.663 71.183,44.456 71.645,44.243 C 72.311,43.935 72.961,43.579 73.38,43.313 C 73.622,43.159 73.692,42.839 73.539,42.597 C 73.386,42.355 73.064,42.285 72.823,42.437 C 72.449,42.675 71.841,43.009 71.208,43.302 C 70.738,43.52 70.287,43.701 69.922,43.812 C 69.303,42.132 68.281,40.399 66.678,38.324 C 65.585,36.91 60.945,32.239 59.475,31.022 C 58.595,30.291 57.388,29.023 56.197,27.6 C 56.208,27.408 56.113,27.219 55.934,27.119 C 55.572,26.914 55.144,26.043 54.875,24.417 C 54.625,22.905 54.544,20.985 54.635,19.063 C 54.725,17.139 54.982,15.241 55.391,13.769 C 55.771,12.404 56.231,11.602 56.649,11.308 L 56.767,11.245 L 57.004,11.243 C 57.94,11.184 59.015,10.762 59.852,10.069 C 60.825,9.264 61.545,8.035 61.293,6.503 C 60.968,4.52 59.086,3.45 56.445,3.47 C 56.416,3.47 56.388,3.472 56.362,3.477 C 55.013,2.076 52.428,1.698 50.607,1.935 C 46.059,2.521 42.76,7.415 40.629,12.417 L 40.214,13.503 L 39.448,12.163 C 38.993,11.458 38.538,10.813 38.323,10.297 L 38.267,10.091 L 38.876,9.688 C 39.864,8.944 40.882,7.835 40.798,6.459 C 40.59,3.157 34.712,3.019 31.79,3.328 L 30.959,3.448 L 30.641,3.249 C 30.424,3.126 30.042,2.923 29.158,2.469 C 21.999,-1.21 13.019,0.983 7.773,5.921 Z M 28.683,3.393 C 30.423,4.285 30.166,4.178 30.572,4.429 C 30.605,4.45 30.641,4.467 30.685,4.45 C 30.682,4.464 30.692,4.472 30.702,4.48 C 35.069,8.197 36.258,13.555 34.597,17.855 C 33.549,20.566 30.441,22.741 27.14,22.434 C 25.135,22.248 24.006,21.652 23.472,20.972 C 23.089,20.484 22.963,19.889 23.103,19.226 L 23.308,18.61 L 23.474,18.439 C 23.996,17.983 24.596,18.003 25.395,18.155 C 26.24,18.315 27.444,18.695 28.546,18.232 C 31.467,17.001 31.264,11.388 29.015,8.932 C 26.267,5.935 22.683,5.449 19.231,5.881 C 14.38,6.486 8.183,11.98 8.284,18.819 C 8.288,19.106 8.525,19.335 8.812,19.331 C 9.096,19.327 9.327,19.091 9.322,18.804 C 9.23,12.553 14.97,7.459 19.36,6.911 C 22.635,6.501 25.818,6.982 28.249,9.633 C 30.254,11.822 30.094,16.453 28.142,17.275 C 26.57,17.937 24.211,15.917 22.459,17.996 C 22.429,18.033 22.403,18.074 22.384,18.118 C 21.848,19.307 21.846,20.583 22.656,21.615 C 23.443,22.618 24.91,23.27 27.044,23.467 C 30.831,23.82 34.359,21.349 35.565,18.23 C 37.298,13.742 36.188,8.284 32.087,4.334 C 35.018,4.043 39.63,4.432 39.76,6.524 C 39.831,7.651 38.606,8.718 37.418,9.412 C 37.248,9.511 37.148,9.697 37.162,9.895 C 37.255,11.306 38.577,12.579 39.26,13.871 L 39.624,15.046 L 39.489,15.398 C 38.824,17.349 38.341,19.183 38.038,20.631 C 37.98,20.911 38.16,21.186 38.44,21.246 C 38.72,21.304 38.996,21.124 39.054,20.844 C 39.369,19.339 39.856,17.521 40.509,15.626 L 40.558,15.508 C 40.654,15.408 40.706,15.277 40.701,15.131 L 41.611,12.76 C 43.656,7.986 46.726,3.481 50.74,2.964 C 53.811,2.568 56.92,3.873 56.048,6.826 C 55.708,7.973 54.332,9.36 52.999,9.064 C 52.773,9.014 52.538,9.121 52.429,9.329 C 49.86,14.172 50.021,19.573 51.36,22.403 C 52.715,25.266 56.657,30.033 58.813,31.82 C 60.237,33.002 64.821,37.618 65.855,38.958 C 69.065,43.11 69.791,45.717 69.695,49.408 C 69.683,49.847 69.646,50.293 69.584,50.74 C 69.496,50.834 69.37,50.913 69.203,50.969 C 68.994,51.04 68.731,51.068 68.446,51.046 C 67.862,51.004 67.288,50.765 66.972,50.449 C 66.924,50.402 66.868,50.365 66.805,50.339 C 66.751,50.315 66.704,50.279 66.661,50.21 C 66.512,49.965 66.193,49.888 65.949,50.037 C 65.704,50.188 65.627,50.506 65.777,50.751 C 65.908,50.965 66.086,51.136 66.306,51.25 L 66.34,51.281 C 66.874,51.751 67.646,52.029 68.37,52.083 C 68.695,52.107 69.028,52.087 69.343,52.009 C 68.682,54.797 67.166,57.523 65.402,59.468 C 62.246,62.946 55.164,63.962 52.557,65.114 L 51.741,65.625 L 51.055,66.526 C 49.569,69.058 49.059,73.865 47.021,73.458 C 45.568,73.167 40.703,66.063 38.828,61.821 C 38.819,61.799 38.808,61.777 38.794,61.757 C 36.224,57.623 35.43,52.049 32.362,50.227 C 28.688,48.042 27.284,48.988 22.064,48.234 C 13.547,47.003 7.255,41.895 5.03,37.538 L 5.008,37.5 C 3.288,34.751 1.812,29.029 1.718,25.44 C 1.528,18.153 2.912,11.926 8.486,6.677 C 13.466,1.988 21.979,-0.053 28.683,3.393 Z M 60.268,6.672 C 60.444,7.743 59.962,8.631 59.191,9.27 C 58.404,9.92 57.388,10.249 56.671,10.208 C 56.599,10.205 56.527,10.215 56.46,10.241 C 55.44,10.623 54.803,12.012 54.391,13.49 C 53.954,15.061 53.69,17.041 53.599,19.014 C 53.506,20.962 53.583,22.931 53.84,24.524 C 53.193,23.59 52.649,22.701 52.298,21.959 C 51.265,19.772 50.977,15.627 52.553,11.551 L 53.21,10.113 L 53.554,10.142 C 55.322,10.044 56.693,8.306 57.045,7.119 C 57.349,6.082 57.313,5.223 57.04,4.524 C 58.928,4.644 60.066,5.435 60.268,6.672 Z M 48.473,41.36 C 48.262,41.553 48.247,41.882 48.439,42.092 C 49.507,43.262 51.07,43.925 52.122,44.71 C 52.351,44.881 52.678,44.834 52.848,44.604 C 53.02,44.376 52.973,44.049 52.743,43.878 C 51.62,43.039 50.146,42.423 49.206,41.393 C 49.013,41.181 48.684,41.166 48.473,41.36 Z M 46.986,44.008 C 46.814,44.237 46.861,44.562 47.09,44.735 C 47.648,45.154 48.506,45.529 49.327,45.821 C 50.164,46.116 51.024,46.348 51.634,46.466 C 51.916,46.52 52.188,46.336 52.242,46.055 C 52.296,45.774 52.113,45.501 51.831,45.447 C 51.279,45.34 50.466,45.122 49.674,44.842 C 48.868,44.555 48.137,44.224 47.713,43.905 C 47.484,43.733 47.158,43.779 46.986,44.008 Z M 60.056,46.063 C 59.546,46.123 59.042,46.334 58.665,46.699 C 58.278,47.071 58.043,47.594 58.074,48.219 C 58.09,48.505 58.334,48.725 58.62,48.711 C 58.905,48.696 59.126,48.451 59.112,48.166 C 59.096,47.853 59.206,47.618 59.387,47.444 C 59.577,47.261 59.858,47.131 60.177,47.093 C 60.495,47.056 60.818,47.114 61.081,47.262 C 61.336,47.405 61.549,47.642 61.657,48.003 C 61.805,48.504 62.524,48.492 62.657,47.987 C 62.757,47.602 62.936,47.42 63.106,47.331 C 63.288,47.235 63.528,47.211 63.789,47.27 C 64.332,47.394 64.688,47.784 64.669,48.034 C 64.645,48.319 64.858,48.569 65.144,48.593 C 65.43,48.617 65.68,48.404 65.703,48.117 C 65.744,47.619 65.498,47.189 65.191,46.888 C 64.88,46.582 64.461,46.359 64.02,46.259 C 63.578,46.159 63.074,46.175 62.623,46.411 C 62.45,46.503 62.291,46.621 62.155,46.769 L 62.136,46.792 L 62.088,46.738 C 61.939,46.585 61.77,46.458 61.59,46.357 C 61.115,46.089 60.566,46.003 60.056,46.063 Z M 56.094,50.156 C 55.201,51.266 53.857,51.783 52.411,51.818 C 50.959,51.852 49.454,51.399 48.318,50.628 C 48.082,50.466 47.759,50.529 47.597,50.766 C 47.436,51.002 47.498,51.325 47.735,51.486 C 49.05,52.38 50.769,52.896 52.436,52.855 C 54.107,52.815 55.773,52.211 56.901,50.805 C 57.081,50.581 57.047,50.255 56.823,50.075 C 56.599,49.896 56.272,49.931 56.094,50.156 Z M 62.511,63.753 C 62.445,64.614 62.417,65.619 62.381,66.575 C 62.344,67.543 62.299,68.461 62.201,69.19 C 62.093,69.984 61.95,70.287 61.874,70.385 L 61.539,70.43 C 60.653,70.434 59.444,69.741 58.163,68.63 C 56.916,67.549 55.783,66.233 55.149,65.379 C 57.222,64.773 60.143,63.926 62.627,62.677 C 62.575,63.013 62.538,63.379 62.511,63.753 Z" stroke="none" fill="#000000" stroke-width="0.5" fill-rule="evenodd" marker-start="none" marker-end="none" stroke-miterlimit="79.8403193612775"/>
   </g>
  </g>
 </g>
</svg>
