<?xml version="1.0" standalone="no"?>
<!DOCTYPE svg PUBLIC "-//W3C//DTD SVG 1.1//EN" "http://www.w3.org/Graphics/SVG/1.1/DTD/svg11.dtd">
<!--Generator: Xara Designer (www.xara.com), SVG filter version: 6.0.0.4-->
<svg stroke-width="0.501" stroke-linejoin="bevel" fill-rule="evenodd" xmlns:xlink="http://www.w3.org/1999/xlink" xmlns="http://www.w3.org/2000/svg" version="1.1" overflow="visible" width="75pt" height="75pt" viewBox="0 0 75 75">
 <defs>
	</defs>
 <g id="Document" fill="none" stroke="black" font-family="Times New Roman" font-size="16" transform="scale(1 -1)">
  <g id="Spread" transform="translate(0 -75)">
   <g id="Layer 1">
    <path d="M 44.346,11.421 C 45.82,14.425 50.313,16.558 54.701,18.035 L 56.118,18.482 L 54.936,18.557 C 53.508,18.668 52.051,18.853 51.146,19.133 L 50.854,19.262 C 50.846,19.242 50.836,19.223 50.826,19.203 C 50.757,19.062 50.619,18.977 50.474,18.962 L 50.271,18.761 C 48.281,17.428 44.293,17.751 43.211,19.717 L 43.08,20.046 L 42.557,19.762 C 42.02,19.523 41.409,19.347 40.929,19.279 C 38.582,18.943 35.637,19.634 35.86,22.08 C 35.93,22.856 36.524,23.808 37.016,24.434 L 37.367,24.842 L 37.677,25.93 C 38.88,31.363 37.088,41.312 35.867,44.292 C 35.828,44.122 35.796,43.978 35.777,43.864 C 34.457,36.778 30.418,30.674 24.453,26.767 L 24.452,26.766 C 25.339,25.097 25.395,22.987 25.358,21.08 C 25.331,19.63 28.08,19.464 28.024,17.213 C 28.022,17.13 27.995,17.048 27.949,16.979 C 26.782,15.249 23.454,16.834 22.086,17.737 L 21.83,17.918 L 21.765,17.892 C 21.032,17.598 18.753,16.588 16.468,16.463 C 14.788,16.371 13.323,16.625 12.18,16.921 L 11.499,17.116 L 11.336,16.806 C 10.934,16.177 10.385,15.659 9.79,15.516 C 8.917,15.308 8.29,15.934 8.012,17.05 L 7.983,17.192 L 7.464,17.202 C 6.353,17.223 4.612,17.247 4.132,17.225 L 4.048,17.22 L 3.868,17.156 C 3.152,16.937 1.443,16.603 0.954,17.711 C 0.449,18.847 0.952,19.605 1.72,19.892 C 2.029,20.007 2.414,20.055 2.776,20.014 L 3.265,19.89 L 3.316,19.962 C 3.915,20.86 4.694,22.295 5.197,23.336 L 5.275,23.505 L 4.666,23.963 C 2.613,25.681 1.213,28.185 3.887,30.487 C 4.512,31.026 5.551,31.508 6.557,31.488 C 7.226,31.475 7.863,31.238 8.336,30.694 L 8.507,30.458 L 8.737,30.894 C 9.834,32.751 11.789,33.18 13.323,32.549 C 14.759,31.96 15.716,30.493 15.298,28.653 L 15.193,28.288 L 15.555,28.499 C 16.989,29.273 18.898,30.006 20.204,29.753 C 22.06,29.392 23.254,28.584 24.025,27.53 C 29.761,31.305 33.645,37.188 34.916,44.024 C 34.962,44.267 35.053,44.659 35.171,45.144 C 33.818,45.689 29.686,47.879 28.355,52.756 C 28.315,52.726 28.269,52.705 28.22,52.689 C 27.402,52.448 26.144,51.967 25.349,51.59 C 25.13,51.488 24.871,51.582 24.767,51.8 C 24.665,52.018 24.758,52.278 24.976,52.381 C 25.81,52.776 27.11,53.273 27.972,53.527 C 28.04,53.547 28.107,53.549 28.17,53.538 C 28.12,53.795 28.077,54.058 28.043,54.327 C 27.616,54.351 27.148,54.33 26.662,54.29 C 26.102,54.246 25.538,54.18 25.022,54.14 C 24.783,54.121 24.572,54.301 24.554,54.542 C 24.534,54.781 24.715,54.991 24.955,55.01 C 25.46,55.05 26.021,55.115 26.592,55.162 C 27.045,55.197 27.511,55.222 27.96,55.204 C 27.92,55.887 27.933,56.613 28.006,57.379 C 28.279,60.223 29.433,63.062 31.571,66.441 C 32.398,67.752 36.093,74.303 38.413,74.513 C 40.56,74.709 40.108,71.95 40.369,69.997 L 40.489,69.426 L 40.777,69.351 C 42.422,68.925 47.596,67.712 48.677,67.508 L 48.702,67.502 L 49.202,67.908 C 50.887,69.28 53.647,71.442 54.867,70.994 C 56.856,70.26 55.538,65.791 55.022,61.768 C 54.589,58.379 54.364,57.444 55.45,55.417 C 55.831,54.703 56.619,53.373 57.885,52.717 C 62.763,50.19 65.97,48.577 68.932,45.19 C 71.443,42.324 73.584,39.156 74.103,34.824 C 74.504,31.471 74.039,28.747 73.26,26.455 L 72.441,24.409 L 72.582,22.875 C 72.396,19.035 68.526,16.207 64.683,15.274 C 60.522,14.261 50.127,13.437 49.715,9.517 C 49.59,8.319 51.907,7.962 53.278,5.946 C 54.017,4.857 53.632,3.441 52.753,2.649 C 52.067,2.033 51.606,2.072 51.159,2.011 C 46.355,1.361 42.141,6.931 44.346,11.421 Z M 51.04,2.877 C 51.547,2.945 51.718,2.892 52.169,3.3 C 52.805,3.871 52.994,4.809 52.555,5.456 C 51.48,7.037 48.649,7.736 48.847,9.608 C 49.335,14.26 59.263,14.854 64.476,16.122 C 68.758,17.163 72.478,20.441 71.574,24.385 C 71.554,24.478 71.562,24.577 71.603,24.664 C 72.792,27.262 73.748,30.453 73.235,34.718 C 72.747,38.797 70.737,41.802 68.274,44.616 C 65.442,47.856 62.39,49.4 57.484,51.94 C 55.958,52.731 55.064,54.286 54.68,55.005 C 53.44,57.319 53.727,58.54 54.157,61.88 C 54.447,64.152 55.755,69.736 54.564,70.174 C 53.819,70.45 51.254,68.44 49.102,66.703 C 49.017,66.634 48.912,66.6 48.804,66.606 L 48.78,66.607 L 48.758,66.609 C 48.188,66.668 40.526,68.467 39.992,68.665 L 39.955,68.682 L 39.929,68.692 C 39.82,68.745 39.739,68.838 39.703,68.953 C 38.999,71.137 39.791,73.763 38.491,73.644 C 36.879,73.496 33.687,68.157 32.308,65.976 C 30.21,62.658 29.13,59.953 28.876,57.295 C 28.153,49.787 33.791,46.669 35.378,45.997 C 35.552,46.714 35.748,47.525 35.926,48.318 C 36.126,49.212 36.305,50.095 36.411,50.827 C 36.524,51.593 36.538,52.094 36.479,52.295 C 36.477,52.301 36.476,52.306 36.473,52.313 C 36.099,52.21 35.719,52.193 35.367,52.257 C 34.468,52.42 33.739,53.122 33.774,54.183 C 33.783,54.423 33.985,54.612 34.224,54.604 C 34.466,54.596 34.656,54.394 34.647,54.154 C 34.628,53.583 34.995,53.21 35.522,53.115 C 36.071,53.015 36.797,53.221 37.354,53.912 C 37.625,54.249 38.171,54.025 38.13,53.596 C 38.078,53.078 38.24,52.81 38.436,52.66 C 38.656,52.496 39,52.424 39.39,52.471 C 39.777,52.521 40.14,52.684 40.373,52.902 C 40.589,53.108 40.676,53.337 40.605,53.6 C 40.543,53.834 40.683,54.074 40.915,54.135 C 41.148,54.197 41.387,54.059 41.45,53.825 C 41.617,53.193 41.371,52.642 40.971,52.265 C 40.583,51.9 40.036,51.673 39.499,51.606 C 38.964,51.538 38.369,51.62 37.914,51.963 C 37.672,52.142 37.491,52.379 37.377,52.667 L 37.356,52.731 L 37.263,52.667 C 37.261,52.666 37.26,52.665 37.258,52.663 C 37.284,52.626 37.304,52.586 37.317,52.54 C 37.555,51.732 37.112,49.618 36.778,48.127 C 36.571,47.205 36.352,46.3 36.167,45.544 C 37.789,43.305 40.195,30.129 38.172,24.484 C 38.151,24.422 38.118,24.369 38.071,24.322 C 37.618,23.864 36.793,22.71 36.729,22.001 C 36.606,20.652 38.321,19.789 40.807,20.144 C 41.552,20.249 42.383,20.601 42.779,20.865 C 42.586,22.051 42.885,22.823 43.278,23.506 C 43.481,23.859 43.68,24.148 43.843,24.479 C 44.001,24.792 44.115,25.128 44.146,25.546 C 44.193,26.151 44.085,27.251 43.886,28.363 C 43.787,28.911 43.667,29.449 43.537,29.912 C 43.407,30.383 43.272,30.755 43.149,30.983 C 43.036,31.195 43.115,31.46 43.329,31.574 C 43.54,31.688 43.805,31.609 43.919,31.396 C 44.248,30.782 44.544,29.629 44.745,28.517 C 44.948,27.394 45.073,26.201 45.017,25.479 C 44.977,24.925 44.819,24.481 44.626,24.091 C 44.44,23.717 44.22,23.393 44.034,23.07 C 43.855,22.757 43.714,22.454 43.641,22.095 C 43.592,21.843 43.574,21.55 43.617,21.193 C 43.727,21.119 43.81,20.992 43.809,20.829 C 43.788,18.845 48.522,18.028 50.113,19.741 C 50.394,20.361 50.522,20.968 50.534,21.581 C 50.547,22.245 50.423,22.925 50.193,23.63 C 50.119,23.86 50.246,24.105 50.476,24.181 C 50.704,24.255 50.951,24.129 51.025,23.901 C 51.275,23.127 51.423,22.349 51.408,21.563 C 51.398,21.056 51.32,20.549 51.164,20.042 C 52.326,19.543 56.453,19.29 58.243,19.285 C 58.092,20.199 58.323,20.963 58.752,21.588 C 59.007,21.956 59.326,22.272 59.662,22.542 L 60.139,22.893 L 60.014,23.003 C 59.795,23.218 59.585,23.467 59.418,23.741 C 59.088,24.293 58.891,25.031 59.32,25.739 C 59.446,25.945 59.714,26.01 59.92,25.885 C 60.126,25.761 60.191,25.491 60.068,25.285 C 59.875,24.969 59.92,24.6 60.168,24.193 C 60.415,23.782 60.816,23.421 61.126,23.23 C 61.402,23.058 61.399,22.652 61.12,22.485 C 60.495,22.11 59.867,21.665 59.472,21.092 C 59.19,20.682 59.018,20.195 59.085,19.583 L 59.135,19.278 L 59.625,19.354 C 63.855,20.077 66.528,21.471 67.872,23.89 C 67.989,24.102 68.255,24.177 68.467,24.06 C 68.677,23.942 68.753,23.677 68.635,23.465 C 66.995,20.516 63.692,19.04 58.882,18.354 C 58.846,18.348 58.811,18.347 58.777,18.351 C 53.409,16.89 46.844,14.526 45.13,11.037 C 43.242,7.195 46.906,2.317 51.04,2.877 Z M 9.587,16.365 C 9.977,16.459 10.533,17.002 10.881,17.807 C 10.97,18.012 11.198,18.117 11.412,18.049 C 12.591,17.68 14.333,17.222 16.419,17.336 C 18.901,17.471 21.27,18.709 21.807,18.825 L 21.841,18.831 C 21.971,18.855 22.104,18.817 22.205,18.731 C 23.155,17.907 26.1,16.575 27.06,17.295 L 27.14,17.378 L 27.127,17.546 C 26.863,19.011 24.447,19.095 24.486,21.098 C 24.553,24.66 24.285,28.069 20.037,28.896 C 18.379,29.218 15.018,27.335 14.338,26.651 C 13.964,26.275 13.366,26.777 13.672,27.212 C 15.295,29.506 14.339,31.189 12.99,31.743 C 11.614,32.309 9.631,31.787 8.976,29.163 C 8.865,28.722 8.234,28.725 8.128,29.168 C 7.861,30.274 7.221,30.602 6.539,30.615 C 5.792,30.629 4.952,30.254 4.456,29.825 C 2.096,27.793 3.842,25.511 6.067,24.002 C 6.242,23.883 6.306,23.654 6.219,23.46 C 5.679,22.261 4.489,20.033 3.729,19.034 C 3.558,18.811 3.227,18.804 3.047,19.018 L 3.03,19.037 C 2.963,19.11 2.487,19.247 2.026,19.075 C 1.72,18.96 1.459,18.727 1.752,18.064 C 1.923,17.677 3.105,17.777 3.779,18.049 C 3.804,18.06 3.83,18.067 3.854,18.073 L 3.885,18.079 L 3.917,18.085 C 4.356,18.142 7.868,18.068 8.356,18.057 C 8.569,18.051 8.748,17.894 8.779,17.682 C 8.969,16.346 9.379,16.317 9.587,16.365 Z M 7.8,21.872 C 7.612,22.025 7.583,22.301 7.736,22.488 C 7.889,22.68 8.119,22.9 8.362,23.118 C 8.111,23.345 7.872,23.584 7.66,23.822 C 7.502,24.004 7.518,24.28 7.699,24.439 C 7.879,24.598 8.155,24.584 8.316,24.401 C 8.53,24.159 8.776,23.915 9.037,23.685 C 9.368,23.953 9.669,24.192 9.861,24.356 C 10.043,24.513 10.318,24.495 10.477,24.309 C 10.634,24.128 10.613,23.852 10.431,23.696 C 10.257,23.545 10.005,23.343 9.729,23.123 C 10.01,22.915 10.284,22.732 10.532,22.595 C 10.742,22.476 10.816,22.211 10.699,22 C 10.582,21.789 10.314,21.715 10.105,21.833 C 9.774,22.019 9.407,22.265 9.039,22.548 C 8.771,22.316 8.545,22.102 8.415,21.94 C 8.262,21.751 7.988,21.723 7.8,21.872 Z M 49.426,47.128 C 49.327,47.24 49.137,47.408 48.87,47.612 C 48.61,47.81 48.296,48.026 47.972,48.24 C 47.322,48.671 46.644,49.074 46.272,49.271 C 46.061,49.385 45.978,49.648 46.091,49.862 C 46.205,50.073 46.469,50.156 46.683,50.042 C 47.084,49.828 47.786,49.41 48.452,48.97 C 49.085,48.553 49.779,48.056 50.088,47.699 C 50.246,47.516 50.224,47.239 50.043,47.082 C 49.861,46.925 49.585,46.944 49.426,47.128 Z M 47.147,50.614 C 46.913,50.673 46.771,50.911 46.831,51.146 C 46.89,51.378 47.129,51.52 47.361,51.459 C 48.874,51.074 50.007,50.503 51.329,49.975 C 51.553,49.885 51.661,49.631 51.571,49.408 C 51.482,49.185 51.228,49.075 51.003,49.164 C 49.661,49.702 48.581,50.248 47.147,50.614 Z M 43.76,56.359 C 43.76,57.175 44.361,57.836 45.099,57.836 C 45.839,57.836 46.44,57.175 46.44,56.359 C 46.44,55.545 45.839,54.882 45.099,54.882 C 44.361,54.882 43.76,55.545 43.76,56.359 Z M 31.373,58.089 C 31.373,58.904 31.972,59.567 32.712,59.567 C 33.45,59.567 34.051,58.904 34.051,58.089 C 34.051,57.273 33.45,56.613 32.712,56.613 C 31.972,56.613 31.373,57.273 31.373,58.089 Z" fill-rule="evenodd" stroke="none" fill="#000000" stroke-width="0.5" marker-start="none" marker-end="none" stroke-miterlimit="79.8403193612775"/>
   </g>
  </g>
 </g>
</svg>
