<?xml version="1.0" standalone="no"?>
<!DOCTYPE svg PUBLIC "-//W3C//DTD SVG 1.1//EN" "http://www.w3.org/Graphics/SVG/1.1/DTD/svg11.dtd">
<!--Generator: Xara Designer (www.xara.com), SVG filter version: 6.0.0.4-->
<svg stroke-width="0.501" stroke-linejoin="bevel" fill-rule="evenodd" xmlns:xlink="http://www.w3.org/1999/xlink" xmlns="http://www.w3.org/2000/svg" version="1.1" overflow="visible" width="75pt" height="75pt" viewBox="0 0 75 75">
 <defs>
	</defs>
 <g id="Document" fill="none" stroke="black" font-family="Times New Roman" font-size="16" transform="scale(1 -1)">
  <g id="Spread" transform="translate(0 -75)">
   <g id="Layer 1">
    <path d="M 43.864,9.867 C 36.951,10.606 30.364,13.818 24.568,17.524 C 19.383,20.839 13.134,27.516 10.129,30.95 C 9.328,30.098 8.477,29.066 7.757,28.117 C 7.606,27.917 7.321,27.879 7.121,28.03 C 6.921,28.181 6.883,28.467 7.034,28.666 C 7.784,29.654 8.681,30.744 9.53,31.639 C 9.417,31.773 9.309,31.899 9.21,32.016 C 8.146,31.165 7.051,30.329 6.029,29.48 C 5.836,29.321 5.55,29.347 5.389,29.54 C 5.229,29.733 5.256,30.02 5.449,30.18 C 6.463,31.02 7.596,31.888 8.631,32.716 C 6.084,35.918 3.613,41.121 2.148,45.224 C 1.661,46.59 -0.682,52.558 0.755,53.516 C 3.012,55.021 5.952,51.764 7.882,50.793 L 8.421,50.612 L 8.566,50.8 C 9.463,51.821 11.842,54.086 14.706,56.304 L 18.064,58.683 L 17.968,59.243 C 17.508,61.408 16.282,65.238 18.175,65.384 C 20.333,65.551 26.617,60.588 31.387,56.522 C 31.472,56.772 31.572,57.021 31.671,57.258 C 31.865,57.723 32.071,58.177 32.213,58.584 C 32.296,58.82 32.555,58.945 32.792,58.863 C 33.029,58.78 33.153,58.521 33.071,58.284 C 32.917,57.843 32.707,57.381 32.509,56.908 C 32.355,56.538 32.221,56.191 32.138,55.877 C 32.22,55.806 32.301,55.736 32.382,55.667 C 32.856,56.375 33.289,57.22 33.811,57.886 C 33.966,58.084 34.251,58.118 34.449,57.963 C 34.646,57.809 34.68,57.523 34.527,57.326 C 34.026,56.689 33.595,55.826 33.073,55.067 C 33.586,54.622 34.067,54.199 34.506,53.809 L 35.688,52.873 L 35.679,53.083 C 35.943,58.962 43.571,60.538 44.015,54.479 C 44.12,53.071 43.238,51.702 42.085,51.094 L 41.332,50.89 L 41.34,50.738 C 41.357,50.344 41.363,49.868 41.299,49.469 L 41.282,49.414 L 46.623,46.94 C 46.942,46.803 47.262,46.667 47.582,46.532 C 47.072,47.988 46.604,49.656 46.574,51.223 C 46.537,53.177 47.188,55.041 49.314,56.094 C 52.751,57.798 55.432,55.303 55.024,52.653 C 54.842,51.478 53.713,50.269 53.151,49.431 L 53.071,49.297 L 53.267,48.957 C 54.512,46.975 55.963,46.665 57.276,45.741 C 56.573,49.293 57.231,54.387 59.704,57.745 C 62.443,61.464 68.14,61.328 71.402,59.575 C 74.587,57.865 74.767,54.384 74.694,52.185 C 74.588,48.992 70.436,48.507 70.127,50.787 C 69.989,51.801 70.231,52.962 69.719,53.737 C 69.171,54.566 68.219,55.248 67.358,55.234 C 66.357,55.217 65.279,54.397 64.71,53.431 C 63.381,51.177 63.749,48.173 64.072,45.341 C 64.543,41.22 66.648,37.627 67.893,33.472 C 69.061,29.576 69.548,25.952 68.432,22.375 C 67.23,18.519 64.52,14.837 61.038,12.747 C 56.024,9.736 49.585,9.256 43.864,9.867 Z M 60.57,13.526 C 63.843,15.49 66.423,18.982 67.565,22.646 C 68.602,25.971 68.17,29.387 67.023,33.211 C 65.87,37.059 63.649,41.046 63.17,45.237 C 62.858,47.97 62.413,51.322 63.927,53.891 C 64.593,55.019 65.915,56.117 67.343,56.141 C 68.637,56.165 69.838,55.203 70.477,54.238 C 71.131,53.245 70.953,51.451 71.028,50.908 C 71.146,50.03 73.707,49.834 73.786,52.214 C 73.86,54.421 73.633,57.347 70.972,58.776 C 67.922,60.415 62.799,60.415 60.434,57.206 C 57.933,53.81 57.409,48.396 58.368,45.087 C 58.753,43.76 59.385,41.03 59.642,40.12 L 59.727,39.856 C 59.955,39.432 59.448,38.991 59.06,39.274 C 56.399,41.215 54.893,42.383 52.014,43.653 C 48.308,45.289 44.219,46.856 40.533,48.761 C 40.308,48.877 40.222,49.154 40.341,49.377 C 40.457,49.595 40.453,50.175 40.428,50.765 C 40.213,50.775 39.98,50.793 39.75,50.822 C 39.507,50.851 39.26,50.892 39.04,50.948 C 38.831,51 38.605,51.074 38.43,51.19 C 38.221,51.327 38.163,51.61 38.301,51.819 C 38.439,52.028 38.721,52.085 38.93,51.947 C 38.947,51.936 38.982,51.917 39.042,51.895 C 39.1,51.872 39.174,51.85 39.259,51.828 C 39.432,51.786 39.64,51.75 39.86,51.723 C 40.078,51.697 40.302,51.679 40.505,51.672 C 40.603,51.667 40.694,51.665 40.774,51.665 C 40.801,51.671 40.827,51.673 40.852,51.674 C 41.956,51.692 43.214,53.007 43.11,54.413 C 42.71,59.865 35.973,57.365 36.631,51.961 C 36.679,51.569 36.237,51.307 35.917,51.536 C 35.213,52.038 34.54,52.568 33.906,53.129 C 28.923,57.537 20.341,64.641 18.244,64.479 C 18.123,64.469 17.909,64.106 18.212,62.425 C 18.442,61.148 18.917,59.44 19.011,58.524 C 19.028,58.352 18.948,58.187 18.803,58.094 C 14.484,55.34 10.457,51.55 9.314,50.281 L 9.006,49.895 C 8.921,49.716 8.736,49.613 8.544,49.634 C 5.857,49.93 3.225,54.071 1.259,52.76 C 1.074,52.638 1.056,51.737 1.526,49.984 C 1.941,48.442 2.586,46.698 3.004,45.53 C 4.497,41.348 7.027,36.076 9.554,33.021 C 11.572,30.582 19.079,22.112 25.059,18.289 C 30.806,14.615 37.252,11.487 43.96,10.77 C 49.592,10.169 55.799,10.66 60.57,13.526 Z M 39.752,19.151 C 38.608,21.569 37.387,23.409 37.971,26.749 C 38.272,28.472 39.869,31.265 41.365,32.707 L 41.444,32.773 L 40.989,33.053 C 38.472,34.732 36.101,38.185 36.221,41.165 C 36.33,43.939 38.439,45.57 40.502,45.848 C 42.592,46.131 44.767,45.034 44.802,42.286 C 44.813,41.487 44.657,40.59 44.312,39.893 L 44.136,39.587 L 44.558,39.058 C 47.841,35.433 53.45,35.69 55.25,29.411 C 55.319,29.17 55.179,28.92 54.938,28.85 C 54.697,28.781 54.446,28.921 54.376,29.162 C 52.574,35.453 46.597,34.473 43.192,39.316 C 43.07,39.49 43.085,39.723 43.225,39.881 C 43.64,40.344 43.907,41.311 43.895,42.274 C 43.867,44.339 42.319,45.178 40.624,44.948 C 38.914,44.717 37.218,43.382 37.128,41.128 C 37.011,38.175 39.83,34.45 42.442,33.277 C 42.763,33.132 42.804,32.692 42.515,32.49 C 41.087,31.49 39.172,28.343 38.866,26.592 C 38.342,23.594 39.388,22.042 40.573,19.539 C 40.679,19.312 40.583,19.042 40.356,18.935 C 40.13,18.827 39.86,18.924 39.752,19.151 Z M 24.328,24.056 C 23.677,25.253 23.276,26.257 23.302,27.797 C 22.868,27.74 22.472,27.721 22.164,27.744 C 21.915,27.762 21.726,27.979 21.744,28.23 C 21.762,28.479 21.981,28.668 22.23,28.65 C 23.369,28.567 25.709,29.172 26.295,29.881 C 27.361,31.174 27.145,32.375 26.365,33.202 C 25.546,34.07 24.063,34.562 22.563,34.208 C 19.623,33.515 18.085,30.151 18.805,26.899 C 18.858,26.654 18.703,26.412 18.458,26.358 C 18.214,26.304 17.972,26.458 17.918,26.703 C 17.128,30.275 18.782,34.251 22.355,35.093 C 24.148,35.515 25.969,34.946 27.026,33.825 C 28.122,32.663 28.352,30.949 26.995,29.303 C 26.483,28.682 25.332,28.219 24.215,27.962 C 24.187,27.25 24.256,26.682 24.401,26.163 C 24.555,25.61 24.798,25.093 25.126,24.489 C 25.246,24.268 25.163,23.993 24.943,23.872 C 24.723,23.754 24.447,23.835 24.328,24.056 Z M 19.029,41.247 C 19.175,42.136 19.834,42.639 20.534,42.97 C 21.215,43.289 22.096,43.514 22.792,43.748 L 22.852,43.763 C 23.011,43.804 23.593,44.11 23.714,44.493 L 23.733,44.54 C 24.09,45.343 24.694,46.18 25.412,46.727 C 26.126,47.272 27.058,47.595 27.961,47.109 C 29.456,46.308 29.355,43.925 27.81,43.055 C 26.932,42.562 25.9,42.318 25.692,42.26 C 25.597,42.231 24.903,41.965 24.676,41.359 C 24.054,39.699 22.97,38.248 21.336,38.402 C 19.596,38.567 18.827,40.031 19.029,41.247 Z M 12.326,39.911 C 11.825,40.762 12.627,40.978 13.478,41.48 C 14.329,41.981 14.908,42.58 15.41,41.73 C 15.911,40.878 15.629,39.78 14.778,39.277 C 13.926,38.776 12.828,39.059 12.326,39.911 Z M 23.826,41.679 C 24.215,42.713 25.287,43.086 25.437,43.131 C 25.702,43.206 26.604,43.42 27.364,43.847 C 28.356,44.405 28.328,45.881 27.531,46.309 C 26.562,46.829 25.194,45.59 24.56,44.17 L 24.451,43.926 C 24.088,43.288 23.319,42.946 23.081,42.884 L 23.055,42.879 L 22.493,42.699 C 21.917,42.522 21.385,42.366 20.921,42.148 C 20.321,41.865 19.998,41.547 19.924,41.099 C 19.8,40.346 20.252,39.417 21.422,39.306 C 22.372,39.217 23.227,40.08 23.826,41.679 Z M 58.537,40.779 L 58.272,41.82 C 58.075,42.615 57.863,43.469 57.687,44.137 C 56.227,45.928 53.921,45.719 52.144,49.089 C 52.076,49.22 52.075,49.375 52.141,49.506 C 52.625,50.459 53.964,51.739 54.126,52.791 C 54.418,54.683 52.517,56.669 49.718,55.281 C 48.001,54.429 47.45,52.963 47.483,51.239 C 47.515,49.544 48.118,47.665 48.723,46.05 C 49.954,45.53 51.179,45.013 52.381,44.485 C 54.617,43.496 56.066,42.559 57.769,41.336 L 58.537,40.779 Z M 25.861,49.774 C 25.04,50.216 25.583,50.785 26.026,51.606 C 26.468,52.427 26.643,53.193 27.464,52.75 C 28.286,52.307 28.593,51.282 28.151,50.461 C 27.707,49.639 26.682,49.331 25.861,49.774 Z" stroke="none" fill="#000000" stroke-width="0.5" fill-rule="evenodd" marker-start="none" marker-end="none" stroke-miterlimit="79.8403193612775"/>
   </g>
  </g>
 </g>
</svg>
