<?xml version="1.0" standalone="no"?>
<!DOCTYPE svg PUBLIC "-//W3C//DTD SVG 1.1//EN" "http://www.w3.org/Graphics/SVG/1.1/DTD/svg11.dtd">
<!--Generator: Xara Designer (www.xara.com), SVG filter version: 6.0.0.4-->
<svg stroke-width="0.501" stroke-linejoin="bevel" fill-rule="evenodd" xmlns:xlink="http://www.w3.org/1999/xlink" xmlns="http://www.w3.org/2000/svg" version="1.1" overflow="visible" width="75pt" height="75pt" viewBox="0 0 75 75">
 <defs>
	</defs>
 <g id="Document" fill="none" stroke="black" font-family="Times New Roman" font-size="16" transform="scale(1 -1)">
  <g id="Spread" transform="translate(0 -75)">
   <g id="Layer 1">
    <path d="M 34.678,4.648 C 34.242,5.906 33.634,9.424 33.179,10.954 L 32.999,11.458 L 30.925,14.574 C 28.956,17.954 27.438,21.951 26.544,26.475 C 26.244,27.994 25.988,29.458 25.266,29.828 L 25.136,29.863 L 24.965,29.574 C 24.436,28.43 25.025,27.57 24.663,26.294 C 24.269,24.921 22.454,24.825 21.796,24.901 C 18.571,25.277 17.293,32.115 19.169,33.58 L 19.53,33.775 C 20.714,34.346 20.421,37.308 19.971,40.521 C 19.055,47.07 21.443,52.232 26.869,55.675 C 27.51,56.083 28.283,56.482 29.135,56.852 L 31.276,57.627 L 30.699,58.135 C 30.273,58.503 29.82,58.891 29.598,59.123 C 26.092,62.819 26.28,70.556 32.156,73.269 C 37.459,75.716 40.958,74.809 44.353,72.576 C 46.791,70.972 48.071,67.838 48.223,64.881 C 48.335,62.705 47.82,60.551 46.648,60.063 C 46.154,59.857 44.951,59.396 44.172,60.053 C 42.739,61.258 43.329,63.617 42.999,66.061 C 42.675,68.466 39.452,70.419 37.118,70.004 C 34.647,69.563 32.056,68.051 32.862,64.129 C 33.196,62.502 35.269,60.091 36.959,58.993 L 37.631,58.62 L 39.18,58.274 C 40.723,57.99 42.184,57.817 43.818,56.865 C 48.313,54.244 51.759,48.984 52.208,41.635 C 52.458,37.565 50.071,32.057 53.187,27.925 L 53.203,27.903 L 53.214,27.885 L 53.365,27.753 C 53.44,27.695 53.53,27.63 53.621,27.567 L 53.791,27.456 L 53.829,27.511 C 54.391,28.485 55.788,31.647 57.369,30.899 L 57.411,30.877 L 57.466,30.841 L 57.499,30.818 C 58.469,30.067 59.627,24.088 59.801,23.402 C 60.763,19.554 61.25,14.786 57.798,10.72 C 56.032,8.64 52.511,7.154 50.156,6.815 L 49.874,6.793 L 49.947,6.798 C 49.899,6.769 49.843,6.749 49.783,6.743 C 49.763,6.742 49.745,6.74 49.727,6.738 L 49.843,6.245 C 50.163,5.356 50.718,4.575 50.944,3.615 C 51.539,1.071 47.806,0.714 46.447,1.478 C 44.939,2.327 44.186,4.101 43.858,5.822 L 43.695,7.194 L 43.122,7.349 C 42.87,7.42 42.638,7.486 42.415,7.551 L 41.423,7.836 L 41.382,7.493 C 41.344,6.686 41.577,5.441 41.925,5.04 C 43.057,3.735 42.783,0.932 39.727,0.764 C 36.49,0.583 35.512,2.23 34.678,4.648 Z M 41.322,4.516 C 40.734,5.195 40.367,7.272 40.723,8.279 C 39.68,8.78 38.497,9.333 37.68,10.006 C 37.51,10.145 37.485,10.397 37.625,10.568 C 37.765,10.737 38.017,10.762 38.187,10.622 C 38.626,10.261 39.205,9.927 39.836,9.603 C 40.47,9.278 41.128,8.98 41.73,8.678 C 41.796,8.644 41.849,8.594 41.886,8.536 C 42.587,8.335 43.19,8.152 44.161,7.896 C 44.2,7.885 44.236,7.869 44.269,7.849 C 45.784,7.574 47.466,7.407 49.027,7.487 C 49.086,7.521 49.153,7.541 49.226,7.541 C 51.264,7.541 55.342,9.061 57.189,11.237 C 60.379,14.995 59.972,19.422 59.026,23.208 C 58.899,23.709 57.937,28.3 57.273,29.769 L 57.015,30.177 L 56.666,30.173 C 55.832,29.813 54.865,27.286 54.186,26.66 C 54.205,26.595 54.207,26.524 54.19,26.454 C 54.137,26.24 53.92,26.11 53.706,26.163 C 51.064,26.825 47.481,26.91 44.108,26.91 C 43.935,26.91 43.781,27.021 43.728,27.186 C 43.591,27.607 43.294,28.761 42.907,29.929 C 42.718,30.499 42.515,31.045 42.314,31.469 C 42.145,31.825 42.008,32.02 41.927,32.108 L 41.867,32.159 L 41.702,32.196 C 40.834,32.289 39.65,30.995 38.5,28.881 C 37.358,26.785 36.517,24.385 36.41,23.549 C 36.382,23.33 36.182,23.176 35.963,23.205 C 35.744,23.232 35.59,23.432 35.618,23.651 C 35.744,24.633 36.637,27.132 37.799,29.264 C 38.874,31.238 40.484,33.475 42.128,32.915 C 42.162,32.903 42.196,32.889 42.227,32.873 C 42.573,32.697 42.834,32.237 43.036,31.811 C 43.258,31.343 43.471,30.761 43.665,30.18 C 43.95,29.319 44.206,28.403 44.364,27.85 L 44.405,27.706 L 46.668,27.685 C 48.815,27.639 50.966,27.51 52.818,27.17 C 52.723,27.247 52.642,27.322 52.591,27.384 L 52.565,27.419 L 52.534,27.466 L 51.996,28.284 C 49.544,32.587 51.61,38.347 51.411,41.586 C 50.975,48.703 47.651,53.705 43.416,56.175 C 41.333,57.39 39.868,57.16 37.383,57.86 C 37.365,57.865 37.347,57.871 37.33,57.879 C 35.392,58.738 32.524,61.805 32.08,63.968 C 31.141,68.544 34.314,70.315 36.978,70.79 C 39.669,71.268 43.394,69.108 43.791,66.168 C 44.17,63.362 43.625,61.555 44.686,60.663 C 45.033,60.372 45.729,60.546 46.342,60.8 C 46.943,61.051 47.541,62.587 47.425,64.84 C 47.281,67.641 46.07,70.49 43.914,71.908 C 40.723,74.009 37.514,74.861 32.492,72.544 C 27.212,70.107 26.967,63.057 30.178,59.674 C 30.39,59.45 32.058,58.046 32.28,57.728 L 32.304,57.69 L 32.327,57.647 C 32.448,57.423 32.333,57.145 32.089,57.073 C 30.243,56.528 28.501,55.767 27.298,55.001 C 22.139,51.729 19.888,46.876 20.762,40.632 C 20.827,40.165 21.129,38.557 21.177,36.972 C 21.222,35.49 21.07,33.631 19.875,33.057 C 19.856,33.048 19.837,33.04 19.817,33.034 C 18.496,32.635 19.038,26.027 21.889,25.694 C 22.596,25.612 23.697,25.822 23.895,26.514 C 24.152,27.417 23.542,28.717 24.397,30.207 C 24.409,30.333 24.481,30.45 24.594,30.515 C 24.603,30.527 24.611,30.539 24.62,30.551 C 24.698,30.66 24.826,30.722 24.96,30.717 C 24.999,30.714 25.037,30.711 25.075,30.707 C 26.07,31.115 27.205,31.747 28.028,32.684 C 28.951,33.734 29.503,35.187 28.985,37.231 C 28.93,37.445 29.059,37.661 29.273,37.716 C 29.486,37.77 29.704,37.641 29.758,37.428 C 30.346,35.116 29.717,33.395 28.628,32.157 C 27.873,31.297 26.906,30.681 26.004,30.247 C 26.931,29.34 27.18,27.376 27.327,26.63 C 28.498,20.705 30.754,15.725 33.674,11.884 C 33.692,11.861 33.707,11.837 33.719,11.81 C 34.206,10.758 35.053,6.005 35.432,4.908 C 36.222,2.622 36.98,1.411 39.683,1.56 C 41.941,1.685 42.11,3.608 41.322,4.516 Z M 50.166,3.432 C 49.979,4.23 49.158,5.414 48.894,6.682 C 47.433,6.624 45.899,6.765 44.497,6.998 C 44.683,5.06 45.36,3.005 46.839,2.174 C 47.878,1.589 50.503,1.996 50.166,3.432 Z M 48.051,11.631 C 46.98,11.936 46.766,13.869 47.113,15.119 C 47.096,15.116 47.079,15.112 47.062,15.108 C 46.641,15.018 46.188,15.048 45.819,15.247 C 45.43,15.457 45.168,15.84 45.156,16.354 C 45.151,16.575 45.325,16.758 45.545,16.763 C 45.765,16.768 45.948,16.594 45.954,16.374 C 45.96,16.151 46.057,16.025 46.198,15.949 C 46.36,15.862 46.609,15.828 46.894,15.889 C 47.447,16.008 48.004,16.462 48.039,17.241 C 48.061,17.735 48.792,17.751 48.836,17.259 C 48.91,16.415 49.356,15.945 49.742,15.812 C 50.092,15.69 50.465,15.809 50.639,16.355 C 50.706,16.565 50.93,16.682 51.141,16.614 C 51.35,16.547 51.467,16.322 51.399,16.113 C 51.1,15.172 50.305,14.805 49.542,15.036 C 49.516,13.952 49.709,11.157 48.051,11.631 Z M 55.183,12.972 C 54.952,13.016 54.727,13.072 54.49,13.14 C 54.255,13.205 54.004,13.284 53.726,13.371 C 53.516,13.436 53.397,13.66 53.464,13.87 C 53.528,14.081 53.752,14.199 53.963,14.133 C 54.534,13.955 54.928,13.833 55.332,13.756 C 55.728,13.68 56.132,13.649 56.69,13.673 C 56.911,13.683 57.097,13.513 57.108,13.293 C 57.117,13.072 56.946,12.885 56.726,12.876 C 56.114,12.849 55.647,12.883 55.183,12.972 Z M 38.163,14.017 C 37.944,14.036 37.78,14.23 37.799,14.449 C 37.818,14.669 38.011,14.832 38.231,14.813 C 39.55,14.702 40.836,14.648 42.066,14.882 C 42.281,14.924 42.491,14.782 42.532,14.565 C 42.574,14.349 42.432,14.14 42.215,14.099 C 40.868,13.841 39.487,13.906 38.163,14.017 Z M 54.334,14.427 C 54.114,14.42 53.929,14.593 53.922,14.813 C 53.915,15.033 54.088,15.218 54.309,15.225 C 54.693,15.237 55.16,15.209 55.608,15.207 C 55.829,15.207 56.037,15.212 56.226,15.231 C 56.417,15.249 56.574,15.279 56.694,15.322 C 56.901,15.397 57.13,15.288 57.204,15.08 C 57.278,14.872 57.169,14.645 56.962,14.57 C 56.756,14.497 56.528,14.457 56.304,14.436 C 56.077,14.413 55.838,14.408 55.605,14.409 C 55.148,14.41 54.686,14.438 54.334,14.427 Z M 41.181,15.446 C 40.902,15.468 40.627,15.491 40.35,15.519 C 39.797,15.575 39.242,15.649 38.649,15.766 C 38.434,15.81 38.293,16.019 38.335,16.236 C 38.379,16.452 38.59,16.593 38.805,16.549 C 39.366,16.438 39.894,16.367 40.43,16.313 C 40.698,16.286 40.967,16.263 41.244,16.242 C 41.521,16.221 41.801,16.2 42.095,16.178 C 42.315,16.161 42.479,15.97 42.463,15.75 C 42.446,15.53 42.254,15.366 42.034,15.382 C 41.745,15.403 41.459,15.424 41.181,15.446 Z M 53.532,18.01 C 53.532,18.748 54.147,19.346 54.903,19.346 C 55.659,19.346 56.273,18.748 56.273,18.01 C 56.273,17.274 55.659,16.675 54.903,16.675 C 54.147,16.675 53.532,17.274 53.532,18.01 Z M 39.926,18.875 C 39.926,19.612 40.539,20.209 41.295,20.209 C 42.05,20.209 42.664,19.612 42.664,18.875 C 42.664,18.14 42.05,17.542 41.295,17.542 C 40.539,17.542 39.926,18.14 39.926,18.875 Z" fill-rule="evenodd" stroke="none" fill="#000000" stroke-width="0.5" marker-start="none" marker-end="none" stroke-miterlimit="79.8403193612775"/>
   </g>
  </g>
 </g>
</svg>
