<?xml version="1.0" standalone="no"?>
<!DOCTYPE svg PUBLIC "-//W3C//DTD SVG 1.1//EN" "http://www.w3.org/Graphics/SVG/1.1/DTD/svg11.dtd">
<!--Generator: Xara Designer (www.xara.com), SVG filter version: 6.0.0.4-->
<svg stroke-width="0.501" stroke-linejoin="bevel" fill-rule="evenodd" xmlns:xlink="http://www.w3.org/1999/xlink" xmlns="http://www.w3.org/2000/svg" version="1.1" overflow="visible" width="75pt" height="75pt" viewBox="0 0 75 75">
 <defs>
	</defs>
 <g id="Document" fill="none" stroke="black" font-family="Times New Roman" font-size="16" transform="scale(1 -1)">
  <g id="Spread" transform="translate(0 -75)">
   <g id="Layer 1">
    <path d="M 53.434,13.135 C 52.015,13.946 51.607,15.442 50.1,15.953 C 48.111,16.627 42.273,17.962 40.451,20.367 C 40.331,20.379 40.218,20.446 40.152,20.557 C 40.101,20.639 40.057,20.729 40.017,20.823 L 39.352,20.793 C 38.114,20.825 36.622,21.076 35.786,21.332 C 34.768,21.642 33.563,21.981 32.203,22.611 L 31.971,22.733 L 32.037,22.278 C 32.058,21.195 31.422,20.085 30.35,19.896 C 28.757,19.615 20.468,22.235 21.26,25.902 L 21.411,26.299 L 21.169,26.49 C 20.521,27.025 19.543,27.955 19.36,28.254 L 19.333,28.305 L 18.206,29.526 C 15.733,32.759 15.531,37.241 15.957,40.989 C 16.146,42.652 16.661,44.39 17.388,46.039 C 14.336,45.693 11.211,47.817 10.31,51.161 C 9.645,53.627 10.816,56.47 8.219,57.756 C 7.822,57.951 6.723,57.5 6.038,57.073 C 4.69,56.229 4.993,54.852 3.7,54.379 C 2.921,54.094 1.493,54.004 0.89,54.919 C -0.162,56.515 0.486,58.843 2.152,60.235 C 5.365,62.918 10.407,64.046 13.335,60.138 C 15.836,56.8 14.163,53.389 15.857,51.618 C 16.896,50.533 18.105,50.316 20.224,50.718 C 20.855,51.495 21.521,52.176 22.195,52.726 C 26.524,56.264 33.48,57.64 39.008,56.207 C 43.401,55.068 46.172,52.68 50.442,47.936 C 51.509,46.75 52.774,45.475 53.987,44.543 L 55.067,43.812 L 55.59,43.892 C 56.597,44.04 57.056,44.063 57.677,44.054 L 58.199,44.039 L 58.439,45.627 C 58.677,47.462 58.879,48.94 60.177,49.016 C 62.593,49.158 64.165,44.616 64.578,43.915 C 66.703,40.298 69.579,36.626 70.264,32.149 C 71.58,32.89 73.125,33.177 74.623,33.108 C 74.841,33.097 75.01,32.912 75,32.694 C 74.989,32.475 74.804,32.307 74.586,32.317 C 73.129,32.385 71.658,32.084 70.458,31.346 C 70.429,31.328 70.397,31.314 70.366,31.304 C 70.386,31.083 70.4,30.858 70.408,30.631 C 71.056,30.73 71.638,30.862 72.235,30.918 C 72.993,30.989 73.765,30.936 74.682,30.543 C 74.881,30.457 74.975,30.224 74.889,30.023 C 74.803,29.823 74.571,29.729 74.369,29.815 C 73.597,30.147 72.961,30.191 72.309,30.13 C 71.72,30.074 71.115,29.933 70.406,29.831 C 70.243,25.582 67.595,21.511 63.83,19.644 L 62.426,19.1 L 62.62,18.481 C 62.979,16.514 61.719,14.983 59.638,14.955 L 59.07,15.013 C 59.053,14.964 59.027,14.919 58.994,14.88 C 58.63,12.734 55.074,12.196 53.434,13.135 Z M 58.223,15.416 C 58.216,15.479 58.224,15.54 58.245,15.595 C 58.147,16.073 57.924,16.656 57.607,17.199 C 57.173,17.943 56.63,18.492 56.13,18.639 C 56.122,18.641 56.114,18.644 56.107,18.647 C 53.255,18.957 50.46,20.008 48.509,22.156 C 48.362,22.318 48.375,22.569 48.536,22.716 C 48.698,22.863 48.948,22.85 49.095,22.689 C 52.129,19.347 57.505,18.831 61.701,19.723 C 61.741,19.731 61.783,19.733 61.815,19.702 C 61.817,19.711 61.824,19.714 61.833,19.717 C 66.4,21.011 69.771,25.751 69.618,30.563 C 69.461,35.5 66.352,39.335 63.895,43.513 C 63.377,44.395 61.951,48.328 60.223,48.226 C 59.236,48.169 59.228,45.095 58.925,43.558 C 58.888,43.369 58.72,43.234 58.527,43.239 C 57.27,43.272 57.019,43.312 55.433,43.069 C 55.382,43.034 55.321,43.011 55.255,43.004 C 53.131,42.776 51.61,41.946 49.874,40.92 C 49.683,40.807 49.437,40.873 49.329,41.065 C 49.097,41.473 48.124,42.941 47.033,44.192 C 46.487,44.819 45.93,45.369 45.439,45.707 C 44.907,46.071 44.628,46.071 44.501,45.991 C 44.299,45.864 44.027,45.36 43.792,44.438 C 43.571,43.57 43.409,42.467 43.312,41.333 C 43.112,39.015 43.195,36.75 43.467,36.112 C 43.553,35.912 43.459,35.679 43.259,35.594 C 43.057,35.507 42.825,35.601 42.739,35.802 C 42.371,36.666 42.33,39.151 42.523,41.401 C 42.687,43.305 43.088,46.037 44.08,46.661 C 45.148,47.332 46.681,45.801 47.629,44.712 C 48.472,43.745 49.249,42.653 49.693,41.975 L 49.809,41.793 L 50.774,42.343 C 51.757,42.872 52.77,43.32 53.948,43.587 C 52.529,44.592 51.044,46.083 49.853,47.407 C 45.604,52.129 42.964,54.364 38.809,55.441 C 33.508,56.815 26.816,55.482 22.695,52.114 C 22.061,51.596 21.431,50.951 20.832,50.213 C 20.803,50.142 20.755,50.08 20.692,50.037 C 18.721,47.544 17.104,44.071 16.744,40.899 C 16.261,36.661 16.64,31.777 19.939,28.811 C 19.985,28.771 20.02,28.719 20.044,28.657 L 20.156,28.518 C 20.39,28.257 20.887,27.786 21.315,27.404 C 21.372,27.397 21.429,27.375 21.479,27.341 C 21.817,27.113 22.262,26.829 22.715,26.592 C 23.179,26.348 23.608,26.177 23.918,26.14 C 24.135,26.113 24.289,25.915 24.262,25.699 C 24.236,25.482 24.038,25.327 23.821,25.354 C 23.359,25.412 22.823,25.642 22.348,25.891 C 22.272,25.93 22.197,25.971 22.123,26.012 C 21.139,23.233 28.482,20.369 30.212,20.675 C 31.04,20.821 31.532,22.122 31.079,22.976 C 30.976,22.974 30.871,23.014 30.792,23.092 C 30.419,23.466 29.871,23.881 29.329,24.322 C 28.831,24.726 28.281,25.191 28.035,25.634 C 27.973,25.745 27.971,25.875 28.018,25.985 C 27.962,26.112 27.977,26.265 28.067,26.383 C 28.2,26.556 28.448,26.59 28.622,26.456 C 29.277,25.955 30.463,26.078 31.363,26.679 C 32.166,27.216 32.694,28.107 32.081,29.101 C 31.967,29.287 32.024,29.53 32.211,29.645 C 32.396,29.76 32.64,29.703 32.755,29.517 C 33.621,28.113 32.938,26.779 31.802,26.021 C 31.096,25.549 30.161,25.272 29.312,25.372 C 29.462,25.238 29.635,25.092 29.828,24.936 C 30.185,24.646 30.558,24.357 30.889,24.074 C 30.981,24.101 31.086,24.092 31.193,24.031 C 33.046,22.95 34.648,22.506 36.016,22.089 C 36.912,21.816 38.613,21.553 39.795,21.584 C 39.777,21.681 39.761,21.779 39.748,21.878 C 39.677,22.379 39.659,22.937 39.676,23.489 C 39.693,24.042 39.745,24.595 39.821,25.089 C 39.898,25.58 40,26.025 40.119,26.356 C 40.193,26.562 40.42,26.668 40.625,26.594 C 40.83,26.52 40.937,26.294 40.864,26.087 C 40.768,25.824 40.676,25.433 40.604,24.968 C 40.532,24.506 40.482,23.985 40.467,23.465 C 40.451,22.944 40.469,22.432 40.531,21.987 C 40.551,21.84 40.576,21.705 40.604,21.581 C 40.685,21.536 40.749,21.464 40.784,21.373 C 41.672,18.972 47.787,17.574 50.354,16.703 C 52.003,16.145 52.732,14.448 53.826,13.822 C 55.41,12.918 58.381,13.894 58.223,15.416 Z M 61.686,18.911 C 60.407,18.653 59.012,18.518 57.599,18.55 C 57.863,18.262 58.095,17.932 58.291,17.598 C 58.628,17.02 58.89,16.37 59.013,15.787 C 61.218,15.467 62.389,16.972 61.686,18.911 Z M 44.784,23.818 C 44.634,23.976 44.64,24.226 44.799,24.376 C 45.878,25.403 48.099,26.157 49.344,26.357 C 49.56,26.392 49.763,26.245 49.798,26.03 C 49.833,25.814 49.685,25.61 49.47,25.575 C 48.898,25.484 48.091,25.259 47.305,24.943 C 46.513,24.622 45.787,24.224 45.343,23.803 C 45.185,23.653 44.935,23.659 44.784,23.818 Z M 43.873,26.07 C 43.758,26.256 43.815,26.501 44,26.617 C 44.661,27.029 45.539,27.328 46.43,27.499 C 47.323,27.671 48.262,27.719 49.055,27.607 C 49.272,27.576 49.422,27.375 49.392,27.159 C 49.361,26.943 49.16,26.792 48.944,26.823 C 48.257,26.921 47.408,26.881 46.579,26.722 C 45.749,26.563 44.972,26.29 44.42,25.944 C 44.234,25.829 43.99,25.886 43.873,26.07 Z M 59.25,28.28 C 59.088,28.789 59.542,29.032 59.964,29.228 C 60.144,29.311 60.318,29.385 60.437,29.467 C 61.206,29.606 62.362,29.671 62.868,28.947 C 62.777,27.715 59.869,27.406 59.25,28.28 Z M 53.703,28.409 C 52.57,28.726 51.815,29.636 52.018,30.442 C 52.222,31.247 53.308,31.644 54.441,31.328 C 55.574,31.011 56.329,30.1 56.126,29.294 C 55.922,28.49 54.837,28.092 53.703,28.409 Z M 64.794,30.486 C 64.282,31.056 64.534,32.093 65.36,32.799 C 66.184,33.506 67.27,33.617 67.784,33.048 C 68.297,32.478 68.044,31.441 67.219,30.734 C 66.394,30.028 65.307,29.916 64.794,30.486 Z M 17.625,46.873 C 17.677,46.882 17.729,46.881 17.777,46.872 C 18.291,47.914 18.885,48.907 19.53,49.808 C 17.739,49.586 16.424,49.881 15.286,51.071 C 13.335,53.109 15.013,56.579 12.702,59.663 C 10.192,63.011 5.748,62.207 2.659,59.627 C 1.193,58.401 0.792,56.507 1.551,55.355 C 1.823,54.942 2.708,54.86 3.428,55.122 C 4.304,55.444 4.002,56.733 5.617,57.743 C 6.139,58.069 7.684,58.903 8.57,58.465 C 11.66,56.935 10.472,53.6 11.074,51.367 C 11.915,48.247 14.897,46.378 17.625,46.873 Z" stroke="none" fill="#000000" stroke-width="0.5" fill-rule="evenodd" marker-start="none" marker-end="none" stroke-miterlimit="79.8403193612775"/>
   </g>
  </g>
 </g>
</svg>
