<?xml version="1.0" standalone="no"?>
<!DOCTYPE svg PUBLIC "-//W3C//DTD SVG 1.1//EN" "http://www.w3.org/Graphics/SVG/1.1/DTD/svg11.dtd">
<!--Generator: Xara Designer (www.xara.com), SVG filter version: 6.0.0.4-->
<svg stroke-width="0.501" stroke-linejoin="bevel" fill-rule="evenodd" xmlns:xlink="http://www.w3.org/1999/xlink" xmlns="http://www.w3.org/2000/svg" version="1.1" overflow="visible" width="75pt" height="75pt" viewBox="0 0 75 75">
 <defs>
	</defs>
 <g id="Document" fill="none" stroke="black" font-family="Times New Roman" font-size="16" transform="scale(1 -1)">
  <g id="Spread" transform="translate(0 -75)">
   <g id="Layer 1">
    <path d="M 54.352,3.209 C 54.578,5.585 58.354,4.603 60.079,5.161 C 62.77,6.032 63.489,9.877 60.917,12.278 C 60.43,12.732 57.932,14.151 56.961,14.536 L 56.838,14.574 L 56.648,14.285 C 55.385,12.834 51.802,10.572 48.962,9.321 L 47.648,8.798 C 41.186,6.053 28.392,2.181 25.656,5.343 C 24.31,6.898 25.832,8.509 27.844,9.957 C 26.26,10.431 24.835,11.093 23.581,11.928 C 23.55,11.895 23.512,11.866 23.469,11.844 C 21.725,10.901 19.209,10.023 16.797,9.481 C 14.414,8.944 12.012,8.709 10.552,9.148 C 9.61,9.429 8.923,9.793 8.549,10.297 C 8.139,10.85 8.17,11.472 8.428,12.063 C 8.794,12.901 10.103,13.741 11.303,14.439 C 12.642,15.216 14.1,15.958 15.206,16.669 C 15.624,16.938 16.223,17.276 16.733,17.568 C 17.245,17.864 17.58,18.07 17.706,18.167 L 17.748,18.201 L 17.769,18.236 C 17.886,18.371 18.078,18.429 18.258,18.37 C 18.353,18.338 18.431,18.279 18.486,18.203 C 17.389,20.908 17.005,24.144 17.43,27.811 C 16.355,28.365 15.576,29.572 16.21,31.559 C 16.716,33.153 17.397,34.37 18.819,35.672 L 20.473,36.994 L 20.499,37.016 C 20.712,37.187 21.711,37.768 22.292,38.09 L 22.635,38.273 L 23.363,38.864 C 25.203,40.634 24.767,42.835 23.864,45.213 C 23.049,44.84 22.307,44.557 21.389,43.968 C 21.176,43.832 20.892,43.894 20.755,44.107 C 20.618,44.319 20.68,44.603 20.894,44.74 C 21.893,45.382 22.69,45.682 23.524,46.068 C 23.443,46.267 23.359,46.467 23.275,46.67 C 23.102,46.631 22.923,46.592 22.74,46.554 C 22.428,46.49 22.099,46.424 21.775,46.358 C 21.117,46.223 20.462,46.084 19.884,45.929 C 19.64,45.864 19.388,46.009 19.323,46.254 C 19.257,46.498 19.401,46.749 19.646,46.815 C 20.254,46.979 20.935,47.122 21.59,47.257 C 21.922,47.324 22.243,47.388 22.553,47.453 C 22.677,47.478 22.797,47.504 22.915,47.529 C 22.474,48.596 22.052,49.68 21.796,50.762 C 20.966,54.264 21.365,55.746 21.143,57.978 C 20.823,61.217 19.634,66.091 20.048,68.29 C 20.596,71.197 25.151,67.053 26.497,65.577 L 26.547,65.517 L 26.847,65.73 C 28.634,66.734 32.429,67.713 34.286,68.235 L 34.74,68.37 L 34.757,68.617 C 34.874,70.297 35.228,74.261 36.523,74.942 C 36.566,74.964 36.613,74.98 36.661,74.987 C 37.842,75.184 39.717,73.124 41.428,71.054 C 43.267,68.827 45.248,66.086 46.647,64.164 C 52.263,56.455 58.749,45.719 61.108,39.377 C 62.111,36.683 62.943,30.857 62.696,27.805 C 62.597,26.6 61.75,21.316 60.853,19.403 L 60.569,18.967 L 60.555,18.775 L 60.524,18.649 L 63.294,16.801 C 66.229,14.58 68.737,11.528 68.012,6.675 C 67.5,3.237 64.848,0.526 60.082,0.048 C 57.244,-0.234 54.113,0.7 54.352,3.209 Z M 59.992,0.961 C 64.399,1.401 66.662,3.845 67.105,6.81 C 67.973,12.632 63.765,15.603 59.843,18.002 C 59.737,18.066 59.663,18.171 59.635,18.292 L 59.596,18.464 C 59.588,18.5 59.584,18.537 59.585,18.574 C 59.594,19.1 59.688,18.957 59.673,19.071 C 59.653,19.229 59.718,19.386 59.854,19.495 L 60.119,19.956 C 60.772,21.552 61.668,26.49 61.781,27.878 C 62.018,30.797 61.206,36.488 60.249,39.057 C 57.932,45.282 51.505,55.937 45.906,63.624 C 44.501,65.553 42.537,68.269 40.721,70.47 C 39.215,72.291 38.021,73.455 37.329,73.891 L 36.882,74.056 L 36.653,73.808 C 36.014,72.73 35.742,69.523 35.634,67.989 C 35.621,67.803 35.496,67.644 35.319,67.586 C 33.535,67.003 27.924,65.707 26.784,64.577 C 26.565,64.358 26.195,64.418 26.048,64.703 C 25.907,64.961 24.603,66.296 23.218,67.311 C 22.531,67.813 21.895,68.182 21.436,68.304 C 21.024,68.414 20.987,68.314 20.951,68.121 C 20.566,66.083 21.705,61.622 22.057,58.067 C 22.254,56.065 22.021,54.964 22.319,52.878 C 22.46,52.855 22.588,52.764 22.655,52.626 C 22.965,51.984 23.831,51.727 24.726,51.943 C 25.633,52.162 26.471,52.846 26.651,53.968 C 26.692,54.217 26.927,54.388 27.177,54.348 C 27.427,54.307 27.598,54.072 27.557,53.822 C 27.308,52.275 26.139,51.341 24.94,51.052 C 24.129,50.856 23.253,50.942 22.599,51.361 C 22.627,51.236 22.656,51.105 22.688,50.973 C 23.662,46.859 28.354,41.129 23.145,37.51 C 23.123,37.494 23.098,37.48 23.068,37.466 C 22.879,37.38 21.274,36.462 21.078,36.305 L 21.041,36.275 C 18.54,34.489 17.691,33.19 17.083,31.28 C 16.614,29.804 17.152,28.943 17.926,28.575 C 17.946,28.575 17.968,28.574 17.989,28.571 C 18.085,28.559 18.171,28.517 18.24,28.456 C 18.567,28.36 18.916,28.339 19.24,28.387 C 21.445,28.714 21.154,32.681 23.568,34.107 C 23.786,34.237 24.068,34.164 24.197,33.946 C 24.325,33.728 24.252,33.447 24.035,33.318 C 22.304,32.295 22.133,27.889 19.373,27.48 C 19.045,27.431 18.682,27.439 18.32,27.508 C 17.35,18.561 21.403,12.524 28.831,10.636 C 29.931,11.362 31.062,12.034 31.883,12.62 C 33.274,13.614 34.269,14.351 34.749,14.753 L 35.054,15.044 C 35.186,15.267 35.468,15.34 35.686,15.21 C 35.904,15.081 35.976,14.799 35.846,14.582 L 35.816,14.531 L 35.791,14.492 C 35.514,14.118 34.173,13.129 32.415,11.874 C 31.917,11.517 30.635,10.797 29.356,9.946 C 29.284,9.789 29.129,9.686 28.959,9.678 C 27.134,8.42 25.484,6.943 26.351,5.942 C 28.494,3.465 40.393,6.713 47.29,9.642 L 47.32,9.653 C 50.724,10.83 55.837,14.206 56.211,15.246 C 56.279,15.432 56.458,15.554 56.655,15.549 L 56.71,15.548 L 56.746,15.546 C 57.561,15.458 60.924,13.527 61.542,12.95 C 64.474,10.213 63.908,5.436 60.361,4.288 C 58.284,3.616 55.392,4.451 55.264,3.122 C 55.133,1.738 56.998,0.663 59.992,0.961 Z M 16.596,10.376 C 18.829,10.878 21.13,11.671 22.77,12.511 C 20.921,13.942 19.502,15.794 18.567,18.006 C 18.578,17.937 18.573,17.863 18.55,17.791 C 18.507,17.665 18.424,17.58 18.394,17.551 C 18.194,17.353 17.673,17.052 17.19,16.773 C 16.664,16.47 16.095,16.15 15.701,15.898 C 14.583,15.177 13.028,14.379 11.764,13.646 C 10.39,12.846 9.478,12.176 9.269,11.697 C 9.098,11.304 9.13,11.054 9.286,10.845 C 9.477,10.586 9.922,10.293 10.816,10.026 C 12.024,9.664 14.214,9.841 16.596,10.376 Z M 18.486,18.203 C 18.512,18.137 18.539,18.072 18.567,18.006 C 18.555,18.078 18.528,18.145 18.486,18.203 Z M 32.704,27.561 C 30.75,30.086 32.336,32.986 33.926,34.669 C 34.784,35.579 36.323,37.001 37.777,37.195 C 38.027,37.228 38.258,37.051 38.292,36.801 C 38.326,36.55 38.149,36.32 37.898,36.286 C 36.821,36.142 35.485,34.985 34.593,34.04 C 33.075,32.433 31.934,30.055 33.43,28.123 C 34.092,27.267 35.157,27.195 36.45,27.799 C 36.998,28.054 37.246,28.408 37.392,28.851 C 37.554,29.346 37.578,29.896 37.675,30.612 C 37.866,32.035 38.326,33.627 40.761,34.77 C 40.991,34.877 41.264,34.779 41.371,34.55 C 41.479,34.32 41.38,34.047 41.151,33.94 C 39.091,32.972 38.748,31.709 38.584,30.49 C 38.503,29.884 38.461,29.167 38.263,28.565 C 38.049,27.912 37.644,27.343 36.839,26.968 C 35.368,26.282 33.75,26.212 32.704,27.561 Z M 47.279,49.054 C 47.149,49.078 46.994,49.098 46.82,49.114 C 46.471,49.145 46.062,49.158 45.635,49.16 C 44.777,49.162 43.886,49.125 43.342,49.125 C 43.088,49.125 42.883,49.331 42.883,49.583 C 42.883,49.836 43.088,50.042 43.342,50.042 C 43.867,50.042 44.768,50.081 45.639,50.076 C 46.077,50.074 46.516,50.062 46.903,50.027 C 47.096,50.01 47.281,49.987 47.449,49.956 C 47.614,49.923 47.777,49.883 47.92,49.823 C 48.154,49.727 48.266,49.459 48.168,49.225 C 48.072,48.99 47.804,48.879 47.57,48.976 C 47.507,49.001 47.412,49.028 47.279,49.054 Z M 29.585,49.901 C 29.43,50.101 29.467,50.39 29.667,50.545 C 29.867,50.7 30.156,50.663 30.31,50.463 C 30.376,50.378 30.411,50.386 30.441,50.392 C 30.508,50.406 30.632,50.474 30.761,50.645 C 30.919,50.856 31.031,51.155 31.036,51.48 L 31.027,51.676 L 30.995,51.754 C 30.943,51.896 30.904,52.043 30.882,52.197 C 30.804,52.722 31.541,52.935 31.756,52.449 C 31.827,52.284 31.878,52.119 31.912,51.948 L 31.978,51.816 C 32.137,51.554 32.372,51.343 32.626,51.227 C 32.995,51.061 33.346,51.105 33.597,51.501 C 33.733,51.715 34.017,51.777 34.23,51.641 C 34.445,51.506 34.507,51.222 34.371,51.008 C 33.84,50.174 32.965,50.067 32.249,50.391 C 32.122,50.448 31.999,50.518 31.883,50.601 L 31.801,50.662 L 31.769,50.578 C 31.694,50.399 31.601,50.235 31.494,50.094 C 31.282,49.812 30.986,49.57 30.631,49.494 C 30.239,49.411 29.855,49.552 29.585,49.901 Z M 42.265,51.179 C 42.184,51.419 42.313,51.68 42.553,51.76 C 42.887,51.873 43.235,51.938 43.577,51.979 C 43.921,52.021 44.272,52.04 44.599,52.06 C 45.296,52.1 45.887,52.137 46.405,52.311 C 46.645,52.391 46.906,52.263 46.986,52.023 C 47.067,51.783 46.938,51.522 46.699,51.442 C 46.364,51.329 46.017,51.265 45.674,51.224 C 45.331,51.182 44.979,51.163 44.652,51.144 C 44.313,51.125 43.995,51.106 43.687,51.068 C 43.381,51.031 43.1,50.977 42.845,50.892 C 42.606,50.811 42.346,50.939 42.265,51.179 Z M 34.103,55.575 C 34.017,55.813 34.142,56.077 34.381,56.161 C 34.619,56.247 34.881,56.122 34.967,55.883 C 35.203,55.22 36.255,54.712 37.298,54.86 C 37.797,54.931 38.238,55.149 38.536,55.521 C 38.83,55.89 39.027,56.465 38.94,57.335 C 38.915,57.587 39.099,57.812 39.351,57.837 C 39.603,57.862 39.828,57.678 39.854,57.426 C 40.071,55.251 38.844,54.153 37.427,53.952 C 36.12,53.766 34.536,54.36 34.103,55.575 Z" fill-rule="evenodd" stroke="none" fill="#000000" stroke-width="0.5" marker-start="none" marker-end="none" stroke-miterlimit="79.8403193612775"/>
   </g>
  </g>
 </g>
</svg>
