<?xml version="1.0" standalone="no"?>
<!DOCTYPE svg PUBLIC "-//W3C//DTD SVG 1.1//EN" "http://www.w3.org/Graphics/SVG/1.1/DTD/svg11.dtd">
<!--Generator: Xara Designer (www.xara.com), SVG filter version: 6.0.0.4-->
<svg stroke-width="0.501" stroke-linejoin="bevel" fill-rule="evenodd" xmlns:xlink="http://www.w3.org/1999/xlink" xmlns="http://www.w3.org/2000/svg" version="1.1" overflow="visible" width="75pt" height="75pt" viewBox="0 0 75 75">
 <defs>
	</defs>
 <g id="Document" fill="none" stroke="black" font-family="Times New Roman" font-size="16" transform="scale(1 -1)">
  <g id="Spread" transform="translate(0 -75)">
   <g id="Layer 1">
    <path d="M 55.114,0.904 C 54.066,1.052 53.669,1.908 53.467,2.786 C 53.261,3.684 53.219,4.705 52.981,5.636 C 52.438,7.762 50.957,11.34 48.859,12.267 C 48.809,12.289 48.767,12.321 48.733,12.359 C 48.601,12.274 48.468,12.192 48.335,12.116 C 45.536,10.505 41.614,10.121 38.729,10.774 C 38.751,10.06 39.167,8.909 39.273,7.81 C 39.326,7.258 39.301,6.674 39.019,6.213 C 38.719,5.722 38.183,5.455 37.414,5.43 C 35.912,5.382 34.591,7.142 33.707,9.028 C 32.807,10.946 32.223,13.279 32.297,14.914 C 31.538,15.79 30.891,16.787 30.396,17.921 C 30.342,17.915 30.284,17.911 30.222,17.907 C 30.083,17.899 29.916,17.897 29.735,17.897 C 29.372,17.898 28.931,17.914 28.493,17.93 C 28.06,17.946 27.617,17.964 27.254,17.973 C 27.072,17.977 26.913,17.979 26.784,17.977 C 26.718,17.977 26.663,17.975 26.617,17.972 C 26.57,17.969 26.538,17.966 26.519,17.963 C 26.327,17.933 26.145,18.065 26.115,18.258 C 26.084,18.45 26.216,18.631 26.409,18.662 C 26.513,18.678 26.649,18.683 26.773,18.684 C 26.916,18.687 27.085,18.684 27.27,18.681 C 27.64,18.671 28.084,18.653 28.519,18.637 C 28.958,18.621 29.388,18.605 29.738,18.605 C 29.884,18.604 30.014,18.605 30.121,18.609 C 30.075,18.738 30.03,18.867 29.988,18.999 C 29.934,18.985 29.876,18.983 29.818,18.996 C 29.319,19.112 28.672,19.287 28.031,19.446 C 27.384,19.606 26.762,19.745 26.297,19.796 C 26.103,19.817 25.962,19.991 25.983,20.186 C 26.005,20.379 26.179,20.52 26.374,20.499 C 26.893,20.442 27.561,20.291 28.201,20.132 C 28.765,19.992 29.319,19.844 29.774,19.733 C 29.474,20.891 29.319,22.171 29.339,23.584 C 29.376,26.209 29.726,27.97 30.344,30.281 C 30.456,30.705 30.572,31.079 30.693,31.424 C 30.668,32.115 30.399,32.803 30.008,33.489 C 29.948,33.444 29.872,33.416 29.791,33.417 C 28.601,33.425 27.072,34.613 26.239,35.386 C 24.979,36.555 23.286,39.034 22.728,40.658 C 21.061,45.503 21.563,48.555 23.118,51.559 C 24.174,53.597 25.537,55.262 27.181,56.526 C 24.944,58.864 25.921,61.337 27.008,63.557 C 28.221,66.039 29.358,68.02 28.131,69.897 C 27.738,70.498 27.392,70.542 27.066,70.441 C 26.65,70.31 26.193,69.92 25.675,69.441 C 25.196,68.997 24.653,68.463 24.13,68.222 C 23.508,67.934 22.893,68.048 22.429,68.806 C 20.647,71.726 25.189,75.681 28.784,74.902 C 30.405,74.551 32.009,73.254 32.602,71.682 C 33.587,69.076 33.258,67.654 31.427,63.592 C 30.629,61.821 29.736,60.653 31.109,58.603 C 31.948,58.882 32.831,59.089 33.756,59.221 C 40.003,60.114 46.749,58.678 50.226,52.844 C 53.467,47.405 52.913,43.011 52.228,37.822 C 52.193,37.552 51.604,34.355 51.56,34.16 L 51.556,34.146 C 51.55,34.126 51.543,34.107 51.535,34.088 C 52.112,33.549 52.464,32.557 52.681,31.997 C 53.954,28.702 54.593,25.35 54.234,21.485 C 54.203,21.153 54.158,20.824 54.097,20.499 C 54.58,20.559 55.057,20.647 55.535,20.733 C 56.153,20.845 56.777,20.957 57.356,20.991 C 57.551,21.004 57.718,20.854 57.73,20.66 C 57.742,20.465 57.593,20.297 57.398,20.286 C 57.136,20.27 56.86,20.237 56.568,20.193 C 56.277,20.149 55.976,20.094 55.661,20.037 C 55.118,19.939 54.534,19.833 53.935,19.768 C 53.88,19.554 53.82,19.341 53.754,19.132 C 53.984,19.136 54.232,19.148 54.493,19.164 C 54.838,19.185 55.199,19.211 55.556,19.235 C 55.914,19.258 56.273,19.28 56.607,19.289 C 56.942,19.298 57.263,19.295 57.543,19.269 C 57.737,19.252 57.88,19.079 57.863,18.885 C 57.845,18.69 57.673,18.547 57.479,18.565 C 57.238,18.587 56.949,18.591 56.626,18.582 C 56.305,18.573 55.959,18.553 55.603,18.529 C 55.248,18.506 54.884,18.479 54.535,18.458 C 54.186,18.438 53.845,18.422 53.537,18.422 C 53.527,18.422 53.517,18.422 53.506,18.423 C 53.504,18.417 53.501,18.411 53.5,18.406 C 55.074,17.32 56.839,13.285 57.578,11.426 C 58.095,10.127 58.691,7.41 58.597,5.083 C 58.55,3.923 58.33,2.805 57.794,2.008 C 57.234,1.176 56.352,0.73 55.114,0.904 Z M 57.207,2.403 C 57.633,3.037 57.845,3.997 57.89,5.111 C 57.981,7.333 57.404,9.95 56.921,11.165 C 56.129,13.159 54.506,16.71 53.219,17.734 C 52.3,15.704 50.882,13.967 49.366,12.807 C 51.688,11.593 53.148,7.833 53.665,5.812 C 53.91,4.858 53.978,3.725 54.157,2.944 C 54.344,2.126 54.622,1.688 55.213,1.604 C 56.191,1.466 56.803,1.803 57.207,2.403 Z M 38.416,6.582 C 38.574,6.841 38.618,7.23 38.569,7.742 C 38.472,8.758 38.019,10.028 38.022,10.839 C 38.022,10.879 38.028,10.919 38.041,10.955 C 37.576,11.096 37.147,11.268 36.765,11.469 C 35.408,12.184 34.123,13.062 33.015,14.15 C 33.11,12.728 33.609,10.899 34.347,9.329 C 35.261,7.379 36.406,6.106 37.392,6.137 C 38.002,6.156 38.276,6.353 38.416,6.582 Z M 47.982,12.728 C 50.572,14.22 53.173,17.699 53.531,21.55 C 53.877,25.289 53.261,28.53 52.021,31.742 C 51.707,32.557 51.366,33.378 50.955,33.659 L 50.786,33.739 L 50.623,33.653 C 50.402,33.483 50.028,33.065 49.569,32.371 C 49.014,31.529 48.437,30.468 47.995,29.582 C 47.909,29.41 47.701,29.338 47.527,29.42 C 44.981,30.628 38.945,30.447 35.891,28.971 C 35.744,28.9 35.568,28.939 35.464,29.064 C 34.956,29.681 34.3,30.908 33.707,31.794 C 33.183,32.575 32.766,33.005 32.451,33.129 L 32.278,33.143 L 31.96,32.567 C 31.583,31.84 31.301,31.129 31.027,30.099 C 30.419,27.822 30.082,26.121 30.045,23.574 C 29.961,17.586 33.176,14.157 37.094,12.095 C 39.638,10.757 44.658,10.815 47.982,12.728 Z M 40.736,14.451 C 40.723,14.862 41.314,15.215 42.056,15.239 C 42.796,15.262 43.409,14.947 43.422,14.536 C 43.435,14.124 42.844,13.77 42.103,13.747 C 41.362,13.723 40.749,14.039 40.736,14.451 Z M 36.133,16.821 C 35.398,17.01 34.901,17.548 35.023,18.021 C 35.146,18.494 35.841,18.725 36.575,18.535 C 37.309,18.346 37.806,17.808 37.684,17.335 C 37.562,16.862 36.867,16.631 36.133,16.821 Z M 46.007,17.384 C 45.843,17.887 46.342,18.502 47.122,18.757 C 47.902,19.012 48.669,18.81 48.833,18.308 C 48.997,17.806 48.498,17.191 47.718,16.935 C 46.938,16.68 46.171,16.882 46.007,17.384 Z M 35.856,29.726 L 36.219,29.883 C 39.345,31.095 44.489,31.27 47.271,30.287 L 47.515,30.188 L 48.122,31.338 C 48.398,31.831 48.691,32.323 48.979,32.76 C 49.485,33.527 50.15,34.403 50.738,34.448 C 50.789,34.451 50.842,34.449 50.895,34.441 C 51.009,35.032 51.497,37.69 51.527,37.913 C 52.211,43.097 52.724,47.27 49.618,52.481 C 46.35,57.965 39.967,59.395 33.857,58.521 C 32.947,58.391 32.081,58.187 31.263,57.909 C 31.246,57.891 31.229,57.875 31.209,57.86 C 31.184,57.842 31.158,57.828 31.126,57.84 C 27.924,56.735 25.432,54.49 23.746,51.234 C 22.283,48.411 21.789,45.559 23.397,40.887 C 23.912,39.388 25.535,37.004 26.719,35.905 C 27.526,35.157 28.738,34.265 29.606,34.138 C 29.572,34.192 29.536,34.245 29.5,34.298 C 28.846,35.259 28.069,36.188 27.668,37.027 C 27.583,37.203 27.658,37.414 27.834,37.498 C 28.01,37.582 28.221,37.508 28.306,37.332 C 28.67,36.571 29.423,35.667 30.085,34.695 C 30.522,34.052 30.942,33.348 31.185,32.601 C 31.357,32.952 31.546,33.297 31.76,33.666 C 31.804,33.743 31.876,33.801 31.961,33.826 C 33.369,34.266 34.575,31.65 35.587,30.101 L 35.856,29.726 Z M 37.344,36.153 C 37.233,36.313 37.274,36.534 37.434,36.645 C 39.288,37.927 42.47,38.225 44.537,37.393 C 44.717,37.319 44.805,37.113 44.732,36.932 C 44.659,36.751 44.453,36.664 44.272,36.736 C 42.419,37.484 39.486,37.205 37.836,36.064 C 37.675,35.952 37.455,35.993 37.344,36.153 Z M 35.124,39.849 C 34.998,39.998 35.017,40.221 35.165,40.347 C 37.461,42.288 42.21,42.49 44.813,41.574 C 44.998,41.509 45.094,41.307 45.029,41.123 C 44.965,40.939 44.763,40.842 44.579,40.906 C 42.131,41.768 37.668,41.538 35.623,39.807 C 35.474,39.682 35.25,39.7 35.124,39.849 Z M 34.411,44.115 C 34.294,44.271 34.326,44.492 34.483,44.609 C 36.945,46.44 40.473,46.575 43.293,45.911 C 43.484,45.866 43.602,45.676 43.557,45.486 C 43.512,45.296 43.322,45.178 43.132,45.222 C 40.422,45.86 37.136,45.701 34.905,44.042 C 34.748,43.926 34.527,43.958 34.411,44.115 Z M 30.427,58.356 C 28.928,60.73 30.055,62.27 30.783,63.883 C 32.596,67.907 32.82,69.107 31.941,71.432 C 31.437,72.764 30.039,73.907 28.634,74.21 C 25.424,74.906 21.671,71.405 23.034,69.174 C 23.306,68.729 23.537,68.727 23.833,68.863 C 24.227,69.046 24.667,69.471 25.195,69.959 C 25.684,70.412 26.258,70.928 26.854,71.115 C 27.538,71.329 28.189,71.1 28.723,70.284 C 30.271,67.918 28.665,65.337 27.643,63.246 C 26.543,60.999 25.782,58.947 27.758,56.946 C 28.584,57.512 29.475,57.983 30.427,58.356 Z" stroke-linejoin="round" stroke-linecap="round" stroke="none" fill="#000000" stroke-width="1.5" marker-start="none" marker-end="none" stroke-miterlimit="79.8403193612775"/>
   </g>
  </g>
 </g>
</svg>
