<?xml version="1.0" standalone="no"?>
<!DOCTYPE svg PUBLIC "-//W3C//DTD SVG 1.1//EN" "http://www.w3.org/Graphics/SVG/1.1/DTD/svg11.dtd">
<!--Generator: Xara Designer (www.xara.com), SVG filter version: 6.0.0.4-->
<svg stroke-width="0.501" stroke-linejoin="bevel" fill-rule="evenodd" xmlns:xlink="http://www.w3.org/1999/xlink" xmlns="http://www.w3.org/2000/svg" version="1.1" overflow="visible" width="75pt" height="75pt" viewBox="0 0 75 75">
 <defs>
	</defs>
 <g id="Document" fill="none" stroke="black" font-family="Times New Roman" font-size="16" transform="scale(1 -1)">
  <g id="Spread" transform="translate(0 -75)">
   <g id="Layer 1">
    <path d="M 62.033,15.336 C 60.083,16.358 60.913,18.255 61.696,19.136 C 62.921,20.511 65.261,21.117 66.031,21.447 C 67.816,22.213 69.703,25.45 68.342,26.948 C 66.392,29.091 59.915,30.476 57.744,32.313 C 57.547,31.648 57.126,30.878 56.597,30.366 C 54.404,28.25 49.934,27.535 48.226,26.355 C 47.808,26.067 46.788,25.223 45.759,24.679 C 44.767,24.153 43.444,23.728 42.599,24.746 C 42.333,25.065 42.166,25.393 42.079,25.718 C 40.591,25.012 38.653,24.811 36.66,24.241 C 35.636,23.949 34.125,23.553 32.676,23.138 C 31.406,22.773 30.238,22.409 29.53,22.108 C 29.588,21.374 29.595,20.78 29.519,20.47 C 29.504,20.411 29.477,20.359 29.438,20.313 C 28.879,19.661 27.199,19.047 25.15,18.573 C 23.045,18.086 20.404,17.719 17.78,17.66 C 14.396,17.583 10.553,17.871 7.434,18.419 C 4.453,18.945 1.808,19.745 1.239,20.931 C 1.203,21.005 1.192,21.09 1.209,21.171 C 1.852,24.398 2.467,27.37 3.196,30.499 C 3.216,30.579 3.259,30.65 3.323,30.704 C 4.418,31.624 7.644,32.113 8.912,32.312 C 8.859,32.556 8.811,32.799 8.768,33.043 C 8.701,33.011 8.624,32.999 8.545,33.013 C 7.97,33.108 7.297,33.185 6.612,33.296 C 5.926,33.408 5.212,33.555 4.578,33.796 C 4.381,33.87 4.282,34.092 4.356,34.288 C 4.432,34.485 4.652,34.585 4.849,34.51 C 5.409,34.296 6.063,34.159 6.734,34.05 C 7.4,33.942 8.075,33.863 8.66,33.768 C 8.612,34.157 8.577,34.547 8.557,34.935 C 8.022,35.058 7.302,35.305 6.604,35.572 C 5.878,35.851 5.15,36.161 4.63,36.403 C 4.438,36.491 4.355,36.719 4.444,36.91 C 4.532,37.101 4.76,37.184 4.951,37.096 C 5.456,36.861 6.167,36.557 6.877,36.286 C 7.484,36.052 8.078,35.848 8.536,35.727 C 8.53,39.341 9.754,42.783 11.87,45.352 L 12.569,46.132 L 13.053,47.001 C 13.593,47.999 14.239,49.244 14.871,50.267 C 15.548,51.362 16.429,52.588 17.353,52.769 L 17.675,52.782 L 17.734,52.779 L 17.751,52.778 L 18.017,52.758 C 19.137,52.518 19.597,50.798 19.95,49.408 C 22.414,53.022 25.312,55.454 29.102,57.768 C 35.075,61.413 44.174,62.099 49.381,59.854 C 53.899,57.906 57.676,54.056 59.581,49.888 C 60.844,47.123 61.069,43.14 60.292,39.719 C 60.288,39.702 60.283,39.685 60.277,39.669 C 59.772,38.327 61.69,36.132 64.569,34.965 C 66.046,34.366 68.484,33.176 69.309,32.824 C 75.834,30.039 76.566,24.596 72.435,19.481 C 70.527,17.119 65.185,13.687 62.033,15.336 Z M 71.84,19.961 C 75.697,24.735 75.008,29.562 69.009,32.122 C 68.067,32.525 65.802,33.641 64.282,34.258 C 61.856,35.241 59.461,37.257 59.426,39.142 L 59.549,39.887 C 60.297,43.186 60.064,46.992 58.885,49.572 C 57.057,53.572 53.418,57.283 49.079,59.153 C 44.124,61.288 35.285,60.648 29.499,57.116 C 25.67,54.78 22.81,52.347 20.38,48.679 C 20.33,48.605 20.26,48.553 20.182,48.527 C 20.189,48.502 20.196,48.477 20.204,48.454 L 20.33,48.112 L 20.801,48.085 C 22.48,47.975 25.47,47.668 27.648,46.749 L 28.392,46.373 L 28.695,46.622 C 29.408,47.179 30.646,48 31.84,48.645 C 33.082,49.315 35.362,50.416 35.774,49.079 C 36.4,47.056 35.096,43.112 34.793,41.269 C 34.759,41.06 34.563,40.919 34.355,40.954 C 34.147,40.988 34.006,41.184 34.04,41.393 C 34.372,43.411 35.586,47.1 35.044,48.853 C 35.039,48.871 34.982,49.042 34.315,48.876 C 33.744,48.735 32.991,48.398 32.203,47.973 C 30.616,47.117 29.05,45.996 28.744,45.656 C 28.621,45.52 28.419,45.49 28.261,45.586 C 25.993,46.977 21.671,47.286 20.043,47.363 C 19.905,47.37 19.781,47.451 19.719,47.575 C 19.098,48.833 18.814,52.077 17.714,52.021 C 17.688,52.02 17.663,52.021 17.637,52.025 C 17.186,52.093 16.435,51.342 15.521,49.865 C 14.66,48.474 13.886,46.873 13.214,45.72 C 13.198,45.693 13.179,45.668 13.157,45.646 C 10.998,43.435 9.62,40.328 9.35,36.974 C 9.477,36.956 9.591,36.873 9.646,36.747 C 10.061,35.779 10.772,35.409 11.591,35.339 C 12.446,35.265 13.419,35.521 14.276,35.847 C 14.472,35.922 14.692,35.823 14.768,35.626 C 14.843,35.43 14.743,35.208 14.547,35.134 C 13.661,34.795 12.556,34.489 11.526,34.578 C 10.667,34.651 9.863,35.004 9.301,35.802 C 9.293,33.463 9.827,31.043 11.009,28.754 C 11.105,28.567 11.032,28.336 10.845,28.24 C 10.658,28.143 10.427,28.216 10.33,28.403 C 9.795,29.439 9.386,30.502 9.095,31.572 C 9.08,31.567 9.065,31.564 9.049,31.562 C 7.573,31.328 5.009,30.892 3.995,30.25 L 3.909,30.187 L 3.414,28.009 C 3.074,26.477 2.754,24.956 2.436,23.397 L 1.989,21.18 L 2.134,20.99 C 2.801,20.349 4.73,19.67 7.567,19.171 C 10.633,18.633 14.426,18.347 17.762,18.423 C 20.332,18.482 22.921,18.841 24.978,19.317 C 26.834,19.746 28.14,20.25 28.677,20.646 L 28.789,20.748 L 28.808,20.902 C 28.823,21.176 28.807,21.586 28.765,22.089 C 28.752,22.107 28.741,22.126 28.731,22.147 C 28.675,22.258 28.679,22.383 28.73,22.486 C 28.653,23.258 28.53,24.192 28.376,25.168 C 28.029,27.364 27.642,29.075 27.492,29.321 L 27.465,29.346 C 27.378,29.466 27.365,29.631 27.446,29.768 C 27.555,29.949 27.789,30.008 27.969,29.899 C 28.067,29.841 28.121,29.756 28.143,29.72 C 28.313,29.44 28.54,28.51 28.755,27.413 C 29.003,27.668 29.291,27.863 29.603,28.014 C 30.051,28.233 30.549,28.36 31.051,28.44 C 32.035,28.597 33.098,28.578 33.924,28.654 C 34.134,28.673 34.32,28.518 34.339,28.308 C 34.358,28.099 34.203,27.912 33.993,27.893 C 33.131,27.815 32.103,27.834 31.17,27.685 C 30.244,27.538 29.503,27.239 29.084,26.61 C 29.044,26.551 28.99,26.507 28.93,26.478 C 29.001,26.078 29.069,25.673 29.13,25.286 C 29.255,24.491 29.372,23.657 29.455,22.902 C 30.23,23.208 31.337,23.547 32.466,23.871 C 33.906,24.284 35.448,24.689 36.449,24.976 C 38.632,25.599 40.619,25.778 42.016,26.543 C 42.079,27.134 42.362,27.69 42.74,28.148 C 43.288,28.814 44.093,29.352 44.852,29.558 L 44.952,29.578 L 44.546,30.297 C 43.151,32.674 43.396,35.44 45.307,37.183 C 45.463,37.327 45.705,37.315 45.846,37.159 C 45.99,37.003 45.978,36.762 45.822,36.62 C 44.221,35.158 43.962,32.803 45.209,30.677 L 45.898,29.454 C 46.044,29.191 45.844,28.869 45.544,28.885 C 44.941,28.917 43.966,28.436 43.329,27.662 C 42.713,26.915 42.518,26.038 43.186,25.234 C 43.619,24.712 44.375,24.81 45.402,25.353 C 46.382,25.872 47.284,26.633 47.791,26.984 C 49.736,28.327 54,28.921 56.065,30.915 C 56.757,31.582 57.152,32.731 57.098,33.106 C 57.069,33.314 57.214,33.509 57.422,33.538 C 57.565,33.558 57.7,33.497 57.781,33.39 C 57.818,33.362 57.85,33.328 57.877,33.287 C 59.077,31.375 66.377,30.243 68.907,27.461 C 70.882,25.289 68.173,21.536 66.331,20.745 C 65.36,20.328 63.341,19.835 62.267,18.627 C 61.513,17.779 61.207,16.631 62.387,16.013 C 64.977,14.657 69.932,17.599 71.84,19.961 Z M 9.36,27.527 C 7.78,27.785 6.066,28.201 5.247,28.743 C 5.071,28.859 5.022,29.096 5.138,29.272 C 5.255,29.447 5.492,29.495 5.668,29.379 C 5.976,29.176 6.503,28.967 7.191,28.773 C 7.867,28.582 8.663,28.415 9.484,28.28 C 12.459,27.792 17.028,27.511 20.157,27.846 C 20.812,27.917 21.922,28.137 22.993,28.39 C 24.071,28.643 25.065,28.918 25.495,29.089 C 25.691,29.166 25.913,29.069 25.99,28.873 C 26.068,28.677 25.972,28.455 25.776,28.378 C 25.285,28.184 24.238,27.898 23.169,27.646 C 22.093,27.393 20.943,27.162 20.238,27.087 C 17.023,26.742 12.383,27.03 9.36,27.527 Z M 15.016,32.486 C 14.973,32.631 14.987,32.792 15.077,32.968 C 15.541,34.084 17.808,33.268 18.535,32.626 C 18.755,32.433 18.612,32.31 18.364,32.02 C 17.76,31.316 15.282,31.588 15.016,32.486 Z M 20.768,34.414 C 20.701,34.613 20.81,34.83 21.009,34.897 C 21.209,34.963 21.426,34.855 21.493,34.655 C 21.823,33.663 22.718,33.274 23.717,33.278 C 24.783,33.282 25.965,33.744 26.747,34.489 C 26.899,34.635 27.141,34.629 27.286,34.476 C 27.432,34.324 27.427,34.083 27.273,33.936 C 26.347,33.053 24.975,32.519 23.72,32.514 C 22.413,32.509 21.21,33.086 20.768,34.414 Z" fill-rule="evenodd" stroke="none" fill="#000000" stroke-width="0.5" marker-start="none" marker-end="none" stroke-miterlimit="79.8403193612775"/>
   </g>
  </g>
 </g>
</svg>
