<?xml version="1.0" standalone="no"?>
<!DOCTYPE svg PUBLIC "-//W3C//DTD SVG 1.1//EN" "http://www.w3.org/Graphics/SVG/1.1/DTD/svg11.dtd">
<!--Generator: Xara Designer (www.xara.com), SVG filter version: 6.0.0.4-->
<svg stroke-width="0.501" stroke-linejoin="bevel" fill-rule="evenodd" xmlns:xlink="http://www.w3.org/1999/xlink" xmlns="http://www.w3.org/2000/svg" version="1.1" overflow="visible" width="75pt" height="75pt" viewBox="0 0 75 75">
 <defs>
	</defs>
 <g id="Document" fill="none" stroke="black" font-family="Times New Roman" font-size="16" transform="scale(1 -1)">
  <g id="Spread" transform="translate(0 -75)">
   <g id="Layer 1">
    <path d="M 35.157,1.357 C 33.784,1.829 29.308,5.009 31.394,7.38 C 32.789,8.966 34.16,7.912 34.879,7.062 C 35.623,6.183 36.987,5.887 37.124,5.868 C 40.096,5.579 41.19,6.645 41.621,9.449 C 41.869,11.063 40.412,14.142 39.092,14.762 L 38.547,14.864 L 37.141,14.474 C 33.702,13.716 30.232,14.312 27.309,16.504 C 23.467,19.385 20.473,25.759 21.057,30.701 C 21.224,32.106 22.416,33.882 23.526,34.751 L 23.813,34.942 L 23.837,35.224 C 23.859,36.536 23.529,40.159 23.715,41.877 C 24.74,51.342 27.018,55.141 30.732,60.966 C 31.287,61.836 31.913,62.667 32.585,63.47 C 32.36,63.565 32.129,63.689 31.931,63.802 C 31.59,63.993 31.252,64.203 30.984,64.35 C 30.795,64.454 30.726,64.693 30.83,64.881 C 30.934,65.07 31.173,65.139 31.361,65.035 C 31.64,64.881 31.985,64.668 32.314,64.482 C 32.478,64.39 32.635,64.307 32.778,64.24 C 32.924,64.172 33.042,64.127 33.132,64.107 C 33.133,64.106 33.135,64.105 33.137,64.105 L 33.136,64.102 L 33.636,64.623 C 33.615,64.635 33.595,64.647 33.577,64.659 C 33.42,64.757 33.253,64.879 33.096,64.998 C 32.934,65.122 32.784,65.239 32.639,65.341 C 32.492,65.447 32.374,65.52 32.29,65.559 C 32.094,65.648 32.006,65.88 32.094,66.076 C 32.184,66.273 32.416,66.36 32.612,66.272 C 32.772,66.199 32.941,66.087 33.094,65.978 C 33.251,65.866 33.418,65.736 33.568,65.622 C 33.724,65.504 33.867,65.4 33.991,65.321 C 34.053,65.284 34.104,65.255 34.147,65.236 C 34.173,65.223 34.192,65.216 34.203,65.214 L 34.203,65.215 L 35.725,66.797 L 36.617,68.438 C 37.507,70.168 38.404,71.99 39.963,73.255 C 41.097,74.175 41.921,73.425 42.4,72.661 L 42.561,72.346 L 43.986,73.158 C 45.813,74.123 47.693,74.872 49.091,74.983 C 50.617,75.103 53.125,74.639 52.221,72.414 C 52.21,72.388 52.197,72.363 52.18,72.339 L 52.162,72.314 L 52.143,72.287 C 51.879,71.966 49.467,69.864 48.197,68.819 C 47.579,68.309 47.239,67.761 47.002,67.231 L 46.604,66.207 L 47.635,66.004 C 48.587,65.736 49.426,65.352 50.195,64.978 L 51.121,64.528 L 51.735,64.889 C 52.184,65.18 52.524,65.452 52.965,65.782 L 53.644,66.272 L 54.003,66.983 C 55.036,69.012 56.74,72.032 58.794,71.286 C 60.19,70.779 59.999,67.767 59.594,65.124 C 59.139,62.151 58.239,58.66 57.47,56.183 C 56.571,53.286 53.727,49.393 52.093,48.168 C 52.059,48.142 52.021,48.123 51.98,48.109 L 51.964,48.104 L 51.75,47.929 C 51.041,47.264 49.227,45.107 48.617,43.783 C 48.011,42.467 47.326,39.953 47.242,38.242 L 47.244,37.79 L 47.467,37.697 C 47.937,37.411 48.269,36.954 48.603,36.652 C 52.27,33.319 54.141,26.57 51.899,21.886 C 49.803,17.51 46.671,17.516 44.717,17.077 L 44.581,17.036 L 45.01,16.655 C 47.058,14.277 47.338,9.763 46.449,6.549 C 44.997,1.292 39.422,-0.105 35.157,1.357 Z M 45.696,6.757 C 46.691,10.355 46.073,15.239 43.59,16.881 C 43.489,16.948 43.433,17.048 43.418,17.153 C 43.223,17.325 43.056,17.473 42.899,17.632 C 42.622,17.91 42.38,18.214 42.066,18.722 C 41.952,18.905 42.009,19.146 42.193,19.26 C 42.376,19.374 42.617,19.317 42.731,19.133 C 43.021,18.665 43.227,18.411 43.453,18.183 C 43.606,18.028 43.775,17.881 43.987,17.694 C 46.214,18.449 49.075,17.8 51.193,22.224 C 53.264,26.548 51.53,32.935 48.078,36.073 C 47.413,36.675 47.283,37.015 46.803,37.144 C 46.476,37.122 46.21,36.95 45.991,36.638 C 45.765,36.319 45.604,35.867 45.515,35.353 C 45.428,34.843 45.416,34.296 45.469,33.805 C 45.523,33.306 45.64,32.899 45.786,32.649 C 45.894,32.463 45.831,32.224 45.644,32.115 C 45.457,32.007 45.218,32.07 45.11,32.257 C 44.887,32.64 44.752,33.167 44.692,33.72 C 44.631,34.28 44.644,34.9 44.745,35.485 C 44.845,36.067 45.036,36.642 45.352,37.089 C 45.619,37.468 45.984,37.764 46.451,37.879 C 46.444,39.743 47.232,42.641 47.907,44.109 C 48.639,45.702 51.003,48.471 51.601,48.801 L 51.663,48.827 L 52.236,49.33 C 53.776,50.836 55.976,54.008 56.723,56.415 C 57.485,58.867 58.373,62.32 58.821,65.242 C 59.31,68.441 59.155,70.324 58.526,70.552 C 57.153,71.051 55.814,68.781 54.621,66.465 C 54.739,66.479 54.873,66.491 55.042,66.501 C 55.483,66.526 55.865,66.412 56.137,66.125 C 56.398,65.85 56.499,65.477 56.523,65.099 C 56.571,64.352 56.324,63.378 55.989,62.421 C 55.353,60.604 54.324,58.646 53.912,57.914 L 53.903,57.898 L 53.943,57.545 C 53.965,57.32 53.984,57.094 53.993,56.86 C 54.163,56.8 54.334,56.767 54.514,56.753 C 54.627,56.743 54.743,56.741 54.865,56.741 C 54.987,56.743 55.112,56.747 55.246,56.753 C 55.461,56.762 55.644,56.595 55.652,56.379 C 55.661,56.163 55.493,55.981 55.278,55.972 C 55.02,55.962 54.734,55.95 54.45,55.974 C 54.299,55.986 54.145,56.008 53.99,56.046 C 53.978,55.838 53.959,55.623 53.928,55.402 C 53.971,55.385 54.021,55.365 54.072,55.347 C 54.175,55.307 54.295,55.26 54.415,55.216 C 54.535,55.171 54.653,55.129 54.753,55.095 C 54.802,55.079 54.845,55.066 54.88,55.055 C 54.903,55.048 54.919,55.044 54.934,55.042 C 55.133,55.032 55.296,54.874 55.307,54.672 C 55.319,54.457 55.153,54.272 54.937,54.261 C 54.887,54.258 54.842,54.264 54.817,54.269 C 54.768,54.277 54.713,54.289 54.667,54.303 C 54.617,54.317 54.562,54.334 54.506,54.353 C 54.393,54.391 54.264,54.438 54.141,54.483 C 54.016,54.53 53.894,54.577 53.791,54.618 C 53.786,54.619 53.783,54.62 53.779,54.622 C 53.703,54.305 53.604,53.973 53.477,53.624 C 53.403,53.421 53.179,53.317 52.976,53.391 C 52.773,53.464 52.668,53.689 52.742,53.891 C 53.337,55.528 53.265,56.709 53.113,57.931 C 53.102,58.016 53.119,58.102 53.162,58.175 C 53.498,58.757 54.596,60.806 55.251,62.678 C 55.583,63.628 55.779,64.472 55.743,65.05 C 55.725,65.335 55.652,65.5 55.57,65.587 C 55.498,65.663 55.366,65.736 55.085,65.72 C 54.606,65.694 54.467,65.641 54.01,65.576 C 53.04,64.892 52.521,64.388 51.326,63.741 C 51.216,63.683 51.086,63.678 50.974,63.731 C 49.471,64.435 48.018,65.303 46.03,65.526 C 45.989,65.531 45.952,65.541 45.917,65.556 C 45.642,65.574 45.319,65.666 44.807,65.782 C 44.352,65.883 43.856,65.971 43.371,65.953 C 43.158,65.945 42.977,66.11 42.966,66.323 C 42.853,68.389 42.712,69.793 42.121,71.531 C 42.087,71.565 42.059,71.606 42.04,71.655 C 41.623,72.662 41.191,73.245 40.456,72.648 C 38.519,71.076 37.781,68.702 36.378,66.363 C 36.361,66.334 36.339,66.307 36.316,66.284 C 34.468,64.485 32.713,62.617 31.391,60.545 C 27.712,54.775 25.5,51.092 24.492,41.793 C 24.328,40.276 24.658,36.479 24.605,35.06 C 24.643,34.988 24.659,34.906 24.647,34.82 C 24.616,34.606 24.642,34.215 24.732,33.69 C 24.819,33.183 24.956,32.595 25.115,32.008 C 25.275,31.422 25.456,30.844 25.63,30.358 C 25.807,29.862 25.968,29.486 26.083,29.288 C 26.192,29.102 26.129,28.863 25.943,28.753 C 25.757,28.645 25.517,28.708 25.408,28.894 C 25.253,29.16 25.071,29.597 24.894,30.095 C 24.713,30.602 24.526,31.199 24.361,31.802 C 24.197,32.405 24.054,33.019 23.961,33.558 C 23.933,33.723 23.909,33.885 23.89,34.041 C 22.974,33.269 21.968,31.746 21.833,30.609 C 21.284,25.965 24.142,19.856 27.778,17.13 C 30.775,14.882 34.397,14.422 37.968,15.498 C 37.396,16 36.913,16.611 36.588,17.166 C 36.48,17.353 36.542,17.592 36.728,17.702 C 36.915,17.81 37.153,17.748 37.263,17.562 C 37.68,16.85 38.384,16.049 39.158,15.589 C 39.169,15.581 39.181,15.574 39.191,15.567 C 41.137,14.938 42.665,11.093 42.394,9.33 C 41.906,6.166 40.48,4.756 37.04,5.091 L 37.022,5.094 C 36.832,5.121 35.219,5.449 34.282,6.557 C 33.586,7.38 32.826,7.824 31.982,6.863 C 30.65,5.351 33.877,2.623 35.41,2.097 C 39.418,0.723 44.406,2.089 45.696,6.757 Z M 29.679,40.212 C 29.556,40.39 29.602,40.634 29.779,40.756 C 30.188,41.036 30.761,41.22 31.375,41.338 C 31.999,41.458 32.704,41.515 33.409,41.519 C 34.114,41.524 34.825,41.475 35.463,41.378 C 36.095,41.282 36.676,41.135 37.109,40.934 C 37.304,40.843 37.389,40.61 37.297,40.414 C 37.206,40.219 36.972,40.134 36.778,40.226 C 36.443,40.382 35.945,40.514 35.346,40.606 C 34.752,40.695 34.081,40.741 33.413,40.737 C 32.745,40.733 32.088,40.678 31.522,40.569 C 30.947,40.46 30.499,40.301 30.222,40.111 C 30.044,39.989 29.8,40.034 29.679,40.212 Z M 33.773,45.002 C 32.544,45.042 31.291,44.88 29.698,44.642 C 29.486,44.61 29.287,44.757 29.255,44.971 C 29.223,45.184 29.37,45.383 29.584,45.415 C 31.173,45.653 32.49,45.826 33.799,45.783 C 35.116,45.74 36.412,45.481 37.976,44.871 C 38.178,44.793 38.277,44.566 38.198,44.365 C 38.12,44.164 37.893,44.064 37.692,44.143 C 36.202,44.724 34.993,44.962 33.773,45.002 Z M 38.777,47.914 C 36.443,49.136 34.605,49.399 31.954,49.181 C 31.739,49.163 31.55,49.324 31.533,49.538 C 31.515,49.753 31.675,49.942 31.89,49.96 C 34.661,50.189 36.652,49.909 39.139,48.607 C 39.33,48.506 39.405,48.27 39.305,48.079 C 39.205,47.887 38.968,47.813 38.777,47.914 Z M 47.701,69.422 C 48.841,70.361 50.769,72.041 51.369,72.612 L 51.507,72.75 L 51.591,73.111 C 51.625,73.974 50.423,74.304 49.153,74.204 C 47.563,74.078 45.129,72.983 42.905,71.652 C 43.456,69.985 43.615,68.593 43.724,66.752 L 43.726,66.731 L 43.779,66.728 C 44.212,66.703 44.625,66.623 44.978,66.544 C 45.301,66.471 45.613,66.391 45.829,66.354 C 46.1,67.094 46.454,68.395 47.701,69.422 Z" fill-rule="evenodd" stroke="none" fill="#000000" stroke-width="0.5" marker-start="none" marker-end="none" stroke-miterlimit="79.8403193612775"/>
   </g>
  </g>
 </g>
</svg>
