<?xml version="1.0" standalone="no"?>
<!DOCTYPE svg PUBLIC "-//W3C//DTD SVG 1.1//EN" "http://www.w3.org/Graphics/SVG/1.1/DTD/svg11.dtd">
<!--Generator: Xara Designer (www.xara.com), SVG filter version: 6.0.0.4-->
<svg stroke-width="0.501" stroke-linejoin="bevel" fill-rule="evenodd" xmlns:xlink="http://www.w3.org/1999/xlink" xmlns="http://www.w3.org/2000/svg" version="1.1" overflow="visible" width="75pt" height="75pt" viewBox="0 0 75 75">
 <defs>
	</defs>
 <g id="Document" fill="none" stroke="black" font-family="Times New Roman" font-size="16" transform="scale(1 -1)">
  <g id="Spread" transform="translate(0 -75)">
   <g id="Layer 1">
    <path d="M 47.406,6.793 C 44.781,7.265 43.315,9.287 42.412,11.305 C 41.568,13.186 41.016,16.613 41.072,18.937 L 41.096,19.299 L 40.32,19.154 C 38.879,18.89 37.081,18.615 35.534,18.77 C 29.354,19.382 22.169,22.552 18.807,27.535 C 17.331,29.724 16.308,31.53 14.788,33.344 C 13.805,34.442 11.296,35.139 8.524,34.625 C 7.106,34.362 5.139,33.008 3.439,33.178 C 2.434,33.279 1.354,33.844 0.747,34.585 C -1.119,36.862 0.812,38.953 3.243,39.958 C 5.532,40.907 8.703,41.164 11.181,40.052 L 11.357,39.955 L 11.027,41.435 C 10.906,42.125 10.817,42.803 10.753,43.467 C 10.751,43.472 10.749,43.478 10.748,43.484 C 9.918,46.462 9.334,47.323 7.315,48.504 C 6.652,48.892 6.09,48.763 5.33,48.702 C 4.544,48.639 3.71,48.705 2.895,49.732 C 1.898,50.989 2.555,53.444 4.346,54.304 C 6.885,55.52 9.155,54.351 11.284,52.236 C 11.475,53.133 11.687,53.938 11.895,54.634 C 12.559,56.875 13.434,58.63 14.456,59.985 C 14.176,60.261 13.882,60.49 13.567,60.708 C 13.233,60.937 12.88,61.152 12.51,61.39 C 12.317,61.514 12.26,61.772 12.385,61.965 C 12.509,62.158 12.767,62.214 12.96,62.09 C 13.325,61.856 13.689,61.635 14.04,61.393 C 14.367,61.167 14.69,60.918 15.004,60.615 L 14.998,60.607 L 15.455,61.126 L 15.456,61.378 C 15.398,61.403 15.345,61.442 15.302,61.495 C 15.096,61.743 14.837,61.988 14.552,62.233 C 14.262,62.48 13.971,62.708 13.68,62.948 C 13.502,63.094 13.477,63.357 13.624,63.534 C 13.769,63.711 14.032,63.737 14.209,63.59 C 14.478,63.369 14.798,63.118 15.094,62.864 C 15.269,62.713 15.445,62.555 15.611,62.388 C 16.068,63.525 17.284,63.796 18.075,63.236 L 18.223,63.084 L 19.541,63.645 C 21.208,64.231 23.028,64.534 24.599,64.472 C 25.896,64.42 27.792,64.071 29.567,63.54 C 29.568,63.54 29.569,63.54 29.57,63.541 C 29.838,63.553 30.242,63.735 30.77,64.081 C 31.279,64.416 31.831,64.854 32.392,65.292 C 32.943,65.721 33.508,66.156 34.015,66.451 C 34.475,66.719 35.059,66.981 35.565,66.778 C 36.277,66.493 36.425,65.338 36.41,64.472 C 36.395,63.77 36.271,62.977 36.02,62.288 C 36.82,62.607 37.628,62.94 38.127,63.118 C 38.676,63.314 40.515,64.076 41.224,63.253 C 42.784,61.44 39.554,55.782 38.836,54.796 C 37.063,52.364 35.231,49.462 35.809,47.139 C 37.166,41.677 43.565,45.802 48.122,45.895 C 51.447,45.963 53.312,44.658 54.418,43.683 L 55.201,42.97 L 55.765,42.945 C 56.582,42.932 57.704,42.972 58.583,43.028 C 67.063,43.581 74.761,39.194 74.998,29.148 C 75.062,26.388 74.197,24.001 73.386,22.141 C 72.461,20.017 69.13,16.178 66.725,15.436 C 65.95,15.197 64.301,14.8 63.429,15.687 C 60.824,18.334 66.405,21.223 67.696,23.019 C 71.71,28.601 69.561,35.909 63.868,38.609 C 62.604,39.208 59.469,39.427 58.364,39.279 L 58.267,39.255 L 58.936,37.969 C 60.643,33.907 60.357,28.328 57.625,24.932 C 57.318,24.551 56.978,24.199 56.614,23.865 C 56.612,23.855 56.611,23.843 56.61,23.832 C 56.246,21.255 55.801,18.514 57.454,16.974 L 57.81,16.685 L 57.862,16.664 C 57.937,16.641 58.077,16.61 58.308,16.574 C 58.576,16.53 58.93,16.484 59.267,16.415 C 59.863,16.293 60.784,16.042 61.001,15.264 C 61.392,13.862 60.719,12.731 59.627,12.131 C 58.553,11.543 57.065,11.445 55.676,11.999 C 53.519,12.859 50.799,15.63 49.975,18.124 C 49.914,18.023 49.856,17.919 49.801,17.814 C 48.871,16.043 48.441,13.816 48.988,11.961 C 49.181,11.305 51.064,10.928 51.269,9.255 C 51.473,7.58 50.217,6.292 47.406,6.793 Z M 50.443,9.153 C 50.272,10.537 48.621,10.259 48.189,11.725 C 47.563,13.847 48.065,16.3 49.063,18.201 C 49.27,18.595 49.519,18.966 49.799,19.319 C 49.826,19.37 49.862,19.415 49.906,19.451 C 51.894,21.856 55.352,23.434 56.976,25.454 C 59.845,29.02 59.809,35.357 57.382,39.158 C 57.371,39.176 57.36,39.196 57.351,39.217 C 57.195,39.577 57.458,39.828 57.615,39.917 C 58.472,40.405 62.682,40.093 64.225,39.361 C 70.383,36.441 72.692,28.542 68.371,22.533 C 66.941,20.543 62.187,18.135 64.023,16.27 C 64.483,15.802 65.584,15.955 66.479,16.232 C 68.565,16.875 71.751,20.472 72.623,22.474 C 73.418,24.3 74.225,26.552 74.165,29.128 C 73.944,38.561 66.799,42.729 58.638,42.197 C 57.465,42.122 55.803,42.073 54.994,42.148 C 54.91,42.156 54.83,42.189 54.766,42.242 C 53.783,43.059 52.201,45.147 48.139,45.063 C 43.768,44.973 36.583,40.57 35.001,46.939 C 34.311,49.708 36.459,52.948 38.162,55.286 C 39.079,56.544 41.604,61.534 40.593,62.709 C 40.363,62.976 39.368,62.676 38.406,62.334 C 37.502,62.011 34.421,60.666 33.654,60.656 C 33.532,60.654 33.414,60.707 33.333,60.8 C 32.172,62.15 27.235,63.535 24.567,63.64 C 22.62,63.716 20.224,63.187 18.317,62.221 C 18.129,62.126 17.9,62.187 17.783,62.362 C 17.505,62.779 16.051,63.046 16.282,61.013 C 16.297,60.885 16.251,60.757 16.159,60.668 C 14.776,59.32 13.561,57.317 12.693,54.397 C 11.733,51.163 10.649,45.548 12.365,39.255 C 12.466,38.883 12.05,38.585 11.731,38.8 C 9.468,40.325 6.017,40.206 3.561,39.189 C 1.128,38.183 0.169,36.605 1.391,35.113 C 1.85,34.552 2.724,34.087 3.522,34.007 C 5.251,33.835 6.15,35.031 8.372,35.443 C 11.283,35.983 14.149,35.304 15.416,33.89 C 16.983,32.02 18.064,30.124 19.497,28.001 C 22.674,23.293 29.584,20.195 35.617,19.598 C 37.531,19.407 39.889,19.928 41.472,20.218 C 41.748,20.268 41.995,20.036 41.961,19.758 C 41.709,17.668 42.272,13.653 43.171,11.646 C 44.036,9.715 45.337,8.012 47.553,7.613 C 50.036,7.17 50.553,8.242 50.443,9.153 Z M 59.225,12.861 C 60.041,13.308 60.468,14.073 60.199,15.04 C 60.138,15.261 59.808,15.454 59.101,15.599 C 58.481,15.726 57.741,15.767 57.397,15.962 L 57.38,15.972 L 57.351,15.99 L 57.333,16.003 C 55.032,17.63 55.328,20.735 55.658,23.064 C 53.933,21.725 51.94,20.612 50.608,19.011 C 51.001,16.7 53.821,13.636 55.985,12.772 C 57.165,12.302 58.391,12.403 59.225,12.861 Z M 11.09,51.243 C 8.891,53.568 6.892,54.6 4.705,53.552 C 3.304,52.88 2.934,51.023 3.548,50.249 C 4.13,49.514 4.649,49.483 5.263,49.532 C 5.903,49.584 6.793,49.775 7.735,49.223 C 9.199,48.366 10.003,47.617 10.629,46.33 C 10.644,48.129 10.83,49.785 11.09,51.243 Z M 20.321,52.081 C 20.123,52.538 19.937,53.017 19.758,53.495 C 19.58,53.97 19.406,54.455 19.24,54.908 C 19.16,55.123 19.271,55.362 19.486,55.442 C 19.702,55.521 19.942,55.411 20.02,55.196 C 20.192,54.732 20.36,54.261 20.538,53.787 C 20.714,53.315 20.896,52.85 21.086,52.413 C 21.176,52.201 21.08,51.956 20.868,51.865 C 20.658,51.774 20.413,51.87 20.321,52.081 Z M 22.43,52.92 C 21.738,53.595 21.022,54.704 20.424,55.481 C 20.284,55.662 20.318,55.925 20.5,56.064 C 20.682,56.204 20.944,56.17 21.084,55.989 C 21.688,55.202 22.387,54.126 23.011,53.515 C 23.176,53.355 23.179,53.092 23.019,52.927 C 22.858,52.762 22.594,52.76 22.43,52.92 Z M 20.569,59.628 C 20.716,60.389 21.419,60.894 22.137,60.754 C 22.853,60.616 23.317,59.884 23.168,59.122 C 23.02,58.361 22.318,57.856 21.6,57.996 C 20.884,58.135 20.42,58.866 20.569,59.628 Z M 33.771,61.51 L 33.958,61.543 C 34.198,61.605 34.525,61.717 34.895,61.854 C 34.906,61.886 34.921,61.917 34.94,61.947 C 35.337,62.582 35.56,63.584 35.577,64.487 C 35.585,64.934 35.542,65.327 35.46,65.615 C 35.37,65.931 35.266,66.002 35.256,66.005 C 35.173,66.039 34.93,66.021 34.433,65.731 C 33.984,65.47 33.463,65.072 32.904,64.635 C 32.355,64.207 31.771,63.743 31.227,63.386 C 31.091,63.296 30.951,63.209 30.812,63.13 C 31.772,62.778 32.637,62.375 33.268,61.944 L 33.771,61.51 Z" stroke-linejoin="round" stroke-linecap="round" stroke="none" fill="#000000" stroke-width="1.5" marker-start="none" marker-end="none" stroke-miterlimit="79.8403193612775"/>
   </g>
  </g>
 </g>
</svg>
