<?xml version="1.0" standalone="no"?>
<!DOCTYPE svg PUBLIC "-//W3C//DTD SVG 1.1//EN" "http://www.w3.org/Graphics/SVG/1.1/DTD/svg11.dtd">
<!--Generator: Xara Designer (www.xara.com), SVG filter version: 6.0.0.4-->
<svg stroke-width="0.501" stroke-linejoin="bevel" fill-rule="evenodd" xmlns:xlink="http://www.w3.org/1999/xlink" xmlns="http://www.w3.org/2000/svg" version="1.1" overflow="visible" width="75pt" height="75pt" viewBox="0 0 75 75">
 <defs>
	</defs>
 <g id="Document" fill="none" stroke="black" font-family="Times New Roman" font-size="16" transform="scale(1 -1)">
  <g id="Spread" transform="translate(0 -75)">
   <g id="Layer 1">
    <path d="M 24.161,3.553 C 17.173,6.723 12.236,10.895 11.798,19.312 C 11.681,23.869 14.418,29.18 17.746,30.917 L 18.83,31.3 L 18.713,33.975 C 18.634,40.846 20.089,46.756 22.004,53.033 C 22.283,53.95 22.586,55.045 22.898,56.202 C 22.588,56.214 22.285,56.241 21.989,56.275 C 21.663,56.312 21.338,56.356 21.019,56.397 C 20.375,56.48 19.739,56.553 19.045,56.547 C 18.804,56.545 18.607,56.738 18.605,56.98 C 18.603,57.221 18.796,57.418 19.038,57.42 C 19.795,57.427 20.482,57.347 21.131,57.263 C 21.457,57.221 21.769,57.178 22.086,57.142 C 22.4,57.108 22.71,57.081 23.027,57.07 C 23.061,57.069 23.094,57.064 23.128,57.055 C 23.205,57.34 23.28,57.628 23.357,57.917 C 22.269,58.536 20.877,58.735 19.567,59.141 C 19.337,59.211 19.207,59.456 19.278,59.687 C 19.35,59.916 19.594,60.045 19.824,59.975 C 21.054,59.595 22.417,59.389 23.59,58.783 C 24.004,60.332 24.417,61.846 24.797,63.071 C 26.031,67.044 27.308,71.794 28.49,74.134 C 28.95,75.043 29.681,75.209 30.398,74.761 C 30.977,74.401 31.545,73.65 32.037,72.873 C 32.853,71.584 33.463,70.276 33.823,69.563 L 33.95,69.333 L 34.287,69.481 C 36.3,70.063 40.758,70.019 43.036,69.547 L 43.413,69.439 L 43.414,69.469 C 43.833,71.35 46.364,75.024 47.819,74.712 C 50.475,74.144 50.665,66.319 52.421,60.715 C 52.654,59.969 53.018,58.782 53.428,57.469 C 54.888,57.919 56.474,58.189 57.984,58.418 C 58.221,58.454 58.445,58.291 58.48,58.052 C 58.516,57.815 58.352,57.592 58.114,57.555 C 56.603,57.326 55.078,57.063 53.689,56.636 C 53.789,56.32 53.891,55.999 53.994,55.679 C 54.601,55.785 55.348,55.872 56.085,55.908 C 56.518,55.929 56.953,55.932 57.357,55.908 C 57.758,55.885 58.142,55.836 58.47,55.746 C 58.701,55.684 58.839,55.445 58.775,55.212 C 58.713,54.978 58.473,54.842 58.24,54.905 C 57.993,54.972 57.676,55.016 57.306,55.036 C 56.941,55.057 56.538,55.055 56.126,55.036 C 55.474,55.004 54.811,54.931 54.264,54.84 C 54.466,54.214 54.669,53.606 54.861,53.047 C 55.568,50.985 56.397,49.115 57.305,46.413 C 58.202,43.737 59.423,38.66 59.415,34.505 L 59.342,32.971 L 60.41,31.573 C 62.858,27.726 63.067,22.512 62.291,19.123 C 61.345,15.004 57.187,11.183 53.864,15.484 C 53.56,15.878 53.279,16.665 53.142,17.493 L 53.082,18.391 L 52.225,17.854 C 50.095,16.764 46.804,16.06 44.931,15.856 L 44.602,15.835 L 44.716,15.519 C 44.94,14.605 44.864,13.686 44.45,13.065 C 41.442,8.552 31.465,12.078 28.189,14.416 C 23.799,17.548 22.313,20.13 21.298,22.806 L 20.526,25.034 L 20.168,24.818 C 18.525,23.411 17.683,19.71 19.401,16.549 C 21.551,12.595 25.005,10.876 29.646,9.404 C 31.393,8.849 33.955,8.587 34.208,8.546 C 36.461,8.182 41.273,7.916 42.544,5.716 C 43.361,4.302 43.151,2.713 42.045,1.935 C 37.995,-0.914 27.407,2.081 24.161,3.553 Z M 41.543,2.649 C 42.178,3.095 42.447,4.139 41.789,5.279 C 40.791,7.006 36.719,7.257 34.069,7.685 C 33.909,7.711 31.211,7.992 29.381,8.572 C 24.683,10.061 20.952,11.873 18.635,16.134 C 16.631,19.816 17.697,24.604 20.262,25.932 C 19.981,26.845 19.757,27.79 19.661,28.751 C 19.637,28.991 19.812,29.206 20.053,29.229 C 20.292,29.253 20.506,29.078 20.53,28.837 C 20.642,27.718 20.946,26.601 21.321,25.495 C 21.34,25.441 21.347,25.384 21.343,25.33 C 22.524,21.838 23.327,18.957 28.695,15.126 C 32.14,12.668 41.259,9.852 43.723,13.55 C 44.043,14.029 44.091,15.031 43.606,16.042 C 43.602,16.049 43.599,16.056 43.596,16.063 C 43.579,16.084 43.563,16.107 43.55,16.132 C 42.798,17.497 40.89,17.959 38.527,18.313 C 37.411,18.479 36.228,18.621 35.187,18.865 C 34.149,19.107 33.17,19.461 32.488,20.102 C 32.312,20.267 32.303,20.542 32.467,20.718 C 32.633,20.894 32.908,20.903 33.084,20.738 C 33.594,20.26 34.384,19.947 35.385,19.714 C 36.381,19.483 37.503,19.348 38.657,19.176 C 40.791,18.855 43.193,18.409 44.244,16.673 C 46.473,16.773 52.361,18.124 53.298,19.771 C 53.328,19.825 53.365,19.869 53.419,19.866 C 53.413,19.893 53.428,19.908 53.444,19.926 C 55.398,21.834 56.965,24.959 57.133,28.382 C 57.145,28.622 57.35,28.809 57.59,28.797 C 57.831,28.784 58.017,28.58 58.005,28.339 C 57.825,24.695 56.165,21.365 54.058,19.306 C 53.721,18.542 54.105,16.601 54.555,16.018 C 57.12,12.697 60.537,15.38 61.44,19.318 C 62.293,23.034 61.87,28.953 58.577,32.54 C 58.493,32.631 58.452,32.755 58.464,32.879 C 58.89,37.061 57.491,43.115 56.477,46.136 C 55.49,49.078 54.857,50.37 54.034,52.765 C 53.161,55.313 52.077,58.891 51.588,60.455 C 49.905,65.828 49.462,73.468 47.637,73.859 C 46.892,74.018 44.016,70.037 44.229,68.96 C 44.298,68.616 43.951,68.335 43.629,68.474 C 41.878,69.224 35.085,69.224 34.026,68.437 C 33.838,68.298 33.572,68.33 33.426,68.515 L 33.41,68.534 C 33.197,68.814 32.179,71.017 31.299,72.405 C 30.806,73.184 30.33,73.775 29.937,74.021 C 29.679,74.18 29.511,74.218 29.268,73.74 C 28.131,71.488 26.892,66.872 25.63,62.811 C 24.659,59.682 23.8,55.931 22.838,52.778 C 20.662,45.641 19.11,39.07 19.714,31.034 C 19.732,30.812 19.577,30.613 19.358,30.573 C 16.031,29.967 12.542,24.347 12.671,19.345 C 13.084,11.408 17.672,7.454 24.521,4.348 C 27.862,2.833 37.961,0.128 41.543,2.649 Z M 33.09,30.864 C 31.843,31.629 30.932,33.146 30.653,34.835 C 30.239,37.359 28.384,37.814 27.676,37.515 C 27.454,37.422 27.197,37.525 27.104,37.747 C 27.01,37.968 27.114,38.223 27.337,38.319 C 28.694,38.892 31.032,37.911 31.514,34.976 C 31.76,33.48 32.56,32.212 33.546,31.607 C 34.487,31.029 35.644,31.02 36.804,32.124 C 38.716,33.945 37.426,36.802 35.151,38.906 C 34.199,39.787 32.816,40.688 31.456,40.888 C 31.218,40.923 31.053,41.145 31.089,41.384 C 31.124,41.621 31.346,41.786 31.584,41.752 C 33.192,41.515 34.731,40.482 35.743,39.546 C 38.115,37.353 39.936,33.901 37.406,31.491 C 35.971,30.124 34.379,30.071 33.09,30.864 Z M 45.382,31.954 C 44.028,32.371 42.816,33.482 42.691,35.268 C 42.471,38.448 46.294,42.382 49.008,43.304 C 49.235,43.381 49.484,43.259 49.561,43.031 C 49.639,42.803 49.517,42.555 49.288,42.478 C 46.804,41.635 43.378,37.971 43.562,35.329 C 43.656,33.973 44.559,33.12 45.639,32.787 C 46.748,32.444 47.92,32.679 48.513,33.36 C 49.834,34.874 49.921,36.138 50.086,37.311 C 50.263,38.565 50.549,39.691 52.415,40.539 C 52.633,40.639 52.893,40.542 52.992,40.322 C 53.092,40.103 52.996,39.844 52.775,39.744 C 51.288,39.068 51.104,38.279 50.95,37.19 C 50.786,36.021 50.677,34.514 49.171,32.787 C 48.281,31.766 46.705,31.543 45.382,31.954 Z M 37.083,55.525 C 37.083,56.102 37.943,56.571 39.002,56.571 C 40.061,56.571 40.922,56.102 40.922,55.525 C 40.922,54.947 40.061,54.477 39.002,54.477 C 37.943,54.477 37.083,54.947 37.083,55.525 Z M 29.403,57.064 C 29.403,57.899 30.08,58.578 30.916,58.578 C 31.75,58.578 32.43,57.899 32.43,57.064 C 32.43,56.23 31.75,55.551 30.916,55.551 C 30.08,55.551 29.403,56.23 29.403,57.064 Z M 45.107,57.326 C 45.107,58.161 45.786,58.838 46.62,58.838 C 47.455,58.838 48.133,58.161 48.133,57.326 C 48.133,56.491 47.455,55.812 46.62,55.812 C 45.786,55.812 45.107,56.491 45.107,57.326 Z" fill-rule="evenodd" stroke="none" fill="#000000" stroke-width="0.5" marker-start="none" marker-end="none" stroke-miterlimit="79.8403193612775"/>
   </g>
  </g>
 </g>
</svg>
