<?xml version="1.0" standalone="no"?>
<!DOCTYPE svg PUBLIC "-//W3C//DTD SVG 1.1//EN" "http://www.w3.org/Graphics/SVG/1.1/DTD/svg11.dtd">
<!--Generator: Xara Designer (www.xara.com), SVG filter version: 6.0.0.4-->
<svg stroke-width="0.501" stroke-linejoin="bevel" fill-rule="evenodd" xmlns:xlink="http://www.w3.org/1999/xlink" xmlns="http://www.w3.org/2000/svg" version="1.1" overflow="visible" width="75pt" height="75pt" viewBox="0 0 75 75">
 <defs>
	</defs>
 <g id="Document" fill="none" stroke="black" font-family="Times New Roman" font-size="16" transform="scale(1 -1)">
  <g id="Spread" transform="translate(0 -75)">
   <g id="Layer 1">
    <path d="M 25.109,3.132 C 19.8,5.337 14.75,8.756 14.204,14.98 C 14.085,16.342 14.103,18.483 15.408,19.657 C 16.139,20.315 17.168,20.363 17.894,20.407 C 21.784,20.646 21.028,15.401 21.922,13.242 C 24.205,7.722 34.789,7.24 41.705,7.422 C 45.081,7.511 50.086,8.3 54.09,11.392 C 53.281,11.313 52.418,11.325 51.78,11.38 C 51.41,11.412 50.735,11.449 50.214,11.788 L 50.07,11.899 L 49.846,12.022 C 49.656,12.138 49.494,12.27 49.357,12.415 C 47.813,12.031 45.712,11.823 43.592,11.824 C 41.391,11.825 39.12,12.052 37.389,12.574 C 37.263,12.611 37.163,12.693 37.102,12.798 C 35.077,10.11 30.331,9.756 28.334,11.958 C 28.172,12.138 28.057,12.324 27.983,12.516 C 26.814,12.318 25.503,12.489 24.503,12.998 C 23.422,13.548 22.604,14.565 22.943,15.973 C 23.405,17.879 25.436,18.974 26.154,20.076 L 26.356,20.513 L 26.336,21.403 C 26.128,26.168 24.576,29.015 23.087,31.989 C 21.48,35.199 19.966,38.523 20.438,44.363 C 20.509,45.253 19.723,45.707 18.636,46.644 C 16.988,48.069 15.327,49.463 14.675,53.066 C 14.242,52.933 13.775,52.799 13.29,52.696 C 12.757,52.583 12.195,52.507 11.622,52.509 C 11.345,52.511 11.121,52.737 11.123,53.014 C 11.124,53.29 11.35,53.515 11.627,53.513 C 12.11,53.511 12.598,53.575 13.081,53.677 C 13.567,53.78 14.043,53.919 14.499,54.062 C 14.509,54.064 14.518,54.066 14.528,54.069 C 14.499,54.32 14.474,54.579 14.453,54.851 C 14.004,54.865 13.505,54.896 13.017,54.913 C 12.526,54.931 12.059,54.937 11.662,54.908 C 11.384,54.887 11.144,55.095 11.124,55.37 C 11.104,55.646 11.311,55.887 11.587,55.908 C 12.043,55.942 12.557,55.935 13.054,55.916 C 13.518,55.898 13.981,55.871 14.401,55.855 C 14.366,56.958 14.4,58.209 14.515,59.637 C 14.674,61.62 15.86,65.759 17.306,69.189 C 18.552,72.143 20.546,75.966 22.45,74.776 C 23.732,73.975 24.23,71.623 24.786,70.077 L 24.929,69.72 L 25.295,69.663 C 27.374,69.315 32.992,68.147 34.48,67.758 C 35.653,69.162 40.506,74.849 42.161,71.673 C 43.494,69.12 42.436,62.344 42.218,58.425 C 42.123,56.695 43.097,53.617 44.513,51.685 C 45.201,50.745 46.325,50.285 47.498,49.524 C 49.241,48.394 52.486,46.656 54.239,45.583 C 58.906,42.724 60.745,39.807 62.947,35.405 C 64.603,32.092 65.793,22.636 64.856,18.548 C 64.34,16.296 63.318,12.275 61.453,9.643 C 59.877,7.42 57.472,5.54 55.245,4.395 C 52.138,2.8 48.993,1.55 44.553,1.022 C 38.186,0.265 29.945,1.124 25.109,3.132 Z M 44.436,2.018 C 48.724,2.528 51.752,3.73 54.788,5.289 C 56.901,6.373 59.169,8.156 60.634,10.223 C 62.367,12.671 63.357,16.5 63.878,18.773 C 64.764,22.636 63.6,31.854 62.049,34.956 C 59.886,39.28 58.154,42.007 53.716,44.727 C 52.098,45.718 48.663,47.573 46.951,48.682 C 45.992,49.305 44.536,49.954 43.703,51.092 C 42.18,53.171 41.105,56.473 41.217,58.481 C 41.455,62.759 42.434,68.982 41.272,71.209 C 40.47,72.748 37.072,69.249 35.035,66.855 C 34.986,66.799 34.927,66.754 34.838,66.722 C 34.83,66.712 34.817,66.707 34.804,66.712 C 34.692,66.667 34.568,66.671 34.459,66.726 C 34.451,66.722 34.445,66.724 34.44,66.728 L 34.246,66.785 C 32.84,67.161 25.368,68.707 24.542,68.759 C 24.359,68.77 24.196,68.881 24.12,69.048 C 23.406,70.583 22.965,73.271 21.919,73.924 C 21.692,74.067 21.256,74.017 20.443,72.943 C 19.714,71.981 18.945,70.492 18.231,68.798 C 16.801,65.408 15.662,61.382 15.516,59.557 C 14.817,50.865 17.216,49.198 19.291,47.405 C 20.087,46.718 21.562,45.828 21.437,44.282 C 20.988,38.708 22.412,35.577 23.984,32.439 C 25.575,29.263 27.338,26.049 27.362,20.428 C 27.362,20.386 27.357,20.344 27.347,20.303 C 26.885,18.482 24.388,17.675 23.92,15.738 C 23.727,14.939 24.127,14.315 24.958,13.892 C 25.784,13.472 26.933,13.328 27.934,13.527 C 27.946,13.575 27.961,13.626 27.978,13.675 C 28.151,14.203 28.531,14.71 28.913,15.164 C 29.33,15.661 29.716,16.061 30.088,16.529 C 30.449,16.979 30.685,17.367 30.763,17.706 C 30.824,17.975 31.094,18.144 31.365,18.083 C 31.634,18.021 31.803,17.751 31.741,17.481 C 31.61,16.911 31.25,16.374 30.873,15.903 C 30.51,15.449 30.024,14.928 29.682,14.519 C 29.303,14.068 29.038,13.69 28.93,13.362 C 28.84,13.084 28.865,12.867 29.078,12.632 C 30.624,10.927 34.7,11.172 36.35,13.471 C 36.81,14.108 37.746,15.374 38.033,16.809 C 38.088,17.08 38.352,17.256 38.623,17.202 C 38.894,17.148 39.071,16.883 39.016,16.612 C 38.771,15.383 38.129,14.285 37.631,13.546 C 37.647,13.543 37.662,13.539 37.678,13.535 C 39.278,13.054 41.442,12.828 43.593,12.827 C 45.541,12.826 47.44,13.008 48.855,13.327 C 48.834,13.406 48.817,13.487 48.806,13.57 C 48.708,14.249 48.906,14.966 49.213,15.606 C 49.669,16.554 50.438,17.481 51.183,18.053 L 51.465,18.249 L 51.315,18.579 C 50.956,19.366 50.545,20.253 50.375,20.926 C 50.306,21.194 50.469,21.468 50.737,21.535 C 51.005,21.604 51.278,21.441 51.347,21.173 C 51.547,20.39 52.186,19.13 52.569,18.234 C 52.678,17.981 52.56,17.687 52.309,17.577 C 51.669,17.298 50.653,16.286 50.117,15.172 C 49.773,14.453 49.402,13.326 50.558,12.775 C 50.603,12.754 50.645,12.725 50.682,12.69 C 50.891,12.497 51.23,12.435 51.867,12.38 C 52.498,12.325 53.287,12.323 53.994,12.392 C 54.743,12.465 55.273,12.608 55.481,12.756 C 55.553,12.807 55.636,12.837 55.719,12.845 C 55.768,12.896 55.819,12.948 55.868,13.001 C 57.475,14.7 57.749,15.688 58.042,18.133 C 58.076,18.408 58.324,18.604 58.599,18.571 C 58.875,18.538 59.071,18.288 59.038,18.013 C 58.73,15.443 58.401,14.222 56.598,12.311 C 52.129,7.583 45.728,6.525 41.731,6.419 C 35.148,6.245 23.6,6.558 20.993,12.86 C 19.98,15.313 20.763,19.578 17.955,19.407 C 17.146,19.357 16.505,19.294 16.079,18.911 C 15.183,18.106 15.081,16.468 15.203,15.068 C 15.696,9.448 20.242,6.239 25.495,4.059 C 30.133,2.132 38.193,1.275 44.436,2.018 Z M 39.054,48.271 C 38.786,48.408 38.536,48.539 38.284,48.662 C 38.033,48.784 37.795,48.89 37.564,48.972 C 37.304,49.064 37.166,49.351 37.259,49.611 C 37.352,49.873 37.638,50.01 37.899,49.917 C 38.18,49.817 38.456,49.694 38.722,49.564 C 38.986,49.435 39.256,49.294 39.509,49.165 C 40.036,48.898 40.512,48.674 40.982,48.564 C 41.253,48.501 41.419,48.23 41.357,47.96 C 41.293,47.691 41.024,47.525 40.754,47.587 C 40.149,47.729 39.571,48.009 39.054,48.271 Z M 38.212,50.778 C 37.94,50.827 37.759,51.088 37.808,51.36 C 37.858,51.632 38.119,51.814 38.392,51.764 C 39.382,51.584 40.368,51.482 41.356,51.307 C 41.629,51.259 41.811,50.999 41.763,50.726 C 41.714,50.454 41.454,50.271 41.18,50.319 C 40.218,50.489 39.226,50.592 38.212,50.778 Z M 32.68,54.837 C 32.68,55.875 33.525,56.72 34.564,56.72 C 35.603,56.72 36.446,55.876 36.446,54.838 C 36.446,53.799 35.603,52.954 34.564,52.954 C 33.525,52.954 32.68,53.797 32.68,54.837 Z M 23.928,54.122 C 23.752,55.477 27.465,55.035 27.521,54.122 C 27.751,52.646 24.11,52.704 23.928,54.122 Z M 16.937,57.033 C 16.937,58.024 17.742,58.83 18.733,58.83 C 19.725,58.83 20.53,58.024 20.53,57.033 C 20.53,56.042 19.725,55.237 18.733,55.237 C 17.742,55.237 16.937,56.042 16.937,57.033 Z" stroke-linejoin="round" stroke-linecap="round" stroke="none" fill="#000000" stroke-width="1.5" marker-start="none" marker-end="none" stroke-miterlimit="79.8403193612775"/>
   </g>
  </g>
 </g>
</svg>
