<?xml version="1.0" standalone="no"?>
<!DOCTYPE svg PUBLIC "-//W3C//DTD SVG 1.1//EN" "http://www.w3.org/Graphics/SVG/1.1/DTD/svg11.dtd">
<!--Generator: Xara Designer (www.xara.com), SVG filter version: 6.0.0.4-->
<svg stroke-width="0.501" stroke-linejoin="bevel" fill-rule="evenodd" xmlns:xlink="http://www.w3.org/1999/xlink" xmlns="http://www.w3.org/2000/svg" version="1.1" overflow="visible" width="75pt" height="75pt" viewBox="0 0 75 75">
 <defs>
	</defs>
 <g id="Document" fill="none" stroke="black" font-family="Times New Roman" font-size="16" transform="scale(1 -1)">
  <g id="Spread" transform="translate(0 -75)">
   <g id="Layer 1">
    <path d="M 65.158,3.231 C 64.839,5.029 65.807,5.791 66.75,6.284 C 67.771,6.816 68.376,6.993 68.47,7.613 C 68.77,9.616 66.484,10.808 62.651,11.964 C 59.253,12.989 54.947,13.898 51.868,15.488 C 51.888,14.696 51.975,13.896 52.165,13.079 C 52.402,12.064 53.583,11.428 54.837,10.585 C 56.028,9.784 57.217,8.766 56.153,7.112 C 54.186,4.052 47.284,6.759 44.562,8.482 C 44.515,8.443 44.459,8.411 44.395,8.392 C 42.047,7.694 38.101,6.73 34.525,6.624 C 29.319,6.473 24.486,6.865 19.969,8.872 C 17.552,9.946 15.373,11.56 13.704,13.774 C 12.623,11.097 11.219,8.69 8.883,8.371 L 7.827,8.373 L 7.785,8.376 L 7.765,8.377 L 6.491,8.49 C 5.274,8.732 4.425,9.373 4.071,10.641 C 3.448,12.861 5.9,14.08 6.791,14.649 L 7.048,14.842 L 7.068,14.874 C 7.081,14.895 7.094,14.913 7.11,14.931 C 8.441,16.468 7.244,21.529 6.373,24.53 C 3.863,32.893 4.15,40.707 5.258,46.463 C 6.352,52.15 8.33,56.106 10.833,60.41 C 12.218,62.79 13.992,64.962 15.974,66.859 C 18.883,69.645 25.042,73.878 26,74.143 L 26.034,74.152 C 28.714,74.731 29.127,72.627 29.102,70.816 C 29.079,69.215 28.791,67.39 29.044,66.473 L 29.16,66.206 L 29.716,65.869 C 31.189,64.866 33.001,63.035 33.648,62.439 L 33.77,62.336 L 33.848,62.359 C 35.411,62.884 41.185,65.696 42.463,63.243 C 42.491,63.193 42.508,63.138 42.514,63.08 C 42.717,61.222 39.472,58.563 37.963,57.11 L 37.555,56.688 L 37.642,54.74 C 37.755,52.996 37.847,51.296 37.098,49.475 L 36.55,48.39 L 36.538,48.371 L 36.063,47.773 C 35.869,47.593 35.655,47.435 35.448,47.302 L 35.166,47.129 C 35.929,46.434 36.692,45.157 36.06,43.728 C 35.539,42.544 34.437,42.799 33.657,43.352 L 33.558,43.445 L 33.909,42.329 C 34.282,41.457 34.8,40.723 35.301,40.421 C 35.322,40.408 35.342,40.392 35.361,40.376 C 35.392,40.387 35.424,40.399 35.456,40.412 L 35.963,40.624 L 36.035,40.69 C 36.232,40.913 36.593,41.584 37.044,42.661 C 37.452,43.637 37.865,44.756 38.063,45.122 C 39.881,48.471 44.121,49.349 45.487,47.072 C 46.209,45.869 45.709,44.8 45.102,44.097 C 44.583,43.495 43.907,43.065 43.692,42.928 L 43.668,42.911 L 43.359,42.495 C 42.639,41.405 42.395,40.165 42.326,39.053 C 42.239,37.689 42.413,36.652 42.238,36.156 C 42.224,36.115 42.205,36.072 42.181,36.029 C 42.175,36.018 42.17,36.008 42.157,35.997 C 46.026,35.936 50.449,32.334 51.594,29.429 C 52.525,27.065 52.677,24.948 52.561,22.949 C 52.742,21.874 54.499,20.641 56.923,19.519 C 59.336,18.404 62.029,17.557 63.177,17.184 C 67.423,15.811 74.816,12.326 74.166,7.028 C 73.473,1.379 65.735,0.002 65.158,3.231 Z M 73.253,7.141 C 73.796,11.567 67.36,14.864 62.895,16.308 C 61.755,16.677 59.01,17.542 56.537,18.685 C 54.997,19.396 53.361,20.304 52.419,21.361 C 52.23,19.716 51.947,18.131 51.879,16.526 C 54.853,14.856 59.214,13.962 62.916,12.845 C 66.422,11.788 69.819,10.406 69.38,7.477 C 69.197,6.256 67.875,5.833 67.176,5.467 C 66.407,5.067 65.845,4.621 66.065,3.393 C 66.403,1.5 72.653,2.258 73.253,7.141 Z M 55.379,7.609 C 55.716,8.133 55.674,8.466 55.514,8.749 C 55.318,9.097 54.903,9.432 54.324,9.821 C 53.284,10.52 51.612,11.402 51.27,12.87 C 50.43,16.468 51.426,19.543 51.64,22.894 C 51.633,22.957 51.628,23.02 51.626,23.084 C 51.625,23.151 51.637,23.213 51.66,23.273 C 51.741,25.081 51.568,26.98 50.738,29.092 C 49.615,31.942 44.874,35.554 41.326,35.081 C 39.706,33.766 36.53,32.665 34.272,33.426 C 34.031,33.506 33.902,33.767 33.983,34.009 C 34.064,34.249 34.325,34.378 34.566,34.297 C 36.801,33.544 40.227,35.041 41.214,36.242 L 41.371,36.468 L 41.386,36.554 C 41.399,36.683 41.402,36.93 41.392,37.33 C 41.381,37.809 41.364,38.429 41.406,39.111 C 41.493,40.473 41.827,42.134 42.99,43.541 C 43.009,43.564 43.03,43.585 43.055,43.604 L 43.073,43.619 L 43.097,43.637 C 43.27,43.76 43.91,44.123 44.406,44.699 C 44.888,45.257 45.126,45.885 44.698,46.599 C 43.839,48.03 40.524,47.728 38.872,44.685 C 38.701,44.369 38.342,43.38 37.893,42.305 C 37.517,41.409 36.989,40.183 36.454,39.846 L 36.432,39.832 L 36.39,39.808 L 36.365,39.794 C 34.823,39.062 33.633,39.201 31.885,38.667 C 31.642,38.592 31.384,38.729 31.31,38.972 C 31.236,39.214 31.373,39.473 31.616,39.547 C 32.685,39.873 33.493,39.961 34.249,40.1 C 33.167,41.207 32.351,43.37 32.458,45.037 C 32.296,45.363 32.142,45.709 31.981,46.021 C 31.766,46.44 31.557,46.756 31.331,46.946 C 30.461,47.111 29.718,47.808 29.75,48.623 C 29.761,48.878 29.975,49.075 30.229,49.065 C 30.483,49.055 30.681,48.841 30.671,48.588 C 30.66,48.307 31.029,47.903 31.587,47.838 C 31.852,47.807 32.138,47.86 32.409,48.046 C 32.68,48.234 32.966,48.578 33.183,49.177 C 33.388,49.741 34.234,49.454 34.054,48.882 C 33.824,48.149 33.952,47.931 34.001,47.881 C 34.061,47.818 34.187,47.781 34.409,47.778 C 34.9,48.044 35.468,48.31 35.74,48.82 L 35.751,48.841 C 36.252,49.683 36.528,50.47 36.668,51.25 C 36.579,51.221 36.49,51.201 36.402,51.186 C 36.036,51.124 35.637,51.162 35.276,51.254 C 34.915,51.348 34.558,51.506 34.276,51.713 C 34.005,51.916 33.729,52.221 33.708,52.629 C 33.694,52.882 33.888,53.099 34.142,53.113 C 34.396,53.127 34.612,52.933 34.626,52.679 C 34.627,52.673 34.647,52.583 34.825,52.453 C 34.992,52.328 35.235,52.215 35.506,52.146 C 35.776,52.077 36.042,52.059 36.249,52.093 C 36.46,52.129 36.56,52.205 36.605,52.278 C 36.651,52.352 36.716,52.408 36.789,52.446 C 36.834,53.784 36.628,55.178 36.628,56.865 C 36.628,56.975 36.666,57.08 36.736,57.164 C 37.607,58.187 40.801,60.727 41.477,62.349 L 41.578,62.876 L 41.206,63.194 C 40.594,63.442 39.481,63.318 38.011,62.879 C 36.721,62.494 35.2,61.864 34.33,61.555 C 34.57,61.255 34.816,60.928 35.045,60.603 C 35.462,60.008 35.848,59.375 36.043,58.874 C 36.137,58.636 36.019,58.369 35.782,58.278 C 35.546,58.185 35.278,58.302 35.186,58.539 C 35.032,58.934 34.699,59.492 34.291,60.074 C 33.889,60.648 33.437,61.213 33.067,61.615 C 33.016,61.671 32.981,61.737 32.961,61.806 C 31.98,62.675 30.036,64.739 28.597,65.474 C 28.527,65.508 28.467,65.562 28.423,65.627 C 27.693,66.719 28.16,69.201 28.183,70.829 C 28.207,72.654 27.924,73.62 26.236,73.254 C 25.547,73.063 19.517,68.979 16.609,66.194 C 14.682,64.349 12.964,62.244 11.628,59.946 C 9.15,55.683 7.228,51.83 6.162,46.289 C 5.077,40.649 4.795,32.989 7.255,24.79 C 7.923,22.487 9.19,17.761 8.317,15.253 L 7.843,14.387 L 7.796,14.302 C 7.782,14.28 7.766,14.26 7.748,14.24 C 7.12,13.537 4.456,12.678 4.956,10.889 C 5.267,9.782 6.077,9.293 7.827,9.293 C 7.846,9.293 7.867,9.292 7.887,9.289 C 10.247,8.974 11.695,11.139 13.01,14.521 C 13.026,14.56 13.046,14.596 13.08,14.62 C 13.078,14.622 13.078,14.624 13.079,14.626 C 13.358,16.071 13.748,17.241 14.041,18.499 C 14.33,19.735 14.531,21.072 14.451,22.892 C 14.44,23.145 14.637,23.361 14.891,23.372 C 15.145,23.383 15.36,23.186 15.372,22.931 C 15.455,21.014 15.242,19.591 14.938,18.288 C 14.665,17.125 14.326,16.077 14.063,14.847 C 14.074,14.834 14.084,14.821 14.094,14.808 C 15.695,12.485 17.88,10.808 20.342,9.713 C 24.674,7.787 29.345,7.392 34.496,7.545 C 37.701,7.639 41.247,8.451 43.597,9.118 C 42.58,9.828 41.312,10.925 40.119,13.084 C 39.821,13.027 39.459,12.999 39.08,12.994 C 38.653,12.988 38.183,13.011 37.723,13.067 C 37.263,13.122 36.802,13.21 36.392,13.338 C 35.989,13.464 35.6,13.635 35.315,13.882 C 35.123,14.048 35.101,14.338 35.266,14.53 C 35.432,14.722 35.723,14.745 35.916,14.578 C 36.06,14.454 36.313,14.326 36.665,14.216 C 37.008,14.11 37.411,14.031 37.833,13.98 C 38.254,13.93 38.68,13.908 39.067,13.914 C 39.29,13.917 39.495,13.929 39.674,13.949 C 39.041,15.269 38.441,16.927 37.928,19.029 C 37.869,19.277 38.02,19.525 38.267,19.586 C 38.513,19.645 38.762,19.495 38.823,19.247 C 40.628,11.845 43.482,10.278 44.974,9.311 C 47.883,7.429 53.965,5.408 55.379,7.609 Z M 35.218,44.099 C 35.757,45.32 34.684,46.515 34.115,46.751 C 34.027,46.786 33.959,46.846 33.911,46.916 C 33.723,46.965 33.51,47.061 33.332,47.247 C 33.285,47.298 33.242,47.351 33.205,47.411 L 33.167,47.478 L 33.1,47.418 C 33.045,47.371 32.988,47.329 32.93,47.289 C 32.775,47.181 32.615,47.099 32.454,47.04 C 32.584,46.844 32.698,46.639 32.8,46.443 C 33.041,45.974 33.244,45.488 33.462,45.108 C 33.481,45.074 33.495,45.038 33.506,45.003 C 33.58,44.86 33.66,44.702 33.714,44.598 L 33.764,44.5 L 34.081,44.171 C 34.473,43.844 35.006,43.618 35.218,44.099 Z M 16.962,47.908 C 16.792,48.096 16.807,48.388 16.995,48.558 C 18.223,49.667 19.921,49.972 21.474,49.871 C 21.728,49.855 21.92,49.636 21.903,49.382 C 21.887,49.128 21.668,48.936 21.414,48.954 C 20.001,49.045 18.589,48.757 17.612,47.875 C 17.424,47.704 17.133,47.72 16.962,47.908 Z M 16.207,50.526 C 16.162,50.775 16.327,51.015 16.576,51.06 C 17.274,51.189 18.008,51.346 18.754,51.44 C 19.506,51.535 20.29,51.567 21.065,51.429 C 21.314,51.385 21.482,51.145 21.437,50.896 C 21.393,50.645 21.154,50.478 20.904,50.524 C 20.254,50.639 19.573,50.616 18.869,50.528 C 18.159,50.438 17.447,50.285 16.743,50.156 C 16.493,50.11 16.253,50.275 16.207,50.526 Z M 25.335,53.643 C 24.127,54.187 23.252,55.272 22.925,56.961 C 22.876,57.211 23.04,57.452 23.289,57.502 C 23.538,57.55 23.78,57.387 23.829,57.137 C 24.108,55.701 24.811,54.888 25.713,54.482 C 26.641,54.065 27.846,54.047 29.158,54.367 C 29.403,54.428 29.652,54.277 29.713,54.031 C 29.773,53.783 29.622,53.534 29.374,53.474 C 27.952,53.127 26.517,53.111 25.335,53.643 Z" fill-rule="evenodd" stroke="none" fill="#000000" stroke-width="0.5" marker-start="none" marker-end="none" stroke-miterlimit="79.8403193612775"/>
   </g>
  </g>
 </g>
</svg>
