<?xml version="1.0" standalone="no"?>
<!DOCTYPE svg PUBLIC "-//W3C//DTD SVG 1.1//EN" "http://www.w3.org/Graphics/SVG/1.1/DTD/svg11.dtd">
<!--Generator: Xara Designer (www.xara.com), SVG filter version: 6.0.0.4-->
<svg stroke-width="0.501" stroke-linejoin="bevel" fill-rule="evenodd" xmlns:xlink="http://www.w3.org/1999/xlink" xmlns="http://www.w3.org/2000/svg" version="1.1" overflow="visible" width="75pt" height="75pt" viewBox="0 0 75 75">
 <defs>
	</defs>
 <g id="Document" fill="none" stroke="black" font-family="Times New Roman" font-size="16" transform="scale(1 -1)">
  <g id="Spread" transform="translate(0 -75)">
   <g id="Layer 1">
    <path d="M 41.754,14.091 C 41.531,14.985 41.475,16.024 41.508,17.089 L 41.733,19.551 L 38.895,19.08 C 37.355,18.886 35.692,18.773 33.894,18.77 L 32.628,18.794 L 32.592,18.61 C 32.261,18.115 32.254,17.601 32.445,17.034 C 32.644,16.445 33.044,15.846 33.477,15.244 C 33.883,14.679 34.356,14.068 34.571,13.546 C 34.829,12.921 34.757,12.251 33.974,11.888 C 31.826,10.89 30.454,11.759 28.93,12.829 C 28.767,12.975 28.057,13.672 27.91,13.849 C 26.503,15.529 25.823,17.445 24.182,19.182 L 23.489,19.845 L 22.771,19.954 C 20.398,20.23 17.034,20.081 15.099,19.557 C 13.708,19.178 11.094,19.032 9.56,17.963 C 8.882,17.489 8.29,16.877 8.075,16.451 L 8.066,16.297 C 9.038,15.778 9.234,14.22 8.594,13.49 C 6.697,11.328 2.256,13.184 1.578,16.052 C 0.633,20.055 8.491,25.89 10.309,27.366 C 11.255,28.134 12.914,29.001 14.207,29.716 L 14.625,29.958 L 14.065,30.256 C 12.595,31.027 10.738,32.044 9.795,33.277 C 7.426,36.371 7.385,41.969 10.909,45.022 C 13.114,46.931 14.825,48.173 17.175,49.042 C 19.679,49.97 21.936,50.946 22.225,51.889 C 22.269,52.031 22.595,54.435 23.818,54.9 C 24.882,55.305 26.554,54.677 26.959,53.575 C 28.736,48.756 23.317,45.982 20.199,44.924 C 15.36,43.284 13.434,41.054 13.257,38.687 C 13.034,35.713 17.438,34.206 19.962,34.206 C 23.54,34.206 27.842,35.216 31.395,36.872 C 34.094,38.13 36.446,40.48 38.638,42.316 C 40.429,43.817 42.583,47.403 43.679,49.6 C 45.273,52.796 43.977,56.489 42.794,59.172 C 42.322,60.244 42.602,61.062 43.614,61.27 C 44.363,61.423 45.46,61.216 46.539,60.914 C 48.473,60.373 50.68,59.425 51.656,58.979 L 51.911,58.861 L 52.274,58.891 C 53.307,59.11 55.712,60.166 57.182,60.615 L 57.499,60.696 L 57.539,60.997 C 57.571,62.403 56.809,64.682 58.637,65.313 C 60.655,66.009 66.048,60.358 66.868,59.192 C 68.212,57.282 69.35,55.158 70.085,52.657 L 70.35,51.567 L 70.924,51.809 C 71.77,52.125 72.762,52.356 73.725,52.214 C 73.98,52.177 74.157,51.939 74.119,51.683 C 74.082,51.428 73.844,51.251 73.588,51.289 C 73.09,51.362 72.56,51.306 72.038,51.178 L 70.568,50.642 L 70.68,49.862 L 70.998,49.905 C 71.149,49.92 71.317,49.932 71.493,49.942 C 71.849,49.962 72.255,49.973 72.656,49.969 C 73.057,49.966 73.46,49.95 73.809,49.916 C 73.983,49.899 74.149,49.878 74.297,49.85 C 74.441,49.823 74.586,49.787 74.711,49.735 C 74.949,49.636 75.063,49.362 74.964,49.123 C 74.865,48.885 74.591,48.771 74.352,48.87 C 74.314,48.886 74.241,48.908 74.124,48.93 C 74.011,48.951 73.875,48.97 73.718,48.985 C 73.405,49.015 73.032,49.031 72.649,49.034 C 72.267,49.036 71.881,49.027 71.545,49.008 C 71.375,48.998 71.221,48.986 71.09,48.973 L 70.813,48.937 L 70.862,48.601 C 71.004,47.14 71.021,45.565 70.888,43.855 C 70.82,41.967 69.633,38.198 68.744,36.423 C 68.035,34.845 65.897,32.126 64.524,30.928 L 64.846,30.714 C 65.786,30.112 66.761,29.271 67.358,28.242 C 68.168,26.846 68.569,24.933 68.449,23.339 C 68.303,21.381 67.604,19.891 66.294,19.084 C 65.154,18.384 62.799,17.58 61.617,19.692 C 60.958,20.867 61.624,22.853 61.213,24.374 C 60.696,26.287 57.713,27.254 55.089,25.724 C 54.828,25.571 52.686,23.967 50.678,22.768 L 50.011,22.389 L 49.936,22.211 C 49.568,21.846 48.817,20.601 48.162,19.217 C 47.561,17.946 47.156,16.8 47.101,16.178 L 47.099,16.006 L 47.132,15.952 C 47.219,15.82 47.382,15.59 47.55,15.324 C 47.783,14.954 48.053,14.471 48.191,13.965 C 48.33,13.458 48.353,12.855 47.986,12.328 C 47.625,11.811 46.966,11.481 46.009,11.326 C 43.478,10.914 42.227,12.199 41.754,14.091 Z M 45.858,12.249 C 46.704,12.387 47.067,12.646 47.218,12.863 C 47.363,13.071 47.389,13.349 47.288,13.718 C 47.072,14.511 46.393,15.311 46.232,15.638 C 46.218,15.667 46.178,15.749 46.168,15.849 C 46.08,16.706 46.693,18.299 47.316,19.617 C 47.64,20.302 48.004,20.991 48.361,21.59 L 46.739,20.964 C 46.012,20.7 45.24,20.446 44.42,20.21 L 42.693,19.782 L 42.444,17.059 C 42.412,16.059 42.464,15.113 42.663,14.318 C 43.034,12.832 43.879,11.927 45.858,12.249 Z M 33.581,12.737 C 33.752,12.817 33.766,12.878 33.768,12.885 C 33.776,12.915 33.784,13.001 33.706,13.189 C 33.545,13.579 33.173,14.064 32.717,14.697 C 32.287,15.294 31.807,15.997 31.558,16.735 C 31.366,17.304 31.305,17.916 31.512,18.525 L 31.663,18.828 L 30.113,18.92 C 28.79,19.024 27.404,19.187 25.95,19.415 L 25.083,19.569 L 25.528,19.055 C 26.802,17.453 27.505,15.792 28.629,14.448 C 28.718,14.34 29.243,13.819 29.468,13.605 L 29.524,13.553 L 30.027,13.208 C 31.216,12.421 32.136,12.065 33.581,12.737 Z M 7.891,14.107 C 8.253,14.52 7.924,15.453 7.471,15.523 C 7.286,15.552 7.136,15.688 7.089,15.87 C 6.807,16.971 8.323,18.24 9.025,18.73 C 10.729,19.917 13.801,20.173 14.854,20.46 C 17.214,21.099 21.436,21.211 23.899,20.729 C 35.862,18.389 43.442,20.513 48.423,22.634 C 50.653,23.583 54.02,26.184 54.618,26.533 C 57.498,28.211 61.365,27.402 62.116,24.619 C 62.691,22.494 61.912,21.08 62.434,20.149 C 63.15,18.871 64.647,19.171 65.803,19.881 C 66.765,20.474 67.382,21.622 67.516,23.408 C 67.622,24.828 67.257,26.551 66.549,27.773 C 66.048,28.634 65.201,29.375 64.351,29.92 L 63.58,30.358 L 63.52,30.37 C 62.745,30.872 61.961,31.009 61.107,31.059 C 60.223,31.111 59.304,31.069 58.345,31.267 C 58.092,31.32 57.929,31.567 57.981,31.82 C 58.034,32.073 58.281,32.236 58.534,32.184 C 59.395,32.006 60.266,32.046 61.162,31.994 C 61.854,31.952 62.574,31.855 63.3,31.544 L 63.594,31.388 L 63.979,31.69 C 65.179,32.755 67.23,35.339 67.899,36.824 C 68.76,38.545 69.891,42.18 69.953,43.908 C 70.47,50.531 68.679,54.991 66.103,58.653 C 65.036,60.17 60.101,64.828 58.942,64.428 C 57.712,64.003 58.899,61.988 58.364,60.189 C 58.314,60.021 58.174,59.895 58.002,59.863 C 56.793,59.635 52.77,57.731 51.704,57.94 L 51.591,57.977 C 50.929,58.295 48.421,59.416 46.287,60.013 C 45.195,60.318 44.302,60.455 43.802,60.353 C 43.564,60.304 43.334,60.267 43.651,59.549 C 44.822,56.892 46.326,52.811 44.516,49.183 C 43.42,46.984 41.194,43.236 39.239,41.599 C 37.143,39.843 34.637,37.351 31.79,36.023 C 28.127,34.317 23.691,33.27 19.962,33.27 C 17.589,33.27 12.021,34.734 12.324,38.756 C 12.543,41.697 14.941,44.129 19.898,45.811 C 23.24,46.945 27.493,49.421 26.08,53.252 C 25.879,53.8 24.795,54.27 24.151,54.025 C 23.498,53.776 23.324,52.28 23.12,51.614 C 22.657,50.107 19.718,48.987 17.5,48.165 C 15.306,47.352 13.695,46.196 11.522,44.315 C 8.422,41.628 8.429,36.602 10.538,33.846 C 11.642,32.405 14.206,31.295 15.819,30.384 C 16.126,30.21 16.137,29.769 15.838,29.581 C 14.387,28.665 12.13,27.64 10.9,26.639 C 8.443,24.646 1.727,19.497 2.489,16.267 C 3.065,13.829 6.694,12.743 7.891,14.107 Z M 52.227,39.115 C 52.058,39.311 52.079,39.607 52.274,39.775 C 52.702,40.145 52.993,40.538 53.353,40.996 C 53.71,41.448 54.116,41.938 54.745,42.417 C 54.951,42.573 55.245,42.533 55.401,42.328 C 55.557,42.122 55.517,41.828 55.312,41.672 C 54.779,41.267 54.431,40.851 54.089,40.416 C 53.75,39.986 53.398,39.51 52.887,39.068 C 52.691,38.899 52.395,38.92 52.227,39.115 Z M 50.185,40.808 C 49.985,40.972 49.956,41.267 50.119,41.467 C 50.449,41.87 51.128,42.462 51.796,42.964 C 52.377,43.402 53.176,43.942 53.688,44.073 C 53.939,44.137 54.194,43.986 54.258,43.736 C 54.322,43.485 54.171,43.23 53.921,43.166 C 53.803,43.136 53.589,43.037 53.289,42.855 C 53.005,42.682 52.681,42.459 52.358,42.216 C 51.702,41.722 51.098,41.186 50.844,40.874 C 50.68,40.674 50.385,40.645 50.185,40.808 Z M 59.636,46.487 C 59.434,46.648 59.399,46.942 59.559,47.145 C 59.72,47.347 60.014,47.382 60.217,47.222 C 60.572,46.941 60.834,46.846 61.016,46.828 C 61.187,46.811 61.332,46.858 61.475,46.962 C 61.792,47.19 62.046,47.653 62.302,48.191 C 62.424,48.449 62.748,48.538 62.986,48.379 C 63.274,48.185 63.755,48.116 64.096,48.22 C 64.257,48.27 64.341,48.343 64.378,48.407 C 64.411,48.463 64.449,48.58 64.376,48.815 C 64.3,49.062 64.438,49.324 64.685,49.401 C 64.932,49.477 65.194,49.339 65.271,49.092 C 65.401,48.67 65.382,48.269 65.186,47.935 C 64.996,47.61 64.683,47.421 64.371,47.326 C 63.992,47.209 63.548,47.207 63.139,47.309 L 62.939,47.37 L 62.843,47.193 C 62.638,46.833 62.37,46.453 62.023,46.203 C 61.725,45.987 61.357,45.855 60.926,45.896 C 60.507,45.937 60.079,46.138 59.636,46.487 Z M 52.3,47.049 C 52.661,48.588 53.455,49.508 54.538,49.924 C 55.585,50.326 56.821,50.227 58.026,49.933 C 58.277,49.872 58.431,49.619 58.37,49.368 C 58.309,49.117 58.056,48.963 57.805,49.024 C 56.665,49.301 55.655,49.35 54.874,49.05 C 54.13,48.764 53.515,48.128 53.211,46.836 C 53.152,46.584 52.9,46.428 52.649,46.487 C 52.397,46.546 52.241,46.798 52.3,47.049 Z M 63.22,51.243 C 62.988,51.356 62.891,51.636 63.003,51.869 C 63.45,52.791 64.332,53.519 65.302,53.807 C 66.291,54.101 67.413,53.942 68.233,53.027 C 68.405,52.835 68.389,52.538 68.197,52.366 C 68.005,52.194 67.708,52.21 67.536,52.402 C 66.998,53.002 66.273,53.119 65.568,52.91 C 64.842,52.694 64.174,52.138 63.846,51.46 C 63.733,51.228 63.453,51.131 63.22,51.243 Z" stroke="none" fill="#000000" stroke-width="0.5" fill-rule="evenodd" marker-start="none" marker-end="none" stroke-miterlimit="79.8403193612775"/>
   </g>
  </g>
 </g>
</svg>
