<?xml version="1.0" standalone="no"?>
<!DOCTYPE svg PUBLIC "-//W3C//DTD SVG 1.1//EN" "http://www.w3.org/Graphics/SVG/1.1/DTD/svg11.dtd">
<!--Generator: Xara Designer (www.xara.com), SVG filter version: 6.0.0.4-->
<svg stroke-width="0.501" stroke-linejoin="bevel" fill-rule="evenodd" xmlns:xlink="http://www.w3.org/1999/xlink" xmlns="http://www.w3.org/2000/svg" version="1.1" overflow="visible" width="75pt" height="75pt" viewBox="0 0 75 75">
 <defs>
	</defs>
 <g id="Document" fill="none" stroke="black" font-family="Times New Roman" font-size="16" transform="scale(1 -1)">
  <g id="Spread" transform="translate(0 -75)">
   <g id="Layer 1">
    <path d="M 29.731,1.61 C 27.93,2.026 25.804,3.428 24.273,4.741 C 20.984,7.561 17.949,11.066 16.271,15.129 C 13.535,21.748 13.883,30.217 18.039,36.758 C 20.528,40.678 23.708,43.904 27.109,45.911 C 32.416,49.042 34.045,49.246 39.268,51.558 C 44.414,53.836 49.651,56.687 51.459,62.676 C 52.345,65.616 48.824,69.154 45.686,67.97 C 44.616,67.567 43.499,66.196 42.061,66.357 C 40.467,66.536 40.017,67.599 40.114,68.659 C 40.203,69.627 40.726,70.636 41.058,71.114 C 41.082,71.148 41.11,71.178 41.141,71.205 C 46.068,75.403 53.073,73.395 56.038,68.853 C 58.798,64.627 56.228,57.758 53.315,54.438 C 51.585,52.462 50.033,51.43 48.039,50.035 C 46.593,49.022 46.119,48.909 45.449,48.542 L 45.277,48.433 L 46.476,47.645 C 47.382,47.042 48.408,46.344 49.01,45.877 C 54.107,41.922 57.009,37.174 58.592,33.041 C 60.419,28.272 61.004,21.817 59.557,16.821 C 57.835,10.878 54.319,7.137 50.852,4.054 C 49.614,2.955 47.384,1.874 45.467,1.635 C 43.735,1.418 42.069,1.897 41.784,3.797 L 41.769,4.217 L 41.55,4.229 C 39.844,4.274 35.662,4.218 33.657,4.254 L 33.341,4.263 C 33.121,1.826 31.572,1.185 29.731,1.61 Z M 32.383,4.285 C 32.185,4.282 31.986,4.279 31.789,4.278 C 31.239,4.274 30.661,4.284 30.129,4.372 C 29.868,4.415 29.691,4.661 29.734,4.922 C 29.777,5.183 30.023,5.36 30.284,5.317 C 30.729,5.244 31.233,5.232 31.782,5.236 C 32.157,5.238 32.543,5.249 32.915,5.237 C 32.915,5.238 32.917,5.238 32.919,5.238 C 32.922,5.237 32.926,5.237 32.933,5.237 C 33.326,5.241 33.376,5.24 33.426,5.238 C 33.467,5.236 33.507,5.229 33.546,5.217 C 35.633,5.179 41.13,5.237 42.199,5.155 C 42.255,5.165 42.315,5.173 42.373,5.181 C 42.47,5.193 42.587,5.205 42.714,5.217 C 42.969,5.24 43.278,5.263 43.585,5.281 C 43.892,5.3 44.201,5.315 44.455,5.324 C 44.582,5.328 44.697,5.33 44.794,5.33 C 44.883,5.33 44.975,5.329 45.049,5.321 C 45.313,5.291 45.503,5.054 45.474,4.792 C 45.444,4.529 45.207,4.339 44.943,4.368 L 44.898,4.371 C 44.871,4.372 44.837,4.372 44.795,4.372 C 44.712,4.372 44.607,4.37 44.486,4.366 C 44.243,4.358 43.944,4.344 43.644,4.325 C 43.343,4.307 43.044,4.285 42.801,4.263 C 42.767,4.259 42.735,4.256 42.704,4.253 C 42.771,2.795 43.792,2.391 45.349,2.586 C 47.065,2.8 49.117,3.795 50.215,4.771 C 53.63,7.806 56.99,11.401 58.636,17.088 C 60.017,21.85 59.462,28.089 57.697,32.698 C 56.166,36.695 53.36,41.289 48.423,45.12 C 47.256,46.026 44.416,47.847 44.127,48.04 C 43.848,48.225 43.842,48.634 44.114,48.828 C 45.208,49.61 45.874,49.688 47.49,50.82 C 49.498,52.225 50.952,53.195 52.594,55.069 C 55.425,58.297 57.627,64.666 55.235,68.33 C 52.699,72.215 46.955,74.006 42.61,71.117 L 41.811,70.513 L 41.747,70.409 C 41.376,69.783 40.201,67.53 42.168,67.31 C 43.164,67.198 43.93,68.333 45.347,68.867 C 49.253,70.341 53.484,66.073 52.376,62.399 C 50.432,55.956 44.797,52.957 39.655,50.681 C 34.326,48.323 32.841,48.181 27.596,45.086 C 24.349,43.169 21.271,40.061 18.848,36.245 C 14.872,29.986 14.53,21.849 17.156,15.494 C 18.756,11.621 21.673,8.232 24.896,5.468 C 26.392,4.186 28.374,2.907 29.947,2.544 C 31.249,2.243 32.21,2.533 32.383,4.285 Z M 33.342,4.282 C 33.336,4.282 33.329,4.283 33.322,4.283 L 33.321,4.265 L 33.341,4.263 C 33.341,4.269 33.342,4.276 33.342,4.282 Z M 37.948,14.901 C 37.852,14.96 37.761,15.026 37.675,15.099 L 37.591,15.177 L 37.535,15.12 C 37.455,15.047 37.367,14.981 37.275,14.925 C 36.914,14.703 36.481,14.61 36.064,14.621 C 35.647,14.633 35.217,14.75 34.854,14.984 C 34.487,15.221 34.187,15.583 34.067,16.066 C 34.003,16.323 34.159,16.583 34.416,16.646 C 34.673,16.71 34.933,16.554 34.996,16.297 C 35.05,16.082 35.182,15.913 35.374,15.788 C 35.572,15.661 35.827,15.586 36.091,15.579 C 36.356,15.572 36.598,15.633 36.774,15.741 C 36.941,15.844 37.051,15.987 37.088,16.184 C 37.18,16.671 37.869,16.711 38.016,16.237 C 38.146,15.817 38.672,15.496 39.277,15.473 C 39.58,15.461 39.872,15.526 40.111,15.666 C 40.344,15.802 40.539,16.017 40.652,16.34 C 40.74,16.589 41.013,16.721 41.263,16.634 C 41.512,16.546 41.644,16.273 41.557,16.023 C 41.367,15.481 41.02,15.088 40.595,14.839 C 40.176,14.594 39.697,14.498 39.24,14.516 C 38.783,14.533 38.328,14.665 37.948,14.901 Z M 20.09,14.659 C 19.826,14.653 19.606,14.863 19.601,15.127 C 19.595,15.391 19.805,15.611 20.069,15.616 C 21.402,15.646 22.755,15.546 24,15.7 C 24.262,15.732 24.501,15.546 24.534,15.283 C 24.566,15.021 24.38,14.782 24.117,14.749 C 23.454,14.667 22.777,14.651 22.101,14.653 C 21.425,14.654 20.749,14.673 20.09,14.659 Z M 50.699,14.748 C 50.437,14.778 50.247,15.015 50.276,15.278 C 50.306,15.54 50.543,15.73 50.806,15.701 C 52.195,15.546 53.697,15.646 55.174,15.617 C 55.438,15.612 55.648,15.394 55.643,15.129 C 55.638,14.865 55.42,14.655 55.155,14.66 C 53.69,14.687 52.162,14.585 50.699,14.748 Z M 20.035,16.495 C 19.772,16.519 19.578,16.752 19.603,17.016 C 19.627,17.279 19.86,17.473 20.124,17.448 C 21.273,17.342 22.429,17.29 23.571,17.171 C 23.834,17.144 24.025,16.908 23.998,16.645 C 23.971,16.382 23.735,16.191 23.472,16.218 C 22.349,16.335 21.201,16.387 20.035,16.495 Z M 50.872,16.651 C 50.847,16.914 51.04,17.148 51.304,17.172 C 52.567,17.291 53.849,17.344 55.125,17.45 C 55.388,17.472 55.62,17.276 55.642,17.012 C 55.664,16.749 55.468,16.517 55.204,16.495 C 53.913,16.388 52.64,16.336 51.393,16.219 C 51.13,16.194 50.896,16.387 50.872,16.651 Z M 26.661,18.214 C 26.661,19.145 27.417,19.901 28.348,19.901 C 29.278,19.901 30.034,19.145 30.034,18.214 C 30.034,17.283 29.278,16.527 28.348,16.527 C 27.417,16.527 26.661,17.283 26.661,18.214 Z M 45.21,18.214 C 45.21,19.145 45.966,19.901 46.897,19.901 C 47.828,19.901 48.584,19.145 48.584,18.214 C 48.584,17.283 47.828,16.527 46.897,16.527 C 45.966,16.527 45.21,17.283 45.21,18.214 Z M 22.282,25.187 C 22.029,25.265 21.888,25.534 21.966,25.786 C 22.296,26.85 23.053,28.897 23.966,30.775 C 24.831,32.554 25.956,34.464 27.117,34.913 C 27.839,35.192 28.474,35.097 29.007,34.749 C 29.506,34.423 29.883,33.896 30.188,33.373 C 30.734,32.434 31.121,31.416 31.545,30.871 L 31.615,30.793 L 32.919,30.793 C 35.999,30.791 39.374,30.777 42.396,30.677 L 43.658,30.628 L 43.718,30.69 C 44.162,31.206 44.674,32.14 45.213,32.929 C 45.809,33.799 46.683,34.887 47.852,34.724 C 47.91,34.716 47.966,34.697 48.018,34.668 C 50.414,33.338 52.031,28.13 52.553,26.203 C 52.622,25.947 52.471,25.684 52.216,25.615 C 51.96,25.546 51.697,25.697 51.628,25.952 C 51.074,27.995 49.665,32.194 47.908,33.59 L 47.635,33.775 L 47.53,33.775 C 47.083,33.719 46.596,33.253 46.004,32.388 C 45.384,31.481 44.793,30.348 44.177,29.787 C 44.083,29.702 43.959,29.657 43.833,29.663 C 40.009,29.835 35.363,29.836 31.408,29.836 C 31.288,29.836 31.173,29.88 31.085,29.96 C 30.402,30.582 29.958,31.863 29.36,32.891 C 29.074,33.382 28.789,33.747 28.483,33.947 C 28.212,34.125 27.9,34.189 27.462,34.02 C 26.759,33.747 25.779,32.312 24.828,30.356 C 23.938,28.525 23.198,26.524 22.881,25.503 C 22.803,25.25 22.534,25.109 22.282,25.187 Z" stroke="none" fill="#000000" stroke-width="0.5" fill-rule="evenodd" marker-start="none" marker-end="none" stroke-miterlimit="79.8403193612775"/>
   </g>
  </g>
 </g>
</svg>
