<?xml version="1.0" standalone="no"?>
<!DOCTYPE svg PUBLIC "-//W3C//DTD SVG 1.1//EN" "http://www.w3.org/Graphics/SVG/1.1/DTD/svg11.dtd">
<!--Generator: Xara Designer (www.xara.com), SVG filter version: 6.0.0.4-->
<svg stroke-width="0.501" stroke-linejoin="bevel" fill-rule="evenodd" xmlns:xlink="http://www.w3.org/1999/xlink" xmlns="http://www.w3.org/2000/svg" version="1.1" overflow="visible" width="75pt" height="75pt" viewBox="0 0 75 75">
 <defs>
	</defs>
 <g id="Document" fill="none" stroke="black" font-family="Times New Roman" font-size="16" transform="scale(1 -1)">
  <g id="Spread" transform="translate(0 -75)">
   <g id="Layer 1">
    <path d="M 28.105,1.764 C 24.088,3.437 20.466,4.843 16.474,8.615 C 14.953,10.053 10.898,13.842 9.169,19.459 C 6.588,27.851 8.17,35.316 11.285,44.838 C 14.276,53.986 20.697,61.522 29.116,64.505 C 32.927,65.856 40.069,66.811 46.141,64.068 C 46.171,64.054 46.199,64.037 46.225,64.018 C 50.62,66.091 54.178,66.739 61.311,64.054 C 64.067,63.017 68.365,64.501 67.311,68.506 C 66.96,69.839 65.335,68.961 64.466,70.795 C 63.862,72.07 64.428,73.067 65.395,73.541 C 66.303,73.986 67.577,73.997 68.613,73.506 C 70.29,72.714 72.427,70.127 72.25,66.318 C 72.127,63.654 69.762,60.156 66.342,59.227 C 60.582,57.662 54.491,62.491 50.891,60.631 L 50.623,60.449 L 50.668,60.407 C 51.863,59.117 53.463,56.366 53.796,55.511 C 55.085,52.197 56.278,49.105 56.278,45.459 C 56.278,41.734 55.124,37.12 53.138,34.614 L 53.109,34.58 C 52.443,33.895 53.065,30.694 50.217,29.091 C 49.401,28.632 48.473,28.66 47.506,29.169 C 46.671,29.609 45.965,30.867 45.939,32.085 L 46.005,32.761 L 45.869,32.689 C 42.747,30.807 39.046,25.601 38.088,22.34 C 37.257,19.508 36.676,16.529 37.259,11.957 C 37.589,9.352 40.057,6.293 38.723,3.983 C 37.841,2.455 36.103,2.475 34.652,3.172 C 34.648,3.129 34.643,3.085 34.637,3.042 C 34.248,0.444 30.074,0.944 28.105,1.764 Z M 33.748,3.175 C 34.067,5.302 30.056,7.343 29.281,10.088 C 29.277,10.099 29.274,10.111 29.272,10.123 C 26.849,9.056 23.79,8.934 21.73,9.525 C 21.492,9.593 21.354,9.842 21.422,10.08 C 21.49,10.318 21.739,10.456 21.977,10.388 C 24.234,9.741 27.865,10.049 30.132,11.622 C 31.688,12.703 33.313,14.172 33.669,15.799 C 33.722,16.042 33.961,16.195 34.203,16.142 C 34.446,16.089 34.599,15.85 34.546,15.608 C 34.108,13.605 32.194,11.962 30.645,10.885 C 30.453,10.751 30.253,10.627 30.047,10.51 C 30.091,10.46 30.126,10.4 30.146,10.331 C 30.678,8.444 33.782,6.457 34.51,4.283 C 35.918,3.344 37.345,3.394 37.946,4.432 C 38.997,6.253 36.74,8.907 36.368,11.844 C 35.765,16.568 36.37,19.675 37.227,22.593 C 38.299,26.241 42.677,32.372 46.306,33.921 C 46.354,34.011 46.432,34.084 46.534,34.125 C 47.114,34.357 47.863,34.682 48.538,35.089 C 49.227,35.504 49.773,35.968 50.021,36.45 C 50.135,36.67 50.406,36.757 50.626,36.644 C 50.846,36.53 50.933,36.259 50.82,36.039 C 50.452,35.326 49.724,34.755 49.001,34.32 C 48.487,34.009 47.941,33.748 47.456,33.537 C 47.431,33.477 47.391,33.42 47.334,33.37 C 46.389,32.547 46.949,30.479 47.925,29.964 C 48.674,29.569 49.274,29.591 49.776,29.874 C 52.033,31.143 51.538,33.387 52.131,34.703 L 52.436,35.17 C 54.249,37.461 55.38,41.847 55.38,45.459 C 55.38,48.912 54.256,51.854 52.959,55.186 C 52.601,56.106 50.642,59.379 49.639,60.15 C 49.414,60.323 49.404,60.66 49.619,60.845 C 53.553,64.243 60.529,58.579 66.107,60.094 C 69.133,60.915 71.248,64.067 71.353,66.359 C 71.514,69.818 69.569,72.061 68.23,72.695 C 67.425,73.075 66.439,73.052 65.79,72.734 C 65.201,72.445 64.912,71.95 65.277,71.18 C 65.899,69.868 67.691,70.592 68.18,68.735 C 69.506,63.694 64.085,62.05 60.994,63.213 C 53.929,65.874 50.628,65.146 46.304,63.06 C 46.08,62.952 45.812,63.046 45.704,63.269 C 45.701,63.273 45.699,63.277 45.697,63.282 C 39.921,65.858 33.076,64.955 29.415,63.658 C 21.314,60.787 15.063,53.501 12.138,44.559 C 9.035,35.069 7.533,27.834 10.028,19.724 C 11.681,14.353 15.57,10.704 17.091,9.268 C 20.949,5.622 24.425,4.27 28.45,2.593 C 30.588,1.702 33.533,1.736 33.748,3.175 Z M 13.805,17.999 C 13.692,18.219 13.778,18.49 13.999,18.604 C 14.219,18.717 14.49,18.631 14.604,18.41 C 15.141,17.369 16.181,16.814 17.214,16.764 C 18.247,16.715 19.204,17.165 19.638,18.066 C 19.746,18.29 20.014,18.384 20.237,18.276 C 20.461,18.168 20.555,17.9 20.447,17.677 C 19.825,16.386 18.48,15.804 17.171,15.868 C 15.859,15.931 14.508,16.637 13.805,17.999 Z M 23.529,16.907 C 23.193,18.04 26.421,18.17 26.594,17.399 C 26.993,16.17 23.877,15.721 23.529,16.907 Z M 28.415,18.715 C 28.251,18.9 28.268,19.184 28.454,19.349 C 28.639,19.513 28.923,19.496 29.088,19.31 C 29.764,18.546 30.855,18.202 31.874,18.33 C 32.882,18.456 33.752,19.03 34.071,20.045 C 34.146,20.282 34.398,20.413 34.634,20.339 C 34.871,20.264 35.002,20.012 34.928,19.776 C 34.483,18.363 33.265,17.599 31.986,17.439 C 30.715,17.279 29.315,17.698 28.415,18.715 Z M 35.757,29.215 C 35.678,30.402 35.625,32.288 35.413,33.988 C 35.308,34.836 35.166,35.609 34.971,36.204 C 34.816,36.676 34.652,36.958 34.507,37.105 L 34.395,37.19 L 34.323,37.174 C 34.192,37.129 33.95,37.003 33.576,36.72 C 33.141,36.392 32.643,35.94 32.161,35.467 C 31.307,34.63 30.551,33.775 30.313,33.479 L 30.245,33.39 C 30.14,33.208 29.923,33.123 29.723,33.186 C 26.026,34.341 21.426,34.893 18.337,33.726 C 18.092,33.633 17.82,33.769 17.747,34.021 C 17.489,34.918 17.212,36.109 16.782,37.088 C 16.332,38.111 15.841,38.6 15.301,38.565 C 15.202,38.559 14.928,38.406 14.522,37.859 C 14.151,37.358 13.755,36.647 13.379,35.815 C 12.627,34.15 11.987,32.078 11.777,30.41 C 11.746,30.164 11.521,29.989 11.276,30.02 C 11.03,30.051 10.855,30.276 10.886,30.521 C 11.109,32.298 11.78,34.457 12.561,36.184 C 13.191,37.579 14.206,39.395 15.244,39.462 C 16.441,39.539 17.156,38.468 17.604,37.449 C 17.95,36.66 18.208,35.732 18.416,34.968 L 18.484,34.72 L 18.669,34.782 C 21.552,35.631 25.298,35.279 28.536,34.454 L 29.686,34.128 L 29.743,34.198 C 30.108,34.63 30.8,35.391 31.532,36.109 C 32.026,36.593 32.555,37.074 33.034,37.437 C 33.461,37.759 33.984,38.101 34.434,38.093 C 34.538,38.091 34.651,38.071 34.761,38.018 C 35.766,37.532 36.114,35.632 36.304,34.099 C 36.52,32.366 36.578,30.41 36.654,29.274 C 36.67,29.027 36.483,28.813 36.235,28.796 C 35.988,28.78 35.774,28.967 35.757,29.215 Z" stroke="none" fill="#000000" stroke-width="0.898" stroke-linejoin="round" stroke-linecap="round" marker-start="none" marker-end="none" stroke-miterlimit="79.8403193612775"/>
   </g>
  </g>
 </g>
</svg>
