<?xml version="1.0" standalone="no"?>
<!DOCTYPE svg PUBLIC "-//W3C//DTD SVG 1.1//EN" "http://www.w3.org/Graphics/SVG/1.1/DTD/svg11.dtd">
<!--Generator: Xara Designer (www.xara.com), SVG filter version: 6.0.0.4-->
<svg stroke-width="0.501" stroke-linejoin="bevel" fill-rule="evenodd" xmlns:xlink="http://www.w3.org/1999/xlink" xmlns="http://www.w3.org/2000/svg" version="1.1" overflow="visible" width="75pt" height="75pt" viewBox="0 0 75 75">
 <defs>
	</defs>
 <g id="Document" fill="none" stroke="black" font-family="Times New Roman" font-size="16" transform="scale(1 -1)">
  <g id="Spread" transform="translate(0 -75)">
   <g id="Layer 1">
    <path d="M 47.61,1.816 C 47.563,1.825 47.518,1.841 47.476,1.862 L 47.251,1.977 C 47.21,1.998 47.171,2.025 47.137,2.056 C 46.439,2.695 46.64,4.561 46.665,5.877 L 46.595,6.895 L 46.158,7.349 C 44.725,8.664 40.562,11.868 38.672,13.427 L 38.127,13.89 C 37.134,13.764 33.314,13.34 32.114,14.1 C 31.856,14.263 31.72,14.517 31.698,14.794 C 31.58,16.233 35.196,19.581 36.864,21.501 C 37.228,21.92 37.564,22.313 37.874,22.683 C 36.773,22.826 35.677,23.143 34.67,23.346 C 34.389,23.402 34.207,23.675 34.264,23.955 C 34.32,24.236 34.593,24.418 34.873,24.361 C 36.125,24.11 37.441,23.706 38.67,23.65 C 38.777,23.784 38.88,23.913 38.979,24.039 C 38.583,24.301 38.179,24.576 37.761,24.84 C 37.262,25.155 36.763,25.442 36.273,25.656 C 36.135,25.715 36.036,25.827 35.99,25.958 C 34.632,25.882 33.214,26.003 31.906,26.47 C 29.748,27.239 27.625,28.959 28.154,31.713 C 28.404,33.017 29.555,35.32 32.078,34.815 C 33.512,34.528 33.655,33.195 33.639,32.526 L 33.627,32.363 L 34.07,32.266 C 34.944,32.242 36.544,32.529 37.633,33.108 C 38.956,33.811 40.176,34.974 40.479,36.287 C 40.949,38.332 39.925,40.67 38.682,42.62 C 37.472,44.519 35.991,46.16 34.027,47.366 L 32.221,48.256 C 32.162,48.248 32.1,48.251 32.04,48.266 L 31.278,47.787 C 28.247,46.117 22.368,44.386 19.008,47.267 C 18.109,48.038 17.817,49.506 18.377,50.502 C 19.293,52.129 21.516,52.831 23.407,52.367 C 25.692,51.808 27.392,52.805 27.528,54.032 C 27.679,55.395 28.07,56.121 28.39,57.064 L 28.543,57.63 C 28.535,57.67 28.533,57.711 28.535,57.754 L 28.551,57.746 L 26.787,58.627 C 21.975,60.64 18.289,59.472 14.39,57.644 C 11.38,56.234 9.244,53.9 8.041,49.893 C 7.163,46.964 8.646,43.63 8.58,40.816 C 8.552,39.598 8.036,39.542 7.699,39.215 C 7.052,38.585 6.242,38.212 5.037,38.812 C 0.988,40.825 1.017,47.523 1.968,51.507 C 3.087,56.189 6.951,60.318 11.135,62.507 C 18.114,66.154 23.349,65.631 27.696,64.666 L 31.523,63.751 L 31.61,63.835 C 32.108,64.356 33.186,65.633 33.825,66.422 L 34.108,66.778 L 33.337,67.607 C 30.656,69.363 25.569,66.583 23.518,68.841 C 22.119,70.38 23.724,71.905 23.827,72.019 C 25.774,74.19 30.439,74.26 34.584,74.158 C 47.739,73.532 56.703,69.141 62.103,61.944 C 64.931,58.172 66.819,54.505 68.182,50.621 C 69.328,47.127 69.818,43.672 69.763,39.476 C 69.748,38.348 69.607,37.018 69.437,35.646 L 68.963,31.815 L 70.097,30.783 C 71.493,29.24 72.751,26.795 71.923,23.32 C 71.524,21.644 71.101,19.539 71.199,17.825 L 71.428,16.601 L 72.181,16.592 C 77.634,16.019 74.17,8.277 69.043,9.268 C 65.438,9.964 64.263,13.213 64.39,16.859 L 64.572,18.154 L 63.8,17.094 C 62.802,15.784 61.742,14.469 61.326,13.888 C 62.334,13.185 63.414,12.583 64.409,11.72 C 64.625,11.532 64.648,11.205 64.461,10.989 C 64.273,10.773 63.946,10.75 63.73,10.937 C 62.792,11.751 61.75,12.326 60.717,13.05 C 60.543,12.819 60.346,12.561 60.128,12.281 C 60.158,12.219 60.183,12.154 60.202,12.087 L 60.227,11.993 C 61.159,11.173 61.657,10.149 62.529,9.458 C 62.752,9.28 62.79,8.954 62.612,8.73 C 62.434,8.507 62.108,8.469 61.884,8.647 C 60.838,9.478 60.315,10.608 59.398,11.337 C 59.394,11.339 59.39,11.343 59.386,11.345 C 56.267,7.48 50.568,1.223 47.61,1.816 Z M 47.849,2.834 L 48.405,2.836 C 51.427,3.373 57.77,10.817 60.034,13.866 C 60.044,13.957 60.077,14.047 60.137,14.125 C 60.191,14.197 60.261,14.251 60.339,14.285 C 60.372,14.332 60.404,14.377 60.435,14.421 C 61.43,15.842 64.732,19.768 64.909,20.556 C 64.909,20.557 64.909,20.558 64.91,20.558 C 64.883,20.558 64.87,20.578 64.859,20.599 C 64.739,20.813 64.627,21.027 64.492,21.258 C 64.36,21.483 64.221,21.699 64.068,21.889 C 63.761,22.271 63.449,22.486 63.106,22.507 C 62.82,22.525 62.603,22.771 62.62,23.056 C 62.638,23.342 62.884,23.559 63.169,23.542 C 63.934,23.495 64.486,23.023 64.876,22.538 C 65.073,22.292 65.241,22.028 65.386,21.781 C 65.528,21.539 65.66,21.289 65.764,21.102 C 65.823,20.995 65.841,20.876 65.821,20.763 C 65.913,20.655 65.959,20.503 65.918,20.318 C 64.737,15.339 65.508,11.005 69.24,10.285 C 71.258,9.895 73.133,11.372 73.76,12.952 C 74.3,14.316 73.921,15.769 71.041,15.574 C 70.812,15.558 70.6,15.695 70.52,15.91 C 69.716,18.08 70.403,21.409 70.916,23.559 C 71.882,27.619 69.642,30.047 68.105,31.201 C 67.96,31.311 67.882,31.488 67.901,31.669 C 68.185,34.388 68.698,37.292 68.728,39.489 C 68.781,43.587 68.303,46.926 67.201,50.288 C 65.876,54.064 64.038,57.637 61.274,61.323 C 56.112,68.204 47.478,72.507 34.547,73.123 C 30.2,73.229 26.153,73.061 24.598,71.328 C 24.281,70.974 23.612,70.277 24.285,69.538 C 25.725,67.954 32.916,71.041 35.22,67.068 C 35.313,66.908 35.313,66.709 35.208,66.528 C 35.002,66.198 33.255,64.07 32.385,63.156 C 32.4,63.055 32.385,62.949 32.336,62.851 C 32.037,62.252 31.875,61.928 31.612,61.402 C 31.484,61.146 31.173,61.042 30.917,61.17 C 30.661,61.298 30.557,61.609 30.685,61.865 C 30.857,62.209 30.986,62.467 31.139,62.773 C 26.023,63.952 20.292,66.123 11.614,61.588 C 7.626,59.503 4.008,55.588 2.975,51.266 C 2.002,47.19 2.241,41.358 5.498,39.739 C 6.219,39.381 6.565,39.558 6.976,39.958 C 7.573,40.537 7.529,40.175 7.545,40.841 C 7.591,42.841 6.162,47.233 7.048,50.19 C 8.331,54.461 10.657,57.039 13.951,58.583 C 18.413,60.675 22.844,62.016 28.866,58.778 C 28.97,58.989 29.095,59.2 29.23,59.356 C 29.416,59.573 29.744,59.598 29.96,59.411 C 30.177,59.225 30.202,58.897 30.015,58.681 C 29.983,58.643 29.938,58.58 29.887,58.492 C 29.837,58.406 29.786,58.306 29.74,58.201 C 29.723,58.163 29.708,58.126 29.693,58.09 C 29.702,58.03 29.701,57.969 29.689,57.909 C 29.288,55.898 28.762,55.763 28.557,53.917 C 28.313,51.704 25.631,50.757 23.16,51.36 C 21.603,51.742 19.914,51.118 19.28,49.993 C 18.978,49.457 19.134,48.525 19.683,48.054 C 22.9,45.296 29.39,47.559 31.772,49.319 C 31.816,49.352 31.865,49.377 31.917,49.395 C 32.058,49.59 32.228,49.761 32.396,49.904 C 32.684,50.15 33.007,50.349 33.281,50.48 C 33.539,50.604 33.849,50.495 33.972,50.238 C 34.096,49.98 33.987,49.67 33.73,49.547 C 33.527,49.449 33.281,49.298 33.068,49.116 C 33.05,49.101 33.033,49.086 33.016,49.071 C 35.947,47.745 37.986,45.639 39.555,43.177 C 40.814,41.205 42.06,38.543 41.488,36.054 C 41.089,34.319 39.561,32.96 38.12,32.193 C 36.766,31.474 33.715,30.773 32.761,31.651 C 32.689,31.722 32.64,31.804 32.615,31.895 L 32.594,31.973 C 32.586,32.006 32.58,32.039 32.578,32.073 C 32.529,32.786 32.78,33.618 31.875,33.8 C 30.286,34.117 29.401,32.716 29.171,31.518 C 28.794,29.55 30.243,28.162 32.253,27.445 C 35.666,26.23 40.069,27.654 41.452,28.443 C 41.477,28.457 41.504,28.469 41.532,28.48 C 41.547,28.49 41.565,28.5 41.584,28.51 C 41.662,28.548 41.773,28.618 41.913,28.719 C 42.049,28.818 42.197,28.936 42.345,29.062 C 42.642,29.314 42.928,29.582 43.1,29.756 C 43.302,29.959 43.63,29.959 43.833,29.758 C 44.036,29.556 44.036,29.228 43.835,29.025 C 43.642,28.832 43.336,28.543 43.014,28.271 C 42.853,28.135 42.685,28 42.523,27.882 C 42.424,27.81 42.323,27.741 42.223,27.68 C 42.098,26.355 40.695,24.33 37.647,20.822 C 36.158,19.108 33.462,16.425 32.853,15.271 L 32.751,14.945 L 33.167,14.797 C 34.626,14.492 37.907,14.906 38.224,14.948 C 38.376,14.968 38.529,14.92 38.642,14.816 C 39.68,13.862 46.899,8.338 47.492,7.432 L 47.522,7.38 L 47.554,7.316 C 47.568,7.287 47.58,7.256 47.589,7.225 C 47.914,6.066 47.64,4.397 47.671,3.463 L 47.849,2.834 Z M 52.78,13.186 C 52.02,13.781 51.771,14.735 52.225,15.316 C 52.679,15.896 53.666,15.883 54.426,15.288 C 55.187,14.693 55.436,13.738 54.981,13.158 C 54.527,12.578 53.54,12.59 52.78,13.186 Z M 52.066,18.114 C 51.911,18.355 51.981,18.675 52.221,18.83 C 52.364,18.922 52.399,19.208 52.237,19.445 C 52.156,19.564 52.026,19.665 51.834,19.707 C 51.64,19.75 51.344,19.739 50.932,19.561 C 50.549,19.395 50.136,19.73 50.219,20.139 C 50.323,20.653 50.089,20.928 49.863,21.03 C 49.681,21.112 49.432,21.113 49.321,20.873 C 49.201,20.613 48.893,20.499 48.634,20.619 C 48.374,20.739 48.26,21.047 48.38,21.306 C 48.736,22.078 49.587,22.291 50.29,21.974 C 50.444,21.904 50.588,21.81 50.715,21.695 C 51.209,22.567 53.134,23.741 53.386,22.813 C 53.524,22.303 52.99,21.2 52.472,20.571 C 52.724,20.444 52.934,20.259 53.092,20.03 C 53.554,19.356 53.472,18.403 52.782,17.959 C 52.541,17.804 52.221,17.874 52.066,18.114 Z M 43.463,20.431 C 42.702,21.026 42.453,21.981 42.908,22.561 C 43.362,23.142 44.349,23.129 45.109,22.534 C 45.869,21.939 46.118,20.984 45.664,20.404 C 45.21,19.823 44.223,19.836 43.463,20.431 Z M 40.366,25.944 L 40.991,27.091 L 40.289,26.819 C 39.524,26.555 38.604,26.305 37.608,26.14 C 37.848,26.004 38.083,25.861 38.313,25.717 C 38.765,25.431 39.203,25.134 39.611,24.864 C 39.911,25.268 40.16,25.626 40.366,25.944 Z" stroke="none" fill="#000000" stroke-width="0.5" fill-rule="evenodd" marker-start="none" marker-end="none" stroke-miterlimit="79.8403193612775"/>
   </g>
  </g>
 </g>
</svg>
