<?xml version="1.0" standalone="no"?>
<!DOCTYPE svg PUBLIC "-//W3C//DTD SVG 1.1//EN" "http://www.w3.org/Graphics/SVG/1.1/DTD/svg11.dtd">
<!--Generator: Xara Designer (www.xara.com), SVG filter version: 6.0.0.4-->
<svg stroke-width="0.501" stroke-linejoin="bevel" fill-rule="evenodd" xmlns:xlink="http://www.w3.org/1999/xlink" xmlns="http://www.w3.org/2000/svg" version="1.1" overflow="visible" width="75pt" height="75pt" viewBox="0 0 75 75">
 <defs>
	</defs>
 <g id="Document" fill="none" stroke="black" font-family="Times New Roman" font-size="16" transform="scale(1 -1)">
  <g id="Spread" transform="translate(0 -75)">
   <g id="Layer 1">
    <path d="M 47.42,4.897 C 47.273,7.419 49.377,9.941 51.513,11.01 C 54.163,12.334 56.513,13.138 58.076,14.631 C 60.008,16.477 59.743,18.953 58.935,21.077 C 58.662,21.792 57.661,22.586 56.902,23.075 L 56.351,23.394 L 56.086,23.418 L 55.975,23.458 L 55.918,23.433 C 55.198,23.06 53.484,21.875 52.356,21.396 C 49.735,20.282 47.032,19.932 44.355,19.676 C 41.726,19.425 38.642,19.705 36.497,19.836 C 32.55,20.078 30.832,20.898 30.055,22.123 C 29.49,23.015 29.661,24.407 30.495,25.324 L 30.845,25.631 L 30.418,25.913 C 29.403,26.608 27.935,27.701 26.967,28.507 L 26.435,28.973 L 26.403,28.513 C 26.013,25.055 24.623,22.547 21.911,21.396 C 20.676,20.87 18.734,20.818 17.662,21.888 C 16.537,23.014 16.583,24.934 18.068,25.566 L 18.75,25.745 L 18.838,25.837 C 20.189,27.514 20.153,33.67 20.228,36.186 L 20.266,36.934 L 20.129,37.267 C 19.579,38.451 17.65,42.329 17.86,49.436 C 17.935,52.026 18.213,54.755 18.833,57.472 C 18.99,58.159 19.193,58.92 19.425,59.712 L 19.496,59.937 L 19.03,59.967 C 18.81,59.984 18.589,60.004 18.405,60.023 C 18.313,60.033 18.229,60.043 18.158,60.053 C 18.092,60.062 18.022,60.073 17.966,60.086 L 17.912,60.101 C 17.687,60.176 17.565,60.42 17.639,60.645 C 17.709,60.855 17.928,60.976 18.165,60.922 L 18.274,60.905 C 18.334,60.896 18.409,60.888 18.496,60.878 C 18.669,60.86 18.882,60.841 19.095,60.825 C 19.309,60.808 19.522,60.795 19.695,60.786 L 19.764,60.783 L 20.005,61.547 L 19.887,61.578 C 19.734,61.615 19.547,61.657 19.36,61.696 C 19.174,61.735 18.99,61.771 18.842,61.799 C 18.767,61.813 18.703,61.825 18.652,61.834 L 18.555,61.85 C 18.319,61.88 18.153,62.096 18.183,62.331 C 18.213,62.567 18.429,62.733 18.664,62.703 C 18.728,62.695 18.864,62.67 19.002,62.644 C 19.155,62.615 19.345,62.578 19.537,62.538 C 19.728,62.497 19.925,62.454 20.091,62.413 L 20.272,62.366 L 21.028,64.5 C 21.306,65.247 21.579,65.941 21.828,66.539 C 22.15,67.312 23.061,69.437 24.096,71.343 C 24.99,72.99 26.329,75.169 27.527,74.989 C 28.936,74.707 29.412,71.904 29.634,70.607 L 29.655,70.493 L 31.812,70.473 C 33.98,70.284 36.171,69.684 37.762,68.752 L 38.35,68.352 L 39.069,68.935 C 40.121,69.863 41.487,71.119 42.756,70.978 L 42.874,70.947 C 43.655,70.622 43.835,69.29 43.91,68.204 C 43.952,67.589 43.963,66.914 43.962,66.25 L 43.942,64.427 L 44.399,62.967 C 44.91,60.915 44.942,58.832 44.686,57.031 L 44.544,56.334 L 44.891,56.297 C 45.1,56.261 45.331,56.212 45.558,56.159 C 46.009,56.055 46.47,55.933 46.746,55.867 C 46.977,55.811 47.119,55.579 47.064,55.348 C 47.008,55.117 46.776,54.975 46.545,55.03 C 46.256,55.1 45.807,55.219 45.364,55.321 C 45.144,55.372 44.931,55.418 44.743,55.45 L 44.373,55.493 L 44.341,55.336 L 44.106,54.598 L 44.409,54.532 C 44.603,54.456 44.79,54.359 44.958,54.266 C 45.129,54.172 45.281,54.082 45.429,54.006 C 45.576,53.93 45.691,53.881 45.785,53.858 C 46.015,53.8 46.155,53.566 46.098,53.336 C 46.04,53.106 45.806,52.966 45.576,53.023 C 45.384,53.071 45.198,53.157 45.033,53.242 C 44.869,53.327 44.705,53.423 44.542,53.513 C 44.383,53.601 44.236,53.676 44.097,53.731 L 43.791,53.803 L 43.655,53.488 C 42.843,51.873 41.585,50.901 41.367,49.363 C 41.3,48.885 41.365,48.469 41.554,48.295 C 43.414,46.58 47.501,46.591 49.668,46.941 L 50.181,47.048 L 50.241,47.699 C 50.509,50.414 51.15,56.06 51.276,60.202 C 51.353,62.776 51.436,65.954 53.623,67.526 C 54.663,68.274 56.677,68.462 57.648,67.384 C 59.207,65.656 57.994,63.488 57.26,60.952 C 56.424,58.067 61.792,40.022 62.016,36.276 C 62.118,34.541 61.822,30.437 61.09,28.35 L 60.912,27.953 L 61.375,27.605 C 62.221,26.98 63.342,26.127 63.958,25.153 C 65.065,23.4 66.132,21.611 65.788,18.925 C 65.251,14.723 64.126,12.624 61.98,10.332 C 60.346,8.588 57.308,7.396 55.551,6.812 L 54.916,6.61 L 54.302,6.306 C 53.04,5.599 53.164,5.021 53.297,4.496 C 53.488,3.743 54.045,2.584 52.501,1.588 C 49.652,-0.249 47.588,2.053 47.42,4.897 Z M 52.034,2.311 C 52.981,2.922 52.695,3.37 52.464,4.285 C 52.194,5.351 52.333,6.409 54.621,7.418 C 56.189,7.898 59.666,9.118 61.353,10.919 C 63.369,13.073 64.42,15.002 64.935,19.034 C 65.237,21.394 64.33,22.953 63.231,24.694 C 62.691,25.546 61.719,26.277 60.882,26.897 L 60.489,27.194 L 60.396,27.21 C 59.447,27.797 58.695,28.69 58.162,29.608 C 58.042,29.814 58.112,30.077 58.317,30.196 C 58.523,30.316 58.786,30.246 58.905,30.041 C 59.147,29.624 59.434,29.222 59.76,28.863 L 60.208,28.483 L 60.305,28.702 C 60.942,30.574 61.259,34.49 61.157,36.225 C 60.948,39.723 55.506,57.991 56.433,61.191 C 57.289,64.149 58.148,65.545 57.009,66.809 C 56.438,67.441 54.956,67.425 54.126,66.827 C 52.353,65.553 52.218,62.903 52.135,60.175 C 51.991,55.42 51.167,48.632 51.009,46.659 C 50.995,46.479 50.868,46.326 50.694,46.279 C 48.912,45.793 43.457,45.373 40.971,47.662 C 40.436,48.156 40.445,48.986 40.516,49.484 C 40.752,51.15 42.316,52.74 42.886,53.875 C 43.981,56.049 44.582,60.35 43.111,64.212 C 43.092,64.263 43.082,64.316 43.083,64.37 C 43.114,67.447 43.044,69.414 42.705,69.992 L 42.58,70.116 L 42.203,70.084 C 41.384,69.874 40.473,68.96 39.541,68.173 L 38.88,67.668 L 38.763,67.363 C 38.633,67.225 38.49,67.014 38.344,66.759 C 38.2,66.51 38.068,66.248 37.95,66.017 C 37.842,65.806 37.583,65.723 37.371,65.831 C 37.16,65.939 37.077,66.198 37.185,66.41 C 37.299,66.632 37.442,66.917 37.599,67.189 L 37.903,67.619 L 37.31,68.021 C 35.788,68.906 33.606,69.49 31.45,69.64 L 29.485,69.64 L 29.333,69.56 C 29.256,69.553 29.142,69.536 29,69.508 C 28.86,69.481 28.704,69.446 28.546,69.408 C 28.226,69.331 27.92,69.243 27.754,69.182 C 27.531,69.101 27.284,69.216 27.202,69.439 C 27.121,69.662 27.236,69.909 27.459,69.991 C 27.671,70.068 28.013,70.164 28.344,70.244 L 28.797,70.344 L 28.608,71.256 C 28.34,72.505 28.047,73.613 27.62,74.004 L 27.373,74.139 L 26.99,74.002 C 25.948,73.254 24.073,69.688 22.621,66.208 C 21.637,63.845 20.286,59.969 19.672,57.281 C 19.066,54.63 18.794,51.959 18.719,49.411 C 18.482,41.368 20.938,37.978 21.121,37.05 L 21.126,36.929 C 20.996,35.679 21.307,27.531 19.507,25.296 C 19.462,25.24 19.395,25.154 19.326,25.09 L 19.225,25.021 L 19.073,24.945 L 18.918,24.9 C 17.683,24.756 17.308,23.46 18.271,22.497 C 18.989,21.779 20.497,21.729 21.574,22.187 C 23.891,23.17 25.18,25.328 25.549,28.604 L 25.637,29.882 L 25.263,30.319 C 24.473,31.296 23.587,32.559 23.045,33.649 C 22.939,33.861 23.025,34.12 23.238,34.225 C 23.45,34.331 23.709,34.245 23.814,34.032 C 24.321,33.012 25.169,31.805 25.926,30.866 L 26.347,30.374 L 26.433,30.311 L 26.57,30.114 L 26.644,30.016 L 26.728,29.888 C 27.067,29.375 31.269,26.26 31.794,26.054 L 31.874,26.014 L 32.557,25.691 C 32.835,25.562 33.135,25.429 33.437,25.305 C 34.053,25.05 34.636,24.85 35.06,24.788 C 35.295,24.754 35.457,24.535 35.423,24.3 C 35.389,24.065 35.17,23.903 34.935,23.937 C 34.397,24.016 33.725,24.255 33.108,24.51 C 32.794,24.639 32.483,24.777 32.197,24.909 L 31.708,25.141 L 31.119,24.733 C 30.541,24.086 30.442,23.121 30.782,22.584 C 31.313,21.745 32.625,20.935 36.55,20.695 C 38.739,20.56 41.731,20.29 44.274,20.533 C 46.941,20.787 49.53,21.129 52.019,22.187 C 52.457,22.373 53.297,22.881 54.097,23.361 L 54.913,23.841 L 53.647,24.198 C 53.424,24.279 53.308,24.526 53.389,24.749 C 53.47,24.972 53.717,25.088 53.94,25.007 C 54.136,24.936 54.33,24.879 54.529,24.826 C 54.731,24.773 54.929,24.726 55.139,24.672 C 55.348,24.617 55.565,24.557 55.788,24.479 L 56.014,24.382 L 56.086,24.389 L 56.209,24.382 L 56.268,24.368 C 56.776,24.233 59.187,22.834 59.738,21.382 C 60.584,19.16 60.989,16.226 58.671,14.01 C 56.982,12.397 54.39,11.487 51.898,10.241 C 49.94,9.262 48.158,7.002 48.279,4.948 C 48.433,2.33 50.065,1.04 52.034,2.311 Z M 36.585,34.654 C 36.782,35.567 37.505,36.911 38.328,38.089 C 39.144,39.257 40.151,40.396 40.99,40.813 C 41.203,40.918 41.461,40.831 41.567,40.619 C 41.672,40.406 41.585,40.148 41.373,40.042 C 40.753,39.735 39.854,38.771 39.033,37.596 C 38.223,36.437 37.585,35.209 37.426,34.473 C 37.376,34.241 37.147,34.093 36.915,34.143 C 36.683,34.193 36.535,34.422 36.585,34.654 Z M 32.643,36.906 C 32.429,37.008 32.337,37.265 32.439,37.479 C 33.557,39.832 36.07,41.909 38.165,43.054 C 38.374,43.168 38.635,43.091 38.749,42.883 C 38.863,42.674 38.786,42.413 38.578,42.299 C 36.565,41.2 34.226,39.235 33.216,37.11 C 33.114,36.896 32.857,36.804 32.643,36.906 Z M 29.268,40.572 C 29.082,40.719 29.05,40.99 29.197,41.176 C 30.451,42.764 32.844,44.656 35.563,45.728 C 35.784,45.815 36.033,45.706 36.121,45.485 C 36.208,45.264 36.099,45.015 35.878,44.927 C 33.295,43.909 31.028,42.107 29.872,40.643 C 29.725,40.457 29.454,40.425 29.268,40.572 Z" stroke="none" fill="#000000" stroke-width="0.5" fill-rule="evenodd" marker-start="none" marker-end="none" stroke-miterlimit="79.8403193612775"/>
   </g>
  </g>
 </g>
</svg>
