<?xml version="1.0" standalone="no"?>
<!DOCTYPE svg PUBLIC "-//W3C//DTD SVG 1.1//EN" "http://www.w3.org/Graphics/SVG/1.1/DTD/svg11.dtd">
<!--Generator: Xara Designer (www.xara.com), SVG filter version: 6.0.0.4-->
<svg stroke-width="0.501" stroke-linejoin="bevel" fill-rule="evenodd" xmlns:xlink="http://www.w3.org/1999/xlink" xmlns="http://www.w3.org/2000/svg" version="1.1" overflow="visible" width="75pt" height="75pt" viewBox="0 0 75 75">
 <defs>
	</defs>
 <g id="Document" fill="none" stroke="black" font-family="Times New Roman" font-size="16" transform="scale(1 -1)">
  <g id="Spread" transform="translate(0 -75)">
   <g id="Layer 1">
    <path d="M 36.565,6.28 C 31.036,12.847 31.879,22.661 38.443,28.189 C 45.008,33.717 54.823,32.876 60.351,26.312 C 60.957,25.589 61.488,24.829 61.942,24.04 C 59.917,32.903 54.476,36.586 47.872,36.967 C 41.707,37.322 35.561,34.589 30.557,38.823 C 29.206,40.043 28.334,41.662 27.863,43.352 L 27.691,44.407 L 27.039,44.389 C 20.662,44.596 14.319,49.629 12.682,57.2 C 11.545,62.459 12.559,72.035 16.075,73.821 C 16.375,73.973 16.743,73.853 16.894,73.553 C 17.048,73.253 16.927,72.886 16.626,72.734 C 14.008,71.404 12.72,62.794 13.875,57.456 C 15.407,50.364 21.298,45.809 27.075,45.614 L 27.491,45.625 L 27.447,45.897 C 27.402,46.734 27.446,47.548 27.571,48.295 C 28.068,51.267 30.144,53.795 33.145,51.84 C 35.455,50.336 34.421,46.1 31.403,45.047 C 30.929,44.881 30.451,44.748 29.968,44.646 L 28.903,44.488 L 29.036,43.681 C 29.451,42.19 30.212,40.778 31.36,39.741 C 35.855,35.938 41.158,38.575 47.943,38.184 C 56.99,37.662 63.756,31.349 64.002,16.491 C 64.003,16.435 63.996,16.383 64.002,16.489 C 64.009,11.89 62.128,7.481 58.473,4.403 C 51.907,-1.126 42.093,-0.283 36.565,6.28 Z M 53.018,2.709 L 53.031,2.727 L 53.105,2.839 C 53.61,3.777 53.951,4.823 54.141,5.933 C 51.577,6.023 48.218,4.277 46.359,2.22 L 46.325,2.176 L 46.292,2.133 C 48.528,1.792 50.837,1.978 53.018,2.709 Z M 45.629,2.26 L 44.546,2.511 C 44.981,2.389 45.42,2.286 45.864,2.205 L 45.629,2.26 Z M 49.344,2.965 C 49.733,3.294 50.123,3.619 50.516,3.94 C 49.897,3.415 49.273,2.893 48.652,2.368 C 48.871,2.577 49.114,2.768 49.344,2.965 Z M 44.986,2.434 L 45.418,2.995 C 47.507,5.325 51.266,7.3 54.289,7.147 C 54.35,7.994 54.334,8.867 54.244,9.75 C 54.216,9.748 54.186,9.745 54.156,9.748 C 49.837,9.903 45.329,6.16 43.392,3.453 L 43.095,3.007 C 43.466,2.857 43.843,2.724 44.986,2.434 Z M 56.382,4.355 L 56.376,4.366 L 56.314,4.48 C 56.266,4.628 56.272,4.795 56.35,4.945 C 61.438,15.03 53.633,26.291 43.139,27.044 C 43.115,27.047 43.093,27.049 43.07,27.054 C 42.816,26.257 42.628,25.417 42.507,24.577 C 42.628,24.739 42.83,24.835 43.049,24.816 C 51.883,24.008 57.575,11.751 54.86,3.832 L 54.672,3.402 L 54.661,3.376 C 55.251,3.659 55.826,3.986 56.382,4.355 Z M 41.972,3.516 L 41.973,3.516 L 42.358,4.099 C 44.438,7.03 49.225,11.071 54.075,10.968 C 53.908,11.921 53.658,12.877 53.336,13.808 C 53.262,13.768 53.178,13.744 53.088,13.738 C 47.301,13.367 41.74,9.411 40.379,5.168 L 40.231,4.581 L 40.226,4.563 C 40.785,4.169 41.37,3.821 41.972,3.516 Z M 39.175,5.378 L 39.18,5.395 L 39.21,5.519 C 40.744,10.356 46.812,14.511 52.899,14.947 C 52.551,15.776 52.144,16.58 51.683,17.342 C 51.566,17.231 51.405,17.169 51.232,17.18 C 45.269,17.537 39.216,11.825 37.587,7.385 L 37.491,7.074 C 37.496,7.067 37.496,7.066 37.497,7.066 C 38.017,6.449 38.579,5.885 39.175,5.378 Z M 60.462,8.598 C 60.379,8.72 60.349,8.875 60.38,9.03 C 62.685,20.245 54.339,29.886 44.41,29.305 C 44.311,29.297 44.215,29.317 44.129,29.355 L 43.913,29.042 C 43.77,28.785 43.638,28.516 43.516,28.238 C 53.895,27.308 61.87,16.75 58.314,6.465 L 57.95,5.607 L 57.921,5.536 C 58.95,6.442 59.82,7.463 60.462,8.598 Z M 37.491,7.073 L 37.461,7.112 L 36.615,8.225 C 36.885,7.831 37.177,7.447 37.491,7.073 Z M 36.622,8.231 L 36.842,8.749 C 39.022,13.348 44.906,18.583 50.984,18.41 C 50.386,19.253 49.718,20.027 48.99,20.708 C 48.956,20.697 48.922,20.689 48.888,20.685 C 43.622,19.913 37.611,15.776 35.679,10.792 L 35.493,10.227 L 35.257,10.713 C 35.591,9.925 35.997,9.16 36.622,8.231 Z M 61.229,9.793 C 61.093,9.527 60.948,9.263 60.354,8.303 C 60.948,9.263 61.093,9.527 61.229,9.793 Z M 34.826,11.872 L 34.83,11.883 L 35.236,10.766 C 35.083,11.131 34.947,11.5 34.826,11.872 Z M 59.418,25.525 C 56.134,29.424 51.21,31.132 46.505,30.49 L 48.284,30.257 C 55.919,28.767 61.804,21.716 61.981,13.166 L 61.923,11.566 L 61.917,11.376 C 63.615,16.038 62.842,21.459 59.418,25.525 Z M 34.852,11.933 L 35.014,12.299 C 35.319,12.904 35.675,13.495 36.09,14.059 C 36.087,14.059 36.085,14.061 36.084,14.063 C 35.529,15.008 35.035,15.923 34.627,16.838 L 34.218,17.864 C 33.997,15.863 34.195,13.818 34.826,11.872 L 34.852,11.933 Z M 38.734,17.027 C 37.694,18.88 37.226,21.454 37.409,23.95 L 37.657,25.688 L 38.146,26.247 C 36.539,24.585 35.404,22.609 34.76,20.504 L 34.866,19.878 C 35.228,18.296 35.936,16.772 36.883,15.117 C 37.445,15.79 38.066,16.429 38.734,17.027 Z M 41.476,19.092 C 41.408,19.17 41.358,19.267 41.337,19.377 C 40.898,21.626 41.038,25.138 42.122,28.05 L 42.768,29.45 C 41.623,28.953 40.526,28.3 39.509,27.487 L 39.337,27.143 C 38.22,24.264 38.367,20.364 39.689,17.826 C 40.261,18.279 40.859,18.702 41.476,19.092 Z M 34.682,20.235 C 34.541,19.705 34.508,19.569 34.416,19.141 C 34.508,19.569 34.54,19.705 34.682,20.235 Z M 47.763,21.72 C 46.321,22.76 44.695,23.44 42.937,23.603 C 42.703,23.622 42.512,23.774 42.428,23.978 C 42.254,22.427 42.294,20.909 42.516,19.709 C 44.218,20.655 46.018,21.349 47.763,21.72 Z M 42.901,29.507 L 42.763,29.441 L 42.759,29.434 L 42.768,29.45 C 42.811,29.468 42.856,29.487 42.901,29.507 Z M 43.776,29.841 L 43.786,29.798 L 43.776,29.841 C 43.482,29.739 43.19,29.628 42.901,29.507 C 43.19,29.628 43.482,29.739 43.776,29.841 Z M 44.652,30.112 L 44.639,30.093 L 44.219,29.985 C 44.363,30.029 44.507,30.071 44.652,30.112 Z M 45.23,30.245 C 45.145,30.239 45.061,30.218 44.982,30.198 C 45.126,30.234 45.271,30.269 45.23,30.245 Z M 28.705,45.692 L 29.717,45.841 C 30.15,45.932 30.58,46.051 31.003,46.199 C 33.457,47.054 33.608,50.082 32.479,50.819 C 30.63,52.023 29.245,50.909 28.773,48.095 C 28.661,47.418 28.622,46.688 28.665,45.94 L 28.705,45.692 Z" fill-rule="evenodd" stroke="none" fill="#000000" stroke-width="0.5" marker-start="none" marker-end="none" stroke-miterlimit="79.8403193612775"/>
   </g>
  </g>
 </g>
</svg>
